<svg fill="none" xmlns="http://www.w3.org/2000/svg" viewBox="0 0 80 59"><path d="M79 30c0-6.63-2.653-12.99-7.376-17.678A25.28 25.28 0 0053.815 5h-28.63a25.28 25.28 0 00-17.809 7.322A24.908 24.908 0 000 30c0 6.63 2.653 12.99 7.376 17.678A25.28 25.28 0 0025.185 55h28.63a25.28 25.28 0 0017.809-7.322A24.908 24.908 0 0079 30z" fill="#E1E1E1"/><path d="M56.055 41.576l.294.404a.5.5 0 00.206-.404h-.5zm-3.242 2.36l-.295-.405a.5.5 0 00.196.895l.099-.49zm5.335 1.077l.25.433a.5.5 0 00-.151-.923l-.1.49zm-5.336 3.078l-.25-.434a.5.5 0 00.143.922l.108-.488zm5.336 1.18l.233.441a.5.5 0 00-.125-.93l-.108.488zm-5.336 2.82l-.233-.441a.5.5 0 00.087.92l.147-.478zm5.336 1.642l.253.431a.5.5 0 00-.106-.909l-.147.478zm-2.593-15.051v2.894h1v-2.894h-1zm.206 2.49l-3.243 2.36.589.808 3.242-2.36-.588-.808zm-3.047 3.254l5.335 1.077.198-.98-5.336-1.077-.197.98zm5.184.154l-5.335 3.078.5.866 5.334-3.078-.5-.866zm-5.194 3.999l5.336 1.18.216-.977-5.336-1.18-.215.977zm5.21.25l-5.335 2.82.467.885 5.335-2.822-.467-.884zm-5.248 3.74L58 54.212l.294-.956-5.336-1.641-.294.956zm5.228.733l-2.092 1.231.507.862 2.092-1.23-.507-.863z" fill="#000"/><path d="M23.964 21.395c-.406-6.3 2.27-18.9 16.22-18.9 13.951 0 16.358 12.6 15.817 18.9" stroke="#000" stroke-width="3"/><path d="M23.95 31.935c-.637 5.38 1.295 16.141 14.123 16.141" stroke="#00181B"/><ellipse cx="41.309" cy="48.182" rx="4.407" ry="2.336" fill="#FF8139"/><path d="M19.262 25.136a4.664 4.664 0 119.327 0v10.312a4.664 4.664 0 11-9.327 0V25.136zm32.144-.146a4.664 4.664 0 019.327 0v10.312a4.664 4.664 0 11-9.327 0V24.991z" fill="#152D5D"/><path fill="#152D5D" d="M17.094 24.918h3.354v10.857h-3.354zm41.961 0h3.354v10.857h-3.354z"/></svg>