<svg fill="none" xmlns="http://www.w3.org/2000/svg" viewBox="0 0 80 59"><path d="M79 34c0-6.63-2.653-12.99-7.376-17.678A25.28 25.28 0 0053.815 9h-28.63a25.28 25.28 0 00-17.809 7.322A24.908 24.908 0 000 34c0 6.63 2.653 12.99 7.376 17.678A25.28 25.28 0 0025.185 59h28.63a25.28 25.28 0 0017.809-7.322A24.908 24.908 0 0079 34z" fill="#E1E1E1"/><path d="M39.5 0l6.571 6.969 9.412-1.776 1.22 9.5 8.658 4.096-4.597 8.403 4.597 8.403-8.658 4.096-1.22 9.5-9.412-1.776-6.57 6.969-6.572-6.969-9.412 1.776-1.22-9.5-8.658-4.096 4.597-8.403-4.597-8.403 8.659-4.096 1.22-9.5 9.411 1.776L39.5 0z" fill="#24AD79"/><path d="M30.755 25.583a1.5 1.5 0 10-2.322 1.899l2.322-1.9zm6.127 9.865l-1.16.949a1.5 1.5 0 002.304.022l-1.144-.971zM51.437 20.63a1.5 1.5 0 00-2.287-1.942l2.287 1.942zm-23.004 6.852l7.288 8.915 2.323-1.899-7.289-8.915-2.322 1.899zm9.593 8.937l13.41-15.789-2.286-1.942-13.41 15.789 2.286 1.942z" fill="#fff"/></svg>