<svg width="80" height="59" viewBox="0 0 80 59" fill="none" xmlns="http://www.w3.org/2000/svg">
<path d="M79 29C79 22.3696 76.3466 16.0107 71.6236 11.3223C66.9005 6.63392 60.4947 4 53.8153 4L25.1847 4C18.5053 4 12.0995 6.63392 7.37641 11.3223C2.65337 16.0107 0 22.3696 0 29C0 35.6304 2.65337 41.9893 7.37641 46.6777C12.0995 51.3661 18.5053 54 25.1847 54H53.8153C60.4947 54 66.9005 51.3661 71.6236 46.6777C76.3466 41.9893 79 35.6304 79 29Z" fill="#E1E1E1"/>
<rect x="40" y="36.1963" width="6.34247" height="27.9066" transform="rotate(-35.1996 40 36.1963)" fill="#FF8139"/>
<circle cx="32.6892" cy="20.779" r="20.779" fill="#FF8139"/>
<circle cx="32.6885" cy="20.7791" r="15.2822" fill="#FAFAFC"/>
<path d="M42.0967 13.7151C43.9728 16.8296 45.9465 24.7022 38.832 31.2764C40.3705 27.9367 43.1773 19.7489 42.0967 13.7151Z" fill="#E1E1E1"/>
</svg>
