<svg xmlns="http://www.w3.org/2000/svg" fill="none" viewBox="0 0 80 59"><path fill="#E1E1E1" d="M79 29c0-6.63-2.653-12.99-7.376-17.678A25.28 25.28 0 0053.815 4h-28.63a25.28 25.28 0 00-17.809 7.322A24.908 24.908 0 000 29c0 6.63 2.653 12.99 7.376 17.678A25.28 25.28 0 0025.185 54h28.63a25.28 25.28 0 0017.809-7.322A24.908 24.908 0 0079 29z"/><path fill="#D3662F" d="M23.035 47.327V27.682l29.468-13.395-15.18 16.967-2.68 3.572-11.608 12.501z"/><path fill="#FF8139" d="M68.576 0l-57.15 19.7 11.608 8.875 20.539-9.823L29.285 33.04l17.86 14.287L68.575 0z"/></svg>