<svg width="80" height="59" viewBox="0 0 80 59" fill="none" xmlns="http://www.w3.org/2000/svg">
<path d="M79 29C79 22.3696 76.3466 16.0107 71.6236 11.3223C66.9005 6.63392 60.4947 4 53.8153 4L25.1847 4C18.5053 4 12.0995 6.63392 7.37641 11.3223C2.65337 16.0107 0 22.3696 0 29C0 35.6304 2.65337 41.9893 7.37641 46.6777C12.0995 51.3661 18.5053 54 25.1847 54H53.8153C60.4947 54 66.9005 51.3661 71.6236 46.6777C76.3466 41.9893 79 35.6304 79 29Z" fill="#E1E1E1"/>
<rect x="35.1055" y="6.10034" width="9.78944" height="4.03093" fill="#081B42"/>
<rect x="32.8008" width="14.396" height="6.10034" fill="#FF8139"/>
<circle cx="40" cy="33.1157" r="25" fill="#152D5D"/>
<circle cx="40" cy="33.1157" r="21.0606" fill="#FAFAFC"/>
<path d="M40.0566 13.8533V18.1406" stroke="#00181B" stroke-linecap="round"/>
<path d="M40.0566 48.1514V52.4387" stroke="#00181B" stroke-linecap="round"/>
<path d="M59.3496 33.146L55.0623 33.146" stroke="#00181B" stroke-linecap="round"/>
<path d="M25.0508 33.146L20.7634 33.146" stroke="#00181B" stroke-linecap="round"/>
<path d="M53.6992 46.7876L50.6676 43.756" stroke="#00181B" stroke-linecap="round"/>
<path d="M29.4453 22.5354L26.4137 19.5038" stroke="#00181B" stroke-linecap="round"/>
<path d="M53.6992 19.5042L50.6676 22.5358" stroke="#00181B" stroke-linecap="round"/>
<path d="M29.4453 43.7563L26.4137 46.788" stroke="#00181B" stroke-linecap="round"/>
<path d="M40.2285 32.9856L34.791 15.0833" stroke="#FF8139"/>
<ellipse cx="39.9994" cy="33.1157" rx="2.85092" ry="2.71847" fill="#152D5D"/>
</svg>
