<svg fill="none" xmlns="http://www.w3.org/2000/svg" viewBox="0 0 80 60"><path d="M79 35c0-6.63-2.653-12.99-7.376-17.678A25.28 25.28 0 0053.815 10h-28.63a25.28 25.28 0 00-17.809 7.322A24.908 24.908 0 000 35c0 6.63 2.653 12.99 7.376 17.678A25.28 25.28 0 0025.185 60h28.63a25.28 25.28 0 0017.809-7.322A24.908 24.908 0 0079 35z" fill="#E1E1E1"/><path d="M39.717.742L17.699 19.516l22.018 16.218 21.525-16.218L39.717.742z" fill="#F5F5F5"/><path fill="#F5F5F5" d="M17.707 19.509h43.585v30.983H17.707z"/><path d="M39.23 35.852L17.704 19.515H61.29L39.23 35.852z" fill="#E1E1E1"/><path d="M21.93 2.573v20.121l17.494 13.21 18.021-13.411V2.573H21.93z" fill="#CCD2DD"/><circle cx="55.965" cy="3.742" r="3" fill="#24AD79"/><path stroke="#000" d="M26.437 8.563l13.562.09m-13.565 5.825h26.527m-26.539 4.26h26.527m-26.527 4.391h26.527"/></svg>