<svg fill="none" xmlns="http://www.w3.org/2000/svg" viewBox="0 0 485 560"><path d="M170.979 254v286.5H63.999V192l106.98 62z" fill="#fff"/><path fill="#E1E1E1" d="M153.982 265h-14.997v23h14.997zM123.988 265h-14.997v23h14.997zM93.994 265H78.997v23h14.997zM153.982 305h-14.997v23h14.997zM123.988 305h-14.997v23h14.997zM93.994 305H78.997v23h14.997zM153.982 345h-14.997v23h14.997zM123.988 345h-14.997v23h14.997zM93.994 345H78.997v23h14.997zM153.982 385h-14.997v23h14.997zM123.988 385h-14.997v23h14.997zM93.994 385H78.997v23h14.997z"/><path d="M228.446 327.289l-86.303 44.58v161.103h86.303V327.289z" fill="#fff"/><path d="M154.273 401.624V397h63.696v4.624h-63.696z" fill="#FF8139"/><path fill-rule="evenodd" clip-rule="evenodd" d="M201.914 401.089h-47.442v-3.924l47.442 3.924z" fill="#D3662F"/><path d="M154.472 385.675v-4.624h63.695v4.624h-63.695z" fill="#FF8139"/><path fill-rule="evenodd" clip-rule="evenodd" d="M214.115 385.624h-59.842v-4.604l59.842 4.604z" fill="#D3662F"/><path d="M154.472 462.746v-4.624h63.695v4.624h-63.695z" fill="#FF8139"/><path fill-rule="evenodd" clip-rule="evenodd" d="M216.05 462.624h-61.777V458h1.253l60.524 4.624z" fill="#D3662F"/><path d="M154.472 447.331v-4.623h63.695v4.623h-63.695z" fill="#FF8139"/><path fill-rule="evenodd" clip-rule="evenodd" d="M207.232 447.624h-52.959V443h1.746l51.213 4.624z" fill="#D3662F"/><path d="M154.472 431.918v-4.625h63.695v4.625h-63.695z" fill="#FF8139"/><path fill-rule="evenodd" clip-rule="evenodd" d="M210.506 431.624h-56.233v-4.296l56.233 4.296z" fill="#D3662F"/><path d="M154.472 416.503v-4.624h63.695v4.624h-63.695z" fill="#FF8139"/><path fill-rule="evenodd" clip-rule="evenodd" d="M204.536 416.624h-50.263v-4.34l50.263 4.34z" fill="#D3662F"/><rect width="120.563" height="8.41" rx="4.205" transform="matrix(-.86598 .50007 .49993 .86607 235.76 315)" fill="#152D5D"/><rect width="142.863" height="8.41" rx="4.205" transform="rotate(30.005 -307.907 201.648) skewX(.01)" fill="#152D5D"/><path d="M227.854 464.867s-19.771 0-19.771-18.484c0-18.485 12.464-23.643 9.885-37.184-2.578-13.541 7.737-26.867 21.923-18.7 14.186 8.167 3.193 36.181 8.166 44.708 4.973 8.526 6.443 30.951-20.203 29.66z" fill="#24AD79"/><path fill-rule="evenodd" clip-rule="evenodd" d="M233.954 388.341c-4.117 3.07-8.597 8.645-6.047 15.659 4 11 4.5 22 0 31-4.128 8.26-6.994 23.257 1.835 29.92a44.176 44.176 0 01-2.436-.053s-19.771 0-19.771-18.484c0-9.25 3.121-15.163 5.916-20.459 2.791-5.287 5.257-9.96 3.969-16.725-2.239-11.755 5.241-23.349 16.534-20.858z" fill="#179364"/><path fill="#fff" d="M231.235 451.073h-2.817V483h2.817z"/><path d="M64.544 503.017s24.439 0 24.439-22.849-15.406-29.225-12.219-45.963c3.188-16.738-9.563-33.211-27.1-23.116-17.535 10.096-3.946 44.724-10.093 55.264-6.147 10.54-7.965 38.26 24.973 36.664z" fill="#24AD79"/><path fill-rule="evenodd" clip-rule="evenodd" d="M60.445 408.003c-4.438 3.815-7.876 10.557-5.39 21.497 4.999 22 1.5 31-3 39-4.472 7.953 2.418 36.657 33.928 23.735-6.56 10.782-21.373 10.782-21.373 10.782-32.939 1.596-31.12-26.124-24.974-36.664 2.339-4.01 1.821-11.506 1.247-19.812-.934-13.525-2.017-29.197 8.847-35.452 3.84-2.211 7.45-3.147 10.715-3.086z" fill="#179364"/><path fill="#fff" d="M60.364 485.966h3.481v39.465h-3.481z"/><path d="M190.617 480h188.31v61.032H0C.172 529.919 9.23 521 20.344 521H48.76c18.48 0 52.805-2.192 69.429-18.5 24.975-24.5 50.949-22.5 72.427-22.5z" fill="#152D5D"/><path d="M211.459 500c3.599-13.2 14.83-18.5 19.996-19.5h-8.498c-7.999 2.8-14.664 13.167-16.997 18-25.495-5-33.494 15-34.993 24-1.2 7.2-8.832 14.667-12.498 17.5h39.493c2.999-5.5 15.996-6.5 21.495-19 4.4-10-3.499-18.167-7.998-21zM312.44 540c8.398-28.8 32.494-51.667 43.492-59.5H261.45c-21.996 16-41.159 46.333-42.992 59.5h93.982zM130.061 541.012c8.158-29.2 30.708-53.345 40.906-61.012-31.172.996-43.487 12.052-56.959 24.664-9.105 8.524-28.467 12.795-34.05 13.766l-32.816 3.07c-8.255.5-23 1.871-28.65 3.5C6.352 528.5-.462 536.881.024 540.881l130.037.131z" fill="#0C2048"/><path d="M454.956 337.131c-7.852-10.524-28.083-9.852-41.058-17.271-4.828-2.76-8.452-17.39-8.379-27.009 10.687-6.278 20.12-31.708 20.232-53.935.137-27.432-13.362-49.461-33.833-49.563-20.471-.103-34.179 22.019-34.316 49.45-.11 21.821 4.624 43.97 17.094 51.913-.048 9.581-2.266 20.093-7.185 22.843-13.049 7.288-31.349 4.482-38.685 15.336-20.023 29.686-21.134 87.999-21.134 87.999l155.083 29.179s18.143-69.632-7.819-108.942z" fill="#F4C7C3"/><path d="M407.5 307c1.6 7.6 4.5 12.5 9.5 13.5L402.5 331l-26 1-15.5-16.5c8-1.2 11.333-7.5 12-10.5 11.6 7.6 28 4.5 34.5 2z" fill="#000"/><path d="M389.239 221.349c-23.834-3.349-31.746 24.45-30.945 34.65-8.538-32.242 16.229-42.704 29.68-43.904l37.745 8.155-1.041 33.666-3.571-25.715c-17.582 1.649-23.702-6.852-31.868-6.852z" fill="#DCB3AF"/><path d="M329.212 322.671c13.321-5.386 23.508-5.522 37.772-9.181.824 3.292 5.422 13.01 22.422 14.51 3.5 0 16.748.729 24.697-8.109 21.989 2.987 33.526 6.317 41.377 16.841 25.696 34.442 8.192 109.467 8.192 109.467l-202.855-37.501s33.63-71.967 68.395-86.027z" fill="#000"/><path d="M439.406 541l6.357-100.548-132.674-35.179L300.906 541h138.5z" fill="#000"/><path d="M347.537 470.244L358 491.366c-13.021 9.857-23.251 6.454-26.739 4.107-1.744-3.52-5.813-11.148-6.975-14.081-1.163-2.934 1.55-3.818 2.325-4.209 4.069-2.347 13.02-7.291 16.276-8.699 3.255-1.408 4.069.587 4.65 1.76z" fill="#E1E1E1"/><path d="M342.948 470.273c2.342-.944 3.708.786 4.098 1.769L357 492.09c-11.242 7.547-20.298 6.29-23.421 4.717-1.756-3.341-5.621-10.731-7.026-13.562-1.405-2.83.195-4.324 1.171-4.717 4.099-2.359 12.882-7.312 15.224-8.255z" fill="#4284B5"/><path d="M470.126 445.493c.986-18.418.23-63.719-1.721-71.993l-55.749 15.471c5.001 11.194 13.613 40.186 10.583 42.533-6.927 5.365-36.445 26.5-57.96 38.954l8.844 25.322c69.85-20.324 88.025-40.288 96.003-50.287z" fill="#000"/><path d="M383.501 499c17.6-8.4 47.667-24.5 60.5-31.5l-.5 7.5-62.5 32v-12l2.5 4z" fill="#00181B"/><path d="M354 483c2.901 0 9.279-1.191 13.308-3 8.703 3.859 12.088 13.266 12.692 17.487-.604.603-2.297 2.533-4.231 5.428-2.417 3.618-9.603 13.319-14.269 14.585-6.648 1.804-17.762 3.505-22.597 1.696-3.868-1.447-3.627-3.819-3.022-4.824-2.901-2.412-2.418-5.427-1.813-6.633-2.901-2.895-2.418-5.628-1.813-6.633-1.934-2.895-1.209-5.227-.605-6.031 7.253 4.824 20.738-2.829 25.372-6.045L354 483z" fill="#E2BBA6"/><path opacity=".1" d="M384.968 295.764a25.15 25.15 0 0010.813.054s-5.21 5.229-10.813-.054z" fill="#000"/><path d="M389.424 215.91c-23.019-4.41-32.105 15.511-31.063 39.594-4.756-12.616-20.956-45.004-4.956-53.004 5.384-2.692 11.296-1.705 19.718-6.3 6.782-3.7 10.89-11.181 23.282-11.2 12.998-.019 24.704 16.335 29.5 19.5 18.085 7.392 3.585 40.342-1.639 50.222l-.627-8.011-3.004-22.417c-11.284 1.782-24.038-7.01-31.211-8.384z" fill="#2F2417"/><path d="M354.906 211.001c-6 4-5.167 18.666-4 25.499-13-37 4-34 16-37.5s8-6.5 21-12.499c10.4-4.8 21 1.999 25 5.999-4.834-3-17.1-6.3-27.5 4.5-13 13.5-23 9.001-30.5 14.001z" fill="#6B4F2D"/><path d="M265.906 295l1.5 6.5h-29.5V300l28-5z" fill="#142B5A"/><path fill="#C4C4C4" d="M211.906 139.913l5.93-.915 26.247 170.14-5.93.915z"/><path d="M233.905 293.5c-3.6-1.2-6.166-4.166-7-5.5l9.5-1 3 13-4.5 1-1-7.5z" fill="#E2BBA6"/><path d="M231.427 248.729c2.115.869 10.598 9.107 14.575 13.117l-1.75 23.642c-3.836 2.107-12.017 5.995-14.046 4.687-2.536-1.637-8.588-2.815-8.388-6.773.2-3.959-2.55-4.494-3.451-8.667-.9-4.172.965-4.951 1.393-7.152.429-2.2-1.45-4.279 1.394-7.151 2.843-2.872 2.614-4.63 2.936-6.281.321-1.65 4.694-6.508 7.337-5.422z" fill="#CBA895"/><path d="M254.429 285.621c-.081 1.343 1.711 8.9 2.618 12.51l-18.732 3.367-1.857-15.833c-.678-1.163-1.969-4.61-1.7-9.085.336-5.595 7.654-15.263 4.398-17.142-3.256-1.88-14.782 3.043-15.106-.907-.324-3.95 3.032-3.749 4.744-4.207 1.712-.459 16.628-5.74 18.765-3.927 2.137 1.813 8.347 10.608 8.146 13.964-.202 3.357-2.317 10.53-.806 13.428 1.51 2.898-.37 6.154-.47 7.832z" fill="#E2BBA6"/><path d="M312 416.5L265 293l-33.5 5.5c6.5 43.667 24.4 132.4 44 138 19.6 5.6 32.5-11 36.5-20z" fill="#000"/><path d="M130.776 175.507C93.769 155.962 47.758 177.715 37.02 190 29.09 110.496 69.236 58.873 94.017 43h215.185c64.019 6.211 86.735 62.113 84.67 98.138-40.311-29.152-68.837-4.417-78.061 11.594-39.981-38.427-81.366-8.971-93.757 7.04-45.928-23.851-81.228-2.485-91.278 15.735z" fill="#081B42"/><path d="M321.5 24C384 58.46 395 117.5 393 141l-83.5-61L82 52.5C117.5 14 229-27 321.5 24z" fill="#081B42"/></svg>