<svg fill="none" xmlns="http://www.w3.org/2000/svg" viewBox="0 0 477 540"><path d="M240.5 490c94.8 0 192.5 33.333 229.5 50H0c40.667-16.667 145.7-50 240.5-50z" fill="#152D5D"/><path d="M253.5 505.5L262 519h-43l9-13.5h25.5z" fill="#E1E1E1"/><path d="M269.5 530.5l9.5 9.5h-75l8.5-9.5h57z" fill="#FAFAFC"/><path d="M340 82H0c0-11.064 10.452-33.19 52.258-33.19C126.452 48.81 124.516 0 177.42 0c61.291 0 64.516 48.81 103.226 48.81C321.628 48.81 340 66.38 340 82zM402.005 129.175C440.826 126.497 468.177 155.276 477 170H270c7.239-11.043 28.166-30.653 53.956-20.747 32.237 12.381 29.523-16.732 78.049-20.078z" fill="#fff"/><path d="M287.536 382.336c-3.555-9.43-4.778-30.686-4.946-40.135l-82.996 15.086.416 51.909 93.527-11.525c-.519-1.182-2.447-5.904-6.001-15.335z" fill="#081B42"/><path d="M199.474 250.055c6.357-8.304 15.416-2.999 25.823-8.78 3.872-2.15 5.013-16.614 5.049-24.275-11.935-5.155-18.116-22.075-17.985-39.779.162-21.848 11.511-30.566 27.816-30.446 16.304.121 29.779 8.598 29.617 30.446-.128 17.38-.941 23.67-13.892 37.546-3.583 3.839-7.384 4.298-7.384 7.536 0 7.4 1.99 14.128 4.477 15.559 10.321 5.934 22.628 3.475 28.363 12.193 15.653 23.84 13.397 80.344 13.397 80.344l-109.157-3.441s.232-59.107 13.876-76.903z" fill="#F4C7C3"/><path d="M220.767 232.016s8.451 2.164 9.413-8.814c8.335 3.314 14.327 1.96 18.634-.146.741 9.288 2.48 8.189 5.255 8.96 8.326 2.313 13.413-2.905 23.589 3.7 26.364 17.114 18.023 96.533 18.023 96.533l-112.395 2.776s-6.013-63.829 12.026-90.193c9.25-16.189 25.455-12.816 25.455-12.816z" fill="#081B42"/><path d="M199.846 371.461c31.996-2.447 69.091-10.632 83.455-14.396l1.543 12.52c-39.074 8.104-72.987 10.364-85.059 10.481l.061-8.605zM200.985 279.595s-6.042 12.299-5.814 19.76l.228 7.46 1.158-.518s-.448-6.479-.34-8.789c.108-2.31 2.244-11.851 4.768-17.913zM277.37 280.16s6.611 17.571 5.604 22.337l-1.048 4.756-.665-.299c.535-2.245.78-4.549.728-6.856-.181-2.829-4.619-19.938-4.619-19.938z" fill="#0C2048"/><path opacity=".1" d="M243.812 219.106c-2.841.604-5.78.582-8.612-.063 0 0 4.098 4.215 8.612.063z" fill="#000"/><path d="M219.825 214.767h43.016c4.008-2.969 12.118-13.278 12.488-30.765.462-21.86-12.488-39.671-35.615-39.671-23.126 0-33.302 20.24-33.302 39.671 0 15.544 8.942 26.987 13.413 30.765z" fill="#00181B"/><path d="M241.102 156.07c5.55-5.829 18.347-3.238 24.051-1.214-3.7-4.453-15.726-14.168-33.764-9.715-14.431 3.562-20.814 16.057-22.202 21.859 9.713 4.858 24.977-3.643 31.915-10.93z" fill="#666A6A"/><path d="M240.64 167.405c16.651.324 30.372 5.262 35.152 7.691 2.96 11.334-.309 22.264-2.313 26.312-3.546.81-15.078 2.348-32.839 2.024-17.762-.324-28.369-1.484-31.452-2.024-5.551-11.01-4.472-22.129-3.238-26.312 4.625-2.699 18.039-8.015 34.69-7.691z" fill="#E9E9EA"/><path d="M258.679 203.028l-26.364-35.218c-8.141.648-17.577 3.508-21.277 4.858l22.664 30.36c6.661.648 19.426.27 24.977 0zM265.153 202.623l-26.827-35.218h1.851l27.289 35.218h-2.313z" fill="#fff"/><path d="M252.892 453.895h-24.766c-20.495 0-39.387-12.471-43.328-32.584-11.684-59.622.811-126.554 9.376-146.699 4.627-3.76 19.803-11.279 43.493-11.279s40.409 7.519 45.807 11.279c21.272 49.748 20.002 105.444 13.752 144.145-3.439 21.292-22.766 35.138-44.334 35.138z" fill="#fff" stroke="#fff"/><path d="M263.303 439.518c0-9.942-8.059-18-18-18H236.9c-9.941 0-18 8.058-18 18v54.154h44.403v-54.154z" fill="#00181B"/><path d="M218.9 521c0 9.941 8.059 18 18 18h8.403c9.941 0 18-8.059 18-18v-54.155H218.9V521z" fill="#00181B"/><path d="M303.543 435.393c-7.03 8.881-29.756 38.853-40.24 52.729v-6.938l18.964-74.93 18.038-52.728c27.752 39.315 12.026 70.767 3.238 81.867zM177.704 435.393c7.03 8.881 29.756 38.853 40.24 52.729v-6.938l-18.964-74.93-18.038-52.728c-27.752 39.315-12.026 70.767-3.238 81.867z" fill="#fff"/><path d="M297.993 435.856c-9.621 11.841-27.135 35.152-34.69 45.328v-27.289l4.626-.926c.154-1.387.74-5.92 1.85-12.95 1.387-8.788 8.788-22.664 14.338-29.14 4.44-5.18 9.867-13.876 12.026-17.576 12.488 11.101 13.876 27.752 1.85 42.553zM183.286 436.319c9.621 11.84 28.06 36.077 35.615 46.252v-28.676l-5.551-1.388c-.154-1.388-.74-4.995-1.85-12.026-1.387-8.788-9.25-23.126-13.876-29.139-4.16-5.408-9.867-13.876-12.025-17.576-12.489 11.101-14.339 27.752-2.313 42.553z" fill="#00181B"/><path d="M285.505 409.029l-22.202 77.705v-17.576l11.564-43.015c3.33-7.401 8.479-14.493 10.638-17.114zM195.773 409.029l23.127 78.168v-17.576l-12.488-43.478c-3.331-7.401-8.48-14.493-10.639-17.114z" fill="#C4C4C4"/><path d="M283.192 273.509c4.934 5.063-2.775 33.765-13.413 46.715-20.352 24.776-40.24 25.44-60.592 0-7.863-12.025-18.5-43.362-14.338-47.177 22.201-20.352 69.415-18.964 88.343.462z" fill="#E9E9EA"/><path d="M227.688 259.17l43.478 59.666-4.163 4.625-45.328-63.366c1.851-.37 4.78-.771 6.013-.925zM280.417 300.335l-29.139-41.165c-5.551-1.48-15.264-.925-19.427-.463l41.166 56.429c2.96-4.441 6.167-11.718 7.4-14.801z" fill="#fff"/><path d="M293.002 321.412l-26.337 15.206a16 16 0 00-7.927 15.389l.865 8.983 26.337-15.206a15.999 15.999 0 007.926-15.389l-.864-8.983zM188.373 321.412l26.337 15.206a16 16 0 017.927 15.389l-.865 8.983-26.337-15.206a15.999 15.999 0 01-7.926-15.389l.864-8.983z" fill="#FFD300"/><path d="M273.479 353.063l-9.251-14.801-1.85 1.388 9.25 14.338 1.851-.925z" fill="#E6C00B"/><path d="M284.579 346.588l-9.713-14.801-8.788 5.088 9.713 14.801 8.788-5.088z" fill="#E7C10B"/><path d="M284.117 335.024l9.713-6.012-.925-7.401-10.176 5.55 1.388 7.863zM197.161 335.024l-9.713-6.012.925-7.401 10.176 5.55-1.388 7.863z" fill="#FF8139"/><path d="M394.2 371.168s76.289 0 76.289-71.328c0-71.327-48.093-91.232-38.143-143.483 9.95-52.25-29.854-103.674-84.596-72.159-54.741 31.516-12.32 139.614-31.509 172.516-19.189 32.902-24.865 119.434 77.959 114.454z" fill="#24AD79"/><path fill-rule="evenodd" clip-rule="evenodd" d="M381.403 74.564c-13.855 11.911-24.585 32.956-16.825 67.107 15.605 68.677 4.681 96.772-9.363 121.745-13.962 24.826 7.545 114.432 105.911 74.094-20.481 33.658-66.721 33.658-66.721 33.658-102.823 4.98-97.148-81.552-77.959-114.454 7.3-12.517 5.683-35.918 3.892-61.845-2.918-42.223-6.298-91.145 27.617-110.67 11.988-6.902 23.259-9.826 33.448-9.635z" fill="#179364"/><path d="M395.83 263.341c0-11.018 12.39-33.363 16.174-40.571-21.397 37.1-23.877 13.38-26.82 5.231-2.354-6.52.227-22.939 1.811-30.334-1.755 6.64-5.978 19.151-8.828 16.072-2.85-3.078-9.94-19.995-13.129-28.069 6.489 19.015 18.912 58.246 16.692 63.049-2.221 4.804-18.225 2.002-25.95 0 20.327 7.353 25.77 20.724 25.95 26.49V539.64h14.1V263.341z" fill="#fff"/></svg>