<svg width="470" height="543" viewBox="0 0 470 543" fill="none" xmlns="http://www.w3.org/2000/svg">
<path d="M470 541.499C436.919 391.39 232.167 368.667 129.5 375.5V541.5L470 541.499Z" fill="#081B42"/>
<path d="M276 99.2603V540" stroke="#C4C4C4"/>
<circle cx="331.172" cy="362.999" r="22" fill="white"/>
<path d="M278.672 198.999C327.172 185.464 381.172 186.5 408.172 186.5V310C351.172 310 213.572 310.499 203.172 310.499C190.172 310.499 155.672 297.499 186.672 257.999C217.672 218.499 257.172 204.999 278.672 198.999Z" fill="white"/>
<path d="M359.672 251.999L413.172 251.999V248.999C399.172 248.666 368.272 248.299 356.672 249.499C345.072 250.699 337.505 254.999 335.172 256.999C339.672 255.333 350.872 251.999 359.672 251.999Z" fill="#E1E1E1"/>
<path d="M329.166 351.142L335.732 298.999L344.531 303.751L336.328 365.239L329.166 351.142Z" fill="white"/>
<rect x="279.172" y="212.999" width="33" height="53" rx="16.5" fill="#152D5D"/>
<circle cx="335.672" cy="222.499" r="9.5" fill="#E1E1E1"/>
<circle cx="366.672" cy="222.499" r="9.5" fill="#E1E1E1"/>
<circle cx="396.672" cy="222.499" r="9.5" fill="#E1E1E1"/>
<path d="M249.172 220.999H234.172C219.772 228.199 204.172 242.666 198.172 248.999H256.172C261.672 248.999 260.672 244.499 260.172 242.999C259.672 241.499 253.672 226.499 252.172 223.499C250.972 221.099 249.672 220.832 249.172 220.999Z" fill="#152D5D"/>
<rect width="283" height="13" transform="matrix(-1 0 0 1 418 98)" fill="white"/>
<path opacity="0.8" d="M214 111.089H226.5H276V234.5V295L214 111.089Z" fill="#C4C4C4" fill-opacity="0.3"/>
<path d="M394.505 1.14428C433.326 -1.53279 460.677 27.2458 469.5 41.9697H262.5C269.739 30.9268 290.666 11.3171 316.456 21.2223C348.693 33.6038 345.979 4.49063 394.505 1.14428Z" fill="white"/>
<rect width="12" height="444" transform="matrix(-1 0 0 1 141 98)" fill="white"/>
<rect width="12.8282" height="443.178" transform="matrix(-1 0 0 1 421 98)" fill="white"/>
<path opacity="0.2" fill-rule="evenodd" clip-rule="evenodd" d="M276 337.261L201 111.089H141V542H276V499.548L147 111.546H152.5L276 483.115V337.261Z" fill="#C4C4C4"/>
<path d="M345 397C345 397 349.689 395.282 358.385 384.468C358.385 384.468 356.216 393.559 367.813 403.973C375.846 411.162 369.581 449.46 366.197 456.219C366.197 456.219 398.248 487.799 450.422 462.507C450.422 462.507 437.319 414.816 436.365 387.852C435.19 357.233 431.645 337.549 420.921 308.642C410.197 279.735 407.657 263.785 409.113 248.566C410.569 233.347 409.836 209.516 383.006 203.759C356.176 198.002 353.003 229.552 353.003 229.552C353.003 229.552 350.633 269.893 361.186 279.135C370.434 287.285 386.289 276.942 386.289 276.942C386.289 276.942 389.964 295.655 385.707 302.264C385.707 302.264 379.833 308.982 365.323 314.76C350.171 320.767 347.741 364.823 339.708 372.893" fill="#E2BBA6"/>
<path d="M369.771 204.23C368.697 210.788 366.98 221.322 365.393 231.705C366.398 221.922 368.255 211.089 369.54 204.31L369.771 204.23Z" fill="#CEA999"/>
<path d="M353.023 229.592L365.394 231.704L364.771 241.116C364.65 246.283 359.901 244.761 361.176 246.723C366.518 254.964 373.808 241.377 378.226 241.797C382.644 242.218 384.703 247.244 381.53 255.815C378.357 264.386 389.764 266.769 390.748 271.575C391.732 276.381 399.393 303.445 390.748 312.707L377.503 308.702C380.502 306.934 383.256 304.783 385.697 302.304C389.954 295.696 386.279 276.982 386.279 276.982C386.279 276.982 370.434 287.325 361.176 279.175C360.41 278.489 359.735 277.708 359.168 276.852C353.896 269.472 353.143 250.739 352.993 246.723C352.842 242.708 353.023 229.592 353.023 229.592Z" fill="#CEA999"/>
<path d="M366.5 254.857C356.5 245.257 352 234.19 351 229.857C344.2 211.057 358.5 205.357 366.5 204.856C371.3 202.056 376.5 200.357 378.5 199.857C407.5 194.357 421.5 208.5 428 219.5C431.815 225.957 435 237.5 434 242.5C433 247.5 434 253.5 438 262C442 270.5 435.5 272.5 435.5 279C435.5 284.2 439.667 287.833 441 289.5C438.333 291.167 420.1 296.557 416.5 295.357C412 293.857 413.5 292.857 404.5 295.357C395.5 297.857 388 295.857 383.5 292.857C379.9 290.457 372.167 292.19 370 292.857C371 290.023 374.9 281.457 372.5 273.857C370.1 266.257 374.5 261.023 377 259.357C379.667 256.357 383.7 249.457 378.5 245.857C373.3 242.257 368.333 250.357 366.5 254.857Z" fill="#E9D694"/>
<path d="M366.5 255C348.9 236.6 348.5 220.667 350.5 215C352.5 241.5 374.5 237 381 244.5C387.5 252 386 263 381 272C377 279.2 378.667 284.333 380 286C385.5 285.5 387.5 289.5 396 291C404.5 292.5 403.5 289.5 414 292C422.4 294 435.167 291.167 440.5 289.5C438.5 291.5 424.5 295.5 419.5 295.5C414.5 295.5 415.5 294.5 409.5 294.5C403.5 294.5 402.5 297 396 296.5C389.5 296 389.5 295.5 382.5 292C376.9 289.2 371.5 291.833 369.5 293.5C371 290 373.6 280.8 372 272C370 261 375.5 260.5 378 258C379.768 256.232 383.5 249 377 245.5C373 243.346 367.833 250.667 366.5 255Z" fill="#C9B058"/>
<path d="M434 263C437.6 265.4 438.5 269 438.5 270.5C441.5 265 438.5 263 435.5 255.5C432.5 248 434 249 434 241.5C434 234 433 229 429 221C425 213 416.5 202 397 199C381.4 196.6 370.167 202 366.5 205C363.3 204.6 360.167 205.834 359 206.5C360.667 207.334 365.3 208.5 370.5 206.5C375.7 204.5 378.667 205.667 379.5 206.5C397.5 216.5 404.5 213.5 415 217.5C425.5 221.5 431.5 232 429 243.5C426.5 255 429.5 260 434 263Z" fill="#FAE7A4"/>
<path d="M419.295 304.166C419.295 304.166 424.094 308.171 428.422 320.186C432.75 332.202 421.494 313.268 421.494 313.268L420.168 306.569L419.295 304.166Z" fill="#292289"/>
<path d="M367.502 452.635C367.502 452.635 352.136 507.596 353 542L455.054 541.695H470C470 541.695 469 514.5 464.5 496.5C460 478.5 448.525 455.288 448.525 455.288C448.525 455.288 403.992 478.107 367.502 452.635Z" fill="#F4EFEF"/>
<path d="M367.814 313.5C352.621 319.548 342 350.033 324 387L350 402C350 402 353.5 395.5 358.385 384.467C358.385 384.467 356.216 393.559 367.814 403.972C375.816 411.161 369.149 448.368 366.197 456.218C366.197 456.218 441.195 488.739 448.535 455.287C448.535 455.287 440.944 426.3 439.94 399.336C438.835 368.727 435.516 337.5 429 320.5C424.813 309.576 418 301.5 418 301.5C413.271 306.426 409.298 310.34 385.5 302.5C380.67 305.943 373.352 311.365 367.814 313.5Z" fill="#F4C7C3"/>
<path d="M362.682 371.021C362.682 371.021 353.525 388.734 344.176 391.507C341.003 393.113 336.403 393.004 334.5 393L350.5 402.5C350.5 402.5 353 396 358.385 384.469C358.385 384.469 356.216 393.56 367.813 403.973C375.816 411.162 369.149 448.369 366.197 456.219C366.197 456.219 372.703 459.033 382.052 462.157C384.442 447.739 388.368 418.381 382.915 407.267C375.565 392.288 363.486 389.395 362.682 371.021Z" fill="#D3A8A4"/>
<g style="mix-blend-mode:multiply" opacity="0.3">
<path d="M416.323 466.071C416.142 467.283 415.971 468.464 415.8 469.636C415.971 468.464 416.142 467.283 416.323 466.071Z" fill="black"/>
</g>
<g style="mix-blend-mode:multiply" opacity="0.3">
<path d="M416.464 465.15C416.464 464.829 416.554 464.509 416.604 464.148C416.564 464.509 416.504 464.829 416.464 465.15Z" fill="black"/>
</g>
<path d="M415.864 523L420 542H410C412 533 415.227 525.167 415.864 523Z" fill="#152D5D"/>
<path d="M416 523L420 542H428L424 527.5L434.5 521.5C429.7 522.3 420.167 522.833 416 523Z" fill="#C4C4C4"/>
<path d="M327.5 358.5L344 345L333.5 367L327.5 358.5Z" fill="#D3A8A4"/>
<path d="M316 371.5C318.4 370.3 325.833 364.333 329.5 361.5L333.5 367L324 387L327.5 389C321.5 394.2 317.333 394.167 316 393.5C301.6 387.9 279.667 373.5 270.5 367L275 356C287.667 361.667 313.6 372.7 316 371.5Z" fill="#E2BBA6"/>
<path d="M238.466 315L259.274 336.333L268 345L249.205 363L219 331L238.466 315Z" fill="#8E5841"/>
<circle r="5.5" transform="matrix(-1 0 0 1 244 337.5)" fill="#FFD300"/>
<path d="M236.5 322L227 330" stroke="#FFD300"/>
<path d="M237.5 326L231.5 331" stroke="#FFD300"/>
<path d="M259 348.5L252.5 354.5" stroke="#FFD300"/>
<path d="M269 352.5C271.4 354.1 273 355 275 356L272 368C270.667 366.833 266 364.3 262 363.5C258 362.7 254.5 360 253 359C255.333 357 260 352.7 260 351.5C260 350 258.5 345.5 257 344C255.5 342.5 252 340 253 338.5C254 337 261 342 262.5 344C264 346 266 350.5 269 352.5Z" fill="#E2BBA6"/>
<path d="M316.785 528.712C315.178 519.068 306.834 512 297.057 512H259.609C247.25 512 237.85 523.097 239.881 535.288L241 542H319L316.785 528.712Z" fill="#E1E1E1"/>
<path d="M336.785 528.712C335.178 519.068 326.834 512 317.057 512H279.609C267.25 512 257.85 523.097 259.881 535.288L261 542H339L336.785 528.712Z" fill="white"/>
<path d="M300 512L287.5 443.5H262.5L274.5 512" stroke="black" stroke-width="3"/>
<path d="M291 439H252L254 446H293L291 439Z" fill="#666A6A"/>
<path d="M295 439H256L258 446H297L295 439Z" fill="#C4C4C4"/>
<path d="M315.5 522.5L321 542H317L312 522.5H315.5Z" fill="#152D5D"/>
<path d="M299.5 523L305 542.5H301L296 523H299.5Z" fill="#152D5D"/>
<path d="M282.5 523L288 542.5H284L279 523H282.5Z" fill="#152D5D"/>
<path d="M322 398.5C327.5 394 327.167 392.667 328.5 389L348 400.5C345 407 343.278 410.225 339.5 413.5C332 420 306.5 436.5 292.5 445C287.559 448 281.382 451.127 275 449C266 446 262.167 441 258.5 438H252.5L254.5 445H262L263 451C263 451 262.5 451.9 260.5 451.5C258 451 252 444.081 252 442.5C252 441 251.5 431 254.5 430.5C257.5 430 257.5 429 259.5 428C261.5 427 262.5 429 265.5 428C268.5 427 270 430.5 272 429C273.6 427.8 275.667 428.5 276.5 429C279.833 430.333 285.938 434.249 287.5 433C292.5 429 316.5 403 322 398.5Z" fill="#E2BBA6"/>
<path d="M333.5 410C337.5 406.4 341.5 400.167 343 397.5L348 400.5C345 408.5 339.5 413 336 416C332.5 419 307.5 435.5 303.5 438C299.5 440.5 289.5 449.5 278 449.5C268.8 449.5 261.5 441.833 259 438H254.5C255 436.5 257.3 434.4 262.5 438C269 442.5 281.5 445 286.5 443C291.5 441 328.5 414.5 333.5 410Z" fill="#CEA999"/>
</svg>
