<svg fill="none" xmlns="http://www.w3.org/2000/svg" viewBox="0 0 474 542"><path d="M110.5.26c-57.2-4-97.5 39-110.5 61h305c-10.667-16.5-41.5-45.8-79.5-31-47.5 18.5-43.5-25-115-30zM403.715 112.166C440.098 109.62 465.731 136.994 474 151H280c6.785-10.504 26.397-29.157 50.567-19.735 30.213 11.777 27.669-15.916 73.148-19.099z" fill="#fff"/><path d="M164.632 260.062h72.854V540H0v-33.103c0-26.867 6.509-43.659 22.589-58.531 12.864-11.899 33.437-31.185 42.115-39.341 3.574-12.314 14.013-47.784 27.184-91.155 16.463-54.213 39.052-57.808 72.744-57.808z" fill="#081B42"/><path d="M53.802 383.598c4.313 3.838 12.527 7.511 15.794 8.471l-4.73 16.504c-7.189 1.44-23.611 5.634-28.708-2.426-6.372-10.075-.98-29.745 4.9-29.266 5.882.48 7.352 1.919 12.744 6.717z" fill="#fff"/><path d="M130.217 280.928l102.35-.433v119.941c-38.604-.289-130.628 0-143.35 0-10.192 0-10.984-6.351-10.114-9.959 4.567-16.743 17.16-55.51 24.467-78.373 7.307-22.862 12.725-31.176 26.647-31.176z" fill="#E9E9EA"/><path d="M189.874 280.705l-39.735 119.716h39.937l38.687-119.922-38.889.206zM143.503 400.421l40.229-119.493h-5.404l-40.529 119.493h5.704z" fill="#fff"/><path d="M98.72 504.348c0-11.046 8.955-20 20.001-20h117.385V540H98.721v-35.652z" fill="#1C3B78"/><path d="M15.981 484.288c-1.517-6.866 3.709-13.374 10.74-13.374h42.211a11 11 0 0110.74 8.627L83.93 498.8c1.518 6.866-3.709 13.374-10.74 13.374h-42.21a11 11 0 01-10.742-8.626l-4.256-19.26z" fill="#E1E1E1"/><rect x="23.309" y="516.971" width="59.647" height="7.676" rx="3.838" fill="#E1E1E1"/><path d="M306.683 260.062h-69.886V540h234.316v-33.104c0-26.866-6.5-43.658-22.561-58.531-12.849-11.898-33.396-31.184-42.064-39.34-3.569-12.314-13.995-47.785-27.15-91.155-16.443-54.213-39.004-57.808-72.655-57.808z" fill="#081B42"/><path d="M417.541 383.598c-4.349 3.838-12.517 8.116-15.812 9.076l4.581 15.777c7.248 1.439 23.881 5.756 29.02-2.305 6.424-10.075.989-29.745-4.941-29.265-5.93.48-7.413 1.919-12.848 6.717z" fill="#fff"/><path d="M341.055 280.928l-109.077-.425-.187 119.942c38.556-.288 137.507-.009 150.215-.009 10.179 0 10.969-6.351 10.1-9.959-4.561-16.743-17.138-55.511-24.436-78.373-7.299-22.862-12.71-31.176-26.615-31.176z" fill="#E9E9EA"/><path d="M372.514 504.348c0-11.046-8.955-20-20-20H236.108V540h136.406v-35.652z" fill="#1C3B78"/><path d="M455.979 483.715c1.112-6.703-4.057-12.801-10.851-12.801h-26.315c-5.38 0-9.971 3.892-10.852 9.199l-3.196 19.26c-1.112 6.702 4.057 12.801 10.852 12.801h26.314c5.38 0 9.971-3.892 10.852-9.199l3.196-19.26z" fill="#E1E1E1"/><rect width="43.138" height="7.676" rx="3.838" transform="matrix(-1 0 0 1 447.832 516.971)" fill="#E1E1E1"/><path d="M258.824 394.743s10.864-1.461 19.56-12.275c0 0-2.169 9.091 9.429 19.505 8.033 7.189 1.767 45.487-1.617 52.246 0 0 32.052 31.58 84.226 6.288 0 0-13.104-47.691-14.058-74.655-1.175-30.619-4.719-50.303-15.443-79.21-10.724-28.907-13.265-44.857-11.809-60.076 1.456-15.219.723-39.05-26.107-44.807-26.83-5.757-30.003 25.793-30.003 25.793s-2.37 40.341 8.184 49.583c9.247 8.15 25.103-2.193 25.103-2.193s3.675 18.713-.583 25.322c0 0-5.874 6.718-20.383 12.496-15.153 6.007-17.583 50.063-25.616 58.133" fill="#E2BBA6"/><path d="M289.771 202.23c-1.074 6.558-2.791 17.092-4.377 27.475 1.004-9.783 2.861-20.616 4.147-27.395l.23-.08z" fill="#CEA999"/><path d="M273.023 227.592l12.371 2.112-.623 9.412c-.12 5.167.291 9.312 1.567 11.275 5.341 8.24 7.47-11.014 11.888-10.594 4.418.421 6.477 5.447 3.304 14.018-3.173 8.571 8.234 10.954 9.218 15.76.984 4.806 8.645 31.87 0 41.132l-13.245-4.005a40.002 40.002 0 008.194-6.398c4.257-6.608.582-25.322.582-25.322s-15.845 10.343-25.103 2.193a12.057 12.057 0 01-2.008-2.323c-5.272-7.38-6.025-26.113-6.175-30.129-.151-4.015.03-17.131.03-17.131z" fill="#CEA999"/><path d="M339.294 302.166s4.8 4.005 9.128 16.02c4.327 12.016-6.929-6.918-6.929-6.918l-1.325-6.699-.874-2.403z" fill="#292289"/><path d="M287.502 450.634S272.136 505.596 273 540h117s-1-27.5-5.5-45.5-15.975-41.213-15.975-41.213-44.533 22.819-81.023-2.653z" fill="#F4EFEF"/><path d="M181 373.5c15 2.5 51.045 11.901 69.049-5.33 13.877-13.277 20.082-49.323 35.275-55.37a70.735 70.735 0 0015.614-8.401c23.797 7.84 34.511 5.076 39.241.15.251.691 7.634 6.527 11.821 17.451 5 31 6.835 44.728 7.94 75.337 1.004 26.964 8.595 55.95 8.595 55.95-7.34 33.453-82.338.932-82.338.932 2.952-7.85 9.62-45.057 1.617-52.247-11.598-10.413-9.429-19.504-9.429-19.504-8.696 10.833-22.251 17.021-22.251 17.021C235.579 411.274 192 394.5 181 390.902V373.5z" fill="#F4C7C3"/><path d="M180.999 391v-5.5s35 16.472 57.5 13.989c7.5-.827 16.328-7.209 25.677-9.982 9.348-2.774 18.506-20.486 18.506-20.486.803 18.373 12.883 21.267 20.233 36.246 5.452 11.114 1.526 40.471-.864 54.889-9.348-3.124-15.855-5.937-15.855-5.937 2.952-7.85 9.62-45.057 1.617-52.247-11.598-10.413-9.429-19.504-9.429-19.504-8.696 10.833-22.251 17.021-22.251 17.021-20.555 11.815-64.634-4.989-75.134-8.489z" fill="#D3A8A4"/><path d="M336.322 464.071c-.18 1.212-.351 2.393-.522 3.565.171-1.172.342-2.353.522-3.565zM336.464 463.15c0-.32.09-.641.14-1.001-.04.36-.1.681-.14 1.001z" fill="#000" opacity=".3"/><path d="M285 240l-14.5-5c-1-1.5 1.429-18.5 7.5-27 5-7.001 12.5-11.5 17.5-9.5 15-2 41-10.5 52.5 24 3.772 11.315 11.5 46.5 11.5 90.5 0 34.063-7 44.5-23 44.5-24.5 0-41.5-35.167-43.5-48-2 1.6-6.167 3-8 3.5 3.6-7.2 3.167-61.667 2.5-88-1 7-2.5 13.833-2.5 15z" fill="#00181B"/><path d="M335.864 521L340 540h-10c2-9 5.227-16.833 5.864-19z" fill="#E1E1E1"/><path d="M336 521l4 19h8l-4-14.5 10.5-6c-4.8.8-14.333 1.333-18.5 1.5z" fill="#C4C4C4"/><path d="M155 350h-23l9 22h23l-9-22z" fill="#24AD79"/><path d="M187.499 407c2 1.2 65.228 15.022 78.228 20.855l35 23-8.5-3.5C273.393 440.855 195.699 424 182.499 416c-16.5-10-16.5-18-22-20.5s-2-11.5-8.5-17c-5.2-4.4-5.5-8.833-5-10.5-2-2-2.166-5.5-2-7-.4-1.6.834-2.667 1.5-3l15.5 9-2-4.5c-1.5-1.167-4.9-3.9-6.5-5.5-1.6-1.6-1-2.667-.5-3l7.5 5.5 6.5 8-1 2-14-4c6 7.167 18.4 22.6 20 27 2 5.5 13 13 15.5 14.5z" fill="#000" fill-opacity=".2"/><path d="M175 370.5c1.6 2 4.667 2.833 6 3v17c-5 0-7.295.088-11-1.5-3.5-1.5-6.5-4.5-8.5-7.5s-6.616-6.837-9.5-9c-4-3-2.167-4.333-1.5-4.5-.5-.5-1-.7-3-3.5s-.5-3.833.5-4c-2-2-2.5-3.5-.5-4s8 4 10.5 6c.781.625 6.5 6 7.5 6s-2.76-5.14-4-7c-1-1.5-7.293-5.793-8-6.5-1-1-1.5-2.5 0-3 1.342-.447 6.5 3 9 5s10.5 11 12.5 13.5z" fill="#E2BBA6"/><path d="M444.601 523.311a5566.826 5566.826 0 00-10.328 17.371h-1.878c2.66-4.695 8.356-14.742 9.859-17.371 1.878-3.286-9.859-10.328-3.756-20.187 6.103-9.858 19.718-56.335 22.534-76.992 2.817-20.656 7.512-31.923 9.39-6.572 1.877 25.351-.47 96.71-12.206 98.587-9.39 1.503-12.989 4.069-13.615 5.164z" fill="#00B67A"/><path d="M444.709 519.517c5.164-12.676 16.713-50.421 21.596-99.996" stroke="#fff"/><path d="M389.783 513.883c-.375 17.276 3.913 24.725 6.103 26.29h27.699c6.009 0 8.137-8.45 8.45-12.675-2.347-80.279 23.473-152.613 11.737-155.393-17.84-4.225-53.519 120.183-53.989 141.778z" fill="#00B67A" stroke="#00B67A"/><path d="M409.539 541.112c-3.281-25.443-3.094-90.546 23.904-147.412M423.585 522.803c-3.443 1.095-11.173 4.976-14.554 11.737-2.973-1.252-9.952-5.352-14.083-11.737m28.637-19.248c-3.756.313-12.112 2.16-15.493 7.042-1.877-1.095-6.384-4.789-9.389-10.798m24.882-18.309c-2.504 0-8.826.657-14.084 3.286-1.878-1.408-5.821-5.445-6.573-10.328m21.596-17.37c-2.035-.156-7.136.188-11.267 2.817-1.252-.939-3.756-3.85-3.756-7.981m18.309-16.901c-2.347-.626-7.793-.657-10.798 4.225-.626-1.721-1.878-6.103-1.878-9.858m16.901-14.084c-2.034 0-6.572.563-8.45 2.817-.47-1.409-1.409-4.789-1.409-7.042M460.203 502.147c-1.721 2.034-6.478 6.291-11.736 7.042-1.252-1.252-3.568-5.07-2.817-10.328M462.55 487.593c-1.565 1.409-5.634 4.319-9.39 4.695-.939-.939-2.817-3.756-2.817-7.512m13.615-10.797c-1.096 1.408-4.037 4.225-7.042 4.225-.939-.782-2.817-3.099-2.817-6.103m11.737-13.145c-.783 1.252-3.005 3.756-5.634 3.756-1.095-.626-3.286-2.629-3.286-5.634m10.328-12.675c-.782 1.095-2.817 3.286-4.694 3.286-.783-.47-2.348-1.972-2.348-4.225m7.042-12.206c-.469 1.095-1.596 3.286-2.347 3.286-.939 0-2.347-1.878-2.347-3.286" stroke="#fff"/><path d="M377.107 528.436c0 6.761-3.755 10.642-5.633 11.737h-6.573c-6.384 0-9.232-7.824-9.858-11.737-6.573-17.37 4.225-62.908 9.858-76.053 5.634-13.145 10.337-22.282 6.573 6.573-4.225 32.393 5.633 61.03 5.633 69.48z" fill="#00B67A" stroke="#00B67A"/><path d="M368.187 540.643a181.36 181.36 0 01-1.021-6.103m-.857-69.481c-1.074 5.784-1.713 11.992-2.029 18.309m8.132 43.66c-1.463 1.409-4.561 4.883-5.246 7.512m0 0c-1.694-.626-5.739-2.817-8.368-6.573m8.368 6.573a274.928 274.928 0 01-1.649-13.145m5.487-6.573c-1.311 1.096-4.243 3.944-5.487 6.573m0 0c-1.771-.626-5.78-2.723-7.658-6.103m7.658 6.103c-.405-3.972-.76-8.239-1.021-12.676m4.63-4.694c-1.053.939-3.452 3.192-4.63 4.694m0 0c-1.274-.469-4.384-2.065-6.637-4.694m6.637 4.694c-.242-4.112-.403-8.37-.449-12.675m4.14-2.817c-1.038.469-3.32 1.69-4.14 2.817m0 0c-1.124-.626-3.653-2.348-4.78-4.225m4.78 4.225a210.96 210.96 0 01.233-12.676m3.437-2.347c-.726.313-2.431 1.22-3.437 2.347m0 0c-.732-.156-2.478-1.127-3.604-3.756" stroke="#fff"/><path d="M350.347 522.803c2.629 7.136 3.6 14.553 3.756 17.37h-2.817c-.469-3.286-.939-12.206-5.164-17.37-4.225-5.164-18.309.939-21.126-7.042-2.816-7.981-33.332-75.584-38.496-84.034-5.164-8.45-33.801-44.13 9.39-8.45 43.19 35.679 60.56 70.419 60.091 80.278-.469 9.859-8.92 10.328-5.634 19.248z" fill="#00B67A" stroke="#00B67A"/><path d="M346.592 517.639c-2.191-13.615-14.741-49.482-47.416-84.035M348.939 494.635c-.469 2.973-2.065 9.577-4.694 12.206-3.443-.156-12.488-1.972-21.126-7.981m18.778-16.9c0 2.66-.751 8.45-3.755 10.328-2.661-.47-9.389-2.723-15.023-7.981m10.328-15.492c.47 1.877.751 6.384-1.878 9.389-2.66-.47-9.107-2.441-13.614-6.573m6.572-13.614c.157 1.721.282 5.54-.469 7.042-2.347-.157-7.793-.939-10.798-2.817m1.409-15.962c.469.939 1.126 3.287 0 5.164-1.409 2.348-9.39-1.877-11.737-2.816" stroke="#fff"/></svg>