<svg xmlns="http://www.w3.org/2000/svg" fill="none" viewBox="0 0 470 444"><path fill="#081B42" d="M245 0v443h193V0H245z"/><path fill="#0B1B39" d="M277.449 442.987V269.29h54.925v173.697h-54.925z"/><path fill="#152D5D" d="M283.422 442.987V275.549h42.984v167.438h-42.984z"/><path fill="#0B1B39" d="M355.746 442.987V269.29h54.925v173.697h-54.925z"/><path fill="#152D5D" d="M361.719 442.987V275.549h42.984v167.438h-42.984z"/><mask id="a" width="134" height="223" x="275" y="26" maskUnits="userSpaceOnUse"><path fill="#E1E1E1" d="M275.113 93.423c0-36.788 29.823-66.61 66.611-66.61 36.788 0 66.611 29.822 66.611 66.61v154.883H275.113V93.423z"/></mask><g mask="url(#a)"><path fill="#FAFAFC" d="M275.113 26.813h133.222v221.493H275.113V26.812z" opacity=".3"/><path fill="#152D5D" d="M293 233.5L367.5 32c8.4 2.8 13.5 6.833 15 8.5l-73.5 194c-5.2 0-12.833-.667-16-1z" opacity=".5"/><path fill="#1C3A73" d="M284 232l73-203 4 .5-73.5 203-3.5-.5z" opacity=".5"/></g><path fill="#E5B9B7" d="M338.355 290.784a10.434 10.434 0 00-3.442-2.278 96.116 96.116 0 00-10.968-1.197c-1.956 0-9.716 3.383-10.29 3.761-.574.377-.913 2.277 2.074 2.186 2.986-.091 22.626-2.472 22.626-2.472zM246.128 201.033s-1.121-.638-2.608-1.419a28.274 28.274 0 00-6.769-2.68c-3.142-.495-10.837 1.496-13.367 2.017-2.53.52-7.146 1.665-7.146 1.665.273 1.692-1.787 1.796-1.787 1.796.169 1.21 1.8 1.197 3.13 1.302a13.957 13.957 0 003.169-.339 3.016 3.016 0 01-.744 1.887 2.61 2.61 0 001.409.338 20.247 20.247 0 019.129 2.161c3.782 2.225 7.525 5.764 12.832 10.631a26.677 26.677 0 006.339 4.282h.104l.782.364c1.086.51 2.206.945 3.352 1.301.326.104.652.183.965.261l-8.79-23.567z"/><path stroke="#666A6A" stroke-width="2" d="M290 306c0 6.037 5.11 11 11.5 11s11.5-4.963 11.5-11-5.11-11-11.5-11-11.5 4.963-11.5 11z"/><ellipse fill="#FFD300" rx="3.434" ry="7.555" transform="scale(-1 1) rotate(13.99 -1459.094 -1098.467)"/><path fill="#FFD300" d="M315.131 339.696l-3.323-13.503-2.934-.193 1.648 6.952 1.65.511-.943 1.548 1.624.912-.944 1.549 1.361 4.92 1.861-2.696z"/><path fill="#C4C4C4" d="M301.157 340.95l.932-13.875-2.737-1.075-.54 7.125 1.418.988-1.369 1.188 1.27 1.362-1.369 1.189-.197 5.101 2.592-2.003zM288.706 337.999l3.786-13.381-2.455-1.618-2.004 6.858 1.182 1.26-1.586.88.961 1.595-1.585.879-1.25 4.95 2.951-1.423z"/><ellipse fill="#C4C4C4" rx="3.434" ry="7.555" transform="scale(-1 1) rotate(-2.446 7371.699 7206.772)"/><ellipse fill="#C4C4C4" rx="3.434" ry="7.555" transform="scale(-1 1) rotate(-11.481 1435.463 1616.952)"/><path fill="#666A6A" d="M307.5 314.669l2-1.5c.5.334 1.5.435 1.5 1 0 1-2.5 2.167-3 2.5l-.5-2z"/><ellipse fill="#666A6A" rx="1" ry="2.5" transform="scale(-1 1) rotate(13.469 -1495.514 -1145.495)"/><ellipse fill="#666A6A" rx="1" ry="2.5" transform="scale(-1 1) rotate(-.822 21992.362 21195.338)"/><path fill="#666A6A" d="M301.7 316.502l2.299-.333c.291.526 1.3.992 1.041 1.494-.459.889-3.216.779-3.813.846l.473-2.007zM294.814 313.732l2.686 1.437c-.095.593 0 1.434 0 2 0 .5-3.784-1.834-4.296-2.149l1.61-1.288z"/><ellipse fill="#666A6A" rx="1" ry="2.5" transform="scale(-1 1) rotate(-26.522 520.397 782.077)"/><path fill="#E1E1E1" d="M330.562 423.882s9.184-79.977 13.526-104.969h94.676c6.512 14.995 8.015 33.49 8.015 49.985 0 13.196-1.108 51.442-3.279 74.102H394l-9.331-40.112c-2.004 7.598-4.5 26.449-5.669 40.112h-49.5l1.062-19.118z"/><path fill="#CFCDCD" d="M337.5 365l1.5-12.5-.907-.974h18l1.5-15h32v16.5l57.5 1v11c-27.2-7.2-52.667-7.333-62-6.5l1-15c-1.2.8-3.5 1.333-4.5 1.5h-14c-4.4 0-6.833-1.667-7.5-2.5l-1 15.5c-8.4 1.6-17.426 5.307-21.593 6.974zM379.199 394.134c-4.149 25.202-7.26 27.956-8.297 38.866h8.297c2.489-26.511 4.839-22.501 5.703-29.865-1.659-11.783-4.493-10.91-5.703-9.001z"/><path fill="#CFCDCD" d="M443.594 432.026c2-68-3.5-61.667-6.5-70l10 2c1.2 28.8-1.834 44-3.5 68z"/><path fill="#fff" d="M233.5 169c10.8 14 16.5 44.5 16.5 57.5L210.5 242c0-25.5-9.333-49.5-16-58.5l39-14.5z"/><path fill="#F4C7C3" d="M233.948 195.112c-5.217-.092.678-3.579 3.795-4.243 3.117-.663 10.068-1.639 12.259 1.302 2.191 2.941 18.74 26.39 21.322 27.47 2.582 1.08 18.323 3.371 18.323 3.371 29.161 3.331 40.572.924 47.249-2.03 6.677-2.954 7.459-20.821 17.658-31.531 10.198-10.71 9.52-21.836 18.14-19.39 9.938 2.811 9.794-.468 9.794-.468l.835-1.497a63.476 63.476 0 004.121-16.604c-4.33.923-3.991 1.223-7.981.143-23.475-6.416-1.735-69.204-1.735-69.204 6.456-17.125 49.479-3.462 54.891 6.116 5.216 9.213-2.348 23.255-2.348 23.255 5.373-.196 5.986 4.138 5.986 4.138 1.096 9.317-12.324 15.355-12.324 15.355l-1.304 1.64c-11.92 16.748-8.933 28.629-6.716 33.691.496 1.054 4.695 3.513 8.998 3.435 5.478-.078 20.619.3 28.248 19.117 14.489 35.695 1.121 88.671-6.586 93.85-7.707 5.179-81.456 15.616-81.456 15.616l-7.512 5.01-8.92 2.603c-2.856.95-8.503 3.487-15.649 5.387-8.96 2.342-10.264 2.876-12.69 3.175-2.725.326-2.282.586-5.712.898-2.608.234-2.608-1.861-2.608-1.861l-4.512 1.159c-3.678-.248-2.165-4.438-2.165-4.438a2.778 2.778 0 01-1.728-3.366c.125-.447.361-.855.685-1.189.782-.637 7.824-4.671 9.311-5.621 1.487-.95 7.368-4.229 7.368-4.229s-8.542 2.303-9.024 2.953a85.714 85.714 0 01-7.721 5.739c-1.551.781-3.077-1.73-2.086-3.045.991-1.314 6.729-6.871 9.35-8.016 2.622-1.145 7.16-4.567 9.286-5.543 2.126-.976 2.608.936 8.724.767 6.117-.169 3.913-.078 4.865-.273.952-.195 2.334-.507 3.977-.833 1.856-.367 3.171-.237 4.682.352l14.972-3.462h-19.38c1.657-39.013 4.773-59.457 4.773-59.457s6.299 33.079-16.04 29.93c-22.34-3.149-60.134-24.438-61.973-25.571-.821-.507-3.025-1.808-5.568-3.708-12.102-1.601-8.647-12.22-16.08-12.22-8.594 0-10.303-.494-10.303-2.082 0-1.587 8.581-2.407 14.176-2.602-.926-4.008-1.056-7.808-2.478-11.335-1.643-4.125-7.316-2.589-11.189-2.654z"/><path fill="#000" d="M376.047 150.125c-5.36-5.309-2.217-20.248-3.247-25.623-1.031-5.374 7.903-10.189 7.694-23.892-.156-10.228 6.286-21.133 9.572-26.026-5.881.742-10.537 3.123-12.337 7.899 0 0-19.457 56.113-1.682 67.642zM387.483 171.193c1.891-1.744 4.982-20.821 4.982-20.821l-4.982 1.301a63.355 63.355 0 01-4.121 16.605l-.835 1.497s-3.273 2.186-9.859 1.197l1.461.494c4.486.976 11.463 1.471 13.354-.273z" opacity=".1"/><path fill="#fff" d="M279.957 221.515c4.786.82 9.689 1.535 9.689 1.535 29.161 3.332 40.233 0 47.249-2.03 10.903-3.214 4.682-28.446 14.88-39.182s12.298-14.184 20.866-11.712c8.568 2.473 10.433-3.657 11.477-4.242-.235 1.639 2.973 7.43 5.555 8.25l1.904 6.975 6.521-6.962c8.307-1.627 17.293-8.563 17.293-8.563.508 1.055-1.305 6.858 8.15 4.49 5.308-1.301 21.975.286 29.604 19.103 15.923 39.235 5.725 83.753-6.586 93.851-7.173 5.882-81.456 15.616-81.456 15.616l-.104 3.305-7.407 1.705c.43-10.098-6.638-17.165-6.638-17.165l7.055-1.678H338.63c1.656-39.014 4.773-59.457 4.773-59.457s6.299 33.079-16.041 29.93c-15.193-2.147-37.52-12.662-50.861-19.52 6.416-5.973 3.456-14.249 3.456-14.249z"/><path fill="#000" d="M364.96 280.711l4.186-28.03 3.913-26.13 1.473-9.877a58.975 58.975 0 01-.521-16.462c.795-7.938.443-17.919 4.46-27.119 0 0-1.761 8.12-1.174 13.937.365 3.657 3.091 14.666 1.304 23.163-1.786 8.498-4.76 10.619-4.186 22.292.574 11.672 1.148 30.75-9.455 48.226z" opacity=".1"/><path fill="#F4EBEA" d="M360.396 302.917l30.056-6.998-1.002 30.991h-32.059l3.005-23.993z"/><path fill="#DCD4D3" d="M360.669 303.026l-3.497 24.5h5.496c1.998-3 2.498-9.5 1.998-13.5-.499-4-1.499-8.5 7.495-9.5 7.194-.8 14.989-2 17.986-2.5l1.499-6-1.499.5-29.478 6.5z"/><path fill="#000" d="M358.395 337.906l.817-10.996h30.24l-.429 10.996h-30.628z"/><path stroke="#fff" stroke-width="3" d="M365.91 337.906V326.91h13.525v10.996H365.91z"/><path fill="#00181B" d="M463.59 189.026c-5.008-14.653-20.24-19.741-27.569-20.405l-20.668-3.062s-7.825 30.997-22.966 51.636l-2.322 50.686-33.15 16.917.208.208a18.206 18.206 0 014.799 14.249l-.104 3.306 3.091-.677s45.234-5.013 68.461-10.27c1.93-.443 8-2.088 8-2.088l22.22-9.602s14.202-49.334 0-90.898z"/><path fill="#00181B" d="M286.897 222.634l2.752.417c29.16 3.331 35.545.39 42.222-2.564s8.065-20.86 13.307-34.706c3.509-9.252 7.212-18.817 21.323-20.222l17.671.299a16.075 16.075 0 01-1.735 3.904l-.26.156c-.99.422-2.016.753-3.065.989 0 0-7.499 23.241-4.591 45.78l-9.702 64.949-7.903 3.162h-18.258c1.656-39.04 2.217-35.24 2.217-35.24s13.336 18.117-9.004 14.968c-12.715-1.796-35.5-5.5-49.891-20.264 2.009-3.292 6.143-13.95 4.917-21.628zM357.394 352.902l3.507-49.985c-1.503.333-5.21 1.2-8.015 1.999-3.507 1-7.013 2-9.518 3-2.004.799-6.178 2.332-8.015 2.999l-5.009 41.987h27.05zM388.449 354.402l2.004-57.983 60.613-14.996-2.004 21.994 7.013 50.985h-67.626z"/><path fill="#151563" d="M281.954 244.275s-.6-1.562 0-5.739l2.191 1.08a29.448 29.448 0 01-2.191 4.659z"/><path fill="#000" d="M338.355 287.921l.501-7.997 20.038 4.499-15.529 3.998c-1.503-.999-4.509-.5-5.01-.5zM449.902 285.987l-59 13.5-.5 5.5 59-13.5.5-5.5z"/><path fill="#262626" d="M395.045 224.769l1.018-6.728 3.769 5.713a73.645 73.645 0 0011.906-16.618 65.213 65.213 0 01-11.854 18.218l-3.717-5.648-1.122 5.063zM373.047 222.751l-1.748-6.506-4.042 3.904s-2.961-11.569-2.361-20.899a59.18 59.18 0 002.126 22.903l3.912-4.008 2.113 4.606z"/><path fill="#000C0E" d="M401.486 260.965s8.516-5.617 12.416-6.318c5.1-.918 15.686 0 15.686 0s.726-17.033-2.003-26.493c0 0-3.511 13.681-6.289 17.924-2.778 4.242-5.83 2.472-10.668 6.285-4.838 3.813-4.304 6.064-9.142 8.602z"/><path fill="#594423" d="M365.926 129.89a33.783 33.783 0 012.934-8.225s.144 3.995 3.913 2.837c5.568-1.705 13.55-2.017 22.17 6.194 8.62 8.212 20.866-3.812 22.731-10.137 1.865-6.324 7.447-21.16 3.325-25.115-4.121-3.956-14.736 1.744-26.186-2.212-11.451-3.956-16.276-13.26-17.554-8.68a72.205 72.205 0 01-2.426 7.365s-2.804-16.526 1.435-23.007c4.238-6.48 12.22-5.53 19.184-2.993 6.964 2.538 14.567 1.301 18.257 1.301a21.314 21.314 0 019.376 2.694 21.26 21.26 0 017.187 6.585c5.073 7.417 10.928 6.155 11.554 13.013.626 6.858-9.037 20.001-11.554 22.409-1.696 1.6-6.09 9.603-9.951 17.984.339 1.197 1.304 1.939 3.561 1.457a59.787 59.787 0 01-6.704 12.337c-3.443 4.684-14.136 11.711-29.629 11.868a23.663 23.663 0 01-10.929-2.083c-11.072-5.322-12.194-17.749-10.694-23.592z"/><path fill="#3E2F1C" d="M404.449 144.191c6.103-1.106 11.359-3.904 13.445-13.13 2.087-9.227 14.541-28.89 17.593-37.049 3.052-8.159-6.377-8.016-7.055-13.963-.431-3.709-3.574-7.808-5.869-10.41a21.3 21.3 0 017.721 6.897c5.073 7.417 10.928 6.155 11.554 13.013.626 6.858-9.037 20.001-11.554 22.408-1.696 1.601-6.091 9.604-9.951 17.985.339 1.197 1.304 1.938 3.56 1.457a59.729 59.729 0 01-6.703 12.336c-3.443 4.685-14.137 11.712-29.63 11.868a25.926 25.926 0 01-6.52-.585c10.289 1.366 17.318-9.721 23.409-10.827z"/><path fill="#674F2D" d="M418.391 67.895s-5.986 5.205-16.954 4.281c-3.886-.299-14.867-7.13-19.314-4.28-4.447 2.849-6.651 7.625-4.865 16.63a72.2 72.2 0 01-2.425 7.365s-2.804-16.5 1.434-22.98c4.239-6.481 12.22-5.532 19.184-2.994s14.567 1.301 18.258 1.301c1.584.019 3.158.246 4.682.677zM365.923 129.889a33.835 33.835 0 012.935-8.224s.143 3.995 3.912 2.837a20 20 0 0115.402 1.301c-.404-.091-14.006-3.292-17.71 2.811-3.704 6.103-3.104 15.147 1.578 21.797-6.756-6.064-7.382-15.616-6.117-20.522z"/><path fill="#F4C7C3" d="M244.422 209.309c-2.627.169-5.24.504-7.825 1.002-1.708.559-2.413 1.158-2.321 2.069.091.911 1.917 1.613 4.238 1.561l4.747-.104 1.161-4.528z"/><path fill="#000" d="M266.816 253.75c.03-.791-.09-1.58-.353-2.321a5.93 5.93 0 00-1.181-1.988 5.535 5.535 0 00-1.819-1.337 5.25 5.25 0 00-2.166-.47c-.745 0-1.481.16-2.166.47a5.535 5.535 0 00-1.819 1.337 5.913 5.913 0 00-1.181 1.988 6.197 6.197 0 00-.353 2.321v28.842a6.194 6.194 0 00.353 2.321 5.913 5.913 0 001.181 1.988 5.52 5.52 0 001.819 1.337c.685.31 1.421.47 2.166.47a5.25 5.25 0 002.166-.47 5.52 5.52 0 001.819-1.337 5.93 5.93 0 001.181-1.988c.263-.74.383-1.53.353-2.321V253.75z"/><path fill="#9D9D97" d="M267.159 253.821a5.883 5.883 0 00-3.584-5.659 5.92 5.92 0 00-4.631 0 5.895 5.895 0 00-3.584 5.659V282.727a5.883 5.883 0 003.584 5.659 5.923 5.923 0 006.576-1.34 5.885 5.885 0 001.639-4.319V253.821z"/><path fill="#000" d="M261.115 260.99s3.103 2.904 8.907 2.373c5.804-.531 8.033-1.572 9.981.06 1.948 1.632 4.448 2.513 7.4 0 0 0-2.008-5.777-7.922-5.687-5.915.09-8.033 2.623-12.813 1.682-4.78-.941-6.477-.741-6.477-.741l.924 2.313z" opacity=".3"/><path fill="#000" d="M264.007 256.244a14.726 14.726 0 0011.789 0c6.486-2.744 11.627-.31 12.672 4.005.893 3.745-3.595 4.706-4.74 1.652-1.004-2.753-5.874-2.773-8.555-1.652-2.681 1.121-7.32.851-11.286-.841l.12-3.164z"/><path fill="#E1E1E1" d="M261.937 256.244a14.72 14.72 0 0011.788 0c6.487-2.744 11.628-.31 12.672 4.005.894 3.745-3.594 4.706-4.739 1.652-1.004-2.753-5.874-2.773-8.555-1.652-2.681 1.121-7.32.851-11.287-.841l.121-3.164z"/><path fill="#33300B" d="M260.963 274.958c1.065 0 1.928-1.165 1.928-2.603 0-1.438-.863-2.604-1.928-2.604s-1.928 1.166-1.928 2.604c0 1.438.863 2.603 1.928 2.603z"/><path fill="#161612" d="M261.115 260.99a3.258 3.258 0 003.263-3.254 3.259 3.259 0 00-3.263-3.254 3.259 3.259 0 00-3.263 3.254 3.258 3.258 0 003.263 3.254z"/><path fill="#E1E1E1" d="M259.033 260.99a3.258 3.258 0 003.263-3.254 3.259 3.259 0 00-3.263-3.254 3.259 3.259 0 00-3.263 3.254 3.258 3.258 0 003.263 3.254z"/><path fill="#E2BBA6" d="M235.242 295.265c9.259-10.765 8.259-25.765 8.259-25.765l-12.5-59.5c-14.51-5.778-13.653-16.444-13.653-16.444-4.257-6.608-.582-25.322-.582-25.322s15.855 10.343 25.103 2.193c10.553-9.242 8.184-49.583 8.184-49.583s-3.173-31.55-30.003-25.792c-26.831 5.757-27.564 29.587-26.108 44.806 1.456 15.22-1.084 31.17-11.808 60.076-10.724 28.907-14.269 48.592-15.443 79.211-.954 26.964-14.058 74.654-14.058 74.654 52.174 25.292 84.226-6.288 84.226-6.288-3.384-6.758-9.65-45.057-1.617-52.246z"/><path fill="#CEA999" d="M233.281 95.522c1.075 6.559 2.792 17.092 4.378 27.475-1.004-9.782-2.862-20.616-4.147-27.394l-.231-.08z"/><path fill="#CEA999" d="M250.03 120.884l-12.371 2.113-3.161 4.003c.121 5.167-1.724 1.038-3 3-7 2-11.225-5.611-14.725-3-4 2.984-8.948 9.429-5.775 18 4.443 12 2.291 16.194 1.307 21-.984 4.806-8.646 28.738 0 38l10.693-5.5c-2-1.5-3.202-2.425-5.642-4.904-4.258-6.608-.583-25.322-.583-25.322s15.845 10.343 25.103 2.193a12.033 12.033 0 002.009-2.323c5.271-7.379 6.024-26.113 6.175-30.128.151-4.015-.03-17.132-.03-17.132z"/><path fill="#E9D694" d="M251.739 100.058s7.781 8.01 2.279 16.831c-5.503 8.822-16.528 4.666-17.904 13.728-1.375 9.061-11.286 2.473-11.286 2.473s-4.137-7.69-8.033-1.642 4.679 15.65 4.679 15.65a9.989 9.989 0 010 11.524c-4.167 6.178-9.368-.27-14.057 6.008-4.69 6.278-12.381-.481-16.066 5.797 0 0 2.61-10.463-2.892-13.767-5.503-3.304-12.22-8.851-9.64-18.804 2.149-8.281 2.862-14.398 1.757-19.895-1.104-5.497 7.029-9.622 10.363-11.014 3.334-1.392 2.199-17.022 17.622-18.123 15.424-1.102 17.07 5.517 23.959 5.497 6.888-.02 15.323 1.382 19.219 5.737z"/><path fill="#D6C589" d="M217.208 120.984c3.896-11.064-5.914-12.275-4.498-19.514.863-4.456-1.697-9.422-3.796-12.606h-.331c-15.403 1.121-14.319 16.771-17.623 18.143-3.303 1.371-11.457 5.507-10.362 11.014 1.004 4.786.542 10.012-1.004 16.801 3.153 4.846 4.488 9.152 2.932 17.332a28.554 28.554 0 005.944 4.566c2.641 1.582 3.404 4.806 3.495 7.739 5.703-3.003 1.365-10.012 1.767-15.289.401-5.277 6.858-3.414 9.037-12.876 2.179-9.462 10.543-4.246 14.439-15.31z"/><path fill="#E9D694" d="M206.011 94.38s-1.205-14.558-20.594-12.966c-8.626.711-2.009 12.967-20.816 12.967-11.969 0-5.462 13.517-5.121 16.931.532 5.257-1.576 8.29-6.025 13.197-3.795 4.175 1.758 17.021 12.853 12.345 11.096-4.676 8.545 6.378 21.348 6.809 12.802.43 13.656-4.686 15.363-14.018 1.707-9.332 16.317-7.73 13.927-17.021-2.39-9.292-9.82-9.923-10.935-18.243z"/><path fill="#292289" d="M183.759 195.459s-4.8 4.005-9.128 16.02c-4.328 12.016 6.929-6.918 6.929-6.918l1.325-6.699.874-2.403z"/><path fill="#D3662F" d="M219 284h38.5l3.5 16.5-53.5 6-12.5-6 6.5-26.5c4 3.333 13.1 10 17.5 10z"/><path fill="#F4EFEF" d="M235.552 343.927S246.5 407 245 443H119.5l35.03-96.42s44.532 22.819 81.022-2.653z"/><path fill="#FF8139" d="M222.117 197.692C226.947 201.135 231 204.5 234 210.5c6.81 27.263 6.831 23.739 10 60 0 0 .5 13-8.759 24.765-8.003 7.19-1.336 44.397 1.617 52.247 0 0-74.998 32.521-82.338-.932 0 0 7.591-28.986 8.595-55.95 1.104-30.609-2.912-44.407 8.133-73.193C175.435 206.513 180.5 199 184 194c4.73 4.926 14.319 11.532 38.117 3.692z"/><path fill="#D3662F" d="M220.14 298.559c7.35-14.979 20.361-31.059 21.861-49.059l2 22s.67 10-8.759 23.765c-8.003 7.189-1.336 44.396 1.617 52.246 0 0-6.507 2.814-15.855 5.938-2.39-14.418-6.316-43.776-.864-54.89z"/><path fill="#E2BBA6" d="M294.161 328.5c-2.4-.4-10.161-7.833-12.661-10.5l-7.5 15.5 9.661 5c.834 2.5 3.1 8 5.5 10 3 2.5 11 2 13 3s4.5 4.5 6.5 5.5c1.6.8 2.667-.333 3-1l3 2.5c2.4.8 3.334-.333 3.5-1 0 .167.4.6 2 1s2.334-.833 2.5-1.5c1 .5 2 1 3 .5s-1-6-4-9c-2.4-2.4-8-7.667-10.5-10 7 1.5 10.5 6 13.5 6s.5-4.5-3-6.5-9.5-5.5-11.5-6-13-3-16-3.5z"/><path fill="#FF8139" d="M225.98 209.186c-10.791-7.526-23.3 2.329-24.294 11.065-4.836 42.515 18.8 80.541 29.289 87.007 8.391 5.172 33.162 20.201 44.498 27.069l8.035-14.682c-15.334-12.53-46.694-41.096-49.467-55.122-3.466-17.533 5.294-46.022-8.061-55.337z"/><path fill="#E2BBA6" d="M260 284.477l20.095-4.679s16.12 1.4 17.914 1.687c1.793.287 6.237 7.622 6.905 9.034.668 1.412-2.708 1.975-5.018 0-2.309-1.974-2.051-3.673-4.185-4.092-2.134-.419-29.72 4.415-35.711-1.95z"/><path fill="#CEA999" d="M291.695 285.798s6.246 3.141 8.142 5.649c1.896 2.508 3.152 4.583 3.164 5.696.012 1.113-1.733 2.649-3.897.691 0 0-.418 3.212-3.582 1.536 0 0-1.291 2.86-5.537.48-.57-.304-.93-.644-.884-1.113.14-1.699-8.839.856-15.667 1.711-7.933.35-11.735-3.091-13.433-4.65-1.698-1.559 18.237-9.274 18.237-9.274l13.457-.726z"/><path fill="#E2BBA6" d="M257.098 284.267s11.236-.922 12.551-.922c1.316 0 6.246-3.314 8.264-3.915a82.56 82.56 0 019.037-1.411c1.717-.201 1.818 1.231-.502 3.124-2.319 1.892-6.145.6-7.551 2.503-1.406 1.902-1.707 5.627-5.643 8.531-3.936 2.903-13.315 3.804-13.315 3.804l-2.841-11.714z"/><path fill="#000" d="M186.73 357.364c.181 1.211.352 2.393.523 3.564-.171-1.171-.342-2.353-.523-3.564zM186.589 356.443c0-.321-.09-.641-.14-1.002.04.361.1.681.14 1.002z" opacity=".3"/><path fill="#00B67A" d="M28.518 424.153c2.4 4 8.334 14 11 18.5h2c-2.833-5-8.9-15.7-10.5-18.5-2-3.5 10.5-11 4-21.5s-21-60-24-82-8-34-10-7 .5 103 13 105c10 1.6 13.834 4.333 14.5 5.5z"/><path stroke="#fff" d="M28.402 420.112c-5.5-13.5-17.8-53.7-23-106.5"/><path fill="#00B67A" stroke="#00B67A" d="M86.903 414.112c.4 18.4-4.167 26.333-6.5 28h-29.5c-6.4 0-8.667-9-9-13.5 2.5-85.5-25-162.539-12.5-165.5 19-4.5 57 128 57.5 151z"/><path stroke="#fff" d="M65.862 443.112c3.494-27.098 3.295-96.436-25.46-157M50.902 423.612c3.667 1.167 11.9 5.3 15.5 12.5 3.167-1.333 10.6-5.7 15-12.5m-30.5-20.5c4 .333 12.9 2.3 16.5 7.5 2-1.167 6.8-5.1 10-11.5m-26.5-19.5c2.667 0 9.4.7 15 3.5 2-1.5 6.2-5.8 7-11m-23-18.5c2.167-.167 7.6.2 12 3 1.334-1 4-4.1 4-8.5m-19.5-18c2.5-.667 8.3-.7 11.5 4.5.667-1.834 2-6.5 2-10.5m-18-15c2.167 0 7 .6 9 3 .5-1.5 1.5-5.1 1.5-7.5M11.902 401.612c1.834 2.166 6.9 6.7 12.5 7.5 1.334-1.334 3.8-5.4 3-11M9.402 386.112c1.667 1.5 6 4.6 10 5 1-1 3-4 3-8m-14.5-11.5c1.167 1.5 4.3 4.5 7.5 4.5 1-.834 3-3.3 3-6.5m-12.5-14c.834 1.333 3.2 4 6 4 1.167-.667 3.5-2.8 3.5-6m-11-13.5c.834 1.166 3 3.5 5 3.5.834-.5 2.5-2.1 2.5-4.5m-7.5-13c.5 1.166 1.7 3.5 2.5 3.5 1 0 2.5-2 2.5-3.5"/><path fill="#00B67A" stroke="#00B67A" d="M100.402 429.612c0 7.2 4 11.333 6 12.5h7c6.8 0 9.834-8.333 10.5-12.5 7-18.5-4.5-67-10.5-81s-11.008-23.732-7 7c4.5 34.5-6 65-6 74z"/><path stroke="#fff" d="M109.902 442.612a192.01 192.01 0 001.088-6.5m.912-74c1.144 6.16 1.825 12.772 2.161 19.5m-8.661 46.5c1.559 1.5 4.858 5.2 5.588 8m0 0c1.804-.667 6.112-3 8.912-7m-8.912 7c.608-4.019 1.223-8.77 1.756-14m-5.844-7c1.396 1.166 4.519 4.2 5.844 7m0 0c1.886-.667 6.156-2.9 8.156-6.5m-8.156 6.5c.432-4.231.81-8.775 1.088-13.5m-4.932-5c1.121 1 3.677 3.4 4.932 5m0 0c1.356-.5 4.668-2.2 7.068-5m-7.068 5c.257-4.38.429-8.915.477-13.5m-4.409-3c1.106.5 3.536 1.8 4.409 3m0 0c1.197-.667 3.891-2.5 5.091-4.5m-5.091 4.5c.047-4.486-.024-9.019-.248-13.5m-3.661-2.5c.774.333 2.59 1.3 3.661 2.5m0 0c.78-.167 2.639-1.2 3.839-4"/><path fill="#00B67A" stroke="#00B67A" d="M128.9 423.612c-2.8 7.6-3.833 15.5-4 18.5h3.001c.5-3.5.999-13 5.5-18.5 4.5-5.5 19.5 1 22.5-7.5s35.5-80.5 41-89.5 35.999-47-10.001-9-64.5 75-64 85.5 9.5 11 6 20.5z"/><path stroke="#fff" d="M132.902 418.112c2.334-14.5 15.7-52.7 50.5-89.5M130.402 393.612c.5 3.166 2.2 10.2 5 13 3.667-.167 13.3-2.1 22.5-8.5m-20-18c0 2.833.8 9 4 11 2.834-.5 10-2.9 16-8.5m-11-16.5c-.5 2-.8 6.8 2 10 2.834-.5 9.7-2.6 14.5-7m-7-14.5c-.166 1.833-.3 5.9.5 7.5 2.5-.167 8.3-1 11.5-3m-1.5-17c-.5 1-1.2 3.5 0 5.5 1.5 2.5 10-2 12.5-3"/></svg>