<svg fill="none" xmlns="http://www.w3.org/2000/svg" viewBox="0 0 473 541"><path d="M283.642 97.35v442.999h-193v-443h193z" fill="#081B42"/><path d="M251.19 540.336V366.639h-54.924v173.697h54.924z" fill="#0B1B39"/><path d="M245.22 540.336V372.898h-42.985v167.438h42.985z" fill="#081B42"/><path d="M172.894 540.336V366.639h-54.925v173.697h54.925z" fill="#0B1B39"/><path d="M166.923 540.336V372.898h-42.985v167.438h42.985z" fill="#081B42"/><mask id="a" maskUnits="userSpaceOnUse" x="120" y="124" width="134" height="222"><path d="M253.527 190.772c0-36.788-29.822-66.611-66.61-66.611s-66.611 29.823-66.611 66.611v154.883h133.221V190.772z" fill="#E1E1E1"/></mask><g mask="url(#a)"><path opacity=".3" d="M253.527 124.161H120.306v221.494h133.221V124.161z" fill="#FAFAFC"/><path opacity=".6" d="M236.221 345.655L161.142 129.55c-8.4 2.988-13.5 7.293-15 9.071l73.5 207.034h16.579zM245.519 345.656l-73.877-219.307-4 .533 74.081 218.774h3.796z" fill="#152D5D"/></g><path fill="#F5F5F5" d="M238 384h-66v66h66z"/><path d="M172 384h-36v66h36v-66z" fill="#C4C4C4"/><path fill="#666A6A" d="M231 395h-51v11h51z"/><path fill="#E1E1E1" d="M200 433h-19v9h19z"/><path d="M197.5 436c.5.333 1.3 1 .5 1s-1.666-1-2-1.5c0 .5-.3 1.5-1.5 1.5s-1.5-.667-1.5-1c.167.333-.2 1-3 1h-7M196 440.5c.5 0 1.3-.2.5-1-1-1-2-1.5-2-.5 0 .8.334 1.333.5 1.5-.5-.833-1.5-2.3-1.5-1.5v1.5c-.5-.833-1.5-2.3-1.5-1.5 0 1-.5 1-1.5 1-.8 0-1.666-.667-2-1-.333.167-1.3.5-2.5.5" stroke="#000" stroke-width=".5"/><path fill="#C4C4C4" d="M192 450h-9v90h9z"/><path d="M409.482 488.21c0-.355.1-.71.156-1.109-.045.399-.111.754-.156 1.109z" fill="#000" opacity=".3"/><path d="M339.28 227.361l13.69 2.339-.689 10.423c-.133 5.721.322 10.311 1.734 12.484 5.911 9.126 8.267-12.196 13.156-11.73 4.89.465 7.168 6.031 3.656 15.522-3.511 9.491 9.112 12.13 10.201 17.452 1.089 5.322 9.568 35.292 0 45.548l-14.657-4.435a44.301 44.301 0 009.068-7.085c4.712-7.318.644-28.04.644-28.04s-17.535 11.453-27.78 2.428a13.313 13.313 0 01-2.223-2.573c-5.834-8.171-6.667-28.916-6.834-33.362-.166-4.446.034-18.971.034-18.971z" fill="#CEA999"/><path d="M412.616 309.942s5.312 4.435 10.101 17.74c4.79 13.305-7.667-7.662-7.667-7.662l-1.467-7.417-.967-2.661z" fill="#292289"/><path d="M357.815 199.274c-1.189 7.262-3.089 18.927-4.845 30.424 1.112-10.832 3.167-22.829 4.59-30.335l.255-.089z" fill="#CEA999"/><path d="M323.565 412.461s12.023-1.618 21.646-13.593c0 0-2.4 10.067 10.435 21.599 8.89 7.961 1.956 50.371-1.789 57.855 0 0 35.47 34.97 93.209 6.963 0 0-14.501-52.81-15.557-82.669-1.3-33.906-5.223-55.705-17.09-87.715-11.868-32.01-14.68-49.672-13.068-66.526 1.611-16.853.8-43.241-28.892-49.617-29.692-6.375-33.204 28.562-33.204 28.562s-2.622 44.672 9.057 54.906c10.234 9.025 27.78-2.428 27.78-2.428s4.068 20.723-.644 28.04c0 0-6.501 7.44-22.558 13.838-16.768 6.652-19.458 55.438-28.347 64.375" fill="#E2BBA6"/><path d="M351.506 244.735c-3.125-.892-9.487-3.343-12.277-4.457v-5.013l15.626-20.055 53.576 83.004 5.023 14.484-2.232 5.013c-7.144 4.011-17.859 1.672-22.324 0 .558-3.714 1.34-12.812 0-19.497-1.339-6.685-7.999-10.585-11.162-11.699h-17.3l-5.581-1.114c1.786-27.185-1.488-38.438-3.349-40.666z" fill="#D2AB96"/><path d="M355.302 474.35s-8.399 27.902-7.443 65.999H469l-11.162-29.394-12.872-33.667s-49.282 25.269-89.664-2.938z" fill="#F5F5F5"/><path d="M254.958 411.04c15.179-2.75 38.971-8.926 58.895-28.007 15.357-14.703 22.224-54.618 39.037-61.315a78.23 78.23 0 0017.28-9.302c26.336 8.681 37.232 2.724 42.466-2.731 2.796 1.751 9.195 12.499 13.829 24.595 12.223 31.877 7.778 47.156 9 81.051 1.112 29.859 9.513 61.958 9.513 61.958-8.124 37.043-91.121 1.031-91.121 1.031 3.267-8.693 10.646-49.895 1.789-57.856-12.835-11.531-10.434-21.598-10.434-21.598-9.624 11.997-24.625 18.849-24.625 18.849-22.747 13.05-53.15 13.66-65.629 12.595v-19.27z" fill="#FF8139"/><path d="M254.957 430.309v-7.362s18.724 2.639 34.448-4.734c15.724-7.374 29.737-8.482 40.082-11.554 10.346-3.071 20.48-22.685 20.48-22.685.889 20.346 14.257 23.55 22.391 40.137 6.034 12.308 1.689 44.817-.955 60.783-10.346-3.46-17.547-6.575-17.547-6.575 3.267-8.693 10.646-49.895 1.789-57.855-12.834-11.532-10.434-21.599-10.434-21.599-9.623 11.997-24.625 18.849-24.625 18.849-22.746 13.083-53.15 13.66-65.629 12.595z" fill="#D3662F"/><path d="M239.627 411.041c5.357 1.786 12.836.744 15.626 0v18.417c-9.488-.744-31.141-3.237-39.624-7.255-8.483-4.018-12.464-9.115-13.394-11.162l23.997-3.906c-.558-2.233-6.138-6.139-9.487-6.697-3.348-.558-2.79-3.349 0-3.349s10.046 1.116 13.394 5.581c3.349 4.465 2.791 6.139 9.488 8.371z" fill="#E2BBA6"/><path d="M354.63 241.516c-4.842-.967-13.718-4.431-17.551-6.042-.605-10.068 1.815-30.689 18.762-37.455 16.946-6.767 33.892-2.216 39.944 2.416 32.077-3.625 32.481 63.634 28.446 93.639-22.999 21.144-59.715 6.243-68.996 1.813 5.326-34.315 3.228-59.607-.605-70.079-2.905 7.25-1.21 13.492 0 15.708z" fill="#E9D694"/><path fill-rule="evenodd" clip-rule="evenodd" d="M348.402 202.088c9.557-4.172 25.24-7.364 39.938.867 12.846 7.193 8.455 17.37 3.711 28.364-3.706 8.589-7.627 17.677-3.711 26.229 8.93 19.497 8.372 25.625 2.233 47.351l-.056.201c11.44.384 23.505-2.142 33.155-11.014 4.035-30.004 3.632-97.263-28.445-93.639-6.052-4.631-22.999-9.182-39.945-2.416a25.763 25.763 0 00-6.88 4.057z" fill="#D6C589"/><path d="M447.324 523.357a5121.275 5121.275 0 00-9.656 16.24h-1.756c2.487-4.389 7.813-13.782 9.217-16.24 1.756-3.073-9.217-9.657-3.511-18.874 5.706-9.218 18.435-52.672 21.068-71.984 2.634-19.313 7.023-29.847 8.779-6.145 1.756 23.702-.439 90.419-11.412 92.174-8.779 1.405-12.144 3.804-12.729 4.829z" fill="#00B67A"/><path d="M447.426 519.809c4.828-11.851 15.625-47.14 20.19-93.491" stroke="#fff"/><path d="M396.071 514.542c-.351 16.153 3.658 23.117 5.706 24.58h25.897c5.618 0 7.608-7.9 7.901-11.851-2.195-75.056 21.946-142.686 10.973-145.285-16.679-3.95-50.038 112.366-50.477 132.556z" fill="#00B67A" stroke="#00B67A"/><path d="M414.542 540c-3.068-23.788-2.893-84.657 22.35-137.823M427.675 522.882c-3.219 1.024-10.447 4.652-13.607 10.973-2.78-1.171-9.305-5.004-13.168-10.973m26.775-17.996c-3.512.292-11.325 2.019-14.485 6.584-1.756-1.025-5.97-4.477-8.779-10.096m23.264-17.118c-2.341 0-8.252.615-13.168 3.073-1.756-1.317-5.443-5.092-6.145-9.657m20.19-16.24c-1.902-.146-6.671.175-10.534 2.633-1.17-.877-3.511-3.599-3.511-7.461m17.118-15.802c-2.195-.585-7.286-.614-10.095 3.951-.586-1.61-1.756-5.706-1.756-9.218m15.801-13.168c-1.902 0-6.145.527-7.9 2.634-.439-1.317-1.317-4.477-1.317-6.584M461.91 503.569c-1.609 1.902-6.057 5.882-10.973 6.584-1.17-1.17-3.336-4.74-2.634-9.656M464.105 489.963c-1.463 1.316-5.267 4.038-8.779 4.389-.878-.878-2.633-3.512-2.633-7.023m12.729-10.095c-1.025 1.316-3.775 3.95-6.584 3.95-.878-.732-2.634-2.897-2.634-5.706m10.973-12.29c-.731 1.17-2.809 3.511-5.267 3.511-1.024-.585-3.072-2.458-3.072-5.267m9.656-11.851c-.731 1.024-2.633 3.073-4.389 3.073-.732-.439-2.195-1.844-2.195-3.951m6.584-11.412c-.439 1.024-1.492 3.073-2.194 3.073-.878 0-2.195-1.756-2.195-3.073" stroke="#fff"/><path d="M394.656 528.149c0 6.321-3.511 9.949-5.267 10.973h-6.145c-5.969 0-8.632-7.315-9.217-10.973-6.145-16.24 3.95-58.816 9.217-71.106 5.267-12.29 9.664-20.833 6.145 6.145-3.95 30.286 5.267 57.061 5.267 64.961z" fill="#00B67A" stroke="#00B67A"/><path d="M386.316 539.561a170.5 170.5 0 01-.955-5.706m-.8-64.961c-1.005 5.408-1.603 11.212-1.898 17.118m7.604 40.82c-1.369 1.317-4.265 4.565-4.906 7.023m0 0c-1.583-.585-5.365-2.633-7.823-6.145m7.823 6.145a258.756 258.756 0 01-1.541-12.29m5.13-6.145c-1.226 1.024-3.967 3.687-5.13 6.145m0 0c-1.655-.585-5.404-2.545-7.16-5.706m7.16 5.706a277.817 277.817 0 01-.955-11.851m4.329-4.389c-.984.878-3.227 2.985-4.329 4.389m0 0c-1.19-.439-4.098-1.931-6.205-4.389m6.205 4.389a246.393 246.393 0 01-.419-11.851m3.87-2.633c-.971.439-3.104 1.58-3.87 2.633m0 0c-1.051-.585-3.416-2.194-4.469-3.95m4.469 3.95c-.041-3.937.021-7.917.217-11.851m3.214-2.194c-.679.292-2.273 1.141-3.214 2.194m0 0c-.684-.146-2.316-1.053-3.37-3.511" stroke="#fff"/><path d="M369.637 522.882c2.458 6.671 3.365 13.606 3.512 16.24h-2.634c-.439-3.073-.878-11.412-4.828-16.24-3.95-4.829-17.118.878-19.752-6.584-2.633-7.462-31.164-70.668-35.992-78.568-4.828-7.901-31.603-41.259 8.779-7.901 40.381 33.359 56.621 65.839 56.182 75.057-.438 9.217-8.339 9.656-5.267 17.996z" fill="#00B67A" stroke="#00B67A"/><path d="M366.126 518.054c-2.048-12.729-13.782-46.263-44.332-78.568M368.32 496.546c-.439 2.78-1.931 8.955-4.389 11.413-3.219-.147-11.675-1.844-19.752-7.462m17.557-15.802c0 2.488-.702 7.901-3.511 9.657-2.487-.439-8.779-2.546-14.046-7.462m9.657-14.485c.439 1.756.702 5.97-1.756 8.779-2.487-.439-8.515-2.282-12.729-6.145m6.145-12.729c.146 1.609.263 5.179-.439 6.584-2.194-.146-7.286-.878-10.095-2.634m1.317-14.923c.439.878 1.053 3.072 0 4.828-1.317 2.195-8.779-1.756-10.974-2.633" stroke="#fff"/><path d="M214 419.5l36.5-6-37.5-15-32 2.5 33 18.5z" fill="#CCD2DD"/><path d="M198.503 406.733c.385.208 1.084.386.801-.562-.354-1.185-.915-1.986-1.331-1.217-.333.616-.298 1.165-.239 1.363-.038-.849-.198-2.394-.531-1.778l-.624 1.154c-.038-.849-.198-2.394-.53-1.778-.416.769-.801.561-1.571.146-.615-.333-1.005-1.207-1.123-1.602-.326-.01-1.209-.156-2.132-.655M230 414.5l-16.5-7.5m9.5 8l-15-7.5m8.5 8.5l-15-8" stroke="#000" stroke-width=".3"/><path d="M202.5 400.5l7.5 3.5-5.5.5-7-3.5 5-.5z" fill="#152D5D"/><path d="M206.5 403l1 .5h-1c-.333-.167-1.2-.5-2-.5-1 0-1 .5 0 1M201.853 402.544c.002.008.014.036.079.067a.888.888 0 00.291.068c.257.023.605-.008.982-.103.377-.096.699-.235.913-.378a.884.884 0 00.224-.198c.042-.059.04-.088.037-.097-.002-.009-.014-.036-.079-.067a.881.881 0 00-.291-.068 3.032 3.032 0 00-.982.103 3.04 3.04 0 00-.913.378.884.884 0 00-.224.198c-.042.058-.039.088-.037.097zM200.237 401.694c.002.009.014.036.079.067a.881.881 0 00.291.068c.256.024.605-.007.982-.103.377-.095.698-.235.913-.378a.84.84 0 00.223-.198c.043-.058.04-.088.038-.097-.002-.008-.014-.036-.079-.067a.888.888 0 00-.291-.068 3.095 3.095 0 00-.983.103 3.059 3.059 0 00-.912.378.884.884 0 00-.224.198c-.042.059-.04.088-.037.097z" stroke="#fff" stroke-width=".3"/><ellipse rx="4.905" ry="1.305" transform="scale(-1 1) rotate(-26.238 765.485 702.692)" fill="#fff"/></svg>