<svg width="470" height="541" viewBox="0 0 470 541" fill="none" xmlns="http://www.w3.org/2000/svg">
<path d="M278 163.5V196H308.5V163.5C308.5 157.5 306.5 147.5 293 147.5C279.5 147.5 278 158 278 163.5Z" fill="#CCD2DD"/>
<rect x="278" y="196" width="31" height="3" fill="#8E5841"/>
<path d="M302 159.5C301.6 155.1 299.167 153.333 298 153L302.5 152C304.5 153.2 305.667 156.167 306 157.5L302 159.5Z" fill="white"/>
<rect x="330" y="89" width="139" height="8" fill="#FAFAFC"/>
<path d="M385 50V87C385 88.1046 385.895 89 387 89H394C395.105 89 396 88.1046 396 87V50C396 48.8954 395.105 48 394 48H387C385.895 48 385 48.8954 385 50Z" fill="#FF8139"/>
<rect x="331" y="75" width="52" height="13" fill="white"/>
<rect x="330" y="87" width="55" height="2" fill="#C4C4C4"/>
<rect x="330" y="74" width="55" height="2" fill="#C4C4C4"/>
<path d="M330 75V88.5H333C332.5 87.6667 331.5 85.2 331.5 82C331.5 78.8 332.5 76 333 75H330Z" fill="#C4C4C4"/>
<rect x="384.382" y="73.3818" width="32.1455" height="8.03636" transform="rotate(-180 384.382 73.3818)" fill="white"/>
<rect x="385" y="65.9639" width="34" height="1.23636" transform="rotate(-180 385 65.9639)" fill="#FF8139"/>
<rect x="385" y="74" width="34" height="1.23636" transform="rotate(-180 385 74)" fill="#FF8139"/>
<path d="M385 73.3818L385 65.0364L383.145 65.0364C383.455 65.5515 384.073 67.0764 384.073 69.0546C384.073 71.0327 383.455 72.7637 383.145 73.3818L385 73.3818Z" fill="#FF8139"/>
<path opacity="0.4" d="M469 114.5L341.5 97H469V114.5Z" fill="#081B42"/>
<rect x="215" y="199" width="139" height="8" fill="#FAFAFC"/>
<path opacity="0.4" d="M354 224.5L226.5 207H354V224.5Z" fill="#081B42"/>
<path d="M74.4026 85.1628C74.3128 38.5425 112.081 0.620117 158.701 0.620117C205.258 0.620117 243 38.4433 243 85.0003C243 131.557 205.258 169.38 158.701 169.38C112.208 169.38 74.4921 131.656 74.4026 85.1628Z" fill="#F5F5F5"/>
<path d="M237.712 81.2441C235.952 39.0132 201.203 5.68311 158.935 5.68311C117.096 5.68311 82.5426 38.3632 80.2124 80.1373L79.9412 85.0005L80.2124 89.8635C82.5425 131.638 117.096 164.318 158.935 164.318C201.203 164.318 235.952 130.988 237.712 88.7567L237.869 85.0005L237.712 81.2441Z" fill="white"/>
<rect width="157.357" height="6.84163" transform="matrix(-1 0 0 1 237.299 85)" fill="#E5E5E5"/>
<rect width="159.638" height="6.84162" transform="matrix(4.3791e-08 1 1 -4.36319e-08 155.199 5.18066)" fill="#E5E5E5"/>
<path d="M238.842 365H470C470 431.274 416.274 485 350 485H152V427.222C154.237 427.088 162.656 421.162 178.43 398.535C194.204 375.909 225.277 366.751 238.842 365Z" fill="white"/>
<path d="M380.5 423.733C390.1 417.744 376.5 415.581 368.5 415.248L246 423.733L205 434.214L224 484.622C233.333 477.635 250.4 464.459 258 459.667C267.5 453.678 289 456.673 315.5 451.682C342 446.691 368.5 431.219 380.5 423.733Z" fill="#E1E1E1"/>
<path d="M446 373.823C458.8 371.028 464.333 364.673 465.5 361.845L459 359.35L329.5 391.791V401.273C335.167 402.604 348.3 403.469 355.5 396.282C364.5 387.299 430 377.317 446 373.823Z" fill="#E1E1E1"/>
<path d="M324.5 379.5L274 405L326.5 419.5L373 387L324.5 379.5Z" fill="#F5F5F5" stroke="white"/>
<path d="M326.226 384.133C322.893 384.8 316.926 386.333 319.726 387.133C323.226 388.133 332.726 383.133 330.226 384.133C327.726 385.133 323.226 388.633 326.226 388.633C328.626 388.633 330.893 389.633 331.726 390.133L337.226 392.633" stroke="black"/>
<line x1="328.851" y1="412.477" x2="312.851" y2="407.477" stroke="black"/>
<line x1="339.866" y1="405.482" x2="303.866" y2="395.482" stroke="black"/>
<line x1="343.866" y1="402.482" x2="307.866" y2="392.482" stroke="black"/>
<line x1="347.866" y1="399.482" x2="311.866" y2="389.482" stroke="black"/>
<path d="M360.45 371.022C359.598 370.173 358.585 369.502 357.471 369.05C354.329 368.523 351.16 368.177 347.979 368.014C346.286 368.014 339.571 370.943 339.075 371.269C338.578 371.596 338.285 373.241 340.869 373.162C343.454 373.083 360.45 371.022 360.45 371.022Z" fill="#E5B9B7"/>
<path d="M330 380.5L329 385L333 382.5L349 364.5L346.5 362L330 380.5Z" fill="#272E80"/>
<path d="M268.877 300.253C271.939 302.515 274.836 304.992 277.545 307.665C281.009 311.203 287.927 314.83 292.577 313.895L282.522 292.423C282.522 292.423 276.54 288.773 273.752 288.312C270.965 287.85 259.499 289.652 255.379 291.398C255.228 291.45 255.089 291.534 254.972 291.644C254.855 291.754 254.764 291.888 254.703 292.036C254.642 292.184 254.613 292.344 254.619 292.504C254.625 292.664 254.665 292.821 254.736 292.964C254.736 292.964 253.303 293.471 253.201 294.237C252.998 295.713 255.221 295.679 257.264 295.578C257.264 295.578 256.891 297.076 259.216 297.245C262.692 297.072 266.116 298.138 268.877 300.253Z" fill="#F4C7C3"/>
<path d="M287.374 313.467C286.383 313.159 285.414 312.783 284.474 312.341C285.41 312.792 286.379 313.169 287.374 313.467Z" fill="#E5B9B7"/>
<path d="M288.221 313.693C287.95 313.625 287.668 313.557 287.385 313.467C287.905 313.625 288.221 313.693 288.221 313.693Z" fill="#E5B9B7"/>
<path d="M284.474 312.386L283.796 312.07L284.474 312.386Z" fill="#E5B9B7"/>
<path d="M280.637 293.324C280.637 293.324 279.666 292.772 278.38 292.096C276.536 291.074 274.567 290.294 272.522 289.776C269.802 289.348 263.144 291.071 260.954 291.522C258.765 291.972 254.77 292.964 254.77 292.964C255.007 294.428 253.224 294.518 253.224 294.518C253.37 295.566 254.781 295.555 255.932 295.645C256.855 295.653 257.775 295.554 258.675 295.352C258.655 295.954 258.428 296.531 258.031 296.986C258.402 297.196 258.824 297.298 259.25 297.278C261.994 297.275 264.7 297.915 267.15 299.148C270.423 301.075 273.662 304.139 278.255 308.352C279.896 309.845 281.743 311.093 283.74 312.059H283.831L284.508 312.374C285.448 312.816 286.417 313.192 287.408 313.5C287.69 313.591 287.973 313.658 288.243 313.726L280.637 293.324Z" fill="#E5B9B7"/>
<path d="M272 289L248 301.5L254 314L278.5 301.5L272 289Z" fill="#E1E1E1"/>
<path d="M268 291L244 303.5L250 316L274.5 303.5L268 291Z" fill="white"/>
<path d="M250.5 308.5L263 302M251 312L268 303" stroke="black"/>
<path d="M270.096 288.199C265.582 288.12 270.683 285.101 273.38 284.526C276.077 283.952 282.093 283.107 283.989 285.653C285.885 288.199 300.206 308.499 302.441 309.434C304.676 310.369 318.298 312.352 318.298 312.352C343.533 315.236 353.408 313.151 359.186 310.594C364.964 308.037 365.641 292.57 374.467 283.298C383.292 274.027 382.706 264.395 390.166 266.513C398.765 268.946 398.641 266.107 398.641 266.107L399.363 264.812C401.195 260.203 402.395 255.367 402.93 250.437C399.183 251.237 399.476 251.496 396.023 250.561C375.708 245.008 394.522 190.652 394.522 190.652C400.108 175.827 437.34 187.656 442.024 195.947C446.538 203.923 439.992 216.078 439.992 216.078C444.642 215.909 445.172 219.661 445.172 219.661C446.12 227.727 434.507 232.954 434.507 232.954L433.379 234.373C423.064 248.872 425.648 259.157 427.567 263.539C427.996 264.451 431.63 266.581 435.354 266.513C440.094 266.445 453.197 266.772 459.799 283.062C472.337 313.963 460.769 359.824 454.1 364.307C447.43 368.791 383.608 377.826 383.608 377.826L377.108 382.163L369.388 384.416C366.917 385.238 362.03 387.435 355.845 389.08C348.092 391.107 346.963 391.569 344.864 391.828C342.506 392.11 342.889 392.335 339.921 392.606C337.664 392.808 337.664 390.995 337.664 390.995L333.759 391.997C330.576 391.783 331.886 388.156 331.886 388.156C331.508 388.018 331.17 387.787 330.904 387.486C330.638 387.184 330.451 386.821 330.361 386.429C330.272 386.037 330.282 385.629 330.39 385.242C330.499 384.855 330.702 384.501 330.983 384.213C331.66 383.661 337.754 380.169 339.041 379.346C340.327 378.524 345.417 375.685 345.417 375.685C345.417 375.685 338.025 377.679 337.608 378.242C335.475 380.022 333.245 381.68 330.926 383.21C329.583 383.886 328.263 381.712 329.121 380.574C329.978 379.437 334.944 374.626 337.213 373.635C339.481 372.644 343.408 369.681 345.248 368.836C347.088 367.991 347.505 369.647 352.798 369.501C358.091 369.354 356.184 369.433 357.008 369.264C357.832 369.095 358.972 368.419 360.394 368.137C361.797 368.096 363.194 368.337 364.502 368.847L377.458 365.851H360.687C362.12 332.077 364.818 314.379 364.818 314.379C364.818 314.379 370.269 343.016 350.936 340.29C331.604 337.563 298.897 319.133 297.306 318.153C296.595 317.714 294.688 316.587 292.487 314.943C282.014 313.557 285.004 304.364 278.572 304.364C271.134 304.364 269.656 303.936 269.656 302.562C269.656 301.188 277.082 300.478 281.923 300.309C281.122 296.839 281.009 293.55 279.779 290.497C278.357 286.926 273.448 288.255 270.096 288.199Z" fill="#F4C7C3"/>
<path d="M385.5 192.5C385.5 197.7 388 208 389 211.5C389.5 208.5 391.833 199.833 393 196C394.667 195.834 398.9 195.2 404.5 194C411.5 192.5 419.5 195.5 421.5 203.5C423.5 211.5 429.5 209.5 431 214.5C432.2 218.5 430.5 222.833 429.5 224.5C431.9 224.1 434.5 220.333 435.5 218.5C437.833 217.5 442.6 216.6 443 221C443.5 226.5 441 226.5 435.5 231.5C431.1 235.5 427.667 244.167 426.5 248C427.5 247.667 430.1 245.9 432.5 241.5C435.5 236 434 235 441 231.5C448 228 448.5 221.5 448.5 215.5C448.5 209.5 452.5 207.5 451 197C449.8 188.6 442.167 186.5 438.5 186.5C434.5 179.5 424.506 180.703 417 176.5C404.5 169.5 396.359 174.741 393 180.5C389.5 186.5 385.5 186 385.5 192.5Z" fill="#00181B"/>
<path opacity="0.1" d="M393.066 249.255C388.427 244.658 391.147 231.726 390.256 227.073C389.364 222.421 397.095 218.252 396.914 206.39C396.779 197.535 402.354 188.095 405.198 183.859C400.108 184.501 396.079 186.563 394.522 190.697C394.522 190.697 377.683 239.273 393.066 249.255Z" fill="black"/>
<path opacity="0.1" d="M402.964 267.493C404.6 265.984 407.275 249.469 407.275 249.469L402.964 250.595C402.43 255.525 401.23 260.361 399.397 264.97L398.675 266.265C398.675 266.265 395.842 268.158 390.143 267.302L391.407 267.73C395.289 268.575 401.327 269.003 402.964 267.493Z" fill="black"/>
<path d="M328.816 313.365C346.456 314.616 354.288 312.802 359.186 310.628C364.964 308.059 363.238 291.747 371.262 279.085C378.112 268.259 382.706 264.44 390.165 266.581C391.61 266.986 389.105 266.581 390.29 266.75V265.398C394.025 263.438 400.097 262.874 400.097 262.874C399.973 263.223 399.093 265.893 398.641 266.141C398.19 266.389 401.417 266.896 401.417 266.896C402.046 268.343 402.995 269.63 404.194 270.659L406.88 287.343L413.245 272.247C421.382 270.512 427.115 262.638 427.115 262.638C428.744 262.779 430.305 263.359 431.63 264.316C432.239 264.226 433.503 266.704 434.225 266.569C438.819 265.443 454.54 267.696 462.349 283.377C465.34 289.472 469.301 305.367 469.606 315.371C469.606 315.371 470.938 341.484 468.703 361.085C468.703 361.085 452.463 365.591 444.845 367.259C432.973 370.075 412.805 373.364 398.856 375.505L397.535 359.835L377.458 365.851H360.687C362.12 332.077 364.818 314.379 364.818 314.379C364.818 314.379 370.269 343.016 350.936 340.29C343.995 339.309 335.339 336.302 327.01 332.809L328.816 313.365Z" fill="#F4EFEF"/>
<path d="M397.287 356.985L398.901 375.505L416.619 372.666L415.141 350.135C414.829 349.785 414.434 349.519 413.993 349.359C413.551 349.2 413.077 349.153 412.613 349.223C411.089 349.527 409.577 352.355 409.577 352.355C409.371 352.044 409.082 351.795 408.744 351.636C408.406 351.477 408.03 351.414 407.658 351.453C406.44 351.645 405.334 353.966 405.334 353.966C405.134 353.247 404.682 352.624 404.06 352.211C403.439 351.797 402.689 351.62 401.948 351.712C399.363 352.096 397.287 356.985 397.287 356.985Z" fill="#E0DEDE"/>
<path d="M407.658 288.863L414.43 278.409L417.229 288.379L427.014 276.708L417.342 289.956C417.342 289.956 415.942 286.678 414.362 286.678C412.782 286.678 412.286 290.925 407.658 288.863Z" fill="#E0DEDE"/>
<path d="M405.198 288.356L402.681 277.936L398.167 284.019L396.406 276.708L397.806 285.72C398.112 285.941 398.462 286.094 398.832 286.171C399.201 286.248 399.583 286.247 399.952 286.167C400.321 286.088 400.67 285.931 400.975 285.709C401.279 285.486 401.534 285.202 401.722 284.875C403.223 282.42 405.198 288.356 405.198 288.356Z" fill="#E0DEDE"/>
<path d="M415.141 350.18C415.141 350.18 426.145 344.548 429.056 343.568L437.622 340.695L433.571 316.497C433.571 316.497 437.126 330.849 434.541 333.395C431.957 335.941 426.495 333.654 423.255 340.729C420.016 347.803 415.141 350.18 415.141 350.18Z" fill="#E0DEDE"/>
<path d="M362.493 331.875C370.686 323.212 354.886 318.886 361.917 316.757C368.948 314.628 366.352 301.785 366.352 301.785L364.818 314.38C364.818 314.38 370.269 343.016 350.936 340.29C348.517 339.925 346.124 339.409 343.77 338.747C346.817 339.017 355.8 338.961 362.493 331.875Z" fill="#E0DEDE"/>
<path d="M404.261 262.615L404.25 262.627L404.261 262.615Z" fill="#F4EBEA"/>
<path d="M309.912 311.056C314.054 311.766 318.297 312.385 318.297 312.385C343.533 315.269 353.114 312.385 359.186 310.628C368.621 307.845 363.238 286.002 372.063 276.708C380.889 267.414 382.706 264.429 390.12 266.569C397.535 268.71 399.149 263.404 400.052 262.897C399.849 264.316 402.625 269.329 404.86 270.039L406.507 276.077L412.15 270.05C419.339 268.642 427.115 262.638 427.115 262.638C427.555 263.55 425.987 268.575 434.169 266.524C438.762 265.398 453.185 266.772 459.788 283.062C473.567 317.027 464.742 355.565 454.088 364.307C447.881 369.399 383.597 377.826 383.597 377.826L383.507 380.687L377.096 382.163C377.469 373.421 371.352 367.304 371.352 367.304L377.458 365.85H360.687C362.12 332.077 364.818 314.379 364.818 314.379C364.818 314.379 370.269 343.016 350.936 340.289C337.788 338.431 318.467 329.328 306.921 323.392C312.474 318.221 309.912 311.056 309.912 311.056Z" fill="#F4EBEA"/>
<path d="M404.261 262.615L404.25 262.627L404.261 262.615Z" fill="#F4EBEA"/>
<path d="M404.261 262.615L404.25 262.627L404.261 262.615Z" fill="#292289"/>
<path d="M464 283C460.462 270.968 454.5 265.5 442.5 264L436 262.615L431 258L426 257.5L427.081 262.615C427.081 262.615 420.31 289.449 407.207 307.316L405.198 351.194L376.51 365.839L376.69 366.02C378.222 367.662 379.385 369.613 380.101 371.74C380.817 373.867 381.07 376.122 380.843 378.355L380.753 381.216L383.428 380.631C383.428 380.631 423.007 372.204 443.107 367.653C444.777 367.27 446.312 366.91 447.678 366.527L465.882 362.02C465.882 362.02 475.312 321.468 464 283Z" fill="white"/>
<path d="M315.916 312.025L318.298 312.385C343.533 315.269 351.222 311.557 357 309C362.778 306.443 360.463 289.486 365 277.5C367.5 270.895 372.593 263.832 384.805 262.615H392.5L398.37 258.5L402 257.5L400.097 262.874C399.749 264.062 399.245 265.199 398.596 266.254L398.37 266.389C397.514 266.754 396.626 267.041 395.718 267.245C395.718 267.245 389.229 287.365 391.745 306.877L383.349 363.102L376.51 365.839H360.71C362.143 332.043 362.628 335.333 362.628 335.333C362.628 335.333 370.291 343.05 350.959 340.323C339.955 338.769 323.128 336.358 311.661 330.748C313.399 327.898 316.977 318.671 315.916 312.025Z" fill="white"/>
<path d="M409.509 313.872L410.39 308.048L413.651 312.993C417.739 308.699 421.207 303.857 423.955 298.607C421.443 304.4 417.975 309.731 413.696 314.379L410.48 309.49L409.509 313.872Z" fill="#E1E1E1"/>
<path d="M390.47 312.126L388.958 306.494L385.459 309.873C385.459 309.873 382.897 299.858 383.417 291.781C382.727 298.447 383.352 305.182 385.256 311.608L388.642 308.138L390.47 312.126Z" fill="#E1E1E1"/>
<path d="M415.028 347.184C415.028 347.184 421.472 343.455 423.955 343.669C426.438 343.884 432.261 343.669 432.261 343.669C432.261 343.669 435.252 328.101 435.252 321.409C435.252 321.409 434.575 330.624 432.171 334.297C429.767 337.969 427.126 336.437 422.939 339.738C418.752 343.039 419.215 344.987 415.028 347.184Z" fill="#E1E1E1"/>
<path d="M311.639 330.759C311.639 330.759 311.12 329.407 311.639 325.791L313.535 326.726C313.022 328.123 312.388 329.473 311.639 330.759Z" fill="#E1E1E1"/>
<path opacity="0.1" d="M383.473 362.302L387.096 338.036L390.481 315.416L391.757 306.865C390.94 302.159 390.789 297.363 391.305 292.615C391.994 285.743 391.689 277.102 395.165 269.138C395.165 269.138 393.642 276.167 394.149 281.203C394.465 284.368 396.824 293.899 395.278 301.255C393.732 308.611 391.159 310.448 391.655 320.553C392.152 330.658 392.648 347.173 383.473 362.302Z" fill="black"/>
<path d="M279.158 300.489C276.885 300.636 274.623 300.926 272.387 301.357C270.908 301.841 270.299 302.359 270.378 303.148C270.457 303.936 272.037 304.545 274.046 304.5L278.154 304.41L279.158 300.489Z" fill="#F4C7C3"/>
<g style="mix-blend-mode:multiply" opacity="0.3">
<path d="M174.558 493.637C174.558 493.32 174.469 493.002 174.419 492.644C174.459 493.002 174.518 493.32 174.558 493.637Z" fill="black"/>
</g>
<path d="M237.454 259.938L225.189 262.034L225.806 271.372C225.926 276.497 225.517 280.61 224.253 282.557C218.957 290.732 216.846 271.63 212.466 272.047C208.085 272.464 206.044 277.451 209.19 285.954C212.336 294.457 201.026 296.822 200.051 301.59C199.075 306.358 191.479 333.208 200.051 342.397L213.182 338.424C210.209 336.669 207.478 334.535 205.059 332.076C200.837 325.52 204.481 306.954 204.481 306.954C204.481 306.954 220.191 317.215 229.37 309.129C230.13 308.449 230.799 307.675 231.361 306.825C236.588 299.504 237.335 280.918 237.484 276.934C237.634 272.951 237.454 259.938 237.454 259.938Z" fill="#CEA999"/>
<path d="M171.751 333.923C171.751 333.923 166.992 337.897 162.701 349.817C158.41 361.738 169.57 342.953 169.57 342.953L170.884 336.307L171.751 333.923Z" fill="#D3662F"/>
<path d="M220.847 234.774C221.913 241.28 223.615 251.731 225.188 262.032C224.193 252.327 222.351 241.578 221.076 234.853L220.847 234.774Z" fill="#CEA999"/>
<path d="M251.533 425.773C251.533 425.773 240.761 424.322 232.14 413.594C232.14 413.594 234.29 422.614 222.791 432.945C214.827 440.077 221.039 478.073 224.394 484.778C224.394 484.778 192.616 516.109 140.886 491.017C140.886 491.017 153.878 443.703 154.824 416.951C155.989 386.574 159.503 367.045 170.136 338.366C180.768 309.688 183.287 293.864 181.843 278.765C180.4 263.666 181.127 240.023 207.728 234.312C234.33 228.6 237.476 259.901 237.476 259.901C237.476 259.901 239.825 299.923 229.362 309.092C220.193 317.178 204.473 306.917 204.473 306.917C204.473 306.917 200.829 325.483 205.05 332.039C205.05 332.039 210.874 338.704 225.26 344.436C240.283 350.396 242.693 394.104 250.657 402.111" fill="#E2BBA6"/>
<path d="M226.5 275.503C229.3 274.705 235 272.509 237.5 271.51V267.019L223.5 249.051L175.5 323.416L171 336.392L173 340.884C179.4 344.478 189 342.382 193 340.884C192.5 337.557 191.8 329.405 193 323.416C194.2 317.427 200.167 313.933 203 312.935H218.5L223.5 311.937C221.9 287.581 224.833 277.5 226.5 275.503Z" fill="#D2AB96"/>
<path d="M223.237 481C223.237 481 230.791 505.943 229.932 540H136.079H120.5L131 513.723L142.579 483.627C142.579 483.627 186.911 506.216 223.237 481Z" fill="white"/>
<path d="M299.5 430.236C285.901 427.772 270.694 426.946 258.5 411C252 402.5 240.324 350.473 225.261 344.473C219.77 342.355 214.568 339.555 209.78 336.139C186.185 343.917 175.562 341.176 170.873 336.288C170.624 336.974 163.496 344.891 159.344 355.728C148.393 384.287 152.375 397.976 151.28 428.343C150.284 455.094 142.758 483.852 142.758 483.852C150.035 517.04 224.395 484.776 224.395 484.776C221.468 476.988 214.857 440.075 222.792 432.942C234.29 422.611 232.14 413.592 232.14 413.592C238.5 427 247 435.5 247 435.5C267.379 447.192 288.32 448.454 299.5 447.5V430.236Z" fill="#FF8139"/>
<path d="M313 430.5H299.5V447.5C309.1 446.3 317.5 443.667 320.5 442.5C321.5 442.667 324.6 442.9 329 442.5C334.5 442 338 437 340 436C342 435 345.5 434.5 347.5 436C349.5 437.5 350.5 437 350.5 436C350.5 435.2 349.833 434 349.5 433.5C350.167 433.667 351.8 434.1 353 434.5C354.5 435 358 434 353.5 432C349 430 344 428.5 342 428C340 427.5 339.5 426.5 337 426.5C334.5 426.5 335 425 332 425C329 425 330 424.5 327 424C324 423.5 318 430.5 313 430.5Z" fill="#E2BBA6"/>
<path d="M299.5 447.5V441C299.5 441 291 443.5 277.5 441C259.5 435.442 254.485 426.211 244.5 420C233.273 413.017 227.879 400.25 227.879 400.25C227.082 418.479 215.106 421.35 207.818 436.21C202.412 447.237 206.305 476.362 208.674 490.666C217.943 487.567 224.394 484.776 224.394 484.776C221.467 476.988 214.857 440.074 222.792 432.942C234.29 422.611 232.14 413.591 232.14 413.591C238 428 247.5 436 247.5 436C267.879 447.722 288.32 448.454 299.5 447.5Z" fill="#D3662F"/>
<path d="M223.702 272.619C228.039 271.753 235.992 268.65 239.426 267.206C239.969 258.186 237.8 239.711 222.617 233.649C207.435 227.587 192.252 231.665 186.83 235.814C158.092 232.567 157.73 292.825 161.345 319.707C181.95 338.651 214.845 325.3 223.159 321.331C218.388 290.588 220.268 267.928 223.702 258.547C226.304 265.041 224.786 270.634 223.702 272.619Z" fill="#594423"/>
<path fill-rule="evenodd" clip-rule="evenodd" d="M229.282 237.295C220.719 233.557 206.669 230.697 193.5 238.071C181.992 244.516 185.926 253.634 190.176 263.483C193.496 271.179 197.009 279.321 193.5 286.982C185.5 304.451 186 309.941 191.5 329.405C191.517 329.466 191.534 329.526 191.55 329.586C181.301 329.93 170.491 327.667 161.846 319.718C158.231 292.836 158.592 232.577 187.33 235.825C192.753 231.675 207.935 227.598 223.118 233.66C225.473 234.6 227.515 235.839 229.282 237.295Z" fill="#74582D"/>
<path d="M438.884 521.153C436.484 525.153 430.551 535.153 427.884 539.653H425.884C428.717 534.653 434.784 523.953 436.384 521.153C438.384 517.653 425.884 510.153 432.384 499.653C438.884 489.153 453.384 439.653 456.384 417.653C459.384 395.653 464.384 383.653 466.384 410.653C468.384 437.653 465.884 513.653 453.384 515.653C443.384 517.253 439.551 519.986 438.884 521.153Z" fill="#00B67A"/>
<path d="M439 517.112C444.5 503.612 456.8 463.412 462 410.612" stroke="white"/>
<path d="M380.5 511.112C380.1 529.512 384.667 537.445 387 539.112H416.5C422.9 539.112 425.167 530.112 425.5 525.612C423 440.112 450.5 363.073 438 360.112C419 355.612 381 488.112 380.5 511.112Z" fill="#00B67A" stroke="#00B67A"/>
<path d="M401.54 540.112C398.046 513.014 398.246 443.676 427 383.112" stroke="white"/>
<path d="M416.5 520.612C412.833 521.779 404.6 525.912 401 533.112C397.833 531.779 390.4 527.412 386 520.612M416.5 500.112C412.5 500.445 403.6 502.412 400 507.612C398 506.445 393.2 502.512 390 496.112M416.5 476.612C413.833 476.612 407.1 477.312 401.5 480.112C399.5 478.612 395.3 474.312 394.5 469.112M417.5 450.612C415.333 450.445 409.9 450.812 405.5 453.612C404.167 452.612 401.5 449.512 401.5 445.112M421 427.112C418.5 426.445 412.7 426.412 409.5 431.612C408.833 429.778 407.5 425.112 407.5 421.112M425.5 406.112C423.333 406.112 418.5 406.712 416.5 409.112C416 407.612 415 404.012 415 401.612" stroke="white"/>
<path d="M455.5 498.612C453.667 500.778 448.6 505.312 443 506.112C441.667 504.778 439.2 500.712 440 495.112" stroke="white"/>
<path d="M458 483.112C456.333 484.612 452 487.712 448 488.112C447 487.112 445 484.112 445 480.112M459.5 468.612C458.333 470.112 455.2 473.112 452 473.112C451 472.278 449 469.812 449 466.612M461.5 452.612C460.667 453.945 458.3 456.612 455.5 456.612C454.333 455.945 452 453.812 452 450.612M463 437.112C462.167 438.278 460 440.612 458 440.612C457.167 440.112 455.5 438.512 455.5 436.112M463 423.112C462.5 424.278 461.3 426.612 460.5 426.612C459.5 426.612 458 424.612 458 423.112" stroke="white"/>
<path d="M367 526.612C367 533.812 363 537.945 361 539.112H354C347.2 539.112 344.167 530.779 343.5 526.612C336.5 508.112 348 459.612 354 445.612C360 431.612 365.008 421.88 361 452.612C356.5 487.112 367 517.612 367 526.612Z" fill="#00B67A" stroke="#00B67A"/>
<path d="M357.5 539.612C357.154 537.757 356.784 535.571 356.412 533.112M355.5 459.112C354.356 465.272 353.675 471.884 353.339 478.612M362 525.112C360.441 526.612 357.142 530.312 356.412 533.112M356.412 533.112C354.608 532.445 350.3 530.112 347.5 526.112M356.412 533.112C355.804 529.093 355.189 524.342 354.656 519.112M360.5 512.112C359.104 513.278 355.981 516.312 354.656 519.112M354.656 519.112C352.771 518.445 348.5 516.212 346.5 512.612M354.656 519.112C354.225 514.881 353.847 510.337 353.569 505.612M358.5 500.612C357.379 501.612 354.824 504.012 353.569 505.612M353.569 505.612C352.212 505.112 348.9 503.412 346.5 500.612M353.569 505.612C353.311 501.232 353.139 496.697 353.091 492.112M357.5 489.112C356.394 489.612 353.964 490.912 353.091 492.112M353.091 492.112C351.894 491.445 349.2 489.612 348 487.612M353.091 492.112C353.044 487.626 353.115 483.093 353.339 478.612M357 476.112C356.226 476.445 354.41 477.412 353.339 478.612M353.339 478.612C352.559 478.445 350.7 477.412 349.5 474.612" stroke="white"/>
<path d="M338.5 520.612C341.3 528.212 342.333 536.112 342.5 539.112H339.5C339 535.612 338.5 526.112 334 520.612C329.5 515.112 314.5 521.612 311.5 513.112C308.5 504.612 276 432.612 270.5 423.612C265 414.612 234.5 376.612 280.5 414.612C326.5 452.612 345 489.612 344.5 500.112C344 510.612 335 511.112 338.5 520.612Z" fill="#00B67A" stroke="#00B67A"/>
<path d="M334.5 515.112C332.167 500.612 318.8 462.412 284 425.612" stroke="white"/>
<path d="M337 490.612C336.5 493.778 334.8 500.812 332 503.612C328.333 503.445 318.7 501.512 309.5 495.112M329.5 477.112C329.5 479.945 328.7 486.112 325.5 488.112C322.667 487.612 315.5 485.212 309.5 479.612M320.5 463.112C321 465.112 321.3 469.912 318.5 473.112C315.667 472.612 308.8 470.512 304 466.112M311 451.612C311.167 453.445 311.3 457.512 310.5 459.112C308 458.945 302.2 458.112 299 456.112M300.5 439.112C301 440.112 301.7 442.612 300.5 444.612C299 447.112 290.5 442.612 288 441.612" stroke="white"/>
<ellipse cx="379" cy="292.5" rx="7" ry="8.5" fill="#00181B"/>
<ellipse cx="377" cy="292.5" rx="7" ry="8.5" fill="#C4C4C4"/>
<ellipse cx="377" cy="292.5" rx="5" ry="6.5" fill="#666A6A"/>
<ellipse cx="375" cy="292.5" rx="5" ry="6.5" fill="#C4C4C4"/>
<path d="M378.5 284C379.667 279.167 384 268.2 392 263" stroke="black" stroke-width="2"/>
<path d="M435 261.5C437 260 443.5 266 444 274.5C444.151 277.064 443.752 279.288 442.241 281.5M423.5 313.5C420.338 297.296 436.544 289.839 442.241 281.5M442.241 281.5C445.161 287.666 450 304.5 439 315.5" stroke="black" stroke-width="2"/>
<ellipse cx="423.655" cy="316.907" rx="3" ry="4.5" transform="rotate(-8.82799 423.655 316.907)" fill="#C4C4C4"/>
<ellipse cx="436.355" cy="317.235" rx="3" ry="4.5" transform="rotate(48.2381 436.355 317.235)" fill="#C4C4C4"/>
</svg>
