<svg width="470" height="540" viewBox="0 0 470 540" fill="none" xmlns="http://www.w3.org/2000/svg">
<path d="M261.075 488.485C269.791 492.19 279.337 521.015 283.021 534.964L287.865 535.585C282.567 521.429 271.811 491.802 271.171 486.545C270.372 479.973 286.536 469.106 294.438 445.858C300.76 427.26 289.366 412.863 281.365 406.986C272.811 413.977 256.82 437.158 253.271 434.115C249.722 431.073 265.814 413.08 275.518 401.385C262.777 388.108 240.419 380.716 232.345 379.682C227.892 388.814 218.1 406.32 214.551 403.277C211.002 400.235 218.476 385.452 222.657 378.44C201.023 373.081 177.043 371.517 167.757 371.406L172.943 420.589C177.991 419.618 190.107 417.288 198.184 415.735C208.28 413.794 212.512 419.188 209.079 420.366C206.332 421.307 186.258 427.684 176.564 430.755C178.646 445.254 187.631 459.667 191.863 465.061C202.231 460.999 224.017 452.362 228.219 450.312C233.47 447.751 241.136 451.968 235.884 454.529C231.683 456.578 211.642 468.674 202.147 474.466C230.787 494.308 250.18 483.855 261.075 488.485Z" fill="#00B67A"/>
<path d="M263.404 524.915C268.235 523.36 282.229 531.71 288.623 536.079L290.802 534.631C283.682 530.745 268.916 522.494 266.809 520.585C264.176 518.198 266.9 508.115 261.929 495.906C257.952 486.139 248.279 484.294 242.976 484.716C241.969 490.555 243.643 505.575 241.137 505.586C238.631 505.596 238.822 492.647 238.64 484.495C228.816 483.577 217.167 488.422 213.536 490.835C214.943 496.105 217.131 506.646 214.625 506.657C212.119 506.667 209.949 498.044 209.177 493.731C198.536 499.148 188.279 506.928 184.481 510.141L203.866 528.284C205.568 526.118 209.654 520.921 212.377 517.457C215.782 513.126 219.391 513.83 218.415 515.513C217.634 516.859 211.749 526.492 208.905 531.139C214.843 536.294 223.545 538.991 227.154 539.695C229.924 534.408 235.707 523.257 236.688 520.951C237.914 518.069 242.499 517.09 241.273 519.973C240.293 522.279 236.431 534.221 234.622 539.904C253.19 537.907 257.367 526.859 263.404 524.915Z" fill="#00B67A"/>
<path d="M133.715 211.166C170.098 208.62 195.731 235.994 204 250H9.99998C16.7847 239.496 36.3967 220.843 60.5672 230.265C90.7803 242.042 88.2361 214.349 133.715 211.166Z" fill="#E1E1E1"/>
<path d="M393.763 380.571C407.281 376.64 418.679 379.399 422.194 381.037L422.871 355.649C410.229 354.193 398.157 357.523 393.763 359.48V380.571Z" fill="#FF8139"/>
<path d="M406.96 381.564L393.763 382.806L408.587 539.999L421.832 539.627L406.96 381.564Z" fill="#FF8139"/>
<path d="M409.412 514.4L421.241 519.288L422.021 496.904C419.683 497.471 417.912 498.746 416.495 500.446C415.362 501.806 415.929 500.375 414.795 500.942C410.772 499.469 408.302 496.314 407.995 494.284C405.502 503.294 407.901 511.449 409.412 514.4Z" fill="#00181B"/>
<path d="M408.549 317.358C401.415 307.795 375.959 304.921 364.168 298.179C359.781 295.672 356.488 282.377 356.554 273.637C366.265 267.932 374.837 244.824 374.938 224.626C375.063 199.7 362.797 179.683 344.195 179.59C325.593 179.497 313.137 199.598 313.012 224.525C312.913 244.353 317.215 264.479 328.545 271.697C328.502 280.403 326.487 289.955 322.017 292.454C310.16 299.077 293.53 296.526 286.864 306.39C268.67 333.365 271.397 363.929 271.397 363.929L412.207 395.457C412.207 395.457 427.866 349.856 408.549 317.358Z" fill="#E2BBA6"/>
<path d="M314.835 257.417C315.199 253.055 312.564 238.94 311.201 232.427L313.472 233.791C313.927 238.485 315.472 248.42 318.016 250.601C321.196 253.327 333.918 245.603 343.459 246.512C353 247.421 362.087 253.327 367.085 253.327C371.083 253.327 372.991 241.817 373.446 236.062L375.717 233.791C374.809 236.517 371.628 256.053 371.174 261.96C370.72 267.866 363.904 282.405 341.642 281.042C319.379 279.679 314.381 262.869 314.835 257.417Z" fill="#00181B"/>
<path d="M341.761 208.665C320.104 205.621 312.914 230.881 313.642 240.151C305.883 210.852 328.389 201.346 340.611 200.255L374.91 207.665L373.964 238.257L370.719 214.891C354.743 216.389 349.182 208.665 341.761 208.665Z" fill="#CBA895"/>
<path opacity="0.1" d="M337.36 274.763C340.918 275.565 344.608 275.584 348.174 274.817C348.174 274.817 342.963 280.046 337.36 274.763Z" fill="black"/>
<path d="M341.93 203.722C321.012 199.714 312.756 217.816 313.703 239.7C309.381 228.235 294.661 198.805 309.2 191.536C314.092 189.09 319.464 189.987 327.117 185.811C333.28 182.449 337.013 175.651 348.273 175.634C360.084 175.616 370.721 190.477 375.079 193.354C391.513 200.07 378.337 230.012 373.59 238.989L373.02 231.71L370.291 211.339C360.037 212.959 348.448 204.97 341.93 203.722Z" fill="#00181B"/>
<path d="M310.563 199.261C305.111 202.896 305.868 216.223 306.928 222.432C295.115 188.81 310.563 191.537 321.467 188.356C332.371 185.176 328.736 182.45 340.549 176.998C350 172.636 359.632 178.815 363.267 182.45C358.875 179.724 347.728 176.725 338.278 186.539C326.465 198.806 317.378 194.717 310.563 199.261Z" fill="#00181B"/>
<path d="M408.651 539.996L403.723 487.754L287.321 491.318L280.885 539.994L339.393 539.994C341.938 534.883 346.333 525.275 348.052 526.876C349.77 528.476 353.882 536.218 354.916 539.996L408.651 539.996Z" fill="#142B5A"/>
<path d="M321.826 291.461C335.727 306.626 354.647 299.886 362.369 294.621C374.409 294.621 401.156 299.632 411.826 319.674C416.434 328.331 421.833 346.283 422.848 353.427L392.809 364.848L403.981 491.088C349.379 508.033 308.779 497.472 286.388 491.088C286.388 488.212 290.462 433.545 290.462 402.852C290.462 402.852 289.755 373.26 289.755 364.848C280.488 346.314 272.16 339.733 267.596 336.925C267.947 335.346 267.59 326.958 275.04 314.461C284.938 297.858 308.838 293.217 321.826 291.461Z" fill="#FAFAFC"/>
<rect width="6" height="248.166" transform="matrix(-0.980396 -0.197038 -0.197038 0.980396 257.997 121.737)" fill="#C4C4C4"/>
<path d="M241.502 283.018C241.563 284.277 243.246 287.535 246.899 291.899L227.77 299.14L223.004 285.307C222.254 284.293 222.474 280.79 222.27 276.595C222.015 271.352 227.848 261.609 224.626 260.189C221.404 258.769 211.172 264.521 210.47 260.877C209.767 257.232 212.913 257.079 214.46 256.478C216.008 255.878 229.36 249.448 231.533 250.919C233.707 252.39 240.381 259.949 240.534 263.095C240.686 266.241 239.445 273.133 241.145 275.678C242.845 278.223 241.425 281.445 241.502 283.018Z" fill="#E2BBA6"/>
<path d="M217.12 251.849C219.177 252.444 227.911 259.254 232.02 262.584C232.02 262.584 238.049 266.889 238.405 273.575C238.76 280.26 232.788 284.773 232.788 284.773C229.43 287.125 222.208 291.574 220.186 290.561C217.658 289.295 211.905 288.812 211.689 285.106C211.474 281.401 208.859 281.181 207.597 277.387C206.336 273.594 207.993 272.679 208.169 270.587C208.345 268.495 206.385 266.75 208.741 263.787C211.097 260.824 210.706 259.211 210.838 257.642C210.97 256.073 214.548 251.106 217.12 251.849Z" fill="#E2BBA6"/>
<path d="M320.045 178.576C354.51 162.436 395.475 183.993 404.74 195.539C416.5 130.001 380.804 75.6945 358.91 60.3265L173.305 51.9178L163.16 51.4582C104.67 54.4338 81.7159 104.023 82.1194 136.669C119.983 111.982 144.92 135.514 152.656 150.366C190.599 117.282 227.04 145.61 237.656 160.592C280.412 140.928 311.649 161.694 320.045 178.576Z" fill="#081B42"/>
<path d="M274.922 21.2976C329.564 30.4466 367.089 63.8831 372.147 73.752L93.5003 93.5015C124.051 37.8285 192.462 7.49093 274.922 21.2976Z" fill="#081B42"/>
<path d="M260.374 378.401C251.846 369.873 233.735 320.816 226.743 296.286L240.875 284.483C262.854 310.161 286.805 350.073 289.824 361.209C293.786 375.82 273.393 391.419 260.374 378.401Z" fill="#E2BBA6"/>
<path d="M417.081 399.233C415.821 389.414 416.031 377.065 417.081 372.928L394.648 385.518L400.436 453.165C404.054 461.365 410.637 480.007 408.033 488.979C405.428 497.95 417.418 509.329 423.465 499.016C426.721 495.76 432.514 499.378 432.514 505.889C432.514 511.098 426.481 516.5 423.465 518.55C424.551 519.877 428.776 522.805 434.989 518.55C442.018 513.737 440.928 508.789 442.211 502.808C442.211 493.526 439.894 488.296 430.603 481.914C420.457 474.944 424.243 462.705 422.367 437.619C420.845 417.265 419.198 415.733 417.081 399.233Z" fill="#E2BBA6"/>
<path d="M407.184 502.576C406.185 497.247 407.6 491.196 408.433 488.836L416.766 501.183C415.806 503.539 414.98 508.47 415.244 510.735C415.713 514.763 417.778 516.185 418.348 517.61C418.804 518.75 416.867 518.621 416.135 518.397C409.89 515.066 408.433 509.238 407.184 502.576Z" fill="#E2BBA6"/>
<rect width="3.14433" height="25.8691" rx="1.57216" transform="matrix(-1 0 0 1 424.42 355.508)" fill="#FF8139"/>
<rect width="3.14433" height="25.8691" rx="1.57216" transform="matrix(-1 0 0 1 397.648 357.166)" fill="#FF8139"/>
<ellipse rx="9.15297" ry="11.7631" transform="matrix(-1 0 0 1 424.42 508.191)" fill="#FF8139"/>
<path d="M422.177 431.152L416.175 384.367L394.826 388.311L399.105 436.407L422.177 431.152Z" fill="#081B42"/>
<path d="M416.994 389.502L395.871 398.455" stroke="#FAFAFC"/>
<path d="M418.005 398.595L399.843 396.636" stroke="#FAFAFC"/>
<path d="M418.533 404.192C415.322 405.733 406.473 408.958 396.759 409.536" stroke="#FAFAFC"/>
<path d="M419.851 413.869C418.479 415.314 412.113 418.549 397.626 419.936" stroke="#FAFAFC"/>
<path d="M421.024 422.247C418.264 424.028 409.894 427.764 398.492 428.458" stroke="#FAFAFC"/>
<path d="M390.784 355.508C393.419 357.748 394.956 357.649 395.395 357.319L395.662 382.977C394.736 382.845 394.394 382.518 394.339 382.371L390.784 355.508Z" fill="#FF8139"/>
</svg>
