<svg width="471" height="540" viewBox="0 0 471 540" fill="none" xmlns="http://www.w3.org/2000/svg">
<path fill-rule="evenodd" clip-rule="evenodd" d="M37.1619 397.222L132.351 464.482L105.36 351.001C114.468 348.766 123.988 347.58 133.785 347.58C170.93 347.58 204.094 364.623 225.885 391.315V538.573H39.3614C24.0493 518.567 14.9516 493.553 14.9516 466.414C14.9516 440.6 23.182 416.709 37.1619 397.222Z" fill="#081B42"/>
<rect width="153.937" height="9.12217" transform="matrix(-1 0 0 1 154.756 164.869)" fill="white"/>
<path opacity="0.4" d="M0.999878 193.946L141.072 173.991H0.999878V193.946Z" fill="#081B42"/>
<path d="M134.23 127.24L123.398 164.869H101.733L92.0404 127.24H134.23Z" fill="#FF8139"/>
<path d="M92.0404 127.24H134.23L94.321 135.792L92.0404 127.24Z" fill="#D3662F"/>
<rect width="46.7511" height="9.12217" rx="2" transform="matrix(-1 0 0 1 136.512 118.118)" fill="#FF8139"/>
<path d="M135.369 103.227C132.176 104.139 127.577 113.87 125.677 118.621H123.966C126.437 113.87 131.492 103.911 131.948 102.087C132.518 99.8064 127.387 95.2453 125.677 86.693C124.308 79.8512 128.908 75.2904 131.948 73.5801C134.609 76.4307 139.132 85.3249 140.5 84.4127C141.869 83.5005 137.079 76.4308 134.229 71.8697C139.246 67.7647 147.342 66.1686 150.193 66.1687C151.333 69.5894 153.956 76.2028 155.324 75.2905C156.692 74.3783 154.754 68.8292 153.613 66.1687C161.367 65.2565 169.767 65.7886 172.998 66.1687L169.007 83.2728C167.297 82.7025 163.192 81.3337 160.455 80.4215C157.034 79.2812 155.324 80.9916 156.464 81.5618C157.376 82.0179 164.066 85.1726 167.297 86.693C165.928 91.7102 162.165 96.3853 160.455 98.0957C157.034 96.1953 149.851 92.1665 148.482 91.2543C146.772 90.114 143.921 91.2543 145.632 92.3945C147 93.3068 153.423 98.476 156.464 100.947C145.632 106.648 139.36 102.087 135.369 103.227Z" fill="#00B67A"/>
<path d="M96.3884 96.5724C100.918 97.8492 107.442 111.468 110.138 118.118H112.564C109.06 111.468 101.888 97.5301 101.241 94.9766C100.432 91.7847 107.712 85.401 110.138 73.4311C112.079 63.8551 105.555 57.4718 101.241 55.0781C97.4668 59.0678 91.0504 71.5163 89.1093 70.2395C87.1681 68.9628 93.962 59.0679 98.006 52.6842C90.8886 46.9388 79.4037 44.7048 75.3597 44.705C73.7421 49.4926 70.0216 58.7487 68.0805 57.472C66.1394 56.1952 68.8893 48.4287 70.5069 44.705C59.5073 43.4282 47.591 44.173 43.0078 44.705L48.6694 68.6441C51.0958 67.8458 56.9191 65.9301 60.8014 64.6534C65.6541 63.0574 68.0805 65.4513 66.4629 66.2493C65.1689 66.8877 55.679 71.3031 51.0958 73.4311C53.0369 80.4532 58.375 86.9965 60.8014 89.3905C65.6541 86.7306 75.845 81.0918 77.7861 79.8151C80.2125 78.2191 84.2565 79.8151 81.8301 81.411C79.889 82.6878 70.7765 89.9227 66.4629 93.3806C81.8301 101.36 90.7268 94.9765 96.3884 96.5724Z" fill="#00B67A"/>
<path d="M386.385 85.5925C386.474 38.9722 348.706 1.0498 302.086 1.0498C255.529 1.0498 217.787 38.873 217.787 85.43C217.787 131.987 255.529 169.81 302.086 169.81C348.579 169.81 386.295 132.086 386.385 85.5925Z" fill="#F5F5F5"/>
<path d="M223.075 81.6738C224.835 39.4429 259.584 6.11279 301.851 6.11279C343.69 6.11279 378.244 38.7929 380.574 80.567L380.846 85.4302L380.574 90.2932C378.244 132.067 343.69 164.747 301.851 164.747C259.584 164.747 224.835 131.417 223.075 89.1864L222.918 85.4302L223.075 81.6738Z" fill="white"/>
<rect x="223.488" y="85.4297" width="157.357" height="6.84163" fill="#E5E5E5"/>
<rect x="305.588" y="5.61035" width="159.638" height="6.84162" transform="rotate(90 305.588 5.61035)" fill="#E5E5E5"/>
<path d="M318.805 366.543C317.683 365.425 316.348 364.542 314.879 363.946C310.74 363.252 306.564 362.796 302.373 362.581C300.142 362.581 291.294 366.439 290.64 366.869C289.985 367.3 289.599 369.466 293.004 369.362C296.41 369.258 318.805 366.543 318.805 366.543Z" fill="#E5B9B7"/>
<path d="M251.268 257.361C251.268 257.361 249.989 256.634 248.294 255.743C245.864 254.397 243.27 253.369 240.576 252.687C236.992 252.123 228.219 254.393 225.334 254.987C222.449 255.58 217.185 256.886 217.185 256.886C217.497 258.815 215.148 258.934 215.148 258.934C215.341 260.314 217.2 260.299 218.716 260.417C219.932 260.428 221.144 260.298 222.33 260.032C222.304 260.825 222.005 261.585 221.482 262.183C221.97 262.461 222.527 262.594 223.088 262.569C226.704 262.564 230.27 263.408 233.498 265.032C237.81 267.57 242.078 271.606 248.131 277.155C250.292 279.121 252.726 280.765 255.358 282.037H255.477L256.369 282.453C257.607 283.034 258.884 283.53 260.191 283.937C260.562 284.055 260.934 284.144 261.291 284.233L251.268 257.361Z" fill="#E5B9B7"/>
<path d="M309.92 517.17C310.377 489.812 320.392 425.975 325.342 397.477H433.299C440.725 414.576 442.438 435.665 442.438 454.474C442.438 469.521 441.304 513.161 438.829 539H382.106L371.616 493.232C369.331 501.895 367.475 523.421 366.143 539H309.921C309.872 530.216 309.818 526.337 309.772 524.944C309.665 521.673 309.605 532.125 309.772 524.944C309.809 523.344 309.858 520.869 309.92 517.17Z" fill="#F4EFEF"/>
<path d="M316.225 451.199L318.505 437.516V435.805H339.03L340.74 418.701H377.229V437.516L442.795 438.656V451.199C411.779 442.989 382.74 442.837 372.098 443.787L373.238 426.683C371.87 427.596 369.247 428.204 368.107 428.394H352.143C347.126 428.394 344.351 426.493 343.591 425.543L342.451 443.217C332.873 445.042 320.976 449.299 316.225 451.199Z" fill="#CFCDCD"/>
<path d="M365.257 484.267C360.696 519.387 359.3 523.796 358.16 539H367.282C370.019 502.055 370.578 507.072 371.529 496.81C369.704 480.39 366.587 481.606 365.257 484.267Z" fill="#CFCDCD"/>
<path d="M438.804 539C441.085 461.462 434.813 457.281 431.393 447.778L442.795 450.059C444.164 482.899 440.705 511.634 438.804 539Z" fill="#CFCDCD"/>
<path d="M242.349 341.131C242.349 341.131 256.158 323.162 284.621 327.396C313.085 331.63 319.598 352.559 319.598 352.559L274.146 398.896L242.349 341.131Z" fill="#FF8139"/>
<path d="M237.38 251.749C231.432 251.645 238.153 247.669 241.707 246.912C245.261 246.155 253.187 245.042 255.686 248.396C258.184 251.749 277.055 278.488 279.999 279.72C282.944 280.951 298.537 298.403 298.537 298.403C331.788 302.201 308.926 293.789 316.539 290.421C324.153 287.052 325.646 263.208 337.274 250.996C348.903 238.784 348.13 226.097 357.959 228.886C369.291 232.092 369.127 228.352 369.127 228.352L370.079 226.646C372.493 220.575 374.073 214.206 374.778 207.712C369.841 208.765 370.228 209.107 365.677 207.875C338.91 200.56 363.699 128.964 363.699 128.964C371.06 109.437 420.119 125.017 426.29 135.938C432.238 146.444 423.613 162.455 423.613 162.455C429.74 162.232 430.439 167.173 430.439 167.173C431.688 177.798 416.386 184.683 416.386 184.683L414.899 186.552C401.307 205.649 404.713 219.197 407.241 224.969C407.806 226.171 412.594 228.976 417.501 228.886C423.747 228.797 441.012 229.228 449.711 250.684C466.232 291.386 450.99 351.794 442.201 357.699C433.413 363.605 349.32 375.506 349.32 375.506L340.754 381.218L330.583 384.186C327.326 385.269 320.887 388.163 312.738 390.329C302.522 393 301.035 393.609 298.269 393.95C295.161 394.321 295.666 394.618 291.755 394.974C288.781 395.241 288.781 392.852 288.781 392.852L283.636 394.172C279.443 393.89 281.168 389.113 281.168 389.113C280.669 388.931 280.225 388.627 279.874 388.23C279.523 387.833 279.278 387.354 279.159 386.838C279.041 386.322 279.054 385.785 279.197 385.275C279.34 384.765 279.608 384.299 279.978 383.919C280.87 383.192 288.9 378.592 290.596 377.509C292.291 376.426 298.997 372.686 298.997 372.686C298.997 372.686 289.257 375.313 288.707 376.055C285.897 378.398 282.958 380.583 279.904 382.598C278.134 383.489 276.394 380.625 277.524 379.126C278.655 377.628 285.198 371.291 288.187 369.986C291.176 368.68 296.351 364.777 298.774 363.664C301.198 362.552 301.749 364.733 308.723 364.54C315.697 364.347 313.184 364.451 314.27 364.228C315.355 364.006 316.931 363.65 318.805 363.279C320.921 362.86 322.421 363.008 324.144 363.679L341.215 359.732H319.117C321.006 315.247 324.56 291.935 324.56 291.935C324.56 291.935 331.743 329.655 306.269 326.064C280.796 322.473 275.33 292.496 273.233 291.205C272.296 290.626 269.783 289.142 266.883 286.976C253.083 285.151 257.024 273.042 248.548 273.042C238.748 273.042 236.8 272.479 236.8 270.668C236.8 268.858 246.585 267.923 252.964 267.701C251.909 263.13 251.76 258.798 250.139 254.776C248.265 250.072 241.797 251.823 237.38 251.749Z" fill="#F4C7C3"/>
<path opacity="0.1" d="M361.782 206.154C355.67 200.1 359.254 183.065 358.079 176.937C356.904 170.809 367.09 165.319 366.853 149.694C366.674 138.031 374.02 125.596 377.768 120.017C371.061 120.862 365.752 123.578 363.7 129.024C363.7 129.024 341.513 193.007 361.782 206.154Z" fill="black"/>
<path opacity="0.1" d="M374.823 230.177C376.98 228.188 380.504 206.435 380.504 206.435L374.823 207.919C374.12 214.413 372.54 220.782 370.124 226.853L369.173 228.559C369.173 228.559 365.44 231.052 357.93 229.924L359.596 230.488C364.711 231.601 372.667 232.165 374.823 230.177Z" fill="black"/>
<path d="M280.862 277.878C285.993 281.299 291.125 284.72 291.125 284.72C311.65 296.123 306.828 294.25 314.828 291.935C327.26 288.27 322.477 254.557 334.106 242.316C345.735 230.074 348.129 226.142 357.899 228.961C367.669 231.78 369.795 224.791 370.985 224.124C370.717 225.993 374.376 232.596 377.32 233.531L379.491 241.485L386.926 233.546C396.399 231.691 406.645 223.782 406.645 223.782C407.225 224.984 405.158 231.602 415.939 228.902C421.991 227.418 440.996 229.228 449.695 250.684C467.852 295.423 456.223 346.185 442.186 357.7C434.007 364.407 349.304 375.506 349.304 375.506L349.185 379.275L340.738 381.219C341.229 369.704 333.169 361.647 333.169 361.647L341.214 359.733H319.116C321.005 315.247 324.559 291.935 324.559 291.935C324.559 291.935 331.742 329.655 306.268 326.064C288.944 323.616 283.143 310.946 274.591 299.543C281.907 292.733 280.862 277.878 280.862 277.878Z" fill="#F4EBEA"/>
<path opacity="0.1" d="M349.14 355.058L353.914 323.096L358.375 293.3L360.055 282.038C358.979 275.839 358.779 269.521 359.46 263.267C360.367 254.216 359.966 242.835 364.546 232.344C364.546 232.344 362.538 241.603 363.208 248.236C363.624 252.405 366.732 264.959 364.695 274.648C362.657 284.338 359.267 286.757 359.921 300.067C360.576 313.377 361.23 335.13 349.14 355.058Z" fill="black"/>
<path d="M343.937 380.378L378.209 372.399L377.067 407.737H340.51L343.937 380.378Z" fill="#F4EBEA"/>
<path d="M344.25 380.503L340.262 408.439H346.529C348.807 405.018 349.377 397.607 348.807 393.046C348.238 388.485 347.098 383.353 357.353 382.213C365.557 381.301 374.445 379.933 377.863 379.362L379.572 372.521L377.863 373.091L344.25 380.503Z" fill="#DCD4D3"/>
<path d="M341.652 420.277L342.584 407.737H377.067L376.577 420.277H341.652Z" fill="black"/>
<path d="M350.221 420.276V407.736H365.643V420.276H350.221Z" stroke="#FFD300" stroke-width="3"/>
<path d="M461.605 250.512C455.895 233.804 438.526 228.002 430.169 227.245L406.601 223.753C406.601 223.753 397.679 259.098 380.414 282.632L377.767 340.428L339.966 359.718L340.204 359.955C342.222 362.119 343.754 364.688 344.698 367.49C345.642 370.292 345.975 373.263 345.676 376.203L345.557 379.972L349.082 379.201C349.082 379.201 400.661 373.485 427.146 367.49C429.347 366.985 436.268 365.109 436.268 365.109L461.605 354.16C461.605 354.16 477.799 297.906 461.605 250.512Z" fill="#152D5D"/>
<path d="M284.283 277.308L286.068 279.046C293.406 284.72 303.794 292.677 311.408 289.309C319.021 285.941 320.604 262.6 326.582 246.811C330.582 236.261 334.805 225.355 350.895 223.752L371.045 224.094C370.587 225.659 369.922 227.156 369.067 228.545L368.77 228.723C367.641 229.204 366.472 229.582 365.275 229.851C365.275 229.851 356.725 256.353 360.041 282.053L348.977 356.112L339.965 359.718H319.147C321.035 315.202 321.675 319.535 321.675 319.535C321.675 319.535 336.881 340.193 311.408 336.602C296.909 334.554 286.068 322.919 277.324 303.233C279.614 299.479 285.681 286.063 284.283 277.308Z" fill="#152D5D"/>
<path d="M340.511 437.375L344.509 380.379C342.796 380.759 338.569 381.747 335.37 382.659L335.37 382.659C331.372 383.798 327.373 384.938 324.517 386.078C322.232 386.99 317.472 388.738 315.378 389.498L309.666 437.375H340.511Z" fill="#152D5D"/>
<path d="M375.926 439.085L378.211 372.969L447.326 355.87L445.041 380.949L453.038 439.085H375.926Z" fill="#152D5D"/>
<path d="M318.805 363.28L319.376 354.16L342.224 359.29L324.517 363.85C322.803 362.71 319.376 363.28 318.805 363.28Z" fill="#152D5D"/>
<path d="M447.368 357.127L378.433 373.091L377.863 379.362L446.799 363.398L447.368 357.127Z" fill="#0C2048"/>
<path d="M383.448 291.267L384.608 283.596L388.906 290.11C394.292 284.454 398.861 278.076 402.482 271.161C399.172 278.791 394.603 285.813 388.965 291.935L384.727 285.495L383.448 291.267Z" fill="#0C2048"/>
<path d="M358.361 288.967L356.369 281.548L351.759 286C351.759 286 348.383 272.808 349.067 262.169C348.159 270.949 348.983 279.821 351.491 288.285L355.952 283.714L358.361 288.967Z" fill="#0C2048"/>
<path d="M390.719 335.145C390.719 335.145 399.21 330.233 402.482 330.515C405.754 330.797 422.764 327.941 422.764 327.941C422.764 327.941 423.59 308.52 420.479 297.732C420.479 297.732 416.475 313.332 413.308 318.17C410.14 323.007 406.661 320.989 401.144 325.337C395.627 329.684 396.236 332.251 390.719 335.145Z" fill="#0C2048"/>
<path d="M350.24 183.08C350.945 179.823 352.07 176.671 353.586 173.702C353.586 173.702 353.75 178.258 358.047 176.937C364.397 174.993 373.498 174.637 383.327 184C393.157 193.363 407.12 179.652 409.247 172.441C411.373 165.229 417.738 148.314 413.039 143.803C408.34 139.292 396.235 145.791 383.179 141.28C370.122 136.769 364.62 126.16 363.163 131.383C362.392 134.23 361.469 137.033 360.397 139.781C360.397 139.781 357.2 120.937 362.033 113.547C366.866 106.157 375.966 107.241 383.907 110.134C391.848 113.028 400.518 111.618 404.726 111.618C408.48 111.802 412.14 112.853 415.417 114.689C418.695 116.525 421.5 119.095 423.612 122.198C429.396 130.656 436.073 129.216 436.787 137.036C437.501 144.856 426.482 159.843 423.612 162.588C421.679 164.413 416.667 173.539 412.266 183.095C412.652 184.46 413.753 185.306 416.325 184.757C414.34 189.729 411.774 194.451 408.682 198.824C404.756 204.166 392.562 212.178 374.896 212.357C370.612 212.567 366.339 211.753 362.434 209.982C349.809 203.913 348.53 189.743 350.24 183.08Z" fill="#594423"/>
<path d="M394.169 199.388C401.128 198.126 407.121 194.936 409.5 184.416C411.88 173.895 426.081 151.474 429.561 142.17C433.041 132.867 422.289 133.03 421.516 126.249C421.025 122.02 417.441 117.346 414.824 114.378C418.362 116.237 421.386 118.938 423.627 122.242C429.412 130.7 436.089 129.261 436.803 137.081C437.517 144.901 426.497 159.888 423.627 162.633C421.694 164.458 416.683 173.584 412.281 183.14C412.668 184.505 413.768 185.35 416.341 184.801C414.355 189.774 411.79 194.495 408.697 198.868C404.772 204.21 392.578 212.223 374.911 212.401C372.415 212.493 369.916 212.269 367.476 211.733C379.209 213.291 387.224 200.649 394.169 199.388Z" fill="#3E2F1C"/>
<path d="M410.064 112.39C410.064 112.39 403.239 118.325 390.733 117.271C386.301 116.93 373.78 109.14 368.709 112.39C363.638 115.639 361.125 121.085 363.163 131.353C362.392 134.2 361.468 137.004 360.397 139.752C360.397 139.752 357.199 120.937 362.032 113.547C366.865 106.157 375.966 107.241 383.907 110.134C391.848 113.028 400.518 111.618 404.726 111.618C406.532 111.639 408.327 111.898 410.064 112.39Z" fill="#674F2D"/>
<path d="M350.24 183.08C350.945 179.823 352.07 176.671 353.586 173.702C353.586 173.702 353.75 178.258 358.047 176.937C360.926 176.007 363.963 175.66 366.978 175.914C369.993 176.169 372.928 177.021 375.609 178.421C375.148 178.317 359.638 174.667 355.415 181.626C351.192 188.585 351.876 198.898 357.214 206.48C349.511 199.566 348.798 188.674 350.24 183.08Z" fill="#674F2D"/>
<path d="M243.983 293.893C243.983 293.893 222.005 299.576 202.123 278.847C182.241 258.117 189.988 237.61 189.988 237.61L254.438 228.93L243.983 293.893Z" fill="#00181B"/>
<path d="M249.32 266.798C246.325 266.991 243.345 267.373 240.398 267.94C238.45 268.578 237.647 269.261 237.751 270.3C237.855 271.338 239.937 272.14 242.584 272.08L247.997 271.962L249.32 266.798Z" fill="#F4C7C3"/>
<path d="M228.746 153.852C229.971 161.33 231.929 173.341 233.738 185.18C232.593 174.026 230.475 161.672 229.009 153.943L228.746 153.852Z" fill="#CEA999"/>
<path d="M247.844 182.77L233.738 185.179L230.021 174.113C230.159 180.005 228.167 190.927 226.713 193.164C218.731 195.445 213.913 186.766 209.922 189.744C205.361 193.146 199.719 200.495 203.337 210.268C208.403 223.952 205.949 228.734 204.827 234.214C203.705 239.694 194.969 266.983 204.827 277.544L219.929 272.977C216.51 270.961 213.369 268.508 210.586 265.682C205.732 258.146 209.922 236.808 209.922 236.808C209.922 236.808 227.99 248.601 238.547 239.308C239.42 238.526 240.19 237.636 240.837 236.659C246.848 228.245 247.706 206.883 247.878 202.305C248.05 197.726 247.844 182.77 247.844 182.77Z" fill="#CEA999"/>
<path d="M172.275 267.805C172.275 267.805 166.803 272.372 161.868 286.073C156.933 299.774 169.768 278.184 169.768 278.184L171.279 270.546L172.275 267.805Z" fill="#292289"/>
<path d="M231.333 437.099C231.333 437.099 248.717 499.423 247.732 538.652H131.5H115L138.946 440.125C138.946 440.125 189.725 466.144 231.333 437.099Z" fill="#F4EFEF"/>
<path d="M285.054 395.131C282.517 395.279 272.895 389.502 269.733 387.363L265.676 404.882L276.671 407.742C278.097 410.095 281.676 415.173 284.583 416.655C288.216 418.508 296.248 416.15 298.515 416.707C300.783 417.263 304.138 420.25 306.406 420.806C308.22 421.251 309.045 419.85 309.23 419.094L312.863 420.947C315.492 421.208 316.181 419.838 316.196 419.12C316.235 419.29 316.742 419.639 318.464 419.677C320.186 419.714 320.648 418.289 320.664 417.571C321.798 417.849 322.932 418.128 323.835 417.387C324.738 416.647 321.43 411.508 317.681 409.146C314.683 407.256 307.763 403.186 304.678 401.388C312.153 401.298 316.757 405.072 319.813 404.379C322.868 403.686 319.282 399.681 315.255 398.452C311.229 397.224 304.31 395.046 302.157 394.999C300.005 394.952 288.225 394.947 285.054 395.131Z" fill="#CEA999"/>
<path d="M243.28 364.538C248.981 371.695 254.683 376.511 278.85 392.475L270.076 409.579C246.131 402.167 234.728 398.176 227.316 394.713C224.465 405.018 229.455 432.236 232.821 441.187C232.821 441.187 147.303 478.27 138.934 440.125C138.934 440.125 147.59 407.072 148.735 376.326C149.994 341.424 145.414 325.691 158.009 292.867C162.783 280.41 168.559 271.843 172.549 266.142C177.942 271.759 188.877 279.291 216.013 270.352C221.521 274.278 227.503 277.497 233.817 279.931C259.814 289.952 226.773 343.819 243.28 364.538Z" fill="#F4C7C3"/>
<path d="M233.194 196.784L249.728 191.083C250.869 189.372 248.099 169.988 241.176 160.295C235.475 152.313 226.923 147.182 221.222 149.463C204.117 147.182 174.47 137.49 161.357 176.83C157.057 189.732 148.244 229.852 148.244 280.024C148.244 318.866 156.226 330.766 174.47 330.766C202.407 330.766 221.792 290.667 224.072 276.033C226.353 277.858 231.104 279.454 233.194 280.024C229.089 271.814 229.583 209.707 230.344 179.68C231.484 187.662 233.194 195.454 233.194 196.784Z" fill="#4F3C27"/>
<g style="mix-blend-mode:multiply" opacity="0.3">
<path d="M175.664 452.42C175.87 453.802 176.065 455.149 176.259 456.485C176.065 455.149 175.87 453.802 175.664 452.42Z" fill="black"/>
</g>
<g style="mix-blend-mode:multiply" opacity="0.3">
<path d="M175.503 451.37C175.503 451.005 175.401 450.64 175.344 450.229C175.389 450.64 175.458 451.005 175.503 451.37Z" fill="black"/>
</g>
<path d="M232 440.62C226.792 419.276 226.575 400.406 227.118 393.64L218.438 389C215.834 403.848 217.353 433.853 218.438 447L232 440.62Z" fill="#D3A8A4"/>
</svg>
