<svg fill="none" xmlns="http://www.w3.org/2000/svg" viewBox="0 0 470 541"><path d="M278 163.5V196h30.5v-32.5c0-6-2-16-15.5-16s-15 10.5-15 16z" fill="#CCD2DD"/><path fill="#8E5841" d="M278 196h31v3h-31z"/><path d="M302 159.5c-.4-4.4-2.833-6.167-4-6.5l4.5-1c2 1.2 3.167 4.167 3.5 5.5l-4 2z" fill="#fff"/><path fill="#FAFAFC" d="M330 89h139v8H330z"/><path d="M385 50v37a2 2 0 002 2h7a2 2 0 002-2V50a2 2 0 00-2-2h-7a2 2 0 00-2 2z" fill="#FF8139"/><path fill="#fff" d="M331 75h52v13h-52z"/><path fill="#C4C4C4" d="M330 87h55v2h-55zM330 74h55v2h-55z"/><path d="M330 75v13.5h3c-.5-.833-1.5-3.3-1.5-6.5s1-6 1.5-7h-3z" fill="#C4C4C4"/><path fill="#fff" d="M384.382 73.382h-32.145v-8.036h32.145z"/><path fill="#FF8139" d="M385 65.964h-34v-1.236h34zM385 74h-34v-1.236h34z"/><path d="M385 73.382v-8.346h-1.855c.31.516.928 2.04.928 4.019 0 1.978-.618 3.709-.928 4.327H385z" fill="#FF8139"/><path opacity=".4" d="M469 114.5L341.5 97H469v17.5z" fill="#081B42"/><path fill="#FAFAFC" d="M215 199h139v8H215z"/><path opacity=".4" d="M354 224.5L226.5 207H354v17.5z" fill="#081B42"/><path d="M74.403 85.163C74.313 38.543 112.08.62 158.7.62 205.258.62 243 38.443 243 85c0 46.557-37.742 84.38-84.299 84.38-46.493 0-84.209-37.724-84.298-84.217z" fill="#F5F5F5"/><path d="M237.712 81.244c-1.76-42.23-36.509-75.56-78.777-75.56-41.839 0-76.392 32.68-78.723 74.453l-.27 4.864.27 4.862c2.33 41.775 36.884 74.455 78.723 74.455 42.268 0 77.017-33.33 78.777-75.561l.157-3.757-.157-3.756z" fill="#fff"/><path fill="#E5E5E5" d="M237.299 85H79.942v6.842h157.357z"/><path fill="#E5E5E5" d="M155.199 5.18V164.82h6.842V5.18z"/><path d="M238.842 365H470c0 66.274-53.726 120-120 120H152v-57.778c2.237-.134 10.656-6.06 26.43-28.687 15.774-22.626 46.847-31.784 60.412-33.535z" fill="#fff"/><path d="M380.5 423.733c9.6-5.989-4-8.152-12-8.485L246 423.733l-41 10.481 19 50.408c9.333-6.987 26.4-20.163 34-24.955 9.5-5.989 31-2.994 57.5-7.985s53-20.463 65-27.949zM446 373.823c12.8-2.795 18.333-9.15 19.5-11.978l-6.5-2.495-129.5 32.441v9.482c5.667 1.331 18.8 2.196 26-4.991 9-8.983 74.5-18.965 90.5-22.459z" fill="#E1E1E1"/><path d="M324.5 379.5L274 405l52.5 14.5L373 387l-48.5-7.5z" fill="#F5F5F5" stroke="#fff"/><path d="M326.226 384.133c-3.333.667-9.3 2.2-6.5 3 3.5 1 13-4 10.5-3s-7 4.5-4 4.5c2.4 0 4.667 1 5.5 1.5l5.5 2.5M328.851 412.477l-16-5M339.866 405.482l-36-10M343.866 402.482l-36-10M347.866 399.482l-36-10" stroke="#000"/><path d="M360.45 371.022a9.033 9.033 0 00-2.979-1.972 83.084 83.084 0 00-9.492-1.036c-1.693 0-8.408 2.929-8.904 3.255-.497.327-.79 1.972 1.794 1.893 2.585-.079 19.581-2.14 19.581-2.14z" fill="#E5B9B7"/><path d="M330 380.5l-1 4.5 4-2.5 16-18-2.5-2.5-16.5 18.5z" fill="#272E80"/><path d="M268.877 300.253a80.129 80.129 0 018.668 7.412c3.464 3.538 10.382 7.165 15.032 6.23l-10.055-21.472s-5.982-3.65-8.77-4.111c-2.787-.462-14.253 1.34-18.373 3.086a1.134 1.134 0 00-.676.638 1.12 1.12 0 00.033.928s-1.433.507-1.535 1.273c-.203 1.476 2.02 1.442 4.063 1.341 0 0-.373 1.498 1.952 1.667 3.476-.173 6.9.893 9.661 3.008z" fill="#F4C7C3"/><path d="M287.374 313.467a22.527 22.527 0 01-2.9-1.126c.936.451 1.905.828 2.9 1.126zM288.221 313.693c-.271-.068-.553-.136-.836-.226.52.158.836.226.836.226zM284.474 312.386l-.678-.316.678.316z" fill="#E5B9B7"/><path d="M280.637 293.324s-.971-.552-2.257-1.228a24.49 24.49 0 00-5.858-2.32c-2.72-.428-9.378 1.295-11.568 1.746-2.189.45-6.184 1.442-6.184 1.442.237 1.464-1.546 1.554-1.546 1.554.146 1.048 1.557 1.037 2.708 1.127.923.008 1.843-.091 2.743-.293a2.617 2.617 0 01-.644 1.634c.371.21.793.312 1.219.292a17.53 17.53 0 017.9 1.87c3.273 1.927 6.512 4.991 11.105 9.204a23.09 23.09 0 005.485 3.707h.091l.677.315c.94.442 1.909.818 2.9 1.126.282.091.565.158.835.226l-7.606-20.402z" fill="#E5B9B7"/><path d="M272 289l-24 12.5 6 12.5 24.5-12.5L272 289z" fill="#E1E1E1"/><path d="M268 291l-24 12.5 6 12.5 24.5-12.5L268 291z" fill="#fff"/><path d="M250.5 308.5L263 302m-12 10l17-9" stroke="#000"/><path d="M270.096 288.199c-4.514-.079.587-3.098 3.284-3.673 2.697-.574 8.713-1.419 10.609 1.127 1.896 2.546 16.217 22.846 18.452 23.781 2.235.935 15.857 2.918 15.857 2.918 25.235 2.884 35.11.799 40.888-1.758 5.778-2.557 6.455-18.024 15.281-27.296 8.825-9.271 8.239-18.903 15.699-16.785 8.599 2.433 8.475-.406 8.475-.406l.722-1.295a54.977 54.977 0 003.567-14.375c-3.747.8-3.454 1.059-6.907.124-20.315-5.553-1.501-59.909-1.501-59.909 5.586-14.825 42.818-2.996 47.502 5.295 4.514 7.976-2.032 20.131-2.032 20.131 4.65-.169 5.18 3.583 5.18 3.583.948 8.066-10.665 13.293-10.665 13.293l-1.128 1.419c-10.315 14.499-7.731 24.784-5.812 29.166.429.912 4.063 3.042 7.787 2.974 4.74-.068 17.843.259 24.445 16.549 12.538 30.901.97 76.762-5.699 81.245-6.67 4.484-70.492 13.519-70.492 13.519l-6.5 4.337-7.72 2.253c-2.471.822-7.358 3.019-13.543 4.664-7.753 2.027-8.882 2.489-10.981 2.748-2.358.282-1.975.507-4.943.778-2.257.202-2.257-1.611-2.257-1.611l-3.905 1.002c-3.183-.214-1.873-3.841-1.873-3.841a2.419 2.419 0 01-1.525-1.727 2.406 2.406 0 01.622-2.216c.677-.552 6.771-4.044 8.058-4.867 1.286-.822 6.376-3.661 6.376-3.661s-7.392 1.994-7.809 2.557a74.224 74.224 0 01-6.682 4.968c-1.343.676-2.663-1.498-1.805-2.636.857-1.137 5.823-5.948 8.092-6.939 2.268-.991 6.195-3.954 8.035-4.799 1.84-.845 2.257.811 7.55.665 5.293-.147 3.386-.068 4.21-.237.824-.169 1.964-.845 3.386-1.127 1.403-.041 2.8.2 4.108.71l12.956-2.996h-16.771c1.433-33.774 4.131-51.472 4.131-51.472s5.451 28.637-13.882 25.911c-19.332-2.727-52.039-21.157-53.63-22.137-.711-.439-2.618-1.566-4.819-3.21-10.473-1.386-7.483-10.579-13.915-10.579-7.438 0-8.916-.428-8.916-1.802s7.426-2.084 12.267-2.253c-.801-3.47-.914-6.759-2.144-9.812-1.422-3.571-6.331-2.242-9.683-2.298z" fill="#F4C7C3"/><path d="M385.5 192.5c0 5.2 2.5 15.5 3.5 19 .5-3 2.833-11.667 4-15.5 1.667-.166 5.9-.8 11.5-2 7-1.5 15 1.5 17 9.5s8 6 9.5 11c1.2 4-.5 8.333-1.5 10 2.4-.4 5-4.167 6-6 2.333-1 7.1-1.9 7.5 2.5.5 5.5-2 5.5-7.5 10.5-4.4 4-7.833 12.667-9 16.5 1-.333 3.6-2.1 6-6.5 3-5.5 1.5-6.5 8.5-10s7.5-10 7.5-16 4-8 2.5-18.5c-1.2-8.4-8.833-10.5-12.5-10.5-4-7-13.994-5.797-21.5-10-12.5-7-20.641-1.759-24 4-3.5 6-7.5 5.5-7.5 12z" fill="#00181B"/><path opacity=".1" d="M393.066 249.255c-4.639-4.597-1.919-17.529-2.81-22.182-.892-4.652 6.839-8.821 6.658-20.683-.135-8.855 5.44-18.295 8.284-22.531-5.09.642-9.119 2.704-10.676 6.838 0 0-16.839 48.576-1.456 58.558zM402.964 267.493c1.636-1.509 4.311-18.024 4.311-18.024l-4.311 1.126a54.898 54.898 0 01-3.567 14.375l-.722 1.295s-2.833 1.893-8.532 1.037l1.264.428c3.882.845 9.92 1.273 11.557-.237z" fill="#000"/><path d="M328.816 313.365c17.64 1.251 25.472-.563 30.37-2.737 5.778-2.569 4.052-18.881 12.076-31.543 6.85-10.826 11.444-14.645 18.903-12.504 1.445.405-1.06 0 .125.169v-1.352c3.735-1.96 9.807-2.524 9.807-2.524-.124.349-1.004 3.019-1.456 3.267-.451.248 2.776.755 2.776.755a10.447 10.447 0 002.777 3.763l2.686 16.684 6.365-15.096c8.137-1.735 13.87-9.609 13.87-9.609a9.044 9.044 0 014.515 1.678c.609-.09 1.873 2.388 2.595 2.253 4.594-1.126 20.315 1.127 28.124 16.808 2.991 6.095 6.952 21.99 7.257 31.994 0 0 1.332 26.113-.903 45.714 0 0-16.24 4.506-23.858 6.174-11.872 2.816-32.04 6.105-45.989 8.246l-1.321-15.67-20.077 6.016h-16.771c1.433-33.774 4.131-51.472 4.131-51.472s5.451 28.637-13.882 25.911c-6.941-.981-15.597-3.988-23.926-7.481l1.806-19.444z" fill="#F4EFEF"/><path d="M397.287 356.985l1.614 18.52 17.718-2.839-1.478-22.531a2.83 2.83 0 00-2.528-.912c-1.524.304-3.036 3.132-3.036 3.132a2.043 2.043 0 00-1.919-.902c-1.218.192-2.324 2.513-2.324 2.513a3.116 3.116 0 00-3.386-2.254c-2.585.384-4.661 5.273-4.661 5.273zM407.658 288.863l6.772-10.454 2.799 9.97 9.785-11.671-9.672 13.248s-1.4-3.278-2.98-3.278-2.076 4.247-6.704 2.185zM405.198 288.356l-2.517-10.42-4.514 6.083-1.761-7.311 1.4 9.012a2.693 2.693 0 003.169-.011c.304-.223.559-.507.747-.834 1.501-2.455 3.476 3.481 3.476 3.481z" fill="#E0DEDE"/><path d="M415.141 350.18s11.004-5.632 13.915-6.612l8.566-2.873-4.051-24.198s3.555 14.352.97 16.898c-2.584 2.546-8.046.259-11.286 7.334-3.239 7.074-8.114 9.451-8.114 9.451zM362.493 331.875c8.193-8.663-7.607-12.989-.576-15.118 7.031-2.129 4.435-14.972 4.435-14.972l-1.534 12.595s5.451 28.636-13.882 25.91a58.969 58.969 0 01-7.166-1.543c3.047.27 12.03.214 18.723-6.872z" fill="#E0DEDE"/><path d="M404.261 262.615l-.011.012.011-.012zM309.912 311.056c4.142.71 8.385 1.329 8.385 1.329 25.236 2.884 34.817 0 40.889-1.757 9.435-2.783 4.052-24.626 12.877-33.92 8.826-9.294 10.643-12.279 18.057-10.139 7.415 2.141 9.029-3.165 9.932-3.672-.203 1.419 2.573 6.432 4.808 7.142l1.647 6.038 5.643-6.027c7.189-1.408 14.965-7.412 14.965-7.412.44.912-1.128 5.937 7.054 3.886 4.593-1.126 19.016.248 25.619 16.538 13.779 33.965 4.954 72.503-5.7 81.245-6.207 5.092-70.491 13.519-70.491 13.519l-.09 2.861-6.411 1.476c.373-8.742-5.744-14.859-5.744-14.859l6.106-1.454h-16.771c1.433-33.773 4.131-51.471 4.131-51.471s5.451 28.637-13.882 25.91c-13.148-1.858-32.469-10.961-44.015-16.897 5.553-5.171 2.991-12.336 2.991-12.336zM404.261 262.615l-.011.012.011-.012z" fill="#F4EBEA"/><path d="M404.261 262.615l-.011.012.011-.012z" fill="#292289"/><path d="M464 283c-3.538-12.032-9.5-17.5-21.5-19l-6.5-1.385-5-4.615-5-.5 1.081 5.115s-6.771 26.834-19.874 44.701l-2.009 43.878-28.688 14.645.18.181a15.753 15.753 0 014.153 12.335l-.09 2.861 2.675-.585s39.579-8.427 59.679-12.978c1.67-.383 3.205-.743 4.571-1.126l18.204-4.507s9.43-40.552-1.882-79.02z" fill="#fff"/><path d="M315.916 312.025l2.382.36c25.235 2.884 32.924-.828 38.702-3.385 5.778-2.557 3.463-19.514 8-31.5 2.5-6.605 7.593-13.668 19.805-14.885h7.695l5.87-4.115 3.63-1-1.903 5.374a13.916 13.916 0 01-1.501 3.38l-.226.135c-.856.365-1.744.652-2.652.856 0 0-6.489 20.12-3.973 39.632l-8.396 56.225-6.839 2.737h-15.8c1.433-33.796 1.918-30.506 1.918-30.506s7.663 7.717-11.669 4.99c-11.004-1.554-27.831-3.965-39.298-9.575 1.738-2.85 5.316-12.077 4.255-18.723z" fill="#fff"/><path d="M409.509 313.872l.881-5.824 3.261 4.945a63.718 63.718 0 0010.304-14.386 56.438 56.438 0 01-10.259 15.772l-3.216-4.889-.971 4.382zM390.47 312.126l-1.512-5.632-3.499 3.379s-2.562-10.015-2.042-18.092a51.222 51.222 0 001.839 19.827l3.386-3.47 1.828 3.988zM415.028 347.184s6.444-3.729 8.927-3.515c2.483.215 8.306 0 8.306 0s2.991-15.568 2.991-22.26c0 0-.677 9.215-3.081 12.888-2.404 3.672-5.045 2.14-9.232 5.441-4.187 3.301-3.724 5.249-7.911 7.446zM311.639 330.759s-.519-1.352 0-4.968l1.896.935a25.432 25.432 0 01-1.896 4.033z" fill="#E1E1E1"/><path opacity=".1" d="M383.473 362.302l3.623-24.266 3.385-22.62 1.276-8.551a51.054 51.054 0 01-.452-14.25c.689-6.872.384-15.513 3.86-23.477 0 0-1.523 7.029-1.016 12.065.316 3.165 2.675 12.696 1.129 20.052-1.546 7.356-4.119 9.193-3.623 19.298.497 10.105.993 26.62-8.182 41.749z" fill="#000"/><path d="M279.158 300.489a54.29 54.29 0 00-6.771.868c-1.479.484-2.088 1.002-2.009 1.791.079.788 1.659 1.397 3.668 1.352l4.108-.09 1.004-3.921z" fill="#F4C7C3"/><path d="M174.558 493.637c0-.317-.089-.635-.139-.993.04.358.099.676.139.993z" fill="#000" opacity=".3"/><path d="M237.454 259.938l-12.265 2.096.617 9.338c.12 5.125-.289 9.238-1.553 11.185-5.296 8.175-7.407-10.927-11.787-10.51-4.381.417-6.422 5.404-3.276 13.907s-8.164 10.868-9.139 15.636c-.976 4.768-8.572 31.618 0 40.807l13.131-3.973a39.714 39.714 0 01-8.123-6.348c-4.222-6.556-.578-25.122-.578-25.122s15.71 10.261 24.889 2.175c.76-.68 1.429-1.454 1.991-2.304 5.227-7.321 5.974-25.907 6.123-29.891.15-3.983-.03-16.996-.03-16.996z" fill="#CEA999"/><path d="M171.751 333.923s-4.759 3.974-9.05 15.894c-4.291 11.921 6.869-6.864 6.869-6.864l1.314-6.646.867-2.384z" fill="#D3662F"/><path d="M220.847 234.774c1.066 6.506 2.768 16.957 4.341 27.258-.995-9.705-2.837-20.454-4.112-27.179l-.229-.079z" fill="#CEA999"/><path d="M251.533 425.773s-10.772-1.451-19.393-12.179c0 0 2.15 9.02-9.349 19.351-7.964 7.132-1.752 45.128 1.603 51.833 0 0-31.778 31.331-83.508 6.239 0 0 12.992-47.314 13.938-74.066 1.165-30.377 4.679-49.906 15.312-78.585 10.632-28.678 13.151-44.502 11.707-59.601-1.443-15.099-.716-38.742 25.885-44.453 26.602-5.712 29.748 25.589 29.748 25.589s2.349 40.022-8.114 49.191c-9.169 8.086-24.889-2.175-24.889-2.175s-3.644 18.566.577 25.122c0 0 5.824 6.665 20.21 12.397 15.023 5.96 17.433 49.668 25.397 57.675" fill="#E2BBA6"/><path d="M226.5 275.503c2.8-.798 8.5-2.994 11-3.993v-4.491l-14-17.968-48 74.365-4.5 12.976 2 4.492c6.4 3.594 16 1.498 20 0-.5-3.327-1.2-11.479 0-17.468 1.2-5.989 7.167-9.483 10-10.481h15.5l5-.998c-1.6-24.356 1.333-34.437 3-36.434z" fill="#D2AB96"/><path d="M223.237 481s7.554 24.943 6.695 59H120.5l10.5-26.277 11.579-30.096s44.332 22.589 80.658-2.627z" fill="#fff"/><path d="M299.5 430.236c-13.599-2.464-28.806-3.29-41-19.236-6.5-8.5-18.176-60.527-33.239-66.527a70.08 70.08 0 01-15.481-8.334c-23.595 7.778-34.218 5.037-38.907.149-.249.686-7.377 8.603-11.529 19.44-10.951 28.559-6.969 42.248-8.064 72.615-.996 26.751-8.522 55.509-8.522 55.509 7.277 33.188 81.637.924 81.637.924-2.927-7.788-9.538-44.701-1.603-51.834 11.498-10.331 9.348-19.35 9.348-19.35C238.5 427 247 435.5 247 435.5c20.379 11.692 41.32 12.954 52.5 12v-17.264z" fill="#FF8139"/><path d="M313 430.5h-13.5v17c9.6-1.2 18-3.833 21-5 1 .167 4.1.4 8.5 0 5.5-.5 9-5.5 11-6.5s5.5-1.5 7.5 0 3 1 3 0c0-.8-.667-2-1-2.5.667.167 2.3.6 3.5 1 1.5.5 5-.5.5-2.5s-9.5-3.5-11.5-4-2.5-1.5-5-1.5-2-1.5-5-1.5-2-.5-5-1-9 6.5-14 6.5z" fill="#E2BBA6"/><path d="M299.5 447.5V441s-8.5 2.5-22 0c-18-5.558-23.015-14.789-33-21-11.227-6.983-16.621-19.75-16.621-19.75-.797 18.229-12.773 21.1-20.061 35.96-5.406 11.027-1.513 40.152.856 54.456 9.269-3.099 15.72-5.89 15.72-5.89-2.927-7.788-9.537-44.702-1.602-51.834 11.498-10.331 9.348-19.351 9.348-19.351C238 428 247.5 436 247.5 436c20.379 11.722 40.82 12.454 52 11.5z" fill="#D3662F"/><path d="M223.702 272.619c4.337-.866 12.29-3.969 15.724-5.413.543-9.02-1.626-27.495-16.809-33.557-15.182-6.062-30.365-1.984-35.787 2.165-28.738-3.247-29.1 57.011-25.485 83.893 20.605 18.944 53.5 5.593 61.814 1.624-4.771-30.743-2.891-53.403.543-62.784 2.602 6.494 1.084 12.087 0 14.072z" fill="#594423"/><path fill-rule="evenodd" clip-rule="evenodd" d="M229.282 237.295c-8.563-3.738-22.613-6.598-35.782.776-11.508 6.445-7.574 15.563-3.324 25.412 3.32 7.696 6.833 15.838 3.324 23.499-8 17.469-7.5 22.959-2 42.423l.05.181c-10.249.344-21.059-1.919-29.704-9.868-3.615-26.882-3.254-87.141 25.484-83.893 5.423-4.15 20.605-8.227 35.788-2.165a23.093 23.093 0 016.164 3.635z" fill="#74582D"/><path d="M438.884 521.153c-2.4 4-8.333 14-11 18.5h-2c2.833-5 8.9-15.7 10.5-18.5 2-3.5-10.5-11-4-21.5s21-60 24-82 8-34 10-7-.5 103-13 105c-10 1.6-13.833 4.333-14.5 5.5z" fill="#00B67A"/><path d="M439 517.112c5.5-13.5 17.8-53.7 23-106.5" stroke="#fff"/><path d="M380.5 511.112c-.4 18.4 4.167 26.333 6.5 28h29.5c6.4 0 8.667-9 9-13.5-2.5-85.5 25-162.539 12.5-165.5-19-4.5-57 128-57.5 151z" fill="#00B67A" stroke="#00B67A"/><path d="M401.54 540.112c-3.494-27.098-3.294-96.436 25.46-157M416.5 520.612c-3.667 1.167-11.9 5.3-15.5 12.5-3.167-1.333-10.6-5.7-15-12.5m30.5-20.5c-4 .333-12.9 2.3-16.5 7.5-2-1.167-6.8-5.1-10-11.5m26.5-19.5c-2.667 0-9.4.7-15 3.5-2-1.5-6.2-5.8-7-11m23-18.5c-2.167-.167-7.6.2-12 3-1.333-1-4-4.1-4-8.5m19.5-18c-2.5-.667-8.3-.7-11.5 4.5-.667-1.834-2-6.5-2-10.5m18-15c-2.167 0-7 .6-9 3-.5-1.5-1.5-5.1-1.5-7.5M455.5 498.612c-1.833 2.166-6.9 6.7-12.5 7.5-1.333-1.334-3.8-5.4-3-11M458 483.112c-1.667 1.5-6 4.6-10 5-1-1-3-4-3-8m14.5-11.5c-1.167 1.5-4.3 4.5-7.5 4.5-1-.834-3-3.3-3-6.5m12.5-14c-.833 1.333-3.2 4-6 4-1.167-.667-3.5-2.8-3.5-6m11-13.5c-.833 1.166-3 3.5-5 3.5-.833-.5-2.5-2.1-2.5-4.5m7.5-13c-.5 1.166-1.7 3.5-2.5 3.5-1 0-2.5-2-2.5-3.5" stroke="#fff"/><path d="M367 526.612c0 7.2-4 11.333-6 12.5h-7c-6.8 0-9.833-8.333-10.5-12.5-7-18.5 4.5-67 10.5-81s11.008-23.732 7 7c-4.5 34.5 6 65 6 74z" fill="#00B67A" stroke="#00B67A"/><path d="M357.5 539.612a194.566 194.566 0 01-1.088-6.5m-.912-74c-1.144 6.16-1.825 12.772-2.161 19.5m8.661 46.5c-1.559 1.5-4.858 5.2-5.588 8m0 0c-1.804-.667-6.112-3-8.912-7m8.912 7a293.627 293.627 0 01-1.756-14m5.844-7c-1.396 1.166-4.519 4.2-5.844 7m0 0c-1.885-.667-6.156-2.9-8.156-6.5m8.156 6.5a318.013 318.013 0 01-1.087-13.5m4.931-5c-1.121 1-3.676 3.4-4.931 5m0 0c-1.357-.5-4.669-2.2-7.069-5m7.069 5c-.258-4.38-.43-8.915-.478-13.5m4.409-3c-1.106.5-3.536 1.8-4.409 3m0 0c-1.197-.667-3.891-2.5-5.091-4.5m5.091 4.5c-.047-4.486.024-9.019.248-13.5m3.661-2.5c-.774.333-2.59 1.3-3.661 2.5m0 0c-.78-.167-2.639-1.2-3.839-4" stroke="#fff"/><path d="M338.5 520.612c2.8 7.6 3.833 15.5 4 18.5h-3c-.5-3.5-1-13-5.5-18.5s-19.5 1-22.5-7.5-35.5-80.5-41-89.5-36-47 10-9 64.5 75 64 85.5-9.5 11-6 20.5z" fill="#00B67A" stroke="#00B67A"/><path d="M334.5 515.112c-2.333-14.5-15.7-52.7-50.5-89.5M337 490.612c-.5 3.166-2.2 10.2-5 13-3.667-.167-13.3-2.1-22.5-8.5m20-18c0 2.833-.8 9-4 11-2.833-.5-10-2.9-16-8.5m11-16.5c.5 2 .8 6.8-2 10-2.833-.5-9.7-2.6-14.5-7m7-14.5c.167 1.833.3 5.9-.5 7.5-2.5-.167-8.3-1-11.5-3m1.5-17c.5 1 1.2 3.5 0 5.5-1.5 2.5-10-2-12.5-3" stroke="#fff"/><ellipse cx="379" cy="292.5" rx="7" ry="8.5" fill="#00181B"/><ellipse cx="377" cy="292.5" rx="7" ry="8.5" fill="#C4C4C4"/><ellipse cx="377" cy="292.5" rx="5" ry="6.5" fill="#666A6A"/><ellipse cx="375" cy="292.5" rx="5" ry="6.5" fill="#C4C4C4"/><path d="M378.5 284c1.167-4.833 5.5-15.8 13.5-21M435 261.5c2-1.5 8.5 4.5 9 13 .151 2.564-.248 4.788-1.759 7m-18.741 32c-3.162-16.204 13.044-23.661 18.741-32m0 0c2.92 6.166 7.759 23-3.241 34" stroke="#000" stroke-width="2"/><ellipse cx="423.655" cy="316.907" rx="3" ry="4.5" transform="rotate(-8.828 423.655 316.907)" fill="#C4C4C4"/><ellipse cx="436.355" cy="317.235" rx="3" ry="4.5" transform="rotate(48.238 436.355 317.235)" fill="#C4C4C4"/></svg>