<svg width="470" height="541" viewBox="0 0 470 541" fill="none" xmlns="http://www.w3.org/2000/svg">
<path d="M173.001 362H469.001C460.001 426.5 385.001 492.5 268.001 494C151.001 495.5 109.501 449.5 110.001 409.5C110.401 377.5 152.167 364.5 173.001 362Z" fill="white"/>
<rect x="300" y="416" width="93" height="7" fill="white"/>
<rect x="90" y="156" width="93" height="7" fill="white"/>
<rect x="90" y="276" width="93" height="7" fill="white"/>
<rect x="183" y="102" width="7" height="314" fill="white"/>
<rect x="189" y="156" width="204" height="7" fill="white"/>
<path d="M190 90V154C190 155.105 190.895 156 192 156H204C205.105 156 206 155.105 206 154V90C206 88.8954 205.105 88 204 88H192C190.895 88 190 88.8954 190 90Z" fill="#C4C4C4"/>
<circle cx="197.5" cy="148.5" r="3.5" fill="white"/>
<path d="M206 90V154C206 155.105 206.895 156 208 156H220C221.105 156 222 155.105 222 154V90C222 88.8954 221.105 88 220 88H208C206.895 88 206 88.8954 206 90Z" fill="#FF8139"/>
<circle cx="213.5" cy="148.5" r="3.5" fill="white"/>
<path d="M256 90V154C256 155.105 256.895 156 258 156H270C271.105 156 272 155.105 272 154V90C272 88.8954 271.105 88 270 88H258C256.895 88 256 88.8954 256 90Z" fill="#FF8139"/>
<circle cx="263.5" cy="148.5" r="3.5" fill="white"/>
<path d="M272 90V154C272 155.105 272.895 156 274 156H286C287.105 156 288 155.105 288 154V90C288 88.8954 287.105 88 286 88H274C272.895 88 272 88.8954 272 90Z" fill="#C4C4C4"/>
<circle cx="279.5" cy="148.5" r="3.5" fill="white"/>
<rect width="7" height="56" transform="matrix(-0.978505 0.206221 0.206221 0.978505 244.814 100.092)" fill="#666A6A"/>
<rect width="7" height="56" transform="matrix(-0.989573 0.144035 0.144035 0.989573 237.594 100)" fill="#C4C4C4"/>
<rect width="7" height="56" transform="matrix(-0.995348 0.0963407 0.0963407 0.995348 229.967 100)" fill="#666A6A"/>
<circle cx="246.5" cy="276.5" r="3.5" fill="white"/>
<path d="M90 210V274C90 275.105 90.8954 276 92 276H104C105.105 276 106 275.105 106 274V210C106 208.895 105.105 208 104 208H92C90.8954 208 90 208.895 90 210Z" fill="#C4C4C4"/>
<circle cx="97.5" cy="266.5" r="3.5" fill="white"/>
<path d="M106 210V274C106 275.105 106.895 276 108 276H120C121.105 276 122 275.105 122 274V210C122 208.895 121.105 208 120 208H108C106.895 208 106 208.895 106 210Z" fill="#FF8139"/>
<circle cx="113.5" cy="266.5" r="3.5" fill="white"/>
<circle cx="246.5" cy="276.5" r="3.5" fill="white"/>
<rect width="7" height="56" transform="matrix(-0.978505 0.206221 0.206221 0.978505 143.814 220.092)" fill="#666A6A"/>
<rect width="7" height="56" transform="matrix(-0.989573 0.144035 0.144035 0.989573 136.594 220)" fill="#C4C4C4"/>
<rect width="7" height="56" transform="matrix(-0.995348 0.0963407 0.0963407 0.995348 128.967 220)" fill="#666A6A"/>
<path d="M392.363 210V274C392.363 275.105 391.468 276 390.363 276H378.363C377.259 276 376.363 275.105 376.363 274V210C376.363 208.895 377.259 208 378.363 208H390.363C391.468 208 392.363 208.895 392.363 210Z" fill="#C4C4C4"/>
<circle r="3.5" transform="matrix(-1 0 0 1 384.863 266.5)" fill="white"/>
<path d="M376.363 210V274C376.363 275.105 375.468 276 374.363 276H362.363C361.259 276 360.363 275.105 360.363 274V210C360.363 208.895 361.259 208 362.363 208H374.363C375.468 208 376.363 208.895 376.363 210Z" fill="#FF8139"/>
<circle r="3.5" transform="matrix(-1 0 0 1 368.863 266.5)" fill="white"/>
<rect x="338.549" y="220.092" width="7" height="56" transform="rotate(11.901 338.549 220.092)" fill="#666A6A"/>
<rect x="345.768" y="220" width="7" height="56" transform="rotate(8.2814 345.768 220)" fill="#C4C4C4"/>
<rect x="353.395" y="220" width="7" height="56" transform="rotate(5.52849 353.395 220)" fill="#666A6A"/>
<rect x="393" y="102" width="7" height="271" fill="white"/>
<rect x="189" y="276" width="204" height="7" fill="white"/>
<path d="M394.265 423.733C403.865 417.744 390.265 415.581 382.265 415.249L259.765 423.733L218.765 434.214L237.765 484.622C247.098 477.635 264.165 464.459 271.765 459.668C281.265 453.679 302.765 456.673 329.265 451.682C355.765 446.691 382.265 431.219 394.265 423.733Z" fill="#E1E1E1"/>
<path d="M448.5 372.474C461.3 369.679 467.333 363.828 468.5 361L461.5 358L332 390.441V399.924C337.667 401.255 350.8 402.12 358 394.933C367 385.949 432.5 375.967 448.5 372.474Z" fill="#000C0E"/>
<path d="M360.449 371.022C359.598 370.173 358.585 369.502 357.47 369.05C354.329 368.523 351.159 368.177 347.978 368.014C346.286 368.014 339.57 370.943 339.074 371.269C338.577 371.596 338.284 373.241 340.868 373.162C343.453 373.083 360.449 371.022 360.449 371.022Z" fill="#E5B9B7"/>
<path d="M268.878 300.252C271.94 302.514 274.836 304.992 277.545 307.665C281.01 311.202 287.928 314.83 292.578 313.895L282.522 292.423C282.522 292.423 276.541 288.773 273.753 288.311C270.966 287.849 259.499 289.652 255.38 291.398C255.228 291.45 255.09 291.534 254.973 291.644C254.856 291.754 254.764 291.887 254.704 292.035C254.643 292.184 254.614 292.343 254.62 292.503C254.626 292.663 254.666 292.82 254.737 292.964C254.737 292.964 253.304 293.471 253.202 294.237C252.999 295.712 255.222 295.679 257.265 295.577C257.265 295.577 256.892 297.076 259.217 297.245C262.693 297.072 266.117 298.138 268.878 300.252Z" fill="#F4C7C3"/>
<path d="M287.375 313.467C286.383 313.158 285.414 312.782 284.475 312.34C285.41 312.792 286.38 313.168 287.375 313.467Z" fill="#E5B9B7"/>
<path d="M288.221 313.693C287.95 313.625 287.667 313.557 287.385 313.467C287.905 313.625 288.221 313.693 288.221 313.693Z" fill="#E5B9B7"/>
<path d="M284.475 312.386L283.797 312.07L284.475 312.386Z" fill="#E5B9B7"/>
<path d="M280.638 293.324C280.638 293.324 279.667 292.772 278.38 292.096C276.536 291.074 274.568 290.294 272.523 289.776C269.803 289.348 263.145 291.071 260.955 291.522C258.766 291.972 254.77 292.964 254.77 292.964C255.007 294.428 253.224 294.518 253.224 294.518C253.371 295.566 254.782 295.555 255.933 295.645C256.855 295.653 257.775 295.554 258.675 295.352C258.656 295.954 258.429 296.531 258.032 296.986C258.402 297.196 258.825 297.298 259.251 297.278C261.995 297.275 264.701 297.915 267.151 299.148C270.424 301.075 273.663 304.139 278.256 308.352C279.896 309.845 281.744 311.093 283.741 312.059H283.831L284.509 312.374C285.448 312.816 286.417 313.192 287.409 313.5C287.691 313.591 287.973 313.658 288.244 313.726L280.638 293.324Z" fill="#E5B9B7"/>
<path d="M270.096 288.199C265.581 288.12 270.683 285.101 273.38 284.526C276.077 283.952 282.092 283.107 283.988 285.653C285.884 288.199 300.206 308.499 302.441 309.434C304.675 310.369 318.297 312.352 318.297 312.352C343.532 315.236 353.407 313.151 359.186 310.594C364.964 308.037 365.641 292.57 374.467 283.298C383.292 274.027 382.705 264.395 390.165 266.513C398.765 268.946 398.641 266.107 398.641 266.107L399.363 264.812C401.195 260.203 402.395 255.367 402.93 250.437C399.183 251.237 399.476 251.496 396.023 250.561C375.708 245.008 394.522 190.652 394.522 190.652C400.108 175.827 437.34 187.656 442.024 195.947C446.538 203.923 439.992 216.078 439.992 216.078C444.642 215.909 445.172 219.661 445.172 219.661C446.12 227.727 434.507 232.954 434.507 232.954L433.379 234.373C423.063 248.872 425.648 259.157 427.566 263.539C427.995 264.451 431.629 266.581 435.354 266.513C440.094 266.445 453.196 266.772 459.799 283.062C472.337 313.963 460.769 359.824 454.099 364.307C447.429 368.791 383.608 377.826 383.608 377.826L377.108 382.163L369.388 384.416C366.917 385.238 362.03 387.435 355.845 389.08C348.092 391.107 346.963 391.569 344.864 391.828C342.505 392.11 342.889 392.335 339.921 392.606C337.664 392.808 337.664 390.995 337.664 390.995L333.759 391.997C330.576 391.783 331.885 388.156 331.885 388.156C331.507 388.018 331.17 387.787 330.904 387.486C330.637 387.184 330.451 386.821 330.361 386.429C330.271 386.037 330.281 385.629 330.39 385.242C330.498 384.855 330.702 384.501 330.983 384.213C331.66 383.661 337.754 380.169 339.041 379.346C340.327 378.524 345.417 375.685 345.417 375.685C345.417 375.685 338.025 377.679 337.607 378.242C335.475 380.022 333.244 381.68 330.926 383.21C329.583 383.886 328.263 381.712 329.12 380.574C329.978 379.437 334.944 374.626 337.212 373.635C339.481 372.644 343.408 369.681 345.248 368.836C347.087 367.991 347.505 369.647 352.798 369.501C358.091 369.354 356.184 369.433 357.008 369.264C357.831 369.095 358.971 368.419 360.393 368.137C361.797 368.096 363.194 368.337 364.501 368.847L377.457 365.851H360.687C362.12 332.077 364.817 314.379 364.817 314.379C364.817 314.379 370.268 343.016 350.936 340.29C331.603 337.563 298.897 319.133 297.306 318.153C296.595 317.714 294.687 316.587 292.487 314.943C282.013 313.557 285.004 304.364 278.571 304.364C271.134 304.364 269.656 303.936 269.656 302.562C269.656 301.188 277.082 300.478 281.923 300.309C281.122 296.839 281.009 293.55 279.779 290.497C278.357 286.926 273.448 288.255 270.096 288.199Z" fill="#F4C7C3"/>
<path d="M256.521 293.039L271.595 287.314C273.247 286.686 275.081 287.616 275.552 289.32L277.54 296.517C278.022 298.26 276.871 300.078 275.136 300.585C269.924 302.109 262.501 305.148 261.3 305.371C259.804 305.648 258.893 304.45 258.624 303.816C257.971 301.924 256.511 297.667 255.889 295.777C255.267 293.887 256.051 293.164 256.521 293.039Z" fill="#E3C14C"/>
<path opacity="0.1" d="M393.065 249.255C388.427 244.658 391.146 231.726 390.255 227.073C389.363 222.421 397.094 218.252 396.913 206.39C396.778 197.535 402.353 188.095 405.197 183.859C400.107 184.501 396.078 186.563 394.521 190.697C394.521 190.697 377.683 239.273 393.065 249.255Z" fill="black"/>
<path opacity="0.1" d="M402.964 267.493C404.601 265.984 407.275 249.469 407.275 249.469L402.964 250.595C402.431 255.525 401.231 260.361 399.398 264.97L398.676 266.265C398.676 266.265 395.843 268.158 390.144 267.302L391.408 267.73C395.29 268.575 401.328 269.003 402.964 267.493Z" fill="black"/>
<path d="M328.816 313.365C346.456 314.616 354.288 312.802 359.186 310.628C364.964 308.059 363.238 291.747 371.262 279.085C378.112 268.259 382.706 264.44 390.165 266.581C391.61 266.986 389.105 266.581 390.29 266.75V265.398C394.025 263.438 400.097 262.874 400.097 262.874C399.973 263.223 399.093 265.893 398.641 266.141C398.19 266.389 401.417 266.896 401.417 266.896C402.046 268.343 402.995 269.63 404.194 270.659L406.88 287.343L413.245 272.247C421.382 270.512 427.115 262.638 427.115 262.638C428.744 262.779 430.305 263.359 431.63 264.316C432.239 264.226 433.503 266.704 434.225 266.569C438.819 265.443 454.54 267.696 462.349 283.377C465.34 289.472 469.301 305.367 469.606 315.371C469.606 315.371 470.938 341.484 468.703 361.085C468.703 361.085 452.463 365.591 444.845 367.259C432.973 370.075 412.805 373.364 398.856 375.505L397.535 359.835L377.458 365.851H360.687C362.12 332.077 364.818 314.379 364.818 314.379C364.818 314.379 370.269 343.016 350.936 340.29C343.995 339.309 335.339 336.302 327.01 332.809L328.816 313.365Z" fill="#00181B"/>
<path d="M397.287 356.985L398.9 375.505L416.619 372.666L415.141 350.135C414.829 349.785 414.434 349.519 413.993 349.359C413.551 349.2 413.077 349.153 412.613 349.223C411.089 349.527 409.577 352.355 409.577 352.355C409.37 352.044 409.082 351.795 408.744 351.636C408.406 351.477 408.03 351.414 407.658 351.453C406.439 351.645 405.333 353.966 405.333 353.966C405.133 353.247 404.681 352.624 404.06 352.211C403.438 351.797 402.689 351.62 401.948 351.712C399.363 352.096 397.287 356.985 397.287 356.985Z" fill="#E0DEDE"/>
<path d="M407.659 288.863L414.43 278.409L417.229 288.379L427.014 276.708L417.342 289.956C417.342 289.956 415.942 286.678 414.362 286.678C412.782 286.678 412.286 290.925 407.659 288.863Z" fill="#E0DEDE"/>
<path d="M405.197 288.356L402.681 277.936L398.166 284.019L396.406 276.708L397.805 285.72C398.112 285.941 398.461 286.094 398.831 286.171C399.2 286.248 399.582 286.247 399.951 286.167C400.321 286.088 400.669 285.931 400.974 285.709C401.279 285.486 401.533 285.202 401.721 284.875C403.222 282.42 405.197 288.356 405.197 288.356Z" fill="#E0DEDE"/>
<path d="M415.142 350.18C415.142 350.18 426.145 344.548 429.057 343.568L437.623 340.695L433.571 316.497C433.571 316.497 437.126 330.849 434.542 333.395C431.958 335.941 426.495 333.654 423.256 340.729C420.017 347.803 415.142 350.18 415.142 350.18Z" fill="#E0DEDE"/>
<path d="M362.492 331.874C370.686 323.211 354.886 318.885 361.917 316.756C368.948 314.627 366.352 301.785 366.352 301.785L364.817 314.379C364.817 314.379 370.268 343.016 350.936 340.29C348.517 339.924 346.123 339.409 343.769 338.746C346.816 339.017 355.8 338.96 362.492 331.874Z" fill="#E0DEDE"/>
<path d="M404.262 262.615L404.25 262.627L404.262 262.615Z" fill="#F4EBEA"/>
<path d="M309.913 311.056C314.055 311.766 318.298 312.385 318.298 312.385C343.533 315.269 352.929 313.257 359.001 311.5C368.436 308.717 363.238 286.002 372.064 276.708C380.889 267.414 382.706 264.429 390.121 266.569C397.536 268.71 399.15 263.404 400.053 262.897C399.849 264.316 402.626 269.329 404.86 270.039L406.508 276.077L412.151 270.05C419.34 268.642 427.116 262.638 427.116 262.638C427.556 263.55 425.987 268.575 434.17 266.524C438.763 265.398 453.186 266.772 459.788 283.062C473.568 317.027 464.655 354.258 454.001 363C447.794 368.092 383.598 377.826 383.598 377.826L383.508 380.687L377.097 382.163C377.47 373.421 371.353 367.304 371.353 367.304L377.458 365.85H360.688C362.121 332.077 364.818 314.379 364.818 314.379C364.818 314.379 370.269 343.016 350.937 340.289C337.789 338.431 318.468 329.328 306.922 323.392C312.475 318.221 309.913 311.056 309.913 311.056Z" fill="white"/>
<path d="M404.262 262.615L404.25 262.627L404.262 262.615Z" fill="#F4EBEA"/>
<path d="M404.262 262.615L404.25 262.627L404.262 262.615Z" fill="#292289"/>
<path d="M462.687 282.532C458.353 269.848 445.172 265.443 438.829 264.868L427.08 262.615C427.08 262.615 420.309 289.449 407.206 307.316L405.197 351.194L376.509 365.839L376.689 366.02C378.221 367.662 379.384 369.613 380.1 371.74C380.816 373.867 381.069 376.122 380.843 378.355L380.752 381.216L383.427 380.631C383.427 380.631 423.006 372.204 443.106 367.653C444.777 367.27 446.311 366.91 447.677 366.527L465.881 362.02C465.881 362.02 474.977 318.514 462.687 282.532Z" fill="#00181B"/>
<path d="M315.917 312.025L318.298 312.385C343.533 315.269 353.408 313.185 359.187 310.628C364.965 308.071 361.816 292.108 366.353 280.122C369.389 272.112 372.594 263.832 384.805 262.615L400.098 262.874C399.75 264.062 399.245 265.199 398.597 266.254L398.371 266.389C397.515 266.754 396.627 267.041 395.719 267.245C395.719 267.245 389.229 287.365 391.746 306.877L383.35 363.102L376.51 365.839H360.71C362.144 332.043 362.629 335.333 362.629 335.333C362.629 335.333 370.292 343.05 350.959 340.323C339.956 338.769 323.129 336.358 311.662 330.748C313.4 327.898 316.978 318.671 315.917 312.025Z" fill="#00181B"/>
<path d="M409.509 313.872L410.39 308.048L413.651 312.994C417.739 308.7 421.207 303.858 423.955 298.608C421.443 304.4 417.975 309.731 413.696 314.379L410.48 309.49L409.509 313.872Z" fill="#1C2223"/>
<path d="M390.471 312.126L388.958 306.494L385.46 309.873C385.46 309.873 382.898 299.858 383.417 291.781C382.728 298.447 383.353 305.182 385.257 311.608L388.642 308.138L390.471 312.126Z" fill="#1C2223"/>
<path d="M415.028 347.184C415.028 347.184 421.472 343.455 423.955 343.669C426.438 343.883 432.261 343.669 432.261 343.669C432.261 343.669 435.252 328.1 435.252 321.409C435.252 321.409 434.575 330.624 432.171 334.296C429.767 337.969 427.126 336.437 422.939 339.737C418.752 343.038 419.215 344.987 415.028 347.184Z" fill="#000C0E"/>
<path d="M311.639 330.759C311.639 330.759 311.12 329.407 311.639 325.791L313.535 326.726C313.022 328.123 312.388 329.473 311.639 330.759Z" fill="#F5F5F5"/>
<path opacity="0.1" d="M383.473 362.302L387.096 338.036L390.482 315.416L391.757 306.865C390.941 302.159 390.789 297.363 391.305 292.615C391.994 285.743 391.689 277.102 395.165 269.138C395.165 269.138 393.642 276.167 394.149 281.203C394.466 284.368 396.824 293.899 395.278 301.255C393.732 308.611 391.159 310.448 391.655 320.553C392.152 330.658 392.648 347.173 383.473 362.302Z" fill="black"/>
<path d="M384.309 231.737C384.844 229.264 385.697 226.871 386.848 224.617C386.848 224.617 386.973 228.076 390.234 227.073C395.053 225.597 401.96 225.327 409.42 232.435C416.88 239.544 427.477 229.135 429.091 223.66C430.705 218.185 435.535 205.342 431.969 201.918C428.403 198.493 419.216 203.427 409.307 200.003C399.398 196.578 395.222 188.523 394.116 192.489C393.531 194.65 392.831 196.778 392.017 198.865C392.017 198.865 389.591 184.558 393.259 178.948C396.927 173.338 403.833 174.16 409.86 176.357C415.887 178.553 422.466 177.483 425.66 177.483C428.509 177.623 431.287 178.421 433.774 179.815C436.261 181.209 438.39 183.16 439.993 185.515C444.383 191.937 449.451 190.844 449.992 196.781C450.534 202.717 442.171 214.095 439.993 216.18C438.526 217.565 434.723 224.493 431.382 231.748C431.676 232.785 432.511 233.427 434.463 233.01C432.956 236.785 431.009 240.369 428.662 243.689C425.683 247.745 416.428 253.828 403.021 253.963C399.77 254.123 396.527 253.505 393.563 252.161C383.982 247.553 383.011 236.795 384.309 231.737Z" fill="#594423"/>
<path d="M417.646 244.118C422.928 243.16 427.476 240.738 429.281 232.751C431.087 224.764 441.865 207.742 444.506 200.679C447.147 193.615 438.987 193.739 438.4 188.591C438.028 185.38 435.308 181.832 433.322 179.579C436.007 180.99 438.302 183.041 440.003 185.549C444.393 191.97 449.46 190.878 450.002 196.815C450.544 202.751 442.181 214.129 440.003 216.213C438.536 217.599 434.732 224.527 431.392 231.782C431.685 232.819 432.52 233.461 434.473 233.044C432.966 236.819 431.019 240.403 428.672 243.723C425.693 247.779 416.438 253.862 403.031 253.997C401.136 254.067 399.24 253.897 397.388 253.49C406.292 254.673 412.375 245.075 417.646 244.118Z" fill="#3E2F1C"/>
<path d="M429.711 178.069C429.711 178.069 424.531 182.575 415.039 181.775C411.676 181.516 402.174 175.602 398.325 178.069C394.477 180.536 392.569 184.67 394.116 192.466C393.53 194.627 392.83 196.756 392.016 198.842C392.016 198.842 389.59 184.558 393.258 178.948C396.926 173.338 403.833 174.16 409.859 176.357C415.886 178.553 422.465 177.483 425.659 177.483C427.03 177.499 428.392 177.696 429.711 178.069Z" fill="#674F2D"/>
<path d="M384.309 231.737C384.844 229.264 385.697 226.871 386.848 224.617C386.848 224.617 386.972 228.076 390.234 227.073C392.419 226.367 394.723 226.103 397.012 226.297C399.3 226.49 401.527 227.137 403.562 228.2C403.213 228.121 391.442 225.349 388.236 230.633C385.031 235.916 385.55 243.746 389.602 249.502C383.756 244.253 383.214 235.984 384.309 231.737Z" fill="#674F2D"/>
<path d="M279.158 300.489C276.885 300.636 274.623 300.926 272.387 301.357C270.908 301.841 270.299 302.359 270.378 303.148C270.457 303.936 272.037 304.545 274.046 304.5L278.154 304.41L279.158 300.489Z" fill="#F4C7C3"/>
<path d="M353.266 330.5L353.766 332.5L372.766 335C372.766 333.4 372.099 331.667 371.766 331L369.766 334L367.766 331L365.766 333.5L364.266 331L362.766 333.5L360.766 330.5L359.266 333L357.266 330.5L355.766 332.5L353.266 330.5Z" fill="white"/>
<path d="M350.766 407.263H257.766C255.004 407.263 252.766 409.502 252.766 412.263V428.216C252.766 430.977 255.004 433.216 257.766 433.216H350.766V407.263Z" fill="#F5F5F5"/>
<path d="M304.766 356.855L383.766 363.343L366.266 363.842L357.266 405.267L351.266 407.263L269.766 409.759V399.777L283.766 363.842L304.766 356.855Z" fill="#F5F5F5"/>
<path d="M383.266 363V416.403L356.766 405.423L366.266 363.499L383.266 363Z" fill="#E1E1E1"/>
<path d="M309.77 396.893L315.746 397.63L314.048 402.558L308.073 401.821L309.77 396.893Z" fill="#152D5D"/>
<path d="M301.298 396.057L307.273 396.794L305.576 401.722L299.6 400.985L301.298 396.057Z" fill="#152D5D"/>
<path d="M292.345 394.702L298.32 395.439L296.622 400.367L290.647 399.63L292.345 394.702Z" fill="#152D5D"/>
<path d="M283.391 393.348L289.367 394.085L287.669 399.012L281.694 398.275L283.391 393.348Z" fill="#152D5D"/>
<path d="M307.223 404.552L313.199 405.289L311.501 410.216L305.526 409.479L307.223 404.552Z" fill="#152D5D"/>
<path d="M298.751 403.716L304.726 404.452L303.029 409.38L297.053 408.643L298.751 403.716Z" fill="#152D5D"/>
<path d="M289.798 402.361L295.773 403.098L294.076 408.025L288.1 407.289L289.798 402.361Z" fill="#152D5D"/>
<path d="M280.845 401.007L286.82 401.743L285.122 406.671L279.147 405.934L280.845 401.007Z" fill="#152D5D"/>
<path d="M304.223 411.539L310.199 412.276L308.501 417.204L302.526 416.467L304.223 411.539Z" fill="#152D5D"/>
<path d="M295.751 410.703L301.726 411.44L300.029 416.367L294.053 415.63L295.751 410.703Z" fill="#152D5D"/>
<path d="M286.798 409.348L292.773 410.085L291.076 415.013L285.1 414.276L286.798 409.348Z" fill="#152D5D"/>
<path d="M277.845 407.994L283.82 408.731L282.122 413.658L276.147 412.921L277.845 407.994Z" fill="white"/>
<path d="M277.845 407.994L283.82 408.731L282.122 413.658L276.147 412.921L277.845 407.994Z" fill="white"/>
<path d="M383.266 395.784L350.766 407.263V430.721L383.266 417.245V395.784Z" fill="#E1E1E1"/>
<path d="M361.638 358.352C356.038 362.744 356.305 371.828 357.138 375.82L337.766 373.824C336.599 369.166 336.738 360.349 345.138 354.359C353.538 348.37 354.432 336.559 353.766 332.399L372.638 334.396C373.638 344.877 368.638 352.862 361.638 358.352Z" fill="white"/>
<path d="M291.766 369.332L323.766 372.327L317.266 395.285L283.766 391.292L291.766 369.332Z" fill="#00181B"/>
<line y1="-0.5" x2="15.0333" y2="-0.5" transform="matrix(-0.997793 -0.0663977 -0.0666405 0.997777 370.766 337.39)" stroke="black"/>
<line y1="-0.5" x2="10.0499" y2="-0.5" transform="matrix(-0.995055 -0.0993233 -0.0996844 0.995019 365.766 340.998)" stroke="black"/>
<line x1="367.69" y1="345.494" x2="354.69" y2="343.494" stroke="black"/>
<line x1="362.657" y1="349.488" x2="353.657" y2="347.488" stroke="black"/>
<line y1="-0.5" x2="6.82191" y2="-0.5" transform="matrix(-0.992305 -0.123816 -0.124254 0.99225 316.766 392.06)" stroke="white"/>
<line y1="-0.5" x2="6.82191" y2="-0.5" transform="matrix(-0.992305 -0.123816 -0.124254 0.99225 309.15 391.215)" stroke="white"/>
<line y1="-0.5" x2="6.82191" y2="-0.5" transform="matrix(-0.992306 -0.123811 -0.124259 0.99225 301.535 390.371)" stroke="white"/>
<line y1="-0.5" x2="6.82191" y2="-0.5" transform="matrix(-0.992305 -0.123816 -0.124254 0.99225 293.766 389.142)" stroke="white"/>
<g style="mix-blend-mode:multiply" opacity="0.3">
<path d="M188.323 493.637C188.323 493.319 188.233 493.001 188.184 492.644C188.223 493.001 188.283 493.319 188.323 493.637Z" fill="black"/>
</g>
<path d="M251.219 259.937L238.953 262.033L239.571 271.371C239.69 276.496 239.282 280.609 238.018 282.556C232.721 290.731 230.61 271.629 226.23 272.046C221.849 272.463 219.809 277.45 222.955 285.953C226.101 294.456 214.791 296.821 213.815 301.589C212.84 306.357 205.243 333.208 213.815 342.396L226.947 338.423C223.974 336.668 221.243 334.535 218.823 332.075C214.602 325.519 218.246 306.953 218.246 306.953C218.246 306.953 233.956 317.214 243.135 309.128C243.894 308.448 244.564 307.674 245.126 306.824C250.353 299.503 251.099 280.917 251.249 276.933C251.398 272.95 251.219 259.937 251.219 259.937Z" fill="#CEA999"/>
<path d="M185.516 333.923C185.516 333.923 180.757 337.896 176.466 349.817C172.175 361.737 183.336 342.953 183.336 342.953L184.65 336.307L185.516 333.923Z" fill="#292289"/>
<path d="M234.611 234.773C235.677 241.28 237.379 251.73 238.952 262.031C237.956 252.326 236.115 241.578 234.84 234.853L234.611 234.773Z" fill="#CEA999"/>
<path d="M265.298 425.772C265.298 425.772 254.526 424.321 245.904 413.593C245.904 413.593 248.055 422.613 236.556 432.944C228.591 440.076 234.804 478.072 238.159 484.778C238.159 484.778 206.38 516.108 154.65 491.016C154.65 491.016 167.643 443.702 168.588 416.951C169.753 386.574 173.268 367.044 183.9 338.366C194.533 309.687 197.052 293.863 195.608 278.764C194.165 263.665 194.891 240.023 221.493 234.311C248.095 228.599 251.241 259.9 251.241 259.9C251.241 259.9 253.59 299.923 243.127 309.091C233.957 317.177 218.237 306.916 218.237 306.916C218.237 306.916 214.594 325.482 218.815 332.038C218.815 332.038 224.639 338.703 239.025 344.435C254.048 350.395 256.457 394.103 264.422 402.11" fill="#E2BBA6"/>
<path d="M334.777 424.4L323.747 426.639L326.482 440.063C336.581 439.033 357.082 436.734 358.303 435.787C359.829 434.604 368.482 431.537 370.432 430.267C371.992 429.251 371.249 427.771 370.682 427.158C371.219 426.904 372.836 426.022 375.007 424.533C377.177 423.044 376.135 422.119 375.342 421.843C375.992 421.42 376.264 420.947 377.485 420.001C379.011 418.817 377.639 416.827 376.366 417.085C375.348 417.292 374.799 417.731 373.725 418.24C374.402 417.229 374.082 414.93 371.823 415.389C369.542 415.852 360.573 420.91 358.452 421.341C356.331 421.771 349.033 422.816 350.05 421.299C350.863 420.086 356.948 418.297 359.889 417.554C360.851 417.213 362.807 416.263 362.941 415.187C363.076 414.111 362.147 413.455 361.665 413.262L346.393 416.362C342.575 417.137 337.322 423.883 334.777 424.4Z" fill="#E2BBA6"/>
<path d="M240.266 275.503C243.066 274.704 248.766 272.508 251.266 271.51V267.018L237.266 249.051L189.266 323.416L184.766 336.392L186.766 340.884C193.166 344.477 202.766 342.381 206.766 340.884C206.266 337.557 205.566 329.405 206.766 323.416C207.966 317.426 213.932 313.933 216.766 312.935H232.266L237.266 311.936C235.666 287.581 238.599 277.499 240.266 275.503Z" fill="#D2AB96"/>
<path d="M236.865 481.219C236.865 481.219 244.389 506.217 243.533 540.349H150.058H135L145 514.014L156.532 483.852C156.532 483.852 200.686 506.49 236.865 481.219Z" fill="#E1E1E1"/>
<path d="M326.764 424.499C313.164 422.035 291.849 416.502 273.999 399.406C260.24 386.234 254.087 350.473 239.024 344.473C233.533 342.355 228.332 339.555 223.543 336.139C199.948 343.917 189.325 341.175 184.636 336.288C184.387 336.973 177.259 344.89 173.108 355.728C162.156 384.287 166.139 397.976 165.044 428.343C164.048 455.094 156.521 483.852 156.521 483.852C163.799 517.04 238.158 484.776 238.158 484.776C235.231 476.988 228.621 440.074 236.555 432.942C248.054 422.611 245.904 413.591 245.904 413.591C254.525 424.34 267.966 430.479 267.966 430.479C288.345 442.171 315.584 442.717 326.764 441.763V424.499Z" fill="#152D5D"/>
<path d="M326.765 441.763V435.167C326.765 435.167 309.99 437.531 295.903 430.925C281.815 424.319 269.261 423.326 259.992 420.574C250.724 417.823 241.644 400.25 241.644 400.25C240.848 418.478 228.871 421.349 221.583 436.21C216.177 447.236 220.07 476.362 222.44 490.666C231.708 487.567 238.16 484.775 238.16 484.775C235.233 476.988 228.622 440.074 236.557 432.942C248.056 422.611 245.905 413.591 245.905 413.591C254.527 424.339 267.967 430.478 267.967 430.478C288.346 442.2 315.585 442.717 326.765 441.763Z" fill="#0C2048"/>
<path d="M237.466 272.618C241.804 271.752 249.756 268.649 253.19 267.206C253.733 258.185 251.564 239.711 236.381 233.649C221.199 227.587 206.016 231.664 200.594 235.814C171.856 232.566 171.494 292.825 175.109 319.707C195.714 338.65 228.609 325.3 236.924 321.331C232.152 290.588 234.032 267.928 237.466 258.546C240.069 265.041 238.55 270.634 237.466 272.618Z" fill="#E9D694"/>
<path fill-rule="evenodd" clip-rule="evenodd" d="M243.047 237.294C234.484 233.556 220.434 230.697 207.265 238.071C195.756 244.515 199.691 253.633 203.94 263.483C207.261 271.178 210.774 279.32 207.265 286.982C199.265 304.45 199.765 309.94 205.265 329.405C205.282 329.465 205.299 329.525 205.315 329.585C195.065 329.929 184.256 327.666 175.61 319.717C171.996 292.835 172.357 232.577 201.095 235.824C206.518 231.675 221.7 227.597 236.883 233.659C239.238 234.599 241.28 235.838 243.047 237.294Z" fill="#D6C589"/>
<circle cx="273.029" cy="296.837" r="1.5" transform="rotate(-75 273.029 296.837)" fill="#FAFAFC"/>
<circle opacity="0.6" cx="270.837" cy="297.286" r="1.5" transform="rotate(-75 270.837 297.286)" fill="#FAFAFC"/>
</svg>
