<svg fill="none" xmlns="http://www.w3.org/2000/svg" viewBox="0 0 471 540"><path fill-rule="evenodd" clip-rule="evenodd" d="M37.162 397.222l95.189 67.26-26.991-113.481a119.144 119.144 0 0128.425-3.421c37.145 0 70.309 17.043 92.1 43.735v147.258H39.361c-15.312-20.006-24.41-45.02-24.41-72.159 0-25.814 8.231-49.705 22.21-69.192z" fill="#081B42"/><path fill="#fff" d="M154.756 164.869H.819v9.122h153.937z"/><path opacity=".4" d="M1 193.946l140.072-19.955H1v19.955z" fill="#081B42"/><path d="M134.23 127.24l-10.832 37.629h-21.665L92.04 127.24h42.19z" fill="#FF8139"/><path d="M92.04 127.24h42.19l-39.909 8.552-2.28-8.552z" fill="#D3662F"/><rect width="46.751" height="9.122" rx="2" transform="matrix(-1 0 0 1 136.512 118.118)" fill="#FF8139"/><path d="M135.369 103.227c-3.193.912-7.792 10.643-9.692 15.394h-1.711c2.471-4.751 7.526-14.71 7.982-16.534.57-2.28-4.561-6.842-6.271-15.394-1.369-6.842 3.231-11.403 6.271-13.113 2.661 2.85 7.184 11.745 8.552 10.833 1.369-.912-3.421-7.982-6.271-12.543 5.017-4.105 13.113-5.701 15.964-5.701 1.14 3.42 3.763 10.034 5.131 9.121 1.368-.912-.57-6.46-1.711-9.121 7.754-.912 16.154-.38 19.385 0l-3.991 17.104-8.552-2.852c-3.421-1.14-5.131.57-3.991 1.14.912.457 7.602 3.612 10.833 5.132-1.369 5.017-5.132 9.692-6.842 11.403-3.421-1.9-10.604-5.93-11.973-6.842-1.71-1.14-4.561 0-2.85 1.14 1.368.913 7.791 6.082 10.832 8.553-10.832 5.701-17.104 1.14-21.095 2.28zM96.388 96.572c4.53 1.277 11.054 14.896 13.75 21.546h2.426c-3.504-6.65-10.676-20.588-11.323-23.141-.809-3.192 6.471-9.576 8.897-21.546 1.941-9.576-4.583-15.96-8.897-18.353-3.774 3.99-10.19 16.438-12.132 15.162-1.94-1.277 4.853-11.172 8.897-17.556-7.117-5.745-18.602-7.98-22.646-7.979-1.618 4.788-5.338 14.044-7.28 12.767-1.94-1.277.81-9.043 2.427-12.767-11-1.277-22.916-.532-27.5 0l5.662 23.94c2.427-.8 8.25-2.715 12.132-3.992 4.853-1.596 7.28.798 5.662 1.596-1.294.639-10.784 5.054-15.367 7.182 1.94 7.022 7.279 13.566 9.705 15.96 4.853-2.66 15.044-8.3 16.985-9.576 2.427-1.596 6.47 0 4.044 1.596-1.941 1.277-11.053 8.512-15.367 11.97 15.367 7.979 24.264 1.596 29.925 3.191z" fill="#00B67A"/><path d="M386.385 85.593c.089-46.62-37.679-84.543-84.299-84.543-46.557 0-84.299 37.823-84.299 84.38 0 46.557 37.742 84.38 84.299 84.38 46.493 0 84.209-37.724 84.299-84.218z" fill="#F5F5F5"/><path d="M223.075 81.674c1.76-42.231 36.509-75.561 78.776-75.561 41.839 0 76.393 32.68 78.723 74.454l.272 4.863-.272 4.863c-2.33 41.774-36.884 74.454-78.723 74.454-42.267 0-77.016-33.33-78.776-75.56l-.157-3.757.157-3.756z" fill="#fff"/><path fill="#E5E5E5" d="M223.488 85.43h157.357v6.842H223.488z"/><path fill="#E5E5E5" d="M305.588 5.61v159.638h-6.842V5.61z"/><path d="M318.805 366.543a11.9 11.9 0 00-3.926-2.597 109.582 109.582 0 00-12.506-1.365c-2.231 0-11.079 3.858-11.733 4.288-.655.431-1.041 2.597 2.364 2.493 3.406-.104 25.801-2.819 25.801-2.819zM251.268 257.361s-1.279-.727-2.974-1.618a32.278 32.278 0 00-7.718-3.056c-3.584-.564-12.357 1.706-15.242 2.3-2.885.593-8.149 1.899-8.149 1.899.312 1.929-2.037 2.048-2.037 2.048.193 1.38 2.052 1.365 3.568 1.483a15.855 15.855 0 003.614-.385 3.438 3.438 0 01-.848 2.151 2.976 2.976 0 001.606.386 23.093 23.093 0 0110.41 2.463c4.312 2.538 8.58 6.574 14.633 12.123a30.387 30.387 0 007.227 4.882h.119l.892.416a29.971 29.971 0 003.822 1.484c.371.118.743.207 1.1.296l-10.023-26.872z" fill="#E5B9B7"/><path d="M309.92 517.17c.457-27.358 10.472-91.195 15.422-119.693h107.957c7.426 17.099 9.139 38.188 9.139 56.997 0 15.047-1.134 58.687-3.609 84.526h-56.723l-10.49-45.768c-2.285 8.663-4.141 30.189-5.473 45.768h-56.222c-.049-8.784-.103-12.663-.149-14.056-.107-3.271-.167 7.181 0 0 .037-1.6.086-4.075.148-7.774z" fill="#F4EFEF"/><path d="M316.225 451.199l2.28-13.683v-1.711h20.525l1.71-17.104h36.489v18.815l65.566 1.14v12.543c-31.016-8.21-60.055-8.362-70.697-7.412l1.14-17.104c-1.368.913-3.991 1.521-5.131 1.711h-15.964c-5.017 0-7.792-1.901-8.552-2.851l-1.14 17.674c-9.578 1.825-21.475 6.082-26.226 7.982zM365.257 484.267c-4.561 35.12-5.957 39.529-7.097 54.733h9.122c2.737-36.945 3.296-31.928 4.247-42.19-1.825-16.42-4.942-15.204-6.272-12.543z" fill="#CFCDCD"/><path d="M438.804 539c2.281-77.538-3.991-81.719-7.411-91.222l11.402 2.281c1.369 32.84-2.09 61.575-3.991 88.941z" fill="#CFCDCD"/><path d="M242.349 341.131s13.809-17.969 42.272-13.735c28.464 4.234 34.977 25.163 34.977 25.163l-45.452 46.337-31.797-57.765z" fill="#FF8139"/><path d="M237.38 251.749c-5.948-.104.773-4.08 4.327-4.837 3.554-.757 11.48-1.87 13.979 1.484 2.498 3.353 21.369 30.092 24.313 31.324 2.945 1.231 18.538 18.683 18.538 18.683 33.251 3.798 10.389-4.614 18.002-7.982 7.614-3.369 9.107-27.213 20.735-39.425 11.629-12.212 10.856-24.899 20.685-22.11 11.332 3.206 11.168-.534 11.168-.534l.952-1.706a72.386 72.386 0 004.699-18.934c-4.937 1.053-4.55 1.395-9.101.163-26.767-7.315-1.978-78.911-1.978-78.911 7.361-19.527 56.42-3.947 62.591 6.974 5.948 10.506-2.677 26.517-2.677 26.517 6.127-.223 6.826 4.718 6.826 4.718 1.249 10.625-14.053 17.51-14.053 17.51l-1.487 1.869c-13.592 19.097-10.186 32.645-7.658 38.417.565 1.202 5.353 4.007 10.26 3.917 6.246-.089 23.511.342 32.21 21.798 16.521 40.702 1.279 101.11-7.51 107.015-8.788 5.906-92.881 17.807-92.881 17.807l-8.566 5.712-10.171 2.968c-3.257 1.083-9.696 3.977-17.845 6.143-10.216 2.671-11.703 3.28-14.469 3.621-3.108.371-2.603.668-6.514 1.024-2.974.267-2.974-2.122-2.974-2.122l-5.145 1.32c-4.193-.282-2.468-5.059-2.468-5.059a3.183 3.183 0 01-2.009-2.275 3.17 3.17 0 01.819-2.919c.892-.727 8.922-5.327 10.618-6.41 1.695-1.083 8.401-4.823 8.401-4.823s-9.74 2.627-10.29 3.369a98.17 98.17 0 01-8.803 6.543c-1.77.891-3.51-1.973-2.38-3.472 1.131-1.498 7.674-7.835 10.663-9.14 2.989-1.306 8.164-5.209 10.587-6.322 2.424-1.112 2.975 1.069 9.949.876 6.974-.193 4.461-.089 5.547-.312 1.085-.222 2.661-.578 4.535-.949 2.116-.419 3.616-.271 5.339.4l17.071-3.947h-22.098c1.889-44.485 5.443-67.797 5.443-67.797s7.183 37.72-18.291 34.129c-25.473-3.591-30.939-33.568-33.036-34.859-.937-.579-3.45-2.063-6.35-4.229-13.8-1.825-9.859-13.934-18.335-13.934-9.8 0-11.748-.563-11.748-2.374 0-1.81 9.785-2.745 16.164-2.967-1.055-4.571-1.204-8.903-2.825-12.925-1.874-4.704-8.342-2.953-12.759-3.027z" fill="#F4C7C3"/><path opacity=".1" d="M361.782 206.154c-6.112-6.054-2.528-23.089-3.703-29.217-1.175-6.128 9.011-11.618 8.774-27.243-.179-11.663 7.167-24.098 10.915-29.677-6.707.845-12.016 3.561-14.068 9.007 0 0-22.187 63.983-1.918 77.13zM374.823 230.177c2.157-1.989 5.681-23.742 5.681-23.742l-5.681 1.484a72.228 72.228 0 01-4.699 18.934l-.951 1.706s-3.733 2.493-11.243 1.365l1.666.564c5.115 1.113 13.071 1.677 15.227-.311z" fill="#000"/><path d="M280.862 277.878l10.263 6.842c20.525 11.403 15.703 9.53 23.703 7.215 12.432-3.665 7.649-37.378 19.278-49.619 11.629-12.242 14.023-16.174 23.793-13.355 9.77 2.819 11.896-4.17 13.086-4.837-.268 1.869 3.391 8.472 6.335 9.407l2.171 7.954 7.435-7.939c9.473-1.855 19.719-9.764 19.719-9.764.58 1.202-1.487 7.82 9.294 5.12 6.052-1.484 25.057.326 33.756 21.782 18.157 44.739 6.528 95.501-7.509 107.016-8.179 6.707-92.882 17.806-92.882 17.806l-.119 3.769-8.447 1.944c.491-11.515-7.569-19.572-7.569-19.572l8.045-1.914h-22.098c1.889-44.486 5.443-67.798 5.443-67.798s7.183 37.72-18.291 34.129c-17.324-2.448-23.125-15.118-31.677-26.521 7.316-6.81 6.271-21.665 6.271-21.665z" fill="#F4EBEA"/><path opacity=".1" d="M349.14 355.058l4.774-31.962 4.461-29.796 1.68-11.262a67.211 67.211 0 01-.595-18.771c.907-9.051.506-20.432 5.086-30.923 0 0-2.008 9.259-1.338 15.892.416 4.169 3.524 16.723 1.487 26.412-2.038 9.69-5.428 12.109-4.774 25.419.655 13.31 1.309 35.063-10.781 54.991z" fill="#000"/><path d="M343.937 380.378l34.272-7.979-1.142 35.338H340.51l3.427-27.359z" fill="#F4EBEA"/><path d="M344.25 380.503l-3.988 27.936h6.267c2.278-3.421 2.848-10.832 2.278-15.393-.569-4.561-1.709-9.693 8.546-10.833 8.204-.912 17.092-2.28 20.51-2.851l1.709-6.841-1.709.57-33.613 7.412z" fill="#DCD4D3"/><path d="M341.652 420.277l.932-12.54h34.483l-.49 12.54h-34.925z" fill="#000"/><path d="M350.221 420.276v-12.54h15.422v12.54h-15.422z" stroke="#FFD300" stroke-width="3"/><path d="M461.605 250.512c-5.71-16.708-23.079-22.51-31.436-23.267l-23.568-3.492s-8.922 35.345-26.187 58.879l-2.647 57.796-37.801 19.29.238.237a20.773 20.773 0 014.494 7.535 20.723 20.723 0 01.978 8.713l-.119 3.769 3.525-.771s51.579-5.716 78.064-11.711c2.201-.505 9.122-2.381 9.122-2.381l25.337-10.949s16.194-56.254 0-103.648z" fill="#152D5D"/><path d="M284.283 277.308l1.785 1.738c7.338 5.674 17.726 13.631 25.34 10.263 7.613-3.368 9.196-26.709 15.174-42.498 4-10.55 8.223-21.456 24.313-23.059l20.15.342a18.291 18.291 0 01-1.978 4.451l-.297.178a20.235 20.235 0 01-3.495 1.128s-8.55 26.502-5.234 52.202l-11.064 74.059-9.012 3.606h-20.818c1.888-44.516 2.528-40.183 2.528-40.183s15.206 20.658-10.267 17.067c-14.499-2.048-25.34-13.683-34.084-33.369 2.29-3.754 8.357-17.17 6.959-25.925zM340.511 437.375l3.998-56.996c-1.713.38-5.94 1.368-9.139 2.28-3.998 1.139-7.997 2.279-10.853 3.419-2.285.912-7.045 2.66-9.139 3.42l-5.712 47.877h30.845zM375.926 439.085l2.285-66.116 69.115-17.099-2.285 25.079 7.997 58.136h-77.112z" fill="#152D5D"/><path d="M318.805 363.28l.571-9.12 22.848 5.13-17.707 4.56c-1.714-1.14-5.141-.57-5.712-.57z" fill="#152D5D"/><path d="M447.368 357.127l-68.935 15.964-.57 6.271 68.936-15.964.569-6.271zM383.448 291.267l1.16-7.671 4.298 6.514a83.95 83.95 0 0013.576-18.949 74.34 74.34 0 01-13.517 20.774l-4.238-6.44-1.279 5.772zM358.361 288.967l-1.992-7.419-4.61 4.452s-3.376-13.192-2.692-23.831a67.485 67.485 0 002.424 26.116l4.461-4.571 2.409 5.253zM390.719 335.145s8.491-4.912 11.763-4.63c3.272.282 20.282-2.574 20.282-2.574s.826-19.421-2.285-30.209c0 0-4.004 15.6-7.171 20.438-3.168 4.837-6.647 2.819-12.164 7.167-5.517 4.347-4.908 6.914-10.425 9.808z" fill="#0C2048"/><path d="M350.24 183.08a38.561 38.561 0 013.346-9.378s.164 4.556 4.461 3.235c6.35-1.944 15.451-2.3 25.28 7.063 9.83 9.363 23.793-4.348 25.92-11.559 2.126-7.212 8.491-24.127 3.792-28.638-4.699-4.511-16.804 1.988-29.86-2.523-13.057-4.511-18.559-15.12-20.016-9.897a82.3 82.3 0 01-2.766 8.398s-3.197-18.844 1.636-26.234c4.833-7.39 13.933-6.306 21.874-3.413 7.941 2.894 16.611 1.484 20.819 1.484a24.308 24.308 0 0110.691 3.071 24.24 24.24 0 018.195 7.509c5.784 8.458 12.461 7.018 13.175 14.838.714 7.82-10.305 22.807-13.175 25.552-1.933 1.825-6.945 10.951-11.346 20.507.386 1.365 1.487 2.211 4.059 1.662a68.11 68.11 0 01-7.643 14.067c-3.926 5.342-16.12 13.354-33.786 13.533a26.977 26.977 0 01-12.462-2.375c-12.625-6.069-13.904-20.239-12.194-26.902z" fill="#594423"/><path d="M394.169 199.388c6.959-1.262 12.952-4.452 15.331-14.972 2.38-10.521 16.581-32.942 20.061-42.246 3.48-9.303-7.272-9.14-8.045-15.921-.491-4.229-4.075-8.903-6.692-11.871a24.284 24.284 0 018.803 7.864c5.785 8.458 12.462 7.019 13.176 14.839.714 7.82-10.306 22.807-13.176 25.552-1.933 1.825-6.944 10.951-11.346 20.507.387 1.365 1.487 2.21 4.06 1.661a68.09 68.09 0 01-7.644 14.067c-3.925 5.342-16.119 13.355-33.786 13.533a29.58 29.58 0 01-7.435-.668c11.733 1.558 19.748-11.084 26.693-12.345z" fill="#3E2F1C"/><path d="M410.064 112.39s-6.825 5.935-19.331 4.881c-4.432-.341-16.953-8.131-22.024-4.881-5.071 3.249-7.584 8.695-5.546 18.963a82.565 82.565 0 01-2.766 8.399s-3.198-18.815 1.635-26.205c4.833-7.39 13.934-6.306 21.875-3.413 7.941 2.894 16.611 1.484 20.819 1.484a20.46 20.46 0 015.338.772zM350.24 183.08a38.561 38.561 0 013.346-9.378s.164 4.556 4.461 3.235a22.8 22.8 0 0117.562 1.484c-.461-.104-15.971-3.754-20.194 3.205-4.223 6.959-3.539 17.272 1.799 24.854-7.703-6.914-8.416-17.806-6.974-23.4z" fill="#674F2D"/><path d="M243.983 293.893s-21.978 5.683-41.86-15.046c-19.882-20.73-12.135-41.237-12.135-41.237l64.45-8.68-10.455 64.963z" fill="#00181B"/><path d="M249.32 266.798a71.593 71.593 0 00-8.922 1.142c-1.948.638-2.751 1.321-2.647 2.36.104 1.038 2.186 1.84 4.833 1.78l5.413-.118 1.323-5.164z" fill="#F4C7C3"/><path d="M228.746 153.852c1.225 7.478 3.183 19.489 4.992 31.328-1.145-11.154-3.263-23.508-4.729-31.237l-.263-.091z" fill="#CEA999"/><path d="M247.844 182.77l-14.106 2.409-3.717-11.066c.138 5.892-1.854 16.814-3.308 19.051-7.982 2.281-12.8-6.398-16.791-3.42-4.561 3.402-10.203 10.751-6.585 20.524 5.066 13.684 2.612 18.466 1.49 23.946s-9.858 32.769 0 43.33l15.102-4.567a45.672 45.672 0 01-9.343-7.295c-4.854-7.536-.664-28.874-.664-28.874s18.068 11.793 28.625 2.5a13.748 13.748 0 002.29-2.649c6.011-8.414 6.869-29.776 7.041-34.354.172-4.579-.034-19.535-.034-19.535z" fill="#CEA999"/><path d="M172.275 267.805s-5.472 4.567-10.407 18.268 7.9-7.889 7.9-7.889l1.511-7.638.996-2.741z" fill="#292289"/><path d="M231.333 437.099s17.384 62.324 16.399 101.553H115l23.946-98.527s50.779 26.019 92.387-3.026z" fill="#F4EFEF"/><path d="M285.054 395.131c-2.537.148-12.159-5.629-15.321-7.768l-4.057 17.519 10.995 2.86c1.426 2.353 5.005 7.431 7.912 8.913 3.633 1.853 11.665-.505 13.932.052 2.268.556 5.623 3.543 7.891 4.099 1.814.445 2.639-.956 2.824-1.712l3.633 1.853c2.629.261 3.318-1.109 3.333-1.827.039.17.546.519 2.268.557 1.722.037 2.184-1.388 2.2-2.106 1.134.278 2.268.557 3.171-.184.903-.74-2.405-5.879-6.154-8.241-2.998-1.89-9.918-5.96-13.003-7.758 7.475-.09 12.079 3.684 15.135 2.991 3.055-.693-.531-4.698-4.558-5.927-4.026-1.228-10.945-3.406-13.098-3.453-2.152-.047-13.932-.052-17.103.132z" fill="#CEA999"/><path d="M243.28 364.538c5.701 7.157 11.403 11.973 35.57 27.937l-8.774 17.104c-23.945-7.412-35.348-11.403-42.76-14.866-2.851 10.305 2.139 37.523 5.505 46.474 0 0-85.518 37.083-93.887-1.062 0 0 8.656-33.053 9.801-63.799 1.259-34.902-3.321-50.635 9.274-83.459 4.774-12.457 10.55-21.024 14.54-26.725 5.393 5.617 16.328 13.149 43.464 4.21a80.662 80.662 0 0017.804 9.579c25.997 10.021-7.044 63.888 9.463 84.607z" fill="#F4C7C3"/><path d="M233.194 196.784l16.534-5.701c1.141-1.711-1.629-21.095-8.552-30.788-5.701-7.982-14.253-13.113-19.954-10.832-17.105-2.281-46.752-11.973-59.865 27.367-4.3 12.902-13.113 53.022-13.113 103.194 0 38.842 7.982 50.742 26.226 50.742 27.937 0 47.322-40.099 49.602-54.733 2.281 1.825 7.032 3.421 9.122 3.991-4.105-8.21-3.611-70.317-2.85-100.344 1.14 7.982 2.85 15.774 2.85 17.104z" fill="#4F3C27"/><path d="M175.664 452.42c.206 1.382.401 2.729.595 4.065-.194-1.336-.389-2.683-.595-4.065zM175.503 451.37c0-.365-.102-.73-.159-1.141.045.411.114.776.159 1.141z" fill="#000" opacity=".3"/><path d="M232 440.62c-5.208-21.344-5.425-40.214-4.882-46.98l-8.68-4.64c-2.604 14.848-1.085 44.853 0 58L232 440.62z" fill="#D3A8A4"/></svg>