<svg fill="none" xmlns="http://www.w3.org/2000/svg" viewBox="0 0 470 540"><path d="M261.075 488.485c8.716 3.705 18.262 32.53 21.946 46.479l4.844.621c-5.298-14.156-16.054-43.783-16.694-49.04-.799-6.572 15.365-17.439 23.267-40.687 6.322-18.598-5.072-32.995-13.073-38.872-8.554 6.991-24.545 30.172-28.094 27.129-3.549-3.042 12.543-21.035 22.247-32.73-12.741-13.277-35.099-20.669-43.173-21.703-4.453 9.132-14.245 26.638-17.794 23.595-3.549-3.042 3.925-17.825 8.106-24.837-21.634-5.359-45.614-6.923-54.9-7.034l5.186 49.183 25.241-4.854c10.096-1.941 14.328 3.453 10.895 4.631-2.747.941-22.821 7.318-32.515 10.389 2.082 14.499 11.067 28.912 15.299 34.306 10.368-4.062 32.154-12.699 36.356-14.749 5.251-2.561 12.917 1.656 7.665 4.217-4.201 2.049-24.242 14.145-33.737 19.937 28.64 19.842 48.033 9.389 58.928 14.019z" fill="#00B67A"/><path d="M263.404 524.915c4.831-1.555 18.825 6.795 25.219 11.164l2.179-1.448c-7.12-3.886-21.886-12.137-23.993-14.046-2.633-2.387.091-12.47-4.88-24.679-3.977-9.767-13.65-11.612-18.953-11.19-1.007 5.839.667 20.859-1.839 20.87-2.506.01-2.315-12.939-2.497-21.091-9.824-.918-21.473 3.927-25.104 6.34 1.407 5.27 3.595 15.811 1.089 15.822-2.506.01-4.676-8.613-5.448-12.926-10.641 5.417-20.898 13.197-24.696 16.41l19.385 18.143 8.511-10.827c3.405-4.331 7.014-3.627 6.038-1.944-.781 1.346-6.666 10.979-9.51 15.626 5.938 5.155 14.64 7.852 18.249 8.556 2.77-5.287 8.553-16.438 9.534-18.744 1.226-2.882 5.811-3.861 4.585-.978-.98 2.306-4.842 14.248-6.651 19.931 18.568-1.997 22.745-13.045 28.782-14.989z" fill="#00B67A"/><path d="M133.715 211.166C170.098 208.62 195.731 235.994 204 250H10c6.785-10.504 26.397-29.157 50.567-19.735 30.213 11.777 27.67-15.916 73.148-19.099z" fill="#E1E1E1"/><path d="M393.763 380.571c13.518-3.931 24.916-1.172 28.431.466l.677-25.388c-12.642-1.456-24.714 1.874-29.108 3.831v21.091zM406.96 381.564l-13.197 1.242 14.824 157.193 13.245-.372-14.872-158.063z" fill="#FF8139"/><path d="M409.412 514.4l11.829 4.888.78-22.384c-2.338.567-4.109 1.842-5.526 3.542-1.133 1.36-.566-.071-1.7.496-4.023-1.473-6.493-4.628-6.8-6.658-2.493 9.01-.094 17.165 1.417 20.116z" fill="#00181B"/><path d="M408.549 317.358c-7.134-9.563-32.59-12.437-44.381-19.179-4.387-2.507-7.68-15.802-7.614-24.542 9.711-5.705 18.283-28.813 18.384-49.011.125-24.926-12.141-44.943-30.743-45.036-18.602-.093-31.058 20.008-31.183 44.935-.099 19.828 4.203 39.954 15.533 47.172-.043 8.706-2.058 18.258-6.528 20.757-11.857 6.623-28.487 4.072-35.153 13.936-18.194 26.975-15.467 57.539-15.467 57.539l140.81 31.528s15.659-45.601-3.658-78.099z" fill="#E2BBA6"/><path d="M314.835 257.417c.364-4.362-2.271-18.477-3.634-24.99l2.271 1.364c.455 4.694 2 14.629 4.544 16.81 3.18 2.726 15.902-4.998 25.443-4.089 9.541.909 18.628 6.815 23.626 6.815 3.998 0 5.906-11.51 6.361-17.265l2.271-2.271c-.908 2.726-4.089 22.262-4.543 28.169-.454 5.906-7.27 20.445-29.532 19.082-22.263-1.363-27.261-18.173-26.807-23.625z" fill="#00181B"/><path d="M341.761 208.665c-21.657-3.044-28.847 22.216-28.119 31.486-7.759-29.299 14.747-38.805 26.969-39.896l34.299 7.41-.946 30.592-3.245-23.366c-15.976 1.498-21.537-6.226-28.958-6.226z" fill="#CBA895"/><path opacity=".1" d="M337.36 274.763c3.558.802 7.248.821 10.814.054 0 0-5.211 5.229-10.814-.054z" fill="#000"/><path d="M341.93 203.722c-20.918-4.008-29.174 14.094-28.227 35.978-4.322-11.465-19.042-40.895-4.503-48.164 4.892-2.446 10.264-1.549 17.917-5.725 6.163-3.362 9.896-10.16 21.156-10.177 11.811-.018 22.448 14.843 26.806 17.72 16.434 6.716 3.258 36.658-1.489 45.635l-.57-7.279-2.729-20.371c-10.254 1.62-21.843-6.369-28.361-7.617z" fill="#00181B"/><path d="M310.563 199.261c-5.452 3.635-4.695 16.962-3.635 23.171-11.813-33.622 3.635-30.895 14.539-34.076 10.904-3.18 7.269-5.906 19.082-11.358 9.451-4.362 19.083 1.817 22.718 5.452-4.392-2.726-15.539-5.725-24.989 4.089-11.813 12.267-20.9 8.178-27.715 12.722z" fill="#00181B"/><path d="M408.651 539.996l-4.928-52.242-116.402 3.564-6.436 48.676h58.508c2.545-5.111 6.94-14.719 8.659-13.118 1.718 1.6 5.83 9.342 6.864 13.12h53.735z" fill="#142B5A"/><path d="M321.826 291.461c13.901 15.165 32.821 8.425 40.543 3.16 12.04 0 38.787 5.011 49.457 25.053 4.608 8.657 10.007 26.609 11.022 33.753l-30.039 11.421 11.172 126.24c-54.602 16.945-95.202 6.384-117.593 0 0-2.876 4.074-57.543 4.074-88.236 0 0-.707-29.592-.707-38.004-9.267-18.534-17.595-25.115-22.159-27.923.351-1.579-.006-9.967 7.444-22.464 9.898-16.603 33.798-21.244 46.786-23z" fill="#FAFAFC"/><path fill="#C4C4C4" d="M257.997 121.737l-5.882-1.182-48.899 243.3 5.883 1.183z"/><path d="M241.502 283.018c.061 1.259 1.744 4.517 5.397 8.881l-19.129 7.241-4.766-13.833c-.75-1.014-.53-4.517-.734-8.712-.255-5.243 5.578-14.986 2.356-16.406-3.222-1.42-13.454 4.332-14.156.688-.703-3.645 2.443-3.798 3.99-4.399 1.548-.6 14.9-7.03 17.073-5.559 2.174 1.471 8.848 9.03 9.001 12.176.152 3.146-1.089 10.038.611 12.583s.28 5.767.357 7.34z" fill="#E2BBA6"/><path d="M217.12 251.849c2.057.595 10.791 7.405 14.9 10.735 0 0 6.029 4.305 6.385 10.991.355 6.685-5.617 11.198-5.617 11.198-3.358 2.352-10.58 6.801-12.602 5.788-2.528-1.266-8.281-1.749-8.497-5.455-.215-3.705-2.83-3.925-4.092-7.719-1.261-3.793.396-4.708.572-6.8.176-2.092-1.784-3.837.572-6.8 2.356-2.963 1.965-4.576 2.097-6.145.132-1.569 3.71-6.536 6.282-5.793z" fill="#E2BBA6"/><path d="M320.045 178.576c34.465-16.14 75.43 5.417 84.695 16.963 11.76-65.538-23.936-119.844-45.83-135.212l-185.605-8.41-10.145-.459c-58.49 2.976-81.444 52.565-81.04 85.211 37.863-24.687 62.8-1.155 70.536 13.697 37.943-33.084 74.384-4.756 85 10.226 42.756-19.664 73.993 1.102 82.389 17.984z" fill="#081B42"/><path d="M274.922 21.298c54.642 9.149 92.167 42.585 97.225 52.454L93.5 93.502c30.551-55.673 98.962-86.011 181.422-72.204z" fill="#081B42"/><path d="M260.374 378.401c-8.528-8.528-26.639-57.585-33.631-82.115l14.132-11.803c21.979 25.678 45.93 65.59 48.949 76.726 3.962 14.611-16.431 30.21-29.45 17.192zM417.081 399.233c-1.26-9.819-1.05-22.168 0-26.305l-22.433 12.59 5.788 67.647c3.618 8.2 10.201 26.842 7.597 35.814-2.605 8.971 9.385 20.35 15.432 10.037 3.256-3.256 9.049.362 9.049 6.873 0 5.209-6.033 10.611-9.049 12.661 1.086 1.327 5.311 4.255 11.524 0 7.029-4.813 5.939-9.761 7.222-15.742 0-9.282-2.317-14.512-11.608-20.894-10.146-6.97-6.36-19.209-8.236-44.295-1.522-20.354-3.169-21.886-5.286-38.386z" fill="#E2BBA6"/><path d="M407.184 502.576c-.999-5.329.416-11.38 1.249-13.74l8.333 12.347c-.96 2.356-1.786 7.287-1.522 9.552.469 4.028 2.534 5.45 3.104 6.875.456 1.14-1.481 1.011-2.213.787-6.245-3.331-7.702-9.159-8.951-15.821z" fill="#E2BBA6"/><rect width="3.144" height="25.869" rx="1.572" transform="matrix(-1 0 0 1 424.42 355.508)" fill="#FF8139"/><rect width="3.144" height="25.869" rx="1.572" transform="matrix(-1 0 0 1 397.648 357.166)" fill="#FF8139"/><ellipse rx="9.153" ry="11.763" transform="matrix(-1 0 0 1 424.42 508.191)" fill="#FF8139"/><path d="M422.177 431.152l-6.002-46.785-21.349 3.944 4.279 48.096 23.072-5.255z" fill="#081B42"/><path d="M416.994 389.502l-21.123 8.953M418.005 398.595l-18.162-1.959M418.533 404.192c-3.211 1.541-12.06 4.766-21.774 5.344M419.851 413.869c-1.372 1.445-7.738 4.68-22.225 6.067M421.024 422.247c-2.76 1.781-11.13 5.517-22.532 6.211" stroke="#FAFAFC"/><path d="M390.784 355.508c2.635 2.24 4.172 2.141 4.611 1.811l.267 25.658c-.926-.132-1.268-.459-1.323-.606l-3.555-26.863z" fill="#FF8139"/></svg>