<svg fill="none" xmlns="http://www.w3.org/2000/svg" viewBox="0 0 478 541"><path d="M159.273 488.485c8.716 3.705 18.262 32.53 21.945 46.479l4.844.621c-5.298-14.156-16.054-43.783-16.693-49.04-.799-6.572 15.364-17.439 23.267-40.687 6.322-18.598-5.073-32.995-13.073-38.872-8.555 6.991-24.545 30.172-28.094 27.129-3.549-3.042 12.542-21.035 22.247-32.73-12.742-13.277-35.1-20.669-43.173-21.703-4.453 9.132-14.245 26.638-17.794 23.595-3.55-3.042 3.925-17.825 8.106-24.837-21.634-5.359-45.614-6.923-54.9-7.034l5.186 49.183 25.24-4.854c10.096-1.941 14.329 3.453 10.896 4.631-2.747.941-22.821 7.318-32.515 10.389 2.081 14.499 11.067 28.912 15.299 34.306 10.368-4.062 32.154-12.699 36.355-14.749 5.252-2.561 12.918 1.656 7.666 4.217-4.201 2.049-24.242 14.145-33.737 19.937 28.64 19.842 48.033 9.389 58.928 14.019z" fill="#00B67A"/><path d="M161.602 524.915c4.83-1.555 18.825 6.795 25.218 11.164l2.18-1.448c-7.12-3.886-21.887-12.137-23.993-14.046-2.633-2.387.091-12.47-4.88-24.679-3.977-9.767-13.65-11.612-18.954-11.19-1.006 5.839.668 20.859-1.838 20.87-2.506.01-2.316-12.939-2.497-21.091-9.824-.918-21.473 3.927-25.105 6.34 1.408 5.27 3.596 15.811 1.09 15.822-2.506.01-4.676-8.613-5.448-12.926-10.641 5.417-20.898 13.197-24.696 16.41l19.385 18.143 8.511-10.827c3.405-4.331 7.014-3.627 6.038-1.944-.781 1.346-6.666 10.979-9.511 15.626 5.938 5.155 14.641 7.852 18.25 8.556 2.769-5.287 8.553-16.438 9.534-18.744 1.225-2.882 5.811-3.861 4.585-.978-.981 2.306-4.843 14.248-6.651 19.931 18.568-1.997 22.744-13.045 28.782-14.989z" fill="#00B67A"/><path d="M212.5 81.26c57.2-4 97.5 39.001 110.5 61.001H18c10.667-16.5 41.5-45.8 79.5-31 47.5 18.5 43.5-25 115-30zM346.285 181.166C309.902 178.62 284.269 205.994 276 220h194c-6.785-10.504-26.397-29.157-50.567-19.735-30.213 11.777-27.669-15.916-73.148-19.099z" fill="#fff"/><path fill="#fff" d="M298.426 121.915l5.93-.915 26.247 170.14-5.93.915z"/><path d="M233.869 175.887c-33.699-17.683-75.597 1.998-85.376 13.113-7.221-71.933 29.336-118.639 51.903-133h195.95c58.297 5.62 78.982 56.197 77.102 88.791-36.708-26.375-62.684-3.996-71.084 10.491-36.407-34.768-74.093-8.118-85.376 6.369-41.823-21.58-73.967-2.248-83.119 14.236z" fill="#081B42"/><path d="M286.064 20.812c-55 6.667-94 38.37-99.5 48l275 31.5c-28-56.998-92.5-89.56-175.5-79.5z" fill="#081B42"/><path d="M182.653 336.131c7.851-10.524 28.082-9.852 41.057-17.271 4.828-2.76 8.453-17.39 8.379-27.009-10.687-6.278-20.12-31.708-20.231-53.935-.138-27.432 13.362-49.461 33.833-49.563 20.471-.103 34.178 22.019 34.316 49.45.109 21.821-4.625 43.97-17.094 51.913.048 9.581 2.266 20.093 7.184 22.843 13.049 7.288 31.35 4.482 38.685 15.336 20.023 29.686 21.135 87.999 21.135 87.999l-155.084 29.179s-18.142-69.632 7.82-108.942z" fill="#E2BBA6"/><path d="M248.37 220.349c23.834-3.349 31.746 24.45 30.945 34.65 8.538-32.242-16.229-42.704-29.679-43.904l-37.746 8.155 1.041 33.666 3.571-25.715c17.582 1.649 23.702-6.852 31.868-6.852z" fill="#CBA895"/><path d="M308.396 321.671c-13.321-5.387-23.507-5.522-37.772-9.181-.823 3.292-5.421 13.01-22.421 14.51-3.5 0-16.748.729-24.698-8.11-21.988 2.987-33.525 6.318-41.376 16.841-25.697 34.443-8.193 109.467-8.193 109.467l202.856-37.5s-33.63-71.968-68.396-86.027z" fill="#142B5A"/><path d="M198.203 540l-6.357-100.548 132.674-35.179L336.702 540H198.203z" fill="#142B5A"/><path d="M167.483 444.493c-.986-18.418-.229-63.719 1.721-71.993l55.749 15.471c-5 11.194-13.613 40.186-10.582 42.533 6.926 5.365 36.444 26.5 57.959 38.954l-8.844 25.321c-69.85-20.323-88.025-40.287-96.003-50.286z" fill="#142B5A"/><path d="M193.703 466c9.667 3.666 29.4 11 31 11 1.6 0 4.333-3.667 5.5-5.501l4.5 2.001-1.5 5.5c-1.333 1.833-4.6 5.5-7 5.5-2.4 0-22.333-5.667-32-8.5l-.5-10z" fill="#00181B"/><path opacity=".1" d="M252.641 294.763a25.139 25.139 0 01-10.814.054s5.211 5.229 10.814-.054z" fill="#000"/><path d="M248.185 214.91c23.019-4.41 32.105 15.511 31.063 39.594 4.757-12.617 20.956-45.004 4.956-53.004-5.384-2.692-11.296-1.705-19.718-6.3-6.782-3.7-10.89-11.182-23.282-11.2-12.997-.02-24.704 16.334-29.5 19.5-18.085 7.391-3.585 40.342 1.639 50.222l.628-8.012 3.003-22.417c11.284 1.782 24.038-7.009 31.211-8.383z" fill="#C09550"/><path d="M282.704 210c6 4 5.167 18.667 4 25.5 13-37-4-34-16-37.5s-8-6.5-21-12.5c-10.4-4.8-21 2-25 6 4.833-3 17.1-6.3 27.5 4.5 13 13.5 23 9 30.5 14z" fill="#A77F40"/><path d="M331.703 294l-1.5 6.5h29.5V299l-28-5z" fill="#142B5A"/><path d="M363.703 292.5c3.6-1.2 6.167-4.167 7-5.5l-9.5-1-3 13 4.5 1 1-7.5z" fill="#E2BBA6"/><path d="M328.181 252.729c-2.115.869-10.598 9.107-14.575 13.117l1.75 23.641c3.837 2.108 12.017 5.996 14.046 4.687 2.537-1.636 8.588-2.815 8.388-6.773-.2-3.958 2.551-4.494 3.451-8.666.9-4.172-.964-4.951-1.393-7.152-.429-2.2 1.45-4.279-1.393-7.152-2.844-2.872-2.615-4.629-2.937-6.28-.321-1.65-4.693-6.508-7.337-5.422z" fill="#CBA895"/><path d="M199.703 421.5c1.6 2 10.667 8.5 15 11.5-5-10-9.5-17.5-11-22.5-1.2-4 .5-16 1.5-21.5-2.5 10-7.1 30.5-5.5 32.5z" fill="#00181B"/><path d="M306.181 289.621c.08 1.343-1.712 8.899-2.618 12.51l18.731 3.367 1.857-15.833c.679-1.164 1.969-4.61 1.701-9.086-.336-5.595-7.654-15.262-4.398-17.142 3.256-1.88 14.781 3.043 15.105-.907.325-3.95-3.032-3.748-4.744-4.207-1.712-.458-16.628-5.739-18.765-3.927-2.137 1.813-8.347 10.608-8.145 13.965.201 3.357 2.316 10.529.806 13.427-1.511 2.898.369 6.154.47 7.833z" fill="#E2BBA6"/><path d="M440.201 255l-15.5-32.5-53 26.5-6 87.5 70.5 1.5 4-83z" fill="#000"/><path d="M458.878 351.384c-6.542-10.475-30.551-12.522-42.138-20.486-4.312-2.962-7.539-25.398-3.039-25.398 14.611-4.723 23.601-27.629 25.432-48.458 2.261-25.705-8.682-47.405-27.864-49.093-19.183-1.687-33.753 17.986-36.013 43.691-1.799 20.447 3.945 42.36 14.945 49.36-.789 8.977-.818 20.583-5.643 22.778-12.799 5.819-35.56.477-43.281 10.083-21.077 26.273-23.865 89.213-23.865 89.213l138.969 30.746s16.542-79.982 2.497-102.436z" fill="#F4C7C3"/><path d="M428.701 261.5c1.2 11.2.5 25 0 30.5 3.2-4.401 6-11.5 7-14.5v-16c-4-24.4-13-32.167-17-33-12 14.8-31 23.167-39 25.5l-1 30.5c.4 1.6 2.5 5.666 3.5 7.5l2.5-33.5c14.8-4.8 27.834-16.333 32.5-21.5 3.334 3.5 10.3 13.299 11.5 24.5z" fill="#DCB3AF"/><path d="M464.846 467.902c1.642-7.421 3.357-27.902 3.357-39.402l-25.744-7.543-3.565 16.11c3.847.851-50.628 7.405-82.803 10.87l-.795 19.796c2.441.54 107.498 9.444 109.55.169z" fill="#FF8139"/><path d="M427.225 471.999c2.247-10.154-2.108-20.373 0-27.588l-81.04-17.93-28.717-29.909-6.135 50.875c8.37-.025 27.203 13.342 18.368 31.052-8.834 17.71-18.368 40.5-18.368 61.5h125.368c0-11-2.475-24.408-6.5-38-3.109-10.5-5.784-17.307-2.976-30z" fill="#FF8139"/><path d="M380.203 469c10.8.8 35.833 2.333 47 2.999-.8 4.399-1 8.5-1 10.001l-44-5-2-8z" fill="#D3662F"/><path fill-rule="evenodd" clip-rule="evenodd" d="M422.202 333.999c-2.333 4.834-10.7 16.201-25.5 23-4.432-2.626-14.393-12.495-19.278-31.135-3.834.593-7.688.472-11.652.348-6.786-.212-13.896-.434-21.783 2.896-29.065 21.841-48.287 93.391-48.287 93.391l170.5 36.001s11.5-93.001-6-110.001c-3.707-5.936-13.441-8.237-23.294-10.567-5.162-1.22-10.356-2.448-14.734-4.211l.028.278z" fill="#FF8139"/><path d="M383.203 324v16.5c-4-4.801-5.333-11.667-5.5-14.5 3.2-.8 5-1.667 5.5-2z" fill="#DCB3AF"/><path d="M383.201 340.999c-4.4-8.4-5.5-13.5-5.5-15l-1.5 47.501c2 4.8 4.5 7.333 5.5 8l1.5-40.501zM435.416 392.07s3.968 15.689 1.877 24.253l-2.091 8.564-1.211-.883s2.105-7.376 2.546-10.071c.441-2.695.311-14.241-1.121-21.863zM349.396 382.034s-9.743 19.917-9.094 25.633l.698 5.708.816-.277a31.874 31.874 0 01-.088-8.141c.531-3.306 7.668-22.923 7.668-22.923z" fill="#D3662F"/><path opacity=".1" d="M400.202 304.994c3.3.938 13.111.534 16.5-.001 0 0-6.5 5-16.5.001z" fill="#000"/><path d="M418.701 228.5c13.2 5.6 15.167 29 16.5 33v76l7.5 2v-85c0-26-11-41-18.5-46.5-6-4.4-11.166-3.167-13-2-25-7-42 7-47 22.5-4 12.4-16.833 74-23 103 6.4-4.8 14.167-5.334 17.5-5 1.2 30.8 12.167 47 17.5 51.5l3.5-123.5c20.8-6.8 34.667-20.167 39-26z" fill="#2F2417"/><path d="M381.701 431c.8.8 3 3.666 4 5l-8.5-3-3-5.5c2.167.833 6.7 2.7 7.5 3.5z" fill="#DCB3AF"/><path d="M275.398 389.321c3.041.934 11.136 2.16 14.303 2.679-.912 2.491-4 5-5 5-2 0-6.389.496-8.163.885l-.38 1.168c-.76 2.336-5.321 12.069-5.321 14.015 0 1.946.38 7.786 0 10.511-.38 2.725-1.901 3.504-2.661 3.504s-1.14-6.229-1.52-8.176c-.38-1.946-1.141-6.228-.761-9.732.305-2.803-.886-4.023-1.52-4.282-.887 3.244-2.813 10.044-3.421 11.289-.76 1.558 0 8.176 0 9.733 0 1.557-.76 4.671-3.041 5.061-1.824.311-2.28-2.466-2.28-3.893-2.281 2.725-4.561 1.557-4.561 0v-6.229c0-2.492 1.013-8.046 1.52-10.511-1.14 1.168-2.281 6.618-3.801 8.564-1.52 1.947-3.421 1.168-3.041 0 .38-1.167 4.181-12.068 5.322-14.014 1.14-1.947 6.841-8.175 7.982-8.175 1.14 0 3.801-3.115 4.561-4.672.76-1.557 3.801 0 5.321-.779 1.521-.778 2.661-3.114 6.462-1.946z" fill="#F4C7C3"/><path d="M248.702 411.5c7.986-8.138 24.17-9.717 36.203-14.585 4.476-1.81 9.306-13.976 10.367-22.262-8.462-6.651-13.607-29.636-11.105-48.776 3.088-23.62 17.408-29.682 35.035-27.377 17.627 2.304 26.708 11.626 23.62 35.247-2.456 18.789-9.119 37.295-20.777 42.672-1.079 8.25-.399 17.556 3.512 20.496 10.377 7.797 23.903 9.085 31.496 17.719 16.149 18.366 11.649 75.865 11.649 75.865l-127.5.001s-19.435-48.209 7.5-79z" fill="#F4C7C3"/><path d="M317.639 315.029c22.579 7.642 24.46 24.75 22.579 33.434 11.115-26.747-8.974-38.644-20.408-41.249l-33.433 2.605-3.04 29.091 5.866-18.41c14.937 3.474 25.252-2.576 28.436-5.471z" fill="#DCB3AF"/><path d="M357.449 409.233c-10.833-6.193-19.582-7.5-31.429-12.315-1.094 2.736-11.943 9.546-22.81 14.894-2.109-1.409-12.677-6.36-18.484-14.894-19.271 0-33.536 6.756-41.523 14.894-22 22.418-30.5 80.188-30.5 80.188h182s-8.981-66.606-37.254-82.767z" fill="#fff"/><path d="M212.826 441.121c-1.813 3.444.636 7.926 2.087 9.737-.803.385-2.738 1.606-4.051 3.415-1.64 2.261-1.888 3.587-1.235 6.63.652 3.043-3.138 7.675 1.071 9.955 4.209 2.281 14.207 5.526 16.747 4.982 8.703-1.866 15.336-4.501 20.853-7.973 3.195-2.011 3.14-3.62 2.666-5.004l5.458-1.806c1.104-2.783-.235-4.406-1.043-4.869.247-1.326-.014-2.543-.783-3.652-.769-1.108-16.755-1.678-19.177-1.678-4.294 0-10.544-4.363-10.427-6.298.287-4.766 9.813-3.439 12.378-2.972 1.022.187 11.726 5.125 13.251 4.798 1.524-.326 1.771-1.652.871-3.369-.899-1.717-18.372-11.339-22.437-10.468-4.064.871-13.964 4.267-16.229 8.572z" fill="#E2BBA6"/><path d="M383.703 540l-6-48h-15.5l2.5 48h19z" fill="#F4C7C3"/><path d="M362.203 492h15.5c-11.6 0-13.5 27.667-13 41.5l-2.5-41.5z" fill="#DCB3AF"/><path d="M243.391 540.5l5.312-58.303h112.965l3.299 58.303H243.391z" fill="#fff"/><path d="M248.203 492h-16l-6.5 48h18l4.5-48z" fill="#F4C7C3"/><path d="M248.203 492h-15.5c11.2 0 12.333 27 11.5 40.5l4-40.5z" fill="#DCB3AF"/><path opacity=".1" d="M312.617 379.562a21.83 21.83 0 01-9.311-1.218s3.872 5.109 9.311 1.218z" fill="#000"/><path d="M318.115 310.328c17.816 8.24 25.814 17.099 22.102 37.701 5.568-10.301 9.521-25.794 11.486-40.529 1-7.5-14.288-11.567-17.257-12.228-14.252-14.896-56.959 3.002-65.743 7.228-3.563 11.727 11.554 28.04 14.895 37.152l1.476-6.82L288.203 317c9.502 2.852 24.592-4.295 29.912-6.672z" fill="#2F2417"/><path d="M390.121 439.696c1.478 2.808-.518 6.462-1.701 7.938.655.314 2.232 1.309 3.302 2.784 1.338 1.844 1.539 2.925 1.007 5.405-.532 2.481 2.558 6.257-.873 8.116s-11.582 4.505-13.653 4.061c-7.095-1.521-12.502-3.669-17-6.5-2.604-1.639-2.559-2.951-2.173-4.079l-4.45-1.473c-.9-2.268.193-3.591.851-3.969-.201-1.081.011-2.073.638-2.977.627-.903 13.659-1.368 15.634-1.368 3.5 0 8.595-3.557 8.5-5.134-.234-3.886-8-2.804-10.091-2.423-.833.152-9.559 4.178-10.802 3.912-1.242-.267-1.444-1.348-.711-2.747.734-1.4 14.978-9.244 18.291-8.534 3.314.711 11.385 3.478 13.231 6.988z" fill="#F4C7C3"/></svg>