<svg fill="none" xmlns="http://www.w3.org/2000/svg" viewBox="0 0 470 541"><path d="M173.001 362h296c-9 64.5-84 130.5-201 132s-158.5-44.5-158-84.5c.4-32 42.166-45 63-47.5z" fill="#fff"/><path fill="#fff" d="M300 416h93v7h-93zM90 156h93v7H90zM90 276h93v7H90zM183 102h7v314h-7z"/><path fill="#fff" d="M189 156h204v7H189z"/><path d="M190 90v64a2 2 0 002 2h12a2 2 0 002-2V90a2 2 0 00-2-2h-12a2 2 0 00-2 2z" fill="#C4C4C4"/><circle cx="197.5" cy="148.5" r="3.5" fill="#fff"/><path d="M206 90v64a2 2 0 002 2h12a2 2 0 002-2V90a2 2 0 00-2-2h-12a2 2 0 00-2 2z" fill="#FF8139"/><circle cx="213.5" cy="148.5" r="3.5" fill="#fff"/><path d="M256 90v64a2 2 0 002 2h12a2 2 0 002-2V90a2 2 0 00-2-2h-12a2 2 0 00-2 2z" fill="#FF8139"/><circle cx="263.5" cy="148.5" r="3.5" fill="#fff"/><path d="M272 90v64a2 2 0 002 2h12a2 2 0 002-2V90a2 2 0 00-2-2h-12a2 2 0 00-2 2z" fill="#C4C4C4"/><circle cx="279.5" cy="148.5" r="3.5" fill="#fff"/><path fill="#666A6A" d="M244.814 100.092l-6.85 1.444 11.549 54.796 6.85-1.444z"/><path fill="#C4C4C4" d="M237.594 100l-6.927 1.008 8.066 55.416 6.927-1.008z"/><path fill="#666A6A" d="M229.967 100l-6.967.674 5.395 55.74 6.967-.675z"/><circle cx="246.5" cy="276.5" r="3.5" fill="#fff"/><path d="M90 210v64a2 2 0 002 2h12a2 2 0 002-2v-64a2 2 0 00-2-2H92a2 2 0 00-2 2z" fill="#C4C4C4"/><circle cx="97.5" cy="266.5" r="3.5" fill="#fff"/><path d="M106 210v64a2 2 0 002 2h12a2 2 0 002-2v-64a2 2 0 00-2-2h-12a2 2 0 00-2 2z" fill="#FF8139"/><circle cx="113.5" cy="266.5" r="3.5" fill="#fff"/><circle cx="246.5" cy="276.5" r="3.5" fill="#fff"/><path fill="#666A6A" d="M143.814 220.092l-6.85 1.444 11.549 54.796 6.85-1.444z"/><path fill="#C4C4C4" d="M136.594 220l-6.927 1.008 8.066 55.416 6.927-1.008z"/><path fill="#666A6A" d="M128.967 220l-6.967.674 5.395 55.74 6.967-.675z"/><path d="M392.363 210v64a2 2 0 01-2 2h-12a2 2 0 01-2-2v-64a2 2 0 012-2h12a2 2 0 012 2z" fill="#C4C4C4"/><circle r="3.5" transform="matrix(-1 0 0 1 384.863 266.5)" fill="#fff"/><path d="M376.363 210v64a2 2 0 01-2 2h-12a2 2 0 01-2-2v-64a2 2 0 012-2h12a2 2 0 012 2z" fill="#FF8139"/><circle r="3.5" transform="matrix(-1 0 0 1 368.863 266.5)" fill="#fff"/><path fill="#666A6A" d="M338.549 220.092l6.85 1.444-11.549 54.796-6.85-1.444z"/><path fill="#C4C4C4" d="M345.768 220l6.927 1.008-8.066 55.416-6.927-1.008z"/><path fill="#666A6A" d="M353.395 220l6.967.674-5.395 55.74-6.967-.674z"/><path fill="#fff" d="M393 102h7v271h-7zM189 276h204v7H189z"/><path d="M394.265 423.733c9.6-5.989-4-8.152-12-8.484l-122.5 8.484-41 10.481 19 50.408c9.333-6.987 26.4-20.163 34-24.954 9.5-5.989 31-2.995 57.5-7.986s53-20.463 65-27.949z" fill="#E1E1E1"/><path d="M448.5 372.474c12.8-2.795 18.833-8.646 20-11.474l-7-3L332 390.441v9.483c5.667 1.331 18.8 2.196 26-4.991 9-8.984 74.5-18.966 90.5-22.459z" fill="#000C0E"/><path d="M360.449 371.022a9.013 9.013 0 00-2.979-1.972 83.06 83.06 0 00-9.492-1.036c-1.692 0-8.408 2.929-8.904 3.255-.497.327-.79 1.972 1.794 1.893 2.585-.079 19.581-2.14 19.581-2.14z" fill="#E5B9B7"/><path d="M268.878 300.252a80.127 80.127 0 018.667 7.413c3.465 3.537 10.383 7.165 15.033 6.23l-10.056-21.472s-5.981-3.65-8.769-4.112c-2.787-.462-14.254 1.341-18.373 3.087a1.126 1.126 0 00-.643 1.566s-1.433.507-1.535 1.273c-.203 1.475 2.02 1.442 4.063 1.34 0 0-.373 1.499 1.952 1.668 3.476-.173 6.9.893 9.661 3.007z" fill="#F4C7C3"/><path d="M287.375 313.467a22.565 22.565 0 01-2.9-1.127c.935.452 1.905.828 2.9 1.127zM288.221 313.693c-.271-.068-.554-.136-.836-.226.52.158.836.226.836.226zM284.475 312.386l-.678-.316.678.316z" fill="#E5B9B7"/><path d="M280.638 293.324s-.971-.552-2.258-1.228a24.482 24.482 0 00-5.857-2.32c-2.72-.428-9.378 1.295-11.568 1.746-2.189.45-6.185 1.442-6.185 1.442.237 1.464-1.546 1.554-1.546 1.554.147 1.048 1.558 1.037 2.709 1.127.922.008 1.842-.091 2.742-.293a2.61 2.61 0 01-.643 1.634c.37.21.793.312 1.219.292a17.53 17.53 0 017.9 1.87c3.273 1.927 6.512 4.991 11.105 9.204a23.07 23.07 0 005.485 3.707h.09l.678.315c.939.442 1.908.818 2.9 1.126.282.091.564.158.835.226l-7.606-20.402z" fill="#E5B9B7"/><path d="M270.096 288.199c-4.515-.079.587-3.098 3.284-3.673 2.697-.574 8.712-1.419 10.608 1.127 1.896 2.546 16.218 22.846 18.453 23.781 2.234.935 15.856 2.918 15.856 2.918 25.235 2.884 35.11.799 40.889-1.758 5.778-2.557 6.455-18.024 15.281-27.296 8.825-9.271 8.238-18.903 15.698-16.785 8.6 2.433 8.476-.406 8.476-.406l.722-1.295a54.977 54.977 0 003.567-14.375c-3.747.8-3.454 1.059-6.907.124-20.315-5.553-1.501-59.909-1.501-59.909 5.586-14.825 42.818-2.996 47.502 5.295 4.514 7.976-2.032 20.131-2.032 20.131 4.65-.169 5.18 3.583 5.18 3.583.948 8.066-10.665 13.293-10.665 13.293l-1.128 1.419c-10.316 14.499-7.731 24.784-5.813 29.166.429.912 4.063 3.042 7.788 2.974 4.74-.068 17.842.259 24.445 16.549 12.538 30.901.97 76.762-5.7 81.245-6.67 4.484-70.491 13.519-70.491 13.519l-6.5 4.337-7.72 2.253c-2.471.822-7.358 3.019-13.543 4.664-7.753 2.027-8.882 2.489-10.981 2.748-2.359.282-1.975.507-4.943.778-2.257.202-2.257-1.611-2.257-1.611l-3.905 1.002c-3.183-.214-1.874-3.841-1.874-3.841a2.416 2.416 0 01-1.524-1.727 2.398 2.398 0 01.622-2.216c.677-.552 6.771-4.044 8.058-4.867 1.286-.822 6.376-3.661 6.376-3.661s-7.392 1.994-7.81 2.557a74.21 74.21 0 01-6.681 4.968c-1.343.676-2.663-1.498-1.806-2.636.858-1.137 5.824-5.948 8.092-6.939 2.269-.991 6.196-3.954 8.036-4.799 1.839-.845 2.257.811 7.55.665 5.293-.147 3.386-.068 4.21-.237.823-.169 1.963-.845 3.385-1.127a10.46 10.46 0 014.108.71l12.956-2.996h-16.77c1.433-33.774 4.13-51.472 4.13-51.472s5.451 28.637-13.881 25.911c-19.333-2.727-52.039-21.157-53.63-22.137-.711-.439-2.619-1.566-4.819-3.21-10.474-1.386-7.483-10.579-13.916-10.579-7.437 0-8.915-.428-8.915-1.802s7.426-2.084 12.267-2.253c-.801-3.47-.914-6.759-2.144-9.812-1.422-3.571-6.331-2.242-9.683-2.298z" fill="#F4C7C3"/><path d="M256.521 293.039l15.074-5.725a3 3 0 013.957 2.006l1.988 7.197c.482 1.743-.669 3.561-2.404 4.068-5.212 1.524-12.635 4.563-13.836 4.786-1.496.277-2.407-.921-2.676-1.555a837.357 837.357 0 01-2.735-8.039c-.622-1.89.162-2.613.632-2.738z" fill="#E3C14C"/><path opacity=".1" d="M393.065 249.255c-4.638-4.597-1.919-17.529-2.81-22.182-.892-4.652 6.839-8.821 6.658-20.683-.135-8.855 5.44-18.295 8.284-22.531-5.09.642-9.119 2.704-10.676 6.838 0 0-16.838 48.576-1.456 58.558zM402.964 267.493c1.637-1.509 4.311-18.024 4.311-18.024l-4.311 1.126a54.856 54.856 0 01-3.566 14.375l-.722 1.295s-2.833 1.893-8.532 1.037l1.264.428c3.882.845 9.92 1.273 11.556-.237z" fill="#000"/><path d="M328.816 313.365c17.64 1.251 25.472-.563 30.37-2.737 5.778-2.569 4.052-18.881 12.076-31.543 6.85-10.826 11.444-14.645 18.903-12.504 1.445.405-1.06 0 .125.169v-1.352c3.735-1.96 9.807-2.524 9.807-2.524-.124.349-1.004 3.019-1.456 3.267-.451.248 2.776.755 2.776.755a10.447 10.447 0 002.777 3.763l2.686 16.684 6.365-15.096c8.137-1.735 13.87-9.609 13.87-9.609a9.044 9.044 0 014.515 1.678c.609-.09 1.873 2.388 2.595 2.253 4.594-1.126 20.315 1.127 28.124 16.808 2.991 6.095 6.952 21.99 7.257 31.994 0 0 1.332 26.113-.903 45.714 0 0-16.24 4.506-23.858 6.174-11.872 2.816-32.04 6.105-45.989 8.246l-1.321-15.67-20.077 6.016h-16.771c1.433-33.774 4.131-51.472 4.131-51.472s5.451 28.637-13.882 25.911c-6.941-.981-15.597-3.988-23.926-7.481l1.806-19.444z" fill="#00181B"/><path d="M397.287 356.985l1.613 18.52 17.719-2.839-1.478-22.531a2.83 2.83 0 00-2.528-.912c-1.524.304-3.036 3.132-3.036 3.132a2.05 2.05 0 00-1.919-.902c-1.219.192-2.325 2.513-2.325 2.513a3.118 3.118 0 00-3.385-2.254c-2.585.384-4.661 5.273-4.661 5.273zM407.659 288.863l6.771-10.454 2.799 9.97 9.785-11.671-9.672 13.248s-1.4-3.278-2.98-3.278-2.076 4.247-6.703 2.185zM405.197 288.356l-2.516-10.42-4.515 6.083-1.76-7.311 1.399 9.012a2.693 2.693 0 002.146.447 2.695 2.695 0 001.77-1.292c1.501-2.455 3.476 3.481 3.476 3.481z" fill="#E0DEDE"/><path d="M415.142 350.18s11.003-5.632 13.915-6.612l8.566-2.873-4.052-24.198s3.555 14.352.971 16.898c-2.584 2.546-8.047.259-11.286 7.334-3.239 7.074-8.114 9.451-8.114 9.451zM362.492 331.874c8.194-8.663-7.606-12.989-.575-15.118 7.031-2.129 4.435-14.971 4.435-14.971l-1.535 12.594s5.451 28.637-13.881 25.911a58.988 58.988 0 01-7.167-1.544c3.047.271 12.031.214 18.723-6.872z" fill="#E0DEDE"/><path d="M404.262 262.615l-.012.012.012-.012z" fill="#F4EBEA"/><path d="M309.913 311.056c4.142.71 8.385 1.329 8.385 1.329 25.235 2.884 34.631.872 40.703-.885 9.435-2.783 4.237-25.498 13.063-34.792 8.825-9.294 10.642-12.279 18.057-10.139 7.415 2.141 9.029-3.165 9.932-3.672-.204 1.419 2.573 6.432 4.807 7.142l1.648 6.038 5.643-6.027c7.189-1.408 14.965-7.412 14.965-7.412.44.912-1.129 5.937 7.054 3.886 4.593-1.126 19.016.248 25.618 16.538 13.78 33.965 4.867 71.196-5.787 79.938-6.207 5.092-70.403 14.826-70.403 14.826l-.09 2.861-6.411 1.476c.373-8.742-5.744-14.859-5.744-14.859l6.105-1.454h-16.77c1.433-33.773 4.13-51.471 4.13-51.471s5.451 28.637-13.881 25.91c-13.148-1.858-32.469-10.961-44.015-16.897 5.553-5.171 2.991-12.336 2.991-12.336z" fill="#fff"/><path d="M404.262 262.615l-.012.012.012-.012z" fill="#F4EBEA"/><path d="M404.262 262.615l-.012.012.012-.012z" fill="#292289"/><path d="M462.687 282.532c-4.334-12.684-17.515-17.089-23.858-17.664l-11.749-2.253s-6.771 26.834-19.874 44.701l-2.009 43.878-28.688 14.645.18.181a15.753 15.753 0 014.154 12.335l-.091 2.861 2.675-.585s39.579-8.427 59.679-12.978c1.671-.383 3.205-.743 4.571-1.126l18.204-4.507s9.096-43.506-3.194-79.488z" fill="#00181B"/><path d="M315.917 312.025l2.381.36c25.235 2.884 35.11.8 40.889-1.757 5.778-2.557 2.629-18.52 7.166-30.506 3.036-8.01 6.241-16.29 18.452-17.507l15.293.259a13.955 13.955 0 01-1.501 3.38l-.226.135c-.856.365-1.744.652-2.652.856 0 0-6.49 20.12-3.973 39.632l-8.396 56.225-6.84 2.737h-15.8c1.434-33.796 1.919-30.506 1.919-30.506s7.663 7.717-11.67 4.99c-11.003-1.554-27.83-3.965-39.297-9.575 1.738-2.85 5.316-12.077 4.255-18.723z" fill="#00181B"/><path d="M409.509 313.872l.881-5.824 3.261 4.946a63.718 63.718 0 0010.304-14.386 56.447 56.447 0 01-10.259 15.771l-3.216-4.889-.971 4.382zM390.471 312.126l-1.513-5.632-3.498 3.379s-2.562-10.015-2.043-18.092a51.241 51.241 0 001.84 19.827l3.385-3.47 1.829 3.988z" fill="#1C2223"/><path d="M415.028 347.184s6.444-3.729 8.927-3.515c2.483.214 8.306 0 8.306 0s2.991-15.569 2.991-22.26c0 0-.677 9.215-3.081 12.887-2.404 3.673-5.045 2.141-9.232 5.441-4.187 3.301-3.724 5.25-7.911 7.447z" fill="#000C0E"/><path d="M311.639 330.759s-.519-1.352 0-4.968l1.896.935a25.432 25.432 0 01-1.896 4.033z" fill="#F5F5F5"/><path opacity=".1" d="M383.473 362.302l3.623-24.266 3.386-22.62 1.275-8.551a51.092 51.092 0 01-.452-14.25c.689-6.872.384-15.513 3.86-23.477 0 0-1.523 7.029-1.016 12.065.317 3.165 2.675 12.696 1.129 20.052-1.546 7.356-4.119 9.193-3.623 19.298.497 10.105.993 26.62-8.182 41.749z" fill="#000"/><path d="M384.309 231.737a29.257 29.257 0 012.539-7.12s.125 3.459 3.386 2.456c4.819-1.476 11.726-1.746 19.186 5.362 7.46 7.109 18.057-3.3 19.671-8.775 1.614-5.475 6.444-18.318 2.878-21.742-3.566-3.425-12.753 1.509-22.662-1.915-9.909-3.425-14.085-11.48-15.191-7.514a62.457 62.457 0 01-2.099 6.376s-2.426-14.307 1.242-19.917c3.668-5.61 10.574-4.788 16.601-2.591 6.027 2.196 12.606 1.126 15.8 1.126 2.849.14 5.627.938 8.114 2.332a18.412 18.412 0 016.219 5.7c4.39 6.422 9.458 5.329 9.999 11.266.542 5.936-7.821 17.314-9.999 19.399-1.467 1.385-5.27 8.313-8.611 15.568.294 1.037 1.129 1.679 3.081 1.262a51.713 51.713 0 01-5.801 10.679c-2.979 4.056-12.234 10.139-25.641 10.274a20.468 20.468 0 01-9.458-1.802c-9.581-4.608-10.552-15.366-9.254-20.424z" fill="#594423"/><path d="M417.646 244.118c5.282-.958 9.83-3.38 11.635-11.367 1.806-7.987 12.584-25.009 15.225-32.072 2.641-7.064-5.519-6.94-6.106-12.088-.372-3.211-3.092-6.759-5.078-9.012a18.434 18.434 0 016.681 5.97c4.39 6.421 9.457 5.329 9.999 11.266.542 5.936-7.821 17.314-9.999 19.398-1.467 1.386-5.271 8.314-8.611 15.569.293 1.037 1.128 1.679 3.081 1.262a51.713 51.713 0 01-5.801 10.679c-2.979 4.056-12.234 10.139-25.641 10.274-1.895.07-3.791-.1-5.643-.507 8.904 1.183 14.987-8.415 20.258-9.372z" fill="#3E2F1C"/><path d="M429.711 178.069s-5.18 4.506-14.672 3.706c-3.363-.259-12.865-6.173-16.714-3.706-3.848 2.467-5.756 6.601-4.209 14.397a62.628 62.628 0 01-2.1 6.376s-2.426-14.284 1.242-19.894c3.668-5.61 10.575-4.788 16.601-2.591 6.027 2.196 12.606 1.126 15.8 1.126 1.371.016 2.733.213 4.052.586zM384.309 231.737a29.257 29.257 0 012.539-7.12s.124 3.459 3.386 2.456a17.294 17.294 0 0113.328 1.127c-.349-.079-12.12-2.851-15.326 2.433-3.205 5.283-2.686 13.113 1.366 18.869-5.846-5.249-6.388-13.518-5.293-17.765z" fill="#674F2D"/><path d="M279.158 300.489a54.29 54.29 0 00-6.771.868c-1.479.484-2.088 1.002-2.009 1.791.079.788 1.659 1.397 3.668 1.352l4.108-.09 1.004-3.921z" fill="#F4C7C3"/><path d="M353.266 330.5l.5 2 19 2.5c0-1.6-.667-3.333-1-4l-2 3-2-3-2 2.5-1.5-2.5-1.5 2.5-2-3-1.5 2.5-2-2.5-1.5 2-2.5-2z" fill="#fff"/><path d="M350.766 407.263h-93a5 5 0 00-5 5v15.953a5 5 0 005 5h93v-25.953z" fill="#F5F5F5"/><path d="M304.766 356.855l79 6.488-17.5.499-9 41.425-6 1.996-81.5 2.496v-9.982l14-35.935 21-6.987z" fill="#F5F5F5"/><path d="M383.266 363v53.403l-26.5-10.98 9.5-41.924 17-.499z" fill="#E1E1E1"/><path d="M309.77 396.893l5.976.737-1.698 4.928-5.975-.737 1.697-4.928zM301.298 396.057l5.975.737-1.697 4.928-5.976-.737 1.698-4.928zM292.345 394.702l5.975.737-1.698 4.928-5.975-.737 1.698-4.928zM283.391 393.348l5.976.737-1.698 4.927-5.975-.737 1.697-4.927zM307.223 404.552l5.976.737-1.698 4.927-5.975-.737 1.697-4.927zM298.751 403.716l5.975.736-1.697 4.928-5.976-.737 1.698-4.927zM289.798 402.361l5.975.737-1.697 4.927-5.976-.736 1.698-4.928zM280.845 401.007l5.975.736-1.698 4.928-5.975-.737 1.698-4.927zM304.223 411.539l5.976.737-1.698 4.928-5.975-.737 1.697-4.928zM295.751 410.703l5.975.737-1.697 4.927-5.976-.737 1.698-4.927zM286.798 409.348l5.975.737-1.697 4.928-5.976-.737 1.698-4.928z" fill="#152D5D"/><path d="M277.845 407.994l5.975.737-1.698 4.927-5.975-.737 1.698-4.927z" fill="#fff"/><path d="M277.845 407.994l5.975.737-1.698 4.927-5.975-.737 1.698-4.927z" fill="#fff"/><path d="M383.266 395.784l-32.5 11.479v23.458l32.5-13.476v-21.461z" fill="#E1E1E1"/><path d="M361.638 358.352c-5.6 4.392-5.333 13.476-4.5 17.468l-19.372-1.996c-1.167-4.658-1.028-13.475 7.372-19.465 8.4-5.989 9.294-17.8 8.628-21.96l18.872 1.997c1 10.481-4 18.466-11 23.956z" fill="#fff"/><path d="M291.766 369.332l32 2.995-6.5 22.958-33.5-3.993 8-21.96z" fill="#00181B"/><path transform="matrix(-.9978 -.0664 -.06664 .99778 370.766 337.39)" stroke="#000" d="M0-.5h15.033"/><path transform="matrix(-.99506 -.09932 -.09968 .99502 365.766 340.998)" stroke="#000" d="M0-.5h10.05"/><path stroke="#000" d="M367.69 345.494l-13-2M362.657 349.488l-9-2"/><path transform="matrix(-.9923 -.12382 -.12425 .99225 316.766 392.06)" stroke="#fff" d="M0-.5h6.822"/><path transform="matrix(-.9923 -.12382 -.12425 .99225 309.15 391.215)" stroke="#fff" d="M0-.5h6.822"/><path transform="matrix(-.9923 -.12381 -.12426 .99225 301.535 390.371)" stroke="#fff" d="M0-.5h6.822"/><path transform="matrix(-.9923 -.12382 -.12425 .99225 293.766 389.142)" stroke="#fff" d="M0-.5h6.822"/><path d="M188.323 493.637c0-.318-.09-.636-.139-.993.039.357.099.675.139.993z" fill="#000" opacity=".3"/><path d="M251.219 259.937l-12.266 2.096.618 9.338c.119 5.125-.289 9.238-1.553 11.185-5.297 8.175-7.408-10.927-11.788-10.51-4.381.417-6.421 5.404-3.275 13.907 3.146 8.503-8.164 10.868-9.14 15.636-.975 4.768-8.572 31.619 0 40.807l13.132-3.973a39.712 39.712 0 01-8.124-6.348c-4.221-6.556-.577-25.122-.577-25.122s15.71 10.261 24.889 2.175a11.927 11.927 0 001.991-2.304c5.227-7.321 5.973-25.907 6.123-29.891.149-3.983-.03-16.996-.03-16.996z" fill="#CEA999"/><path d="M185.516 333.923s-4.759 3.973-9.05 15.894c-4.291 11.92 6.87-6.864 6.87-6.864l1.314-6.646.866-2.384z" fill="#292289"/><path d="M234.611 234.773c1.066 6.507 2.768 16.957 4.341 27.258-.996-9.705-2.837-20.453-4.112-27.178l-.229-.08z" fill="#CEA999"/><path d="M265.298 425.772s-10.772-1.451-19.394-12.179c0 0 2.151 9.02-9.348 19.351-7.965 7.132-1.752 45.128 1.603 51.834 0 0-31.779 31.33-83.509 6.238 0 0 12.993-47.314 13.938-74.065 1.165-30.377 4.68-49.907 15.312-78.585 10.633-28.679 13.152-44.503 11.708-59.602-1.443-15.099-.717-38.741 25.885-44.453 26.602-5.712 29.748 25.589 29.748 25.589s2.349 40.023-8.114 49.191c-9.17 8.086-24.89-2.175-24.89-2.175s-3.643 18.566.578 25.122c0 0 5.824 6.665 20.21 12.397 15.023 5.96 17.432 49.668 25.397 57.675M334.777 424.4l-11.03 2.239 2.735 13.424c10.099-1.03 30.6-3.329 31.821-4.276 1.526-1.183 10.179-4.25 12.129-5.52 1.56-1.016.817-2.496.25-3.109.537-.254 2.154-1.136 4.325-2.625 2.17-1.489 1.128-2.414.335-2.69.65-.423.922-.896 2.143-1.842 1.526-1.184.154-3.174-1.119-2.916-1.018.207-1.567.646-2.641 1.155.677-1.011.357-3.31-1.902-2.851-2.281.463-11.25 5.521-13.371 5.952-2.121.43-9.419 1.475-8.402-.042.813-1.213 6.898-3.002 9.839-3.745.962-.341 2.918-1.291 3.052-2.367.135-1.076-.794-1.732-1.276-1.925l-15.272 3.1c-3.818.775-9.071 7.521-11.616 8.038z" fill="#E2BBA6"/><path d="M240.266 275.503c2.8-.799 8.5-2.995 11-3.993v-4.492l-14-17.967-48 74.365-4.5 12.976 2 4.492c6.4 3.593 16 1.497 20 0-.5-3.327-1.2-11.479 0-17.468 1.2-5.99 7.166-9.483 10-10.481h15.5l5-.999c-1.6-24.355 1.333-34.437 3-36.433z" fill="#D2AB96"/><path d="M236.865 481.219s7.524 24.998 6.668 59.13H135l10-26.335 11.532-30.162s44.154 22.638 80.333-2.633z" fill="#E1E1E1"/><path d="M326.764 424.499c-13.6-2.464-34.915-7.997-52.765-25.093-13.759-13.172-19.912-48.933-34.975-54.933a70.102 70.102 0 01-15.481-8.334c-23.595 7.778-34.218 5.036-38.907.149-.249.685-7.377 8.602-11.528 19.44-10.952 28.559-6.969 42.248-8.064 72.615-.996 26.751-8.523 55.509-8.523 55.509 7.278 33.188 81.637.924 81.637.924-2.927-7.788-9.537-44.702-1.603-51.834 11.499-10.331 9.349-19.351 9.349-19.351 8.621 10.749 22.062 16.888 22.062 16.888 20.379 11.692 47.618 12.238 58.798 11.284v-17.264z" fill="#152D5D"/><path d="M326.765 441.763v-6.596s-16.775 2.364-30.862-4.242c-14.088-6.606-26.642-7.599-35.911-10.351-9.268-2.751-18.348-20.324-18.348-20.324-.796 18.228-12.773 21.099-20.061 35.96-5.406 11.026-1.513 40.152.857 54.456 9.268-3.099 15.72-5.891 15.72-5.891-2.927-7.787-9.538-44.701-1.603-51.833 11.499-10.331 9.348-19.351 9.348-19.351 8.622 10.748 22.062 16.887 22.062 16.887 20.379 11.722 47.618 12.239 58.798 11.285z" fill="#0C2048"/><path d="M237.466 272.618c4.338-.866 12.29-3.969 15.724-5.412.543-9.021-1.626-27.495-16.809-33.557-15.182-6.062-30.365-1.985-35.787 2.165-28.738-3.248-29.1 57.011-25.485 83.893 20.605 18.943 53.5 5.593 61.815 1.624-4.772-30.743-2.892-53.403.542-62.785 2.603 6.495 1.084 12.088 0 14.072z" fill="#E9D694"/><path fill-rule="evenodd" clip-rule="evenodd" d="M243.047 237.294c-8.563-3.738-22.613-6.597-35.782.777-11.509 6.444-7.574 15.562-3.325 25.412 3.321 7.695 6.834 15.837 3.325 23.499-8 17.468-7.5 22.958-2 42.423l.05.18c-10.25.344-21.059-1.919-29.705-9.868-3.614-26.882-3.253-87.14 25.485-83.893 5.423-4.149 20.605-8.227 35.788-2.165a23.093 23.093 0 016.164 3.635z" fill="#D6C589"/><circle cx="273.029" cy="296.837" r="1.5" transform="rotate(-75 273.029 296.837)" fill="#FAFAFC"/><circle opacity=".6" cx="270.837" cy="297.286" r="1.5" transform="rotate(-75 270.837 297.286)" fill="#FAFAFC"/></svg>