<svg width="478" height="541" viewBox="0 0 478 541" fill="none" xmlns="http://www.w3.org/2000/svg">
<path d="M159.273 488.485C167.989 492.19 177.535 521.015 181.218 534.964L186.062 535.585C180.764 521.429 170.008 491.802 169.369 486.545C168.57 479.973 184.733 469.106 192.636 445.858C198.958 427.26 187.563 412.863 179.563 406.986C171.008 413.977 155.018 437.158 151.469 434.115C147.92 431.073 164.011 413.08 173.716 401.385C160.974 388.108 138.616 380.716 130.543 379.682C126.09 388.814 116.298 406.32 112.749 403.277C109.199 400.235 116.674 385.452 120.855 378.44C99.2209 373.081 75.2406 371.517 65.9546 371.406L71.1412 420.589C76.1892 419.618 88.3046 417.288 96.3814 415.735C106.477 413.794 110.71 419.188 107.277 420.366C104.53 421.307 84.4559 427.684 74.7622 430.755C76.8433 445.254 85.8286 459.667 90.061 465.061C100.429 460.999 122.215 452.362 126.416 450.312C131.668 447.751 139.334 451.968 134.082 454.529C129.881 456.578 109.84 468.674 100.345 474.466C128.985 494.308 148.378 483.855 159.273 488.485Z" fill="#00B67A"/>
<path d="M161.602 524.915C166.432 523.36 180.427 531.71 186.82 536.079L189 534.631C181.88 530.745 167.113 522.494 165.007 520.585C162.374 518.198 165.098 508.115 160.127 495.906C156.15 486.139 146.477 484.294 141.173 484.716C140.167 490.555 141.841 505.575 139.335 505.586C136.829 505.596 137.019 492.647 136.838 484.495C127.014 483.577 115.365 488.422 111.733 490.835C113.141 496.105 115.329 506.646 112.823 506.657C110.317 506.667 108.147 498.044 107.375 493.731C96.734 499.148 86.4772 506.928 82.6789 510.141L102.064 528.284C103.766 526.118 107.851 520.921 110.575 517.457C113.98 513.126 117.589 513.83 116.613 515.513C115.832 516.859 109.947 526.492 107.102 531.139C113.04 536.294 121.743 538.991 125.352 539.695C128.121 534.408 133.905 523.257 134.886 520.951C136.111 518.069 140.697 517.09 139.471 519.973C138.49 522.279 134.628 534.221 132.82 539.904C151.388 537.907 155.564 526.859 161.602 524.915Z" fill="#00B67A"/>
<path d="M212.5 81.2608C269.7 77.2608 310 120.261 323 142.261H18C28.6667 125.761 59.5 96.4607 97.5 111.261C145 129.761 141 86.2608 212.5 81.2608Z" fill="white"/>
<path d="M346.285 181.166C309.902 178.62 284.269 205.994 276 220H470C463.215 209.496 443.603 190.843 419.433 200.265C389.22 212.042 391.764 184.349 346.285 181.166Z" fill="white"/>
<rect x="298.426" y="121.915" width="6" height="172.153" transform="rotate(-8.76981 298.426 121.915)" fill="white"/>
<path d="M233.869 175.887C200.17 158.204 158.272 177.885 148.493 189C141.272 117.067 177.829 70.3614 200.396 56H386.192H396.346C454.643 61.6197 475.328 112.197 473.448 144.791C436.74 118.416 410.764 140.795 402.364 155.282C365.957 120.514 328.271 147.164 316.988 161.651C275.165 140.071 243.021 159.403 233.869 175.887Z" fill="#081B42"/>
<path d="M286.064 20.8121C231.064 27.4787 192.064 59.1827 186.564 68.8125L461.564 100.312C433.564 43.3139 369.064 10.7515 286.064 20.8121Z" fill="#081B42"/>
<path d="M182.653 336.131C190.504 325.607 210.735 326.279 223.71 318.86C228.538 316.1 232.163 301.47 232.089 291.851C221.402 285.573 211.969 260.143 211.858 237.916C211.72 210.484 225.22 188.455 245.691 188.353C266.162 188.25 279.869 210.372 280.007 237.803C280.116 259.624 275.382 281.773 262.913 289.716C262.961 299.297 265.179 309.809 270.097 312.559C283.146 319.847 301.447 317.041 308.782 327.895C328.805 357.581 329.917 415.894 329.917 415.894L174.833 445.073C174.833 445.073 156.691 375.441 182.653 336.131Z" fill="#E2BBA6"/>
<path d="M248.37 220.349C272.204 217 280.116 244.799 279.315 254.999C287.853 222.757 263.086 212.295 249.636 211.095L211.89 219.25L212.931 252.916L216.502 227.201C234.084 228.85 240.204 220.349 248.37 220.349Z" fill="#CBA895"/>
<path d="M308.396 321.671C295.075 316.284 284.889 316.149 270.624 312.49C269.801 315.782 265.203 325.5 248.203 327C244.703 327 231.455 327.729 223.505 318.89C201.517 321.877 189.98 325.208 182.129 335.731C156.432 370.174 173.936 445.198 173.936 445.198L376.792 407.698C376.792 407.698 343.162 335.73 308.396 321.671Z" fill="#142B5A"/>
<path d="M198.203 540L191.846 439.452L324.52 404.273L336.702 540L198.203 540Z" fill="#142B5A"/>
<path d="M167.483 444.493C166.497 426.075 167.254 380.774 169.204 372.5L224.953 387.971C219.953 399.165 211.34 428.157 214.371 430.504C221.297 435.869 250.815 457.004 272.33 469.458L263.486 494.779C193.636 474.456 175.461 454.492 167.483 444.493Z" fill="#142B5A"/>
<path d="M193.703 466C203.37 469.666 223.103 477 224.703 477C226.303 477 229.036 473.333 230.203 471.499L234.703 473.5L233.203 479C231.87 480.833 228.603 484.5 226.203 484.5C223.803 484.5 203.87 478.833 194.203 476L193.703 466Z" fill="#00181B"/>
<path opacity="0.1" d="M252.641 294.763C249.083 295.565 245.393 295.584 241.827 294.817C241.827 294.817 247.038 300.046 252.641 294.763Z" fill="black"/>
<path d="M248.185 214.91C271.204 210.5 280.29 230.421 279.248 254.504C284.005 241.887 300.204 209.5 284.204 201.5C278.82 198.808 272.908 199.795 264.486 195.2C257.704 191.5 253.596 184.018 241.204 184C228.207 183.98 216.5 200.334 211.704 203.5C193.619 210.891 208.119 243.842 213.343 253.722L213.971 245.71L216.974 223.293C228.258 225.075 241.012 216.284 248.185 214.91Z" fill="#C09550"/>
<path d="M282.704 210C288.704 214 287.871 228.667 286.704 235.5C299.704 198.5 282.704 201.5 270.704 198C258.704 194.5 262.704 191.5 249.704 185.5C239.304 180.7 228.704 187.5 224.704 191.5C229.537 188.5 241.804 185.2 252.204 196C265.204 209.5 275.204 205 282.704 210Z" fill="#A77F40"/>
<path d="M331.703 294L330.203 300.5L359.703 300.5L359.703 299L331.703 294Z" fill="#142B5A"/>
<path d="M363.703 292.5C367.303 291.3 369.87 288.333 370.703 287L361.203 286L358.203 299L362.703 300L363.703 292.5Z" fill="#E2BBA6"/>
<path d="M328.181 252.729C326.066 253.598 317.583 261.836 313.606 265.846L315.356 289.487C319.193 291.595 327.373 295.483 329.402 294.174C331.939 292.538 337.99 291.359 337.79 287.401C337.59 283.443 340.341 282.907 341.241 278.735C342.141 274.563 340.277 273.784 339.848 271.583C339.419 269.383 341.298 267.304 338.455 264.431C335.611 261.559 335.84 259.802 335.518 258.151C335.197 256.501 330.825 251.643 328.181 252.729Z" fill="#CBA895"/>
<path d="M199.703 421.5C201.303 423.5 210.37 430 214.703 433C209.703 423 205.203 415.5 203.703 410.5C202.503 406.5 204.203 394.5 205.203 389C202.703 399 198.103 419.5 199.703 421.5Z" fill="#00181B"/>
<path d="M306.181 289.621C306.261 290.964 304.469 298.52 303.563 302.131L322.294 305.498L324.151 289.665C324.83 288.501 326.12 285.055 325.852 280.579C325.516 274.984 318.198 265.317 321.454 263.437C324.71 261.557 336.235 266.48 336.559 262.53C336.884 258.58 333.527 258.782 331.815 258.323C330.103 257.865 315.187 252.584 313.05 254.396C310.913 256.209 304.703 265.004 304.905 268.361C305.106 271.718 307.221 278.89 305.711 281.788C304.2 284.686 306.08 287.942 306.181 289.621Z" fill="#E2BBA6"/>
<path d="M440.201 255L424.701 222.5L371.701 249L365.701 336.5L436.201 338L440.201 255Z" fill="black"/>
<path d="M458.878 351.384C452.336 340.909 428.327 338.862 416.74 330.898C412.428 327.936 409.201 305.5 413.701 305.5C428.312 300.777 437.302 277.871 439.133 257.042C441.394 231.337 430.451 209.637 411.269 207.949C392.086 206.262 377.516 225.935 375.256 251.64C373.457 272.087 379.201 294 390.201 301C389.412 309.977 389.383 321.583 384.558 323.778C371.759 329.597 348.998 324.255 341.277 333.861C320.2 360.134 317.412 423.074 317.412 423.074L456.381 453.82C456.381 453.82 472.923 373.838 458.878 351.384Z" fill="#F4C7C3"/>
<path d="M428.701 261.5C429.901 272.7 429.201 286.5 428.701 292C431.901 287.599 434.701 280.5 435.701 277.5L435.701 261.5C431.701 237.1 422.701 229.333 418.701 228.5C406.701 243.3 387.701 251.667 379.701 254L378.701 284.5C379.101 286.1 381.201 290.166 382.201 292L384.701 258.5C399.501 253.7 412.535 242.167 417.201 237C420.535 240.5 427.501 250.299 428.701 261.5Z" fill="#DCB3AF"/>
<path d="M464.846 467.902C466.488 460.481 468.203 440 468.203 428.5L442.459 420.957L438.894 437.067C442.741 437.918 388.266 444.472 356.091 447.937L355.296 467.733C357.737 468.273 462.794 477.177 464.846 467.902Z" fill="#FF8139"/>
<path d="M427.225 471.999C429.472 461.845 425.117 451.626 427.225 444.411L346.185 426.481L317.468 396.572L311.333 447.447C319.703 447.422 338.536 460.789 329.701 478.499C320.867 496.209 311.333 518.999 311.333 539.999L436.701 539.999C436.701 528.999 434.226 515.591 430.201 501.999C427.092 491.499 424.417 484.692 427.225 471.999Z" fill="#FF8139"/>
<path d="M380.203 469C391.003 469.8 416.036 471.333 427.203 471.999C426.403 476.398 426.203 480.499 426.203 482L382.203 477L380.203 469Z" fill="#D3662F"/>
<path fill-rule="evenodd" clip-rule="evenodd" d="M422.202 333.999C419.869 338.833 411.502 350.2 396.702 356.999C392.27 354.373 382.309 344.504 377.424 325.864C373.59 326.457 369.736 326.336 365.772 326.212C358.986 326 351.876 325.778 343.989 329.108C314.924 350.949 295.702 422.499 295.702 422.499L466.202 458.5C466.202 458.5 477.702 365.499 460.202 348.499C456.495 342.563 446.761 340.262 436.908 337.932C431.746 336.712 426.552 335.484 422.174 333.721L422.202 333.999Z" fill="#FF8139"/>
<path d="M383.203 324L383.203 340.5C379.203 335.699 377.87 328.833 377.703 326C380.903 325.2 382.703 324.333 383.203 324Z" fill="#DCB3AF"/>
<path d="M383.201 340.999C378.801 332.599 377.701 327.499 377.701 325.999L376.201 373.5C378.201 378.3 380.701 380.833 381.701 381.5L383.201 340.999Z" fill="#D3662F"/>
<path d="M435.416 392.07C435.416 392.07 439.384 407.759 437.293 416.323L435.202 424.887L433.991 424.004C433.991 424.004 436.096 416.628 436.537 413.933C436.978 411.238 436.848 399.692 435.416 392.07Z" fill="#D3662F"/>
<path d="M349.396 382.034C349.396 382.034 339.653 401.951 340.302 407.667L341 413.375L341.816 413.098C341.439 410.399 341.409 407.663 341.728 404.957C342.259 401.651 349.396 382.034 349.396 382.034Z" fill="#D3662F"/>
<path opacity="0.1" d="M400.202 304.994C403.502 305.932 413.313 305.528 416.702 304.993C416.702 304.993 410.202 309.993 400.202 304.994Z" fill="black"/>
<path d="M418.701 228.5C431.901 234.1 433.868 257.5 435.201 261.5L435.201 337.5L442.701 339.5L442.701 254.5C442.701 228.5 431.701 213.5 424.201 208C418.201 203.6 413.035 204.833 411.201 206C386.201 199 369.201 213 364.201 228.5C360.201 240.9 347.368 302.5 341.201 331.5C347.601 326.7 355.368 326.166 358.701 326.5C359.901 357.3 370.868 373.5 376.201 378L379.701 254.5C400.501 247.7 414.368 234.333 418.701 228.5Z" fill="#2F2417"/>
<path d="M381.701 431C382.501 431.8 384.701 434.666 385.701 436L377.201 433L374.201 427.5C376.368 428.333 380.901 430.2 381.701 431Z" fill="#DCB3AF"/>
<path d="M275.398 389.321C278.439 390.255 286.534 391.481 289.701 392C288.789 394.491 285.701 397 284.701 397C282.701 397 278.312 397.496 276.538 397.885L276.158 399.053C275.398 401.389 270.837 411.122 270.837 413.068C270.837 415.014 271.217 420.854 270.837 423.579C270.457 426.304 268.936 427.083 268.176 427.083C267.416 427.083 267.036 420.854 266.656 418.907C266.276 416.961 265.515 412.679 265.895 409.175C266.2 406.372 265.009 405.152 264.375 404.893C263.488 408.137 261.562 414.937 260.954 416.182C260.194 417.74 260.954 424.358 260.954 425.915C260.954 427.472 260.194 430.586 257.913 430.976C256.089 431.287 255.633 428.51 255.633 427.083C253.352 429.808 251.072 428.64 251.072 427.083L251.072 420.854C251.072 418.362 252.085 412.808 252.592 410.343C251.452 411.511 250.311 416.961 248.791 418.907C247.271 420.854 245.37 420.075 245.75 418.907C246.13 417.74 249.931 406.839 251.072 404.893C252.212 402.946 257.913 396.718 259.054 396.718C260.194 396.718 262.855 393.603 263.615 392.046C264.375 390.489 267.416 392.046 268.936 391.267C270.457 390.489 271.597 388.153 275.398 389.321Z" fill="#F4C7C3"/>
<path d="M248.702 411.5C256.688 403.362 272.872 401.783 284.905 396.915C289.381 395.105 294.211 382.939 295.272 374.653C286.81 368.002 281.665 345.017 284.167 325.877C287.255 302.257 301.575 296.195 319.202 298.5C336.829 300.804 345.91 310.126 342.822 333.747C340.366 352.536 333.703 371.042 322.045 376.419C320.966 384.669 321.646 393.975 325.557 396.915C335.934 404.712 349.46 406 357.053 414.634C373.202 433 368.702 490.499 368.702 490.499L241.202 490.5C241.202 490.5 221.767 442.291 248.702 411.5Z" fill="#F4C7C3"/>
<path d="M317.639 315.029C340.218 322.671 342.099 339.779 340.218 348.463C351.333 321.716 331.244 309.819 319.81 307.214L286.377 309.819L283.337 338.91L289.203 320.5C304.14 323.974 314.455 317.924 317.639 315.029Z" fill="#DCB3AF"/>
<path d="M357.449 409.233C346.616 403.04 337.867 401.733 326.02 396.918C324.926 399.654 314.077 406.464 303.21 411.812C301.101 410.403 290.533 405.452 284.726 396.918C265.455 396.918 251.19 403.674 243.203 411.812C221.203 434.23 212.703 492 212.703 492L394.703 492C394.703 492 385.722 425.394 357.449 409.233Z" fill="white"/>
<path d="M212.826 441.121C211.013 444.565 213.462 449.047 214.913 450.858C214.11 451.243 212.175 452.464 210.862 454.273C209.222 456.534 208.974 457.86 209.627 460.903C210.279 463.946 206.489 468.578 210.698 470.858C214.907 473.139 224.905 476.384 227.445 475.84C236.148 473.974 242.781 471.339 248.298 467.867C251.493 465.856 251.438 464.247 250.964 462.863L256.422 461.057C257.526 458.274 256.187 456.651 255.379 456.188C255.626 454.862 255.365 453.645 254.596 452.536C253.827 451.428 237.841 450.858 235.419 450.858C231.125 450.858 224.875 446.495 224.992 444.56C225.279 439.794 234.805 441.121 237.37 441.588C238.392 441.775 249.096 446.713 250.621 446.386C252.145 446.06 252.392 444.734 251.492 443.017C250.593 441.3 233.12 431.678 229.055 432.549C224.991 433.42 215.091 436.816 212.826 441.121Z" fill="#E2BBA6"/>
<path d="M383.703 540L377.703 492L362.203 492L364.703 540L383.703 540Z" fill="#F4C7C3"/>
<path d="M362.203 492L377.703 492C366.103 492 364.203 519.667 364.703 533.5L362.203 492Z" fill="#DCB3AF"/>
<path d="M243.391 540.5L248.703 482.197L361.668 482.197L364.967 540.5L243.391 540.5Z" fill="white"/>
<path d="M248.203 492L232.203 492L225.703 540L243.703 540L248.203 492Z" fill="#F4C7C3"/>
<path d="M248.203 492L232.703 492C243.903 492 245.036 519 244.203 532.5L248.203 492Z" fill="#DCB3AF"/>
<path opacity="0.1" d="M312.617 379.562C309.462 379.836 306.285 379.421 303.306 378.344C303.306 378.344 307.178 383.453 312.617 379.562Z" fill="black"/>
<path d="M318.115 310.328C335.931 318.568 343.929 327.427 340.217 348.029C345.785 337.728 349.738 322.235 351.703 307.5C352.703 300 337.415 295.933 334.446 295.272C320.194 280.376 277.487 298.274 268.703 302.5C265.14 314.227 280.257 330.54 283.598 339.652L285.074 332.832L288.203 317C297.705 319.852 312.795 312.705 318.115 310.328Z" fill="#2F2417"/>
<path d="M390.121 439.696C391.599 442.504 389.603 446.158 388.42 447.634C389.075 447.948 390.652 448.943 391.722 450.418C393.06 452.262 393.261 453.343 392.729 455.823C392.197 458.304 395.287 462.08 391.856 463.939C388.425 465.798 380.274 468.444 378.203 468C371.108 466.479 365.701 464.331 361.203 461.5C358.599 459.861 358.644 458.549 359.03 457.421L354.58 455.948C353.68 453.68 354.773 452.357 355.431 451.979C355.23 450.898 355.442 449.906 356.069 449.002C356.696 448.099 369.728 447.634 371.703 447.634C375.203 447.634 380.298 444.077 380.203 442.5C379.969 438.614 372.203 439.696 370.112 440.077C369.279 440.229 360.553 444.255 359.31 443.989C358.068 443.722 357.866 442.641 358.599 441.242C359.333 439.842 373.577 431.998 376.89 432.708C380.204 433.419 388.275 436.186 390.121 439.696Z" fill="#F4C7C3"/>
</svg>
