<svg fill="none" xmlns="http://www.w3.org/2000/svg" viewBox="0 0 471 541"><path d="M343.734 162.629c-37.133-2.611-63.295 25.465-71.734 39.83h198c-6.925-10.774-26.941-29.905-51.61-20.241-30.836 12.079-28.239-16.324-74.656-19.589z" fill="#fff"/><path d="M289.533 504.866c0-13.583 5.186-30.693 6.52-43.36l-109.066-9.589s.477 40.738 0 55.988C186.511 523.155 177 540 177 540h119.053c-6.52-11.787-6.52-18.413-6.52-35.134z" fill="#081B42"/><path d="M301.287 303.624l-76.455-9.91 9.015-68.949 39.148-24.178 36.793 38.019-8.501 65.018z" fill="#E9D694"/><path d="M303.578 245.936s-2.611 13.446-3.081 23.571c-.471 10.124 3.771 18.609-5.774 33.114l-65.636-8.346s-4.609-8.452-.853-19.293c3.756-10.84 4.261-8.279 3.691-20.968l71.653-8.078z" fill="#C9B058"/><path d="M186.5 331.999c9.872-10.059 37.127-6.421 52-12.438 5.534-2.238 9.443-21.396 10.755-31.638-15.115-8.863-20.593-32.512-17.5-56.171 3.817-29.197 20.286-43.139 42.075-40.291 21.789 2.849 34.245 20.821 30.428 50.018-3.037 23.225-13.96 44.593-30.428 49.657-1.334 10.198-2.554 24.79 2.281 28.425 12.826 9.638 34.173 9.265 40.408 21.871 17.008 34.468-10.482 105.315-10.482 105.315h-128.39s-12.33-93.192 8.853-114.748z" fill="#F4C7C3"/><path d="M238.5 319.565c2.665-1.029 6.413-8.848 9.509-23.374 10.604 5.807 18.841 4.984 24.949 2.876-.539 12.546.639 18.582 3.181 20.498 12.826 9.638 36.448 2.844 43.861 18.778 13.55 23.046-10.556 108.408-10.556 108.408H161.025S164.81 353.109 186 331.499c9.871-10.059 37.6-5.921 52.5-11.934z" fill="#081B42"/><path d="M321 458.91c5-3.745 8-16.851 8.5-18.411h-150l-7 27.46c104.5 6.865 145.584-6.865 148.5-9.049z" fill="#081B42"/><path d="M199.666 366.81s-10.109 15.455-11.034 25.471l-.924 10.017 1.634-.502s.468-8.741.994-11.812c.525-3.072 4.954-15.482 9.33-23.174zM301.743 380.156s5.946 24.592 3.814 30.801l-2.185 6.188-.841-.509a36.363 36.363 0 002.105-9.05c.223-3.814-2.893-27.43-2.893-27.43z" fill="#0C2048"/><path opacity=".1" d="M236.821 237.207l-3.507 26.827a85.72 85.72 0 01-1.557-32.283 80.635 80.635 0 014.433-18.015l37.424-15.947 30.298 46.137c-.127.975-.254 1.95-.502 2.896-7.837-3.188-27.673-13.715-31.115-39.467 0 0-13.132 22.263-35.474 29.852z" fill="#000"/><path d="M272.085 211.34s6.68 23.839 30.838 33.594l-7.567 57.878 11.829 1.97s14.664-72.541 3.991-93.652a41.385 41.385 0 00-17.336-18.108 40.08 40.08 0 00-28.221-3.69s-27.594-4.368-35.739 27.207c-8.144 31.574-9.893 76.514-9.893 76.514l9.074 1.155s6.043-48.749 8.025-61.376c.022.015 22.919-4.213 34.999-21.492z" fill="#E9D694"/><path opacity=".1" d="M266.92 292.961a26.998 26.998 0 01-11.51-1.505s4.787 6.314 11.51 1.505z" fill="#000"/><path d="M370 422.5c4.8 8.4 2 20.833 0 24-51.678 16.706-72.566 17.584-88.538 20.886l7.6-41.799c20-3 63.438-3.087 80.938-3.087z" fill="#081B42"/><path d="M358.5 482c-5.167.167-17.5 2.1-25.5 8.5M360 487.5c-5.5 1.833-18.3 8.8-25.5 22M407.486 461.805c1.011-4 5.052-12.929 13.122-16.637M411.5 462.5c4-3.166 14.1-9.1 22.5-7.5" stroke="#00181B"/><path d="M428 471c13.2 23.6 33.833 31.5 42.5 32.5v37H377c1-9.833 2.4-31 0-37-3-7.5-12-4.5-18.5-14.5s-5-18-4.5-25.5c.4-6-2.5-21.167-4-28 9.2 2.8 18.167 10.5 21.5 14 6-3.2 16.167-5.333 20.5-6V426c7 5.5 19.5 15.5 36 45z" fill="#E3A266"/><path d="M391.5 457.5c-2-5.2-5.5-10.5-7-12.5l-7 1.5c3.6 1.2 10.833 7.833 14 11zM391.5 450c-.8-2-2.667-4.833-3.5-6l3.5-.5v6.5zM380.5 453.5l-5-6-3.5 1.5c1.6.4 6.333 3.167 8.5 4.5z" fill="#E1E1E1"/><path d="M400 500c-12.4 6.4-19.833 18-22 23v-12.5c6.4-6.8 17.333-9.833 22-10.5zM418.5 511c18.8-10 35.167-11.5 41-11l-10-5.5c-14.4 2.4-26.667 12-31 16.5z" fill="#FBC492"/><path d="M213.501 453.5c-12-5-30.5 2.333-41.5 6.5l-8 4 6 2.5c7.5-2.167 24.4-7 32-9 9.5-2.5 16 7 18.5 6.5s3.941-5.941-7-10.5z" fill="#D3662F"/><path d="M60 445C37.5 485 29.623 478.477.123 539.977c38 0 164.377.023 164.377.023s-10-12-10-31c0-12 3-20 14.5-29.5 10.119-8.359 38-16.5 35-22-1.068-1.959-14.563 3.395-24.5 5.5-10.103 2.14-15.542.765-10.5-1 11.058-3.87 16-1 35-17s11.273-41.665 10-46.5c-2.5-9.5-37 9.5-45 0s-21.5-14.5-44-12C84.5 391 71.077 425.307 60 445z" fill="#fff"/><path d="M210.5 404c1.6 1.6 4.667 6.333 6 8.5-.167-2.333-.7-7.8-1.5-11-1-4-1.5-6-6.5-6s-5.829 2.527-5.5 4.5c.5 3 1.5 5.5 6 9 .882.686 3.5 2 4 2s1-.5-1-2-3.5-7-1.5-5z" fill="#00181B" stroke="#000"/><path d="M133 498.5c5.2 2.8 16.833 4.833 22 5.5l1 16.5c-51-4.5-105.04-32.747-113.54-48.747l9.535-13.445c20 23.5 53.838 31.359 64.505 35.692l-3 3h7c-.5 4-7 7-4 7 2.4 0 6.667-1.667 8.5-2.5 2 3.6 8.667 3 11.5 5-2-3.2-3.167-6.667-3.5-8z" fill="#00181B"/><path d="M147.5 438.877c-3.6-3.808-5.833-12.838-6.5-16.877 1.5 5.5 7 17.8 17 23l4 1.5c-1.667.5-6.2 1.3-11 .5 1.833 3.575 5.7 11.48 6.5 14.5 1 3.775.5 11.5-7.5 16 .5-.5 1.5-2 1.5-4-6.5 4.524-22.9 10.164-36.5-3.464 5.5 4.76 13.5 7.356 23 5.193 7.6-1.731 11.5-7.357 12.5-9.954 1.2 2.078.5 4.039 0 4.761 3-2.164 3.5-6.924 2-11.252-1.2-3.462-5.167-12.406-7-16.445 2 .693 6.5 1.731 8.5 2.164-.667-.288-2.9-1.817-6.5-5.626z" fill="#E1E1E1"/><ellipse rx="4.5" ry="8" transform="matrix(-1 0 0 1 156.5 527)" fill="#CDAE19"/><ellipse rx="4.5" ry="8" transform="matrix(-1 0 0 1 158.5 527)" fill="#FFD300"/><path d="M341 118H1c0-11.063 10.452-33.19 52.258-33.19C127.452 84.81 125.516 36 178.42 36c61.291 0 64.516 48.81 103.226 48.81C322.628 84.81 341 102.38 341 118z" fill="#fff"/><path d="M164.5 394l-5-3.5-10-5c-10.667 0-32.5.4-34.5 2-2.5 2-2.5 14.5-2 16s7.5 14.5 10 19c2 3.6 5.167 3.833 6.5 3.5.5 1.333 2.1 4.2 4.5 5 2.4.8 3.667-2.333 4-4 .833.667 2.8 1.2 4-2 1.2-3.2.5-22 0-31 .833.833 2.8 2.9 4 4.5 1.5 2 0 12.5 1 16 .8 2.8 3.333 2.833 4.5 2.5l1-14.5-3-12c2.167.5 7.2 1.9 10 3.5s4.5.667 5 0z" fill="#E1E1E1"/><path d="M140.443 374.5c-2.443 0-2.239 2.331-6.943 1-1.796 0-3.955 2.728-7.099 1.663-3.93-1.331-4.936 3.533-6.901 4.198-1.965.666-4.599 1.997-5.254 5.326-.655 3.328 0 12.648 1.964 15.976 1.965 3.328 5.24 10.651 7.86 15.976 2.096 4.261 3.929 3.551 4.584 2.663.874 2.441 3.275 7.189 5.895 6.657 2.62-.533 1.965-4.66 1.31-6.657.873 1.775 3.013 4.66 4.584 1.997 1.965-3.328 3.357-19.526 3.357-22.854 0-3.329-.145-7.781-.8-9.778-.655-1.997 2.683 2.011 3.993 4.674 1.31 2.662 1.31 6.656 1.31 10.65 0 3.994.655 8.654 3.275 8.654 2.619 0 3.274-19.304 1.309-21.967-.571-.774-1.686-2.634-3.031-4.883 3.64.599 6.667 2.161 9.511 2.872 3.558.889 4.893-1.983 2.224-3.111-2.669-1.128-8.006-4.863-10.013-4.863-.91 0-3.048-.285-5.188-.613-2.499-4.009-4.951-7.58-5.947-7.58zM376.136 422.893c-2.845-.712-8.3-.297-10.672 0-3.202 10.672.148 18.676 2.224 21.345 1.037.148 3.379.711 4.446 1.778 1.334 1.334 2.224 6.671 3.113 9.339.703 2.109 1.779 4.891 3.113 8.004 1.829 4.267 4.447 4.447 4.891 2.668.445-1.779-2.223-7.115-2.223-8.894 0-1.778.445-7.115 1.334-7.559.889-.445 6.67 3.557 9.338 4.891 2.668 1.334 10.228 16.453 13.785 17.343 2.071.517 3.113-.89 3.113-1.779l1.334 2.223c2.159 3.455 5.156 1.878 5.328.155.086.184.138.191.008-.155 0 .052-.002.104-.008.155-.207-.446-.614-1.933.898-1.933 2.134 0 2.371-2.52 2.223-3.113l-1.779-4.002c2.135-.712 2.372-2.372 2.224-3.113-2.668-7.411-9.605-23.034-16.009-26.236-8.004-4.002-23.123-10.228-26.681-11.117z" fill="#F4C7C3"/></svg>