<svg fill="none" xmlns="http://www.w3.org/2000/svg" viewBox="0 0 470 543"><path d="M470 541.499C436.919 391.39 232.167 368.667 129.5 375.5v166l340.5-.001z" fill="#081B42"/><path d="M276 99.26V540" stroke="#C4C4C4"/><circle cx="331.172" cy="362.999" r="22" fill="#fff"/><path d="M278.672 198.999c48.5-13.535 102.5-12.499 129.5-12.499V310c-57 0-194.6.499-205 .499-13 0-47.5-13-16.5-52.5s70.5-53 92-59z" fill="#fff"/><path d="M359.672 251.999h53.5v-3c-14-.333-44.9-.7-56.5.5-11.6 1.2-19.167 5.5-21.5 7.5 4.5-1.666 15.7-5 24.5-5z" fill="#E1E1E1"/><path d="M329.166 351.142l6.566-52.143 8.799 4.752-8.203 61.488-7.162-14.097z" fill="#fff"/><rect x="279.172" y="212.999" width="33" height="53" rx="16.5" fill="#152D5D"/><circle cx="335.672" cy="222.499" r="9.5" fill="#E1E1E1"/><circle cx="366.672" cy="222.499" r="9.5" fill="#E1E1E1"/><circle cx="396.672" cy="222.499" r="9.5" fill="#E1E1E1"/><path d="M249.172 220.999h-15c-14.4 7.2-30 21.667-36 28h58c5.5 0 4.5-4.5 4-6s-6.5-16.5-8-19.5c-1.2-2.4-2.5-2.667-3-2.5z" fill="#152D5D"/><path fill="#fff" d="M418 98H135v13h283z"/><path opacity=".8" d="M214 111.089h62V295l-62-183.911z" fill="#C4C4C4" fill-opacity=".3"/><path d="M394.505 1.144c38.821-2.677 66.172 26.102 74.995 40.826h-207c7.239-11.043 28.166-30.653 53.956-20.748 32.237 12.382 29.523-16.731 78.049-20.078zM141 98h-12v444h12zM421 98h-12.828v443.178H421z" fill="#fff"/><path opacity=".2" fill-rule="evenodd" clip-rule="evenodd" d="M276 337.261l-75-226.172h-60V542h135v-42.452L147 111.546h5.5L276 483.115V337.261z" fill="#C4C4C4"/><path d="M345 397s4.689-1.718 13.385-12.532c0 0-2.169 9.091 9.428 19.505 8.033 7.189 1.768 45.487-1.616 52.246 0 0 32.051 31.58 84.225 6.288 0 0-13.103-47.691-14.057-74.655-1.175-30.619-4.72-50.303-15.444-79.21-10.724-28.907-13.264-44.857-11.808-60.076 1.456-15.219.723-39.05-26.107-44.807-26.83-5.757-30.003 25.793-30.003 25.793s-2.37 40.341 8.183 49.583c9.248 8.15 25.103-2.193 25.103-2.193s3.675 18.713-.582 25.322c0 0-5.874 6.718-20.384 12.496-15.152 6.007-17.582 50.063-25.615 58.133" fill="#E2BBA6"/><path d="M369.771 204.23c-1.074 6.558-2.791 17.092-4.378 27.475 1.005-9.783 2.862-20.616 4.147-27.395l.231-.08z" fill="#CEA999"/><path d="M353.023 229.592l12.371 2.112-.623 9.412c-.121 5.167-4.87 3.645-3.595 5.607 5.342 8.241 12.632-5.346 17.05-4.926 4.418.421 6.477 5.447 3.304 14.018-3.173 8.571 8.234 10.954 9.218 15.76.984 4.806 8.645 31.87 0 41.132l-13.245-4.005a40.029 40.029 0 008.194-6.398c4.257-6.608.582-25.322.582-25.322s-15.845 10.343-25.103 2.193a12.057 12.057 0 01-2.008-2.323c-5.272-7.38-6.025-26.113-6.175-30.129-.151-4.015.03-17.131.03-17.131z" fill="#CEA999"/><path d="M366.5 254.857c-10-9.6-14.5-20.667-15.5-25-6.8-18.8 7.5-24.5 15.5-25.001 4.8-2.8 10-4.499 12-4.999 29-5.5 43 8.643 49.5 19.643 3.815 6.457 7 18 6 23s0 11 4 19.5-2.5 10.5-2.5 17c0 5.2 4.167 8.833 5.5 10.5-2.667 1.667-20.9 7.057-24.5 5.857-4.5-1.5-3-2.5-12 0s-16.5.5-21-2.5c-3.6-2.4-11.333-.667-13.5 0 1-2.834 4.9-11.4 2.5-19-2.4-7.6 2-12.834 4.5-14.5 2.667-3 6.7-9.9 1.5-13.5-5.2-3.6-10.167 4.5-12 9z" fill="#E9D694"/><path d="M366.5 255c-17.6-18.4-18-34.333-16-40 2 26.5 24 22 30.5 29.5s5 18.5 0 27.5c-4 7.2-2.333 12.333-1 14 5.5-.5 7.5 3.5 16 5s7.5-1.5 18 1c8.4 2 21.167-.833 26.5-2.5-2 2-16 6-21 6s-4-1-10-1-7 2.5-13.5 2-6.5-1-13.5-4.5c-5.6-2.8-11-.167-13 1.5 1.5-3.5 4.1-12.7 2.5-21.5-2-11 3.5-11.5 6-14 1.768-1.768 5.5-9-1-12.5-4-2.154-9.167 5.167-10.5 9.5z" fill="#C9B058"/><path d="M434 263c3.6 2.4 4.5 6 4.5 7.5 3-5.5 0-7.5-3-15s-1.5-6.5-1.5-14-1-12.5-5-20.5-12.5-19-32-22c-15.6-2.4-26.833 3-30.5 6-3.2-.4-6.333.834-7.5 1.5 1.667.834 6.3 2 11.5 0s8.167-.833 9 0c18 10 25 7 35.5 11s16.5 14.5 14 26 .5 16.5 5 19.5z" fill="#FAE7A4"/><path d="M419.295 304.166s4.799 4.005 9.127 16.02c4.328 12.016-6.928-6.918-6.928-6.918l-1.326-6.699-.873-2.403z" fill="#292289"/><path d="M367.502 452.635S352.136 507.596 353 542l102.054-.305H470s-1-27.195-5.5-45.195-15.975-41.212-15.975-41.212-44.533 22.819-81.023-2.653z" fill="#F4EFEF"/><path d="M367.814 313.5C352.621 319.548 342 350.033 324 387l26 15s3.5-6.5 8.385-17.533c0 0-2.169 9.092 9.429 19.505 8.002 7.189 1.335 44.396-1.617 52.246 0 0 74.998 32.521 82.338-.931 0 0-7.591-28.987-8.595-55.951-1.105-30.609-4.424-61.836-10.94-78.836-4.187-10.924-11-19-11-19-4.729 4.926-8.702 8.84-32.5 1-4.83 3.443-12.148 8.865-17.686 11z" fill="#F4C7C3"/><path d="M362.682 371.021s-9.157 17.713-18.506 20.486c-3.173 1.606-7.773 1.497-9.676 1.493l16 9.5s2.5-6.5 7.885-18.031c0 0-2.169 9.091 9.428 19.504 8.003 7.189 1.336 44.396-1.616 52.246 0 0 6.506 2.814 15.855 5.938 2.39-14.418 6.316-43.776.863-54.89-7.35-14.979-19.429-17.872-20.233-36.246z" fill="#D3A8A4"/><path d="M416.323 466.071c-.181 1.212-.352 2.393-.523 3.565.171-1.172.342-2.353.523-3.565zM416.464 465.15c0-.321.09-.641.14-1.002-.04.361-.1.681-.14 1.002z" fill="#000" opacity=".3"/><path d="M415.864 523L420 542h-10c2-9 5.227-16.833 5.864-19z" fill="#152D5D"/><path d="M416 523l4 19h8l-4-14.5 10.5-6c-4.8.8-14.333 1.333-18.5 1.5z" fill="#C4C4C4"/><path d="M327.5 358.5L344 345l-10.5 22-6-8.5z" fill="#D3A8A4"/><path d="M316 371.5c2.4-1.2 9.833-7.167 13.5-10l4 5.5-9.5 20 3.5 2c-6 5.2-10.167 5.167-11.5 4.5-14.4-5.6-36.333-20-45.5-26.5l4.5-11c12.667 5.667 38.6 16.7 41 15.5z" fill="#E2BBA6"/><path d="M238.466 315l20.808 21.333L268 345l-18.795 18L219 331l19.466-16z" fill="#8E5841"/><circle r="5.5" transform="matrix(-1 0 0 1 244 337.5)" fill="#FFD300"/><path d="M236.5 322l-9.5 8M237.5 326l-6 5M259 348.5l-6.5 6" stroke="#FFD300"/><path d="M269 352.5c2.4 1.6 4 2.5 6 3.5l-3 12c-1.333-1.167-6-3.7-10-4.5-4-.8-7.5-3.5-9-4.5 2.333-2 7-6.3 7-7.5 0-1.5-1.5-6-3-7.5s-5-4-4-5.5 8 3.5 9.5 5.5 3.5 6.5 6.5 8.5z" fill="#E2BBA6"/><path d="M316.785 528.712c-1.607-9.644-9.951-16.712-19.728-16.712h-37.448c-12.359 0-21.759 11.097-19.728 23.288L241 542h78l-2.215-13.288z" fill="#E1E1E1"/><path d="M336.785 528.712c-1.607-9.644-9.951-16.712-19.728-16.712h-37.448c-12.359 0-21.759 11.097-19.728 23.288L261 542h78l-2.215-13.288z" fill="#fff"/><path d="M300 512l-12.5-68.5h-25l12 68.5" stroke="#000" stroke-width="3"/><path d="M291 439h-39l2 7h39l-2-7z" fill="#666A6A"/><path d="M295 439h-39l2 7h39l-2-7z" fill="#C4C4C4"/><path d="M315.5 522.5L321 542h-4l-5-19.5h3.5zM299.5 523l5.5 19.5h-4l-5-19.5h3.5zM282.5 523l5.5 19.5h-4l-5-19.5h3.5z" fill="#152D5D"/><path d="M322 398.5c5.5-4.5 5.167-5.833 6.5-9.5l19.5 11.5c-3 6.5-4.722 9.725-8.5 13-7.5 6.5-33 23-47 31.5-4.941 3-11.118 6.127-17.5 4-9-3-12.833-8-16.5-11h-6l2 7h7.5l1 6s-.5.9-2.5.5c-2.5-.5-8.5-7.419-8.5-9 0-1.5-.5-11.5 2.5-12s3-1.5 5-2.5 3 1 6 0 4.5 2.5 6.5 1c1.6-1.2 3.667-.5 4.5 0 3.333 1.333 9.438 5.249 11 4 5-4 29-30 34.5-34.5z" fill="#E2BBA6"/><path d="M333.5 410c4-3.6 8-9.833 9.5-12.5l5 3c-3 8-8.5 12.5-12 15.5s-28.5 19.5-32.5 22-14 11.5-25.5 11.5c-9.2 0-16.5-7.667-19-11.5h-4.5c.5-1.5 2.8-3.6 8 0 6.5 4.5 19 7 24 5s42-28.5 47-33z" fill="#CEA999"/></svg>