<svg fill="none" xmlns="http://www.w3.org/2000/svg" viewBox="0 0 471 540"><path d="M154 370h226c49.706 0 90 40.294 90 90v80H154V370z" fill="#081B42"/><circle cx="211.61" cy="165.804" r="5.341" fill="#081B42"/><circle cx="257.39" cy="165.804" r="5.341" fill="#081B42"/><circle cx="303.172" cy="165.804" r="5.341" fill="#081B42"/><circle cx="348.952" cy="165.804" r="5.341" fill="#081B42"/><path fill="#081B42" d="M185.542 198.613h209.381v4.578H185.542z"/><path fill="#081B42" d="M347 168h4v203h-4zM300.882 168.093h4.578v256.373h-4.578z"/><circle cx="393.846" cy="165.804" r="5.341" fill="#081B42"/><path fill="#081B42" d="M391.557 168.093h4.578v256.373h-4.578zM255.102 168.093h4.578v256.373h-4.578zM209.196 168.093h4.578v212.118h-4.578z"/><path d="M384.971 423.186s-8.681-1.168-15.629-9.808c0 0-5.543 9.808-7.533 15.584-6.418 5.744-1.412 36.344 1.292 41.744 0 0-25.609 25.232-67.296 5.024 0 0 10.47-38.104 11.232-59.648.939-24.464 3.771-40.192 12.339-63.288 8.569-23.096 10.598-35.84 9.435-48-1.163-12.16-.578-31.201 20.859-35.801 21.437-4.6 23.973 20.609 23.973 20.609s1.893 32.232-6.539 39.616c-7.389 6.512-20.057-1.752-20.057-1.752s-2.936 14.952.465 20.232c0 0 4.694 5.368 16.287 9.984 12.106 4.8 14.048 40 20.466 46.448" fill="#E2BBA6"/><path d="M360.245 269.37c.858 5.24 2.23 13.656 3.498 21.952-.803-7.816-2.287-16.472-3.314-21.888l-.184-.064z" fill="#CEA999"/><path d="M373.627 289.634l-9.885 1.688.498 7.52c.096 4.128-.233 7.44-1.252 9.008-4.268 6.584-5.969-8.8-9.499-8.464-3.53.336-5.174 4.352-2.639 11.2 2.535 6.848-6.579 8.752-7.365 12.592-.786 3.84-6.908 25.464 0 32.864l10.582-3.2a31.982 31.982 0 01-6.547-5.112c-3.401-5.28-.465-20.232-.465-20.232s12.66 8.264 20.057 1.752a9.666 9.666 0 001.605-1.856c4.212-5.896 4.813-20.864 4.934-24.072.12-3.208-.024-13.688-.024-13.688z" fill="#CEA999"/><path d="M374.99 272.993s6.218 6.4 1.822 13.448c-4.397 7.048-13.206 3.728-14.305 10.968-1.099 7.24-9.018 1.976-9.018 1.976s-3.305-6.144-6.418-1.312 3.739 12.504 3.739 12.504a7.986 7.986 0 010 9.208c-3.33 4.936-7.486-.216-11.232 4.8-3.747 5.016-9.892-.384-12.837 4.632 0 0 2.086-8.36-2.31-11-4.397-2.64-9.764-7.072-7.702-15.024 1.717-6.616 2.286-11.504 1.404-15.896-.883-4.392 5.616-7.688 8.279-8.8 2.664-1.112 1.757-13.6 14.08-14.48 12.323-.88 13.639 4.408 19.143 4.392 5.503-.016 12.243 1.104 15.355 4.584z" fill="#594423"/><path d="M347.4 289.714c3.113-8.84-4.725-9.808-3.594-15.592.69-3.56-1.356-7.528-3.033-10.072h-.264c-12.307.896-11.441 13.4-14.08 14.496-2.64 1.096-9.155 4.4-8.28 8.8.802 3.824.433 8-.802 13.424 2.519 3.872 3.586 7.312 2.342 13.848a22.854 22.854 0 004.75 3.648c2.11 1.264 2.72 3.84 2.792 6.184 4.557-2.4 1.091-8 1.412-12.216.321-4.216 5.479-2.728 7.22-10.288 1.741-7.56 8.424-3.392 11.537-12.232z" fill="#3E2F1C"/><path d="M320.676 349.218s-3.835 3.2-7.293 12.8c-3.458 9.6 5.536-5.528 5.536-5.528l1.059-5.352.698-1.92z" fill="#292289"/><path d="M369.404 467s34.593 39.035 16.544 73H280.163l17.205-69.997s42.802 17.632 72.036-3.003z" fill="#00B67A"/><path d="M298.163 486l-8.5 14.5c4.5-3 6-4 13 6s19 11 29.5 8.5c8.4-2 11.167 8.5 11.5 14 2-12.5-2-30.5-15-32.5-10.4-1.6-24.667-7.667-30.5-10.5z" fill="#04A670"/><path d="M434.504 422.162c-10.959-1.984-28.136-6.44-42.521-20.208-11.088-10.608-16.046-39.408-28.184-44.24a56.516 56.516 0 01-12.476-6.712c-19.014 6.264-27.574 4.056-31.353.12-.201.552-5.945 6.928-9.29 15.656-8.826 23-6.764 27.222-15.017 55.384-6.518 22.242-11.5 38.338-11.5 38.338 39.5 44.5 86 7.5 86 7.5 0-7.706 0-13.5-.821-33.5v-21.122c6.948 8.656 17.779 13.6 17.779 13.6 16.423 9.416 38.373 9.856 47.383 9.088v-13.904z" fill="#F4C7C3"/><path d="M287.163 451.5l3-10 26 10 29.5-10 23.5-23.5v3.5l-20 23c0 2.333-.9 7.8-4.5 11-4.5 4-27.5 13-29.5 12.5-1.6-.4-19.333-11.167-28-16.5z" fill="#D3A8A4"/><path d="M412.016 405.762l13.751-3.128s11.031.936 12.259 1.128c1.227.192 4.268 5.096 4.725 6.04.457.944-1.853 1.32-3.434 0-1.58-1.32-1.404-2.456-2.864-2.736-1.46-.28-20.338 2.952-24.437-1.304z" fill="#E2BBA6"/><path d="M433.838 406.442s4.308 2.144 5.616 3.856c1.308 1.712 2.174 3.128 2.182 3.888.008.76-1.195 1.808-2.688.472 0 0-.288 2.192-2.471 1.048 0 0-.89 1.952-3.818.328-.394-.208-.642-.44-.61-.76.096-1.16-6.098.584-10.807 1.168-5.536.696-8.023-.248-9.194-1.312-1.171-1.064 12.508-8.192 12.508-8.192l9.282-.496z" fill="#CEA999"/><path d="M396.644 405.954h12.989l2.278 9.36s-9.194-3.872-15.267-9.36z" fill="#D3A8A4"/><path d="M409.633 405.954s8.977-.736 10.028-.736c1.051 0 4.991-2.648 6.603-3.128a65.926 65.926 0 017.221-1.128c1.372-.16 1.452.984-.401 2.496-1.854 1.512-4.91.48-6.034 2-1.123 1.52-1.364 4.496-4.508 6.816-3.145 2.32-10.639 3.04-10.639 3.04l-2.27-9.36z" fill="#E2BBA6"/><path d="M369.118 417.665s4.613 1.544 6.378 1.833c0 0-4.918-4.345-6.122-6.121a13.235 13.235 0 01-.256 4.288z" fill="#0C2048"/><path d="M434.504 422.162c2.054.486 4.14.831 6.241 1.032 1.701 0 8.986-6.176 10.077-7.264 1.091-1.088 8.825-4.376 12.379-4.368 3.554.008 1.212 1.944 0 2.4-1.211.456-5.824 2.168-7.645 3.384-1.822 1.216-4.71 3.16-3.547 2.512a28.974 28.974 0 016.988-2.496c1.42-.304 8.087-1.496 10.149-.936 2.062.56 1.492 1.944-.184 2.544 0 0 1.861 1.488-1.493 2.744 0 0-2.142.504-3.257.8a1.423 1.423 0 01-.698 2.28c-1.821.8-5.8 1.76-8.175 2.944-2.375 1.184-5.07 4.608-6.795 5.352-1.725.744-5.656 1.864-8.208.8l-5.832.6v-12.328z" fill="#E2BBA6"/><path d="M323.051 478.578c.144.968.281 1.912.417 2.848-.136-.936-.273-1.88-.417-2.848zM322.938 477.842c0-.256-.072-.512-.112-.8.032.288.08.544.112.8z" fill="#000" opacity=".3"/><path d="M464.589 423.538c-.802 1.288-10.269 2.984-13.446 4.96a22.888 22.888 0 01-10.357 3.072 51.388 51.388 0 01-6.242-.8v3.736l5.833-.6c2.551 1.08 6.49 0 8.207-.8 1.717-.8 4.428-4.168 6.795-5.352 2.367-1.184 6.354-2.112 8.175-2.944.755-.392.987-.848 1.035-1.272zM467.983 418.818l.979.208c.858-.312 1.428-.8 1.5-1.328a7.177 7.177 0 01-2.479 1.12zM464.212 422.53c1.115-.28 3.258-.8 3.258-.8 1.323-.496 1.829-1.024 1.965-1.488-.642.8-5.897 1.904-5.897 1.904l.674.384z" fill="#CEA999"/><path d="M332.163 261c12 4 9.667 16.667 7 22.5-4.5 7-16.5 9-16.5 15s-3.5 9-13.5 9.5-3 8.5-11.5 20.5-20.5 5-23-2.5-.5-19 10-23.5 10.5-14.5 14.5-26 18-20.5 33-15.5z" fill="#594423"/><path d="M267.379 357.241c.4-2.8 2.167-3.167 3-3l83 20.999c2.5 3.5-4.5 65.5-8 68.5s-26 12-30 10.5-63.5-33.5-66-37.5 17.5-55.999 18-59.499z" fill="#FF8139" stroke="#FF8139"/><path d="M320.663 421l-64-33 65.5 35.5c8-8 9.5-19 9.5-25.5s2.5-11 9.5-12c5.6-.8 9.667-7 11-10-6.833 2.167-20.8 7.2-22 10-1.2 2.8-6.833 24.5-9.5 35z" fill="#D3662F"/><path d="M330.663 385.5c-2-.8-37.784-21.26-58.784-30.26-8.5-3.642 12.5-9.5 18-8s66 25.5 63.5 28-20.216 11.26-22.716 10.26z" fill="#FF8139"/><path d="M322.163 345.5l-20 6 8 3.5 10-4.5 2-5zM354.163 351.5c-1.2 0-17.167 7.666-25 11.5h-1l13.5 5.5c6.5-3.667 19.9-11 21.5-11 1.6 0 4.333 2.666 5.5 4-.333-1-1.2-3.2-2-4-1-1-11-6-12.5-6zM348.163 430.5l20.5-17c1.6 0 1.667 2.666 1.5 4l-23.5 24 1.5-11z" fill="#FF8139"/><path d="M261.663 396l3.5-10 3.5 2-3.5 10-3.5-2zM297.163 411l3.5-10 3.5 2-3.5 10-3.5-2z" fill="#FFD300"/><path d="M244.198 357.757a10.44 10.44 0 013.443-2.277 96.074 96.074 0 0110.967-1.197c1.957 0 9.716 3.383 10.29 3.761.574.377.913 2.277-2.074 2.186-2.986-.091-22.626-2.473-22.626-2.473z" fill="#E5B9B7"/><path d="M251.991 489.855c-.401-23.992-9.184-79.976-13.525-104.969h-94.677c-6.512 14.996-8.015 33.491-8.015 49.986 0 13.196 1.057 81.809 3.227 104.469h49.593l9.291-70.479c2.003 7.597 4.848 56.816 6.016 70.479h48.09c.167.166.401-25.493 0-49.486z" fill="#00181B"/><path d="M238.663 386h-95.5l-4 12h101.5l-2-12z" fill="#00181B"/><path d="M203.461 461c4 30.8 7 65.166 8 78.5h-8c-2.4-32.4-4.667-58.5-5.5-67.5 1.6-14.4 4.333-13.334 5.5-11z" fill="#000"/><path d="M270.663 316c-12.8-27.2-30.667-57.333-38-69v67c4.333 8 13.7 18.1 16.5 22.5 2.8 4.4 12.167 24.5 16.5 34l19.5-14c.5-2.167-1.7-13.3-14.5-40.5z" fill="#fff"/><path d="M241.163 287v39.5c12 14 18 29.833 19.5 36l4-6.5c-5.167-4.167-15.2-14.4-14-22 1.2-7.6 7.167-11.167 10-12-3 .882-8.5 4.5-13.5 0-4-3.6-5.667-24.833-6-35z" fill="#F4F1F1"/><path d="M264.163 354c0-1.2.333-5.167.5-7l5 9.5c.167 2.667.4 8.3 0 9.5-.5 1.5-2.5 1.5-3-.5s-2.5-10-2.5-11.5z" fill="#E5B9B7"/><path d="M264.663 345.5c1.5-2.25 2.167-3 3.5-4 2.5-1 3.5-1 5.5-2.5s3.5 1 5.5-.5 3 0 4.5 0 2.5-1 4-.5 5 9 6 11 3.5 7.5 3 9.5c-.4 1.6-1.166 2.334-1.5 2.5.334.834 1.1 2.8 1.5 4 .5 1.5 0 4-2 4-1.6 0-2.666-1.333-3-2 0 1.5-1.5 2-3 1.5s-2-3.5-2.5-4.5-4.5-9-6-10.5-6.5-3-6.5-2 2 5.5 3.5 7 6 5 6.5 6.5 0 2.5-2 2.5-11-8-12.5-10.5-5.5-10-4.5-11.5z" fill="#F4C7C3"/><path d="M229.663 253.5c10.198 10.71-2.471 30.546 4.206 33.5l5.282 5.328s-1.644 24.158.012 63.172c1.511-.589 3.179-.972 5.035-.605 1.643.326 3.025.638 3.977.833.952.195-1.252.104 4.865.273 6.116.169 6.599-1.744 8.724-.768 2.126.976 6.664 4.399 9.286 5.544 2.621 1.145 8.359 6.702 9.35 8.016.992 1.314-.534 3.826-2.086 3.045a85.714 85.714 0 01-7.721-5.739c-.482-.65-9.024-2.954-9.024-2.954s5.881 3.28 7.368 4.23c1.487.95 8.529 4.984 9.312 5.621a2.778 2.778 0 01.718 2.56 2.796 2.796 0 01-1.762 1.995s1.513 4.19-2.165 4.437l-4.512-1.158s0 2.095-2.608 1.861c-3.43-.312-2.987-.573-5.712-.898-2.426-.299-3.73-.833-12.689-3.175-7.147-1.9-12.794-4.438-15.65-5.388l-8.92-2.602-7.512-5.01s-73.748-10.437-81.456-15.616c-7.707-5.179-21.075-58.156-6.586-93.851 7.63-18.817 21.791-19.662 27.268-19.584 4.304.078 9.483-1.913 9.978-2.967 2.217-5.062 5.204-16.943-6.716-33.691V196s-10.857-3.183-9.762-12.5c0 0 .514-5.862 8-7.5 0 0-6.5-20.5-4.5-22 5.412-9.578 57.045-11.125 63.5 6 0 0-1 50-13.5 63.5-3.99 1.08-1.67.924-6 0 .618 5.695-.548 6.246 1.568 11.57l.835 1.497s-.143 3.279 9.794.468c8.62-2.446 14.685 7.965 19.803 16.465z" fill="#F4C7C3"/><path opacity=".1" d="M197.486 224.153c6.746-3.378 8.409-18.553 11.06-23.34 2.652-4.787-4.34-12.143.123-25.1 3.332-9.672.603-22.04-.998-27.713 5.359 2.535 9.043 6.247 9.267 11.346 0 0 1.029 59.382-19.452 64.807z" fill="#000"/><path opacity=".1" d="M195.071 238.167c-1.891-1.744-4.982-20.821-4.982-20.821l4.982 1.302a63.387 63.387 0 004.121 16.604l.835 1.497s3.273 2.186 9.859 1.197l-1.461.494c-4.486.976-11.463 1.471-13.354-.273z" fill="#000"/><path d="M136.663 374.5c0-2.8 1.5-17.334 1.5-24.5l77.5 12 9.5 8.5 15.5 4.5c-.8 3.6-.833 9.5-2.5 11h-95c-2-2.5-6.5-5.5-6.5-11.5z" fill="#fff"/><path d="M138.163 352c19.2 11.6 55 15.833 70.5 16.5v3.5l-7.5 2c-10.5 2.5-38-8.5-50-10-9.6-1.2-13 .5-13.5 1.5l.5-13.5z" fill="#F4F1F1"/><path d="M209.163 236.5c12-2.5 15.382 1.954 23.5 10.5 10 10.527 6.488 24.5 6.488 76.5v32l-7.641-1.943c-.819.862-6.95 7.646-6.548 17.071l-7.407-1.705-.105-3.305s-74.283-9.734-81.456-15.616c-12.311-10.098-30.754-56.267-14.831-95.502 7.629-18.817 26.693-20.801 32-19.5 9.455 2.368 13.491-1.387 14-2.441 0 0 8.986 6.936 17.293 8.562l6.52 6.962 1.905-6.975c2.582-.82 5.79-6.61 5.555-8.25 1.043.585 2.159 6.114 10.727 3.642z" fill="#fff"/><path d="M154.163 299.5l1.644 4.565c1.33 1.835 3.613 3.603 7.356 4.435 9 2 12.5 6 15.5 11 2.4 4 16.667 15 23.5 20-7.167-3.667-22.5-11.4-26.5-13-4-1.6-10-2-12.5-2l-7.356-20.435c-1.229-1.694-1.644-3.445-1.644-4.565z" fill="#F4F1F1"/><path d="M195.163 399v-14h18v14h-18z" stroke="#FFD300" stroke-width="3"/><path d="M211.322 213.015c.403-2.894.428-5.829.076-8.732 0 0-1.51 3.702-4.65 1.317-4.642-3.517-12.028-6.558-22.948-1.815-10.92 4.742-18.278-10.762-17.852-17.342.426-6.58.291-22.43 5.522-24.725 5.231-2.296 13.236 6.709 25.348 6.936 12.113.227 19.846-6.848 19.469-2.107a72.112 72.112 0 00-.258 7.75s8.321-14.551 6.573-22.095c-1.749-7.543-9.57-9.399-16.982-9.413-7.412-.015-14.125-3.792-17.59-5.063a21.306 21.306 0 00-18.744 3.011c-7.316 5.218-12.379 2.017-15.327 8.24-2.949 6.224 1.6 21.89 3.135 25.017 1.041 2.086 2.412 11.113 3.152 20.31-.73 1.007-1.892 1.372-3.844.143a59.75 59.75 0 002.047 13.89c1.62 5.583 9.241 15.862 23.734 21.342a23.663 23.663 0 0010.977 1.806c12.228-1.186 17.559-12.468 18.162-18.47z" fill="#C09550"/><path d="M170.229 213.182c-5.349-3.139-9.321-7.575-8.104-16.956 1.216-9.381-3.709-32.129-3.766-40.84-.056-8.711 8.747-5.331 11.431-10.681 1.681-3.334 6.042-6.101 9.093-7.755a21.303 21.303 0 00-9.622 3.818c-7.317 5.218-12.38 2.018-15.328 8.241-2.948 6.224 1.601 21.89 3.135 25.017 1.041 2.086 2.413 11.113 3.152 20.31-.73 1.007-1.892 1.371-3.844.143a59.759 59.759 0 002.047 13.89c1.62 5.583 9.242 15.862 23.734 21.341a25.95 25.95 0 006.324 1.695c-10.131-2.259-12.914-15.088-18.252-18.223z" fill="#A07E49"/><path d="M183.402 136.75s3.828 6.948 14.444 9.855c3.752 1.057 16.413-1.578 19.608 2.629 3.194 4.206 3.619 9.449-1.158 17.289a72.624 72.624 0 00-.258 7.75s8.313-14.527 6.564-22.071c-1.749-7.543-9.569-9.398-16.981-9.413-7.412-.015-14.125-3.792-17.59-5.063a17.978 17.978 0 00-4.629-.976z" fill="#DDAB5B"/><path d="M211.322 213.015c.403-2.894.428-5.829.076-8.732 0 0-1.51 3.702-4.65 1.317a20.01 20.01 0 00-14.909-4.079c.411.053 14.284 1.73 15.661 8.735 1.376 7.005-2.3 15.29-8.985 19.921 8.43-3.368 12.306-12.12 12.807-17.162z" fill="#DDAA5B"/><path d="M234.663 351c-8.8 8.8-9.667 20-9 24.5l-17-2.5c-1.2-14.8 6.5-24.5 10.5-27.5l15.5 5.5z" fill="#F4F1F1"/><rect x="234.579" y="42.447" width="212.841" height="77.884" rx="8" fill="#081B42"/><path d="M262.875 65.98h22.095v5.444h-15.255v7.56h14.31v5.49h-14.31v8.1h15.255v5.445h-22.095V65.98zm45.968 32.444c-3.24 0-6.075-.675-8.505-2.025-2.4-1.38-4.245-3.3-5.535-5.76-1.29-2.49-1.935-5.385-1.935-8.684 0-3.27.645-6.135 1.935-8.596 1.29-2.49 3.135-4.41 5.535-5.76 2.43-1.35 5.265-2.025 8.505-2.025 2.13 0 4.155.33 6.075.99 1.95.63 3.54 1.53 4.77 2.7l-2.205 5.04c-1.44-1.08-2.85-1.86-4.23-2.34a11.995 11.995 0 00-4.275-.764c-2.88 0-5.085.915-6.615 2.745-1.53 1.83-2.295 4.5-2.295 8.01 0 3.54.765 6.24 2.295 8.1 1.53 1.83 3.735 2.744 6.615 2.744 1.5 0 2.925-.24 4.275-.72 1.38-.51 2.79-1.304 4.23-2.384l2.205 5.04c-1.23 1.17-2.82 2.085-4.77 2.745-1.92.63-3.945.944-6.075.944zm33.832 0c-3.18 0-5.955-.66-8.325-1.98-2.34-1.35-4.155-3.27-5.445-5.76-1.26-2.49-1.89-5.4-1.89-8.73s.63-6.224 1.89-8.684c1.29-2.46 3.105-4.35 5.445-5.67 2.37-1.35 5.145-2.025 8.325-2.025 3.18 0 5.94.674 8.28 2.025 2.34 1.32 4.14 3.21 5.4 5.67 1.26 2.46 1.89 5.355 1.89 8.684 0 3.33-.63 6.24-1.89 8.73-1.26 2.49-3.06 4.41-5.4 5.76-2.34 1.32-5.1 1.98-8.28 1.98zm0-5.49c2.7 0 4.8-.944 6.3-2.834 1.53-1.89 2.295-4.605 2.295-8.145 0-3.54-.765-6.24-2.295-8.1-1.5-1.86-3.6-2.79-6.3-2.79-2.7 0-4.815.93-6.345 2.79-1.5 1.86-2.25 4.56-2.25 8.1 0 3.57.75 6.3 2.25 8.19 1.53 1.86 3.645 2.79 6.345 2.79zm25.056-26.954h7.02v26.325h14.31v5.714h-21.33V65.98zm29.62 0h22.095v5.444h-15.255v7.56h14.31v5.49h-14.31v8.1h15.255v5.445h-22.095V65.98zM278.136 49.114l-6.599 8.883 3.881 2.667 6.524-9.012-3.806-2.538z" fill="#FAFAFC"/></svg>