<svg width="471" height="540" viewBox="0 0 471 540" fill="none" xmlns="http://www.w3.org/2000/svg">
<path d="M154 370H380C429.706 370 470 410.294 470 460V540H154V370Z" fill="#081B42"/>
<circle cx="211.61" cy="165.804" r="5.34111" fill="#081B42"/>
<circle cx="257.39" cy="165.804" r="5.34111" fill="#081B42"/>
<circle cx="303.172" cy="165.804" r="5.34111" fill="#081B42"/>
<circle cx="348.952" cy="165.804" r="5.34111" fill="#081B42"/>
<rect x="185.542" y="198.613" width="209.381" height="4.57809" fill="#081B42"/>
<rect x="347" y="168" width="4" height="203" fill="#081B42"/>
<rect x="300.882" y="168.093" width="4.57809" height="256.373" fill="#081B42"/>
<circle cx="393.846" cy="165.804" r="5.34111" fill="#081B42"/>
<rect x="391.557" y="168.093" width="4.57809" height="256.373" fill="#081B42"/>
<rect x="255.102" y="168.093" width="4.57809" height="256.373" fill="#081B42"/>
<rect x="209.196" y="168.093" width="4.57809" height="212.118" fill="#081B42"/>
<path d="M384.971 423.186C384.971 423.186 376.29 422.018 369.342 413.378C369.342 413.378 363.799 423.186 361.809 428.962C355.391 434.706 360.397 465.306 363.101 470.706C363.101 470.706 337.492 495.938 295.805 475.73C295.805 475.73 306.275 437.626 307.037 416.082C307.976 391.618 310.808 375.89 319.376 352.794C327.945 329.698 329.974 316.954 328.811 304.794C327.648 292.634 328.233 273.593 349.67 268.993C371.107 264.393 373.643 289.602 373.643 289.602C373.643 289.602 375.536 321.834 367.104 329.218C359.715 335.73 347.047 327.466 347.047 327.466C347.047 327.466 344.111 342.418 347.512 347.698C347.512 347.698 352.206 353.066 363.799 357.682C375.905 362.482 377.847 397.682 384.265 404.13" fill="#E2BBA6"/>
<path d="M360.245 269.37C361.103 274.61 362.475 283.026 363.743 291.322C362.94 283.506 361.456 274.85 360.429 269.434L360.245 269.37Z" fill="#CEA999"/>
<path d="M373.627 289.634L363.742 291.322L364.24 298.842C364.336 302.97 364.007 306.282 362.988 307.85C358.72 314.434 357.019 299.05 353.489 299.386C349.959 299.722 348.315 303.738 350.85 310.586C353.385 317.434 344.271 319.338 343.485 323.178C342.699 327.018 336.577 348.642 343.485 356.042L354.067 352.842C351.671 351.429 349.47 349.711 347.52 347.73C344.119 342.45 347.055 327.498 347.055 327.498C347.055 327.498 359.715 335.762 367.112 329.25C367.724 328.702 368.263 328.078 368.717 327.394C372.929 321.498 373.53 306.53 373.651 303.322C373.771 300.114 373.627 289.634 373.627 289.634Z" fill="#CEA999"/>
<path d="M374.99 272.993C374.99 272.993 381.208 279.393 376.812 286.441C372.415 293.489 363.606 290.169 362.507 297.409C361.408 304.649 353.489 299.385 353.489 299.385C353.489 299.385 350.184 293.241 347.071 298.073C343.958 302.905 350.81 310.577 350.81 310.577C351.761 311.925 352.271 313.533 352.271 315.181C352.271 316.83 351.761 318.438 350.81 319.785C347.48 324.721 343.324 319.569 339.578 324.585C335.831 329.601 329.686 324.201 326.741 329.217C326.741 329.217 328.827 320.857 324.431 318.217C320.034 315.577 314.667 311.145 316.729 303.193C318.446 296.577 319.015 291.689 318.133 287.297C317.25 282.905 323.749 279.609 326.412 278.497C329.076 277.385 328.169 264.897 340.492 264.017C352.815 263.137 354.131 268.425 359.635 268.409C365.138 268.393 371.878 269.513 374.99 272.993Z" fill="#594423"/>
<path d="M347.4 289.714C350.513 280.874 342.675 279.906 343.806 274.122C344.496 270.562 342.45 266.594 340.773 264.05H340.509C328.202 264.946 329.068 277.45 326.429 278.546C323.789 279.642 317.274 282.946 318.149 287.346C318.951 291.17 318.582 295.346 317.347 300.77C319.866 304.642 320.933 308.082 319.689 314.618C321.105 316.037 322.702 317.263 324.439 318.266C326.549 319.53 327.159 322.106 327.231 324.45C331.788 322.05 328.322 316.45 328.643 312.234C328.964 308.018 334.122 309.506 335.863 301.946C337.604 294.386 344.287 298.554 347.4 289.714Z" fill="#3E2F1C"/>
<path d="M320.676 349.218C320.676 349.218 316.841 352.418 313.383 362.018C309.925 371.618 318.919 356.49 318.919 356.49L319.978 351.138L320.676 349.218Z" fill="#292289"/>
<path d="M369.404 467C369.404 467 403.997 506.035 385.948 540H292.137H280.163L297.368 470.003C297.368 470.003 340.17 487.635 369.404 467Z" fill="#00B67A"/>
<path d="M298.163 486L289.663 500.5C294.163 497.5 295.663 496.5 302.663 506.5C309.663 516.5 321.663 517.5 332.163 515C340.563 513 343.33 523.5 343.663 529C345.663 516.5 341.663 498.5 328.663 496.5C318.263 494.9 303.996 488.833 298.163 486Z" fill="#04A670"/>
<path d="M434.504 422.162C423.545 420.178 406.368 415.722 391.983 401.954C380.895 391.346 375.937 362.546 363.799 357.714C359.374 356.008 355.182 353.753 351.323 351.002C332.309 357.266 323.749 355.058 319.97 351.122C319.769 351.674 314.025 358.05 310.68 366.778C301.854 389.778 303.916 394 295.663 422.162C289.145 444.404 284.163 460.5 284.163 460.5C323.663 505 370.163 468 370.163 468C370.163 460.294 370.163 454.5 369.342 434.5C369.342 430.796 369.342 413.378 369.342 413.378C376.29 422.034 387.121 426.978 387.121 426.978C403.544 436.394 425.494 436.834 434.504 436.066V422.162Z" fill="#F4C7C3"/>
<path d="M287.163 451.5L290.163 441.5L316.163 451.5L345.663 441.5L369.163 418V421.5L349.163 444.5C349.163 446.833 348.263 452.3 344.663 455.5C340.163 459.5 317.163 468.5 315.163 468C313.563 467.6 295.83 456.833 287.163 451.5Z" fill="#D3A8A4"/>
<path d="M412.016 405.762L425.767 402.634C425.767 402.634 436.798 403.57 438.026 403.762C439.253 403.954 442.294 408.858 442.751 409.802C443.208 410.746 440.898 411.122 439.317 409.802C437.737 408.482 437.913 407.346 436.453 407.066C434.993 406.786 416.115 410.018 412.016 405.762Z" fill="#E2BBA6"/>
<path d="M433.838 406.442C433.838 406.442 438.146 408.586 439.454 410.298C440.762 412.01 441.628 413.426 441.636 414.186C441.644 414.946 440.441 415.994 438.948 414.658C438.948 414.658 438.66 416.85 436.477 415.706C436.477 415.706 435.587 417.658 432.659 416.034C432.265 415.826 432.017 415.594 432.049 415.274C432.145 414.114 425.951 415.858 421.242 416.442C415.706 417.138 413.219 416.194 412.048 415.13C410.877 414.066 424.556 406.938 424.556 406.938L433.838 406.442Z" fill="#CEA999"/>
<path d="M396.644 405.954H409.633L411.911 415.314C411.911 415.314 402.717 411.442 396.644 405.954Z" fill="#D3A8A4"/>
<path d="M409.633 405.954C409.633 405.954 418.61 405.218 419.661 405.218C420.712 405.218 424.652 402.57 426.264 402.09C428.648 401.581 431.059 401.204 433.485 400.962C434.857 400.802 434.937 401.946 433.084 403.458C431.23 404.97 428.174 403.938 427.05 405.458C425.927 406.978 425.686 409.954 422.542 412.274C419.397 414.594 411.903 415.314 411.903 415.314L409.633 405.954Z" fill="#E2BBA6"/>
<path d="M369.118 417.665C369.118 417.665 373.731 419.209 375.496 419.498C375.496 419.498 370.578 415.153 369.374 413.377C369.523 414.811 369.436 416.259 369.118 417.665Z" fill="#0C2048"/>
<path d="M434.504 422.162C436.558 422.648 438.644 422.993 440.745 423.194C442.446 423.194 449.731 417.018 450.822 415.93C451.913 414.842 459.647 411.554 463.201 411.562C466.755 411.57 464.413 413.506 463.201 413.962C461.99 414.418 457.377 416.13 455.556 417.346C453.734 418.562 450.846 420.506 452.009 419.858C454.222 418.73 456.57 417.891 458.997 417.362C460.417 417.058 467.084 415.866 469.146 416.426C471.208 416.986 470.638 418.37 468.962 418.97C468.962 418.97 470.823 420.458 467.469 421.714C467.469 421.714 465.327 422.218 464.212 422.514C464.364 422.696 464.468 422.912 464.516 423.144C464.563 423.376 464.551 423.616 464.482 423.842C464.412 424.069 464.288 424.274 464.119 424.44C463.95 424.606 463.742 424.728 463.514 424.794C461.693 425.594 457.714 426.554 455.339 427.738C452.964 428.922 450.269 432.346 448.544 433.09C446.819 433.834 442.888 434.954 440.336 433.89L434.504 434.49V422.162Z" fill="#E2BBA6"/>
<g style="mix-blend-mode:multiply" opacity="0.3">
<path d="M323.051 478.578C323.195 479.546 323.332 480.49 323.468 481.426C323.332 480.49 323.195 479.546 323.051 478.578Z" fill="black"/>
</g>
<g style="mix-blend-mode:multiply" opacity="0.3">
<path d="M322.938 477.842C322.938 477.586 322.866 477.33 322.826 477.042C322.858 477.33 322.906 477.586 322.938 477.842Z" fill="black"/>
</g>
<path d="M464.589 423.538C463.787 424.826 454.32 426.522 451.143 428.498C447.987 430.333 444.435 431.387 440.786 431.57C438.691 431.431 436.606 431.164 434.544 430.77V434.506L440.377 433.906C442.928 434.986 446.867 433.906 448.584 433.106C450.301 432.306 453.012 428.938 455.379 427.754C457.746 426.57 461.733 425.642 463.554 424.81C464.309 424.418 464.541 423.962 464.589 423.538Z" fill="#CEA999"/>
<path d="M467.983 418.818L468.962 419.026C469.82 418.714 470.39 418.226 470.462 417.698C469.715 418.226 468.873 418.606 467.983 418.818Z" fill="#CEA999"/>
<path d="M464.212 422.53C465.327 422.25 467.47 421.73 467.47 421.73C468.793 421.234 469.299 420.706 469.435 420.242C468.793 421.042 463.538 422.146 463.538 422.146L464.212 422.53Z" fill="#CEA999"/>
<path d="M332.163 261C344.163 265 341.83 277.667 339.163 283.5C334.663 290.5 322.663 292.5 322.663 298.5C322.663 304.5 319.163 307.5 309.163 308C299.163 308.5 306.163 316.5 297.663 328.5C289.163 340.5 277.163 333.5 274.663 326C272.163 318.5 274.163 307 284.663 302.5C295.163 298 295.163 288 299.163 276.5C303.163 265 317.163 256 332.163 261Z" fill="#594423"/>
<path d="M267.379 357.241C267.779 354.441 269.546 354.074 270.379 354.241L353.379 375.24C355.879 378.74 348.879 440.74 345.379 443.74C341.879 446.74 319.379 455.74 315.379 454.24C311.379 452.74 251.879 420.74 249.379 416.74C246.879 412.74 266.879 360.741 267.379 357.241Z" fill="#FF8139" stroke="#FF8139"/>
<path d="M320.663 421L256.663 388L322.163 423.5C330.163 415.5 331.663 404.5 331.663 398C331.663 391.5 334.163 387 341.163 386C346.763 385.2 350.83 379 352.163 376C345.33 378.167 331.363 383.2 330.163 386C328.963 388.8 323.33 410.5 320.663 421Z" fill="#D3662F"/>
<path d="M330.663 385.5C328.663 384.7 292.879 364.24 271.879 355.24C263.379 351.598 284.379 345.74 289.879 347.24C295.379 348.74 355.879 372.74 353.379 375.24C350.879 377.74 333.163 386.5 330.663 385.5Z" fill="#FF8139"/>
<path d="M322.163 345.5L302.163 351.5L310.163 355L320.163 350.5L322.163 345.5Z" fill="#FF8139"/>
<path d="M354.163 351.5C352.963 351.5 336.996 359.166 329.163 363H328.163L341.663 368.5C348.163 364.833 361.563 357.5 363.163 357.5C364.763 357.5 367.496 360.166 368.663 361.5C368.33 360.5 367.463 358.3 366.663 357.5C365.663 356.5 355.663 351.5 354.163 351.5Z" fill="#FF8139"/>
<path d="M348.163 430.5L368.663 413.5C370.263 413.5 370.33 416.166 370.163 417.5L346.663 441.5L348.163 430.5Z" fill="#FF8139"/>
<path d="M261.663 396L265.163 386L268.663 388L265.163 398L261.663 396Z" fill="#FFD300"/>
<path d="M297.163 411L300.663 401L304.163 403L300.663 413L297.163 411Z" fill="#FFD300"/>
<path d="M244.198 357.757C245.182 356.777 246.352 356.003 247.641 355.48C251.27 354.871 254.932 354.472 258.608 354.283C260.565 354.283 268.324 357.666 268.898 358.044C269.472 358.421 269.811 360.321 266.824 360.23C263.838 360.139 244.198 357.757 244.198 357.757Z" fill="#E5B9B7"/>
<path d="M251.991 489.855C251.59 465.863 242.807 409.879 238.466 384.886H143.789C137.277 399.882 135.774 418.377 135.774 434.872C135.774 448.068 136.831 516.681 139.001 539.341H188.594L197.885 468.862C199.888 476.459 202.733 525.678 203.901 539.341H251.991C252.158 539.507 252.392 513.848 251.991 489.855Z" fill="#00181B"/>
<path d="M238.663 386H143.163L139.163 398H240.663L238.663 386Z" fill="#00181B"/>
<path d="M203.461 461C207.461 491.8 210.461 526.166 211.461 539.5H203.461C201.061 507.1 198.794 481 197.961 472C199.561 457.6 202.294 458.666 203.461 461Z" fill="black"/>
<path d="M270.663 316C257.863 288.8 239.996 258.667 232.663 247V314C236.996 322 246.363 332.1 249.163 336.5C251.963 340.9 261.33 361 265.663 370.5L285.163 356.5C285.663 354.333 283.463 343.2 270.663 316Z" fill="white"/>
<path d="M241.163 287V326.5C253.163 340.5 259.163 356.333 260.663 362.5L264.663 356C259.496 351.833 249.463 341.6 250.663 334C251.863 326.4 257.83 322.833 260.663 322C257.663 322.882 252.163 326.5 247.163 322C243.163 318.4 241.496 297.167 241.163 287Z" fill="#F4F1F1"/>
<path d="M264.163 354C264.163 352.8 264.496 348.833 264.663 347L269.663 356.5C269.83 359.167 270.063 364.8 269.663 366C269.163 367.5 267.163 367.5 266.663 365.5C266.163 363.5 264.163 355.5 264.163 354Z" fill="#E5B9B7"/>
<path d="M264.663 345.5C266.163 343.25 266.83 342.5 268.163 341.5C270.663 340.5 271.663 340.5 273.663 339C275.663 337.5 277.163 340 279.163 338.5C281.163 337 282.163 338.5 283.663 338.5C285.163 338.5 286.163 337.5 287.663 338C289.163 338.5 292.663 347 293.663 349C294.663 351 297.163 356.5 296.663 358.5C296.263 360.1 295.497 360.834 295.163 361C295.497 361.834 296.263 363.8 296.663 365C297.163 366.5 296.663 369 294.663 369C293.063 369 291.997 367.667 291.663 367C291.663 368.5 290.163 369 288.663 368.5C287.163 368 286.663 365 286.163 364C285.663 363 281.663 355 280.163 353.5C278.663 352 273.663 350.5 273.663 351.5C273.663 352.5 275.663 357 277.163 358.5C278.663 360 283.163 363.5 283.663 365C284.163 366.5 283.663 367.5 281.663 367.5C279.663 367.5 270.663 359.5 269.163 357C267.663 354.5 263.663 347 264.663 345.5Z" fill="#F4C7C3"/>
<path d="M229.663 253.5C239.861 264.21 227.192 284.046 233.869 287L239.151 292.328C239.151 292.328 237.507 316.486 239.163 355.5C240.674 354.911 242.342 354.528 244.198 354.895C245.841 355.221 247.223 355.533 248.175 355.728C249.127 355.923 246.923 355.832 253.04 356.001C259.156 356.17 259.639 354.257 261.764 355.233C263.89 356.209 268.428 359.632 271.05 360.777C273.671 361.922 279.409 367.479 280.4 368.793C281.392 370.107 279.866 372.619 278.314 371.838C275.635 370.071 273.057 368.155 270.593 366.099C270.111 365.449 261.569 363.145 261.569 363.145C261.569 363.145 267.45 366.425 268.937 367.375C270.424 368.325 277.466 372.359 278.249 372.996C278.573 373.329 278.808 373.738 278.933 374.185C279.059 374.632 279.07 375.104 278.967 375.556C278.863 376.009 278.647 376.428 278.34 376.777C278.032 377.125 277.642 377.391 277.205 377.551C277.205 377.551 278.718 381.741 275.04 381.988L270.528 380.83C270.528 380.83 270.528 382.925 267.92 382.691C264.49 382.379 264.933 382.118 262.208 381.793C259.782 381.494 258.478 380.96 249.519 378.618C242.372 376.718 236.725 374.18 233.869 373.23L224.949 370.628L217.437 365.618C217.437 365.618 143.689 355.181 135.981 350.002C128.274 344.823 114.906 291.846 129.395 256.151C137.025 237.334 151.186 236.489 156.663 236.567C160.967 236.645 166.146 234.654 166.641 233.6C168.858 228.538 171.845 216.657 159.925 199.909V196C159.925 196 149.068 192.817 150.163 183.5C150.163 183.5 150.677 177.638 158.163 176C158.163 176 151.663 155.5 153.663 154C159.075 144.422 210.708 142.875 217.163 160C217.163 160 216.163 210 203.663 223.5C199.673 224.58 201.993 224.424 197.663 223.5C198.281 229.195 197.115 229.746 199.231 235.07L200.066 236.567C200.066 236.567 199.923 239.846 209.86 237.035C218.48 234.589 224.545 245 229.663 253.5Z" fill="#F4C7C3"/>
<path opacity="0.1" d="M197.486 224.153C204.232 220.775 205.895 205.6 208.546 200.813C211.198 196.026 204.206 188.67 208.669 175.713C212.001 166.041 209.272 153.673 207.671 148C213.03 150.535 216.714 154.247 216.938 159.346C216.938 159.346 217.967 218.728 197.486 224.153Z" fill="black"/>
<path opacity="0.1" d="M195.071 238.167C193.18 236.423 190.089 217.346 190.089 217.346L195.071 218.648C195.688 224.343 197.074 229.928 199.192 235.252L200.027 236.749C200.027 236.749 203.3 238.935 209.886 237.946L208.425 238.44C203.939 239.416 196.962 239.911 195.071 238.167Z" fill="black"/>
<path d="M136.663 374.5C136.663 371.7 138.163 357.166 138.163 350L215.663 362L225.163 370.5L240.663 375C239.863 378.6 239.83 384.5 238.163 386H143.163C141.163 383.5 136.663 380.5 136.663 374.5Z" fill="white"/>
<path d="M138.163 352C157.363 363.6 193.163 367.833 208.663 368.5V372L201.163 374C190.663 376.5 163.163 365.5 151.163 364C141.563 362.8 138.163 364.5 137.663 365.5L138.163 352Z" fill="#F4F1F1"/>
<path d="M209.163 236.5C221.163 234 224.545 238.454 232.663 247C242.663 257.527 239.151 271.5 239.151 323.5V355.5L231.51 353.557C230.691 354.419 224.56 361.203 224.962 370.628L217.555 368.923L217.45 365.618C217.45 365.618 143.167 355.884 135.994 350.002C123.683 339.904 105.24 293.735 121.163 254.5C128.792 235.683 147.856 233.699 153.163 235C162.618 237.368 166.654 233.613 167.163 232.559C167.163 232.559 176.149 239.495 184.456 241.121L190.976 248.083L192.881 241.108C195.463 240.288 198.671 234.498 198.436 232.858C199.479 233.443 200.595 238.972 209.163 236.5Z" fill="white"/>
<path d="M154.163 299.5L155.807 304.065C157.137 305.9 159.42 307.668 163.163 308.5C172.163 310.5 175.663 314.5 178.663 319.5C181.063 323.5 195.33 334.5 202.163 339.5C194.996 335.833 179.663 328.1 175.663 326.5C171.663 324.9 165.663 324.5 163.163 324.5L155.807 304.065C154.578 302.371 154.163 300.62 154.163 299.5Z" fill="#F4F1F1"/>
<path d="M195.163 399V385H213.163V399H195.163Z" stroke="#FFD300" stroke-width="3"/>
<path d="M211.322 213.015C211.725 210.121 211.75 207.186 211.398 204.283C211.398 204.283 209.888 207.985 206.748 205.6C202.106 202.083 194.72 199.042 183.8 203.785C172.88 208.527 165.522 193.023 165.948 186.443C166.374 179.863 166.239 164.013 171.47 161.718C176.701 159.422 184.706 168.427 196.818 168.654C208.931 168.881 216.664 161.806 216.287 166.547C216.062 169.124 215.976 171.711 216.029 174.297C216.029 174.297 224.35 159.746 222.602 152.202C220.853 144.659 213.032 142.803 205.62 142.789C198.208 142.774 191.495 138.997 188.03 137.726C184.884 136.744 181.553 136.505 178.3 137.028C175.047 137.55 171.962 138.82 169.286 140.737C161.97 145.955 156.907 142.754 153.959 148.977C151.01 155.201 155.559 170.867 157.094 173.994C158.135 176.08 159.506 185.107 160.246 194.304C159.516 195.311 158.354 195.676 156.402 194.447C156.536 199.14 157.223 203.803 158.449 208.337C160.069 213.92 167.69 224.199 182.183 229.679C185.647 231.145 189.411 231.764 193.16 231.485C205.388 230.299 210.719 219.017 211.322 213.015Z" fill="#C09550"/>
<path d="M170.229 213.182C164.88 210.043 160.908 205.607 162.125 196.226C163.341 186.845 158.416 164.097 158.359 155.386C158.303 146.675 167.106 150.055 169.79 144.705C171.471 141.371 175.832 138.604 178.883 136.95C175.409 137.413 172.104 138.724 169.261 140.768C161.944 145.986 156.881 142.786 153.933 149.009C150.985 155.233 155.534 170.899 157.068 174.026C158.109 176.112 159.481 185.139 160.22 194.336C159.49 195.343 158.328 195.707 156.376 194.479C156.51 199.172 157.197 203.834 158.423 208.369C160.043 213.952 167.665 224.231 182.157 229.71C184.185 230.54 186.31 231.109 188.481 231.405C178.35 229.146 175.567 216.317 170.229 213.182Z" fill="#A07E49"/>
<path d="M183.402 136.75C183.402 136.75 187.23 143.698 197.846 146.605C201.598 147.662 214.259 145.027 217.454 149.234C220.648 153.44 221.073 158.683 216.296 166.523C216.072 169.099 215.986 171.687 216.038 174.273C216.038 174.273 224.351 159.746 222.602 152.202C220.853 144.659 213.033 142.804 205.621 142.789C198.209 142.774 191.496 138.997 188.031 137.726C186.537 137.198 184.981 136.87 183.402 136.75Z" fill="#DDAB5B"/>
<path d="M211.322 213.015C211.725 210.121 211.75 207.186 211.398 204.283C211.398 204.283 209.888 207.985 206.748 205.6C204.658 203.965 202.263 202.763 199.703 202.062C197.143 201.362 194.47 201.178 191.839 201.521C192.25 201.574 206.123 203.251 207.5 210.256C208.876 217.261 205.2 225.546 198.515 230.177C206.945 226.809 210.821 218.057 211.322 213.015Z" fill="#DDAA5B"/>
<path d="M234.663 351C225.863 359.8 224.996 371 225.663 375.5L208.663 373C207.463 358.2 215.163 348.5 219.163 345.5L234.663 351Z" fill="#F4F1F1"/>
<rect x="234.579" y="42.4473" width="212.841" height="77.8841" rx="8" fill="#081B42"/>
<path d="M262.875 65.9795H284.97V71.4245H269.715V78.9845H284.025V84.4745H269.715V92.5745H284.97V98.0195H262.875V65.9795ZM308.843 98.4245C305.603 98.4245 302.768 97.7495 300.338 96.3995C297.938 95.0195 296.093 93.0995 294.803 90.6395C293.513 88.1495 292.868 85.2545 292.868 81.9545C292.868 78.6845 293.513 75.8195 294.803 73.3595C296.093 70.8695 297.938 68.9495 300.338 67.5995C302.768 66.2495 305.603 65.5745 308.843 65.5745C310.973 65.5745 312.998 65.9045 314.918 66.5645C316.868 67.1945 318.458 68.0945 319.688 69.2645L317.483 74.3045C316.043 73.2245 314.633 72.4445 313.253 71.9645C311.903 71.4545 310.478 71.1995 308.978 71.1995C306.098 71.1995 303.893 72.1145 302.363 73.9445C300.833 75.7745 300.068 78.4445 300.068 81.9545C300.068 85.4945 300.833 88.1945 302.363 90.0545C303.893 91.8845 306.098 92.7995 308.978 92.7995C310.478 92.7995 311.903 92.5595 313.253 92.0795C314.633 91.5695 316.043 90.7745 317.483 89.6945L319.688 94.7345C318.458 95.9045 316.868 96.8195 314.918 97.4795C312.998 98.1095 310.973 98.4245 308.843 98.4245ZM342.675 98.4245C339.495 98.4245 336.72 97.7645 334.35 96.4445C332.01 95.0945 330.195 93.1745 328.905 90.6845C327.645 88.1945 327.015 85.2845 327.015 81.9545C327.015 78.6245 327.645 75.7295 328.905 73.2695C330.195 70.8095 332.01 68.9195 334.35 67.5995C336.72 66.2495 339.495 65.5745 342.675 65.5745C345.855 65.5745 348.615 66.2495 350.955 67.5995C353.295 68.9195 355.095 70.8095 356.355 73.2695C357.615 75.7295 358.245 78.6245 358.245 81.9545C358.245 85.2845 357.615 88.1945 356.355 90.6845C355.095 93.1745 353.295 95.0945 350.955 96.4445C348.615 97.7645 345.855 98.4245 342.675 98.4245ZM342.675 92.9345C345.375 92.9345 347.475 91.9895 348.975 90.0995C350.505 88.2095 351.27 85.4945 351.27 81.9545C351.27 78.4145 350.505 75.7145 348.975 73.8545C347.475 71.9945 345.375 71.0645 342.675 71.0645C339.975 71.0645 337.86 71.9945 336.33 73.8545C334.83 75.7145 334.08 78.4145 334.08 81.9545C334.08 85.5245 334.83 88.2545 336.33 90.1445C337.86 92.0045 339.975 92.9345 342.675 92.9345ZM367.731 65.9795H374.751V92.3045H389.061V98.0195H367.731V65.9795ZM397.351 65.9795H419.446V71.4245H404.191V78.9845H418.501V84.4745H404.191V92.5745H419.446V98.0195H397.351V65.9795Z" fill="#FAFAFC"/>
<path d="M278.136 49.1143L271.537 57.9966L275.418 60.6641L281.942 51.6519L278.136 49.1143Z" fill="#FAFAFC"/>
</svg>
