<svg xmlns="http://www.w3.org/2000/svg" fill="none" viewBox="0 0 189 312"><path stroke="#65ED49" stroke-linecap="round" stroke-linejoin="round" stroke-width="23" d="M45.764 201.499c0-15.761-2.848-35.353 10.188-47.07 8.087-7.268 20.612-2.691 28.928 1.476 13.029 6.528 26.495 13.409 41.255 14.696 12.539 1.093 21.002-1.732 28.079-12.655 4.136-6.383 7.21-13.48 10.691-20.222 2.828-5.476 5.618-12.791 11.163-16.234 3.211-1.995 7.132-2.323 10.816-2.387 9.865-.171 18.269 2.467 27.514 5.495 7.467 2.447 16.283 5.56 24.275 4.365 4.946-.739 8.414-2.5 12.703-5.087 6.291-3.794 9.911-8.564 15.124-13.377"/></svg>