<svg xmlns="http://www.w3.org/2000/svg" fill="none" viewBox="0 0 215 400"><path stroke="#65ED49" stroke-linecap="round" stroke-linejoin="round" stroke-width="23" d="M101.637 308.117c23.008-13.893 42.691-38.501 54.582-62.103 7.636-15.156 16.599-37.049 8.212-53.846-5.452-10.919-16.66-16.912-28.542-15.203-39.775 5.721-58.33 49.45-70.77 82.431-6.952 18.429-12.89 37.239-20.378 55.465-3.745 9.114-7.886 18.478-14.841 25.646-2.196 2.263-6.15 6.612-9.83 5.963-4.852-.856-8.533-7.845-10.211-11.815-3.894-9.21-4.492-19.456-3.597-29.318 2.916-32.135 14.683-63.993 26.956-93.532 8.867-21.341 19.51-41.877 28.52-63.156 5.57-13.15 14.103-29.5 13.963-44.286-.045-4.686-2.475-6.44-6.9-4.985-19.491 6.402-36.582 22.227-49.987 37.024-27.507 30.364-44.257 69.305-57.408 107.664-3.756 10.956-6.884 22.811-12.868 32.844-1.8 3.019-6.72 10.388-10.956 10.581-3.262.148-6.785-8.226-7.717-10.38-5.185-11.982-3.609-28.83-1.981-41.348 5.325-40.951 22.085-77.951 42.74-113.168 5.826-9.934 21.447-27.368 14.37-40.094-2.692-4.842-7.617-6.482-12.945-6.498-22.247-.068-43.63 18.449-58.616 32.922-25.51 24.636-38.534 60.95-47.502 94.469"/></svg>