<svg xmlns="http://www.w3.org/2000/svg" fill="none" viewBox="0 0 447 403"><path id="content" stroke-linecap="round" stroke-linejoin="round" stroke-width="35" d="M338.705 332.898c31.267-18.876 58.015-52.311 74.174-84.378 10.378-20.594 22.558-50.34 11.161-73.161-7.41-14.836-22.642-22.978-38.788-20.656-54.052 7.772-79.267 67.187-96.173 111.999-9.447 25.039-17.516 50.595-27.693 75.359-5.089 12.383-10.717 25.106-20.168 34.845-2.984 3.075-8.358 8.984-13.359 8.102-6.593-1.163-11.595-10.658-13.876-16.052-5.291-12.514-6.104-26.436-4.888-39.835 3.963-43.662 19.954-86.947 36.632-127.081 12.049-28.996 26.513-56.899 38.758-85.81 7.568-17.867 19.164-40.081 18.974-60.17-.06-6.368-3.363-8.75-9.378-6.775-26.486 8.698-49.711 30.2-67.928 50.304-37.381 41.256-60.143 94.166-78.015 146.283-5.104 14.886-9.355 30.994-17.487 44.625-2.447 4.102-9.132 14.114-14.889 14.376-4.432.202-9.22-11.176-10.486-14.103-7.046-16.279-4.905-39.171-2.693-56.179 7.237-55.64 30.013-105.911 58.081-153.76 7.918-13.498 29.146-37.185 19.53-54.476-3.659-6.579-10.351-8.808-17.592-8.83-30.233-.091-59.292 25.067-79.657 44.732C48.279 95.73 30.58 145.069 18.392 190.612"/></svg>