<svg xmlns="http://www.w3.org/2000/svg" fill="none" viewBox="0 0 16 16"><path fill="#fff" fill-rule="evenodd" d="M8 0C5.827 0 5.555.01 4.702.048 3.85.087 3.269.222 2.76.42a3.921 3.921 0 00-1.417.923A3.92 3.92 0 00.42 2.759C.222 3.27.087 3.85.048 4.701.01 5.554 0 5.827 0 8c0 2.173.01 2.445.048 3.298.039.852.174 1.433.372 1.942.204.526.478.972.923 1.417.444.445.89.718 1.417.922.509.198 1.09.334 1.942.372C5.555 15.99 5.827 16 8 16s2.445-.01 3.298-.049c.852-.038 1.433-.174 1.942-.371a3.921 3.921 0 001.417-.923 3.92 3.92 0 00.923-1.417c.198-.509.333-1.09.372-1.942C15.99 10.444 16 10.172 16 8c0-2.172-.01-2.445-.048-3.298-.039-.851-.174-1.433-.372-1.942a3.921 3.921 0 00-.923-1.416A3.921 3.921 0 0013.24.42c-.509-.198-1.09-.333-1.942-.372C10.445.01 10.173 0 8 0zm.002 1.44c2.137 0 2.39.009 3.233.047.78.036 1.204.166 1.486.276.373.145.64.318.92.598.28.28.453.547.598.92.11.282.24.705.275 1.485.039.844.047 1.097.047 3.233s-.008 2.389-.047 3.232c-.035.78-.165 1.204-.275 1.486-.145.373-.319.64-.599.92-.28.28-.546.452-.92.598-.281.11-.705.24-1.485.275-.843.039-1.096.047-3.233.047-2.136 0-2.389-.008-3.232-.047-.78-.035-1.204-.166-1.486-.275a2.478 2.478 0 01-.92-.599 2.479 2.479 0 01-.598-.92c-.11-.281-.24-.705-.275-1.485-.039-.843-.047-1.096-.047-3.232s.008-2.39.047-3.233c.035-.78.165-1.203.275-1.485.145-.373.318-.64.598-.92.28-.28.547-.453.92-.598.282-.11.706-.24 1.486-.276.843-.038 1.096-.046 3.232-.046zM3.894 8a4.109 4.109 0 118.217 0 4.109 4.109 0 01-8.217 0zM8 10.672a2.668 2.668 0 01-2.667-2.669A2.668 2.668 0 118 10.671zm4.27-6.977a.96.96 0 100-1.92.96.96 0 000 1.92z" clip-rule="evenodd"/></svg>