<svg xmlns="http://www.w3.org/2000/svg" fill="none" viewBox="0 0 16 16"><path fill="#fff" fill-rule="evenodd" d="M16 2.539a6.539 6.539 0 01-1.885.516A3.288 3.288 0 0015.56 1.24a6.565 6.565 0 01-2.086.796A3.282 3.282 0 007.88 5.029 9.317 9.317 0 011.114 1.6 3.277 3.277 0 00.67 3.251a3.28 3.28 0 001.46 2.731 3.285 3.285 0 01-1.488-.41v.041a3.283 3.283 0 002.635 3.218 3.267 3.267 0 01-1.483.057 3.284 3.284 0 003.066 2.278 6.586 6.586 0 01-4.077 1.406c-.265 0-.527-.015-.783-.045A9.308 9.308 0 005.032 14c6.038 0 9.34-5 9.34-9.337 0-.143-.003-.286-.009-.425A6.64 6.64 0 0016 2.539" clip-rule="evenodd"/></svg>