<svg xmlns="http://www.w3.org/2000/svg" fill="none" viewBox="0 0 16 16"><path fill="#fff" fill-rule="evenodd" d="M16 14.321h-3.536V9.285c0-1.318-.553-2.218-1.77-2.218-.93 0-1.448.608-1.689 1.193-.09.21-.076.503-.076.795v5.266H5.426s.045-8.92 0-9.731h3.503v1.527c.207-.668 1.327-1.62 3.113-1.62C14.26 4.496 16 5.896 16 8.91v5.411zM1.883 3.377h-.022C.73 3.377 0 2.633 0 1.69 0 .728.754 0 1.905 0c1.15 0 1.858.727 1.88 1.687 0 .943-.73 1.69-1.902 1.69zM.404 4.592h3.119v9.73H.404v-9.73z" clip-rule="evenodd"/></svg>