<svg xmlns="http://www.w3.org/2000/svg" fill="none" viewBox="0 0 135 33"><path fill="#fff" d="M35.222 11.71h13.556v2.525H43.44V28.46h-2.925V14.235h-5.316l.023-2.524zm12.975 4.624H50.7v2.345h.044c.09-.335.246-.648.47-.96.223-.313.49-.603.826-.85.312-.267.67-.468 1.072-.624.38-.157.781-.246 1.183-.246.313 0 .536.022.648.022.112.023.246.045.357.045v2.568c-.178-.044-.38-.067-.58-.09-.202-.021-.38-.044-.581-.044a3.1 3.1 0 00-1.273.268c-.402.179-.737.447-1.05.782-.29.357-.536.782-.714 1.295-.18.514-.268 1.117-.268 1.787v5.762h-2.68l.044-12.06zM67.583 28.46h-2.636v-1.697h-.044c-.335.625-.827 1.094-1.474 1.474a3.89 3.89 0 01-1.988.558c-1.586 0-2.747-.38-3.462-1.184-.714-.781-1.072-1.987-1.072-3.573v-7.705h2.68v7.437c0 1.072.201 1.831.626 2.256.402.446.982.67 1.72.67.557 0 1.027-.09 1.406-.268.38-.18.693-.402.916-.693.246-.29.402-.647.514-1.05.111-.401.156-.848.156-1.317v-7.035h2.68V28.46h-.022zm4.555-3.886c.09.782.38 1.318.894 1.653.514.312 1.139.469 1.853.469.246 0 .537-.023.85-.067.312-.045.625-.112.893-.224a1.57 1.57 0 00.692-.491c.179-.223.268-.491.246-.826-.023-.335-.134-.626-.38-.85-.246-.222-.536-.379-.893-.535a7.756 7.756 0 00-1.251-.335c-.47-.09-.938-.201-1.43-.313a15.457 15.457 0 01-1.451-.402 4.163 4.163 0 01-1.25-.647 2.788 2.788 0 01-.872-1.028c-.223-.424-.335-.915-.335-1.54 0-.67.157-1.207.492-1.653a3.561 3.561 0 011.228-1.072 5.576 5.576 0 011.653-.581 9.467 9.467 0 011.72-.156 7.74 7.74 0 011.786.2c.558.135 1.094.336 1.54.648.47.29.85.693 1.14 1.162.313.469.491 1.05.58 1.72h-2.791c-.134-.648-.424-1.073-.871-1.296-.47-.223-.983-.335-1.586-.335-.178 0-.424.022-.67.045a3.927 3.927 0 00-.737.178 1.76 1.76 0 00-.58.38.893.893 0 00-.246.648c0 .335.112.58.335.781.223.201.513.358.893.514a7.75 7.75 0 001.25.335c.47.09.961.2 1.453.313.49.111.96.245 1.429.402.469.156.893.357 1.25.647.358.268.67.603.894 1.005.223.402.335.916.335 1.497 0 .714-.156 1.317-.491 1.83-.335.492-.76.917-1.273 1.23-.514.312-1.117.535-1.742.692-.648.134-1.273.223-1.899.223-.76 0-1.474-.09-2.122-.268a5.402 5.402 0 01-1.697-.782 3.75 3.75 0 01-1.117-1.317c-.267-.514-.424-1.14-.446-1.876h2.702v.022h.022zm8.822-8.241h2.033V12.67h2.68v3.64h2.412v1.99h-2.412v6.477c0 .29.022.514.044.737.023.2.09.38.157.514a.866.866 0 00.38.312c.178.067.401.112.714.112.178 0 .38 0 .558-.022.179-.023.38-.045.559-.09v2.077c-.29.045-.581.067-.871.09-.29.044-.559.044-.871.044-.715 0-1.273-.067-1.698-.2-.424-.135-.76-.336-1.005-.581a2.076 2.076 0 01-.491-.96c-.09-.38-.134-.85-.156-1.34v-7.147H80.96V16.29v.045zm9 0h2.524v1.653h.045c.38-.715.893-1.206 1.563-1.52A5.065 5.065 0 0196.281 16c.96 0 1.786.156 2.501.514.715.335 1.296.781 1.765 1.384.469.58.826 1.273 1.049 2.055a9.12 9.12 0 01.358 2.501c0 .827-.112 1.608-.313 2.368-.223.759-.536 1.451-.96 2.032a4.76 4.76 0 01-1.63 1.407c-.67.357-1.43.536-2.323.536-.38 0-.782-.045-1.162-.112a4.945 4.945 0 01-1.117-.335 4.01 4.01 0 01-.982-.603 3.402 3.402 0 01-.76-.848h-.044v6.052h-2.68V16.334h-.023zm9.358 6.075c0-.536-.067-1.072-.223-1.586a4.046 4.046 0 00-.648-1.362 3.572 3.572 0 00-1.05-.96c-.424-.246-.915-.358-1.451-.358-1.117 0-1.965.38-2.546 1.161-.558.782-.849 1.832-.849 3.127 0 .625.067 1.184.224 1.697.156.514.357.96.67 1.34.29.38.647.67 1.072.894.424.223.893.335 1.451.335.626 0 1.117-.134 1.541-.38.425-.246.76-.58 1.05-.96a3.93 3.93 0 00.58-1.363 7.65 7.65 0 00.18-1.585zm4.713-10.698h2.68v2.524h-2.68V11.71zm0 4.623h2.68V28.46h-2.68V16.334zm5.069-4.623h2.68v16.75h-2.68V11.71zm10.854 17.085c-.96 0-1.831-.156-2.59-.491-.76-.335-1.385-.76-1.921-1.318a5.732 5.732 0 01-1.184-2.032 7.94 7.94 0 01-.424-2.569c0-.915.134-1.764.424-2.546a5.935 5.935 0 011.184-2.032 5.354 5.354 0 011.921-1.318 6.775 6.775 0 012.59-.491c.961 0 1.832.156 2.591.491.759.313 1.385.76 1.921 1.318.513.558.915 1.25 1.183 2.032s.425 1.63.425 2.546c0 .938-.134 1.787-.425 2.569-.29.781-.67 1.451-1.183 2.032a5.363 5.363 0 01-1.921 1.318c-.759.312-1.608.49-2.591.49zm0-2.122c.581 0 1.117-.134 1.541-.38.447-.245.782-.58 1.072-.982.291-.402.492-.871.626-1.362a6.126 6.126 0 000-3.105 3.993 3.993 0 00-.626-1.362 3.382 3.382 0 00-1.072-.96 3.147 3.147 0 00-1.541-.38c-.58 0-1.116.134-1.541.38-.446.245-.781.58-1.072.96a4.01 4.01 0 00-.625 1.362 6.082 6.082 0 000 3.105c.134.513.335.96.625 1.362a3.48 3.48 0 001.072.983c.447.268.961.38 1.541.38zm6.924-10.34h2.032V12.67h2.68v3.64h2.412v1.99h-2.412v6.477c0 .29.022.514.045.737.022.2.089.38.156.514a.868.868 0 00.38.312c.178.067.402.112.714.112.179 0 .38 0 .559-.022.178-.023.379-.045.558-.09v2.077c-.29.045-.581.067-.871.09-.29.044-.558.044-.871.044-.715 0-1.273-.067-1.697-.2-.425-.135-.76-.336-1.005-.581a2.08 2.08 0 01-.492-.96c-.089-.38-.134-.85-.156-1.34v-7.147h-2.032V16.29v.045z"/><path fill="#00B67A" d="M32.093 11.709H19.832L16.058.05 12.26 11.709 0 11.687 9.916 18.9 6.119 30.558l9.916-7.214 9.916 7.214L22.177 18.9l9.916-7.191z"/><path fill="#005128" d="M23.026 21.538l-.848-2.636-6.12 4.445 6.968-1.81z"/></svg>