<svg fill="none" xmlns="http://www.w3.org/2000/svg" viewBox="0 0 40 40"><path d="M7.273 13.653a15.032 15.032 0 0113.979-8.79c1.243.013 2.481.171 3.688.47l3.305-3.79a1.248 1.248 0 012.04.809l.593 5.785a13.768 13.768 0 014.79 6.771h3.084v10.047h-4.15a14.055 14.055 0 01-3.35 4 14.848 14.848 0 01-4.875 2.685" stroke="#00181B" stroke-width="1.5" stroke-linecap="round" stroke-linejoin="round"/><path d="M11.25 28.75c5.523 0 10-2.239 10-5s-4.477-5-10-5-10 2.239-10 5 4.477 5 10 5z" stroke="#FF8139" stroke-width="1.5" stroke-linecap="round" stroke-linejoin="round"/><path d="M21.25 23.75v10c0 2.762-4.477 5-10 5s-10-2.238-10-5v-10" stroke="#FF8139" stroke-width="1.5" stroke-linecap="round" stroke-linejoin="round"/><path d="M1.25 28.75c0 2.762 4.477 5 10 5s10-2.238 10-5" stroke="#FF8139" stroke-width="1.5" stroke-linecap="round" stroke-linejoin="round"/><path fill-rule="evenodd" clip-rule="evenodd" d="M28.125 12.5a.625.625 0 100 1.25.625.625 0 000-1.25z" fill="#00181B" stroke="#00181B" stroke-width="1.5" stroke-linecap="round" stroke-linejoin="round"/><path d="M29.93 29.927L31.25 35" stroke="#00181B" stroke-width="1.5" stroke-linecap="round" stroke-linejoin="round"/></svg>