<svg fill="none" xmlns="http://www.w3.org/2000/svg" viewBox="0 0 38 38"><path d="M10.61 17.733c0-1.267 1.266-2.375 2.533-2.375h11.875c1.266 0 2.375 1.108 2.375 2.375v7.125c0 1.267-1.109 2.375-2.375 2.375H12.984c-1.266 0-2.375-1.108-2.375-2.375v-7.125z" stroke="#FF8139" stroke-width="1.5" stroke-linecap="round" stroke-linejoin="round"/><path d="M19 20.742c-.316 0-.633.316-.633.633s.317.633.633.633c.317 0 .634-.316.634-.633 0-.158 0-.317-.159-.475-.158-.158-.316-.158-.475-.158z" fill="#FF8139" stroke="#FF8139" stroke-width="1.5" stroke-linecap="round" stroke-linejoin="round"/><path d="M12.984 15.358v-3.483a6.014 6.014 0 016.017-6.017 6.014 6.014 0 016.017 6.017v3.483" stroke="#FF8139" stroke-width="1.5" stroke-linecap="round" stroke-linejoin="round"/><path d="M18.999 36.733C8.391 34.042 1.266 27.708 1.266 16.625V1.267H36.89v15.516c-.159 10.925-7.284 17.259-17.892 19.95z" stroke="#00181B" stroke-width="1.5" stroke-linecap="round" stroke-linejoin="round"/></svg>