<svg fill="none" xmlns="http://www.w3.org/2000/svg" viewBox="0 0 40 40"><path fill-rule="evenodd" clip-rule="evenodd" d="M20 32.667a.633.633 0 100 1.266.633.633 0 000-1.266zm9.5-9.5a.633.633 0 100 1.266.633.633 0 000-1.266zm-2.781 6.718a.633.633 0 10.001 1.267.633.633 0 00-.001-1.267zm-13.436 0a.633.633 0 10-.003 1.267.633.633 0 00.003-1.267zm13.436-13.432a.633.633 0 100 1.267.633.633 0 000-1.267z" fill="#FF8139" stroke="#FF8139" stroke-width="1.5" stroke-linecap="round" stroke-linejoin="round"/><path d="M30.133 12.4L33.3 9.233m-.632-.633l1.267 1.267M20 8.6V1m3.8 0h-7.6" stroke="#00181B" stroke-width="1.5" stroke-linecap="round" stroke-linejoin="round"/><path clip-rule="evenodd" d="M20 8.6v15.2H4.8C4.8 32.195 11.607 39 20 39c8.395 0 15.2-6.805 15.2-15.2S28.396 8.6 20 8.6z" stroke="#00181B" stroke-width="1.5" stroke-linecap="round" stroke-linejoin="round"/><path fill-rule="evenodd" clip-rule="evenodd" d="M12.834 15.739a.635.635 0 10-.898.899.635.635 0 00.898-.9z" fill="#00181B" stroke="#00181B" stroke-width="1.5" stroke-linecap="round" stroke-linejoin="round"/></svg>