<svg xmlns="http://www.w3.org/2000/svg" fill="none" viewBox="0 0 82 79"><path fill="#E1E1E1" d="M41.059 69.041s10.578.144 14.714-12.939c4.787-15.126-7.446-21.665 2.78-32.999C68.78 11.77 50.935-4.852 25.722 2.703-3.863 11.6-18.396 70.352 41.06 69.041z"/><path fill="#D6C589" d="M21.347 9.16s-.167-6.189-5.395-3.937c-3.226 1.386-2.32 2.6-7.971 4.409-3.615 1.16-.835 4.355-.695 7.049s-.786 4.741 1.84 6.105c1.847.96 2.818-.612 8.798.192 5.98.805 3.423-13.819 3.423-13.819z"/><path fill="#D6AA96" d="M53.602 73.933l1.715 1.372-4.681-1.546-.125-.906 3.09 1.08z"/><path fill="#E2BBA6" d="M50.579 58.263c-5.995-12.776-7.556-15.274-9.18-17.827-1.624-2.554-5.024-4.156-7.423-2.894-2.531 1.337-3.982-.23-3.982-.23l-.227-.412c-.721-1.836-.215-3.4-.223-4.583a7.377 7.377 0 003.472-.023c6.479-1.767 1.76-18.718 1.76-18.718-1.775-4.726-13.626-.956-15.11 1.684-1.436 2.547-.639 6.045-.639 6.045-1.477-.068-1.636 1.133-1.636 1.133-.302 2.554 3.763 4.685 3.763 4.685l.695.207c2.482 5.04 1.889 7.7 1.285 9.09-.14.287-.892 1.715-2.127 1.133-1.364-.616-6.079-.502-7.496 4.243-2.663 8.892-2.002 25.31.121 26.75 2.123 1.44 22.437 4.292 22.437 4.292l2.153.472 2.531.555c1.674.378 7.363 3.778 10.06 3.997 2.698.22 5.633.582 6.184.465a.416.416 0 00.337-.6s.717.43.94 0a.57.57 0 00-.223-.719c.167-.045.45-.438-.113-.721-.563-.284-3.32-1.202-4.31-1.625-.99-.423-3.177-1.201-2.516-1.133 1.145.136 2.28.342 3.4.616.404.166 1.51.804 1.824.948.335.167.697.272 1.07.31.211-.027.245-.295.098-.537-.148-.242-3.098-2.13-3.566-2.316-.469-.185-2.811-.963-3.242-.914-.43.05-3.237.238-3.895.178-.657-.06-1.023-.45-1.617-.329a5.618 5.618 0 01-.986.129l-1.348-.563-4.534-1.89-.31-.131h3.057l.045-3.582c.038-2.856 1.209-4.325 1.889-6.252a45.09 45.09 0 003.185 4.33 4.324 4.324 0 002.962 1.54"/><path fill="#D6AA96" d="M33.96 31.864c1.474-1.466.609-5.588.896-7.072.287-1.485-.9-2.444-.839-6.222.042-2.822-1.73-5.83-2.644-7.178 1.62.204 2.9.861 3.4 2.18.003.004 4.08 15.111-.813 18.292zm-5.33 5.84c-.521-.483-.457-5.742-.457-5.742l1.371.355c.03.756-.498 2.747.223 4.583l.227.412a2.871 2.871 0 002.58.676.105.105 0 01-.045 0c-1.24.287-3.381.196-3.899-.284z"/><path fill="#FF8139" d="M58.12 59.748c-3.805-.756-7.556-1.511-7.556-1.511-5.995-12.777-7.556-15.274-9.18-17.828-1.624-2.554-5.025-4.155-7.423-2.894-1.545.816-2.683.552-3.34.22a8.715 8.715 0 011.938 3.188c.51 2.187-1.194 6.838-1.194 6.838s-5.262-4.039-7.03-4.99c-1.768-.953-2.698-5.1-2.698-5.1a1.315 1.315 0 01-.657-.13c-1.337-.604-6.052-.49-7.469 4.255-2.663 8.892-2.002 25.31.121 26.75 1.489 1.001 11.946 2.712 18.043 3.642l2.199-4.938 4.197 1.791h2.988l.045-3.581c.038-2.856 1.21-4.326 1.89-6.253a45.098 45.098 0 003.188 4.318 4.325 4.325 0 002.962 1.542c1.37.124 4.763.106 8.156.041l.82-5.36z"/><path fill="#E9D694" d="M32.268 12.854s.468 3.702-4.099 4.462c-4.567.76-6.467 1.394-7.605 3.543-1.137 2.15-1.54.442-1.54.442s-2.116 1.062 0 3.442c2.115 2.38 3.69 1.466 4.355 6.747 0 0-1.133-1.58-2.622-1.485-1.488.095-3.4.473-4.133-2.266-.733-2.74.185-3.665-2.164-4.7-2.35-1.035.283-2.16 0-3.476-.284-1.314-2.815-5.266-.983-7.615C15.31 9.598 19.9 10.537 20.383 8c.484-2.539 3.29-5.263 6.766-3.287s3.65 4.144 7.794 4.896c4.144.752 4.272 5.897.638 7.601a9.78 9.78 0 00-3.313-4.356z"/><path fill="#E2BBA6" d="M58.12 59.748s5.247 1.212 6.26 1.212c1.012 0 .921-.755 1.733-1.314.813-.56 2.894-.658 3.502-.658.609 0 1.89-.706 2.184-.457.59.499-1.53 1.67-2.04 1.938 0 0 3.713-.517 4.424-.517.71 0 1.624-1.319 2.183-1.447.56-.129.661.204.661.204s.575-.703.926-.552c.351.151.4.503 0 1.054 0 0 .676.25-.098 1.228a49.21 49.21 0 01-1.054 1.303s.377.325-.151.85a9.406 9.406 0 01-4.182 1.953c-1.704.254-15.168.563-15.168.563l.82-5.36z"/><path fill="#D3662F" d="M70.42 63.687c1.755 0 3.177-.925 3.177-2.067 0-1.142-1.422-2.067-3.177-2.067-1.754 0-3.176.925-3.176 2.067 0 1.142 1.422 2.067 3.176 2.067z"/><path fill="#FF8139" d="M70.42 62.91c1.755 0 3.177-.925 3.177-2.067 0-1.141-1.422-2.067-3.177-2.067-1.754 0-3.176.926-3.176 2.067 0 1.142 1.422 2.067 3.176 2.067z"/><path fill="#FF8139" stroke="#FF8139" d="M75.994 61.231l.808-.63 1.492.352.91-1.643-8.182 1.209.79 1.343 2.666-.385.572-.757.944.511z"/><path stroke="#FF8139" stroke-miterlimit="10" stroke-width="3.091" d="M71.507 59.722l8.88-7.567"/><path fill="#D3662F" d="M69.183 62.16c.862.962 2.068 1.288 2.695.727.626-.561.435-1.796-.427-2.759-.862-.962-2.069-1.288-2.695-.727-.626.561-.435 1.796.427 2.759z"/><path fill="#FF8139" d="M69.61 61.778c.861.963 2.068 1.288 2.694.727.626-.56.435-1.796-.427-2.758-.862-.963-2.068-1.288-2.695-.727-.626.56-.435 1.796.427 2.758zm9.68-8.42l2.12 1.49-2.441 1.96-2.266-1.511 2.587-1.939z"/><path fill="#D3662F" d="M70.796 62.345c1.173-.766 1.719-2.005 1.22-2.768-.498-.763-1.852-.76-3.024.006-1.172.765-1.718 2.004-1.22 2.767.498.763 1.852.76 3.024-.005z"/><path fill="#FF8139" d="M70.457 61.826c1.173-.766 1.719-2.005 1.22-2.768-.498-.763-1.852-.76-3.024.005-1.172.766-1.718 2.005-1.22 2.768.498.763 1.852.76 3.024-.005z"/><path stroke="#FF8139" stroke-miterlimit="10" stroke-width="3.091" d="M69.792 59.221l2.63-8.932"/><path fill="#FF8139" d="M72.214 51.572l2.066.07-.774 2.376-2.174-.022.882-2.424z"/><path fill="#D3662F" d="M20.364 52.298s-.736 6.88 0 8.84c.737 1.96 7.122 3.982 7.122 3.982s-3.82-1.89-4.341-3.487a7.29 7.29 0 00-1.538-2.924c-.899-1.21-1.242-6.411-1.242-6.411zm22.64 6.909s1.598-3.082 0-7.744l2.086 7.246c.978 3.4 3.147 3.592 4.121 3.653.975.06 4.016.54 5.32 1.22 1.303.68 2.95.355 2.95.355L57.3 65.12l-5.361.049c-.378 0-2.12-.064-2.645-.05a4.597 4.597 0 01-3.131-1.582c-1.005-1.24-3.159-4.33-3.159-4.33z"/></svg>