<svg xmlns="http://www.w3.org/2000/svg" fill="none" viewBox="0 0 55 42"><path fill="#E1E1E1" d="M55 23.917c0-4.53-1.824-8.876-5.071-12.08a17.434 17.434 0 00-12.243-5.003H18.002c-4.592 0-8.996 1.8-12.243 5.004a16.968 16.968 0 00-5.072 12.08 16.97 16.97 0 005.072 12.079A17.434 17.434 0 0018.002 41h19.684c4.592 0 8.996-1.8 12.243-5.004A16.968 16.968 0 0055 23.917z"/><path fill="#fff" d="M43.763 13.61L27.82 1.142l-15.699 12.61v27.25h31.64V13.61z"/><path fill="#E1E1E1" d="M35.565 38.827H20.399v2.174h15.166v-2.174zm-1.333-2.177H21.726v2.173h12.506V36.65z"/><path fill="#0C2048" d="M27.9 24.064a4.744 4.744 0 00-3.34 1.372 4.687 4.687 0 00-1.39 3.316v7.883h9.439v-7.883a4.682 4.682 0 00-1.381-3.31 4.74 4.74 0 00-3.328-1.378z"/><path fill="#152D5D" d="M46.633 17.044L28.596 2.867a1.043 1.043 0 00-1.294 0l-18.05 14.17a1.048 1.048 0 01-1.465-.175 1.035 1.035 0 01.192-1.456L27.302.225a1.043 1.043 0 011.294 0l19.33 15.189a1.038 1.038 0 01.359 1.1 1.05 1.05 0 01-1.652.531z"/><path fill="#FF8139" d="M30.769 11.096h-6.057v7.618h6.057v-7.618z"/><path fill="#152D5D" d="M12.125 12.136V4.984h3.703v4.244l-3.703 2.908z"/></svg>