<svg xmlns="http://www.w3.org/2000/svg" fill="none" viewBox="0 0 85 86"><path fill="#E1E1E1" d="M46.973 20.737h23.124a12.637 12.637 0 0112.637 12.636v30.181a12.637 12.637 0 01-12.637 12.637H16.792A12.637 12.637 0 014.156 63.554a42.817 42.817 0 0142.817-42.817z"/><path fill="#F4C7C3" d="M17.185 56.255c1.438.381 2.935.476 4.409.28 0 0 2.372.336 1.28 4.061 0 0-3.146-.476-4.06-.317-.915.158-2.95 2.213-5.346 1.537-2.395-.676 3.717-5.56 3.717-5.56z"/><path fill="#00181B" d="M54.94 40.612s-14.182 13.41-16.078 12.931l-17.268 2.992 1.28 4.061s17.253.756 20.023 0c2.769-.755 8.628-4.306 8.628-4.306l3.415-15.678z"/><path fill="#F4C7C3" d="M76.636 75.431c.344-1.484 5.77-23.852 4.534-29.247-1.236-5.395-5.248-6.09-6.778-5.383-1.378.634-2.22-.964-2.376-1.285-.684-1.552-.434-5.232 3.238-10.396l.4-.51s4.13-1.863 3.778-4.738c0 0-.178-1.337-1.832-1.261 0 0 2.33-4.33.725-7.178-1.666-2.954-14.193-6.177-16.18-.889 0 0-6.487 18.406.755 20.382 1.273.32 1.663.302 2.94 0a19.521 19.521 0 01-1.25 5.119l-.258.46s-1.78 1.848-4.442.073c-1.428-.956-3.117-.93-4.95.026L51.1 55.156l-.121.23c-.42.979-2.06 5.063-1.644 7.85.48 3.19 2.528 4.753 2.577 8.758l.053 4h3.4"/><path fill="#00181B" d="M62.334 11.333c-1.512 2.72-2.141 8.311-2.267 10.767.116-1.196.983-4.231 2.644-5.478 1.511-1.133 4.156-1.51 6.99 1.511 2.833 3.023 4.344 1.7 5.1 3.212.604 1.208.629 3.588 0 5.288 1.964-4.382 3.84-3.966 4.344-3.4 1.51-1.385 3.74-4.722 2.077-5.477-2.077-.945-2.266-3.967-3.966-5.667-1.7-1.7-3.022-.189-6.045-1.889-3.022-1.7-6.989-2.267-8.877 1.133zm10.388 22.289l3.778-5.477-.944.377c-1.36 1.814-2.456 4.156-2.834 5.1z"/><path fill="#383E3F" d="M68 9.822c-2.266-.604-4.344.252-5.1.756.756-1.134 2.456-2.078 4.911-1.7 2.456.378 3.778 1.7 4.912 2.078 1.133.377 2.833 0 3.966.755 1.134.756 1.511 1.7 2.267 3.4.604 1.36 1.763 2.33 2.267 2.645-.693-.19-2.267-.983-3.023-2.645-.944-2.078-1.889-2.833-4.344-3.022C71.4 11.9 70.834 10.578 68 9.822z"/><path fill="#00090A" d="M43.46 57.272c-3.71-.099-6.645 1.065-10.529 2.017-3.06.755-8.337.317-10.438.102l.378 1.205s17.253.756 20.022 0c2.77-.755 8.632-4.307 8.632-4.307l.442-2.025c-2.38 1.568-5.867 3.076-8.507 3.008z"/><path fill="#000" d="M65.783 41.091c.555-.501 1.462-5.958 1.462-5.958l-1.462.35a17.721 17.721 0 01-1.21 4.767l-.244.428a3.085 3.085 0 01-1.287.68c-.479.122-.981.13-1.464.02l.05.018c1.318.284 3.6.193 4.155-.305z" opacity=".1"/><path fill="#00181B" d="M76.886 75.983c1.182-8.916 6.83-18.383 4.556-29.909-1.073-5.432-5.497-5.991-7.027-5.273-1.379.634-2.221-.96-2.373-1.285a4.642 4.642 0 01-.29-2.074c-2.694-.072-5.255-.378-6.045-1.303-.222 1.338-.729 2.394-1.296 3.15l-.944.944s-.945.386-3.4-.188c-1.826-.427-3.287-.397-5.127.574l-5.58 10.759s-.815 7.178-.815 11.71c-.378 6.234-.242 4.878-.19 8.879v4.016h7.031"/><path fill="#F4C7C3" d="M28.817 60.823l4.979.083s2.954 1.436 1.039 5.414c0 0-4-.567-4.847-.356-.846.212-1.171-5.141-1.171-5.141z"/><path stroke="#00181B" stroke-miterlimit="10" stroke-width="4" d="M18.224 83.112c6.611-.378 11.334-5.785 11.334-12.46 0-6.674-5.419-12.084-12.093-12.084-6.675 0-11.14 5.41-11.14 12.085 0 6.674 5.288 12.837 11.9 12.459z"/><path fill="#00181B" d="M5.497 68.832s3.045.088 5.389-1.81c3.138-2.532 6.07-3.436 10.399-1.212 4.626 2.383 7.563.461 7.563.461s.12 2.03.326 3.89a32.239 32.239 0 00-5.844.783c-1.535.355-4.47 2.365-4.365 5.42.037 1.342.469 5.978.469 5.978s-2.307.692-4.093.19c0 0-.083-2.706-.266-5.386-.169-2.505-2.237-4.74-4.284-4.81-1.132-.039-5.29-.124-5.29-.124l-.004-3.38z"/><path fill="#F4C7C3" d="M18.036 57.298s-1.281-1.757-1.806-1.738c-.525.02-.99.548-1.307.495-.318-.053-.99-.378-1.538 0s-.378.665-1.303.684c-.926.019-.907.548-1.134.914-.226.367-.755.14-.99.665a15.629 15.629 0 00-.54 2.822c0 .295 1.047 1.16 1.342 1.22a1.178 1.178 0 001.458-.249s.91.42 1.477-.654c0 0 .948.23 1.413-.4 0 0 1.579.06 1.492-1.349-.087-1.409 1.436-2.41 1.436-2.41z"/><path fill="#00090A" d="M61.922 41.326h.034c1.673.276 3.929-.378 4.223-1.326.227-.703.627-2.395.809-3.174a2.837 2.837 0 01-1.28-.71 18.622 18.622 0 01-1.096 3.929l-.257.46a3.197 3.197 0 01-2.433.82z"/><path fill="#F4C7C3" d="M18.813 59.924s.125.778-.423.933c-.177.049-1.416.193-1.82.344-.526.192-.953-.503-.091-1.02.861-.518 2.334-.257 2.334-.257zm9.46 2.788c.235-.71.416-1.438.54-2.176.034-.582-.725-.586-1.292-1.047-.566-.46-.43-.653-1.51-.68-1.081-.026-.798-1.243-1.784-1.008-.986.234-.858-.93-1.647-.609-.79.321-2.47 2.04-2.758 2.267-.287.227.378 2.84 1.254 3.049h.465s0 .642.861.642a1.51 1.51 0 001.647.93s.306 1.257 1.988 0l-.665-.84a11.7 11.7 0 011.541-1.133 1.077 1.077 0 011.36.605z"/><path fill="#E2BBA6" d="M25.59 64.246c.267.346.64.595 1.062.706 0 0-.49-.88-.6-.876a3.727 3.727 0 00-.461.17z"/><path fill="#F4C7C3" d="M28.756 60.471s3.4 1.485 1.326 5.407c0 0-.933-2.373-2.444-3.892l1.118-1.514z"/><path fill="#00181B" d="M33.796 60.895s2.803 2.353 1.04 5.413c0 0 14.956 1.005 25.756-1.356 8.13-1.78 17.454-10.264 20.234-17.22 0 0 .733-10.894-8.727-4.223-15.753 11.107-17.888 13.347-38.303 17.386z"/><path fill="#00090A" d="M72.386 58.556a47.029 47.029 0 01-9.463 1.889c-6.045.62-10.748 3.12-13.653 4.156-2.267.82-10.491.544-13.936.377-.1.45-.268.882-.499 1.281 0 0 14.956 1.005 25.757-1.356 3.944-.816 8.171-3.26 11.794-6.347z"/><path fill="#323A39" d="M12.346 66.353s2.344-1.738 4.983-1.252c2.638.487 4.82 1.79 5.796 1.988 0 0-1.96-.287-3.739-.728-1.778-.442-3.442-1.173-7.04-.008zm7.287 6.964s-1.386.933-1.39 3.181a48.46 48.46 0 00.35 5.07l.406-.103s-1.166-6.597.634-8.148z"/><path fill="#FF8139" d="M72.016 39.516L57.324 55.56l7.99-2.924 10.9-11.764a8.55 8.55 0 011.064.193s-4.76-2.1-5.262-1.549zM51.359 66.304l-8.511 9.89h6.422l8.61-10.732-6.521.842z"/></svg>