<svg xmlns="http://www.w3.org/2000/svg" fill="none" viewBox="0 0 227 228"><path fill="#E1E1E1" d="M38 122.5C38 81.355 71.355 48 112.5 48S187 81.355 187 122.5v23c0 41.145-33.355 74.5-74.5 74.5S38 186.645 38 145.5v-23z"/><g clip-path="url(#clip0)"><path fill="#081B42" d="M67.67 237.699c3.456-9.168 4.646-29.832 4.809-39.018l80.684 14.666-.404 50.463-90.923-11.204c.505-1.149 2.38-5.739 5.835-14.907z"/><path fill="#F4C7C3" d="M153.28 109.101c-6.18-8.072-14.986-2.915-25.104-8.535-3.764-2.09-4.873-16.15-4.908-23.599 11.603-5.012 17.611-21.46 17.484-38.67-.157-21.24-11.19-29.716-27.041-29.599-15.85.117-28.95 8.358-28.793 29.598.125 16.896.915 23.01 13.505 36.5 3.483 3.732 7.179 4.179 7.179 7.326 0 7.195-1.935 13.736-4.352 15.126-10.034 5.769-21.998 3.379-27.573 11.853-15.218 23.177-13.024 78.108-13.024 78.108l106.117-3.346s-.226-57.461-13.49-74.762z"/><path fill="#081B42" d="M132.581 91.564s-8.215 2.104-9.15-8.568c-8.104 3.222-13.929 1.906-18.116-.142-.72 9.03-2.411 7.961-5.108 8.71-8.094 2.249-13.04-2.824-22.932 3.598-25.63 16.637-17.521 93.844-17.521 93.844l109.265 2.699s5.845-62.052-11.691-87.682c-8.993-15.737-24.747-12.459-24.747-12.459z"/><path fill="#0C2048" d="M152.919 227.126c-31.104-2.379-67.166-10.336-81.13-13.995l-1.5 12.172c37.985 7.878 70.954 10.075 82.69 10.189l-.06-8.366zM151.812 137.819s5.874 11.956 5.652 19.209l-.222 7.253-1.125-.504s.435-6.299.33-8.544c-.105-2.246-2.181-11.521-4.635-17.414zM77.554 138.368s-6.426 17.082-5.448 21.715l1.019 4.623.647-.29a26.22 26.22 0 01-.709-6.665c.177-2.75 4.491-19.383 4.491-19.383z"/><path fill="#000" d="M110.177 79.014c2.763.587 5.619.566 8.373-.061 0 0-3.984 4.098-8.373.061z" opacity=".1"/><path fill="#00181B" d="M133.496 74.796H91.679c-3.897-2.886-11.78-12.908-12.14-29.908-.45-21.25 12.14-38.566 34.622-38.566 22.483 0 32.375 19.677 32.375 38.566 0 15.111-8.693 26.235-13.04 29.908z"/><path fill="#666A6A" d="M112.812 17.734c-5.395-5.667-17.836-3.148-23.381-1.18 3.597-4.33 15.288-13.774 32.824-9.445 14.029 3.463 20.234 15.61 21.583 21.25-9.442 4.723-24.281-3.541-31.026-10.625z"/><path fill="#E9E9EA" d="M113.262 28.753c-16.187.315-29.527 5.116-34.173 7.477-2.878 11.019.3 21.644 2.248 25.58 3.447.786 14.659 2.282 31.925 1.967 17.267-.315 27.578-1.443 30.576-1.968 5.396-10.703 4.347-21.512 3.148-25.579-4.497-2.624-17.537-7.792-33.724-7.477z"/><path fill="#fff" d="M95.726 63.384l25.63-34.237c7.913.63 17.086 3.41 20.683 4.722l-22.032 29.515c-6.475.63-18.886.262-24.281 0zM89.43 62.99l26.08-34.237h-1.799L87.182 62.99h2.248z"/><path fill="#fff" stroke="#fff" d="M102.357 307.265H124.481c20.495 0 39.394-12.474 43.247-32.604 11.049-57.727-1.013-122.206-9.295-141.686-4.498-3.655-19.252-10.965-42.282-10.965-23.03 0-39.283 7.31-44.531 10.965C51.124 180.909 52.154 234.522 58.09 272.1c3.365 21.304 22.698 35.165 44.267 35.165z"/><path fill="#fff" d="M52.11 289.279c6.835 8.633 28.927 37.77 39.12 51.26v-6.745l-18.436-72.843-17.537-51.26c-26.978 38.22-11.69 68.796-3.147 79.588zM174.445 289.279c-6.835 8.633-28.928 37.77-39.12 51.26v-6.745l18.436-72.843 17.536-51.26c26.979 38.22 11.691 68.796 3.148 79.588z"/><path fill="#E9E9EA" d="M71.894 131.902c-4.796 4.922 2.698 32.825 13.04 45.415 19.785 24.086 39.12 24.731 58.904 0 7.644-11.691 17.985-42.155 13.939-45.864-21.583-19.785-67.482-18.436-85.883.449z"/><path fill="#fff" d="M125.852 117.963l-42.267 58.004 4.047 4.497 44.065-61.602c-1.798-.36-4.646-.749-5.845-.899zM74.592 157.981l28.328-40.019c5.396-1.438 14.839-.899 18.885-.449L81.787 172.37c-2.878-4.317-5.996-11.391-7.195-14.389z"/><path fill="#FFD300" d="M62.357 178.471l25.356 14.64a15.999 15.999 0 017.927 15.388l-.813 8.449-25.356-14.64a16 16 0 01-7.927-15.389l.813-8.448zM164.072 178.471l-25.355 14.64a16 16 0 00-7.927 15.389l.813 8.448 25.356-14.64a15.999 15.999 0 007.926-15.389l-.813-8.448z"/><path fill="#E6C00B" d="M81.337 209.241l8.993-14.388 1.799 1.348-8.994 13.94-1.798-.9z"/><path fill="#E7C10B" d="M70.545 202.946l9.443-14.389 8.543 4.947-9.442 14.388-8.544-4.946z"/><path fill="#FF8139" d="M70.995 191.705l-9.443-5.846.9-7.194 9.892 5.396-1.35 7.644zM155.529 191.705l9.443-5.846-.9-7.194-9.892 5.396 1.349 7.644z"/></g><defs><clipPath id="clip0"><path fill="#fff" d="M2 0h225v225H2z"/></clipPath></defs></svg>