<svg xmlns="http://www.w3.org/2000/svg" fill="none" viewBox="0 0 225 225"><path fill="#E1E1E1" d="M124.34 54.895h61.21A33.451 33.451 0 01219 88.345v79.89a33.45 33.45 0 01-33.45 33.45H44.45A33.451 33.451 0 0111 168.235a113.34 113.34 0 01113.34-113.34z"/><path fill="#F4C7C3" d="M45.489 148.914a30.037 30.037 0 0011.67.74s6.28.89 3.39 10.75c0 0-8.33-1.26-10.75-.84-2.42.42-7.81 5.86-14.15 4.07-6.34-1.79 9.84-14.72 9.84-14.72z"/><path fill="#00181B" d="M145.43 107.504s-37.54 35.5-42.56 34.23l-45.71 7.92 3.39 10.75s45.67 2 53 0c7.33-2 22.84-11.4 22.84-11.4l9.04-41.5z"/><path fill="#F4C7C3" d="M202.861 199.673c.91-3.93 15.27-63.14 12-77.42-3.27-14.28-13.89-16.12-17.94-14.25-3.65 1.68-5.88-2.55-6.29-3.4-1.81-4.11-1.15-13.85 8.57-27.52l1.06-1.35s10.93-4.93 10-12.54c0 0-.47-3.54-4.85-3.34 0 0 6.17-11.46 1.92-19-4.41-7.82-37.57-16.352-42.83-2.352 0 0-17.17 48.722 2 53.952 3.369.844 4.4.798 7.78 0a51.675 51.675 0 01-3.31 13.55l-.68 1.22s-4.71 4.89-11.76.19c-3.78-2.53-8.25-2.46-13.1.07l-10.17 38.52-.32.61c-1.11 2.59-5.45 13.4-4.35 20.78 1.27 8.44 6.69 12.58 6.82 23.18l.14 10.59h9"/><path fill="#00181B" d="M165 30c-4 7.2-5.667 22-6 28.5.308-3.166 2.601-11.2 7-14.5 4-3 11-4 18.5 4s11.5 4.5 13.5 8.5c1.6 3.2 1.667 9.5 0 14 5.2-11.6 10.167-10.5 11.5-9 4-3.666 9.9-12.5 5.5-14.5-5.5-2.5-6-10.5-10.5-15s-8-.5-16-5-18.5-6-23.5 3zM192.5 89l10-14.5-2.5 1c-3.6 4.8-6.5 11-7.5 13.5z"/><path fill="#383E3F" d="M180 26.001c-6-1.6-11.5.667-13.5 2 2-3 6.5-5.5 13-4.5s10 4.5 13 5.5 7.5 0 10.5 2 4 4.5 6 9c1.6 3.6 4.667 6.167 6 7-1.833-.5-6-2.6-8-7-2.5-5.5-5-7.5-11.5-8s-8-4-15.5-6z"/><path fill="#00090A" d="M115.039 151.605c-9.82-.26-17.59 2.82-27.87 5.34-8.1 2-22.07.84-27.63.27l1 3.19s45.67 2 53 0c7.33-2 22.85-11.4 22.85-11.4l1.17-5.36c-6.3 4.15-15.53 8.14-22.52 7.96z"/><path fill="#000" d="M174.131 108.771C175.598 107.444 178 93 178 93l-3.869.928a46.915 46.915 0 01-3.202 12.616l-.648 1.132a8.168 8.168 0 01-3.406 1.801 8.307 8.307 0 01-3.875.054l.133.047c3.488.751 9.53.51 10.998-.807z" opacity=".1"/><path fill="#00181B" d="M203.519 201.134c3.13-23.6 18.08-48.66 12.06-79.17-2.84-14.38-14.55-15.86-18.6-13.96-3.65 1.68-5.88-2.54-6.28-3.4a12.306 12.306 0 01-.77-5.49c-7.13-.19-13.91-1-16-3.45-.587 3.542-1.93 6.339-3.43 8.339l-2.5 2.5s-2.5 1.021-9-.499c-4.833-1.13-8.7-1.05-13.57 1.52l-14.77 28.479s-2.16 19-2.16 31c-1 16.5-.64 12.91-.5 23.5v10.631h18.61"/><path fill="#F4C7C3" d="M76.281 161.004l13.18.22s7.82 3.8 2.75 14.33c0 0-10.59-1.5-12.83-.94s-3.1-13.61-3.1-13.61z"/><path stroke="#00181B" stroke-miterlimit="10" stroke-width="7" d="M48.238 220.001c17.5-1 30-15.312 30-32.98 0-17.667-14.342-31.99-32.01-31.99-17.667 0-29.49 14.323-29.49 31.99 0 17.668 14 33.98 31.5 32.98z"/><path fill="#00181B" d="M14.55 182.204s8.06.234 14.264-4.788c8.307-6.705 16.068-9.097 27.526-3.211 12.245 6.308 20.02 1.221 20.02 1.221s.32 5.374.865 10.3a85.006 85.006 0 00-15.471 2.07c-4.064.938-11.832 6.26-11.554 14.346.098 3.553 1.241 15.824 1.241 15.824s-6.108 1.833-10.833.504c0 0-.221-7.162-.704-14.258-.449-6.63-5.924-12.545-11.342-12.731-2.996-.104-14.002-.33-14.002-.33l-.01-8.947z"/><path fill="#F4C7C3" d="M47.74 151.675s-3.39-4.65-4.78-4.6c-1.39.05-2.62 1.45-3.46 1.31-.84-.14-2.62-1-4.07 0-1.45 1-1 1.76-3.45 1.81-2.45.05-2.4 1.45-3 2.42-.6.97-2 .37-2.62 1.76a41.354 41.354 0 00-1.43 7.47c0 .78 2.77 3.07 3.55 3.23a3.122 3.122 0 003.86-.66s2.41 1.11 3.91-1.73c0 0 2.51.61 3.74-1.06 0 0 4.18.16 3.95-3.57-.23-3.73 3.8-6.38 3.8-6.38z"/><path fill="#00090A" d="M163.91 109.392h.09c4.43.73 10.4-1 11.18-3.51.6-1.86 1.66-6.34 2.14-8.4a7.51 7.51 0 01-3.39-1.88 49.272 49.272 0 01-2.9 10.4l-.68 1.22a8.472 8.472 0 01-6.44 2.17z"/><path fill="#F4C7C3" d="M49.798 158.623s.33 2.06-1.12 2.47c-.47.13-3.75.51-4.82.91-1.39.51-2.52-1.33-.24-2.7 2.28-1.37 6.18-.68 6.18-.68zM74.838 166.002a39.033 39.033 0 001.43-5.76c.09-1.54-1.92-1.55-3.42-2.77s-1.14-1.73-4-1.8c-2.86-.07-2.11-3.29-4.72-2.67-2.61.62-2.27-2.46-4.36-1.61-2.09.85-6.54 5.4-7.3 6-.76.6 1 7.52 3.32 8.07h1.23s0 1.7 2.28 1.7a3.998 3.998 0 004.36 2.46s.81 3.33 5.26 0l-1.76-2.22a30.975 30.975 0 014.08-3 2.85 2.85 0 013.6 1.6z"/><path fill="#E2BBA6" d="M67.738 170.063a5.208 5.208 0 002.81 1.87s-1.3-2.33-1.59-2.32a9.973 9.973 0 00-1.22.45z"/><path fill="#F4C7C3" d="M76.12 160.074s9 3.93 3.51 14.31c0 0-2.47-6.28-6.47-10.3l2.96-4.01z"/><path fill="#00181B" d="M89.46 161.193s7.42 6.23 2.75 14.33c0 0 39.591 2.66 68.181-3.59 21.52-4.71 46.2-27.17 53.56-45.58 0 0 1.94-28.84-23.1-11.18-41.7 29.4-47.35 35.329-101.39 46.02z"/><path fill="#00090A" d="M191.611 155.004a124.493 124.493 0 01-25.05 5c-16 1.64-28.45 8.26-36.14 11-6 2.17-27.77 1.44-36.89 1a11.84 11.84 0 01-1.32 3.39s39.59 2.66 68.18-3.59c10.44-2.16 21.63-8.63 31.22-16.8z"/><path fill="#323A39" d="M32.679 175.639s6.206-4.6 13.19-3.312c6.984 1.287 12.758 4.735 15.344 5.261 0 0-5.191-.759-9.898-1.927-4.706-1.169-9.11-3.105-18.636-.022zM51.968 194.077s-3.67 2.468-3.68 8.42c.074 4.486.383 8.965.926 13.419l1.077-.271s-3.087-17.464 1.677-21.568z"/><path fill="#FF8139" d="M190.628 104.604l-38.89 42.47 21.15-7.74 28.85-31.14c.95.11 1.892.28 2.82.51 0 0-12.6-5.56-13.93-4.1zM135.952 175.511l-22.53 26.18h17l22.79-28.41-17.26 2.23z"/></svg>