<svg xmlns="http://www.w3.org/2000/svg" fill="none" viewBox="0 0 225 259"><path fill="#E1E1E1" d="M113 225c49.153 0 89-39.847 89-89s-39.847-89-89-89-89 39.847-89 89 39.847 89 89 89z"/><path fill="#E2BBA6" d="M119.189 181.909s-9.955-1.34-17.922-11.248c0 0 1.987 8.33-8.639 17.871-7.36 6.587-1.62 41.678 1.481 47.871 0 0-29.367 28.935-77.171 5.761 0 0 12.006-43.696 12.88-68.402 1.076-28.054 4.324-46.091 14.15-72.576 9.826-26.486 12.153-41.1 10.82-55.045-1.335-13.945-.663-35.779 23.92-41.054 24.583-5.275 27.49 23.632 27.49 23.632s2.172 36.963-7.498 45.43c-8.473 7.468-23-2.008-23-2.008s-3.368 17.146.533 23.2c0 0 5.382 6.157 18.677 11.45 13.883 5.505 16.109 45.871 23.47 53.265"/><path fill="#CEA999" d="M90.834 5.518c.984 6.01 2.558 15.66 4.011 25.174-.92-8.963-2.622-18.89-3.8-25.1l-.211-.074zM106.18 28.756l-11.335 1.936.57 8.623c.11 4.734-.266 8.532-1.435 10.33-4.894 7.55-6.845-10.091-10.893-9.706-4.048.386-5.934 4.99-3.027 12.844 2.908 7.853-7.544 10.036-8.445 14.44-.902 4.404-7.922 29.201 0 37.687l12.135-3.669a36.692 36.692 0 01-7.508-5.863c-3.9-6.055-.533-23.2-.533-23.2s14.518 9.476 23 2.008a10.996 10.996 0 001.84-2.128c4.83-6.762 5.52-23.926 5.658-27.605.138-3.679-.027-15.697-.027-15.697z"/><path fill="#292289" d="M45.459 97.085s-4.398 3.669-8.363 14.678 6.348-6.339 6.348-6.339l1.215-6.138.8-2.201z"/><path fill="#152D5D" d="M190.496 162.444c-13.744 2.291-46.77 10.905-63.266-4.884-12.715-12.164-18.401-45.191-32.32-50.732a64.773 64.773 0 01-14.307-7.697c-21.804 7.183-31.621 4.651-35.954.137-.23.633-6.995 5.981-10.832 15.99-4.581 28.403-6.263 40.981-7.275 69.027-.92 24.706-7.875 51.265-7.875 51.265 6.725 30.65 75.442.853 75.442.853-2.705-7.193-8.814-41.284-1.481-47.871 10.626-9.541 8.639-17.871 8.639-17.871 7.967 9.926 20.388 15.596 20.388 15.596 18.833 10.798 58.762-4.571 68.841-7.868v-15.945z"/><path fill="#00181B" d="M190.496 178.479v-5.04s-32.069 15.093-52.684 12.818c-6.872-.758-14.961-6.605-23.526-9.146-8.566-2.542-16.956-18.771-16.956-18.771-.736 16.835-11.804 19.486-18.539 33.211-4.995 10.183-1.398 37.081.791 50.292 8.566-2.862 14.528-5.44 14.528-5.44-2.705-7.193-8.814-41.284-1.482-47.871 10.627-9.541 8.639-17.871 8.639-17.871 7.968 9.927 20.388 15.596 20.388 15.596 18.833 10.826 59.22-4.571 68.841-7.778z"/><path fill="#000" d="M48.18 245.43c.166 1.11.323 2.193.48 3.266-.157-1.073-.314-2.156-.48-3.266zM48.052 244.586c0-.294-.082-.587-.128-.917.037.33.091.623.128.917z" opacity=".3"/><path fill="#2F2417" d="M101.619 40.126c6.597-5.498 8.552-14.813 8.704-18.784.906-5.13-2.371-8.551-4.122-9.62C91.541-.648 73.216.727 62.679 6.224c-10.537 5.498-16.035 13.286-18.325 19.7-2.291 6.413-3.207 10.536-3.207 17.408v.001c0 6.872 0 16.034-5.498 24.28-9.007 13.509-4.123 19.7-2.29 27.03 1.832 7.329-4.582 12.368-4.582 18.782 0 8.014 4.123 10.079 9.163 10.079s10.537-.916 12.369 5.04c1.833 5.955 5.956 8.704 9.62 8.704 3.666 0 11.454-4.123 11.912-11.911.458-7.788 5.497-14.202 11.453-18.783 4.764-3.665 12.98.61 16.492 3.206 3.207-4.581.459-7.33-3.664-11.91-4.123-4.582-5.956-3.208-5.956-11.912 0-5.956-5.04-4.123-3.207-14.202 1.05-5.772-3.665-11.911-7.33-21.074-2.932-7.33 4.887-7.482 7.33-5.039 2.29.916 6.414 1.374 14.66-5.497z"/><path fill="#4F3C27" d="M102.993 16.76c4.398 2.566 5.04 10.385 5.04 14.203 1.832-3.665 2.748-9.62 2.748-11.912 0-2.29 0-4.58-7.33-10.078-7.33-5.498-22.906-9.163-34.359-5.498C57.64 7.14 48.477 14.47 44.353 25.923c-4.123 11.454-3.206 16.035-3.206 23.365 0 7.33-2.75 12.37-4.582 16.492-1.832 4.123-4.581 6.872-5.956 13.286-1.374 6.414.459 8.246 2.291 15.118 1.833 6.872-1.374 10.537-2.29 12.369-.917 1.833-3.666 5.956-.917 12.37 2.749 6.413 9.62 4.123 13.744 4.581 4.123.458 5.497 2.291 7.33 6.414 1.466 3.298 3.665 5.344 4.581 5.955.611-2.596 1.466-8.704 0-12.369-1.832-4.581-5.956-11.911-1.374-20.158 4.581-8.246 1.374-13.743-1.833-25.196-3.207-11.454 5.04-10.995 1.833-27.946-3.207-16.95 5.04-30.236 17.867-35.734 12.827-5.497 25.655-.916 31.152 2.29z"/><path fill="#999696" d="M192.214 110.006l26.142 2.904-6.971 52.283-26.142-2.904 6.971-52.283z"/><path fill="#C4C4C4" d="M191.053 108.844l26.142 2.904-6.972 52.283-26.141-2.904 6.971-52.283z"/><path fill="#fff" d="M192.796 110.587l22.075 2.323-6.39 45.893-22.075-2.324 6.39-45.892z"/><path fill="#FFD300" d="M203.71 124.61c-.951-.129-1.768.049-2.452.533-.678.485-1.195 1.287-1.553 2.407l4.614.626-.211 1.558-4.766-.647-.082.453-.076.557-.033.397 4.129.56-.21 1.548-3.957-.536c.146 2.163 1.231 3.382 3.255 3.656.965.131 1.981.056 3.05-.225l-.279 2.054c-.939.292-1.996.358-3.17.199-1.625-.221-2.887-.845-3.785-1.874-.891-1.028-1.377-2.406-1.459-4.134l-1.538-.209.21-1.548 1.376.186.031-.377.05-.374.11-.655-1.376-.187.211-1.558 1.518.206c.486-1.659 1.31-2.9 2.473-3.725 1.163-.824 2.561-1.126 4.194-.905 1.349.183 2.516.644 3.501 1.382l-1.106 1.777c-.97-.654-1.859-1.035-2.669-1.145z"/><path fill="#CEA999" stroke="#CEA999" d="M195.692 157.556c-.879 1.905-4.302 4.444-6.692 5.333V178c7.648-1.333 8.126-1.333 10.994-1.333 7.647 0 10.037-.889 15.295-3.111 2.919-1.234 6.692-4 6.692-5.778 0-1.778-1.434-4.445-.478-6.667.956-2.222.478-4.444-.956-6.222-1.434-1.778-3.346-3.556-3.346-6.667 0-2.489-1.434-4.889-2.868-6.222l-.956 9.333c0 3.2-2.868 6.667-9.082 4.889-3.345-.957-4.301-3.111-4.301-4.889 0-2.222 2.867-7.555 1.433-7.555-1.433 0-3.345 1.778-4.301 5.778-.956 4 0 4.888-1.434 8z"/><path fill="#fff" d="M47.5 197.5c-15.2-15.6-21.333-38.833-22.5-49L12.5 244l46 15 39-18.5v-16.856c-10.333-1.667-34.8-10.544-50-26.144z"/></svg>