<svg xmlns="http://www.w3.org/2000/svg" fill="none" viewBox="0 0 228 231"><path fill="#E1E1E1" d="M91.008 229.781c50.258 0 91-40.742 91-91s-40.742-91-91-91-91 40.742-91 91 40.742 91 91 91z"/><path fill="#152D5D" d="M95.54 21.878s52.249-13.06 86.999 19.71c36.15 34.09 24.84 82.29 24.84 82.29l-111.84-102z"/><path fill="#1C3A77" d="M203.42 131.266c13.491-15.297-1.861-50.882-34.29-79.482S99.476 12.4 85.986 27.697c-13.491 15.297 1.861 50.882 34.29 79.482 32.428 28.6 69.653 39.384 83.144 24.087z"/><path fill="#26201F" d="M193.84 130.03c-.35-2.88-.87-5.73-1.48-8.55-.29-1.42-.65-2.82-1-4.23l-1.11-4.19a126.217 126.217 0 00-5.83-16.32c-.59-1.31-1.11-2.66-1.77-4l-1.94-3.87c-.66-1.29-1.42-2.52-2.12-3.78l-1.05-1.82c-.37-.62-.78-1.22-1.17-1.82l-2.36-3.65-2.61-3.46-1.3-1.74-1.42-1.64-2.84-3.28a88.025 88.025 0 0110.85 13.59c.41.6.82 1.2 1.21 1.81l1.11 1.84c.71 1.26 1.48 2.5 2.15 3.78l2 3.89c.67 1.28 1.2 2.64 1.8 4A119.93 119.93 0 01190.7 113a106.552 106.552 0 013.14 17.03z"/><path fill="#152D5D" d="M107.5 89.658c2.88-3 5.93-5.84 9.09-8.56 3.16-2.72 6.42-5.3 9.8-7.74 3.403-2.43 6.95-4.654 10.62-6.66a59.706 59.706 0 0111.51-4.8 69.61 69.61 0 00-11.33 5.13 115.541 115.541 0 00-10.46 6.73c-3.4 2.4-6.65 5-9.85 7.64-1.6 1.31-3.18 2.67-4.73 4.05-1.55 1.38-3.14 2.82-4.65 4.21zM89.098 59.91c4.74-1.179 9.55-2.06 14.4-2.64 4.853-.583 9.732-.916 14.62-1 4.889-.071 9.779.162 14.64.7a96.022 96.022 0 0114.38 2.73l-3.58-.75-1.79-.37-1.76-.31-3.61-.57-3.63-.39c-4.848-.478-9.72-.671-14.59-.58-4.87 0-9.74.36-14.58.88l-3.63.43c-1.21.18-2.42.33-3.62.52-2.46.4-4.86.82-7.25 1.35z"/><path fill="#E1E1E1" d="M86.008 27.691s8.77 16.36-.82 33c0 0 19.59 15.83 19.76 31 0 0 22.48 3.91 27.58 25.75 0 0 25-5.41 32.19 17 0 0 16.66-6.37 31.3 1.88 0 0 9.85-18.38 11-11.21l-5.88 15.44-22.69 2.72-58.14-17.18-35.15-36.32-12.15-37.93 5.08-17.73 7.92-6.42z"/><path fill="#E1E1E1" d="M120.309 126.088l-35.15-36.32-12.15-37.93.69-2.42a91 91 0 10108.21 93.41l-3.46.41-58.14-17.15z"/><path fill="#fff" d="M86.01 27.691l-7.86 6.42-4.42 15.31a90.998 90.998 0 0115.68-1.62 37.571 37.571 0 00-3.4-20.11zM207.009 125.129c-1.13-7.17-11 11.21-11 11.21a33.6 33.6 0 00-14.22-4.13c.16 2.166.24 4.356.24 6.57 0 1.36 0 2.71-.1 4l19.18-2.26 5.9-15.39z"/><path fill="#FF8139" d="M51.527 145.388l105.48-83.49 1.3.75-102.71 85.43-4.07-2.69z"/><path fill="#F4C7C3" d="M48.478 154.608s-11.25-4.29-14.47-4.42c-3.22-.13-2.87 2.4-3.81 3.51-.94 1.11-2.28 2.29-2.08 4.1.2 1.81-1.82 1.92-1.33 4.11.49 2.19-1.18 2.94.3 4.72 1.48 1.78 10.44 6.34 12.18 6.81a1.248 1.248 0 001.609-1.503 1.252 1.252 0 00-.509-.717 12.492 12.492 0 003.5 1.91l6.61.37-2-18.89z"/><path fill="#F4C7C3" d="M118.809 220.069H116.5c1.27-29.73 7.019-57.07 7.019-57.07s-23.039 24.9-40.019 22.5c-16.98-2.4-33.241-9.56-34.641-10.43-.62-.38-2.29-1.37-4.23-2.82l8.75-4.86c2 .82 13.121 5.61 13.121 5.61 17 5.5 18.799 6.55 23.909 4.29 5.11-2.26 13.811-20.06 21.591-28.29 7.78-8.23 11.419-18.19 18.009-16.33 7.56 2.15 11-.18 11-.18l.63-1.14a48.309 48.309 0 003.14-12.64 20.257 20.257 0 01-9.58-.07c-17.88-4.88-1.32-52.72-1.32-52.72 4.91-13 37.61-2.63 41.73 4.66 4 7-1.79 17.71-1.79 17.71 4.08-.18 4.52 3.12 4.52 3.12.82 7.1-9.37 11.7-9.37 11.7l-1 1.25c-9.06 12.75-9.68 21.84-8 25.67.38.8.81 10.78 8 8.97 4-1 12.4.67 18.21 15 11 27.2 5.85 60.76 0 64.7-5.85 3.94-62.66 5.94-62.66 5.94l-4.61-4.57"/><path fill="#2F2417" d="M190.567 82.112c-.76-9-6.41-29.5-37.85-24.27-3.68-1-7.81.22-9.62.7-17.26 4.61-15 29.19-15 29.19a70.29 70.29 0 0113.67-13.28 39.554 39.554 0 0022.14 26.279c-4.41 15.33-10 41.57 3.43 39.64 19-2.74 19.38 17.18 19.95 19.2.57 2.02.5 11.76.5 11.76s3.56-80.22 2.78-89.22z"/><path fill="#000100" d="M152.737 57.84c-3.68-1-7.81.22-9.62.7-17.26 4.61-15 29.19-15 29.19a69.808 69.808 0 0110.7-10.95s7.47-12.04 13.92-18.94zM168.405 114.09c1.93-10.34-4.5-13.36-4.5-13.36-4.41 15.33-10 41.57 3.43 39.64-5.88-11.94-.86-15.94 1.07-26.28z" opacity=".5"/><path fill="#000" d="M132.497 117.46c-4.08-4-1.68-15.43-2.47-19.53-.79-4.1 6-7.75 5.85-18.2-.11-7.79 4.78-16.09 7.28-19.82-4.48.56-8 2.37-9.38 6 0 .01-14.77 42.76-1.28 51.55zM144.678 133.57c1.44-1.33 3.79-15.84 3.79-15.84l-3.79 1a48.309 48.309 0 01-3.14 12.64l-.63 1.14s-2.48 1.66-7.49.92l1.11.37c3.41.73 8.72 1.1 10.15-.23z" opacity=".1"/><path fill="#fff" d="M69.01 170.819c15.49 1.1 19.36.17 22.99-2.32 3.632-2.49 8.001-5.5 19.001-20.98 4.5-8.52 12.449-16.71 19.039-14.85a25.2 25.2 0 003.47.74v-1.14c3.29-1.72 8.62-2.21 8.62-2.21-.11.3-.73 2.24-1.13 2.46-.347.184-.704.348-1.07.49a9.28 9.28 0 002.44 3.32l2.36 14.71 5.59-13.3a14.001 14.001 0 009.65-7.68 36.574 36.574 0 016.95 3c.589-.083-.996 4.824-.419 4.68 4-1 16.58 1.46 23.5 15.26 2.7 5.4 3.72 21.7 4 30.5 0 0 .47 16.26-1.5 33.5 0 0-7.731 2.95-14.471 4.37-10.43 2.48-28.15 1.46-40.4 3.34l-1.16-15-17.66 10.36-2.309-3.07c.555-13.003-1.995-18.702-4-25.5-2.579-8.746 8-23 8-23s-19 21-36 21c-6 0-9.851 1.55-17.161-1.52l1.67-17.16z"/><path fill="#F5F5F5" d="M136.207 208.337l1.38 16.3 15.6-.54-1.3-21.74a2.457 2.457 0 00-2.22-.8c-1.34.26-2.67 2.75-2.67 2.75a1.791 1.791 0 00-.727-.637 1.788 1.788 0 00-.953-.163c-1.07.18-2.05 2.22-2.05 2.22a2.719 2.719 0 00-2.93-2c-2.33.31-4.13 4.61-4.13 4.61zM67.27 188.659l1.74-18.94a1.683 1.683 0 011.38-.62c1 0 1.72 1.3 1.72 1.3a2.354 2.354 0 013.44 0 2.871 2.871 0 012.48-1 4.319 4.319 0 013.09 1.7v23.28a30.643 30.643 0 01-3.23-.9 3.899 3.899 0 01-2.41-2.07 3.991 3.991 0 01-2.13.48c-1-.13-1.72-1.65-1.72-1.65a2.446 2.446 0 01-2.46.72 2.318 2.318 0 01-1.9-2.3zM145.316 152.268l6-9.19 2.46 8.76 8.55-10.26-8.51 11.69s-1.23-2.88-2.62-2.88c-1.39 0-1.81 3.74-5.88 1.88zM143.158 151.857l-2.21-9.17-4 5.36-1.55-6.43 1.22 7.94a2.37 2.37 0 003.44-.75c1.36-2.17 3.1 3.05 3.1 3.05zM154.5 207s13.17-4.36 15.72-5.18l7.53-2.52v-22.8s-2.3 14.13-4.56 16.32c-2.26 2.19-7.49 1.1-10.69 6.48-3.56 5.87-8 7.7-8 7.7z"/><path fill="#E0DEDE" d="M101.007 194.417c5-2.85 4.93-3.929 5.33-8.149.6-6.41 2.69-22.58 2.69-22.58l-1.36 11.119s-1.12 17.691-20.41 18.901c-2 .13-3.91 1.309-6.12.709 2.87 1.77 13.09 3.85 19.87 0z"/><path fill="#F4EBEA" d="M142.328 129.207h.01l-.01.01v-.01z"/><path fill="#E5B9B7" d="M52.738 167.629a14.673 14.673 0 01-2-7.93c.09-4.8-7.17-6-9.69-5.5-2.52.5-5.18 2.7-7.77 4.78s-.12 3.32 1.4 2.8c1.78-.61 4-2.44 5.41-1.47 1.41.97-2.17 5.26 5 8.27l7.65-.95z"/><path fill="#F4C7C3" d="M54.45 168.121a19.091 19.091 0 01-2.73-9.25c.09-4.8-7.17-6-9.68-5.5s-5.18 2.7-7.78 4.78c-2.6 2.08-.59 2.35 1 2.28 1.59-.07 4.62-2.71 6-1.74s-.67 8.93 5.36 13.17l7.83-3.74z"/><path fill="#00181B" d="M41.457 151.85l10.31-8.41s.92-.71 2.1.59c1.18 1.3 2.67 3.24 2.67 3.24a1.348 1.348 0 01-.45 1.75c-1 .87-8.61 7.3-8.61 7.3s-2.7-4.22-6.02-4.47zM114.39 224.699h-13.81a2.099 2.099 0 01-2.1-2.1l-6.32-26.21a2.1 2.1 0 012.1-2.1h13.81a2.1 2.1 0 012.1 2.1l6.32 26.21a2.1 2.1 0 01-2.1 2.1z"/><path fill="#F4C7C3" d="M136.5 211.002s-18.991 2.269-28.011-1.731c-4.21-1.87-14.72 2.52-15.36 4.19-.64 1.67.55 2.36 1.14 3.34.59.98-.52 2.45.38 4 .9 1.55-.57 2.82.58 4.39 1.15 1.57.45 3.61 1.81 4.58 1.36.97 8.39 1.23 13.88-.19 7.14-1.84 7.57-4.56 12.5-4.92 4.93-.36 13.081-13.659 13.081-13.659z"/><path fill="#152D5D" d="M86.008 27.688s22.39-7.89 27.54 5.24c0 0 23.48-3.6 28.22 14.68 0 0 23.31-5 29.9 19.39 0 0 19.89 3 22.72 26.17 0 0 9.57 5.21 14 21l-1.82-13.89-7.75-27.22-36.5-40.64-41.98-13.15s-27.33-1.09-34.33 8.42z"/><path fill="#26201F" d="M115.828 30.599a20.713 20.713 0 016.82-2.89 40.733 40.733 0 017.36-1.11c4.97-.256 9.954.005 14.87.78 4.919.736 9.785 1.785 14.57 3.14 4.78 1.37 9.48 3 14.13 4.73l1.71.65-1.81-.28a30.406 30.406 0 00-7-.16 35.28 35.28 0 00-6.9 1.29 37.627 37.627 0 00-6.57 2.61 36.301 36.301 0 00-5.9 3.86 34.497 34.497 0 0112.36-6.73 35.746 35.746 0 016.95-1.36 30.762 30.762 0 017.11.11l-.11.37c-4.65-1.72-9.35-3.28-14.13-4.61a117.512 117.512 0 00-14.49-3.24 71.85 71.85 0 00-14.79-.88 45.56 45.56 0 00-7.35 1 20.852 20.852 0 00-6.83 2.72zM174.527 64.18a41.29 41.29 0 002-6.4 52.97 52.97 0 001.1-6.61c.238-2.222.312-4.458.22-6.69a46.119 46.119 0 00-.73-6.65l-.11-.56.39.34a56.886 56.886 0 019.51 10.81 59.443 59.443 0 016.63 12.85 55.164 55.164 0 013.14 14 56.047 56.047 0 01-.67 14.39c.711-4.74.849-9.548.41-14.32a56.37 56.37 0 00-1.18-7.07 58.625 58.625 0 00-2.07-6.85 60.357 60.357 0 00-6.62-12.67 56.391 56.391 0 00-9.35-10.8l.31-.18c.387 2.214.614 4.453.68 6.7a45.714 45.714 0 01-.28 6.73 44.807 44.807 0 01-1.22 6.62 40.756 40.756 0 01-2.16 6.36z"/><path fill="#E5B9B7" d="M117.207 211.057l-4.269-3.19.68 2.81 3.589.38z"/></svg>