<svg xmlns="http://www.w3.org/2000/svg" fill="none" viewBox="0 0 225 225"><path fill="#E1E1E1" d="M172.88 63.864l-80 45.29v-91.9a91.86 91.86 0 1080 46.61z"/><path fill="#E5B9B7" d="M97.07 190.283a8.014 8.014 0 012.64-1.75 73.507 73.507 0 018.41-.92c1.5 0 7.45 2.6 7.89 2.89.44.29.7 1.75-1.59 1.68-2.29-.07-17.35-1.9-17.35-1.9z"/><path fill="#FF8139" d="M99.11 200.145s1.999 15.14 19.999 22.26c18 7.12 28.83-2.9 28.83-2.9l-10.89-42.36-37.94 23z"/><path fill="#F4C7C3" d="M178.207 127.462a70.995 70.995 0 00-7.68 6.58c-3.07 3.14-9.2 6.36-13.32 5.53l8.91-19.06s5.3-3.24 7.77-3.65c2.47-.41 12.63 1.19 16.28 2.74a.991.991 0 01.599.566 1.002 1.002 0 01-.029.824s1.27.45 1.36 1.13c.18 1.31-1.79 1.28-3.6 1.19 0 0 .33 1.33-1.73 1.48a13 13 0 00-8.56 2.67z"/><path fill="#E5B9B7" d="M161.82 139.191a19.837 19.837 0 002.57-1c-.829.401-1.688.735-2.57 1zm-.75.2c.24-.06.49-.12.74-.2-.46.14-.74.2-.74.2zm3.321-1.158l.6-.28-.6.28z"/><path fill="#E5B9B7" d="M167.791 121.312s.86-.49 2-1.09a21.65 21.65 0 015.19-2.06c2.41-.38 8.31 1.15 10.25 1.55 1.94.4 5.48 1.28 5.48 1.28-.21 1.3 1.37 1.38 1.37 1.38-.13.93-1.38.92-2.4 1a10.671 10.671 0 01-2.43-.26 2.32 2.32 0 00.57 1.45 2 2 0 01-1.08.26 15.488 15.488 0 00-7 1.66c-2.9 1.71-5.77 4.43-9.84 8.17a20.467 20.467 0 01-4.86 3.29h-.08l-.6.28c-.833.392-1.692.726-2.57 1-.25.08-.5.14-.74.2l6.74-18.11z"/><path fill="#F4C7C3" d="M177.13 116.761c4-.07-.52-2.75-2.91-3.26-2.39-.51-7.72-1.26-9.4 1-1.68 2.26-14.37 20.28-16.35 21.11-1.98.83-14.05 2.59-14.05 2.59-22.36 2.56-31.11.71-36.23-1.56-5.12-2.27-5.72-16-13.54-24.23-7.82-8.23-7.3-16.78-13.91-14.9-7.62 2.16-7.51-.36-7.51-.36l-.64-1.15a48.871 48.871 0 01-3.16-12.76c3.32.71 3.06.94 6.12.11 18-4.93 1.33-53.18 1.33-53.18-4.95-13.16-37.94-2.66-42.09 4.7-4 7.08 1.8 17.87 1.8 17.87-4.12-.15-4.59 3.18-4.59 3.18-.84 7.16 9.45 11.8 9.45 11.8l1 1.26c9.14 12.87 6.85 22 5.15 25.89-.38.81-3.6 2.7-6.9 2.64-4.2-.06-15.81.23-21.66 14.69-11.11 27.43-.86 68.14 5.05 72.12 5.91 3.98 62.46 12 62.46 12l5.76 3.85 6.84 2c2.19.73 6.52 2.68 12 4.14 6.87 1.8 7.87 2.21 9.73 2.44 2.09.25 1.75.45 4.38.69 2 .18 2-1.43 2-1.43l3.46.89c2.82-.19 1.66-3.41 1.66-3.41a2.132 2.132 0 001.351-1.533 2.146 2.146 0 00-.551-1.967c-.6-.49-6-3.59-7.14-4.32-1.14-.73-5.65-3.25-5.65-3.25s6.55 1.77 6.92 2.27a65.723 65.723 0 005.92 4.41c1.19.6 2.36-1.33 1.6-2.34-.76-1.01-5.16-5.28-7.17-6.16-2.01-.88-5.49-3.51-7.12-4.26s-2 .72-6.69.59-3-.06-3.73-.21-1.74-.75-3-1a9.259 9.259 0 00-3.64.63L82 185.691h14.86c-1.27-29.98-3.66-45.69-3.66-45.69s-4.83 25.42 12.3 23c17.13-2.42 46.11-18.78 47.52-19.65.63-.39 2.32-1.39 4.27-2.85 9.28-1.23 6.63-9.39 12.33-9.39 6.59 0 7.9-.38 7.9-1.6 0-1.22-6.58-1.85-10.87-2 .71-3.08.81-6 1.9-8.71 1.26-3.17 5.61-1.99 8.58-2.04z"/><path fill="#000" d="M68.168 82.195c4.11-4.08 1.7-15.56 2.49-19.69.79-4.13-6.06-7.83-5.9-18.36.12-7.86-4.82-16.24-7.34-20 4.51.57 8.08 2.4 9.46 6.07 0 0 14.92 43.12 1.29 51.98zm-8.77 16.188c-1.45-1.34-3.82-16-3.82-16l3.82 1a48.783 48.783 0 003.16 12.76l.64 1.15s2.51 1.68 7.56.92l-1.12.38c-3.44.75-8.79 1.13-10.24-.21z" opacity=".1"/><path fill="#F4EFEF" d="M125.099 139.104c-15.63 1.11-22.57-.5-26.91-2.43-5.12-2.28-3.59-16.76-10.7-28-6.07-9.61-10.14-13-16.75-11.1-1.28.36.94 0-.11.15v-1.2c-3.31-1.74-8.69-2.24-8.69-2.24.11.31.89 2.68 1.29 2.9.4.22-2.46.67-2.46.67a9.267 9.267 0 01-2.46 3.34l-2.38 14.81-5.64-13.4c-7.21-1.54-12.29-8.53-12.29-8.53a8 8 0 00-4 1.49c-.54-.08-1.66 2.12-2.3 2-4.07-1-18 1-24.92 14.92-2.65 5.41-6.16 19.52-6.43 28.4 0 0-1.18 23.18.8 40.58 0 0 14.39 4 21.14 5.48 10.52 2.5 28.39 5.42 40.75 7.32l1.17-13.91 17.79 5.34h14.86c-1.27-29.98-3.66-45.69-3.66-45.69s-4.83 25.42 12.3 23c6.15-.87 13.82-3.54 21.2-6.64l-1.6-17.26z"/><path fill="#E0DEDE" d="M64.43 177.824L63 194.264l-15.7-2.52 1.31-20a2.503 2.503 0 012.24-.81c1.35.27 2.69 2.78 2.69 2.78a1.81 1.81 0 011.7-.8c1.08.17 2.06 2.23 2.06 2.23a2.757 2.757 0 013-2c2.29.34 4.13 4.68 4.13 4.68zm-9.19-60.471l-6-9.28-2.48 8.85-8.67-10.361 8.57 11.761s1.24-2.91 2.64-2.91c1.4 0 1.84 3.77 5.94 1.94zm2.178-.45l2.23-9.25 4 5.4 1.56-6.491-1.24 8a2.38 2.38 0 01-1.902.397 2.372 2.372 0 01-.906-.407 2.375 2.375 0 01-.662-.74c-1.33-2.18-3.08 3.091-3.08 3.091z"/><path fill="#E0DEDE" d="M48.608 171.783s-9.75-5-12.33-5.87l-7.59-2.55 3.59-21.48s-3.15 12.74-.86 15 7.13.23 10 6.51c2.87 6.28 7.19 8.39 7.19 8.39zm46.652-16.249c-7.26-7.69 6.741-11.53.51-13.42-6.23-1.89-3.93-13.29-3.93-13.29l1.36 11.18s-4.83 25.42 12.301 23a51.945 51.945 0 006.35-1.37c-2.7.24-10.66.19-16.59-6.1z"/><path fill="#F4EBEA" d="M58.25 94.055l.01.01-.01-.01zm83.599 42.999c-3.67.63-7.43 1.18-7.43 1.18-22.36 2.56-30.85 0-36.23-1.56-8.36-2.47-3.59-21.86-11.41-30.11s-9.43-10.9-16-9c-6.57 1.9-8-2.81-8.8-3.26.18 1.26-2.28 5.71-4.26 6.34l-1.46 5.36-5-5.35c-6.37-1.25-13.26-6.58-13.26-6.58-.39.81 1 5.27-6.25 3.45-4.07-1-16.85.22-22.7 14.68-12.21 30.15-4.39 64.36 5.05 72.12 5.5 4.52 62.46 12 62.46 12l.08 2.54 5.68 1.31c-.33-7.76 5.09-13.19 5.09-13.19l-5.41-1.29h14.86c-1.27-29.98-3.66-45.69-3.66-45.69s-4.83 25.42 12.3 23c11.65-1.65 28.77-9.73 39-15-4.92-4.59-2.65-10.95-2.65-10.95zM58.25 94.055l.01.01-.01-.01z"/><path fill="#292289" d="M58.25 94.055l.01.01-.01-.01z"/><path fill="#152D5D" d="M6.478 111.735c3.84-11.26 15.52-15.17 21.14-15.68l10.41-2s6 23.82 17.61 39.68l1.78 38.95 25.42 13-.16.16a13.997 13.997 0 00-3.68 10.95l.08 2.54-2.37-.52s-35.07-7.48-52.88-11.52c-1.48-.34-2.84-.66-4.05-1l-16.13-4s-8.06-38.62 2.83-70.56z"/><path fill="#152D5D" d="M136.527 137.915l-2.11.32c-22.36 2.56-31.109.71-36.23-1.56-5.12-2.27-2.33-16.44-6.35-27.08-2.69-7.11-5.53-14.46-16.35-15.54l-13.55.23a12.36 12.36 0 001.33 3l.2.12c.76.324 1.546.578 2.35.76 0 0 5.75 17.86 3.52 35.18l7.44 49.91 6.06 2.43h14c-1.27-30-1.7-27.08-1.7-27.08s-6.79 6.85 10.341 4.43c9.75-1.38 24.659-3.52 34.82-8.5-1.541-2.53-4.711-10.72-3.771-16.62z"/><path fill="#0C2048" d="M53.6 139.554l-.78-5.17-2.89 4.39a56.583 56.583 0 01-9.13-12.77 50.13 50.13 0 009.09 14l2.85-4.34.86 3.89zm16.869-1.553l1.34-5 3.1 3s2.27-8.89 1.81-16.06a45.57 45.57 0 01-1.63 17.6l-3-3.08-1.62 3.54zM48.71 169.122s-5.71-3.31-7.91-3.12c-2.2.19-7.36 0-7.36 0s-2.65-13.82-2.65-19.76c0 0 .6 8.18 2.73 11.44s4.47 1.9 8.18 4.83 3.3 4.66 7.01 6.61z"/><path fill="#151563" d="M140.321 154.543s.46-1.2 0-4.41l-1.68.83a22.538 22.538 0 001.68 3.58z"/><path fill="#000" d="M76.668 182.544l-3.21-21.54-3-20.08-1.13-7.59a45.4 45.4 0 00.4-12.65c-.61-6.1-.34-13.77-3.42-20.84 0 0 1.35 6.24.9 10.71-.28 2.81-2.37 11.27-1 17.8 1.37 6.53 3.65 8.16 3.21 17.13-.44 8.97-.88 23.63 7.25 37.06z" opacity=".1"/><path fill="#594423" d="M75.93 66.643a25.997 25.997 0 00-2.25-6.32s-.11 3.07-3 2.18c-4.27-1.31-10.39-1.55-17 4.76-6.61 6.31-16-2.93-17.43-7.79-1.43-4.86-5.71-16.26-2.55-19.3 3.16-3.04 11.3 1.34 20.08-1.7 8.78-3.04 12.48-10.19 13.46-6.67a55.659 55.659 0 001.86 5.66s2.15-12.7-1.1-17.68-9.37-4.25-14.71-2.3c-5.34 1.95-11.17 1-14 1a16.318 16.318 0 00-12.7 7.13c-3.89 5.7-8.38 4.73-8.86 10-.48 5.27 6.93 15.37 8.86 17.22 1.3 1.23 4.67 7.38 7.63 13.82-.26.92-1 1.49-2.73 1.12a45.944 45.944 0 005.14 9.48c2.64 3.6 10.84 9 22.72 9.12a18.11 18.11 0 008.38-1.6c8.49-4.09 9.35-13.64 8.2-18.13z"/><path fill="#3E2F1C" d="M46.388 77.634c-4.68-.85-8.71-3-10.31-10.09-1.6-7.09-11.15-22.2-13.49-28.47s4.89-6.16 5.41-10.73c.33-2.85 2.74-6 4.5-8a16.34 16.34 0 00-5.92 5.3c-3.89 5.7-8.38 4.73-8.86 10-.48 5.27 6.93 15.37 8.86 17.22 1.3 1.23 4.67 7.38 7.63 13.82-.26.92-1 1.49-2.73 1.12a45.934 45.934 0 005.14 9.48c2.64 3.6 10.84 9 22.72 9.12 1.679.062 3.359-.09 5-.45-7.89 1.05-13.28-7.47-17.95-8.32z"/><path fill="#674F2D" d="M35.7 19.003s4.59 4 13 3.29c2.98-.23 11.4-5.48 14.81-3.29 3.41 2.19 5.1 5.86 3.73 12.78a55.659 55.659 0 001.86 5.66s2.15-12.68-1.1-17.66-9.37-4.25-14.71-2.3c-5.34 1.95-11.17 1-14 1a13.736 13.736 0 00-3.59.52zm40.227 47.641a25.998 25.998 0 00-2.25-6.32s-.11 3.07-3 2.18a15.31 15.31 0 00-11.81 1c.31-.07 10.74-2.53 13.58 2.16 2.84 4.69 2.38 11.64-1.21 16.75 5.18-4.66 5.66-12 4.69-15.77z"/><path fill="#00181B" d="M172.69 145.932s14.78 3.83 28.15-10.14 8.16-27.79 8.16-27.79l-43.34-5.85 7.03 43.78z"/><path fill="#F4C7C3" d="M169.098 127.672c2.014.13 4.018.387 6 .77 1.31.43 1.85.89 1.78 1.59-.07.7-1.47 1.24-3.25 1.2l-3.64-.08-.89-3.48z"/></svg>