<svg xmlns="http://www.w3.org/2000/svg" fill="none" viewBox="0 0 225 225"><path fill="#E1E1E1" d="M90.086 200.5c-49.153 0-89-39.847-89-89s39.847-89 89-89 89 39.847 89 89-39.847 89-89 89z"/><path fill="#D6AA96" d="M141.885 211.588l4.54 3.63-12.39-4.09-.33-2.4 8.18 2.86z"/><path stroke="#000" d="M177.246 183.303c-6.639 4.397-23.417 17.657-37.414 35.53"/><path fill="#E2BBA6" d="M133.885 170.108c-15.87-33.82-20-40.43-24.3-47.19-4.3-6.76-13.3-11-19.65-7.66-6.7 3.54-10.54-.61-10.54-.61l-.6-1.09c-1.91-4.86-.57-9-.59-12.13a19.53 19.53 0 009.19-.06c17.15-4.68 4.66-49.55 4.66-49.55-4.7-12.51-36.07-2.53-40 4.46-3.8 6.74-1.69 16-1.69 16-3.91-.18-4.33 3-4.33 3-.8 6.76 9.96 12.4 9.96 12.4l1.84.55c6.57 13.34 5 20.38 3.4 24.06-.37.76-2.36 4.54-5.63 3-3.61-1.63-16.09-1.33-19.84 11.23-7.05 23.54-5.3 67 .32 70.81 5.62 3.81 59.39 11.36 59.39 11.36l5.7 1.25 6.7 1.47c4.43 1 19.49 10 26.63 10.58 7.14.58 14.91 1.54 16.37 1.23a1.102 1.102 0 001.007-1.071 1.1 1.1 0 00-.117-.519s1.9 1.14 2.49 0a1.507 1.507 0 00-.59-1.9c.44-.12 1.19-1.16-.3-1.91s-8.79-3.18-11.41-4.3c-2.62-1.12-8.41-3.18-6.66-3 3.031.36 6.036.904 9 1.63 1.07.44 4 2.13 4.83 2.51.886.442 1.845.72 2.83.82.56-.07.65-.78.26-1.42-.39-.64-8.2-5.64-9.44-6.13-1.24-.49-7.44-2.55-8.58-2.42-1.14.13-8.57.63-10.31.47-1.74-.16-2.71-1.19-4.28-.87-.858.19-1.731.304-2.61.34l-3.57-1.49-12-5-.82-.35h8.09l.12-9.48c.1-7.56 3.2-11.45 5-16.55a119.51 119.51 0 008.43 11.46 11.447 11.447 0 007.84 4.08"/><path fill="#D6AA96" d="M89.895 100.228c3.9-3.88 1.61-14.79 2.37-18.72.76-3.93-2.38-6.47-2.22-16.47.11-7.47-4.58-15.43-7-19 4.29.54 7.68 2.28 9 5.77.01.01 10.8 40-2.15 48.42zm-14.11 15.46c-1.38-1.28-1.21-15.2-1.21-15.2l3.63.94c.08 2-1.32 7.27.59 12.13l.6 1.09a7.588 7.588 0 003.195 1.736 7.591 7.591 0 003.635.054.27.27 0 01-.12 0c-3.28.76-8.95.52-10.32-.75z"/><path fill="#F4C7C3" d="M153.845 174.038c-10.07-2-20-4-20-4-15.87-33.82-20-40.43-24.3-47.19-4.3-6.76-13.3-11-19.65-7.66-4.09 2.16-7.1 1.46-8.84.58 2.3 2.41 4.05 5.289 5.13 8.44 1.35 5.79-3.16 18.1-3.16 18.1s-13.93-10.69-18.61-13.21c-4.68-2.52-7.14-13.5-7.14-13.5a3.473 3.473 0 01-1.74-.34c-3.54-1.6-16.02-1.3-19.77 11.26-7.05 23.54-5.3 67 .32 70.81 3.94 2.65 31.62 7.18 47.76 9.64l5.82-13.07 11.11 4.74h7.91l.12-9.48c.1-7.56 3.2-11.45 5-16.55a119.373 119.373 0 008.44 11.43 11.447 11.447 0 007.84 4.08c3.63.33 12.61.28 21.59.11l2.17-14.19z"/><path fill="#E2BBA6" d="M153.845 174.038s13.89 3.21 16.57 3.21c2.68 0 2.44-2 4.59-3.48s7.66-1.74 9.27-1.74c1.61 0 5-1.87 5.78-1.21 1.56 1.32-4.05 4.42-5.4 5.13 0 0 9.83-1.37 11.71-1.37 1.88 0 4.3-3.49 5.78-3.83 1.48-.34 1.75.54 1.75.54s1.52-1.86 2.45-1.46c.93.4 1.06 1.33 0 2.79 0 0 1.79.66-.26 3.25s-2.79 3.45-2.79 3.45 1 .86-.4 2.25a24.9 24.9 0 01-11.07 5.17c-4.51.67-40.15 1.49-40.15 1.49l2.17-14.19z"/><path fill="#D3A8A4" d="M53.905 154.318s-1.95 18.21 0 23.4c1.95 5.19 18.85 10.54 18.85 10.54s-10.11-5-11.49-9.23a19.299 19.299 0 00-4.07-7.74c-2.38-3.2-3.29-16.97-3.29-16.97zm59.93 18.29s4.23-8.16 0-20.5l5.52 19.18c2.59 9 8.33 9.51 10.91 9.67 2.58.16 10.63 1.43 14.08 3.23 3.45 1.8 7.81.94 7.81.94l-.48 3.13-14.19.13c-1 0-5.61-.17-7-.13a12.17 12.17 0 01-8.29-4.19c-2.66-3.28-8.36-11.46-8.36-11.46z"/><path fill="#00181B" d="M68.357 64.708c14.8-.978 22.91-3.362 25.56-4.585.716 3.694 1.806 10.95 2.242 15.308.544 5.447-.218 18.63-4.576 23.423-3.486 3.835-10.531 3.269-13.618 2.506-.977 8.105-.787 11.193 1.61 13.491 3.647 3.614 9.075.991 11.259-.097 2.183-1.088 6.53-.533 8.396.023 1.288-9.211 3.525-30.689.063-54.962-3.246-22.755-40.777-30.67-51.117-4.648-8.272 20.818-4.559 58.688 0 74.011 3.653 12.28 15.034 22.674 17.735 21.298-1.15-21.216-2.345-86.89 0-92.343 1.957 3.425 2.446 5.81 2.446 6.575z"/><path fill="#152D5D" d="M204.549 164.317c0-1.775-1.507-2.461-2.26-2.582l-30.469 16.788c.027.121.113 1.049.242 3.793.13 2.744 1.588 3.484 2.301 3.511 5.031.014 15.86.032 18.927 0s4.426-1.197 4.721-1.775c1.843-3.431 5.618-10.485 5.973-11.26.355-.775.525-2.206.565-2.825v-5.65z"/><path stroke="#000" d="M170.528 188.228l7.089-5.19"/><path fill="#1C3B78" d="M180.822 162.607a1.998 1.998 0 011.731-.998h19.295c1.54 0 2.502 1.668 1.731 3.001l-8.686 15.016a2.001 2.001 0 01-1.732.998h-19.294c-1.54 0-2.503-1.668-1.731-3.001l8.686-15.016z"/><path fill="#152D5D" d="M202.459 168.328h4.182v5.372h-4.182z"/><path fill="#152D5D" d="M204.455 165.345l-1.969 3.182h4.121v5.12l1.353-2.952v-5.35h-3.505z"/><path fill="#1C3B78" d="M207.886 165.346h-3.712l-1.631 2.957h3.775l1.568-2.957z"/><path stroke="#000" stroke-linecap="round" d="M206.641 170.649l5.659-.166m-4.927-1.988l5.593-.167"/><path fill="#fff" d="M131.356 123.198h24.474v21.61h-24.474z"/><ellipse cx="143.593" cy="134.566" fill="#E1E1E1" rx="6.205" ry="5.994"/><path fill="#C4C4C4" fill-rule="evenodd" d="M143.829 128.577c-3.317.12-5.969 2.755-5.969 5.989s2.652 5.87 5.969 5.99a6.157 6.157 0 01-.236.004c-3.427 0-6.205-2.683-6.205-5.994 0-3.31 2.778-5.994 6.205-5.994.079 0 .158.002.236.005z" clip-rule="evenodd"/><ellipse cx="141.308" cy="134.566" fill="#00181B" rx=".638" ry=".684"/><ellipse cx="145.969" cy="134.566" fill="#00181B" rx=".638" ry=".684"/><path fill="#C4C4C4" d="M156.756 123.23h-.963v21.615h.963V123.23z"/></svg>