<svg xmlns="http://www.w3.org/2000/svg" fill="none" viewBox="0 0 225 225"><path fill="#E1E1E1" d="M111.49 14.047c-38.392 0-69.513 28.259-69.513 63.116v71.722c0 34.857 31.121 63.116 69.513 63.116 38.392 0 69.502-28.259 69.502-63.116V77.163c0-34.857-31.122-63.116-69.502-63.116z"/><path fill="#CCD2DD" d="M193.612 172.996H30.432c-5.761 0-10.432 4.671-10.432 10.433v18.139C20 207.329 24.67 212 30.433 212h163.179c5.762 0 10.433-4.671 10.433-10.432v-18.139c0-5.762-4.671-10.433-10.433-10.433z"/><path fill="#152D5D" d="M38.027 172.997l20.312-60.442H163.39l20.563 60.442H38.027z"/><path fill="#00181B" d="M158.471 133.66h-64.94l4.024-14.578h56.892l4.024 14.578z"/><path stroke="#fff" stroke-miterlimit="10" d="M97.293 130.973h10.946M111.379 130.973h10.946M128.48 130.973h10.946M142.566 130.973h10.946"/><path fill="#fff" d="M59.626 133.56s-1.398-22.907 10.312-29.789c11.71-6.881 4.125-26.348 4.125-26.348l2.404 2.012 1.006-2.012 2.113 1.912 1.006-1.912 2.012 2.012.845-2.012 2.385 2.334.704-2.334 2.253 2.475.835-2.475 2.113 2.334.845-2.334L94.727 80l.845-2.616 2.243 2.897.846-2.897a24.007 24.007 0 01.563 25.241c-7.867 13.532-14.84 12.385-13.21 30.936H59.627z"/><path stroke="#0C0D0D" stroke-miterlimit="10" d="M78.883 84.074h13.752M94.977 84.074h3.641M95.473 96.144h3.642M78.883 88.098h8.652M78.883 92.121h20.483M78.883 96.144h14.255M76.516 100.332h10.563M90.191 100.332h7.103M89.95 88.098H98.6"/><path fill="#fff" d="M91.047 142.775l1.75-6.439h7.566l-1.358 6.439h-7.958zM107.055 142.775l.945-6.439h7.264l-.573 6.439h-7.636zM123.178 136.336h7.827l.262 6.439h-8.24l.151-6.439zM138.09 136.336h7.133l1.026 6.439h-7.485l-.674-6.439zM151.992 136.336h7.203l1.761 6.439h-7.596l-1.368-6.439zM103.219 169.684l.815-5.493h45.503l.805 5.493h-47.123zM90.455 144.918l-1.67 6.137h8.511l1.258-6.137h-8.099zM106.73 144.918l-.906 6.137h8.129l.543-6.137h-7.766zM122.977 144.918l-.141 6.137h8.773l-.342-6.137h-8.29zM138.914 144.918l.614 6.137h8.028l-.976-6.137h-7.666zM153.824 144.918l1.308 6.137h8.079l-1.67-6.137h-7.717zM88.17 153.316l-1.791 6.55h9.024l1.378-6.55H88.17zM105.493 153.316l-.966 6.55h8.652l.574-6.55h-8.26zM122.776 153.316l-.151 6.55h9.346l-.362-6.55h-8.833zM139.75 153.316l.644 6.55h8.551l-1.036-6.55h-8.159zM155.613 153.316l1.399 6.55h8.601l-1.78-6.55h-8.22z"/></svg>