<svg xmlns="http://www.w3.org/2000/svg" fill="none" viewBox="0 0 225 225"><path fill="#E1E1E1" d="M108.686 198.638s28 .38 38.95-34.25c12.67-40.04-19.71-57.35 7.36-87.35 27.07-30-20.17-74-86.91-54-78.31 23.55-116.78 179.07 40.6 175.6z"/><path fill="#E5B9B7" d="M120.783 198.141a8.088 8.088 0 012.667-1.765 74.314 74.314 0 018.497-.928c1.516 0 7.527 2.622 7.971 2.914.445.293.708 1.765-1.606 1.695-2.314-.071-17.529-1.916-17.529-1.916z"/><path fill="#F4C7C3" d="M202.759 134.788a71.724 71.724 0 00-7.759 6.636c-3.101 3.166-9.295 6.414-13.457 5.577l9.002-19.222s5.354-3.267 7.85-3.681c2.495-.413 12.76 1.2 16.448 2.763a1.001 1.001 0 01.605.571 1.004 1.004 0 01-.029.831s1.283.454 1.374 1.14c.182 1.321-1.809 1.291-3.637 1.2 0 0 .333 1.341-1.748 1.492-3.112-.154-6.177.8-8.649 2.693z"/><path fill="#E5B9B7" d="M186.2 146.618a20.158 20.158 0 002.597-1.009c-.838.404-1.706.742-2.597 1.009zM185.442 146.819c.243-.06.496-.121.748-.202a9.832 9.832 0 01-.748.202zM188.797 145.65l.606-.283-.606.283z"/><path fill="#E5B9B7" d="M192.231 128.585s.869-.494 2.021-1.099a21.939 21.939 0 015.243-2.077c2.435-.383 8.396 1.16 10.356 1.563 1.96.403 5.537 1.291 5.537 1.291-.212 1.311 1.384 1.391 1.384 1.391-.132.938-1.394.928-2.425 1.009a10.783 10.783 0 01-2.455-.262c.017.539.221 1.055.576 1.462-.332.189-.71.279-1.091.262a15.683 15.683 0 00-7.072 1.674c-2.93 1.725-5.83 4.468-9.942 8.24a20.63 20.63 0 01-4.91 3.317h-.081l-.606.283c-.841.395-1.709.732-2.597 1.008-.252.081-.505.141-.747.202l6.809-18.264z"/><path fill="#FB5756" d="M185.744 107.661l32.083-4.319 6.057 44.997-32.083 4.32z"/><path fill="#FF8139" d="M126.545 178.598l32.083-4.319 6.057 44.997-32.083 4.32z"/><path fill="#081B42" d="M140.226 175.16l32.08 4.332-6.075 44.995-32.08-4.332z"/><path fill="#fff" d="M193.331 117.221l-.48-3.537.75-.102.396 2.917 1.434-.194.085.619-2.185.297zM196.132 116.84l-.48-3.537.75-.102.48 3.537-.75.102zM199.31 112.806l.757-.102-.722 3.7-.818.111-1.68-3.374.757-.103.951 2.014c.054.12.112.26.173.42.063.159.104.271.122.334a6.323 6.323 0 01.076-.804l.384-2.196zM201.478 114.111l.242-.033c.237-.032.406-.095.509-.19.102-.094.141-.226.118-.395-.022-.168-.097-.279-.222-.335-.125-.055-.308-.066-.55-.034l-.227.031.13.956zm.083.61l.184 1.357-.75.102-.48-3.537 1.03-.14c.481-.065.848-.026 1.103.119.254.142.406.392.454.748a.956.956 0 01-.096.58 1.152 1.152 0 01-.435.446c.64.723 1.057 1.189 1.25 1.4l-.833.113-1.028-1.243-.399.055zM206.303 115.459l-2.037.276-.481-3.536 2.037-.277.084.614-1.287.175.105.777 1.198-.163.083.615-1.197.162.124.912 1.287-.175.084.62zM208.407 115.173l-.75.102-.395-2.913-.961.13-.084-.624 2.67-.362.085.624-.96.13.395 2.913zM213.364 114.5l-.37-.807-1.29.175-.142.876-.808.11.766-3.721.917-.124 1.735 3.381-.808.11zm-.635-1.412l-.577-1.24a3.413 3.413 0 01-.095-.228 52.55 52.55 0 01-.25 1.593l.922-.125z"/><path fill="#F4C7C3" d="M201.668 123.997c4.041-.07-.525-2.773-2.94-3.288-2.415-.514-7.8-1.27-9.497 1.009s-14.518 20.452-16.518 21.289c-2.001.837-14.195 2.612-14.195 2.612-22.591 2.582-31.431.716-36.604-1.573-5.173-2.29-5.779-16.136-13.68-24.436-7.9-8.3-7.375-16.922-14.053-15.026-7.698 2.178-7.587-.363-7.587-.363l-.647-1.16a49.208 49.208 0 01-3.193-12.868c3.355.716 3.092.948 6.184.11 18.185-4.97 1.343-53.63 1.343-53.63-5-13.272-38.33-2.683-42.524 4.74-4.041 7.14 1.819 18.021 1.819 18.021-4.163-.15-4.638 3.207-4.638 3.207-.848 7.221 9.548 11.9 9.548 11.9l1.01 1.271c9.235 12.98 6.92 22.187 5.203 26.11-.384.816-3.637 2.722-6.97 2.662-4.244-.061-15.974.232-21.884 14.814-11.225 27.663-.869 68.718 5.102 72.732 5.97 4.014 63.104 12.102 63.104 12.102l5.819 3.882 6.911 2.017c2.212.736 6.587 2.703 12.124 4.175 6.94 1.816 7.951 2.229 9.83 2.461 2.111.252 1.768.454 4.425.696 2.021.181 2.021-1.442 2.021-1.442l3.495.897c2.849-.191 1.678-3.439 1.678-3.439.338-.123.64-.33.878-.6a2.148 2.148 0 00.46-2.008 2.155 2.155 0 00-.53-.921c-.606-.495-6.062-3.621-7.214-4.357-1.152-.736-5.708-3.278-5.708-3.278s6.617 1.785 6.991 2.29a66.656 66.656 0 005.981 4.447c1.203.605 2.385-1.341 1.617-2.36-.768-1.018-5.213-5.325-7.244-6.212-2.031-.887-5.547-3.54-7.194-4.296-1.646-.756-2.02.726-6.759.595-4.738-.131-3.03-.061-3.768-.212s-1.758-.756-3.031-1.008a9.35 9.35 0 00-3.677.635l-11.599-2.683h15.013c-1.283-30.234-3.697-46.077-3.697-46.077s-4.88 25.636 12.426 23.195c17.307-2.44 46.586-18.939 48.01-19.816.637-.394 2.344-1.402 4.314-2.875 9.376-1.24 6.699-9.469 12.458-9.469 6.658 0 7.981-.383 7.981-1.614 0-1.23-6.648-1.865-10.982-2.017.717-3.106.818-6.051 1.92-8.784 1.273-3.196 5.667-2.006 8.668-2.057z"/><path fill="#00181B" d="M98.357 38.327c0 4.655-2.238 13.876-3.133 17.01-.447-2.686-2.536-10.445-3.58-13.877-1.493-.149-5.282-.716-10.296-1.79-6.266-1.343-13.428 1.343-15.218 8.504-1.79 7.162-7.162 5.372-8.504 9.848-1.075 3.58.447 7.46 1.342 8.952-2.148-.358-4.476-3.73-5.37-5.372-2.09-.895-6.357-1.7-6.715 2.239-.448 4.923 1.79 4.923 6.714 9.4 3.94 3.58 7.013 11.338 8.057 14.77-.895-.298-3.223-1.88-5.371-5.819-2.686-4.923-1.343-5.819-7.61-8.952-6.266-3.133-6.714-8.952-6.714-14.323s-3.58-7.162-2.238-16.561c1.075-7.52 7.908-9.4 11.19-9.4 3.581-6.267 12.529-5.19 19.248-8.952 11.19-6.267 18.477-1.575 21.484 3.58 3.134 5.372 6.714 4.924 6.714 10.743z"/><path fill="#00181B" d="M74.483 76.218c-8.458 1.566-15.794-10.443-18.405-16.643v4.504c3.76 7.362 1.566 12.465 0 14.097 2.676 1.631 3.336 6.322 3.963 8.358.783 2.545 16.4 10.242 28.735 6.914 12.335-3.329 12.922-19.775 7.048-21.342-5.874-1.566-10.769 2.154-21.341 4.112z"/><path fill="#000" d="M91.585 89.134c4.152-4.114 1.717-15.692 2.515-19.857.798-4.165-6.122-7.896-5.96-18.515.12-7.927-4.87-16.378-7.416-20.17 4.556.575 8.163 2.42 9.557 6.122 0 0 15.074 43.485 1.303 52.42zM82.725 105.462c-1.465-1.352-3.86-16.136-3.86-16.136l3.86 1.008a49.13 49.13 0 003.192 12.869l.647 1.159s2.536 1.695 7.638.928l-1.132.383c-3.475.757-8.88 1.14-10.345-.211z" opacity=".1"/><path fill="#F4EFEF" d="M149.102 146.526c-15.791 1.12-22.803-.504-27.188-2.45-5.173-2.299-3.627-16.902-10.81-28.237-6.133-9.692-10.245-13.111-16.923-11.195-1.293.363.95 0-.11.152v-1.21c-3.345-1.755-8.78-2.259-8.78-2.259.11.312.899 2.702 1.303 2.924.404.222-2.486.676-2.486.676a9.347 9.347 0 01-2.485 3.368l-2.404 14.936-5.699-13.514c-7.284-1.553-12.416-8.602-12.416-8.602a8.088 8.088 0 00-4.042 1.502c-.545-.08-1.677 2.138-2.323 2.017-4.112-1.008-18.186 1.009-25.177 15.047-2.678 5.456-6.224 19.685-6.497 28.641 0 0-1.192 23.376.809 40.924 0 0 14.538 4.033 21.358 5.526 10.628 2.521 28.682 5.466 41.17 7.382l1.182-14.028 17.973 5.385h15.014c-1.284-30.234-3.698-46.077-3.698-46.077s-4.88 25.636 12.427 23.195c6.213-.877 13.962-3.57 21.418-6.696l-1.616-17.407z"/><path fill="#E0DEDE" d="M87.807 185.575l-1.445 16.579-15.862-2.541 1.323-20.17a2.534 2.534 0 012.264-.817c1.364.273 2.717 2.804 2.717 2.804a1.828 1.828 0 011.718-.807c1.091.172 2.081 2.249 2.081 2.249a2.784 2.784 0 013.031-2.017c2.314.343 4.173 4.72 4.173 4.72zM78.521 124.592l-6.062-9.359-2.505 8.925-8.76-10.447 8.659 11.859s1.253-2.934 2.667-2.934 1.859 3.802 6.001 1.956zM80.724 124.138l2.253-9.328 4.04 5.446 1.577-6.545-1.253 8.068a2.421 2.421 0 01-3.506-.757c-1.343-2.198-3.111 3.116-3.111 3.116z"/><path fill="#E0DEDE" d="M71.823 179.484s-9.85-5.043-12.457-5.92l-7.669-2.572 3.627-21.662s-3.182 12.848-.869 15.127c2.314 2.279 7.204.232 10.103 6.565 2.9 6.334 7.265 8.462 7.265 8.462zM118.955 163.096c-7.335-7.755 6.809-11.628.515-13.534-6.294-1.906-3.971-13.402-3.971-13.402l1.374 11.274s-4.879 25.636 12.427 23.195a52.64 52.64 0 006.416-1.381c-2.728.242-10.77.191-16.761-6.152z"/><path fill="#F4EBEA" d="M81.563 101.095l.01.01-.01-.01zM166.025 144.459c-3.708.635-7.507 1.19-7.507 1.19-22.59 2.582-31.168 0-36.603-1.573-8.447-2.491-3.627-22.045-11.528-30.365-7.901-8.32-9.527-10.993-16.165-9.077-6.638 1.916-8.082-2.833-8.89-3.287.181 1.27-2.304 5.758-4.305 6.393l-1.475 5.406-5.051-5.395c-6.436-1.261-13.397-6.636-13.397-6.636-.394.817 1.01 5.314-6.314 3.479-4.112-1.008-17.024.222-22.934 14.804-12.336 30.406-4.436 64.906 5.102 72.732 5.556 4.558 63.104 12.102 63.104 12.102l.08 2.561 5.739 1.321c-.333-7.826 5.143-13.302 5.143-13.302l-5.466-1.301h15.013c-1.283-30.234-3.698-46.077-3.698-46.077s-4.88 25.636 12.427 23.195c11.77-1.664 29.067-9.812 39.402-15.127-4.971-4.629-2.677-11.043-2.677-11.043z"/><path fill="#00181B" d="M82.772 108.595c-2.25 2.25-7.007 1.473-9.105.803l3.414 4.888c1.768.374 3.995-.157 4.888-.469l.803-5.222z"/><path fill="#F4EBEA" d="M81.563 101.095l.01.01-.01-.01z"/><path fill="#292289" d="M81.563 101.095l.01.01-.01-.01z"/><path fill="#CCD2DD" d="M28.084 119.343c3.168-10.771 8.505-15.666 19.247-17.009l5.819-1.239 4.476-4.132 4.476-.448-.968 4.58s6.062 24.021 17.791 40.016l1.799 39.28 25.682 13.11-.162.162a14.107 14.107 0 00-3.718 11.043l.081 2.561-2.394-.524s-35.432-7.544-53.425-11.618c-1.496-.343-2.87-.666-4.092-1.008L23.529 189.5s-5.572-35.72 4.555-70.157z"/><path fill="#CCD2DD" d="M160.65 145.326l-2.132.323c-22.591 2.582-29.474-.741-34.647-3.031-5.173-2.289-3.1-17.468-7.161-28.199-2.238-5.912-6.798-12.235-17.73-13.324h-6.889l-5.255-3.684-3.25-.896 1.705 4.812a12.452 12.452 0 001.343 3.025l.202.121c.767.327 1.561.583 2.375.766 0 0 5.809 18.012 3.556 35.479l7.517 50.333 6.122 2.45h14.144c-1.283-30.254-1.717-27.309-1.717-27.309s-6.86 6.908 10.446 4.467c9.851-1.391 24.915-3.55 35.18-8.572-1.556-2.551-4.759-10.811-3.809-16.761z"/><path fill="#00181B" d="M75.18 123.706c.497-2.912 1.45-7.545 1.864-9.497l4.973-.791 3.729 9.18c2.088 11.776 4.848 39.728 5.967 52.232-.398 2.153-2.57 8.283-3.605 11.08-1.492-1.52-5.097-7.176-6.713-9.814-1.193-23.045-4.64-44.529-6.215-52.39z"/><path fill="#A7B1C6" d="M76.865 146.98l-.788-5.214-2.92 4.427a57.046 57.046 0 01-9.224-12.878 50.557 50.557 0 009.183 14.119l2.88-4.377.869 3.923zM93.908 145.417l1.354-5.042 3.132 3.025s2.293-8.965 1.829-16.196a45.897 45.897 0 01-1.647 17.75l-3.031-3.107-1.637 3.57zM71.924 176.801s-5.769-3.338-7.992-3.146c-2.222.191-7.435 0-7.435 0s-2.678-13.937-2.678-19.928c0 0 .606 8.25 2.758 11.537 2.152 3.288 4.517 1.916 8.265 4.871 3.748 2.955 3.334 4.7 7.082 6.666z"/><path fill="#E1E1E1" d="M164.479 162.097s.464-1.21 0-4.447l-1.698.837a22.677 22.677 0 001.698 3.61z"/><path fill="#000" d="M100.173 190.335l-3.243-21.723-3.031-20.25-1.142-7.654c.73-4.213.867-8.507.404-12.758-.616-6.151-.343-13.886-3.455-21.016 0 0 1.364 6.293.91 10.8-.284 2.834-2.395 11.366-1.011 17.951 1.384 6.586 3.688 8.229 3.243 17.276-.445 9.046-.89 23.83 7.325 37.374z" opacity=".1"/><path fill="#F4C7C3" d="M193.555 135c2.035.131 4.059.39 6.062.776 1.323.434 1.869.898 1.798 1.604-.071.706-1.485 1.25-3.284 1.21l-3.677-.081-.899-3.509z"/></svg>