<svg xmlns="http://www.w3.org/2000/svg" fill="none" viewBox="0 0 236 284"><path fill="#E1E1E1" d="M104 225c49.153 0 89-39.847 89-89s-39.847-89-89-89-89 39.847-89 89 39.847 89 89 89z"/><path fill="#CCD2DD" d="M232.519 113.03l-18.478 75.191-50.326 10.829 18.551-73.4 50.253-12.62z"/><path stroke="#000" d="M207.174 128.508l14.128-2.712M179.872 163.767L194 161.055M201.469 177.146c-1.941-3.078-4.684-8.57-.129-5.906 5.693 3.328 9.4 17.422 3.369 13.341-4.825-3.264-8.513-9.591-9.754-12.346.521 2.923 1.152 8.353-.492 6.693-1.645-1.66-2.749-5.595-3.096-7.355.033 2.214-.517 5.851-2.986 2.682-3.085-3.961-1.154-.637-3.03-1.672l-10.535-5.812M185.288 140.506l34.118-6.4M183.54 147.5l34.117-6.399m-36.046 13.857l34.118-6.399"/><path fill="#E2BBA6" d="M201 174.242c-.919 2.143-4.5 5-7 6v17c8-1.5 8.5-1.5 11.5-1.5 8 0 10.5-1 16-3.5 3.053-1.388 7-4.5 7-6.5s-1.5-5-.5-7.5.5-5-1-7-3.5-4-3.5-7.5c0-2.8-1.5-5.5-3-7l-1.5 10.5c0 3.6-2.5 7.5-9 5.5-3.5-1.077-4-3.5-4-5.5 0-2.5 2.5-8.5 1-8.5s-3.5 2-4.5 6.5 0 5.5-1.5 9zM116.176 200.985s-10.864-1.462-19.56-12.276c0 0 2.169 9.092-9.429 19.505-8.033 7.189-1.767 45.488 1.617 52.246 0 0-32.052 31.58-84.226 6.288 0 0 13.104-47.69 14.058-74.654 1.175-30.619 4.72-50.304 15.443-79.211 10.724-28.906 13.265-44.856 11.809-60.076-1.456-15.219-.723-39.05 26.107-44.806 26.83-5.758 30.003 25.792 30.003 25.792s2.37 40.341-8.184 49.583c-9.247 8.15-25.103-2.193-25.103-2.193s-3.675 18.714.583 25.322c0 0 5.874 6.719 20.383 12.496 15.153 6.008 17.583 50.064 25.616 58.134"/><path fill="#CEA999" d="M85.228 8.471c1.075 6.559 2.792 17.092 4.379 27.475-1.005-9.782-2.862-20.616-4.147-27.394l-.231-.08z"/><path fill="#E2BBA6" d="M101.977 33.833l-12.37 2.113.622 9.412c.12 5.166-.291 9.312-1.567 11.274-5.342 8.24-7.47-11.014-11.888-10.593-4.418.42-6.477 5.447-3.304 14.017 3.173 8.571-8.234 10.954-9.218 15.76-.984 4.806-8.645 31.871 0 41.133l13.245-4.006a40.02 40.02 0 01-8.194-6.398c-4.257-6.608-.582-25.322-.582-25.322s15.845 10.343 25.103 2.193a12.026 12.026 0 002.008-2.323c5.272-7.38 6.025-26.113 6.175-30.128.151-4.015-.03-17.132-.03-17.132z"/><path fill="#F3D6C6" d="M96 60.742v-28l6 10.5c0 5.166-.5 18.1-2.5 28.5-2 10.4-8.5 14-11.5 14.5 7-5.5 8-18 8-25.5z"/><path fill="#E9D694" d="M78.925 45.515c2.8 2.4 5.167 12.333 6 17-1-11.5 6.898-15.699 15.5-20 6-3 12.188-10 10-17-2.5-8-5.5-5-13-14.5s-17.79-8.526-23-6.5c-9 3.5-9.5 4.5-15 7.5-4.907 2.677-5.566 1.484-14 5.5-10.5 5-12 19.5-8.5 28s6 8 3.5 15 0 10 3.5 13.5c2.8 2.8 3.834 7.167 4 9 1.5-3 7.5-6.5 13.5-5.5s5.5-6 9.5-8.5 5.5-5 3-12 1.5-14.5 5-11.5z"/><path fill="#FAE9B1" d="M109.924 33.015c1-2 2.2-7.1-1-11.5-4-5.5-5.5-2-10.5-9s-10.5-11-21.5-9-13.5 8-24 11c-10.228 2.922-16.661 6.32-17.911 20.36a8.139 8.139 0 00-.089 1.14c.026-.388.056-.768.089-1.14.436-3.05 2.597-8.352 8.911-11.86 9-5 14.5-5 25-10.5s18-8 24.5 0 12.5 7.5 14.5 11.5 2 5 2 9z"/><path fill="#292289" d="M35.706 108.407s-4.8 4.006-9.128 16.021c-4.327 12.015 6.929-6.919 6.929-6.919l1.325-6.698.874-2.404z"/><path fill="#152D5D" d="M194.001 179.741c-15 2.5-49.227 5.34-67.231-11.892C112.894 154.572 117 146.5 103 124.5c-13.5-16.5-26-21-35.5-23.5-23.797 7.84-27 1-28-4-5.321 4.209-15.1 11-22 29-5.174 13.5-1.334 46.969-2.439 77.578-1.004 26.964-8.595 55.951-8.595 55.951 7.34 33.452 90.15-3.029 90.15-3.029.874-10.96 0-18.5 0-38v-29.791c8.696 10.834 22.251 17.022 22.251 17.022 20.555 11.785 64.134-2.531 75.134-6.129v-19.861z"/><path fill="#00181B" d="M194.418 199.602v-5.5S159 208.214 136.5 205.731c-7.5-.828-16.327-7.209-25.676-9.983-9.348-2.773-18.506-20.486-18.506-20.486-.803 18.374-1.817 30.469-3.317 49.738-1.402 18-6.39 19.082-4 33.5 9.348-3.124 11.615 3.5 11.615 3.5v-48.5-24.791c8.696 10.834 22.251 17.022 22.251 17.022 20.555 11.815 65.051-2.629 75.551-6.129z"/><path fill="#000" d="M38.678 270.313c.18 1.211.351 2.393.522 3.564-.17-1.171-.342-2.353-.522-3.564zM38.536 269.392c0-.321-.09-.641-.14-1.002.04.361.1.681.14 1.002z" opacity=".3"/><rect width="16.503" height="25.505" fill="#666A6A" rx="4" transform="scale(-1 1) rotate(15.162 -761.835 -639.71)"/><ellipse fill="#FFD300" rx="1.441" ry="1.544" transform="scale(-1 1) rotate(15.162 -788.676 -621.452)"/><path fill="#FAFAFC" d="M37.5 194.742C22.3 177.632 16.167 152.151 15 141L0 268.645 49 284l48-20.29v-38.807l-9.5-1.487c-10.333-1.828-34.8-11.564-50-28.674z"/></svg>