<svg xmlns="http://www.w3.org/2000/svg" fill="none" viewBox="0 0 236 284"><path fill="#E1E1E1" d="M104 225c49.153 0 89-39.847 89-89s-39.847-89-89-89-89 39.847-89 89 39.847 89 89 89z"/><path fill="#152D5D" d="M131.113 101.972a4 4 0 014.652-3.074l89.689 17.01a4 4 0 013.159 4.8l-13.86 62.164a4 4 0 01-4.761 3.036l-88.906-19.477a3.999 3.999 0 01-3.051-4.763l13.078-59.696z"/><path fill="#F5F5F5" d="M132.642 104.34a4 4 0 014.638-3.077l85.48 15.887a4.001 4.001 0 013.178 4.783L213.6 178.69a4 4 0 01-4.765 3.057l-84.978-18.616a4 4 0 01-3.051-4.763l11.836-54.028z"/><path fill="#fff" d="M96.586 170.789l-.428 1.954 4.335-1.098-3.907-.856z"/><path fill="#152D5D" d="M99.393 168.017l17.803-5.497a1.99 1.99 0 011.055-.034l91.016 21.778c1.922.46 2.083 3.133.23 3.821l-15.989 5.931a2.004 2.004 0 01-1.162.07l-92.828-22.213c-1.979-.473-2.069-3.255-.125-3.856z"/><path fill="#fff" d="M142.107 173.891l-7.476 3.37 22.382 5.293 6.99-3.485-21.896-5.178zM137.099 171.166l3.406.806-1.203.743-3.892-.921 1.689-.628zM132.233 170.015l3.406.806-1.203.743-3.893-.921 1.69-.628zM127.368 168.865l3.406.805-1.203.743-3.893-.92 1.69-.628zM161.915 177.034l3.892.921-1.203.743-3.893-.921 1.204-.743zM166.781 178.185l3.892.92-1.203.743-3.893-.92 1.204-.743zM171.647 179.336l3.893.92-1.204.743-3.892-.92 1.203-.743zM176.512 180.486l3.893.921-1.203.743-3.893-.92 1.203-.744zM181.378 181.637l3.893.92-1.203.743-3.893-.92 1.203-.743zM186.244 182.788l3.892.92-1.203.743-3.893-.92 1.204-.743zM141.452 170.14l3.406.805-1.203.743-3.893-.92 1.69-.628zM146.318 171.291l3.406.805-1.203.743-3.893-.92 1.69-.628zM151.183 172.442l3.406.805-1.203.743-3.893-.921 1.69-.627zM156.05 173.592l3.406.806-1.204.743-3.892-.921 1.69-.628zM160.916 174.743l3.406.805-1.203.743-3.893-.92 1.69-.628zM136.587 168.99l3.406.805-1.204.743-3.892-.92 1.69-.628zM131.72 167.839l3.407.805-1.204.743-3.892-.92 1.689-.628zM165.294 175.778l3.893.921-1.203.743-3.893-.921 1.203-.743zM170.161 176.929l3.892.921-1.203.743-3.893-.921 1.204-.743zM175.026 178.08l3.893.92-1.204.743-3.892-.92 1.203-.743zM179.892 179.231l3.893.92-1.204.743-3.892-.92 1.203-.743zM184.757 180.381l3.893.921-1.203.743-3.893-.921 1.203-.743zM189.624 181.532l3.892.92-1.203.743-3.893-.92 1.204-.743zM159.599 177.514l-14.458-3.419 1.342-.71 14.459 3.419-1.343.71zM141.965 172.317l3.406.805-1.204.743-3.892-.921 1.69-.627z"/><path fill="#E2BBA6" d="M201 174.242c-.919 2.143-4.5 5-7 6v17c8-1.5 8.5-1.5 11.5-1.5 8 0 10.5-1 16-3.5 3.053-1.388 7-4.5 7-6.5s-1.5-5-.5-7.5.5-5-1-7-3.5-4-3.5-7.5c0-2.8-1.5-5.5-3-7l-1.5 10.5c0 3.6-2.5 7.5-9 5.5-3.5-1.077-4-3.5-4-5.5 0-2.5 2.5-8.5 1-8.5s-3.5 2-4.5 6.5 0 5.5-1.5 9zM116.176 200.985s-10.864-1.462-19.56-12.276c0 0 2.169 9.092-9.429 19.505-8.033 7.189-1.767 45.488 1.617 52.246 0 0-32.052 31.58-84.226 6.288 0 0 13.104-47.69 14.058-74.654 1.175-30.619 4.72-50.304 15.443-79.211 10.724-28.906 13.265-44.856 11.809-60.076-1.456-15.219-.723-39.05 26.107-44.806 26.83-5.758 30.003 25.792 30.003 25.792s2.37 40.341-8.184 49.583c-9.247 8.15-25.103-2.193-25.103-2.193s-3.675 18.714.583 25.322c0 0 5.874 6.719 20.383 12.496 15.153 6.008 17.583 50.064 25.616 58.134"/><path fill="#CEA999" d="M85.228 8.471c1.075 6.559 2.792 17.092 4.379 27.475-1.005-9.782-2.862-20.616-4.147-27.394l-.231-.08z"/><path fill="#E2BBA6" d="M101.977 33.833l-12.37 2.113.622 9.412c.12 5.166-.291 9.312-1.567 11.274-5.342 8.24-7.47-11.014-11.888-10.593-4.418.42-6.477 5.447-3.304 14.017 3.173 8.571-8.234 10.954-9.218 15.76-.984 4.806-8.645 31.871 0 41.133l13.245-4.006a40.02 40.02 0 01-8.194-6.398c-4.257-6.608-.582-25.322-.582-25.322s15.845 10.343 25.103 2.193a12.026 12.026 0 002.008-2.323c5.272-7.38 6.025-26.113 6.175-30.128.151-4.015-.03-17.132-.03-17.132z"/><path fill="#F3D6C6" d="M96 60.742v-28l6 10.5c0 5.166-.5 18.1-2.5 28.5-2 10.4-8.5 14-11.5 14.5 7-5.5 8-18 8-25.5z"/><path fill="#2F2417" d="M78.925 45.515c2.8 2.4 5.167 12.333 6 17-1-11.5 6.898-15.699 15.5-20 6-3 12.188-10 10-17-2.5-8-5.5-5-13-14.5s-17.79-8.526-23-6.5c-9 3.5-9.5 4.5-15 7.5-4.907 2.677-5.566 1.484-14 5.5-10.5 5-12 19.5-8.5 28s6 8 3.5 15 0 10 3.5 13.5c2.8 2.8 3.834 7.167 4 9 1.5-3 7.5-6.5 13.5-5.5s5.5-6 9.5-8.5 5.5-5 3-12 1.5-14.5 5-11.5z"/><path fill="#2F2417" d="M90.124 67.492c-3.402-2.454-3.938-12.35-3.78-16.991l-2.364 4.72c1.135 14.914-8.821 12.035-13.941 8.732l-7.325 12.98c4.017 5.191 21.975 16.283 30.955 8.495 8.979-7.788 9.688-21.711 6.852-21.475-2.835.236-6.144 6.607-10.397 3.54z"/><path fill="#4F3C27" d="M109.924 33.015c1-2 2.2-7.1-1-11.5-4-5.5-5.5-2-10.5-9s-10.5-11-21.5-9-13.5 8-24 11c-10.228 2.922-16.661 6.32-17.911 20.36a8.139 8.139 0 00-.089 1.14c.026-.388.056-.768.089-1.14.436-3.05 2.597-8.352 8.911-11.86 9-5 14.5-5 25-10.5s18-8 24.5 0 12.5 7.5 14.5 11.5 2 5 2 9z"/><path fill="#292289" d="M35.706 108.407s-4.8 4.006-9.128 16.021c-4.327 12.015 6.929-6.919 6.929-6.919l1.325-6.698.874-2.404z"/><path fill="#152D5D" d="M194.001 179.741c-15 2.5-48.997 8.991-67.001-8.241-13.876-13.277-10-25-24-47-13.5-16.5-26-21-35.5-23.5-23.797 7.84-27 1-28-4-5.321 4.209-15.1 11-22 29-5.174 13.5-1.334 46.969-2.439 77.578-1.004 26.964-8.595 55.951-8.595 55.951 7.34 33.452 90.15-3.029 90.15-3.029.874-10.96 0-18.5 0-38v-29.791c8.696 10.834 22.251 17.022 22.251 17.022 20.555 11.785 64.134-4.99 75.134-8.588v-17.402z"/><path fill="#00181B" d="M194 197.241v-5.5s-35 16.473-57.5 13.99c-7.5-.828-16.327-7.209-25.676-9.983-9.348-2.773-18.506-20.486-18.506-20.486-.803 18.374-1.817 30.469-3.317 49.738-1.402 18-6.39 19.082-4 33.5 9.348-3.124 11.615 3.5 11.615 3.5v-48.5-24.791c8.696 10.834 22.251 17.022 22.251 17.022 20.555 11.815 64.633-4.99 75.133-8.49z"/><path fill="#000" d="M38.678 270.313c.18 1.211.351 2.393.522 3.564-.17-1.171-.342-2.353-.522-3.564zM38.536 269.392c0-.321-.09-.641-.14-1.002.04.361.1.681.14 1.002z" opacity=".3"/><path fill="#fff" d="M37.5 194.742C22.3 177.632 16.167 152.151 15 141L0 268.645 49 284l48-20.29v-38.807l-9.5-1.487c-10.333-1.828-34.8-11.564-50-28.674z"/><path fill="#E1E1E1" d="M152.072 104.083l-13.747 61.971 51.497 11.783 15.056-63.935-52.806-9.819z"/><path fill="#666A6A" d="M153.533 110.268l.766-2.95 2.153.467-.798 2.927-2.121-.444z"/><path fill="#00181B" d="M157.703 111.069l.766-2.951 2.204.527-.798 2.927-2.172-.503z"/><path stroke="#000" d="M163.916 109.799l12.775 2.425M163.244 111.901l19.559 4.079"/><path fill="#CCD2DD" d="M166.854 120.809l2.58.6-.824 3.537-2.579-.6zM165.805 125.417l2.58.6-.824 3.537-2.579-.6zM170.388 121.651l2.58.6-.824 3.537-2.579-.6zM169.338 126.259l2.58.6-.824 3.537-2.579-.6zM173.922 122.501l2.58.6-.824 3.537-2.579-.6zM172.871 127.108l2.58.6-.824 3.537-2.579-.6zM177.566 123.349l2.58.6-.824 3.537-2.579-.6zM176.516 127.957l2.58.6-.824 3.537-2.579-.6zM181.155 124.198l2.58.6-.824 3.537-2.579-.6zM180.104 128.806l2.58.6-.824 3.537-2.579-.6zM184.886 125.126l2.58.6-.824 3.537-2.579-.6zM183.835 129.734l2.58.6-.824 3.537-2.579-.6zM188.609 126.038l2.58.6-.824 3.537-2.579-.6zM187.559 130.646l2.58.6-.824 3.537-2.579-.6zM192.199 126.885l2.58.6-.824 3.537-2.579-.6zM191.148 131.493l2.58.6-.824 3.537-2.579-.6z"/><path stroke="#000" d="M152.551 119.826l10.616 2.506m-11.737.857l8.044 1.714"/><path fill="#CCD2DD" d="M179.454 141.78l8.481 1.974-.822 3.536-8.482-1.973z"/><path stroke="#000" d="M149.423 134.682l11.036 2.606m-11.737.857l20.796 4.699"/><path fill="#CCD2DD" d="M173.435 163.197l8.481 1.974-.822 3.536-8.482-1.973z"/><path stroke="#000" d="M144.227 156.742l11.036 2.606m-11.738.857l20.797 4.699"/><path fill="#CCD2DD" d="M176.69 152.016l8.481 1.974-.822 3.536-8.482-1.973z"/><path stroke="#000" d="M146.826 145.317l11.085 2.621m-11.737.857l15.677 3.756"/></svg>