<svg xmlns="http://www.w3.org/2000/svg" fill="none" viewBox="0 0 225 225"><path fill="#E1E1E1" d="M41.367 87.512c0-40.263 32.64-72.903 72.903-72.903 40.263 0 72.903 32.64 72.903 72.903V190.95H41.367V87.512z"/><ellipse cx="168.444" cy="88.579" fill="#FAFAFC" rx="18.226" ry="17.161"/><ellipse cx="59.089" cy="88.579" fill="#FAFAFC" rx="18.226" ry="17.161"/><ellipse cx="95.542" cy="88.579" fill="#FAFAFC" rx="18.226" ry="17.161"/><ellipse cx="131.991" cy="88.579" fill="#FAFAFC" rx="18.226" ry="17.161"/><path fill="#FAFAFC" d="M40.863 89.168h147.021v106.514H40.863z"/><path fill="#E1E1E1" d="M111.336 64.316h3.645v87.578h-3.645z"/><path fill="#E1E1E1" d="M121.057 164.913c-8.262 0-10.125-8.679-9.72-13.019l3.645-.027c-.178 3.353.789 9.495 6.075 9.495 5.287 0 5.645-5.325 5.468-8.284h3.037c.406 3.945-.243 11.835-8.505 11.835z"/><path fill="#E1E1E1" d="M125.527 102.875l62.044 27.71v81.284h-62.044V102.875z"/><path fill="#fff" d="M178.707 154.546v-3.237h-45.791v3.237h45.791zM178.707 143.753v-3.237h-45.791v3.237h45.791zM178.707 197.71v-3.237h-45.791v3.237h45.791zM178.707 186.921v-3.237h-45.791v3.237h45.791zM178.707 176.128v-3.237h-45.791v3.237h45.791zM178.707 165.335v-3.237h-45.791v3.237h45.791z"/><path fill="#152D5D" d="M120.242 97.998a3.046 3.046 0 013.99-1.15l68.35 34.992a2.883 2.883 0 011.174 4.055 3.047 3.047 0 01-3.99 1.151l-68.35-34.993a2.883 2.883 0 01-1.174-4.055zM102.91 83.453l-62.044 32.648v95.771h62.044V83.453z"/><path fill="#0C2048" d="M63.48 188.133h17.727v23.741H63.48z"/><path fill="#FF8139" d="M93.398 122.16h-8.515v12.955h8.515V122.16zM76.367 122.16h-8.515v12.955h8.515V122.16zM59.336 122.16H50.82v12.955h8.516V122.16zM93.398 142.18h-8.515v12.954h8.515V142.18zM76.367 142.18h-8.515v12.954h8.515V142.18zM59.336 142.18H50.82v12.954h8.516V142.18zM93.398 162.203h-8.515v12.955h8.515v-12.955zM76.367 162.203h-8.515v12.955h8.515v-12.955zM59.336 162.203H50.82v12.955h8.516v-12.955z"/><rect width="86.112" height="5.928" fill="#152D5D" rx="2.964" transform="matrix(-.87163 .49017 .5099 .86023 107.059 75.93)"/><path fill="#081B42" d="M113.029 201.331s-12.32 0-12.32-11.22c0-11.219 7.767-14.35 6.16-22.568-1.607-8.219 4.821-16.308 13.661-11.35 8.84 4.957 1.99 21.96 5.088 27.135 3.099 5.175 4.016 18.786-12.589 18.003z"/><path fill="#00181B" fill-rule="evenodd" d="M115.098 154.677c2.237 1.874 3.97 5.184 2.717 10.555-2.52 10.803-.756 15.222 1.512 19.15 2.254 3.905-1.219 18-17.104 11.654 3.307 5.295 10.775 5.295 10.775 5.295 16.604.783 15.688-12.828 12.589-18.003-1.179-1.969-.918-5.65-.628-9.728.471-6.641 1.017-14.336-4.46-17.407-1.936-1.086-3.756-1.546-5.401-1.516z" clip-rule="evenodd"/><path fill="#152D5D" d="M115.137 192.957h-1.755v19.378h1.755z"/></svg>