<svg xmlns="http://www.w3.org/2000/svg" fill="none" viewBox="0 0 216 206"><path fill="#E1E1E1" d="M108.686 180.638s28 .38 38.95-34.25c12.67-40.04-19.71-57.35 7.36-87.35 27.07-30-20.17-74-86.91-54-78.31 23.55-116.78 179.07 40.6 175.6z"/><path fill="#D6C589" d="M56.505 22.128s-.44-16.38-14.28-10.42c-8.54 3.67-6.14 6.88-21.1 11.67-9.57 3.07-2.21 11.53-1.84 18.66.37 7.13-2.08 12.55 4.87 16.16 4.89 2.54 7.46-1.62 23.29.51 15.83 2.13 9.06-36.58 9.06-36.58z"/><path fill="#D6AA96" d="M141.887 193.587l4.54 3.63-12.39-4.09-.33-2.4 8.18 2.86z"/><path fill="#E2BBA6" d="M133.887 152.109c-15.87-33.82-20-40.43-24.3-47.19-4.3-6.76-13.3-11-19.65-7.66-6.7 3.54-10.54-.61-10.54-.61l-.6-1.09c-1.91-4.86-.57-9-.59-12.13a19.53 19.53 0 009.19-.06c17.15-4.68 4.66-49.55 4.66-49.55-4.7-12.51-36.07-2.53-40 4.46-3.8 6.74-1.69 16-1.69 16-3.91-.18-4.33 3-4.33 3-.8 6.76 9.96 12.4 9.96 12.4l1.84.55c6.57 13.34 5 20.38 3.4 24.06-.37.76-2.36 4.54-5.63 3-3.61-1.63-16.09-1.33-19.84 11.23-7.05 23.54-5.3 67 .32 70.81 5.62 3.81 59.39 11.36 59.39 11.36l5.7 1.25 6.7 1.47c4.43 1 19.49 10 26.63 10.58 7.14.58 14.91 1.54 16.37 1.23a1.102 1.102 0 001.007-1.071 1.1 1.1 0 00-.117-.519s1.9 1.14 2.49 0a1.507 1.507 0 00-.59-1.9c.44-.12 1.19-1.16-.3-1.91s-8.79-3.18-11.41-4.3c-2.62-1.12-8.41-3.18-6.66-3 3.031.36 6.036.904 9 1.63 1.07.44 4 2.13 4.83 2.51.886.442 1.845.72 2.83.82.56-.07.65-.78.26-1.42-.39-.64-8.2-5.64-9.44-6.13-1.24-.49-7.44-2.55-8.58-2.42-1.14.13-8.57.63-10.31.47-1.74-.16-2.71-1.19-4.28-.87-.858.19-1.731.304-2.61.34l-3.57-1.49-12-5-.82-.35h8.09l.12-9.48c.1-7.56 3.2-11.45 5-16.55a119.51 119.51 0 008.43 11.46 11.46 11.46 0 007.84 4.08"/><path fill="#D6AA96" d="M89.897 82.23c3.9-3.88 1.61-14.79 2.37-18.72.76-3.93-2.38-6.47-2.22-16.47.11-7.47-4.58-15.43-7-19 4.29.54 7.68 2.28 9 5.77.01.01 10.8 40-2.15 48.42zM75.787 97.688c-1.38-1.28-1.21-15.2-1.21-15.2l3.63.94c.08 2-1.32 7.27.59 12.13l.6 1.09a7.6 7.6 0 006.83 1.79.28.28 0 01-.12 0c-3.28.76-8.95.52-10.32-.75z"/><path fill="#FF8139" d="M153.847 156.038c-10.07-2-20-4-20-4-15.87-33.82-20-40.43-24.3-47.19-4.3-6.76-13.3-11-19.65-7.66-4.09 2.16-7.1 1.46-8.84.58 2.3 2.41 4.05 5.29 5.13 8.44 1.35 5.79-3.16 18.1-3.16 18.1s-13.93-10.69-18.61-13.21c-4.68-2.52-7.14-13.5-7.14-13.5a3.48 3.48 0 01-1.74-.34c-3.54-1.6-16.02-1.3-19.77 11.26-7.05 23.54-5.3 67 .32 70.81 3.94 2.65 31.62 7.18 47.76 9.64l5.82-13.07 11.11 4.74h7.91l.12-9.48c.1-7.56 3.2-11.45 5-16.55a119.248 119.248 0 008.44 11.43 11.435 11.435 0 003.511 2.827 11.424 11.424 0 004.329 1.253c3.63.33 12.61.28 21.59.11l2.17-14.19z"/><path fill="#E9D694" d="M85.414 31.907s1.24 9.8-10.85 11.81-17.12 3.69-20.13 9.38c-3.01 5.69-4.08 1.17-4.08 1.17s-5.6 2.81 0 9.11c5.6 6.3 9.77 3.88 11.53 17.86 0 0-3-4.18-6.94-3.93-3.94.25-9 1.25-10.94-6-1.94-7.25.49-9.7-5.73-12.44-6.22-2.74.75-5.72 0-9.2-.75-3.48-7.45-13.94-2.6-20.16 4.85-6.22 17-3.73 18.28-10.45 1.28-6.72 8.71-13.93 17.91-8.7s9.66 10.97 20.63 12.96c10.97 1.99 11.31 15.61 1.69 20.12a25.89 25.89 0 00-8.77-11.53z"/><path fill="#E2BBA6" d="M153.846 156.04s13.89 3.21 16.57 3.21c2.68 0 2.44-2 4.59-3.48s7.66-1.74 9.27-1.74c1.61 0 5-1.87 5.78-1.21 1.56 1.32-4.05 4.42-5.4 5.13 0 0 9.83-1.37 11.71-1.37 1.88 0 4.3-3.49 5.78-3.83 1.48-.34 1.75.54 1.75.54s1.52-1.86 2.45-1.46c.93.4 1.06 1.33 0 2.79 0 0 1.79.66-.26 3.25s-2.79 3.45-2.79 3.45 1 .86-.4 2.25a24.9 24.9 0 01-11.07 5.17c-4.51.67-40.15 1.49-40.15 1.49l2.17-14.19z"/><path fill="#D3662F" d="M186.408 166.466c4.643 0 8.408-2.45 8.408-5.471 0-3.022-3.765-5.472-8.408-5.472-4.644 0-8.408 2.45-8.408 5.472 0 3.021 3.764 5.471 8.408 5.471z"/><path fill="#FF8139" d="M186.408 164.411c4.643 0 8.408-2.449 8.408-5.471 0-3.022-3.765-5.471-8.408-5.471-4.644 0-8.408 2.449-8.408 5.471 0 3.022 3.764 5.471 8.408 5.471z"/><path fill="#FF8139" stroke="#FF8139" d="M201.161 159.965l2.14-1.667 3.949.93 2.408-4.349L188 158.078l2.089 3.557 7.058-1.019 1.517-2.005 2.497 1.354z"/><path stroke="#FF8139" stroke-miterlimit="10" stroke-width="3.091" d="M189.281 155.972l23.508-20.031"/><path fill="#D3662F" d="M183.132 162.424c2.282 2.548 5.476 3.41 7.134 1.925 1.657-1.485 1.152-4.754-1.13-7.302s-5.476-3.41-7.134-1.925c-1.658 1.485-1.152 4.754 1.13 7.302z"/><path fill="#FF8139" d="M184.261 161.412c2.282 2.548 5.476 3.41 7.133 1.925 1.658-1.485 1.153-4.754-1.129-7.302s-5.476-3.409-7.134-1.924c-1.658 1.485-1.152 4.754 1.13 7.301zM209.886 139.125l5.61 3.941-6.46 5.193-5.997-4.003 6.847-5.131z"/><path fill="#D3662F" d="M187.402 162.911c3.103-2.026 4.549-5.306 3.23-7.325-1.319-2.019-4.903-2.013-8.006.014-3.103 2.026-4.549 5.306-3.23 7.325 1.319 2.02 4.903 2.013 8.006-.014z"/><path fill="#FF8139" d="M186.504 161.54c3.103-2.026 4.549-5.306 3.23-7.325-1.319-2.02-4.904-2.013-8.007.014-3.102 2.026-4.548 5.306-3.229 7.325 1.318 2.019 4.903 2.013 8.006-.014z"/><path stroke="#FF8139" stroke-miterlimit="10" stroke-width="3.091" d="M184.743 154.646l6.965-23.645"/><path fill="#FF8139" d="M191.157 134.394l5.469.185-2.05 6.29-5.754-.057 2.335-6.418z"/><path fill="#D3662F" d="M53.906 136.316s-1.95 18.21 0 23.4c1.95 5.19 18.85 10.54 18.85 10.54s-10.11-5-11.49-9.23a19.297 19.297 0 00-4.07-7.74c-2.38-3.2-3.29-16.97-3.29-16.97zM113.836 154.609s4.23-8.16 0-20.5l5.52 19.18c2.59 9 8.33 9.51 10.91 9.67 2.58.16 10.63 1.43 14.08 3.23 3.45 1.8 7.81.94 7.81.94l-.48 3.13-14.19.13c-1 0-5.61-.17-7-.13a12.166 12.166 0 01-8.29-4.19c-2.66-3.28-8.36-11.46-8.36-11.46z"/></svg>