<svg xmlns="http://www.w3.org/2000/svg" fill="none" viewBox="0 0 226 226"><path fill="#E1E1E1" d="M226 135.821c0-23.604-7.591-46.242-21.102-62.932-13.512-16.691-31.837-26.068-50.945-26.068H72.047c-19.108 0-37.433 9.377-50.945 26.068C7.591 89.579 0 112.217 0 135.82c0 23.605 7.59 46.242 21.102 62.933 13.512 16.691 31.837 26.067 50.945 26.067h81.906c19.108 0 37.433-9.376 50.945-26.067C218.409 182.063 226 159.426 226 135.821z"/><path fill="#152D5D" d="M28.303 210.209V64.887l54.156 3.626h114.264v142.313s-16.513 14.333-51.733 14.333H80.18c-39.906 0-51.877-14.95-51.877-14.95z"/><path fill="#152D5D" d="M28.295 64.89l113.913.046 54.596 3.658H82.714l-54.42-3.705z"/><path fill="#00181B" d="M82.382 225.234V68.57L28.31 64.89v145.345s6.345 7.077 22.253 11.689c15.908 4.612 31.82 3.311 31.82 3.311z"/><ellipse cx="130.285" cy="86.921" fill="#fff" rx="6.109" ry="5.927"/><path fill="#E1E1E1" d="M126.946 88.618l5.384-5.383c-1.447.83-1.604-.114-2.68.213-.546.166-3.045 2.273-2.737 3.196.145.434.194.664.238.986.042.306-.117.836-.205.988zM134.69 85.594l-5.384 5.384c1.447-.83 1.604.113 2.68-.214.545-.166 3.045-2.272 2.737-3.195a4.681 4.681 0 01-.238-.987c-.043-.305.117-.835.205-.988z"/><path fill="#000" d="M133.912 84.353a.15.15 0 10-.212-.212l.212.212zm-1.52 1.095a.15.15 0 10.212.212l-.212-.212zm1.308-1.308l-1.308 1.308.212.213 1.308-1.308-.212-.213z"/><path fill="#E1E1E1" fill-rule="evenodd" d="M135.543 83.9a6.17 6.17 0 00-4.771-2.225c-3.375 0-6.11 2.654-6.11 5.927 0 1.103.311 2.136.852 3.02a5.795 5.795 0 01-1.338-3.701c0-3.274 2.735-5.928 6.109-5.928 2.237 0 4.194 1.167 5.258 2.907z" clip-rule="evenodd"/><ellipse cx="157.57" cy="86.92" fill="#fff" rx="6.109" ry="5.927"/><path fill="#E1E1E1" d="M156.564 90.961v-7.613c-.436 1.61-1.215 1.054-1.744 2.046-.268.503-.547 3.76.324 4.194.41.205.607.333.866.53.246.186.508.673.554.843zM159.9 83.348v7.613c.436-1.61 1.214-1.054 1.744-2.046.268-.503.547-3.76-.324-4.195a4.753 4.753 0 01-.866-.529c-.246-.186-.508-.673-.554-.843z"/><path fill="#000" d="M158.473 83.02a.15.15 0 10-.3 0h.3zm-.3 1.85a.15.15 0 10.3 0h-.3zm0-1.85v1.85h.3v-1.85h-.3z"/><path fill="#E1E1E1" fill-rule="evenodd" d="M163.36 88.852a5.764 5.764 0 00.332-1.932c0-3.273-2.735-5.927-6.109-5.927-2.932 0-5.382 2.004-5.974 4.677.826-2.325 3.101-3.995 5.778-3.995 3.374 0 6.109 2.654 6.109 5.927 0 .43-.047.847-.136 1.25z" clip-rule="evenodd"/><ellipse cx="181.297" cy="86.92" fill="#fff" rx="6.109" ry="5.927"/><path fill="#E1E1E1" d="M180.45 90.961v-7.613c-.437 1.61-1.215 1.054-1.744 2.046-.269.503-.547 3.76.324 4.194.41.205.607.333.866.53.246.186.508.673.554.843zM183.787 83.348v7.613c.436-1.61 1.214-1.054 1.744-2.046.268-.503.546-3.76-.325-4.195a4.824 4.824 0 01-.866-.529c-.245-.186-.508-.673-.553-.843z"/><path fill="#000" d="M182.359 83.02a.15.15 0 10-.3 0h.3zm-.3 1.85a.15.15 0 10.3 0h-.3zm0-1.85v1.85h.3v-1.85h-.3z"/><path fill="#E1E1E1" fill-rule="evenodd" d="M186.556 83.902a6.167 6.167 0 00-4.772-2.227c-3.375 0-6.11 2.654-6.11 5.927 0 1.103.31 2.135.85 3.019a5.796 5.796 0 01-1.336-3.701c0-3.274 2.735-5.927 6.109-5.927 2.238 0 4.195 1.167 5.259 2.909z" clip-rule="evenodd"/><ellipse cx="76.894" cy="64.904" fill="#fff" rx="17.715" ry=".659"/><ellipse cx="76.894" cy="63.586" fill="#fff" rx="17.715" ry=".659"/><path fill="#fff" d="M59.174 64.903v-1.317l35.425.007v1.31H59.174z"/><ellipse cx="127.393" cy="64.834" fill="#fff" rx="17.715" ry=".659"/><ellipse cx="127.393" cy="63.516" fill="#fff" rx="17.715" ry=".659"/><path fill="#fff" d="M109.674 64.833v-1.318l35.425.007v1.31h-35.425z"/><ellipse cx="101.367" cy="67.401" fill="#fff" rx="17.715" ry=".659"/><ellipse cx="101.367" cy="66.083" fill="#fff" rx="17.715" ry=".659"/><path fill="#fff" d="M83.647 67.4v-1.317l35.426.007v1.31H83.648z"/><ellipse cx="151.866" cy="67.331" fill="#fff" rx="17.715" ry=".659"/><ellipse cx="151.866" cy="66.012" fill="#fff" rx="17.715" ry=".659"/><path fill="#fff" d="M134.146 67.33v-1.318l35.426.007v1.31h-35.426z"/><ellipse cx="98.897" cy="86.92" fill="#fff" rx="6.109" ry="5.927"/><path fill="#E1E1E1" fill-rule="evenodd" d="M104.156 83.902a6.17 6.17 0 00-4.773-2.227c-3.374 0-6.11 2.654-6.11 5.927 0 1.102.31 2.134.85 3.018a5.793 5.793 0 01-1.336-3.7c0-3.274 2.735-5.927 6.11-5.927 2.238 0 4.195 1.167 5.259 2.909z" clip-rule="evenodd"/><path fill="#E1E1E1" d="M97.873 90.961v-7.614c-.436 1.61-1.214 1.054-1.744 2.047-.268.503-.546 3.76.325 4.194.41.205.606.333.866.53.246.186.508.673.553.843zM101.21 83.347v7.614c.436-1.61 1.214-1.054 1.743-2.046.269-.503.547-3.76-.324-4.195a4.788 4.788 0 01-.866-.529c-.246-.186-.508-.673-.553-.844z"/><path fill="#000" d="M99.783 83.02a.15.15 0 10-.3 0h.3zm-.3 1.849a.15.15 0 10.3 0h-.3zm0-1.85v1.85h.3v-1.85h-.3z"/><path fill="#CCD2DD" d="M96.071 118.804v75.117h86.581v-75.117h-86.58z"/><path fill="#B9C0CD" d="M159.9 118.804v75.117h22.752v-75.117H159.9z"/><path stroke="#fff" stroke-width="7" d="M103.796 128.647h72.652"/><path fill="#E1E1E1" d="M101.719 130.17l2.087.869v-4.684h72.619l-2.093-1.354h-72.613v5.169zM61.142 63.52c-.924-2.154-.385-4.585 0-5.53h.962c-.5 2.346.56 4.664 1.154 5.53-1.116.231-1.876.096-2.116 0zM92.775 63.52c.924-2.155.385-4.585 0-5.53h-.962c.5 2.346-.56 4.664-1.154 5.53 1.116.23 1.876.096 2.116 0zM83.418 63.83c1.685-1.74 1.515-4.351 1.22-5.44h1.182c.946 2.55.64 4.689.37 5.44h-2.772zM70.054 63.843c-1.685-1.74-1.516-4.35-1.22-5.439h-1.183c-.945 2.549-.64 4.688-.369 5.44h2.772z"/><path fill="#E1E1E1" d="M85.543 66.119c-.923-2.155-.385-4.585 0-5.53h.962c-.5 2.346.561 4.664 1.154 5.53-1.116.23-1.876.096-2.116 0zM117.178 66.119c.923-2.155.384-4.585 0-5.53h-.962c.5 2.346-.561 4.664-1.154 5.53 1.115.23 1.875.096 2.116 0zM107.819 66.429c1.685-1.74 1.516-4.351 1.22-5.44h1.183c.946 2.55.64 4.689.369 5.44h-2.772zM94.455 66.442c-1.685-1.74-1.515-4.351-1.22-5.439h-1.182c-.946 2.549-.64 4.688-.37 5.44h2.772zM111.373 63.593c-.923-2.154-.385-4.585 0-5.53h.962c-.5 2.346.561 4.665 1.154 5.53-1.116.231-1.875.096-2.116 0zM143.007 63.593c.923-2.154.384-4.585 0-5.53h-.962c.5 2.346-.561 4.665-1.154 5.53 1.115.231 1.875.096 2.116 0zM133.648 63.904c1.686-1.741 1.516-4.352 1.22-5.44h1.183c.946 2.549.64 4.688.369 5.44h-2.772z"/><path fill="#E1E1E1" d="M120.285 63.917c-1.685-1.74-1.515-4.352-1.22-5.44h-1.182c-.946 2.55-.641 4.689-.37 5.44h2.772zM137.437 66.12c-.924-2.155-.385-4.586 0-5.532h.961c-.5 2.347.562 4.665 1.155 5.531-1.116.231-1.876.096-2.116 0zM169.071 66.12c.924-2.155.385-4.586 0-5.532h-.962c.5 2.347-.561 4.665-1.154 5.531 1.116.231 1.876.096 2.116 0zM159.713 66.43c1.685-1.741 1.515-4.352 1.22-5.44h1.182c.946 2.549.641 4.688.37 5.44h-2.772zM146.35 66.443c-1.686-1.74-1.516-4.352-1.22-5.44h-1.183c-.946 2.55-.64 4.689-.369 5.44h2.772z"/><path fill="#152D5D" d="M119.765 61.987c1.301 2.707 4.68 3.704 7.481 3.367 2.015-.242 5.009-2.02 5.009-5.454 0-3.123-2.049-5.016-3.303-6.979-1.706-2.67-1.662-4.792-1.706-5.963-3.434 3.435-4.727 8.37-4.944 10.409-1.145-.573-2.168-1.8-2.537-2.342-.542 1.28-1.301 4.256 0 6.962z"/><path fill="#FAFAFC" d="M123.146 62.394c.182 1.874 1.656 2.644 2.775 2.644 1.118 0 2.862-.356 2.895-2.769.034-2.413-1.959-4.379-2.895-5.122-1.075.909-2.974 3.188-2.775 5.247z"/><path fill="#CCD2DD" fill-rule="evenodd" d="M148.808 31.535c-.621-.516-10.851-.926-23.379-.926s-22.758.41-23.379.926h-.038v26.708h.053c.748.511 10.923.915 23.364.915 12.442 0 22.616-.404 23.365-.915h.105V31.535h-.091z" clip-rule="evenodd"/><path fill="#666A6A" d="M70.514 36.92V35.17l8.24 1.019 29.659-.057v1.936H78.778l-8.264-1.15z"/><path fill="#CCD2DD" d="M70.458 35.181h35.445l9.533 1.01H78.769l-8.311-1.01z"/><ellipse fill="#666A6A" rx="22.606" ry=".906" transform="matrix(1 0 0 -1 125.318 31.906)"/><path fill="#152D5D" d="M110.207 62.255c.957 1.99 3.442 2.724 5.502 2.476 1.482-.178 3.684-1.486 3.684-4.011 0-2.297-1.507-3.69-2.429-5.133-1.255-1.964-1.223-3.525-1.255-4.386-2.526 2.526-3.476 6.156-3.636 7.655-.842-.42-1.595-1.323-1.866-1.722-.399.94-.957 3.13 0 5.12z"/><path fill="#FAFAFC" d="M112.694 62.554c.134 1.378 1.218 1.945 2.041 1.945s2.105-.262 2.13-2.037c.024-1.775-1.442-3.22-2.13-3.768-.791.669-2.187 2.345-2.041 3.86z"/><path fill="#152D5D" d="M139.872 61.976c-.957 1.99-3.442 2.724-5.502 2.476-1.482-.178-3.684-1.485-3.684-4.011 0-2.297 1.507-3.69 2.429-5.133 1.255-1.964 1.223-3.525 1.255-4.386 2.526 2.527 3.477 6.157 3.636 7.656.842-.421 1.595-1.324 1.866-1.723.399.941.957 3.13 0 5.121z"/><path fill="#FAFAFC" d="M137.385 62.275c-.134 1.379-1.218 1.945-2.041 1.945s-2.105-.262-2.13-2.037c-.024-1.775 1.442-3.22 2.13-3.767.791.668 2.188 2.345 2.041 3.859z"/><path fill="#E1E1E1" d="M122.538 17.696c2.327 2.75 2.556 5.2 2.38 6.082.397-.793 1.164-2.883 1.058-4.892-.132-2.512-1.792-3.796.544-8.38 2.159-4.236-.192-7.002-1.602-8.016 1.19 1.983.661 5.157-1.19 6.743-1.851 1.587-4.099 5.025-1.19 8.463z"/></svg>