<svg xmlns="http://www.w3.org/2000/svg" fill="none" viewBox="0 0 225 225"><path fill="#E1E1E1" d="M112.95 183.91c39.185 0 70.95-31.765 70.95-70.95s-31.765-70.95-70.95-70.95S42 73.775 42 112.96s31.765 70.95 70.95 70.95z"/><path fill="#FF8139" d="M71.693 144.205c-2.262 3.414 18.885 49.626 18.885 49.626s4.127 2.719 26.588 2.719c22.815 0 27.02-2.719 27.02-2.719s19.358-46.924 17.125-49.626c-2.233-2.702-28.716-5.202-44.145-5.202-15.429 0-43.204 1.78-45.473 5.202z"/><path fill="#E26630" d="M145.94 160.887c9.726-3.89 14.319-11.077 15.4-14.184-4.863 17.507-13.373 38.634-17.021 47.01-14.987 4.783-38.261 2.901-48.533 1.296a5.093 5.093 0 01-.503-.08l.503.08c5.989.652 19.875-7.651 23.813-17.101 4.052-9.726 14.184-12.158 26.341-17.021z"/><path fill="#fff" d="M159.059 145.487c0 2.241-30.576 4.053-41.93 4.053s-40.742-1.812-40.742-4.053c0-2.24 29.381-4.052 40.742-4.052 11.361 0 41.93 1.812 41.93 4.052z"/><path fill="#00181B" d="M112.709 146.298c.676-9.051 1.621-27.315 0-32.826-1.621-5.512-19.857-19.858-38.904-34.042 16.615 8.916 28.125 19.696 30.394 20.668 2.837 1.216 8.51-23.91 8.51-31.61 0-5.773-5.458-12.235-8.701-15.247-.218-.193-.425-.38-.62-.558.195.17.402.356.62.558 3.243 2.88 8.701 7.142 8.701 4.71v-31.61c0-3.241 10.267-18.911 15.4-26.341-3.377 5.809-10.456 18.318-11.752 21.884-1.621 4.458-2.027 3.647-2.027 12.563v31.205c0 2.026 0 6.079-.81 10.536 6.079-5.808 20.263-19.128 28.368-25.936-7.638 7.16-24.004 23.424-28.368 31.205-1.351 3.512-4.134 11.59-4.458 15.805-.405 5.268 7.295 12.563 7.295 14.994v34.042h-3.648z"/><path fill="#24AD79" d="M96.094 30.394c11.023 1.621 15.67 9.861 16.616 13.779l-9.726 4.863c-1.945-7.457-10.537-10.402-14.59-10.942l7.7-7.7zm24.316 0c-.324 5.187-3.918 7.295-5.674 7.7l5.674 9.32c1.756-.675 5.43-3.322 6.079-8.51.648-5.187 2.972-7.835 4.052-8.51l-7.7-8.915c-.675.81-2.107 3.728-2.431 8.915zm8.51-21.479c-3.89 9.078-12.157 14.725-14.184 14.995l-7.7-7.295c6.16-2.27 12.023-11.347 12.563-14.184l9.321 6.484z"/><path fill="#237556" d="M119.599 15.805c-1.621 1.621-3.242 2.634-4.458 1.621-1.62-1.35-.066-3.694.811-4.863 1.216-1.621 3.647-3.242 4.863-2.026.982.981.811 3.242-1.216 5.268zm.405 21.884c.324-2.918 2.297-4.998 3.242-5.674 2.026-1.216 2.026.81 2.026 1.621 0 .81-.533 3.008-1.621 4.458-1.216 1.621-4.052 3.242-3.647-.405zm-18.205 2.992c-2.628-1.842-3.884-3.844-3.705-4.698.448-2.136 3.178-1.595 5.295-.32 1.318.921 2.347 1.997 2.99 2.98 1.688 2.584-1.295 4.342-4.58 2.038z"/><path fill="#24AD79" d="M129.278 96.046c-10.68 1.473-16.846 8.289-18.594 11.513l7.151 8.75c4.959-7.369 13.509-9.825 17.164-10.132l-5.721-10.131zm4.9-81.424c-7.457-1.297-14.724 2.431-17.426 4.458l2.837 8.105c5.835-3.89 14.589-4.593 18.236-4.458l-3.647-8.105z"/><path fill="#237556" d="M127.695 17.459c-1.621.324-2.837 1.08-3.242 1.62-2.026 2.432 2.179 3.057 4.053 2.432.909-.303 2.669-.712 3.242-2.431.405-1.216-1.337-2.164-4.053-1.621z"/><path fill="#24AD79" d="M100.552 59.978c8.429 6.16 10.807 16.075 10.942 20.263l9.726-7.295c-1.621-10.374-7.16-16.75-9.726-18.642l-10.942 5.674zM87.99 96.046c5.835 5.511 14.048 5.538 17.425 4.863l1.216-10.942c-10.05.972-15.805-3.647-17.426-6.079l-1.216 12.158z"/><path fill="#237556" d="M96.905 97.261c-2.687-.671-3.647-2.701-3.647-3.647 0-1.216 2.026-2.837 5.268-1.62 3.242 1.215 3.242 2.836 3.242 3.647 0 .81-1.621 2.431-4.863 1.62z"/><path fill="#24AD79" d="M89.205 64.436C82.073 69.947 80.83 79.16 81.1 83.077l11.347 6.08c-1.945-9.078 3.242-15.67 5.674-18.237l-8.916-6.484z"/><path fill="#237556" d="M85.557 74.972c-.93 2.17-.81 4.053.406 4.864 1.215.81 2.836 0 4.052-2.837 1.216-2.837.405-4.458-.405-4.864-.81-.405-2.837 0-4.053 2.837z"/><path fill="#24AD79" d="M58 89.562c10.375.972 17.561-3.918 19.858-6.484l5.268 10.941c-8.754 7.133-18.237 8.106-21.884 7.7L58 89.562z"/><path fill="#237556" d="M66.128 94.059c.324-1.946 3.377-2.702 4.863-2.837 4.863-.405 4.863 2.431 2.431 4.052-2.431 1.621-7.7 1.216-7.294-1.215z"/><path fill="#24AD79" d="M72.939 56.33c5.598 10.362 3.629 19.988 1.944 23.505l-10.886-1.439c2.799-7.675-.13-16.31-1.944-19.667l10.886-2.398z"/><path fill="#237556" d="M66.916 68.488c0-1.216.405-4.458 2.026-4.863 2.837-.81 3.242 4.053 3.242 4.863 0 .81 0 5.269-2.431 5.269-2.866 0-2.837-4.053-2.837-5.269zm45.428-.439c-1.297-3.242-.957-5.036 0-5.674 2.432-1.62 4.508 2.425 4.863 5.269.406 3.242-3.242 4.457-4.863.405zm8.877 34.886c2.431-1.621 4.863-.811 5.268.405.405 1.216 0 2.432-2.432 4.458-2.026 1.689-4.457 1.621-5.268.405-1.005-1.508 0-3.647 2.432-5.268z"/><path fill="#24AD79" d="M130.947 76.188c-3.891 6.484-11.888 6.754-15.4 6.079l3.242 10.131c9.726.973 17.021-3.647 19.452-6.078l-7.294-10.132z"/><path fill="#237556" d="M124.867 83.888c-2.269.973-2.837 2.567-2.837 3.242 0 1.621 2.432 2.026 5.269 1.216 2.836-.81 3.85-2.837 3.242-4.053-.608-1.215-2.837-1.62-5.674-.405z"/><path fill="#24AD79" d="M152.425 66.057c-2.27-7.133-13.509-7.835-17.831-7.295l-5.674 10.942c9.402-2.918 16.345 2.837 18.642 6.079l4.863-9.726z"/><path fill="#237556" d="M142.294 63.22c-2.17-.93-4.377-.405-4.863.81-.811 2.027 1.621 3.513 3.242 4.053 2.431.81 4.052 0 4.457-.81.406-.811 0-2.837-2.836-4.053z"/><path fill="#24AD79" d="M136.215 33.23c-4.215 8.755-1.756 17.697 0 21.074l7.7-9.32c-2.27-5.836.945-14.59 2.836-18.237l-10.536 6.484z"/><path fill="#237556" d="M137.431 41.479c0-2.918.81-5.006 1.621-5.411 1.621-.81 2.431 2.431 2.431 4.052 0 1.621 0 4.864-1.621 5.269-.879.22-2.431-.263-2.431-3.91z"/></svg>