<svg xmlns="http://www.w3.org/2000/svg" fill="none" viewBox="0 0 227 225"><path fill="#E1E1E1" d="M226.014 89.588a72.053 72.053 0 00-72.052-72.052h-81.91a72.052 72.052 0 000 144.103h81.91a72.052 72.052 0 0072.052-72.051z"/><rect width="162.489" height="115.926" x="31.273" y="76.777" fill="#CCD2DD" rx="6"/><rect width="157.208" height="110.949" x="33.914" y="79.266" fill="#152D5D" rx="5"/><path fill="#666A6A" d="M11.486 220.402c-1.084-.382-1.94-1.754-2.232-2.391v-.669h203.688c-.184 2.043-1.154 2.892-1.617 3.06H11.486z"/><path fill="#CCD2DD" d="M9.378 215.267l24.386-22.802c.37-.347.858-.539 1.366-.539h155.298c.566 0 1.105.239 1.484.659l20.586 22.803c1.161 1.286.249 3.34-1.484 3.34H10.744c-1.814 0-2.691-2.221-1.366-3.461z"/><path stroke="#24AD79" d="M49.723 155.724l12.078-35.391 6.043 18.128 6.043-9.541 12.086 29.896 20.673-52.16 4.135 9.86 7.951-17.81 16.22 44.208 3.499-13.994 3.18 13.994 14.949-31.487 12.085 31.487 9.224-16.539"/><path stroke="#fff" stroke-linecap="round" stroke-linejoin="round" d="M49.497 89.084v88.429h129.556"/><path fill="#F5F5F5" d="M155.31 216.572H65.88l9.645-11.092h69.899l9.886 11.092zM83.162 197.741l2.848-3.037h6.36l-1.804 3.037h-7.404zM95.123 197.741l1.424-3.037h6.835l-.665 3.037h-7.594zM107.084 197.741l.475-3.037h6.265l.665 3.037h-7.405zM79.04 197.741l3.362-3.037H76.31l-4.342 3.037h7.073zM141.701 197.741l-3.13-3.037h6.762l4.383 3.037h-8.015zM66.886 197.741l5.081-3.037h-7.15l-5.586 3.037h7.655zM155.031 197.741l-5.315-3.037h8.005l5.38 3.037h-8.07zM138.029 197.741l-2.847-3.037h-6.361l1.804 3.037h7.404zM126.068 197.741l-1.424-3.037h-6.835l.665 3.037h7.594zM79.7 202.779l2.848-3.038h6.36l-1.804 3.038H79.7zM93.661 202.779l1.424-3.038h6.835l-.664 3.038h-7.595zM107.622 202.779l.475-3.038h6.265l.665 3.038h-7.405zM73.579 202.779l3.361-3.038h-6.093l-4.342 3.038h7.074zM147.24 202.779l-3.131-3.038h6.762l4.383 3.038h-8.014zM60.425 202.779l5.08-3.038h-7.15l-5.586 3.038h7.656zM161.569 202.779l-5.315-3.038h8.005l5.38 3.038h-8.07zM141.566 202.779l-2.847-3.038h-6.361l1.804 3.038h7.404zM127.605 202.779l-1.424-3.038h-6.835l.665 3.038h7.594z"/></svg>