<svg xmlns="http://www.w3.org/2000/svg" fill="none" viewBox="0 0 225 225"><path fill="#E1E1E1" d="M204.76 79.312c0-17.06-6.144-33.422-17.081-45.486s-25.771-18.842-41.239-18.842h-66.3c-15.467 0-30.301 6.778-41.238 18.842C27.965 45.889 21.82 62.252 21.82 79.312c0 17.061 6.145 33.423 17.082 45.487 10.937 12.064 25.77 18.841 41.238 18.841h66.3c15.468 0 30.302-6.777 41.239-18.841 10.937-12.064 17.081-28.426 17.081-45.487z"/><rect width="25" height="51" x="37" y="162" fill="#000" rx="10"/><rect width="25" height="51" x="163" y="162" fill="#000" rx="10"/><path fill="#152D5D" fill-rule="evenodd" d="M111.272 67H74.504c-3.124 0-10.38 2.215-14.418 11.077-4.037 8.862-13.698 31.385-18.023 41.538-6.008 4-18.168 14.216-18.745 23.077-.576 8.862-.24 22.77 0 28.616 0 3.077 1.442 9.784 7.21 12 5.712 2.194 55.738 3.362 80.744 3.683V187l.364-.004.357.004v-.009c25.519-.321 76.601-1.489 82.432-3.683 5.887-2.216 7.359-8.923 7.359-12 .245-5.846.589-19.754 0-28.616-.589-8.861-13.001-19.077-19.133-23.077-4.415-10.153-14.276-32.676-18.397-41.538C160.134 69.215 152.726 67 149.537 67H111.272z" clip-rule="evenodd"/><path fill="#152D5D" d="M44.365 105.882c.664.685 4.7 2.566 6.635 3.421L48.512 117c-3.98-5.473-6.082-4.561-6.635-3.421-2.488 3.421-7.464 2.566-9.122 0-1.659-2.565-.83-15.393 4.976-14.538 5.805.855 5.805 5.986 6.634 6.841zM180.635 105.882c-.664.685-4.7 2.566-6.635 3.421l2.488 7.697c3.981-5.473 6.082-4.561 6.635-3.421 2.488 3.421 7.464 2.566 9.122 0 1.659-2.565.83-15.393-4.976-14.538-5.805.855-5.805 5.986-6.634 6.841z"/><path fill="#fff" d="M64.5 80.645C62.9 82.737 53 107 48 119h130c-5-12-14.9-35.915-16.5-38.355-1.6-2.441-6.667-2.76-9-2.615h-77c-4.5 0-9 0-11 2.615z"/><path fill="#FFD300" d="M33.75 150.434c-1.8-1.427-5.25-8.916-6.75-11.293 6-.595 25.2.713 27 3.566 1.8 2.853 4.75 8.717 6 11.293-8.25 0-24.45-2.14-26.25-3.566zM191.455 150.434c1.745-1.427 5.09-8.916 6.545-11.293-5.818-.595-24.436.713-26.182 3.566-1.745 2.853-4.606 8.717-5.818 11.293 8 0 23.709-2.14 25.455-3.566z"/><path fill="#E1E1E1" d="M21.014 175.224V170c23.038 1.244 70.334 3.732 91.475 3.732 21.141 0 71.825-2.488 92.492-3.732v5.224c.169 1.742-.712 5.673-5.59 7.464-4.879 1.791-16.94 2.736-22.361 2.985-62 2.986-115.36 0-120.442 0-5.082 0-25.918 0-31-2.985-5.082-2.986-4.574-6.717-4.574-7.464z"/><path fill="#24AD79" d="M56.75 106L53 115h11.25l3.75-9H56.75z"/></svg>