<svg xmlns="http://www.w3.org/2000/svg" fill="none" viewBox="0 0 23 23"><path stroke="#00181B" stroke-linecap="round" stroke-linejoin="round" d="M14.387 9.066L9.083 14.37M9.082 9.066l5.303 5.304"/><mask id="a" fill="#fff"><path d="M19.512 3.94c4.296 4.296 4.296 11.261 0 15.557-4.295 4.296-11.26 4.296-15.556 0C-.34 15.2-.34 8.237 3.956 3.94c4.296-4.296 11.26-4.296 15.556 0z"/></mask><path fill="#00181B" d="M18.098 5.355a9 9 0 010 12.728l2.829 2.828c5.077-5.077 5.077-13.308 0-18.385l-2.829 2.829zm0 12.728a9 9 0 01-12.728 0L2.542 20.91c5.077 5.077 13.308 5.077 18.385 0l-2.829-2.828zm-12.728 0a9 9 0 010-12.728L2.542 2.526c-5.077 5.077-5.077 13.308 0 18.385l2.828-2.828zm0-12.728a9 9 0 0112.728 0l2.829-2.829C15.85-2.55 7.619-2.55 2.542 2.526L5.37 5.355z" mask="url(#a)"/></svg>