<svg xmlns="http://www.w3.org/2000/svg" fill="none" viewBox="0 0 23 23"><path stroke="#65ED49" stroke-linecap="round" stroke-linejoin="round" d="M7.633 12.301l1.51 2.144v0a.647.647 0 001.052.031L15.03 8.36"/><mask id="a" fill="#fff"><path d="M19.235 3.94c4.296 4.296 4.296 11.261 0 15.557-4.296 4.296-11.26 4.296-15.556 0-4.296-4.296-4.296-11.26 0-15.556 4.296-4.296 11.26-4.296 15.556 0z"/></mask><path fill="#65ED49" d="M17.821 5.355a9 9 0 010 12.728l2.828 2.828c5.077-5.077 5.077-13.308 0-18.385l-2.828 2.829zm0 12.728a9 9 0 01-12.728 0L2.265 20.91c5.076 5.077 13.308 5.077 18.384 0l-2.828-2.828zm-12.728 0a9 9 0 010-12.728L2.265 2.526c-5.077 5.077-5.077 13.308 0 18.385l2.828-2.828zm0-12.728a9 9 0 0112.728 0l2.828-2.829c-5.076-5.076-13.308-5.076-18.384 0l2.828 2.829z" mask="url(#a)"/></svg>