<svg xmlns="http://www.w3.org/2000/svg" fill="none" viewBox="0 0 23 23"><path stroke="#65ED49" stroke-linecap="round" stroke-linejoin="round" d="M7.633 12.301l1.51 2.144v0a.647.647 0 001.052.031L15.03 8.36"/><mask id="a" fill="#fff"><path d="M19.235 3.94c4.296 4.296 4.296 11.261 0 15.557-4.296 4.296-11.26 4.296-15.556 0-4.296-4.296-4.296-11.26 0-15.556 4.296-4.296 11.26-4.296 15.556 0z"/></mask><path fill="#65ED49" d="M18.245 4.93a9.6 9.6 0 010 13.577l1.98 1.98c4.843-4.843 4.843-12.694 0-17.536l-1.98 1.98zm0 13.577a9.6 9.6 0 01-13.576 0l-1.98 1.98c4.842 4.842 12.694 4.842 17.536 0l-1.98-1.98zm-13.576 0a9.6 9.6 0 010-13.576l-1.98-1.98c-4.843 4.842-4.843 12.693 0 17.536l1.98-1.98zm0-13.576a9.6 9.6 0 0113.576 0l1.98-1.98c-4.842-4.843-12.694-4.843-17.536 0l1.98 1.98z" mask="url(#a)"/></svg>