<svg xmlns="http://www.w3.org/2000/svg" fill="none" viewBox="0 0 23 23"><path stroke="#00181B" stroke-linecap="round" stroke-linejoin="round" stroke-width=".7" d="M14.387 9.066L9.083 14.37m-.001-5.304l5.303 5.304"/><mask id="a" fill="#fff"><path d="M19.512 3.94c4.296 4.296 4.296 11.261 0 15.557-4.295 4.296-11.26 4.296-15.556 0C-.34 15.2-.34 8.237 3.956 3.94c4.296-4.296 11.26-4.296 15.556 0z"/></mask><path fill="#00181B" d="M18.523 4.93a9.6 9.6 0 010 13.577l1.98 1.98c4.842-4.843 4.842-12.694 0-17.536l-1.98 1.98zm0 13.577a9.6 9.6 0 01-13.577 0l-1.98 1.98c4.843 4.842 12.694 4.842 17.537 0l-1.98-1.98zm-13.577 0a9.6 9.6 0 010-13.576l-1.98-1.98c-4.842 4.842-4.842 12.693 0 17.536l1.98-1.98zm0-13.576a9.6 9.6 0 0113.577 0l1.98-1.98c-4.843-4.843-12.694-4.843-17.537 0l1.98 1.98z" mask="url(#a)"/></svg>