<svg xmlns="http://www.w3.org/2000/svg" fill="none" viewBox="0 0 446 403"><path stroke="#65ED49" stroke-linecap="round" stroke-linejoin="round" stroke-width="35" d="M338.439 332.898c31.267-18.876 58.015-52.311 74.175-84.378 10.377-20.594 22.557-50.34 11.16-73.161-7.409-14.836-22.641-22.978-38.788-20.656-54.052 7.772-79.266 67.187-96.173 111.999-9.447 25.039-17.515 50.595-27.693 75.359-5.089 12.383-10.716 25.106-20.168 34.845-2.984 3.075-8.357 8.984-13.358 8.102-6.593-1.163-11.596-10.658-13.877-16.052-5.291-12.514-6.104-26.436-4.888-39.835 3.963-43.662 19.954-86.947 36.632-127.081 12.05-28.996 26.513-56.899 38.759-85.81 7.567-17.867 19.164-40.081 18.973-60.17-.06-6.368-3.363-8.75-9.377-6.775-26.486 8.698-49.712 30.2-67.928 50.304-37.381 41.256-60.143 94.166-78.015 146.283-5.105 14.886-9.356 30.994-17.488 44.625-2.447 4.102-9.131 14.114-14.889 14.376-4.432.202-9.219-11.176-10.486-14.103-7.046-16.279-4.904-39.171-2.692-56.179 7.236-55.64 30.012-105.911 58.081-153.76 7.917-13.498 29.146-37.185 19.529-54.476-3.659-6.579-10.351-8.808-17.592-8.83-30.233-.091-59.292 25.067-79.657 44.732-34.665 33.473-52.365 82.812-64.552 128.355"/></svg>