<svg xmlns="http://www.w3.org/2000/svg" fill="none" viewBox="0 0 355 355"><path stroke="#65ED49" stroke-linecap="round" stroke-linejoin="round" stroke-width="35" d="M114.126 329.928c-15.392-15.392-37.307-31.744-36.019-55.917.8-14.996 17.502-22.758 29.693-26.81 19.098-6.348 38.969-12.779 54.639-25.936 13.313-11.178 18.819-22.201 15.064-39.78-2.195-10.273-6.124-20.205-9.308-30.189-2.587-8.109-7.005-17.978-4.953-26.756 1.189-5.084 4.697-9.233 8.233-12.894 9.466-9.8 20.25-15.432 32.235-21.502 9.682-4.904 21.331-10.472 27.969-19.444 4.108-5.552 5.775-10.659 7.438-17.373 2.439-9.849 1.316-18.043 1.707-27.834"/></svg>