<svg fill="none" xmlns="http://www.w3.org/2000/svg" viewBox="0 0 80 59"><path d="M79 34c0-6.63-2.653-12.99-7.376-17.678A25.28 25.28 0 0053.815 9h-28.63a25.28 25.28 0 00-17.809 7.322A24.908 24.908 0 000 34c0 6.63 2.653 12.99 7.376 17.678A25.28 25.28 0 0025.185 59h28.63a25.28 25.28 0 0017.809-7.322A24.908 24.908 0 0079 34z" fill="#E1E1E1"/><circle cx="40" cy="31.363" r="25" fill="#152D5D"/><path d="M40 32.364L43.636 6c12.728 1.09 18.637 11.364 20 16.364L40 32.364z" fill="#fff"/><path d="M39.999 32.273L25.453 10.909C32 5.454 40.302 5.606 43.635 6.364l-3.636 25.909z" fill="#E1E1E1"/><path d="M38.545 26.293L24 4.93C30.546-.525 38.849-.373 42.182.384l-3.637 25.91z" fill="#FF8139"/></svg>