<svg fill="none" xmlns="http://www.w3.org/2000/svg" viewBox="0 0 80 59"><path d="M79 29c0-6.63-2.653-12.99-7.376-17.678A25.28 25.28 0 0053.815 4h-28.63a25.28 25.28 0 00-17.809 7.322A24.908 24.908 0 000 29c0 6.63 2.653 12.99 7.376 17.678A25.28 25.28 0 0025.185 54h28.63a25.28 25.28 0 0017.809-7.322A24.908 24.908 0 0079 29z" fill="#E1E1E1"/><path d="M45.978 28.816c-1.032 0-1.842-.336-2.43-1.008-.588-.672-.882-1.65-.882-2.934 0-1.248.294-2.208.882-2.88.588-.672 1.398-1.008 2.43-1.008 1.044 0 1.86.336 2.448 1.008.588.672.882 1.638.882 2.898 0 1.272-.294 2.244-.882 2.916-.588.672-1.404 1.008-2.448 1.008zM45.78 34l7.434-12.816h2.34L48.12 34h-2.34zm.198-6.894c.384 0 .66-.168.828-.504.18-.348.27-.918.27-1.71 0-.78-.09-1.338-.27-1.674-.18-.348-.456-.522-.828-.522-.36 0-.63.174-.81.522-.168.336-.252.894-.252 1.674 0 .792.084 1.362.252 1.71.168.336.438.504.81.504zm9.36 7.02c-1.032 0-1.842-.336-2.43-1.008-.576-.672-.864-1.65-.864-2.934 0-1.26.288-2.22.864-2.88.588-.672 1.398-1.008 2.43-1.008 1.056 0 1.872.336 2.448 1.008.588.66.882 1.626.882 2.898 0 1.272-.294 2.244-.882 2.916-.576.672-1.392 1.008-2.448 1.008zm0-1.71c.384 0 .66-.168.828-.504.18-.348.27-.918.27-1.71 0-.78-.09-1.338-.27-1.674-.18-.348-.456-.522-.828-.522-.36 0-.63.174-.81.522-.168.336-.252.894-.252 1.674 0 .792.084 1.362.252 1.71.168.336.438.504.81.504z" fill="#152D5D"/><ellipse cx="27" cy="29" rx="11" ry="13" fill="#FF8139"/><path d="M26.901 35.662c-1.548 0-2.736-.564-3.564-1.692-.816-1.128-1.224-2.76-1.224-4.896 0-2.112.408-3.726 1.224-4.842.828-1.116 2.016-1.674 3.564-1.674s2.73.558 3.546 1.674c.828 1.116 1.242 2.73 1.242 4.842 0 2.136-.414 3.768-1.242 4.896-.816 1.128-1.998 1.692-3.546 1.692zm0-2.16c.708 0 1.224-.348 1.548-1.044.324-.696.486-1.824.486-3.384 0-1.524-.162-2.628-.486-3.312-.324-.696-.84-1.044-1.548-1.044-.708 0-1.224.348-1.548 1.044-.324.684-.486 1.788-.486 3.312 0 1.56.162 2.688.486 3.384.324.696.84 1.044 1.548 1.044z" fill="#fff"/></svg>