<svg xmlns="http://www.w3.org/2000/svg" fill="none" viewBox="0 0 80 59"><path fill="#E1E1E1" d="M79 28.517c0-6.52-2.653-12.773-7.376-17.383-4.724-4.61-11.13-7.2-17.809-7.2h-28.63c-6.68 0-13.085 2.59-17.809 7.2C2.653 15.744 0 21.997 0 28.517S2.653 41.289 7.376 45.9c4.724 4.61 11.13 7.2 17.809 7.2h28.63c6.68 0 13.085-2.59 17.809-7.2C76.347 41.29 79 35.037 79 28.517z"/><path fill="#152D5D" d="M20.645 0h37.714v51.842H20.645z"/><path fill="#FAFAFC" d="M23.465 2.993h32.271v7.899H23.465z"/><path stroke="#000" stroke-linecap="square" d="M26.145 9.281h4.868M33.57 9.281h4.869M41 9.281h4.869M48.43 9.281h4.868"/><path fill="#FAFAFC" d="M23.465 14.56h6.792v6.778h-6.792zM31.965 14.56h6.792v6.778h-6.792zM40.469 14.56h6.792v6.778h-6.792zM23.465 23.56h6.792v6.778h-6.792zM31.965 23.56h6.792v6.778h-6.792zM40.469 23.56h6.792v6.778h-6.792zM23.465 32.56h6.792v6.778h-6.792zM31.965 32.56h6.792v6.778h-6.792zM40.469 32.56h6.792v6.778h-6.792zM23.465 41.56h6.792v6.778h-6.792zM31.965 41.56h6.792v6.778h-6.792zM40.469 41.56h6.792v6.778h-6.792z"/><path fill="#CCD2DD" d="M48.945 14.56h6.792v6.778h-6.792z"/><path fill="#000" d="M54.337 19.476H53.27l-.738-.93-.738.93h-1.062l1.284-1.566-1.206-1.476h1.068l.654.846.654-.846h1.074l-1.206 1.476 1.284 1.566z"/><path fill="#CCD2DD" d="M48.945 23.56h6.792v6.778h-6.792z"/><path fill="#000" d="M51.178 29.384l1.572-4.896h.75l-1.578 4.896h-.744z"/><path fill="#CCD2DD" d="M48.945 32.56h6.792v6.778h-6.792z"/><path fill="#000" d="M53.971 36.521h-1.164v1.17h-.624v-1.17H51.02v-.618h1.164v-1.17h.624v1.17h1.164v.618z"/><path fill="#FF8139" d="M48.945 41.56h6.792v6.778h-6.792z"/><path fill="#000" d="M53.971 44.846H51.02v-.618h2.952v.618zm0 1.212H51.02v-.618h2.952v.618z"/></svg>