<svg fill="none" xmlns="http://www.w3.org/2000/svg" viewBox="0 0 80 59"><path d="M79 29c0-6.63-2.653-12.99-7.376-17.678A25.28 25.28 0 0053.815 4h-28.63a25.28 25.28 0 00-17.809 7.322A24.908 24.908 0 000 29c0 6.63 2.653 12.99 7.376 17.678A25.28 25.28 0 0025.185 54h28.63a25.28 25.28 0 0017.809-7.322A24.908 24.908 0 0079 29z" fill="#E1E1E1"/><path d="M21.273 15L14 32h15l-7.727-17z" stroke="#FAFAFC" stroke-width="2" stroke-linejoin="round"/><path d="M33 31H9a4 4 0 004 4h16a4 4 0 004-4z" fill="#FF8139"/><path d="M57.5 15l-7 17H65l-7.5-17z" stroke="#FAFAFC" stroke-width="2" stroke-linejoin="round"/><path d="M70 31H46a4 4 0 004 4h16a4 4 0 004-4z" fill="#FF8139"/><path d="M22 53a5 5 0 015-5h25a5 5 0 015 5v1H22v-1z" fill="#152D5D"/><path fill="#152D5D" d="M37 9h5v40h-5z"/><path stroke="#152D5D" stroke-width="5" d="M21 12.5h37"/><circle cx="39.5" cy="7.5" r="4.5" fill="#152D5D"/><circle cx="21.5" cy="12.5" r="3.5" fill="#152D5D"/><circle cx="57.5" cy="12.5" r="3.5" fill="#152D5D"/></svg>