<svg fill="none" xmlns="http://www.w3.org/2000/svg" viewBox="0 0 80 63"><path d="M79 33c0-6.63-2.653-12.99-7.376-17.678A25.28 25.28 0 0053.815 8h-28.63a25.28 25.28 0 00-17.809 7.322A24.908 24.908 0 000 33c0 6.63 2.653 12.99 7.376 17.678A25.28 25.28 0 0025.185 58h28.63a25.28 25.28 0 0017.809-7.322A24.908 24.908 0 0079 33z" fill="#E1E1E1"/><rect x="15" y="3" width="49" height="48" rx="4" fill="#152D5D"/><circle cx="24" cy="10" r="3" fill="#C4C4C4"/><circle cx="56" cy="10" r="3" fill="#C4C4C4"/><rect x="22" width="4" height="10" rx="1" fill="#FF8139"/><rect x="54" width="4" height="10" rx="1" fill="#FF8139"/><path fill="#fff" d="M22 17h9v7h-9zM35 17h9v7h-9zM48 17h9v7h-9zM22 27h9v7h-9zM35 27h9v7h-9zM48 27h9v7h-9zM22 37h9v7h-9zM35 37h9v7h-9zM48 37h9v7h-9z"/></svg>