<svg fill="none" xmlns="http://www.w3.org/2000/svg" viewBox="0 0 80 59"><path d="M79 29c0-6.63-2.653-12.99-7.376-17.678A25.28 25.28 0 0053.815 4h-28.63a25.28 25.28 0 00-17.809 7.322A24.908 24.908 0 000 29c0 6.63 2.653 12.99 7.376 17.678A25.28 25.28 0 0025.185 54h28.63a25.28 25.28 0 0017.809-7.322A24.908 24.908 0 0079 29z" fill="#E1E1E1"/><circle cx="39.5" cy="29.5" r="11.5" fill="#FF8139"/><path d="M39.823 32.893c.363 0 .726-.073 1.089-.217.363-.144.78-.388 1.25-.73l.735 1.515c-.382.342-.862.613-1.441.811a5.324 5.324 0 01-1.736.298c-1.01 0-1.853-.284-2.53-.852-.666-.568-1.112-1.375-1.338-2.421h-1.309v-1.245h1.147a4.484 4.484 0 01-.014-.433c0-.189.004-.329.014-.419h-1.147v-1.244h1.309c.226-1.037.672-1.84 1.339-2.408.676-.568 1.52-.852 2.53-.852.578 0 1.156.1 1.735.298.578.198 1.059.469 1.441.811l-.735 1.515c-.47-.343-.887-.586-1.25-.73a2.929 2.929 0 00-1.089-.217c-.46 0-.833.131-1.117.393-.275.252-.476.649-.604 1.19h2.192V29.2h-2.339v.852h2.339v1.245h-2.192c.128.55.329.955.604 1.217.284.252.656.379 1.117.379z" fill="#fff"/><path d="M28 16L17 5m0 0v5.923M17 5h5.5M51 16L62 5m0 0v5.923M62 5h-5.5M28 42L17 53m0 0v-5.923M17 53h5.5M51 42l11 11m0 0v-5.923M62 53h-5.5" stroke="#152D5D" stroke-width="4" stroke-linecap="round" stroke-linejoin="round"/></svg>