<svg xmlns="http://www.w3.org/2000/svg" fill="none" viewBox="0 0 194 161"><path stroke="#65ED49" stroke-linecap="round" stroke-linejoin="round" stroke-width="35" d="M-128.796 143.289c0-21.767-3.934-48.826 14.07-65.007 11.169-10.039 28.467-3.717 39.953 2.038 17.993 9.016 36.592 18.519 56.976 20.296 17.318 1.51 29.005-2.391 38.78-17.477 5.712-8.816 9.957-18.617 14.765-27.929 3.905-7.563 7.759-17.666 15.417-22.421 4.435-2.754 9.85-3.208 14.938-3.296 13.625-.236 25.232 3.407 37.999 7.59 10.314 3.378 22.488 7.678 33.526 6.028 6.831-1.022 11.62-3.454 17.544-7.026 8.688-5.24 13.689-11.828 20.888-18.475"/></svg>