<svg xmlns="http://www.w3.org/2000/svg" fill="none" viewBox="0 0 225 225"><g clip-path="url(#clip0)"><path fill="#E1E1E1" d="M122.898 225c-49.153 0-89-39.847-89-89s39.847-89 89-89c49.154 0 89 39.847 89 89s-39.846 89-89 89z"/><ellipse cx="72.5" cy="56" fill="#999696" rx="29.5" ry="29"/><ellipse cx="72.5" cy="56" fill="#fff" rx="26.5" ry="25"/><path stroke="#000" stroke-linecap="round" d="M72.5 34.5v4M72.5 74.5v4M95.5 56.5h-4M53.5 56.5h-4"/><path stroke="#E1E1E1" stroke-linecap="round" stroke-linejoin="round" d="M52.633 47.684l2.051.683M60.693 38.139l1.446 2.168M92.368 47.684l-2.052.683M84.307 38.139l-1.446 2.168M52.632 65.316l2.052-.683M60.693 74.861l1.446-2.168M92.368 65.316l-2.052-.684M84.307 74.861l-1.446-2.168"/><path stroke="#000" d="M72.523 56.151l-6-19M73.287 56.59l10 7"/><path stroke="#FF8139" d="M72.68 56.384l-18-15"/><circle cx="73" cy="56" r="2" fill="#272E80"/><path fill="#081B42" d="M86.998 141l33.9 4.5c-2.4 6-7 14.5-9.5 17l-27.9-7.5 3.5-14z"/><path fill="#E2BBA6" d="M74.497 138.5c3.2 1.2 9.666 2.167 12.5 2.5l-3.5 14c-6.5-1-8 .5-9.5 1-2 .666-4 .5-5 0l-2-15.5c-.333-1.167-1.4-3.3-5-4.5-4.5-1.5-6.5 1.5-7.5 0s.5-2.5 3-3.5c11-2 13 4.5 17 6z"/><path fill="#999696" d="M62.375 107.985l-45.716.582 7.238 64.033 44.718-.647-6.24-63.968z"/><path fill="#C4C4C4" d="M62.924 106.017l-45.134.568 7.812 64.124 45.134-.568-7.812-64.124z"/><path fill="#fff" d="M61.398 108l-41.5 1 7.5 60 41-1.5-7-59.5z"/><path fill="#E2BBA6" d="M116.709 189.908s9.955-1.339 17.922-11.247c0 0-1.987 8.33 8.639 17.871 7.361 6.587 1.62 41.678-1.481 47.87 0 0 29.367 28.936 77.172 5.762 0 0-12.006-43.696-12.88-68.402-1.077-28.055-4.325-46.091-14.15-72.577-9.826-26.485-12.154-41.1-10.82-55.044 1.334-13.945.662-35.78-23.921-41.054-24.583-5.276-27.49 23.632-27.49 23.632s-2.171 36.962 7.498 45.43c8.474 7.468 23.001-2.009 23.001-2.009s3.367 17.147-.534 23.201c0 0-5.382 6.156-18.676 11.45-13.883 5.504-16.11 45.87-23.47 53.265"/><path fill="#CEA999" d="M145.066 13.519c-.984 6.009-2.557 15.66-4.011 25.173.92-8.963 2.622-18.89 3.8-25.1l.211-.073z"/><path fill="#E2BBA6" d="M129.721 36.756l11.334 1.936-.57 8.623c-.111 4.734 1.347 5.887 2.515 7.685 4.895 7.55 5.765-7.446 9.813-7.06 4.048.384 6.594 5.707 3.687 13.56-2.907 7.853 6.884 9.32 7.786 13.723.902 4.403 7.921 29.201 0 37.687l-12.135-3.669a36.699 36.699 0 007.507-5.863c3.901-6.055.534-23.201.534-23.201s-14.518 9.477-23.001 2.01a11.032 11.032 0 01-1.84-2.13c-4.83-6.76-5.52-23.925-5.658-27.604-.138-3.68.028-15.697.028-15.697z"/><path fill="#292289" d="M190.44 105.084s4.398 3.67 8.363 14.679c3.966 11.009-6.348-6.34-6.348-6.34l-1.214-6.137-.801-2.202z"/><path fill="#152D5D" d="M45.402 170.444c13.744 2.291 46.77 10.905 63.265-4.884 12.715-12.164 18.401-45.191 32.321-50.732 5.074-1.956 21.91-8.328 20.41-26.328 11.5 1 18.167.014 22.5-4.5 3.65 2.732 16.689 30 18.182 39.258 4.582 28.403 6.263 40.981 7.275 69.027.92 24.705 7.875 51.265 7.875 51.265-6.725 30.65-75.442.853-75.442.853 2.705-7.193 8.814-41.284 1.482-47.871-10.627-9.541-8.639-17.871-8.639-17.871-7.968 9.926-20.388 15.596-20.388 15.596-18.833 10.798-58.762-4.571-68.841-7.868v-15.945z"/><path fill="#081B42" d="M45.401 186.478v-5.039s32.07 15.093 52.685 12.818c6.872-.759 14.96-6.606 23.526-9.147 8.565-2.541 16.956-18.77 16.956-18.77.736 16.834 11.804 19.486 18.538 33.21 4.996 10.183 1.399 37.082-.791 50.293-8.565-2.863-14.527-5.441-14.527-5.441 2.705-7.192 8.814-41.283 1.481-47.87-10.626-9.541-8.639-17.871-8.639-17.871-7.967 9.926-20.388 15.596-20.388 15.596-18.833 10.825-59.22-4.572-68.84-7.779z"/><path fill="#E9D694" d="M145.901 59c-10.8-8.4-20-14-20-22.5 0-17 15.333-23.667 22.5-24.5 7.5-2.5 22-3 36 14s26 99.5 20 109.5-39.5 14-46.5 4c-5.6-8-6.667-23.334-6.5-30-2.4 2.4-8 4.666-10.5 5.5.166-1.167 1.9-4.9 7.5-10.5s6.666-30 6.5-41.5c1.833-3.334 4.4-8.2 0-11-2.5-1.591-7.333 3-9 7z"/><path fill="#E1E1E1" d="M30 136.5l30-1 2 21-30 1-2-21z"/><path fill="#E1E1E1" d="M44.5 124L30 136.5l30-1L44.5 124z"/><path fill="#C4C4C4" d="M47 146.5l-17-10 30-1-13 11z"/><path fill="#F5F5F5" d="M32.5 122.5l1 16 13.5 8 8.5-7L54 122l-21.5.5z"/><path stroke="#000" d="M36 126l11-.5m-11 4l14.5-.5m-14 4.5l15-.5M37 138l14.5-.5"/><path fill="#E2BBA6" stroke="#CEA999" d="M40.207 165.556c.878 1.905 4.301 4.444 6.691 5.333V186c-7.647-1.333-8.125-1.333-10.993-1.333-7.648 0-10.038-.889-15.296-3.111-2.919-1.234-6.691-4-6.691-5.778 0-1.778 1.434-4.445.478-6.667-.956-2.222-.478-4.444.956-6.222 1.434-1.778 3.346-3.556 3.346-6.667 0-2.489 1.433-4.889 2.867-6.222l.956 9.333c0 3.2 2.868 6.667 9.082 4.889 3.346-.957 4.302-3.111 4.302-4.889 0-2.222-2.868-7.555-1.434-7.555s3.346 1.778 4.302 5.778c.956 4 0 4.888 1.434 8z"/><path fill="#fff" d="M188.398 197.5c15.2-15.6 21.334-38.833 22.5-49l12.5 95.5-46 15-39-18.5v-16.856c10.334-1.667 34.8-10.544 50-26.144z"/><circle cx="53.5" cy="122.5" r="2.5" fill="#24AD79"/></g><defs><clipPath id="clip0"><path fill="#fff" d="M0 0h225v225H0V0z"/></clipPath></defs></svg>