<svg fill="none" xmlns="http://www.w3.org/2000/svg" viewBox="0 0 40 40"><path d="M15.063 31.688H5.875m28.188-16.625v-4.75a2.375 2.375 0 00-2.376-2.376H15.063V5.563a2.375 2.375 0 00-2.374-2.375H5.561a2.375 2.375 0 00-2.375 2.376v23.433a2.692 2.692 0 005.283.693l3.722-12.91a2.375 2.375 0 012.283-1.716h21.963a2.375 2.375 0 012.295 2.986" stroke="#666A6A" stroke-width="1.5" stroke-linecap="round" stroke-linejoin="round"/><path clip-rule="evenodd" d="M19.928 27.808A9.5 9.5 0 1038.69 30.81a9.5 9.5 0 00-18.762-3z" stroke="#666A6A" stroke-width="1.5" stroke-linecap="round" stroke-linejoin="round"/><path d="M26.344 27.531a2.969 2.969 0 112.968 2.969" stroke="#666A6A" stroke-width="1.5" stroke-linecap="round" stroke-linejoin="round"/><path fill-rule="evenodd" clip-rule="evenodd" d="M29.313 34.063a.594.594 0 110 1.187.594.594 0 010-1.188z" fill="#666A6A" stroke="#666A6A" stroke-width="1.5" stroke-linecap="round" stroke-linejoin="round"/></svg>