<svg fill="none" xmlns="http://www.w3.org/2000/svg" viewBox="0 0 40 40"><path d="M14.063 30.688H4.875m28.188-16.625v-4.75a2.375 2.375 0 00-2.376-2.376H14.063V4.563a2.375 2.375 0 00-2.374-2.375H4.561a2.375 2.375 0 00-2.375 2.376v23.433a2.692 2.692 0 005.283.693l3.722-12.91a2.375 2.375 0 012.283-1.716h21.963a2.375 2.375 0 012.295 2.986" stroke="#666A6A" stroke-width="1.5" stroke-linecap="round" stroke-linejoin="round"/><path d="M25.96 34.272a8.312 8.312 0 10.001-16.625 8.312 8.312 0 000 16.625zm11.851 3.541l-5.975-5.976" stroke="#666A6A" stroke-width="1.5" stroke-linecap="round" stroke-linejoin="round"/></svg>