<svg width="219" height="31" viewBox="0 0 219 31" fill="none" xmlns="http://www.w3.org/2000/svg">
<path fill-rule="evenodd" clip-rule="evenodd" d="M205.659 5.92645C201.997 5.90284 201.383 9.67981 201.383 15.8965C201.383 22.9061 202.419 26.0728 205.638 26.0728C209.471 26.0728 209.713 22.3219 209.713 15.8965C209.713 9.44615 209.354 5.95006 205.659 5.92645ZM205.596 30.414C197.76 30.414 192.373 24.4521 192.373 15.6815C192.373 6.91077 197.76 0.907879 205.596 0.907879C213.47 0.907879 218.859 6.91077 218.859 15.6815C218.859 24.4521 213.47 30.414 205.596 30.414ZM192.979 26.084C192.979 27.686 191.201 30.6278 186.745 30.6278C182.285 30.6278 179.751 26.5202 179.402 23.1969C179.304 22.2404 179.174 21.2874 179.012 20.3396C178.907 19.7592 178.324 18.1572 176.49 18.0988H173.927V22.2063C173.927 23.228 174.772 24.9468 177.539 24.656V30.0151H162.681V24.656C165.215 25.0052 165.943 22.8178 165.943 22.0908V8.98009C165.739 6.26946 163.671 6.35771 162.681 6.35771V0.880533H179.112C184.445 0.880533 188.866 4.63887 188.999 9.21747C189.134 13.8756 186.572 16.3812 183.229 16.8684C185.638 17.8949 187.736 21.1574 188.465 24.656C188.698 25.5011 189.863 25.2674 189.746 23.7238H192.98V26.084H192.979ZM173.926 12.9721V5.95006H177.188L177.13 5.97865C178.059 5.97865 178.95 6.34764 179.606 7.00445C180.263 7.66126 180.632 8.55208 180.632 9.48095C180.632 10.4098 180.263 11.3006 179.606 11.9575C178.95 12.6143 178.059 12.9833 177.13 12.9833L173.926 12.9721ZM0.433594 24.6411L0.46218 24.61L0.433594 24.6411ZM17.5673 21.8285V18.9812H23.5478V29.9939H0.433594V24.6411C2.01572 24.6286 2.64708 22.9061 2.64708 22.1355V8.92292C2.64708 8.28162 2.35502 6.54041 0.472122 6.36268V0.899174H13.6772V6.36268C13.0098 6.35771 10.8038 6.76785 10.8038 9.05466V24.6423H10.7976C10.8075 24.6324 14.7013 24.6423 14.7013 24.6423C16.9732 24.6411 17.5673 22.3816 17.5673 21.8285ZM27.7238 21.7291V9.08449C27.7238 8.13621 26.7469 6.35149 25.0218 6.35149V0.891722H49.6225V11.9057H43.1772V8.90552C43.1772 7.81431 42.4253 6.36144 40.6244 6.36144H36.4062V12.4986H41.2222V17.6004H36.4062V24.6324H40.484C42.7857 24.6324 43.1722 22.7582 43.1722 22.1057V19.016H49.6213V30.0287H24.9821V24.6572C26.6984 24.6585 27.7238 22.9931 27.7238 21.7291ZM75.8985 24.6435H77.3017V30.0884H62.1329V24.687C63.1818 24.687 65.0946 23.8158 65.0946 21.7129V9.3169C65.0946 7.03257 63.1806 6.34528 62.1329 6.34528V0.860649H86.1047V11.5664H80.6511V8.48917C80.6511 7.52224 79.9378 5.94882 78.1593 5.94882H73.2911V11.9853H78.9833V17.1194H73.2911V22.1641C73.2898 24.0731 75.1852 24.6435 75.8985 24.6435ZM102.05 24.6585V30.0884H87.6669V24.6585C90.037 24.6585 90.871 22.8476 90.871 21.8012V9.2647C90.871 8.39844 90.2322 6.35025 87.7055 6.35025V0.861891H102.05V6.35025C99.3732 6.35025 98.8239 8.3102 98.8239 9.4387V21.8596C98.8239 23.2578 100.072 24.6585 102.05 24.6585ZM127.132 22.0025L127.134 21.8757V30.0151H120.233V28.7623C118.715 29.6944 117.752 30.1555 115.905 30.1555C108.836 30.1555 103.266 25.6092 103.266 15.9971C103.266 6.82501 107.422 0.813419 113.714 0.813419C115.851 0.813419 119.113 0.485315 120.705 2.06496V0.90291H127.215V11.5627H120.772C120.772 8.51278 120.258 5.05522 116.542 5.05522C112.507 5.05522 112.683 9.32809 112.689 14.0422C112.694 18.6518 112.274 25.1432 116.539 25.1432C118.783 25.0847 119.471 23.8978 119.705 23.5486C121.559 20.7646 119.356 19.5429 118.335 19.5429H117.432V15.2539H129.937V19.5429L129.456 19.5454C127.95 19.5467 127.132 20.4005 127.132 22.0025ZM161.164 24.656V30.0151H147.353V24.7044C149.831 24.0271 149.013 21.9739 148.809 21.3326H140.507C140.303 21.8571 139.255 24.0731 142.211 24.656H143.1V30.0151H129.64V24.656C132.874 25.0052 133.223 23.2839 133.659 22.3232L141.585 0.880533H149.241L158.157 22.7308C158.511 23.5498 159.094 24.656 161.164 24.656Z" fill="black"/>
</svg>
