<svg width="187" height="52" viewBox="0 0 187 52" fill="none" xmlns="http://www.w3.org/2000/svg">
<path fill-rule="evenodd" clip-rule="evenodd" d="M26.8054 8.51375V0.765625H18.9766V8.51375H26.8054Z" fill="white"/>
<path fill-rule="evenodd" clip-rule="evenodd" d="M186.669 51.8287V8.51562H0.132812V51.8287H186.669Z" fill="black"/>
<path fill-rule="evenodd" clip-rule="evenodd" d="M14.4747 45.7765V15.1406H7.00781V45.7765H14.4747ZM24.9261 45.7765V40.3645H16.5645V45.7765H24.9261ZM127.58 45.7765V15.1406H120.116V45.7765H127.58ZM138.481 20.5452V15.1406H130.12V20.5452H138.481ZM138.481 32.8584V27.4517H130.12V32.8584H138.481ZM138.481 45.7765V40.3645H130.12V45.7765H138.481ZM82.7855 45.7765V15.1406H75.3197V45.7765H82.7855ZM85.923 21.6246H84.9518H85.923ZM85.8837 21.6151C87.6032 21.6151 88.9607 23.4492 88.9607 25.1782C88.9607 26.9082 87.6658 28.5024 85.8466 28.5024L84.9518 28.4876L84.9508 34.7338L85.1981 34.7317C91.5441 34.806 96.5008 31.2599 96.5008 25.4244C96.5008 19.591 92.7148 15.441 86.0705 15.1406H84.9497L85.8837 21.6151Z" fill="#F5F5F5"/>
<path fill-rule="evenodd" clip-rule="evenodd" d="M84.9531 21.6246V15.1406V21.6246Z" fill="white" stroke="#F5F5F5" stroke-width="0.253671" stroke-miterlimit="2.613" stroke-linejoin="round"/>
<path fill-rule="evenodd" clip-rule="evenodd" d="M86.013 15.1426V21.6266H84.9505V15.1426H86.013ZM38.4385 45.7785V15.1426H30.9727V45.7785H38.4385ZM49.3378 20.5472V15.1426H40.9762V20.5472H49.3378ZM49.3378 32.8603V27.4536H40.9762V32.8603H49.3378ZM49.3378 45.7785V40.3665H40.9762V45.7785H49.3378ZM50.9607 15.1055H58.8012L73.806 45.7785L50.9607 15.1055Z" fill="white"/>
<path fill-rule="evenodd" clip-rule="evenodd" d="M50.9609 15.1055H58.8014H50.9609Z" fill="white" stroke="#F5F5F5" stroke-width="0.506282" stroke-miterlimit="2.613"/>
<path fill-rule="evenodd" clip-rule="evenodd" d="M73.7875 45.7784H65.6869L50.9602 15.1054L60.4554 27.8643L73.7875 45.7784ZM66.172 15.1808H73.4521L67.1814 27.6043L63.5589 20.51L66.172 15.1808ZM57.6618 45.7784H50.3828L56.6545 33.3092L60.2739 40.4036L57.6618 45.7784ZM159.507 21.1373C158.419 14.8008 151.971 14.8008 151.971 14.8008L151.99 20.4824C151.99 20.4824 153.578 20.7382 154.02 23.3959L159.507 21.1373Z" fill="#F5F5F5"/>
<path fill-rule="evenodd" clip-rule="evenodd" d="M151.721 40.3067C152.517 40.1241 152.952 39.3971 152.952 39.3971C154.183 37.3221 152.88 36.0102 152.88 36.0102C152.772 35.2099 147.376 32.515 147.376 32.515C143.897 30.5122 143.139 29.1653 143.139 29.1653C140.711 26.5798 141.544 22.0646 141.544 22.0646C142.377 14.7803 149.729 14.8164 149.729 14.8164V20.2061C149.729 20.2061 147.954 20.7888 147.919 22.21C147.919 22.21 147.593 23.5198 148.497 24.3572C148.497 24.3572 149.946 25.8495 154.401 27.6719C154.401 27.6719 157.696 29.2014 159.327 32.8048C159.327 32.8048 160.991 35.3542 159.725 39.7993C159.725 39.7993 159.69 41.0348 157.189 44.0226C157.189 44.0226 155.415 45.4077 153.64 45.7718C153.64 45.7718 152.3 46.0244 151.72 45.9522V40.3067H151.721Z" fill="#F5F5F5"/>
<path fill-rule="evenodd" clip-rule="evenodd" d="M145.746 36.2294C145.746 36.2294 146.542 39.9793 149.656 40.5991L149.621 46.0971C149.621 46.0971 148.355 46.2797 146.761 45.7712C146.761 45.7712 142.489 44.8234 140.967 41.254C140.967 41.254 140.012 39.0728 139.988 38.4869L145.746 36.2294ZM180.586 21.2065C179.501 14.8711 173.053 14.8711 173.053 14.8711L173.072 20.5527C173.072 20.5527 174.66 20.8085 175.101 23.4662L180.586 21.2065Z" fill="white"/>
<path fill-rule="evenodd" clip-rule="evenodd" d="M172.799 40.3809C173.595 40.2005 174.03 39.4713 174.03 39.4713C175.261 37.3963 173.958 36.0865 173.958 36.0865C173.85 35.2841 168.454 32.5892 168.454 32.5892C164.976 30.5864 164.217 29.2395 164.217 29.2395C161.789 26.654 162.622 22.1388 162.622 22.1388C163.456 14.8556 170.807 14.8906 170.807 14.8906V20.2803C170.807 20.2803 169.032 20.863 168.997 22.2842C168.997 22.2842 168.669 23.5951 169.576 24.4314C169.576 24.4314 171.024 25.9237 175.479 27.7461C175.479 27.7461 178.775 29.2735 180.405 32.879C180.405 32.879 182.069 35.4285 180.803 39.8714C180.803 39.8714 180.766 41.1111 178.267 44.0957C178.267 44.0957 176.493 45.4809 174.718 45.8428C174.718 45.8428 173.379 46.0975 172.798 46.0254V40.3809H172.799Z" fill="#F5F5F5"/>
<path fill-rule="evenodd" clip-rule="evenodd" d="M166.821 36.3047C166.821 36.3047 167.619 40.0546 170.735 40.6744L170.698 46.1724C170.698 46.1724 169.429 46.355 167.837 45.8444C167.837 45.8444 163.563 44.8987 162.041 41.3293C162.041 41.3293 161.088 39.1481 161.062 38.5623L166.821 36.3047Z" fill="#F5F5F5"/>
<path fill-rule="evenodd" clip-rule="evenodd" d="M26.0452 23.3905V1.51953H19.7734V23.3905H26.0452Z" fill="#CC2229"/>
<path fill-rule="evenodd" clip-rule="evenodd" d="M110.915 15.2297H107.372L107.335 21.3773C109.07 21.2722 109.866 21.7657 109.866 21.7657C110.913 22.2157 111.267 23.6974 111.267 23.6974C111.454 24.8989 111.267 25.6313 111.267 25.6313C111.024 26.9633 109.866 27.6023 109.866 27.6023C108.916 28.427 107.422 28.3898 107.422 28.3898V34.0948L111.08 45.7764H118.508L114.178 31.7481C114.236 31.729 114.297 31.7152 114.349 31.6876C121.744 27.8666 119.826 15.2329 111.594 15.2297H110.915ZM105.332 45.7754V15.2148H97.8672V45.7754H105.332Z" fill="#F5F5F5"/>
</svg>
