<svg width="199" height="55" viewBox="0 0 199 55" fill="none" xmlns="http://www.w3.org/2000/svg">
<g clip-path="url(#clip0)">
<path d="M0.859375 54.2305H198.536V51.4999H0.859375V54.2305Z" fill="#ED1C24"/>
<path d="M0.859375 49.2266H198.536V0.000354767H0.859375V49.2266Z" fill="#46A2DF"/>
<path fill-rule="evenodd" clip-rule="evenodd" d="M35.2984 50.1367H20.6875V14.345H26.9076V45.4366H35.2984" fill="#231F20"/>
<path fill-rule="evenodd" clip-rule="evenodd" d="M43.9829 29.8094C43.9829 27.3022 43.3963 26.3426 42.3403 26.3426C40.9905 26.3426 39.8166 27.9424 39.8166 34.7179C39.8166 35.2506 39.8167 35.6774 39.8755 36.0505C41.5774 35.9447 43.9829 33.5433 43.9829 29.8094ZM49.3808 30.1303C49.3808 37.01 42.8683 40.1036 40.1103 40.3186C40.404 44.3701 42.2226 45.9734 44.1594 45.9734C44.9214 45.9734 45.3911 45.9734 45.9191 45.8659V50.0266C45.3911 50.1324 44.5697 50.2383 43.6892 50.2383C39.523 50.2383 34.0078 47.9445 34.0078 36.158C34.0078 23.9413 39.1126 22.1812 42.3983 22.1812C45.5087 22.1812 49.3808 24.3161 49.3808 30.1303Z" fill="#231F20"/>
<path fill-rule="evenodd" clip-rule="evenodd" d="M69.4822 16.8625C69.4822 9.66196 66.7065 7.75422 63.4562 7.75422V28.6789C64.811 28.494 69.4822 25.4793 69.4822 16.8625ZM76.7256 16.9239C76.7256 29.6636 66.3003 34.0343 63.4562 34.7099L63.2974 50.1445H56.1211L56.2812 2.46132H61.7644C69.4146 2.46132 76.7256 6.09231 76.7256 16.9239Z" fill="#231F20"/>
<path fill-rule="evenodd" clip-rule="evenodd" d="M84.6414 43.4486V31.079C83.4907 31.2017 80.1732 33.9089 80.1732 39.8793C80.1732 43.6956 81.4595 45.2333 82.611 45.2333C83.626 45.2333 84.3704 44.188 84.6414 43.4486ZM91.3434 50.1367H85.1157V48.0665L82.8816 50.157C82.4753 50.2813 82.1372 50.2812 81.8662 50.2812C77.6008 50.2812 73.7422 45.9105 73.7422 39.8793C73.7422 30.0322 81.7305 26.4612 84.6414 26.0932V25.4783C84.6414 23.6324 83.4907 22.8316 81.7304 22.8316C80.0375 22.8316 78.8873 23.0164 77.3975 23.3852L77.5143 18.4617C77.5143 18.4617 79.3607 17.9075 82.3396 17.9075C87.4846 17.9075 91.3434 20.1231 91.3434 27.1401" fill="#231F20"/>
<path fill-rule="evenodd" clip-rule="evenodd" d="M106.981 23.4466H106.17C102.989 23.4466 100.685 26.247 100.685 30.0019L100.668 50.0965L93.9844 50.1367V18.5503L100.347 18.2154V20.7391C100.955 19.9392 102.513 18.2154 105.763 18.2154H106.981" fill="#231F20"/>
<path d="M108.949 14.3438H115.11V7.75691H108.949V14.3438Z" fill="#231F20"/>
<path d="M108.68 50.1367H115.381V18.2154H108.68V50.1367Z" fill="#231F20"/>
<path fill-rule="evenodd" clip-rule="evenodd" d="M133.188 41.049C133.188 46.5272 128.447 50.2812 122.828 50.2812C120.392 50.2812 118.362 49.9098 116.668 49.2343L119.308 44.4955C120.258 44.9257 121.136 45.0484 122.218 45.0484C124.319 45.0484 126.011 43.6335 126.011 41.7262C126.011 39.5098 125.131 37.8478 122.692 35.0786C118.495 31.079 117.345 29.1079 117.345 25.8463C117.345 21.3544 121.34 17.9075 126.485 17.9075C128.854 17.9075 130.413 18.3389 131.834 18.831L129.396 23.3235C128.718 23.0164 127.974 22.893 126.894 22.893C125.403 22.893 124.182 24.0011 124.182 25.2933C124.182 26.5251 124.724 27.7552 127.433 30.2792C131.36 33.8467 133.188 36.5557 133.188 41.049Z" fill="#231F20"/>
<path d="M134.816 14.3438H140.977V7.75691H134.816V14.3438Z" fill="#231F20"/>
<path d="M134.547 50.1367H141.248V18.2154H134.547V50.1367Z" fill="#231F20"/>
<path fill-rule="evenodd" clip-rule="evenodd" d="M154.72 26.7083C154.72 23.8158 154.044 22.7086 152.824 22.7086C151.268 22.7086 149.916 24.5541 149.916 32.3715C149.916 32.9863 149.916 33.4787 149.981 33.9089C151.944 33.7862 154.72 31.0153 154.72 26.7083ZM160.949 27.0772C160.949 35.0163 153.434 38.5873 150.253 38.8326C150.591 43.5092 152.69 45.356 154.923 45.356C155.803 45.356 156.346 45.356 156.953 45.2333V50.0343C156.346 50.157 155.397 50.2812 154.382 50.2812C149.576 50.2812 143.211 47.6346 143.211 34.0332C143.211 19.9392 149.1 17.9075 152.893 17.9075C156.482 17.9075 160.949 20.3694 160.949 27.0772Z" fill="#231F20"/>
<path fill-rule="evenodd" clip-rule="evenodd" d="M181.397 50.1367H174.694V27.2612C174.694 25.0464 173.609 23.1395 172.054 23.1395C170.427 23.1395 169.346 25.0464 169.346 27.2612V50.1367H162.645V18.2154H168.805V19.8774L170.902 17.9692C171.243 17.9075 171.444 17.9075 172.054 17.9075C177.809 17.9075 181.397 21.4163 181.397 28.9871" fill="#231F20"/>
<path fill-rule="evenodd" clip-rule="evenodd" d="M34.153 49.3164H19.543V13.5244H25.763V44.6163H34.153" fill="white"/>
<path fill-rule="evenodd" clip-rule="evenodd" d="M42.8382 28.989C42.8382 26.4818 42.2514 25.5222 41.1947 25.5222C39.8458 25.5222 38.6721 27.122 38.6721 33.8958C38.6721 34.4302 38.6721 34.8553 38.7304 35.2301C40.4327 35.1226 42.8382 32.7229 42.8382 28.989ZM48.2366 29.3099C48.2366 36.1896 41.7233 39.2833 38.9658 39.4966C39.2589 43.5498 41.0776 45.1529 43.0143 45.1529C43.7772 45.1529 44.2464 45.1529 44.7746 45.0454V49.2062C44.2464 49.312 43.4247 49.418 42.545 49.418C38.3789 49.418 32.8633 47.1241 32.8633 35.3376C32.8633 23.1205 37.9676 21.3602 41.2541 21.3602C44.364 21.3602 48.2366 23.494 48.2366 29.3099Z" fill="white"/>
<path fill-rule="evenodd" clip-rule="evenodd" d="M68.3389 16.0418C68.3389 8.84115 65.5628 6.93301 62.3129 6.93301V27.8576C63.6673 27.6737 68.3389 24.6589 68.3389 16.0418ZM75.5823 16.1031C75.5823 28.8432 65.1565 33.214 62.3129 33.8896L62.1536 49.3242H54.9766L55.137 1.64048H60.6203C68.2708 1.64048 75.5823 5.2711 75.5823 16.1031Z" fill="white"/>
<path fill-rule="evenodd" clip-rule="evenodd" d="M83.5011 42.6283V30.2586C82.3501 30.3813 79.0325 33.0885 79.0325 39.0589C79.0325 42.8735 80.3189 44.4129 81.4699 44.4129C82.4857 44.4129 83.2302 43.3677 83.5011 42.6283ZM90.2033 49.3163H83.9751V47.2427L81.741 49.3365C81.3343 49.4609 80.9957 49.4609 80.7248 49.4609C76.4598 49.4609 72.6016 45.0884 72.6016 39.0589C72.6016 29.2117 80.5898 25.6409 83.5011 25.2729V24.6578C83.5011 22.8107 82.3501 22.0107 80.5899 22.0107C78.8974 22.0107 77.7462 22.1956 76.2569 22.5644L76.3732 17.6408C76.3732 17.6408 78.2201 17.0866 81.1993 17.0866C86.3436 17.0866 90.2033 19.3023 90.2033 26.3181" fill="white"/>
<path fill-rule="evenodd" clip-rule="evenodd" d="M105.842 22.6258H105.028C101.847 22.6258 99.5452 25.4268 99.5452 29.1816L99.528 49.2744L92.8438 49.3164V17.7296L99.2071 17.3943V19.9179C99.8171 19.118 101.372 17.3943 104.621 17.3943H105.842" fill="white"/>
<path d="M107.805 13.5234H113.965V6.93615H107.805V13.5234Z" fill="white"/>
<path d="M107.535 49.3164H114.238V17.3943H107.535V49.3164Z" fill="white"/>
<path fill-rule="evenodd" clip-rule="evenodd" d="M132.044 40.2269C132.044 45.7034 127.305 49.4609 121.684 49.4609C119.246 49.4609 117.218 49.0894 115.523 48.414L118.165 43.6735C119.113 44.1054 119.991 44.228 121.076 44.228C123.175 44.228 124.868 42.8131 124.868 40.9059C124.868 38.6894 123.986 37.0274 121.549 34.258C117.353 30.2586 116.201 28.2875 116.201 25.026C116.201 20.5338 120.197 17.0866 125.342 17.0866C127.71 17.0866 129.268 17.5177 130.689 18.0101L128.251 22.5032C127.576 22.1957 126.83 22.0721 125.747 22.0721C124.258 22.0721 123.038 23.1799 123.038 24.4712C123.038 25.7022 123.579 26.9331 126.289 29.4587C130.215 33.0263 132.044 35.7351 132.044 40.2269Z" fill="white"/>
<path d="M133.676 13.5234H139.836V6.93615H133.676V13.5234Z" fill="white"/>
<path d="M133.402 49.3164H140.104V17.3943H133.402V49.3164Z" fill="white"/>
<path fill-rule="evenodd" clip-rule="evenodd" d="M153.578 25.8862C153.578 22.9947 152.903 21.8876 151.682 21.8876C150.127 21.8876 148.773 23.7332 148.773 31.5492C148.773 32.1659 148.773 32.6583 148.841 33.0885C150.802 32.9659 153.578 30.195 153.578 25.8862ZM159.808 26.2567C159.808 34.1959 152.292 37.7668 149.112 38.012C149.45 42.6888 151.548 44.5356 153.783 44.5356C154.662 44.5356 155.205 44.5356 155.811 44.4129V49.214C155.205 49.3365 154.258 49.4609 153.241 49.4609C148.436 49.4609 142.07 46.8125 142.07 33.2128C142.07 19.1179 147.959 17.0866 151.751 17.0866C155.341 17.0866 159.808 19.5485 159.808 26.2567Z" fill="white"/>
<path fill-rule="evenodd" clip-rule="evenodd" d="M180.25 49.3164H173.551V26.4409C173.551 24.2261 172.466 22.3179 170.909 22.3179C169.284 22.3179 168.201 24.2261 168.201 26.4409V49.3164H161.5V17.3943H167.66V19.0562L169.758 17.1485C170.098 17.0867 170.301 17.0867 170.909 17.0867C176.664 17.0867 180.25 20.5947 180.25 28.1649" fill="white"/>
<path d="M0.859375 51.5H198.536V49.2263H0.859375V51.5Z" fill="white"/>
</g>
<defs>
<clipPath id="clip0">
<rect x="0.859375" width="197.677" height="54.2305" fill="white"/>
</clipPath>
</defs>
</svg>
