<svg xmlns="http://www.w3.org/2000/svg" fill="none" viewBox="0 0 17 16"><path fill="#00181B" fill-rule="evenodd" d="M16.208 2.62c-.563.26-1.17.435-1.806.514a3.25 3.25 0 001.383-1.804 6.155 6.155 0 01-1.999.79 3.087 3.087 0 00-2.295-1.03c-1.737 0-3.145 1.461-3.145 3.263 0 .255.027.504.08.743-2.614-.137-4.931-1.434-6.484-3.41a3.35 3.35 0 00-.425 1.642c0 1.131.555 2.13 1.4 2.715-.516-.016-1.002-.164-1.426-.407v.04c0 1.581 1.084 2.9 2.524 3.199a3.022 3.022 0 01-1.421.057c.4 1.295 1.562 2.239 2.939 2.264a6.17 6.17 0 01-4.658 1.352 8.689 8.689 0 004.822 1.464c5.787 0 8.95-4.97 8.95-9.28 0-.142-.002-.284-.007-.423a6.5 6.5 0 001.568-1.688" clip-rule="evenodd"/></svg>