<svg xmlns="http://www.w3.org/2000/svg" fill="none" viewBox="0 0 24 24"><path stroke="#00181B" stroke-linecap="round" stroke-linejoin="round" stroke-width="1.3" d="M21.903 10.175V2.992c0-.388-.194-.873-.485-1.067-.292-.292-.777-.389-1.165-.389-2.815.389-5.436 1.65-7.668 3.495a1.606 1.606 0 01-1.845 0C8.605 3.187 5.887 2.02 3.072 1.536c-.388-.097-.776 0-1.068.292-.29.29-.582.68-.485 1.164v13.201a1.47 1.47 0 001.262 1.456c1.844.194 3.688.777 5.241 1.65M8.798 7.749c-1.165-.68-2.33-1.262-3.689-1.65M8.798 11.437c-1.262-.97-2.815-1.553-4.368-1.844M14.527 7.749c1.165-.68 2.33-1.262 3.592-1.65"/><path stroke="#FF8139" stroke-linecap="round" stroke-linejoin="round" stroke-width="1.3" d="M16.355 22.519c3.38 0 6.147-2.767 6.147-6.148s-2.766-6.147-6.147-6.147c-3.382 0-6.148 2.766-6.148 6.147 0 3.484 2.664 6.148 6.148 6.148z"/><path stroke="#FF8139" stroke-linecap="round" stroke-width="1.3" d="M16.352 13.298v3.842M18.656 15.603l-2.305 1.537"/><path fill="#00181B" d="M11.092 9.455a.65.65 0 101.3 0h-1.3zm0-3.842v3.842h1.3V5.613h-1.3z"/></svg>