<svg xmlns="http://www.w3.org/2000/svg" fill="none" viewBox="0 0 217 55"><path fill="#000" d="M57.63 19.781h21.852v4.068h-8.604v22.932h-4.716V23.85h-8.568l.036-4.068zm20.916 7.452h4.032v3.78h.072c.144-.54.396-1.044.756-1.548s.792-.972 1.332-1.368a5.892 5.892 0 011.728-1.008 5.03 5.03 0 011.908-.396c.504 0 .864.036 1.044.036.18.036.396.072.576.072v4.14c-.288-.072-.612-.108-.936-.144-.324-.036-.612-.072-.936-.072-.72 0-1.404.144-2.052.432-.648.288-1.188.72-1.692 1.26a6.827 6.827 0 00-1.152 2.088c-.288.828-.432 1.8-.432 2.88v9.288h-4.32l.072-19.44zm31.248 19.548h-4.248v-2.736h-.072c-.54 1.008-1.332 1.764-2.376 2.376-1.044.612-2.124.9-3.204.9-2.556 0-4.428-.612-5.58-1.908-1.152-1.26-1.728-3.204-1.728-5.76v-12.42h4.32v11.988c0 1.728.324 2.952 1.008 3.636.648.72 1.584 1.08 2.772 1.08.9 0 1.656-.144 2.268-.432.612-.288 1.116-.648 1.476-1.116.396-.468.648-1.044.828-1.692.18-.648.252-1.368.252-2.124v-11.34h4.32v19.548h-.036zm7.344-6.264c.144 1.26.612 2.124 1.44 2.664.828.504 1.836.756 2.988.756.396 0 .864-.036 1.368-.108.504-.072 1.008-.18 1.44-.36.468-.18.828-.432 1.116-.792.288-.36.432-.792.396-1.332-.036-.54-.216-1.008-.612-1.368-.396-.36-.864-.612-1.44-.864a12.487 12.487 0 00-2.016-.54c-.756-.144-1.512-.324-2.304-.504a24.891 24.891 0 01-2.34-.648c-.756-.252-1.404-.576-2.016-1.044-.576-.432-1.08-.972-1.404-1.656-.36-.684-.54-1.476-.54-2.484 0-1.08.252-1.944.792-2.664.504-.72 1.188-1.296 1.98-1.728a8.987 8.987 0 012.664-.936c.972-.18 1.908-.252 2.772-.252 1.008 0 1.98.108 2.88.324.9.216 1.764.54 2.484 1.044.756.468 1.368 1.116 1.836 1.872.504.756.792 1.692.936 2.772h-4.5c-.216-1.044-.684-1.728-1.404-2.088-.756-.36-1.584-.54-2.556-.54-.288 0-.684.036-1.08.072-.432.072-.792.144-1.188.288-.36.144-.684.36-.936.612s-.396.612-.396 1.044c0 .54.18.936.54 1.26.36.324.828.576 1.44.828.576.216 1.26.396 2.016.54.756.144 1.548.324 2.34.504.792.18 1.548.396 2.304.648.756.252 1.44.576 2.016 1.044.576.432 1.08.972 1.44 1.62.36.648.54 1.476.54 2.412 0 1.152-.252 2.124-.792 2.952a6.732 6.732 0 01-2.052 1.98c-.828.504-1.8.864-2.808 1.116-1.044.216-2.052.36-3.06.36-1.224 0-2.376-.144-3.42-.432-1.044-.288-1.98-.72-2.736-1.26-.756-.576-1.368-1.26-1.8-2.124-.432-.828-.684-1.836-.72-3.024h4.356v.036h.036zm14.22-13.284h3.276V21.33h4.32v5.868h3.888v3.204h-3.888v10.44c0 .468.036.828.072 1.188.036.324.144.612.252.828.144.216.36.396.612.504.288.108.648.18 1.152.18.288 0 .612 0 .9-.036.288-.036.612-.072.9-.144v3.348c-.468.072-.936.108-1.404.144-.468.072-.9.072-1.404.072-1.152 0-2.052-.108-2.736-.324-.684-.216-1.224-.54-1.62-.936-.396-.432-.648-.936-.792-1.548-.144-.612-.216-1.368-.252-2.16v-11.52h-3.276v-3.276.072zm14.508 0h4.068v2.664h.072c.612-1.152 1.44-1.944 2.52-2.448s2.232-.756 3.528-.756c1.548 0 2.88.252 4.032.828 1.152.54 2.088 1.26 2.844 2.232a9.31 9.31 0 011.692 3.312c.36 1.26.576 2.628.576 4.032 0 1.332-.18 2.592-.504 3.816-.36 1.224-.864 2.34-1.548 3.276a7.659 7.659 0 01-2.628 2.268c-1.08.576-2.304.864-3.744.864-.612 0-1.26-.072-1.872-.18a7.967 7.967 0 01-1.8-.54 6.457 6.457 0 01-1.584-.972 5.486 5.486 0 01-1.224-1.368h-.072v9.756h-4.32V27.233h-.036zm15.084 9.792c0-.864-.108-1.728-.36-2.556a6.52 6.52 0 00-1.044-2.196 5.76 5.76 0 00-1.692-1.548c-.684-.396-1.476-.576-2.34-.576-1.8 0-3.168.612-4.104 1.872-.9 1.26-1.368 2.952-1.368 5.04 0 1.008.108 1.908.36 2.736.252.828.576 1.548 1.08 2.16a5.144 5.144 0 001.728 1.44c.684.36 1.44.54 2.34.54 1.008 0 1.8-.216 2.484-.612.684-.396 1.224-.936 1.692-1.548a6.335 6.335 0 00.936-2.196c.18-.864.288-1.692.288-2.556zm7.596-17.244h4.32v4.068h-4.32v-4.068zm0 7.452h4.32v19.548h-4.32V27.233zm8.172-7.452h4.32v27h-4.32v-27zm17.496 27.54c-1.548 0-2.952-.252-4.176-.792-1.224-.54-2.232-1.224-3.096-2.124-.828-.9-1.476-2.016-1.908-3.276a12.798 12.798 0 01-.684-4.14c0-1.476.216-2.844.684-4.104a9.574 9.574 0 011.908-3.276c.828-.9 1.872-1.62 3.096-2.124s2.628-.792 4.176-.792 2.952.252 4.176.792a8.96 8.96 0 013.096 2.124c.828.9 1.476 2.016 1.908 3.276.432 1.26.684 2.628.684 4.104 0 1.512-.216 2.88-.684 4.14-.468 1.26-1.08 2.34-1.908 3.276-.828.9-1.872 1.62-3.096 2.124s-2.592.792-4.176.792zm0-3.42c.936 0 1.8-.216 2.484-.612.72-.396 1.26-.936 1.728-1.584.468-.648.792-1.404 1.008-2.196a9.806 9.806 0 000-5.004c-.216-.828-.54-1.548-1.008-2.196a5.469 5.469 0 00-1.728-1.548c-.72-.396-1.548-.612-2.484-.612-.936 0-1.8.216-2.484.612-.72.396-1.26.936-1.728 1.548-.468.648-.792 1.368-1.008 2.196a9.806 9.806 0 000 5.004c.216.828.54 1.548 1.008 2.196a5.584 5.584 0 001.728 1.584c.72.432 1.548.612 2.484.612zm11.16-16.668h3.276V21.33h4.32v5.868h3.888v3.204h-3.888v10.44c0 .468.036.828.072 1.188.036.324.144.612.252.828.144.216.36.396.612.504.288.108.648.18 1.152.18.288 0 .612 0 .9-.036.288-.036.612-.072.9-.144v3.348c-.468.072-.936.108-1.404.144-.468.072-.9.072-1.404.072-1.152 0-2.052-.108-2.736-.324-.684-.216-1.224-.54-1.62-.936-.396-.432-.648-.936-.792-1.548-.144-.612-.216-1.368-.252-2.16v-11.52h-3.276v-3.276.072z"/><path fill="#00B67A" d="M52.591 19.78H32.827L26.743.988l-6.12 18.792L.86 19.744l15.984 11.628-6.12 18.792 15.984-11.628 15.984 11.628-6.084-18.792L52.591 19.78z"/><path fill="#005128" d="M37.974 35.62l-1.368-4.249-9.864 7.164 11.232-2.916z"/></svg>