<svg xmlns="http://www.w3.org/2000/svg" fill="none" viewBox="0 0 474 542"><path fill="#E1E1E1" d="M102 319c0-55.228 44.772-100 100-100h162c60.751 0 110 49.249 110 110v211H102V319zM363.5.26c57.2-4 97.5 39 110.5 61H169c10.667-16.5 41.5-45.8 79.5-31 47.5 18.5 43.5-25 115-30zM70.285 112.166C33.902 109.62 8.27 136.994 0 151h194c-6.785-10.504-26.397-29.157-50.567-19.735-30.213 11.777-27.669-15.916-73.148-19.099z"/><path fill="#152D5D" d="M309.368 260.062h-72.854v279.939H474v-33.104c0-26.866-6.509-43.658-22.589-58.531-12.864-11.898-33.437-31.184-42.115-39.34-3.574-12.314-14.013-47.785-27.184-91.155-16.463-54.213-39.052-57.809-72.744-57.809z"/><path fill="#fff" d="M420.198 383.6c-4.313 3.838-12.527 7.511-15.794 8.471l4.731 16.505c7.188 1.439 23.61 5.633 28.707-2.427 6.372-10.075.981-29.745-4.901-29.265-5.881.479-7.352 1.919-12.743 6.716z"/><path fill="#E9E9EA" d="M343.783 280.929l-102.35-.433v119.941c38.604-.289 130.628 0 143.351 0 10.192 0 10.983-6.351 10.113-9.959-4.567-16.743-17.159-55.511-24.467-78.373-7.307-22.862-12.725-31.176-26.647-31.176z"/><path fill="#fff" d="M284.124 280.706l39.735 119.716h-39.937L245.235 280.5l38.889.206zM330.499 400.422L290.27 280.93h5.404l40.529 119.492h-5.704z"/><path fill="#1C3B78" d="M375.277 504.348c0-11.046-8.954-20-20-20H237.892V540h137.385v-35.652z"/><path fill="#E1E1E1" d="M458.017 484.288c1.517-6.866-3.709-13.374-10.741-13.374h-42.21a11 11 0 00-10.741 8.626l-4.256 19.26c-1.518 6.866 3.709 13.374 10.741 13.374h42.21c5.16 0 9.627-3.588 10.741-8.627l4.256-19.259z"/><rect width="59.647" height="7.676" fill="#E1E1E1" rx="3.838" transform="matrix(-1 0 0 1 450.691 516.973)"/><path fill="#152D5D" d="M167.317 260.062h69.886v279.939H2.887v-33.104c0-26.866 6.5-43.658 22.561-58.531 12.849-11.898 33.396-31.184 42.063-39.34 3.57-12.314 13.996-47.785 27.15-91.155 16.444-54.213 39.005-57.809 72.656-57.809z"/><path fill="#fff" d="M56.46 383.6c4.348 3.838 12.516 8.117 15.81 9.076l-4.58 15.778c-7.248 1.439-23.881 5.755-29.02-2.305-6.424-10.075-.989-29.745 4.941-29.265 5.93.479 7.413 1.919 12.848 6.716z"/><path fill="#E9E9EA" d="M132.943 280.929l109.077-.425.187 119.942c-38.556-.288-137.507-.009-150.214-.009-10.18 0-10.97-6.351-10.101-9.959 4.562-16.743 17.138-55.511 24.437-78.373 7.298-22.862 12.71-31.176 26.614-31.176z"/><path fill="#1C3B78" d="M101.488 504.348c0-11.046 8.955-20 20-20h116.406V540H101.488v-35.652z"/><path fill="#E1E1E1" d="M18.023 483.715c-1.113-6.703 4.057-12.801 10.851-12.801H55.19a11 11 0 0110.852 9.199l3.196 19.26c1.112 6.702-4.057 12.801-10.852 12.801H32.071a11 11 0 01-10.852-9.199l-3.196-19.26z"/><rect width="43.138" height="7.676" x="26.168" y="516.973" fill="#E1E1E1" rx="3.838"/><path fill="#E2BBA6" d="M215.176 394.741s-10.864-1.462-19.56-12.276c0 0 2.169 9.092-9.429 19.505-8.033 7.189-1.767 45.488 1.617 52.246 0 0-32.052 31.58-84.226 6.288 0 0 13.104-47.69 14.058-74.654 1.175-30.619 4.719-50.304 15.443-79.211 10.724-28.906 13.265-44.856 11.809-60.076-1.456-15.219-.723-39.049 26.107-44.806 26.83-5.758 30.003 25.792 30.003 25.792s2.37 40.341-8.184 49.583c-9.247 8.15-25.103-2.193-25.103-2.193s-3.675 18.714.583 25.322c0 0 5.874 6.719 20.383 12.496 15.153 6.008 17.583 50.064 25.616 58.134"/><path fill="#CEA999" d="M184.23 202.23c1.075 6.559 2.792 17.092 4.378 27.475-1.004-9.782-2.861-20.616-4.147-27.394l-.231-.081z"/><path fill="#CEA999" d="M200.979 227.59l-12.371 2.113.623 9.411c.12 5.167-.291 9.312-1.567 11.275-5.342 8.24-7.47-11.014-11.888-10.594-4.419.421-6.477 5.447-3.304 14.018 3.173 8.571-8.234 10.954-9.218 15.76-.984 4.806-8.645 31.87 0 41.132l13.245-4.005a40.002 40.002 0 01-8.194-6.398c-4.258-6.608-.582-25.322-.582-25.322s15.845 10.343 25.103 2.193a12.057 12.057 0 002.008-2.323c5.271-7.38 6.025-26.113 6.175-30.128.151-4.016-.03-17.132-.03-17.132z"/><path fill="#292289" d="M134.704 302.164s-4.8 4.005-9.128 16.02c-4.327 12.016 6.929-6.918 6.929-6.918l1.325-6.699.874-2.403z"/><path fill="#F4EFEF" d="M186.498 450.633s15.366 54.962 14.502 89.366H84s1-27.5 5.5-45.5 15.975-41.213 15.975-41.213 44.533 22.819 81.023-2.653z"/><path fill="#F4C7C3" d="M293 373.5c-15 2.5-51.045 11.901-69.049-5.331-13.877-13.277-20.082-49.322-35.275-55.37a70.694 70.694 0 01-15.614-8.401c-23.797 7.84-34.511 5.077-39.241.151-.251.691-7.634 6.527-11.821 17.451-5 31-6.835 44.727-7.94 75.336-1.004 26.964-8.595 55.951-8.595 55.951 7.34 33.452 82.338.931 82.338.931-2.952-7.85-9.62-45.057-1.617-52.246 11.598-10.413 9.429-19.505 9.429-19.505 8.696 10.834 22.251 17.022 22.251 17.022C238.421 411.274 282 394.5 293 390.902V373.5z"/><path fill="#D3A8A4" d="M293.001 390.999v-5.5s-35 16.472-57.5 13.989c-7.5-.828-16.328-7.209-25.677-9.983-9.348-2.773-18.506-20.485-18.506-20.485-.803 18.373-12.883 21.266-20.233 36.245-5.452 11.115-1.526 40.472.864 54.89 9.348-3.124 15.855-5.938 15.855-5.938-2.952-7.85-9.62-45.057-1.617-52.246 11.598-10.413 9.429-19.504 9.429-19.504 8.696 10.833 22.251 17.021 22.251 17.021 20.555 11.815 64.634-4.989 75.134-8.489z"/><path fill="#000" d="M137.676 464.07c.181 1.212.351 2.393.522 3.565-.171-1.172-.341-2.353-.522-3.565zM137.535 463.15c0-.321-.09-.641-.14-1.002.04.361.1.681.14 1.002z" opacity=".3"/><path fill="#00181B" d="M189 240l14.5-5.001c1-1.5-1.429-18.5-7.5-27-5-7-12.5-11.5-17.5-9.5-15-2-41-10.499-52.5 24.001-3.772 11.314-11.5 46.499-11.5 90.499 0 34.064 7 44.5 23 44.5 24.5 0 41.5-35.166 43.5-48 2 1.6 6.167 3 8 3.5-3.6-7.2-3.167-61.666-2.5-88 1 7.001 2.5 13.834 2.5 15.001z"/><path fill="#E1E1E1" d="M138.136 521L134 540h10c-2-9-5.227-16.833-5.864-19z"/><path fill="#C4C4C4" d="M138 521l-4 19h-8l4-14.5-10.5-6c4.8.8 14.333 1.333 18.5 1.5z"/><path fill="#24AD79" d="M319 350h23l-9 22h-23l9-22z"/><path fill="#000" fill-opacity=".2" d="M286.501 407c-2 1.2-65.228 15.022-78.228 20.855l-35 23 8.5-3.5c18.834-6.5 96.528-23.355 109.728-31.355 16.5-10 16.5-18 22-20.5s2-11.5 8.5-17c5.2-4.4 5.5-8.833 5-10.5 2-2 2.166-5.5 2-7 .4-1.6-.834-2.667-1.5-3l-15.5 9 2-4.5c1.5-1.167 4.9-3.9 6.5-5.5 1.6-1.6 1-2.667.5-3l-7.5 5.5-6.5 8 1 2 14-4c-6 7.167-18.4 22.6-20 27-2 5.5-13 13-15.5 14.5z"/><path fill="#E2BBA6" d="M299 370.5c-1.6 2-4.667 2.834-6 3v17c5 0 7.295.088 11-1.5 3.5-1.5 6.5-4.5 8.5-7.5s6.616-6.836 9.5-9c4-3 2.167-4.333 1.5-4.5.5-.5 1-.7 3-3.5s.5-3.833-.5-4c2-2 2.5-3.5.5-4s-8 4-10.5 6c-.781.625-6.5 6-7.5 6s2.76-5.139 4-7c1-1.5 7.293-5.793 8-6.5 1-1 1.5-2.5 0-2.999-1.342-.448-6.5 2.999-9 4.999-2.5 2-10.5 11-12.5 13.5z"/><path fill="#00B67A" d="M29.399 523.312a5432.179 5432.179 0 0110.328 17.371h1.878c-2.66-4.695-8.356-14.742-9.859-17.371-1.878-3.286 9.859-10.328 3.756-20.187-6.103-9.858-19.718-56.335-22.534-76.992-2.817-20.656-7.512-31.923-9.39-6.572-1.877 25.351.47 96.709 12.207 98.587 9.389 1.503 12.988 4.069 13.614 5.164z"/><path stroke="#fff" d="M29.29 519.515c-5.163-12.675-16.712-50.42-21.595-99.995"/><path fill="#00B67A" stroke="#00B67A" d="M84.219 513.883c.375 17.276-3.913 24.725-6.103 26.29H50.417c-6.009 0-8.137-8.45-8.45-12.675 2.347-80.279-23.473-152.613-11.737-155.393 17.84-4.225 53.52 120.183 53.989 141.778z"/><path stroke="#fff" d="M64.463 541.111c3.281-25.443 3.094-90.546-23.904-147.412M50.415 522.803c3.443 1.095 11.173 4.976 14.554 11.736 2.973-1.252 9.952-5.352 14.084-11.736m-28.638-19.248c3.756.313 12.112 2.159 15.492 7.042 1.878-1.096 6.385-4.789 9.39-10.798M50.415 481.49c2.504 0 8.826.657 14.084 3.286 1.878-1.408 5.822-5.446 6.573-10.328m-21.596-17.37c2.035-.157 7.136.188 11.267 2.817 1.252-.939 3.756-3.85 3.756-7.981M46.19 435.013c2.347-.626 7.793-.657 10.798 4.225.626-1.721 1.877-6.103 1.877-9.859m-16.9-14.084c2.034 0 6.572.564 8.45 2.817.47-1.408 1.409-4.788 1.409-7.042M13.797 502.146c1.721 2.034 6.479 6.29 11.736 7.042 1.252-1.252 3.568-5.071 2.817-10.329M11.448 487.593c1.565 1.409 5.634 4.32 9.39 4.695.939-.939 2.817-3.756 2.817-7.511M10.04 473.979c1.096 1.408 4.038 4.225 7.042 4.225.939-.782 2.817-3.098 2.817-6.103M8.162 458.956c.783 1.252 3.005 3.756 5.634 3.756 1.095-.626 3.286-2.629 3.286-5.634M6.754 444.403c.782 1.095 2.817 3.286 4.694 3.286.783-.469 2.348-1.972 2.348-4.225m-7.042-12.206c.47 1.095 1.596 3.286 2.347 3.286.94 0 2.347-1.878 2.347-3.286"/><path fill="#00B67A" stroke="#00B67A" d="M96.894 528.438c0 6.76 3.756 10.641 5.634 11.736h6.573c6.384 0 9.232-7.824 9.858-11.736 6.573-17.37-4.225-62.909-9.858-76.054-5.634-13.145-10.337-22.282-6.573 6.573 4.225 32.393-5.634 61.03-5.634 69.481z"/><path stroke="#fff" d="M105.811 540.642c.325-1.741.672-3.793 1.021-6.103m.857-69.48c1.074 5.783 1.714 11.991 2.029 18.309m-8.132 43.66c1.463 1.408 4.561 4.882 5.246 7.511m0 0c1.694-.626 5.739-2.817 8.368-6.572m-8.368 6.572a274.928 274.928 0 001.649-13.145m-5.487-6.572c1.311 1.095 4.243 3.943 5.487 6.572m0 0c1.771-.626 5.78-2.723 7.658-6.103m-7.658 6.103c.405-3.972.76-8.239 1.021-12.675m-4.63-4.695c1.053.939 3.452 3.192 4.63 4.695m0 0c1.274-.47 4.384-2.066 6.637-4.695m-6.637 4.695c.242-4.113.403-8.371.449-12.676m-4.14-2.817c1.038.47 3.32 1.69 4.14 2.817m0 0c1.124-.626 3.653-2.347 4.78-4.225m-4.78 4.225c.044-4.211-.023-8.468-.233-12.675m-3.437-2.348c.726.313 2.431 1.221 3.437 2.348m0 0c.732-.157 2.478-1.127 3.605-3.756"/><path fill="#00B67A" stroke="#00B67A" d="M123.651 522.803c-2.629 7.136-3.6 14.553-3.756 17.37h2.817c.469-3.286.939-12.206 5.164-17.37 4.225-5.165 18.309.939 21.126-7.042 2.816-7.981 33.332-75.584 38.496-84.034 5.164-8.451 33.801-44.13-9.39-8.451-43.19 35.68-60.56 70.42-60.091 80.279.47 9.858 8.92 10.328 5.634 19.248z"/><path stroke="#fff" d="M127.406 517.64c2.191-13.615 14.741-49.482 47.416-84.035M125.062 494.636c.47 2.973 2.066 9.577 4.695 12.206 3.443-.156 12.488-1.972 21.126-7.981m-18.779-16.9c0 2.66.752 8.45 3.756 10.328 2.66-.47 9.389-2.723 15.023-7.981m-10.328-15.492c-.47 1.877-.751 6.384 1.878 9.389 2.66-.47 9.107-2.441 13.614-6.573m-6.572-13.614c-.157 1.721-.282 5.54.469 7.042 2.347-.157 7.793-.939 10.798-2.817m-1.409-15.962c-.469.939-1.126 3.286 0 5.164 1.409 2.348 9.39-1.878 11.737-2.816"/></svg>