<svg xmlns="http://www.w3.org/2000/svg" fill="none" viewBox="0 0 470 541"><path fill="#E1E1E1" d="M30.8 471c0-55.228 44.772-100 100.001-100h210c55.228 0 100 44.772 100 100v69h-410v-69z"/><path fill="#152D5D" d="M223.801 97v443h-193V97h193z"/><path fill="#0B1B39" d="M191.352 539.987V366.289h-54.925v173.698h54.925z"/><path fill="#152D5D" d="M185.379 539.985V372.547h-42.985v167.438h42.985z"/><path fill="#0B1B39" d="M113.055 539.987V366.289H58.13v173.698h54.925z"/><path fill="#152D5D" d="M107.082 539.985V372.547H64.098v167.438h42.984z"/><mask id="a" width="134" height="223" x="60" y="123" maskUnits="userSpaceOnUse"><path fill="#E1E1E1" d="M193.688 190.423c0-36.788-29.823-66.611-66.611-66.611-36.788 0-66.61 29.823-66.61 66.611v154.883h133.221V190.423z"/></mask><g mask="url(#a)"><path fill="#E9E9EA" d="M193.688 123.812H60.466v221.494h133.222V123.812z"/><path fill="#fff" d="M175.801 330.5l-74.5-201.5c-8.4 2.8-13.5 6.833-15 8.5l73.5 194c5.2 0 12.833-.667 16-1zm9-1.5l-73-203-4 .5 73.5 203 3.5-.5z"/><path fill="#C4C4C4" d="M109.545 120.316h81.803v227.323l-81.803-227.323z" opacity=".5"/></g><path fill="#E5B9B7" d="M130.445 387.783a10.435 10.435 0 013.443-2.277 95.89 95.89 0 0110.968-1.197c1.956 0 9.716 3.383 10.29 3.76.573.378.912 2.278-2.074 2.187-2.987-.092-22.627-2.473-22.627-2.473zm92.228-89.75s1.121-.638 2.608-1.419a28.283 28.283 0 016.768-2.68c3.143-.495 10.838 1.496 13.368 2.017 2.53.52 7.146 1.665 7.146 1.665-.274 1.692 1.787 1.796 1.787 1.796-.17 1.21-1.8 1.197-3.13 1.302a13.957 13.957 0 01-3.169-.339c.022.696.285 1.362.743 1.887a2.606 2.606 0 01-1.408.338 20.247 20.247 0 00-9.129 2.161c-3.782 2.225-7.525 5.764-12.833 10.631a26.67 26.67 0 01-6.338 4.282h-.104l-.783.364c-1.085.51-2.205.945-3.351 1.301-.326.104-.652.183-.965.261l8.79-23.567z"/><path stroke="#666A6A" stroke-width="2" d="M178.801 403c0 6.037-5.11 11-11.5 11s-11.5-4.963-11.5-11 5.11-11 11.5-11 11.5 4.963 11.5 11z"/><ellipse cx="159.959" cy="417.161" fill="#FFD300" rx="3.434" ry="7.555" transform="rotate(13.99 159.959 417.161)"/><path fill="#FFD300" d="M153.67 436.697l3.323-13.504 2.934-.193-1.648 6.953-1.651.511.944 1.548-1.624.912.944 1.548-1.361 4.921-1.861-2.696z"/><path fill="#C4C4C4" d="M167.644 437.95l-.933-13.875 2.738-1.075.539 7.125-1.417.988 1.369 1.188-1.271 1.362 1.37 1.189.197 5.101-2.592-2.003zm12.451-2.951l-3.786-13.381 2.455-1.618 2.004 6.858-1.182 1.26 1.586.88-.962 1.595 1.586.879 1.25 4.95-2.951-1.423z"/><ellipse cx="167.96" cy="418.159" fill="#C4C4C4" rx="3.434" ry="7.555" transform="rotate(-2.446 167.96 418.159)"/><ellipse cx="175.67" cy="415.087" fill="#C4C4C4" rx="3.434" ry="7.555" transform="rotate(-11.482 175.67 415.087)"/><path fill="#666A6A" d="M161.301 411.668l-2-1.5c-.5.333-1.5.434-1.5 1 0 1 2.5 2.167 3 2.5l.5-2z"/><ellipse cx="160.855" cy="413.832" fill="#666A6A" rx="1" ry="2.5" transform="rotate(13.47 160.855 413.832)"/><ellipse cx="166.856" cy="414.833" fill="#666A6A" rx="1" ry="2.5" transform="rotate(-.822 166.856 414.833)"/><path fill="#666A6A" d="M167.1 413.5l-2.298-.333c-.291.526-1.301.992-1.041 1.494.459.889 3.215.779 3.813.846l-.474-2.007zm6.887-2.77l-2.686 1.437c.095.594 0 1.435 0 2.001 0 .5 3.784-1.834 4.296-2.15l-1.61-1.288z"/><ellipse cx="174.335" cy="411.685" fill="#666A6A" rx="1" ry="2.5" transform="rotate(-26.522 174.335 411.685)"/><path fill="#E1E1E1" d="M138.238 520.883s-9.184-79.976-13.525-104.969H30.036c-6.512 14.996-8.015 33.49-8.015 49.985 0 13.196 1.11 51.442 3.28 74.102h49.5l9.33-40.112c2.004 7.598 4.5 26.45 5.67 40.112h49.5l-1.063-19.118z"/><path fill="#CFCDCD" d="M131.301 462.001l-1.5-12.5.907-.974h-18l-1.5-15h-32v16.5l-57.5 1v11c27.2-7.2 52.666-7.333 62-6.5l-1-15c1.2.8 3.5 1.334 4.5 1.5h14c4.4 0 6.833-1.666 7.5-2.5l1 15.5c8.4 1.6 17.426 5.308 21.593 6.974zm-41.699 29.133c4.148 25.202 7.26 27.956 8.296 38.866h-8.296c-2.489-26.511-4.84-22.501-5.704-29.865 1.66-11.783 4.494-10.91 5.704-9.001z"/><path fill="#CFCDCD" d="M25.207 529.027c-2-68 3.5-61.666 6.5-70l-10 2c-1.2 28.8 1.833 44 3.5 68z"/><path fill="#fff" d="M235.301 266c-10.8 14-16.5 44.5-16.5 57.5l39.5 15.5c0-25.5 9.333-49.5 16-58.5l-39-14.5z"/><path fill="#F4C7C3" d="M234.853 292.113c5.216-.091-.678-3.579-3.795-4.242-3.117-.664-10.068-1.64-12.259 1.301-2.191 2.941-18.74 26.391-21.322 27.471-2.583 1.08-18.323 3.37-18.323 3.37-29.161 3.332-40.572.924-47.249-2.03-6.677-2.954-7.46-20.821-17.658-31.531-10.198-10.709-9.52-21.836-18.14-19.389-9.938 2.811-9.794-.469-9.794-.469l-.835-1.496a63.49 63.49 0 01-4.121-16.605c4.33.924 3.99 1.223 7.981.143 23.475-6.415 1.735-69.204 1.735-69.204-6.456-17.125-49.479-3.461-54.891 6.117-5.217 9.213 2.347 23.254 2.347 23.254-5.373-.195-5.986 4.138-5.986 4.138-1.095 9.318 12.325 15.356 12.325 15.356l1.304 1.639c11.92 16.748 8.933 28.629 6.716 33.691-.496 1.054-4.695 3.514-8.999 3.436-5.477-.078-20.618.299-28.247 19.116-14.489 35.695-1.122 88.671 6.586 93.851 7.707 5.179 81.456 15.615 81.456 15.615l7.511 5.011 8.921 2.602c2.856.95 8.503 3.488 15.649 5.388 8.96 2.342 10.264 2.875 12.689 3.175 2.726.325 2.283.585 5.712.898 2.609.234 2.609-1.861 2.609-1.861l4.512 1.158c3.678-.247 2.165-4.437 2.165-4.437a2.784 2.784 0 001.043-4.555c-.782-.638-7.825-4.672-9.311-5.622-1.487-.95-7.369-4.229-7.369-4.229s8.542 2.303 9.025 2.954a86.082 86.082 0 007.72 5.739c1.552.781 3.078-1.731 2.087-3.045-.991-1.315-6.729-6.871-9.351-8.016-2.621-1.146-7.159-4.568-9.285-5.544-2.126-.976-2.608.937-8.725.768-6.116-.169-3.912-.078-4.864-.274-.952-.195-2.334-.507-3.978-.832-1.856-.368-3.17-.238-4.681.351l-14.972-3.461h19.379c-1.656-39.014-4.773-59.457-4.773-59.457s-6.299 33.079 16.041 29.93c22.34-3.149 60.134-24.439 61.972-25.571.822-.508 3.026-1.809 5.569-3.709 12.102-1.6 8.646-12.219 16.08-12.219 8.594 0 10.302-.495 10.302-2.082 0-1.588-8.581-2.408-14.175-2.603.926-4.008 1.056-7.808 2.477-11.334 1.644-4.125 7.317-2.59 11.19-2.655z"/><path fill="#000" d="M92.754 247.127c5.36-5.309 2.217-20.248 3.247-25.623 1.03-5.374-7.903-10.189-7.694-23.892.156-10.228-6.286-21.133-9.573-26.026 5.882.742 10.538 3.123 12.337 7.899 0 0 19.458 56.113 1.683 67.642zm-11.436 21.069c-1.891-1.744-4.982-20.821-4.982-20.821l4.982 1.301a63.367 63.367 0 004.12 16.605l.835 1.497s3.274 2.186 9.86 1.197l-1.461.494c-4.486.976-11.463 1.471-13.354-.273z" opacity=".1"/><path fill="#fff" d="M188.844 318.516c-4.786.82-9.69 1.536-9.69 1.536-29.16 3.331-40.232 0-47.248-2.03-10.903-3.214-4.682-28.447-14.88-39.183-10.199-10.735-12.298-14.184-20.866-11.711-8.569 2.472-10.433-3.657-11.477-4.243.235 1.64-2.973 7.431-5.555 8.251l-1.904 6.975-6.521-6.962c-8.307-1.627-17.293-8.563-17.293-8.563-.508 1.054 1.304 6.858-8.15 4.489-5.308-1.301-21.975.287-29.604 19.104-15.924 39.234-5.725 83.752 6.586 93.85 7.172 5.882 81.455 15.616 81.455 15.616l.105 3.306 7.407 1.704c-.43-10.098 6.638-17.164 6.638-17.164l-7.055-1.679h19.379c-1.656-39.013-4.773-59.457-4.773-59.457s-6.299 33.08 16.041 29.93c15.193-2.147 37.52-12.661 50.861-19.519-6.416-5.973-3.456-14.25-3.456-14.25z"/><path fill="#000" d="M103.841 377.712l-4.187-28.03-3.912-26.13-1.474-9.877a58.953 58.953 0 00.522-16.462c-.796-7.938-.444-17.919-4.46-27.119 0 0 1.76 8.12 1.174 13.937-.366 3.657-3.091 14.666-1.305 23.163 1.787 8.498 4.76 10.619 4.187 22.292-.574 11.672-1.148 30.75 9.455 48.226z" opacity=".1"/><path fill="#F4EBEA" d="M108.405 399.92l-30.056-6.998 1.001 30.991h32.06l-3.005-23.993z"/><path fill="#DCD4D3" d="M108.131 400.027l3.498 24.5h-5.496c-1.999-3-2.498-9.5-1.999-13.5.5-4 1.499-8.5-7.494-9.5-7.195-.8-14.989-2-17.987-2.5l-1.499-6 1.5.5 29.477 6.5z"/><path fill="#000" d="M110.406 434.907l-.817-10.997h-30.24l.43 10.997h30.627z"/><path stroke="#fff" stroke-width="3" d="M102.891 434.907V423.91H89.365v10.997h13.526z"/><path fill="#00181B" d="M5.21 286.026c5.008-14.653 20.24-19.741 27.57-20.405l20.668-3.062s7.825 30.997 22.966 51.636l2.321 50.686 33.151 16.917-.208.208a18.19 18.19 0 00-4.8 14.249l.105 3.306-3.091-.677s-45.234-5.013-68.461-10.27c-1.93-.443-8-2.088-8-2.088l-22.22-9.602s-14.202-49.334 0-90.898z"/><path fill="#00181B" d="M181.904 319.634l-2.752.417c-29.16 3.331-35.545.39-42.222-2.564s-8.065-20.86-13.308-34.706c-3.508-9.252-7.211-18.817-21.322-20.222l-17.671.299a16.081 16.081 0 001.734 3.904l.261.156c.99.422 2.015.753 3.065.989 0 0 7.499 23.241 4.59 45.78l9.703 64.949 7.903 3.162h18.258c-1.656-39.04-2.217-35.24-2.217-35.24s-13.336 18.117 9.004 14.968c12.715-1.796 35.5-5.5 49.89-20.264-2.008-3.292-6.142-13.95-4.916-21.628zm-70.497 130.269l-3.507-49.985c1.503.333 5.21 1.2 8.015 1.999 3.507 1 7.013 2 9.518 2.999 2.003.8 6.178 2.333 8.015 3l5.009 41.987h-27.05zM80.352 451.4l-2.004-57.983-60.613-14.995 2.003 21.993-7.012 50.985h67.626z"/><path fill="#151563" d="M186.847 341.274s.6-1.562 0-5.739l-2.191 1.08a29.448 29.448 0 002.191 4.659z"/><path fill="#000" d="M130.445 384.92l-.501-7.998-20.037 4.499 15.529 3.998c1.503-.999 4.508-.499 5.009-.499zm-111.546-1.932l59 13.5.5 5.5-59-13.5-.5-5.5z"/><path fill="#262626" d="M73.755 321.77l-1.017-6.728-3.769 5.712a73.62 73.62 0 01-11.906-16.617 65.22 65.22 0 0011.854 18.218l3.717-5.648 1.121 5.063zm21.999-2.018l1.747-6.507 4.043 3.904s2.961-11.569 2.361-20.899c.796 7.7.074 15.48-2.126 22.903l-3.912-4.008-2.113 4.607z"/><path fill="#000C0E" d="M67.315 357.967s-8.516-5.617-12.416-6.318c-5.1-.918-15.687 0-15.687 0s-.725-17.033 2.004-26.493c0 0 3.511 13.681 6.289 17.924 2.778 4.242 5.83 2.472 10.668 6.285 4.838 3.813 4.303 6.064 9.142 8.602z"/><path fill="#594423" d="M102.875 226.891a33.801 33.801 0 00-2.935-8.225s-.143 3.995-3.912 2.837c-5.569-1.705-13.55-2.017-22.17 6.194-8.62 8.212-20.866-3.812-22.731-10.137-1.865-6.324-7.447-21.159-3.326-25.115 4.121-3.956 14.737 1.744 26.187-2.212 11.45-3.956 16.276-13.261 17.554-8.68a72.287 72.287 0 002.425 7.365s2.804-16.526-1.434-23.007c-4.239-6.48-12.22-5.53-19.184-2.993-6.964 2.538-14.567 1.301-18.258 1.301a21.33 21.33 0 00-9.376 2.694 21.26 21.26 0 00-7.186 6.585c-5.073 7.417-10.929 6.155-11.555 13.013-.626 6.858 9.038 20.001 11.555 22.408 1.695 1.601 6.09 9.604 9.95 17.985-.339 1.197-1.304 1.939-3.56 1.457a59.751 59.751 0 006.703 12.337c3.443 4.684 14.137 11.711 29.63 11.868a23.66 23.66 0 0010.929-2.083c11.072-5.322 12.193-17.749 10.694-23.592z"/><path fill="#3E2F1C" d="M64.352 241.193c-6.103-1.106-11.359-3.904-13.446-13.13-2.086-9.227-14.54-28.89-17.592-37.049-3.052-8.159 6.377-8.016 7.055-13.963.43-3.709 3.573-7.808 5.869-10.41a21.292 21.292 0 00-7.72 6.897c-5.074 7.417-10.93 6.155-11.555 13.013-.626 6.858 9.037 20.001 11.554 22.408 1.696 1.601 6.09 9.604 9.95 17.984-.338 1.198-1.303 1.939-3.56 1.458a59.744 59.744 0 006.704 12.336c3.443 4.685 14.136 11.712 29.63 11.868 2.19.081 4.38-.115 6.52-.585-10.29 1.366-17.319-9.721-23.409-10.827z"/><path fill="#674F2D" d="M50.41 164.896s5.986 5.205 16.954 4.281c3.886-.299 14.867-7.131 19.314-4.281 4.447 2.85 6.651 7.626 4.864 16.631a72.31 72.31 0 002.426 7.365s2.804-16.5-1.434-22.981c-4.239-6.48-12.22-5.53-19.184-2.993-6.964 2.538-14.567 1.301-18.258 1.301a17.952 17.952 0 00-4.682.677zm52.467 61.992a33.79 33.79 0 00-2.934-8.224s-.143 3.995-3.912 2.837a20.017 20.017 0 00-15.402 1.301c.404-.091 14.006-3.292 17.71 2.811 3.704 6.103 3.104 15.147-1.578 21.797 6.755-6.064 7.381-15.616 6.116-20.522z"/><path fill="#F4C7C3" d="M224.379 306.309c2.627.169 5.24.504 7.825 1.002 1.708.559 2.412 1.158 2.321 2.069-.091.911-1.917 1.613-4.238 1.561l-4.747-.104-1.161-4.528z"/><path fill="#000" d="M201.985 350.749a6.197 6.197 0 01.353-2.321 5.927 5.927 0 011.18-1.988 5.549 5.549 0 011.82-1.337 5.243 5.243 0 012.166-.47c.744 0 1.481.16 2.166.47a5.535 5.535 0 011.819 1.337 5.93 5.93 0 011.181 1.988c.263.741.383 1.53.353 2.321v28.842c.03.791-.09 1.581-.353 2.321a5.93 5.93 0 01-1.181 1.988 5.52 5.52 0 01-1.819 1.337 5.25 5.25 0 01-2.166.47c-.745 0-1.482-.16-2.166-.47a5.535 5.535 0 01-1.82-1.337 5.927 5.927 0 01-1.18-1.988 6.194 6.194 0 01-.353-2.321v-28.842z"/><path fill="#9D9D97" d="M201.642 350.822a5.865 5.865 0 011.639-4.319 5.895 5.895 0 014.26-1.812 5.924 5.924 0 014.26 1.812 5.885 5.885 0 011.639 4.319v28.906a5.868 5.868 0 01-1.639 4.319 5.895 5.895 0 01-4.26 1.811 5.895 5.895 0 01-5.899-6.13v-28.906z"/><path fill="#000" d="M207.686 357.99s-3.103 2.903-8.907 2.373c-5.804-.531-8.033-1.572-9.981.06-1.948 1.632-4.448 2.513-7.4 0 0 0 2.008-5.778 7.922-5.688 5.914.091 8.033 2.624 12.813 1.683 4.779-.942 6.476-.741 6.476-.741l-.923 2.313z" opacity=".3"/><path fill="#000" d="M204.794 353.243a14.727 14.727 0 01-11.789 0c-6.486-2.743-11.628-.31-12.672 4.005-.893 3.745 3.595 4.706 4.74 1.652 1.004-2.753 5.874-2.773 8.555-1.652 2.681 1.122 7.32.851 11.286-.841l-.12-3.164z"/><path fill="#E1E1E1" d="M206.864 353.243a14.703 14.703 0 01-11.789 0c-6.486-2.743-11.627-.31-12.672 4.005-.893 3.745 3.595 4.706 4.74 1.652 1.004-2.753 5.874-2.773 8.555-1.652 2.681 1.122 7.32.851 11.286-.841l-.12-3.164z"/><path fill="#33300B" d="M207.838 371.957c-1.065 0-1.928-1.166-1.928-2.604 0-1.437.863-2.603 1.928-2.603 1.064 0 1.928 1.166 1.928 2.603 0 1.438-.864 2.604-1.928 2.604z"/><path fill="#161612" d="M207.686 357.989a3.259 3.259 0 01-3.264-3.254 3.26 3.26 0 013.264-3.255 3.259 3.259 0 013.263 3.255 3.259 3.259 0 01-3.263 3.254z"/><path fill="#E1E1E1" d="M209.768 357.989a3.26 3.26 0 01-3.264-3.254 3.26 3.26 0 013.264-3.255 3.259 3.259 0 013.263 3.255 3.259 3.259 0 01-3.263 3.254z"/><path fill="#F5F5F5" d="M253.191 174.041c-.033-30.252 24.482-54.795 54.735-54.795 30.229 0 54.734 24.506 54.734 54.735v80.922c0 30.204-24.485 54.689-54.69 54.689-30.18 0-54.656-24.448-54.689-54.629l-.09-80.922z"/><path fill="#fff" d="M356.633 172.961c0-26.9-21.807-48.707-48.707-48.707-26.901 0-48.708 21.807-48.708 48.707v82.913c0 26.901 21.807 48.708 48.708 48.708 26.9 0 48.707-21.807 48.707-48.707v-82.914z"/><path fill="#E5E5E5" d="M356.633 212.414H257.21v4.007h99.423z"/><path fill="#E5E5E5" d="M305.418 124.254v181.33h5.021v-181.33z"/><path fill="#E2BBA6" d="M233.559 392.267c-9.259-10.765-8.259-25.765-8.259-25.765l12.5-59.5c14.509-5.778 13.652-16.444 13.652-16.444 4.258-6.608.583-25.322.583-25.322s-15.855 10.343-25.103 2.193c-10.554-9.242-8.184-49.583-8.184-49.583s3.173-31.55 30.003-25.792c26.83 5.757 27.563 29.587 26.107 44.806-1.456 15.22 1.085 31.17 11.809 60.076 10.724 28.907 14.268 48.592 15.443 79.211.954 26.964 14.058 74.654 14.058 74.654-52.174 25.292-84.226-6.288-84.226-6.288 3.384-6.758 9.65-45.057 1.617-52.246z"/><path fill="#CEA999" d="M235.52 192.523c-1.075 6.559-2.792 17.092-4.378 27.475 1.004-9.782 2.861-20.616 4.147-27.394l.231-.081z"/><path fill="#CEA999" d="M218.771 217.883l12.371 2.112 3.16 4.004c-.12 5.166 1.725 1.037 3 3 7 2 11.225-5.611 14.725-3 4 2.984 8.949 9.429 5.775 18-4.442 12-2.29 16.193-1.306 21 .984 4.806 8.645 28.737 0 37.999l-10.694-5.499c2-1.5 3.203-2.425 5.643-4.904 4.258-6.608.582-25.322.582-25.322s-15.845 10.343-25.103 2.193a12.057 12.057 0 01-2.008-2.323c-5.271-7.38-6.025-26.113-6.175-30.128-.151-4.016.03-17.132.03-17.132z"/><path fill="#E9D694" d="M217.062 197.057s-7.782 8.01-2.279 16.831c5.502 8.822 16.528 4.666 17.903 13.728 1.376 9.061 11.287 2.473 11.287 2.473s4.137-7.69 8.033-1.642-4.68 15.65-4.68 15.65a9.995 9.995 0 000 11.524c4.168 6.178 9.369-.27 14.058 6.008 4.689 6.278 12.381-.481 16.066 5.797 0 0-2.611-10.463 2.892-13.767 5.503-3.304 12.22-8.851 9.64-18.804-2.149-8.281-2.862-14.398-1.758-19.895 1.105-5.497-7.028-9.622-10.362-11.014-3.334-1.392-2.199-17.022-17.623-18.123-15.423-1.102-17.07 5.517-23.958 5.497-6.888-.02-15.323 1.382-19.219 5.737z"/><path fill="#D6C589" d="M251.593 217.984c-3.896-11.064 5.914-12.276 4.498-19.515-.863-4.455 1.697-9.422 3.796-12.606h.331c15.403 1.122 14.319 16.772 17.622 18.143 3.304 1.372 11.457 5.507 10.363 11.014-1.004 4.786-.542 10.013 1.004 16.801-3.153 4.847-4.488 9.152-2.932 17.332a28.58 28.58 0 01-5.944 4.566c-2.641 1.582-3.404 4.806-3.495 7.74-5.703-3.004-1.365-10.013-1.767-15.289-.402-5.277-6.858-3.415-9.037-12.877-2.179-9.462-10.543-4.245-14.439-15.309z"/><path fill="#E9D694" d="M262.79 191.381s1.205-14.558 20.594-12.966c8.626.711 2.008 12.966 20.816 12.966 11.969 0 5.462 13.517 5.121 16.931-.533 5.257 1.576 8.291 6.024 13.197 3.796 4.175-1.757 17.022-12.852 12.346-11.096-4.676-8.545 6.378-21.348 6.808-12.803.431-13.656-4.685-15.363-14.017-1.707-9.332-16.317-7.73-13.927-17.022 2.39-9.292 9.82-9.922 10.935-18.243z"/><path fill="#292289" d="M285.042 292.461s4.8 4.005 9.128 16.02c4.327 12.015-6.929-6.919-6.929-6.919l-1.325-6.698-.874-2.403z"/><path fill="#D3662F" d="M249.801 381h-38.5l-3.5 16.5 53.5 6 12.5-6-6.5-26.5c-4 3.333-13.1 10-17.5 10z"/><path fill="#F4EFEF" d="M233.249 440.926s-10.948 63.073-9.448 99.073h125.5l-35.03-96.42s-44.533 22.819-81.022-2.653z"/><path fill="#FF8139" d="M246.684 294.692c-4.83 3.443-8.883 6.808-11.883 12.808-6.811 27.263-6.831 23.739-10 60 0 0-.5 13 8.759 24.765 8.003 7.19 1.335 44.397-1.617 52.247 0 0 74.998 32.521 82.338-.932 0 0-7.591-28.986-8.595-55.95-1.105-30.609 2.912-44.407-8.133-73.193-4.188-10.924-9.252-18.437-12.752-23.437-4.73 4.926-14.32 11.532-38.117 3.692z"/><path fill="#D3662F" d="M248.661 395.559C241.311 380.58 228.3 364.5 226.8 346.5l-2 22s-.67 10 8.759 23.765c8.003 7.189 1.335 44.396-1.617 52.246 0 0 6.507 2.814 15.855 5.938 2.39-14.418 6.316-43.776.864-54.89z"/><path fill="#E2BBA6" d="M174.639 425.5c2.4-.4 10.162-7.833 12.662-10.5l7.5 15.5-9.662 5c-.833 2.5-3.1 8-5.5 10-3 2.5-11 2-13 3s-4.5 4.5-6.5 5.5c-1.6.8-2.666-.333-3-1l-3 2.5c-2.4.8-3.333-.333-3.5-1 0 .167-.4.6-2 1s-2.333-.833-2.5-1.5c-1 .5-2 1-3 .5s1-6 4-9c2.4-2.4 8-7.667 10.5-10-7 1.5-10.5 6-13.5 6s-.5-4.5 3-6.5 9.5-5.5 11.5-6 13-3 16-3.5z"/><path fill="#FF8139" d="M242.821 306.186c10.79-7.526 23.3 2.329 24.294 11.065 4.836 42.515-18.8 80.541-29.289 87.007-8.392 5.172-33.162 20.201-44.498 27.069l-8.036-14.682c15.334-12.53 46.695-41.096 49.468-55.122 3.466-17.533-5.294-46.022 8.061-55.337z"/><path fill="#E2BBA6" d="M208.801 381.476l-20.095-4.679s-16.12 1.4-17.914 1.687c-1.794.287-6.237 7.622-6.905 9.034-.669 1.412 2.708 1.975 5.018 0 2.309-1.974 2.051-3.673 4.185-4.092 2.134-.419 29.72 4.415 35.711-1.95z"/><path fill="#CEA999" d="M177.106 382.797s-6.247 3.141-8.142 5.649c-1.896 2.508-3.153 4.583-3.164 5.696-.012 1.113 1.733 2.649 3.896.691 0 0 .419 3.212 3.583 1.536 0 0 1.291 2.86 5.536.48.57-.304.931-.644.884-1.113-.139-1.699 8.84.856 15.668 1.711 7.933.35 11.734-3.091 13.433-4.65 1.698-1.559-18.237-9.273-18.237-9.273l-13.457-.727z"/><path fill="#E2BBA6" d="M211.703 381.267s-11.236-.922-12.551-.922c-1.316 0-6.246-3.314-8.264-3.915a82.56 82.56 0 00-9.037-1.411c-1.717-.201-1.818 1.231.502 3.124 2.319 1.892 6.145.6 7.551 2.503 1.405 1.902 1.707 5.627 5.643 8.531 3.936 2.903 13.314 3.804 13.314 3.804l2.842-11.714z"/><path fill="#000" d="M282.07 454.363c-.18 1.212-.351 2.393-.522 3.565.171-1.172.342-2.353.522-3.565zm.142-.92c0-.321.09-.641.14-1.002-.04.361-.1.681-.14 1.002z" opacity=".3"/><path fill="#00B67A" d="M440.282 521.155c-2.4 4-8.333 14-11 18.5h-2c2.834-5 8.9-15.7 10.5-18.5 2-3.5-10.5-11-4-21.5s21-60 24-82 8-34 10-7-.5 103-13 105c-10 1.6-13.833 4.333-14.5 5.5z"/><path stroke="#fff" d="M440.398 517.113c5.5-13.5 17.8-53.7 23-106.5"/><path fill="#00B67A" stroke="#00B67A" d="M381.898 511.112c-.4 18.4 4.167 26.333 6.5 28h29.5c6.4 0 8.667-9 9-13.5-2.5-85.5 25-162.539 12.5-165.5-19-4.5-57 128-57.5 151z"/><path stroke="#fff" d="M402.939 540.113c-3.495-27.098-3.295-96.435 25.459-157m-10.5 137.5c-3.666 1.167-11.9 5.3-15.5 12.5-3.166-1.333-10.6-5.7-15-12.5m30.5-20.5c-4 .334-12.9 2.3-16.5 7.5-2-1.166-6.8-5.1-10-11.5m26.5-19.5c-2.666 0-9.4.7-15 3.5-2-1.5-6.2-5.8-7-11m23-18.5c-2.166-.166-7.6.2-12 3-1.333-1-4-4.1-4-8.5m19.5-18c-2.5-.666-8.3-.7-11.5 4.5-.666-1.833-2-6.5-2-10.5m18-15c-2.166 0-7 .6-9 3-.5-1.5-1.5-5.1-1.5-7.5m40.5 97c-1.833 2.167-6.9 6.7-12.5 7.5-1.333-1.333-3.8-5.4-3-11m18-12c-1.666 1.5-6 4.6-10 5-1-1-3-4-3-8m14.5-11.5c-1.166 1.5-4.3 4.5-7.5 4.5-1-.833-3-3.3-3-6.5m12.5-14c-.833 1.334-3.2 4-6 4-1.166-.666-3.5-2.8-3.5-6m11-13.5c-.833 1.167-3 3.5-5 3.5-.833-.5-2.5-2.1-2.5-4.5m7.5-13c-.5 1.167-1.7 3.5-2.5 3.5-1 0-2.5-2-2.5-3.5"/><path fill="#00B67A" stroke="#00B67A" d="M368.398 526.61c0 7.2-4 11.334-6 12.5h-7c-6.8 0-9.833-8.333-10.5-12.5-7-18.5 4.5-67 10.5-81s11.009-23.731 7 7c-4.5 34.5 6 65 6 74z"/><path stroke="#fff" d="M358.898 539.613c-.346-1.854-.715-4.04-1.087-6.5m-.913-74c-1.144 6.16-1.825 12.772-2.161 19.5m8.661 46.5c-1.558 1.5-4.858 5.2-5.587 8m0 0c-1.804-.666-6.113-3-8.913-7m8.913 7a294.656 294.656 0 01-1.757-14m5.844-7c-1.396 1.167-4.519 4.2-5.844 7m0 0c-1.885-.666-6.156-2.9-8.156-6.5m8.156 6.5c-.431-4.23-.809-8.774-1.087-13.5m4.931-5c-1.12 1-3.676 3.4-4.931 5m0 0c-1.356-.5-4.669-2.2-7.069-5m7.069 5c-.258-4.38-.429-8.915-.477-13.5m4.408-3c-1.105.5-3.535 1.8-4.408 3m0 0c-1.197-.666-3.892-2.5-5.092-4.5m5.092 4.5c-.047-4.485.023-9.018.247-13.5m3.661-2.5c-.774.334-2.59 1.3-3.661 2.5m0 0c-.779-.166-2.639-1.2-3.839-4"/><path fill="#00B67A" stroke="#00B67A" d="M339.9 520.613c2.8 7.6 3.834 15.5 4 18.5h-3c-.5-3.5-1-13-5.5-18.5s-19.5 1-22.5-7.5-35.5-80.5-41-89.5-36-47 10-9 64.5 75 64 85.5-9.5 11-6 20.5z"/><path stroke="#fff" d="M335.898 515.113c-2.333-14.5-15.7-52.7-50.5-89.5m53 65c-.5 3.167-2.2 10.2-5 13-3.666-.166-13.3-2.1-22.5-8.5m20-18c0 2.834-.8 9-4 11-2.833-.5-10-2.9-16-8.5m11-16.5c.5 2 .8 6.8-2 10-2.833-.5-9.7-2.6-14.5-7m7-14.5c.167 1.834.3 5.9-.5 7.5-2.5-.166-8.3-1-11.5-3m1.5-17c.5 1 1.2 3.5 0 5.5-1.5 2.5-10-2-12.5-3"/></svg>