<svg width="469" height="541" viewBox="0 0 469 541" fill="none" xmlns="http://www.w3.org/2000/svg">
<path d="M468.969 361.645C468.969 306.416 424.197 261.645 368.969 261.645H227.456C166.705 261.645 117.456 310.893 117.456 371.645V539.938H468.969V361.645Z" fill="#E1E1E1"/>
<rect width="228.092" height="11" transform="matrix(-1 0 0 1 413.91 261.645)" fill="#C4C4C4"/>
<path d="M296.357 195.219V259.219C296.357 260.323 295.462 261.219 294.357 261.219H282.857C281.753 261.219 280.857 260.323 280.857 259.219V195.219C280.857 194.114 281.753 193.219 282.857 193.219H294.357C295.462 193.219 296.357 194.114 296.357 195.219Z" fill="#FF8139"/>
<path d="M247.357 195.219V259.219C247.357 260.323 246.462 261.219 245.357 261.219H233.357C232.253 261.219 231.357 260.323 231.357 259.219V195.219C231.357 194.114 232.253 193.219 233.357 193.219H245.357C246.462 193.219 247.357 194.114 247.357 195.219Z" fill="#FF8139"/>
<path d="M231.357 215.219V259.219C231.357 260.323 230.462 261.219 229.357 261.219H222.357C221.253 261.219 220.357 260.323 220.357 259.219V215.219C220.357 214.114 221.253 213.219 222.357 213.219H229.357C230.462 213.219 231.357 214.114 231.357 215.219Z" fill="#152D5D"/>
<rect width="7" height="56" transform="matrix(-0.978505 0.206221 0.206221 0.978505 268.809 205.312)" fill="#666A6A"/>
<rect width="7" height="56" transform="matrix(-0.989573 0.144035 0.144035 0.989573 261.589 205.219)" fill="#C4C4C4"/>
<rect width="7" height="56" transform="matrix(-0.995348 0.0963407 0.0963407 0.995348 253.963 205.219)" fill="#666A6A"/>
<path d="M384.205 539.948V424.316L304.85 429.629H137.419V539.928L384.205 539.948Z" fill="#152D5D"/>
<path d="M384.217 424.32L217.301 424.388L137.301 429.749H304.477L384.217 424.32Z" fill="#1C3B78"/>
<path d="M304.963 539.937V429.715L384.195 424.32V539.937H304.963Z" fill="#00181B"/>
<ellipse rx="8.95223" ry="8.68501" transform="matrix(-1 0 0 1 234.769 456.599)" fill="white"/>
<path d="M239.662 459.088L231.774 451.199C233.894 452.415 234.124 451.033 235.701 451.512C236.5 451.755 240.163 454.842 239.711 456.194C239.498 456.831 239.427 457.168 239.362 457.64C239.3 458.088 239.533 458.864 239.662 459.088Z" fill="#E1E1E1"/>
<path d="M228.316 454.655L236.205 462.543C234.085 461.327 233.855 462.71 232.278 462.23C231.479 461.987 227.816 458.901 228.268 457.548C228.48 456.911 228.551 456.574 228.616 456.102C228.678 455.655 228.445 454.878 228.316 454.655Z" fill="#E1E1E1"/>
<path d="M229.504 452.79C229.446 452.731 229.446 452.636 229.504 452.578C229.563 452.519 229.658 452.519 229.716 452.578L229.504 452.79ZM231.633 454.494C231.692 454.553 231.692 454.648 231.633 454.706C231.574 454.765 231.479 454.765 231.421 454.706L231.633 454.494ZM229.716 452.578L231.633 454.494L231.421 454.706L229.504 452.79L229.716 452.578Z" fill="black"/>
<path fill-rule="evenodd" clip-rule="evenodd" d="M227.063 452.177C228.704 450.188 231.227 448.914 234.057 448.914C239.001 448.914 243.009 452.802 243.009 457.599C243.009 459.214 242.554 460.726 241.763 462.022C242.989 460.536 243.722 458.65 243.722 456.599C243.722 451.802 239.714 447.914 234.769 447.914C231.49 447.914 228.622 449.625 227.063 452.177Z" fill="#E1E1E1"/>
<ellipse rx="8.95223" ry="8.68501" transform="matrix(-1 0 0 1 194.788 456.599)" fill="white"/>
<path d="M196.263 462.52V451.363C196.902 453.722 198.042 452.908 198.818 454.361C199.212 455.098 199.619 459.871 198.343 460.508C197.743 460.808 197.454 460.996 197.074 461.284C196.714 461.556 196.33 462.27 196.263 462.52Z" fill="#E1E1E1"/>
<path d="M191.374 451.363L191.374 462.52C190.735 460.161 189.594 460.975 188.818 459.521C188.425 458.784 188.017 454.012 189.294 453.375C189.894 453.075 190.182 452.887 190.563 452.599C190.923 452.327 191.307 451.613 191.374 451.363Z" fill="#E1E1E1"/>
<path d="M193.536 450.883C193.536 450.8 193.603 450.733 193.686 450.733C193.768 450.733 193.836 450.8 193.836 450.883H193.536ZM193.836 453.593C193.836 453.676 193.768 453.743 193.686 453.743C193.603 453.743 193.536 453.676 193.536 453.593H193.836ZM193.836 450.883V453.593H193.536V450.883H193.836Z" fill="black"/>
<path fill-rule="evenodd" clip-rule="evenodd" d="M186.303 459.43C185.988 458.543 185.816 457.59 185.816 456.599C185.816 451.802 189.824 447.914 194.769 447.914C199.065 447.914 202.655 450.851 203.521 454.768C202.311 451.361 198.978 448.914 195.056 448.914C190.112 448.914 186.104 452.802 186.104 457.599C186.104 458.227 186.172 458.84 186.303 459.43Z" fill="#E1E1E1"/>
<ellipse rx="8.95223" ry="8.68501" transform="matrix(-1 0 0 1 160.022 456.599)" fill="white"/>
<path d="M161.263 462.52V451.363C161.902 453.722 163.042 452.908 163.818 454.361C164.212 455.098 164.619 459.871 163.343 460.508C162.743 460.808 162.454 460.996 162.074 461.284C161.714 461.556 161.33 462.27 161.263 462.52Z" fill="#E1E1E1"/>
<path d="M156.374 451.363L156.374 462.52C155.735 460.161 154.594 460.975 153.818 459.521C153.425 458.784 153.017 454.012 154.294 453.375C154.894 453.075 155.182 452.887 155.563 452.599C155.923 452.327 156.307 451.613 156.374 451.363Z" fill="#E1E1E1"/>
<path d="M158.536 450.883C158.536 450.8 158.603 450.733 158.686 450.733C158.768 450.733 158.836 450.8 158.836 450.883H158.536ZM158.836 453.593C158.836 453.676 158.768 453.743 158.686 453.743C158.603 453.743 158.536 453.676 158.536 453.593H158.836ZM158.836 450.883V453.593H158.536V450.883H158.836Z" fill="black"/>
<path fill-rule="evenodd" clip-rule="evenodd" d="M152.316 452.177C153.957 450.188 156.48 448.914 159.309 448.914C164.254 448.914 168.262 452.802 168.262 457.599C168.262 459.214 167.807 460.726 167.016 462.022C168.242 460.536 168.975 458.65 168.975 456.599C168.975 451.802 164.967 447.914 160.022 447.914C156.743 447.914 153.875 449.625 152.316 452.177Z" fill="#E1E1E1"/>
<ellipse rx="25.9574" ry="0.966138" transform="matrix(-1 0 0 1 313.004 424.341)" fill="white"/>
<ellipse rx="25.9574" ry="0.966138" transform="matrix(-1 0 0 1 313.004 422.408)" fill="white"/>
<path d="M338.969 424.337V422.406L287.06 422.416V424.337H338.969Z" fill="white"/>
<ellipse rx="25.9574" ry="0.966138" transform="matrix(-1 0 0 1 239.008 424.24)" fill="white"/>
<ellipse rx="25.9574" ry="0.966138" transform="matrix(-1 0 0 1 239.008 422.306)" fill="white"/>
<path d="M264.973 424.235V422.305L213.064 422.315V424.235H264.973Z" fill="white"/>
<ellipse rx="25.9574" ry="0.966138" transform="matrix(-1 0 0 1 277.144 428.001)" fill="white"/>
<ellipse rx="25.9574" ry="0.966138" transform="matrix(-1 0 0 1 277.144 426.068)" fill="white"/>
<path d="M303.108 427.997V426.066L251.2 426.077V427.997H303.108Z" fill="white"/>
<ellipse rx="25.9574" ry="0.966138" transform="matrix(-1 0 0 1 203.147 427.9)" fill="white"/>
<ellipse rx="25.9574" ry="0.966138" transform="matrix(-1 0 0 1 203.147 425.966)" fill="white"/>
<path d="M229.111 427.895V425.965L177.203 425.975V427.895H229.111Z" fill="white"/>
<ellipse rx="8.95223" ry="8.68501" transform="matrix(-1 0 0 1 280.764 456.599)" fill="white"/>
<path fill-rule="evenodd" clip-rule="evenodd" d="M273.057 452.177C274.698 450.188 277.221 448.914 280.051 448.914C284.995 448.914 289.003 452.802 289.003 457.599C289.003 459.214 288.549 460.726 287.757 462.022C288.983 460.536 289.716 458.65 289.716 456.599C289.716 451.802 285.708 447.914 280.764 447.914C277.484 447.914 274.617 449.625 273.057 452.177Z" fill="#E1E1E1"/>
<path d="M282.263 462.52V451.363C282.902 453.722 284.042 452.908 284.818 454.361C285.212 455.098 285.619 459.871 284.343 460.508C283.743 460.808 283.454 460.996 283.074 461.284C282.714 461.556 282.33 462.27 282.263 462.52Z" fill="#E1E1E1"/>
<path d="M277.374 451.363L277.374 462.52C276.735 460.161 275.594 460.975 274.818 459.521C274.425 458.784 274.017 454.012 275.294 453.375C275.894 453.075 276.182 452.887 276.563 452.599C276.923 452.327 277.307 451.613 277.374 451.363Z" fill="#E1E1E1"/>
<path d="M279.536 450.883C279.536 450.8 279.603 450.733 279.686 450.733C279.768 450.733 279.836 450.8 279.836 450.883H279.536ZM279.836 453.593C279.836 453.676 279.768 453.743 279.686 453.743C279.603 453.743 279.536 453.676 279.536 453.593H279.836ZM279.836 450.883V453.593H279.536V450.883H279.836Z" fill="black"/>
<path d="M284.904 488.668V539.805H158.037V488.668H284.904Z" fill="#CCD2DD"/>
<path d="M191.375 488.668V539.805H158.037V488.668H191.375Z" fill="#B9C0CD"/>
<path d="M273.586 503.09H167.129" stroke="white" stroke-width="7"/>
<path d="M276.628 505.32L273.569 506.593V499.73H167.162L170.228 497.746H276.628V505.32Z" fill="#E1E1E1"/>
<path d="M336.087 422.315C337.44 419.158 336.651 415.597 336.087 414.211H334.677C335.41 417.65 333.855 421.046 332.986 422.315C334.621 422.653 335.735 422.456 336.087 422.315Z" fill="#F5F5F5"/>
<path d="M289.733 422.315C288.38 419.158 289.17 415.597 289.733 414.211H291.143C290.41 417.65 291.965 421.046 292.834 422.315C291.199 422.653 290.086 422.456 289.733 422.315Z" fill="#F5F5F5"/>
<path d="M303.445 422.771C300.976 420.221 301.225 416.395 301.658 414.801H299.925C298.539 418.535 298.987 421.67 299.384 422.771H303.445Z" fill="#F5F5F5"/>
<path d="M323.027 422.791C325.497 420.24 325.248 416.414 324.815 414.82H326.547C327.933 418.555 327.486 421.69 327.089 422.791H323.027Z" fill="#F5F5F5"/>
<path d="M300.331 426.124C301.684 422.967 300.895 419.405 300.331 418.02H298.922C299.654 421.458 298.099 424.855 297.23 426.124C298.865 426.462 299.979 426.264 300.331 426.124Z" fill="#F5F5F5"/>
<path d="M253.978 426.124C252.625 422.967 253.414 419.405 253.978 418.02H255.387C254.654 421.458 256.209 424.855 257.078 426.124C255.443 426.462 254.33 426.264 253.978 426.124Z" fill="#F5F5F5"/>
<path d="M267.69 426.58C265.221 424.029 265.47 420.203 265.903 418.609H264.171C262.784 422.344 263.232 425.479 263.629 426.58H267.69Z" fill="#F5F5F5"/>
<path d="M287.272 426.595C289.742 424.045 289.493 420.219 289.06 418.625H290.792C292.179 422.36 291.731 425.495 291.334 426.595H287.272Z" fill="#F5F5F5"/>
<path d="M262.483 422.424C263.836 419.267 263.047 415.706 262.483 414.32H261.074C261.807 417.759 260.252 421.156 259.383 422.424C261.018 422.763 262.131 422.565 262.483 422.424Z" fill="#F5F5F5"/>
<path d="M216.13 422.424C214.777 419.267 215.566 415.706 216.13 414.32H217.539C216.806 417.759 218.361 421.156 219.231 422.424C217.596 422.763 216.482 422.565 216.13 422.424Z" fill="#F5F5F5"/>
<path d="M229.842 422.876C227.373 420.326 227.621 416.5 228.055 414.906H226.322C224.936 418.641 225.383 421.776 225.78 422.876H229.842Z" fill="#F5F5F5"/>
<path d="M249.424 422.896C251.893 420.346 251.644 416.52 251.211 414.926H252.944C254.33 418.66 253.882 421.795 253.485 422.896H249.424Z" fill="#F5F5F5"/>
<path d="M224.292 426.124C225.645 422.967 224.856 419.405 224.292 418.02H222.883C223.615 421.458 222.06 424.855 221.191 426.124C222.826 426.462 223.94 426.264 224.292 426.124Z" fill="#F5F5F5"/>
<path d="M177.938 426.124C176.585 422.967 177.375 419.405 177.938 418.02H179.348C178.615 421.458 180.17 424.855 181.039 426.124C179.404 426.462 178.291 426.264 177.938 426.124Z" fill="#F5F5F5"/>
<path d="M191.65 426.58C189.181 424.029 189.43 420.203 189.863 418.609H188.13C186.744 422.344 187.192 425.479 187.589 426.58H191.65Z" fill="#F5F5F5"/>
<path d="M211.232 426.599C213.702 424.049 213.453 420.223 213.02 418.629H214.752C216.139 422.364 215.691 425.498 215.294 426.599H211.232Z" fill="#F5F5F5"/>
<path d="M131.565 395.679C131.565 395.679 120.7 394.217 112.005 383.403C112.005 383.403 114.174 392.495 102.576 402.908C94.543 410.097 100.809 448.395 104.193 455.154C104.193 455.154 72.141 486.734 19.9668 461.442C19.9668 461.442 33.0706 413.751 34.0245 386.787C35.1993 356.169 38.7439 336.484 49.4679 307.577C60.1919 278.67 62.7324 262.72 61.2764 247.501C59.8204 232.282 60.5534 208.451 87.3836 202.694C114.214 196.937 117.387 228.487 117.387 228.487C117.387 228.487 119.756 268.828 109.203 278.07C99.9552 286.22 84.1001 275.877 84.1001 275.877C84.1001 275.877 80.425 294.591 84.6825 301.199C84.6825 301.199 90.5566 307.917 105.066 313.695C120.218 319.702 122.648 363.758 130.681 371.828" fill="#E2BBA6"/>
<path d="M100.618 203.168C101.693 209.726 103.41 220.26 104.996 230.643C103.992 220.86 102.134 210.027 100.849 203.248L100.618 203.168Z" fill="#CEA999"/>
<path d="M117.367 228.527L104.996 230.64L105.619 240.052C105.739 245.218 102.745 245.473 101.469 247.436C96.1275 255.676 96.3876 239.631 91.9694 240.052C87.5513 240.472 85.6867 246.18 88.8597 254.751C92.0328 263.321 80.6259 265.704 79.6419 270.511C78.6579 275.317 70.9964 302.381 79.6419 311.643L92.8863 307.638C89.8876 305.869 87.1331 303.718 84.6926 301.239C80.4352 294.631 84.1102 275.917 84.1102 275.917C84.1102 275.917 99.9553 286.26 109.213 278.11C109.979 277.425 110.654 276.644 111.222 275.787C116.493 268.408 117.246 249.674 117.397 245.659C117.548 241.644 117.367 228.527 117.367 228.527Z" fill="#CEA999"/>
<path d="M93.835 241.124C96.8441 243.704 99.3875 254.382 100.283 259.399C99.2084 247.036 107.696 242.523 116.941 237.899C123.389 234.674 130.038 227.149 127.687 219.624C125.001 211.025 121.777 214.25 113.717 204.037C105.656 193.825 94.5981 194.872 88.999 197.05C79.3268 200.812 78.7894 201.887 72.8787 205.112C67.6047 207.99 66.8964 206.708 57.8332 211.025C46.549 216.399 44.937 231.987 48.6984 241.124C52.4598 250.261 55.1465 249.724 52.4598 257.249C49.7731 264.774 52.4598 267.999 56.2212 271.761C59.2303 274.771 60.3408 279.465 60.5199 281.436C62.1319 278.211 68.58 274.449 75.0281 275.524C81.4762 276.599 80.9389 269.074 85.2376 266.386C89.5363 263.699 91.1483 261.011 88.4616 253.486C85.7749 245.962 90.0736 237.899 93.835 241.124Z" fill="#00181B"/>
<path d="M127.149 227.687C128.224 225.537 129.514 220.055 126.075 215.325C121.776 209.413 120.164 213.175 114.791 205.65C109.417 198.125 103.506 193.825 91.685 195.975C79.8635 198.125 77.1768 204.575 65.8926 207.8C54.9001 210.942 47.987 214.593 46.6435 229.687C46.5777 230.147 46.5484 230.559 46.5484 230.912C46.5761 230.496 46.6079 230.087 46.6435 229.687C47.1125 226.408 49.4353 220.708 56.2205 216.938C65.8926 211.563 71.8034 211.563 83.0875 205.65C94.3717 199.738 102.432 197.05 109.417 205.65C116.403 214.25 122.851 213.713 125 218.013C127.149 222.312 127.149 223.387 127.149 227.687Z" fill="#2B2B2B"/>
<path d="M102.887 451.57C102.887 451.57 118.133 506.227 117.269 540.631H15.3354H0.389648C0.389648 540.631 1.38965 513.436 5.88965 495.436C10.3896 477.436 21.8649 454.224 21.8649 454.224C21.8649 454.224 66.3977 477.043 102.887 451.57Z" fill="#F4EFEF"/>
<path d="M211.681 440.181C198.934 429.195 165.271 405.02 141.39 360.938C131.198 342.124 129.89 329.761 108.89 314.938C100.39 308.938 91.307 308.343 86.3896 301.438C81.4273 294.469 82.8896 283.938 82.8896 283.938C72.3896 285.938 62.6191 286.364 57.8896 281.438C48.3896 308.438 47.0949 303.718 37.8896 310.938C12.3896 330.938 22.9942 375.329 21.8896 405.938C17.8896 440.948 12.3896 472.937 12.3896 472.937C51.8896 512.938 112.005 486.437 112.005 486.437C108.89 467.937 108.89 443.938 112.005 413.938C114.174 393.05 116.39 387.938 116.39 387.938C124.218 399.709 132.095 410.031 132.095 410.031C147.578 436.379 184.814 444.61 201.087 453.762L211.681 440.181Z" fill="#FF8139"/>
<path d="M158.083 427.671C162.622 431.184 190.107 444.506 203.282 450.728L200.105 453.94L199.277 453.607C163.038 440.319 142.173 425.532 135.95 417.845C130.972 411.695 120.454 396.492 115.818 389.659C109.994 426.787 109.994 446.937 109.994 453.497V453.607C109.994 458.762 111.339 477.646 112.012 486.444L111.801 486.551C108.911 487.906 104.095 489.305 102.048 489.835C99.658 453.189 101.906 406.078 107.395 387.413C111.787 372.481 116.301 374.726 118.009 377.715C137.772 411.568 152.411 423.279 158.083 427.671Z" fill="#D3662F"/>
<g style="mix-blend-mode:multiply" opacity="0.3">
<path d="M54.0674 465.008C54.2481 466.219 54.4188 467.401 54.5895 468.572C54.4188 467.401 54.2481 466.219 54.0674 465.008Z" fill="black"/>
</g>
<g style="mix-blend-mode:multiply" opacity="0.3">
<path d="M53.9261 464.087C53.9261 463.767 53.8361 463.446 53.7861 463.086C53.8261 463.446 53.8861 463.767 53.9261 464.087Z" fill="black"/>
</g>
<path d="M54.526 521.938L50.3896 540.938H60.3896C58.3896 531.938 55.1624 524.104 54.526 521.938Z" fill="#FAFAFC"/>
<path d="M54.3896 521.938L50.3896 540.938H42.3896L46.3896 526.438L35.8896 520.438C40.6896 521.238 50.223 521.771 54.3896 521.938Z" fill="#C4C4C4"/>
<path d="M222.426 441.991C221.427 441.969 215.161 441.696 212.804 440.614L211.582 440.126L200.352 453.479C204.657 455.48 212.105 465.395 215.028 468.393C217.951 471.391 228.634 475.518 233.046 475.45C236.576 475.396 237.884 473.581 238.097 472.681C240.224 472.741 242.067 469.902 242.723 468.474C245.275 468.029 246.445 465.127 246.712 463.732C249.53 462.323 246.131 457.306 244.695 457.718C243.26 458.13 236.616 456.321 234.224 455.929C232.31 455.615 227.649 452.739 224.602 450.536C226.924 449.07 231.929 446.226 233.375 446.578C235.182 447.018 240.655 452.161 240.444 449.824C240.232 447.487 233.801 441.539 230.878 441.779C227.954 442.019 224.138 442.028 222.426 441.991Z" fill="#E2BBA6"/>
<path d="M310.062 74.1425C310.141 33.2573 277.019 0 236.134 0C195.304 0 162.205 33.1703 162.205 74.0001C162.205 114.83 195.304 148 236.134 148C276.908 148 309.984 114.917 310.062 74.1425Z" fill="#F5F5F5"/>
<path d="M166.842 70.7072C168.386 33.6714 198.86 4.44141 235.928 4.44141C272.621 4.44141 302.924 33.1013 304.967 69.7365L305.205 74.0015L304.967 78.2663C302.924 114.902 272.621 143.561 235.928 143.561C198.86 143.561 168.386 114.331 166.842 77.2956L166.705 74.0015L166.842 70.7072Z" fill="white"/>
<rect x="167.205" y="74" width="138" height="6" fill="#E5E5E5"/>
<rect x="239.205" y="4" width="140" height="5.99999" transform="rotate(90 239.205 4)" fill="#E5E5E5"/>
<path d="M376.219 365.831C374.087 341.775 365.434 305.819 361.375 290.848C355.284 324.038 343.104 358.726 337.776 371.921C342.952 381.36 350.844 385.75 354.143 386.765V397.423C363.887 391.028 365.815 377.757 365.561 371.921C370.738 370.398 374.823 367.227 376.219 365.831Z" fill="#F5F5F5"/>
<path fill-rule="evenodd" clip-rule="evenodd" d="M215.351 385.642C216.006 385.097 226.81 384.664 240.043 384.664C253.275 384.664 264.08 385.097 264.735 385.642H264.775V413.851H264.719C263.927 414.39 253.182 414.817 240.043 414.817C226.904 414.817 216.158 414.39 215.366 413.851H215.255V385.642H215.351Z" fill="#CCD2DD"/>
<path d="M298.043 391.331V389.484L289.34 390.56L258.015 390.499V392.545H289.315L298.043 391.331Z" fill="#666A6A"/>
<path d="M298.102 389.492H260.666L250.597 390.558H289.324L298.102 389.492Z" fill="#CCD2DD"/>
<ellipse cx="240.16" cy="386.032" rx="23.8757" ry="0.95639" transform="rotate(180 240.16 386.032)" fill="#666A6A"/>
<path d="M245.953 419.623C244.579 422.481 241.011 423.535 238.052 423.179C235.924 422.923 232.762 421.046 232.762 417.419C232.762 414.12 234.926 412.121 236.25 410.048C238.052 407.228 238.006 404.987 238.052 403.75C241.679 407.378 243.045 412.59 243.274 414.743C244.483 414.139 245.564 412.842 245.953 412.27C246.526 413.621 247.327 416.765 245.953 419.623Z" fill="#152D5D"/>
<path d="M242.381 420.054C242.189 422.034 240.633 422.847 239.451 422.847C238.269 422.847 236.427 422.471 236.393 419.922C236.358 417.373 238.462 415.297 239.451 414.512C240.586 415.472 242.592 417.879 242.381 420.054Z" fill="#FAFAFC"/>
<path d="M254.412 419.64C255.369 421.63 257.854 422.364 259.915 422.116C261.396 421.938 263.599 420.63 263.599 418.105C263.599 415.808 262.091 414.415 261.169 412.972C259.915 411.008 259.946 409.447 259.915 408.586C257.388 411.112 256.438 414.742 256.278 416.241C255.436 415.82 254.683 414.918 254.412 414.519C254.013 415.46 253.455 417.65 254.412 419.64Z" fill="#152D5D"/>
<path d="M256.899 419.937C257.033 421.316 258.117 421.882 258.94 421.882C259.763 421.882 261.045 421.621 261.07 419.846C261.094 418.071 259.629 416.625 258.94 416.078C258.15 416.747 256.753 418.423 256.899 419.937Z" fill="#FAFAFC"/>
<path d="M227.443 419.64C226.486 421.63 224.002 422.364 221.941 422.116C220.459 421.938 218.257 420.63 218.257 418.105C218.257 415.808 219.764 414.415 220.686 412.972C221.941 411.008 221.909 409.447 221.941 408.586C224.467 411.112 225.418 414.742 225.577 416.241C226.419 415.82 227.172 414.918 227.443 414.519C227.842 415.46 228.4 417.65 227.443 419.64Z" fill="#152D5D"/>
<path d="M224.956 419.937C224.822 421.316 223.739 421.882 222.916 421.882C222.093 421.882 220.81 421.621 220.786 419.846C220.761 418.071 222.227 416.625 222.916 416.078C223.706 416.747 225.103 418.423 224.956 419.937Z" fill="#FAFAFC"/>
<path d="M389.245 272.637V285.775C389.186 286.711 389.622 288.581 391.841 288.581C394.059 288.581 394.494 286.711 394.434 285.775" stroke="#FAFAFC"/>
<path d="M359.245 272.637V285.775C359.186 286.711 359.622 288.581 361.841 288.581C364.059 288.581 364.494 286.711 364.434 285.775" stroke="#FAFAFC"/>
<path d="M329.245 272.637V285.775C329.186 286.711 329.622 288.581 331.841 288.581C334.059 288.581 334.494 286.711 334.434 285.775" stroke="#FAFAFC"/>
<path d="M392.409 292.27C392.552 291.828 392.793 290.472 392.615 288.576C392.393 286.207 391.219 289.17 391.435 291.357" stroke="black" stroke-width="0.3"/>
<path d="M392.26 288.051L392.713 287.941L392.952 288.914L392.325 289.049L392.26 288.051Z" fill="#FAFAFC"/>
<ellipse rx="12.6362" ry="4.12208" transform="matrix(-0.889438 -0.457056 -0.457056 0.889438 395.577 342.43)" fill="#FAFAFC"/>
<path d="M397.315 355.534C403.136 354.229 406.014 349.998 406.8 348.275L384.355 336.496C383.635 338.372 382.621 343.4 383.271 347.115C384.355 353.317 390.17 357.136 397.315 355.534Z" fill="#FAFAFC"/>
<ellipse rx="12.0108" ry="3.49012" transform="matrix(-0.889438 -0.457056 -0.457056 0.889438 395.538 342.408)" fill="#C4C4C4"/>
<path d="M390.251 292.478L384.03 337.638C384.371 335.798 386.274 335.565 387.183 335.679L393.744 292.478C393.716 291.995 393.369 290.995 392.21 290.859C391.051 290.722 390.421 291.881 390.251 292.478Z" fill="#FAFAFC"/>
<ellipse rx="0.657643" ry="1.15961" transform="matrix(-0.994727 -0.102562 -0.102562 0.994727 392.059 293.301)" fill="#C4C4C4"/>
<path d="M246.025 364.946C240.631 371.321 240.1 377.001 240.509 379.044C239.589 377.205 237.811 372.363 238.057 367.704C238.363 361.881 242.21 358.906 236.795 348.28C231.791 338.461 237.239 332.049 240.509 329.699C237.751 334.297 238.976 341.652 243.267 345.33C247.558 349.008 252.768 356.977 246.025 364.946Z" fill="white"/>
</svg>
