<svg xmlns="http://www.w3.org/2000/svg" fill="none" viewBox="0 0 478 540"><path fill="#E1E1E1" d="M7 346c0-55.228 44.772-100 100-100h370v294H7V346z"/><path fill="#fff" d="M236.5 490C141.7 490 44 523.333 7 540h470c-40.667-16.667-145.7-50-240.5-50z"/><path fill="#E1E1E1" d="M223.5 505.5L215 519h43l-9-13.5h-25.5zm-16 25L198 540h75l-8.5-9.5h-57zm94.518-283.001c-3.318.436-6.429.37-9.018 0h9.018c13.127-1.725 29.482-11.305 29.482-41 0-37.2 32-40.834 48-38H477v79H302.018z"/><path stroke="#E1E1E1" d="M293 247.499c12.833 1.833 38.5-3.8 38.5-41s32-40.834 48-38H477v79H293z"/><path fill="#E1E1E1" d="M137 82h340c0-11.064-10.452-33.19-52.258-33.19C350.548 48.81 352.484 0 299.581 0c-61.291 0-64.516 48.81-103.226 48.81C155.372 48.81 137 66.38 137 82zm-62.005 47.175C36.175 126.497 8.823 155.276 0 170h207c-7.239-11.043-28.166-30.653-53.956-20.747-32.237 12.381-29.523-16.732-78.049-20.078z"/><path fill="#081B42" d="M189.462 382.334c3.555-9.43 4.778-30.686 4.946-40.136l82.996 15.087-.416 51.908-93.527-11.524c.519-1.182 2.447-5.904 6.001-15.335z"/><path fill="#F4C7C3" d="M277.524 250.053c-6.357-8.304-15.416-2.999-25.823-8.78-3.872-2.15-5.013-16.614-5.049-24.275 11.935-5.155 18.116-22.075 17.985-39.779-.162-21.848-11.511-30.566-27.815-30.446-16.305.121-29.78 8.598-29.618 30.446.128 17.38.941 23.67 13.892 37.546 3.583 3.839 7.384 4.298 7.384 7.536 0 7.4-1.99 14.128-4.477 15.559-10.321 5.934-22.628 3.475-28.363 12.193-15.653 23.84-13.397 80.344-13.397 80.344l109.157-3.441s-.232-59.107-13.876-76.903z"/><path fill="#081B42" d="M256.233 232.014s-8.451 2.164-9.413-8.815c-8.335 3.315-14.327 1.961-18.634-.145-.741 9.288-2.48 8.189-5.255 8.96-8.326 2.312-13.413-2.905-23.589 3.7-26.364 17.114-18.023 96.533-18.023 96.533l112.395 2.776s6.013-63.829-12.026-90.194c-9.25-16.188-25.455-12.815-25.455-12.815z"/><path fill="#0C2048" d="M277.154 371.462c-31.996-2.447-69.091-10.632-83.455-14.396l-1.543 12.52c39.074 8.105 72.987 10.365 85.059 10.482l-.061-8.606zm-1.14-91.868s6.042 12.299 5.814 19.759l-.228 7.461-1.158-.518s.448-6.48.34-8.79c-.108-2.309-2.244-11.85-4.768-17.912zm-76.386.566s-6.611 17.571-5.604 22.337l1.048 4.755.666-.299a26.898 26.898 0 01-.729-6.855c.181-2.829 4.619-19.938 4.619-19.938z"/><path fill="#000" d="M233.188 219.105c2.841.604 5.78.582 8.612-.063 0 0-4.098 4.215-8.612.063z" opacity=".1"/><path fill="#00181B" d="M257.174 214.768h-43.016c-4.008-2.969-12.118-13.278-12.488-30.765-.462-21.86 12.488-39.671 35.615-39.671 23.126 0 33.302 20.24 33.302 39.671 0 15.544-8.942 26.987-13.413 30.765z"/><path fill="#666A6A" d="M235.897 156.07c-5.55-5.829-18.347-3.238-24.051-1.214 3.7-4.453 15.726-14.168 33.764-9.715 14.431 3.562 20.814 16.057 22.202 21.859-9.713 4.858-24.977-3.643-31.915-10.93z"/><path fill="#E9E9EA" d="M236.36 167.405c-16.651.324-30.372 5.262-35.152 7.691-2.96 11.334.309 22.264 2.313 26.312 3.546.81 15.078 2.348 32.839 2.024 17.762-.324 28.369-1.484 31.452-2.024 5.551-11.01 4.472-22.129 3.238-26.312-4.625-2.699-18.039-8.015-34.69-7.691z"/><path fill="#fff" d="M218.322 203.026l26.364-35.217c8.141.647 17.577 3.508 21.277 4.857l-22.664 30.36c-6.661.648-19.426.27-24.977 0zm-6.476-.402l26.827-35.218h-1.851l-27.289 35.218h2.313z"/><path fill="#fff" stroke="#fff" d="M224.108 453.898h24.766c20.495 0 39.387-12.471 43.328-32.584 11.684-59.622-.811-126.553-9.376-146.699-4.627-3.759-19.803-11.279-43.493-11.279s-40.409 7.52-45.807 11.279c-21.272 49.749-20.002 105.444-13.752 144.145 3.439 21.293 22.766 35.138 44.334 35.138z"/><path fill="#00181B" d="M213.697 439.52c0-9.942 8.059-18 18-18h8.403c9.941 0 18 8.058 18 18v54.154h-44.403V439.52z"/><path fill="#00181B" d="M258.1 521c0 9.941-8.059 18-18 18h-8.403c-9.941 0-18-8.059-18-18v-54.155H258.1V521z"/><path fill="#fff" d="M173.457 435.395c7.03 8.881 29.756 38.852 40.24 52.728v-6.938l-18.964-74.929-18.038-52.729c-27.752 39.315-12.026 70.767-3.238 81.868zm125.84 0c-7.03 8.881-29.756 38.852-40.24 52.728v-6.938l18.964-74.929 18.038-52.729c27.752 39.315 12.026 70.767 3.238 81.868z"/><path fill="#00181B" d="M179.007 435.857c9.621 11.841 27.135 35.153 34.69 45.328v-27.289l-4.626-.925c-.154-1.388-.74-5.92-1.85-12.951-1.387-8.788-8.788-22.664-14.338-29.139-4.44-5.181-9.867-13.876-12.026-17.576-12.488 11.1-13.876 27.751-1.85 42.552zm114.707.461c-9.621 11.841-28.06 36.078-35.615 46.253v-28.677l5.551-1.387c.154-1.388.74-4.995 1.85-12.026 1.387-8.788 9.25-23.126 13.876-29.139 4.16-5.408 9.867-13.876 12.025-17.576 12.489 11.1 14.339 27.751 2.313 42.552z"/><path fill="#C4C4C4" d="M191.496 409.031l22.201 77.705V469.16l-11.563-43.015c-3.33-7.401-8.479-14.493-10.638-17.114zm89.731 0L258.1 487.199v-17.576l12.488-43.478c3.331-7.401 8.48-14.493 10.639-17.114z"/><path fill="#E9E9EA" d="M193.809 273.511c-4.934 5.063 2.775 33.765 13.413 46.716 20.352 24.775 40.24 25.439 60.592 0 7.863-12.026 18.5-43.363 14.338-47.178-22.201-20.351-69.415-18.964-88.343.462z"/><path fill="#fff" d="M249.312 259.172l-43.478 59.666 4.163 4.625 45.328-63.366c-1.851-.37-4.78-.771-6.013-.925zm-52.728 41.164l29.139-41.165c5.551-1.48 15.264-.925 19.427-.462l-41.166 56.428c-2.96-4.44-6.167-11.717-7.4-14.801z"/><path fill="#FFD300" d="M183.997 321.415l26.337 15.206a16 16 0 017.927 15.389l-.865 8.983-26.337-15.206a15.999 15.999 0 01-7.926-15.389l.864-8.983zm104.629 0l-26.337 15.206a16 16 0 00-7.927 15.389l.865 8.983 26.337-15.206a15.999 15.999 0 007.926-15.389l-.864-8.983z"/><path fill="#E6C00B" d="M203.521 353.067l9.251-14.801 1.85 1.387-9.25 14.339-1.851-.925z"/><path fill="#E7C10B" d="M192.42 346.59l9.713-14.801 8.788 5.088-9.713 14.801-8.788-5.088z"/><path fill="#FF8139" d="M192.883 335.027l-9.713-6.013.925-7.401 10.176 5.551-1.388 7.863zm86.955 0l9.713-6.013-.925-7.401-10.176 5.551 1.388 7.863z"/><path fill="#24AD79" d="M82.8 371.168s-76.289 0-76.289-71.328 48.093-91.232 38.143-143.483c-9.95-52.251 29.854-103.674 84.596-72.159 54.741 31.515 12.32 139.614 31.509 172.516 19.189 32.902 24.865 119.433-77.959 114.454z"/><path fill="#179364" fill-rule="evenodd" d="M95.597 74.563c13.855 11.912 24.585 32.956 16.825 67.107-15.605 68.677-4.681 96.772 9.363 121.746 13.962 24.825-7.545 114.432-105.911 74.093 20.481 33.659 66.721 33.659 66.721 33.659 102.823 4.979 97.148-81.552 77.959-114.454-7.3-12.518-5.683-35.919-3.892-61.846 2.918-42.222 6.298-91.145-27.617-110.67-11.988-6.901-23.259-9.825-33.448-9.635z" clip-rule="evenodd"/><path fill="#fff" d="M81.17 263.339c0-11.018-12.39-33.363-16.174-40.571 21.397 37.1 23.877 13.38 26.82 5.231 2.354-6.52-.227-22.939-1.811-30.334 1.755 6.64 5.978 19.151 8.828 16.072 2.85-3.078 9.94-19.995 13.129-28.069-6.489 19.015-18.912 58.246-16.692 63.049 2.22 4.804 18.225 2.002 25.95 0-20.327 7.353-25.77 20.724-25.95 26.49v264.431h-14.1V263.339z"/></svg>