<svg xmlns="http://www.w3.org/2000/svg" fill="none" viewBox="0 0 473 541"><path fill="#E1E1E1" d="M382.359 452.867c0-60.751-49.248-110-110-110H103.001c-55.229 0-100 44.772-100 100v97.132h379.358v-87.132z"/><path fill="#152D5D" d="M189.359 97.348v443h193v-443h-193z"/><path fill="#0B1B39" d="M221.812 540.334V366.637h54.925v173.697h-54.925z"/><path fill="#152D5D" d="M227.781 540.333V372.895h42.985v167.438h-42.985z"/><path fill="#0B1B39" d="M300.109 540.334V366.637h54.925v173.697h-54.925z"/><path fill="#152D5D" d="M306.078 540.333V372.895h42.985v167.438h-42.985z"/><mask id="a" width="134" height="222" x="219" y="124" maskUnits="userSpaceOnUse"><path fill="#E1E1E1" d="M219.475 190.771c0-36.788 29.822-66.611 66.61-66.611s66.611 29.823 66.611 66.611v154.883H219.475V190.771z"/></mask><g mask="url(#a)"><path fill="#E9E9EA" d="M219.475 124.16h133.221v221.494H219.475V124.16z"/><path fill="#fff" d="M236.78 345.655l75.079-216.104c8.4 2.988 13.5 7.292 15 9.071l-73.5 207.033H236.78zM227.482 345.655l73.877-219.307 4 .533-74.081 218.774h-3.796z"/></g><path fill="#F5F5F5" d="M159.969 174.389c.033-30.253-24.482-54.795-54.735-54.795-30.228 0-54.734 24.505-54.734 54.734v80.922c0 30.204 24.485 54.69 54.69 54.69 30.18 0 54.656-24.449 54.689-54.629l.09-80.922z"/><path fill="#fff" d="M56.525 173.309c0-26.9 21.807-48.707 48.708-48.707 26.9 0 48.707 21.807 48.707 48.707v82.913c0 26.9-21.807 48.707-48.707 48.707-26.9 0-48.708-21.807-48.708-48.707v-82.913z"/><path fill="#E5E5E5" d="M56.525 212.762h99.423v4.007H56.525z"/><path fill="#E5E5E5" d="M107.744 124.602v181.33h-5.021v-181.33z"/><path fill="#F5F5F5" d="M235 384h66v66h-66z"/><path fill="#C4C4C4" d="M301 384h36v66h-36v-66z"/><path fill="#666A6A" d="M242 395h51v11h-51z"/><path fill="#E1E1E1" d="M273 433h19v9h-19z"/><path stroke="#000" stroke-width=".5" d="M275.5 436c-.5.333-1.3 1-.5 1s1.666-1 2-1.5c0 .5.3 1.5 1.5 1.5s1.5-.667 1.5-1c-.167.333.2 1 3 1h7M277 440.498c-.5 0-1.3-.2-.5-1 1-1 2-1.5 2-.5 0 .8-.334 1.334-.5 1.5.5-.833 1.5-2.3 1.5-1.5v1.5c.5-.833 1.5-2.3 1.5-1.5 0 1 .5 1 1.5 1 .8 0 1.666-.667 2-1 .333.167 1.3.5 2.5.5"/><path fill="#C4C4C4" d="M281 450h9v90h-9z"/><path fill="#000" d="M63.517 488.21c0-.354-.1-.709-.156-1.108.045.399.111.754.156 1.108z" opacity=".3"/><path fill="#CEA999" d="M133.72 227.359l-13.69 2.34.689 10.422c.133 5.721-.322 10.312-1.734 12.485-5.911 9.125-8.267-12.196-13.156-11.731-4.89.466-7.168 6.032-3.656 15.523 3.511 9.491-9.112 12.13-10.201 17.452-1.09 5.322-9.568 35.292 0 45.548l14.657-4.435a44.298 44.298 0 01-9.068-7.085c-4.712-7.318-.645-28.041-.645-28.041s17.536 11.454 27.781 2.428a13.307 13.307 0 002.223-2.572c5.834-8.172 6.667-28.917 6.834-33.363.166-4.446-.034-18.971-.034-18.971z"/><path fill="#292289" d="M60.385 309.941s-5.312 4.435-10.101 17.741c-4.79 13.305 7.667-7.662 7.667-7.662l1.467-7.418.967-2.661z"/><path fill="#CEA999" d="M115.184 199.273c1.189 7.263 3.089 18.927 4.845 30.425-1.112-10.833-3.167-22.83-4.59-30.336l-.255-.089z"/><path fill="#E2BBA6" d="M149.435 412.461s-12.023-1.619-21.646-13.594c0 0 2.4 10.068-10.435 21.599-8.89 7.961-1.956 50.371 1.789 57.855 0 0-35.47 34.971-93.21 6.963 0 0 14.502-52.81 15.558-82.669 1.3-33.906 5.223-55.704 17.09-87.714 11.868-32.01 14.68-49.673 13.068-66.526-1.61-16.853-.8-43.242 28.892-49.617 29.692-6.376 33.204 28.562 33.204 28.562s2.622 44.672-9.057 54.906c-10.234 9.025-27.78-2.429-27.78-2.429s-4.067 20.723.644 28.041c0 0 6.501 7.44 22.558 13.837 16.768 6.653 19.458 55.438 28.347 64.375"/><path fill="#D2AB96" d="M121.494 244.736c3.125-.892 9.487-3.343 12.277-4.457v-5.013l-15.626-20.055-53.576 83.004-5.023 14.484 2.233 5.013c7.143 4.011 17.858 1.672 22.323 0-.558-3.714-1.34-12.812 0-19.497 1.34-6.685 8-10.585 11.162-11.699h17.3l5.581-1.114c-1.786-27.185 1.488-38.438 3.349-40.666z"/><path fill="#F5F5F5" d="M117.698 474.348s8.399 27.902 7.443 65.999H4l11.162-29.394 12.872-33.667s49.283 25.269 89.664-2.938z"/><path fill="#FF8139" d="M218.043 411.039c-15.179-2.75-38.971-8.926-58.895-28.008-15.357-14.702-22.224-54.617-39.037-61.314a78.234 78.234 0 01-17.28-9.303c-26.336 8.682-37.232 2.725-42.466-2.73-2.796 1.751-9.195 12.498-13.829 24.595-12.223 31.877-7.778 47.156-9 81.05-1.112 29.859-9.513 61.958-9.513 61.958 8.124 37.044 91.121 1.031 91.121 1.031-3.267-8.692-10.646-49.894-1.789-57.855 12.835-11.531 10.434-21.599 10.434-21.599 9.623 11.997 24.625 18.849 24.625 18.849 22.747 13.05 53.15 13.66 65.629 12.596v-19.27z"/><path fill="#D3662F" d="M218.042 430.308v-7.362s-18.724 2.639-34.448-4.735c-15.724-7.373-29.737-8.482-40.082-11.553-10.346-3.071-20.48-22.685-20.48-22.685-.889 20.345-14.257 23.55-22.391 40.137-6.034 12.307-1.69 44.816.955 60.782 10.346-3.459 17.547-6.575 17.547-6.575-3.267-8.692-10.646-49.894-1.789-57.855 12.834-11.531 10.434-21.599 10.434-21.599 9.623 11.997 24.625 18.849 24.625 18.849 22.746 13.084 53.15 13.66 65.629 12.596z"/><path fill="#E2BBA6" d="M233.372 411.042c-5.357 1.786-12.835.744-15.626 0v18.417c9.488-.744 31.141-3.237 39.624-7.255 8.483-4.019 12.464-9.116 13.394-11.162l-23.997-3.907c.558-2.232 6.138-6.139 9.487-6.697 3.349-.558 2.79-3.348 0-3.348s-10.046 1.116-13.394 5.581c-3.349 4.464-2.79 6.139-9.488 8.371z"/><path fill="#E9D694" d="M118.371 241.515c4.842-.967 13.718-4.43 17.551-6.041.605-10.069-1.815-30.69-18.762-37.456-16.946-6.766-33.892-2.215-39.944 2.417-32.077-3.625-32.48 63.634-28.446 93.639 22.999 21.144 59.715 6.242 68.996 1.812-5.326-34.314-3.228-59.607.605-70.078 2.905 7.249 1.21 13.492 0 15.707z"/><path fill="#D6C589" fill-rule="evenodd" d="M124.598 202.087c-9.557-4.172-25.24-7.364-39.938.867-12.846 7.193-8.455 17.37-3.711 28.364 3.706 8.589 7.627 17.677 3.71 26.229-8.929 19.497-8.37 25.625-2.232 47.351.02.067.038.134.056.201-11.44.384-23.505-2.142-33.155-11.014-4.035-30.004-3.632-97.263 28.445-93.639 6.053-4.631 22.999-9.182 39.945-2.416a25.763 25.763 0 016.88 4.057z" clip-rule="evenodd"/><path fill="#00B67A" d="M25.676 523.357c2.107 3.511 7.315 12.29 9.656 16.24h1.756a9971.658 9971.658 0 00-9.217-16.24c-1.756-3.073 9.217-9.657 3.511-18.874-5.706-9.218-18.435-52.671-21.069-71.984-2.633-19.313-7.022-29.847-8.778-6.145-1.756 23.702.439 90.419 11.412 92.175 8.779 1.404 12.144 3.804 12.729 4.828z"/><path stroke="#fff" d="M25.573 519.808c-4.828-11.851-15.625-47.141-20.19-93.492"/><path fill="#00B67A" stroke="#00B67A" d="M76.929 514.541c.35 16.153-3.658 23.117-5.706 24.58H45.326c-5.618 0-7.608-7.901-7.9-11.851 2.194-75.057-21.947-142.686-10.974-145.285 16.68-3.95 50.038 112.365 50.477 132.556z"/><path stroke="#fff" d="M58.457 539.999c3.068-23.788 2.893-84.656-22.35-137.823M45.327 522.879c3.218 1.024 10.446 4.652 13.606 10.973 2.78-1.171 9.306-5.004 13.168-10.973m-26.774-17.996c3.51.292 11.324 2.019 14.484 6.584 1.756-1.024 5.97-4.477 8.779-10.096m-23.264-17.118c2.341 0 8.252.615 13.168 3.073 1.756-1.317 5.443-5.092 6.145-9.657m-20.19-16.24c1.902-.146 6.671.176 10.534 2.634 1.17-.878 3.511-3.6 3.511-7.462m-17.118-15.802c2.195-.585 7.286-.614 10.096 3.951.585-1.61 1.755-5.706 1.755-9.218m-15.801-13.168c1.902 0 6.145.527 7.9 2.634.44-1.317 1.317-4.477 1.317-6.584M11.09 503.569c1.61 1.902 6.057 5.881 10.973 6.583 1.17-1.17 3.336-4.74 2.634-9.656M8.895 489.96c1.463 1.317 5.267 4.038 8.779 4.39.878-.878 2.633-3.512 2.633-7.023M7.578 477.231c1.025 1.317 3.775 3.951 6.584 3.951.878-.732 2.634-2.897 2.634-5.706m-10.973-12.29c.731 1.17 2.809 3.511 5.267 3.511 1.024-.585 3.072-2.458 3.072-5.267m-9.656-11.851c.731 1.024 2.633 3.073 4.39 3.073.73-.439 2.194-1.844 2.194-3.951m-6.584-11.412c.439 1.024 1.492 3.073 2.194 3.073.878 0 2.195-1.756 2.195-3.073"/><path fill="#00B67A" stroke="#00B67A" d="M78.344 528.148c0 6.32 3.511 9.949 5.267 10.973h6.145c5.97 0 8.632-7.315 9.217-10.973 6.145-16.24-3.95-58.817-9.217-71.106-5.267-12.29-9.664-20.833-6.145 6.145 3.95 30.286-5.267 57.06-5.267 64.961z"/><path stroke="#fff" d="M86.683 539.562c.304-1.628.628-3.547.955-5.706m.8-64.961c1.005 5.407 1.602 11.211 1.898 17.118m-7.604 40.82c1.369 1.317 4.265 4.565 4.906 7.023m0 0c1.583-.585 5.365-2.634 7.823-6.145m-7.823 6.145a258.502 258.502 0 001.541-12.29m-5.13-6.145c1.226 1.024 3.967 3.687 5.13 6.145m0 0c1.655-.585 5.404-2.546 7.16-5.706m-7.16 5.706c.38-3.714.711-7.703.955-11.851m-4.33-4.39c.985.878 3.228 2.985 4.33 4.39m0 0c1.19-.439 4.098-1.932 6.205-4.39m-6.205 4.39c.226-3.845.377-7.826.419-11.851m-3.87-2.634c.97.439 3.104 1.58 3.87 2.634m0 0c1.05-.586 3.416-2.195 4.47-3.951m-4.47 3.951c.041-3.938-.02-7.917-.217-11.851m-3.214-2.195c.68.293 2.273 1.141 3.214 2.195m0 0c.684-.147 2.316-1.054 3.37-3.512"/><path fill="#00B67A" stroke="#00B67A" d="M103.362 522.879c-2.458 6.672-3.365 13.607-3.512 16.24h2.634c.439-3.072.878-11.412 4.828-16.24 3.95-4.828 17.118.878 19.752-6.584 2.633-7.461 31.164-70.667 35.992-78.568 4.828-7.9 31.603-41.259-8.779-7.9-40.381 33.358-56.621 65.839-56.182 75.056.439 9.218 8.339 9.657 5.267 17.996z"/><path stroke="#fff" d="M106.873 518.052c2.048-12.729 13.782-46.263 44.332-78.568M104.68 496.545c.439 2.78 1.931 8.955 4.389 11.413 3.219-.147 11.675-1.844 19.752-7.462m-17.557-15.802c0 2.488.702 7.901 3.511 9.657 2.487-.439 8.779-2.546 14.046-7.462m-9.657-14.485c-.439 1.756-.702 5.97 1.756 8.779 2.487-.439 8.515-2.282 12.729-6.145m-6.145-12.729c-.146 1.61-.263 5.179.439 6.584 2.194-.146 7.286-.878 10.095-2.634m-1.317-14.923c-.439.878-1.053 3.072 0 4.828 1.317 2.195 8.779-1.756 10.974-2.633"/><path fill="#CCD2DD" d="M259 419.5l-36.5-6 37.5-15 32 2.5-33 18.5z"/><path stroke="#000" stroke-width=".3" d="M274.497 406.733c-.385.208-1.084.386-.801-.562.354-1.185.915-1.986 1.331-1.217.333.616.298 1.165.239 1.363.038-.849.198-2.394.531-1.778l.624 1.154c.038-.849.198-2.394.53-1.778.416.769.801.561 1.571.146.615-.333 1.005-1.207 1.123-1.602.326-.01 1.209-.156 2.132-.655M243 414.5l16.5-7.5m-9.5 8l15-7.5m-8.5 8.5l15-8"/><path fill="#152D5D" d="M270.5 400.5L263 404l5.5.5 7-3.5-5-.5z"/><path stroke="#fff" stroke-width=".3" d="M266.5 403l-1 .5h1c.333-.167 1.2-.5 2-.5 1 0 1 .5 0 1M271.147 402.543c-.002.008-.014.036-.079.067a.888.888 0 01-.291.068 3.06 3.06 0 01-.982-.103 3.066 3.066 0 01-.913-.378.884.884 0 01-.224-.198c-.042-.059-.04-.088-.037-.097.002-.009.014-.036.079-.067a.881.881 0 01.291-.068c.257-.024.605.007.982.103.377.095.699.235.913.378.108.072.182.14.224.198.042.058.039.088.037.097zM272.762 401.695c-.002.009-.014.036-.079.067a.881.881 0 01-.291.068 3.034 3.034 0 01-.982-.103 3.051 3.051 0 01-.913-.378.859.859 0 01-.223-.198c-.043-.058-.04-.088-.038-.097.002-.008.014-.036.079-.067a.888.888 0 01.291-.068c.257-.023.606.008.983.103.377.096.698.235.912.378.108.072.182.14.224.198.042.059.04.088.037.097z"/><ellipse cx="241.211" cy="410.819" fill="#fff" rx="4.905" ry="1.305" transform="rotate(-26.238 241.211 410.819)"/></svg>