<svg width="470" height="550" viewBox="0 0 470 550" fill="none" xmlns="http://www.w3.org/2000/svg">
<path d="M353.738 392.242L369.234 92.0954C371.005 57.7888 343.666 29.0019 309.314 29.0019H92.3859C59.2488 29.0019 32.3859 55.8648 32.3859 89.0019V449.148H293.818C325.753 449.148 352.092 424.134 353.738 392.242Z" fill="#E1E1E1"/>
<path d="M358.387 361C358.387 305.772 313.615 261 258.387 261H142.387C81.6354 261 32.3867 310.249 32.3867 371V539H358.387V361Z" fill="#E1E1E1"/>
<rect width="401.325" height="286.051" rx="50" transform="matrix(-1 0 0 1 453.737 46.9336)" fill="#152D5D"/>
<line x1="417.404" y1="158.008" x2="96.4027" y2="158.008" stroke="#E1E1E1" stroke-dasharray="10 10"/>
<path d="M135.103 129.714L146.47 150.701L153.29 136.78L186.633 191.192L219.253 129.714L228.346 150.701L253.319 97.1367L282.149 150.701L295.789 129.714L303.367 144.483L329.133 105.617L357.136 144.483L373.808 119.679L394.606 144.483L415.521 113.39L414.793 272.161H109.403" stroke="#24AD79" stroke-width="2"/>
<path d="M413.584 175.801L381.407 237.566L345.261 171.259L330.078 205.652L308.569 158.93L289.591 214.087L278.204 184.886L262.388 225.119L242.144 194.62L228.86 214.087L189.637 158.93L154.843 225.119L114.609 171.259" stroke="#FB5756" stroke-width="2"/>
<path opacity="0.2" d="M189.637 158.93L154.843 225.119L114.609 171.259V272.499H413.584V175.801L381.407 237.566L345.261 171.259L330.078 205.652L308.569 158.93L289.591 214.087L278.204 184.886L262.388 225.119L242.144 194.62L228.86 214.087L189.637 158.93Z" fill="#FB5756"/>
<path d="M415.402 76V273H109.402" stroke="white" stroke-width="4"/>
<path d="M150.385 424.61C151.507 423.492 152.842 422.609 154.311 422.014C158.45 421.319 162.625 420.864 166.817 420.648C169.047 420.648 177.895 424.506 178.55 424.937C179.204 425.367 179.591 427.533 176.185 427.43C172.78 427.326 150.385 424.61 150.385 424.61Z" fill="#E5B9B7"/>
<path fill-rule="evenodd" clip-rule="evenodd" d="M199.297 410.22C199.916 409.009 200.264 407.642 200.264 406.196C200.264 401.223 196.147 397.191 191.068 397.191C186.515 397.191 182.735 400.431 182.001 404.685L168.418 400.337L153.727 446.239L198.567 460.591L203.008 446.714C199.741 445.332 197.454 442.149 197.454 438.443C197.454 433.47 201.572 429.439 206.65 429.439C207.277 429.439 207.888 429.5 208.48 429.617L213.258 414.689L199.297 410.22Z" fill="#FF8139"/>
<path d="M217.921 315.427C217.921 315.427 219.2 314.7 220.895 313.81C223.325 312.463 225.919 311.436 228.613 310.753C232.197 310.189 240.971 312.46 243.856 313.053C246.74 313.647 252.005 314.953 252.005 314.953C251.692 316.882 254.042 317 254.042 317C253.849 318.38 251.99 318.365 250.473 318.484C249.258 318.494 248.045 318.365 246.859 318.098C246.885 318.892 247.184 319.652 247.707 320.25C247.219 320.527 246.662 320.661 246.101 320.636C242.486 320.631 238.92 321.475 235.692 323.099C231.379 325.636 227.111 329.672 221.059 335.222C218.898 337.188 216.464 338.832 213.832 340.104H213.713L212.821 340.519C211.582 341.101 210.305 341.597 208.999 342.003C208.627 342.122 208.255 342.211 207.898 342.3L217.921 315.427Z" fill="#E5B9B7"/>
<path d="M159.592 526.189C159.135 498.83 148.799 484.041 143.849 455.543H35.892C28.4664 472.642 26.7528 493.731 26.7528 512.54C26.7528 527.587 28.2075 513.18 30.6827 539.018H87.4053H94.3898C100.91 518.739 102.036 523.439 103.369 539.018H159.59C159.613 534.923 159.637 532.024 159.661 530.046C159.824 516.495 159.974 546.104 159.661 530.046C159.64 528.973 159.617 527.696 159.592 526.189Z" fill="#F4EFEF"/>
<path d="M152.965 509.263L150.684 495.58V493.87H130.159L128.449 476.766H91.9603V495.58L26.3947 496.72V509.263C57.4101 501.053 86.449 500.901 97.0915 501.852L95.9513 484.748C97.3196 485.66 99.9422 486.268 101.082 486.458H117.046C122.063 486.458 124.838 484.557 125.598 483.607L126.739 501.281C136.317 503.106 148.214 507.363 152.965 509.263Z" fill="#CFCDCD"/>
<path d="M30.3851 549.419C28.1046 512.38 34.3761 510.383 37.7969 505.844L26.3942 506.933C25.0258 522.62 28.4847 536.347 30.3851 549.419Z" fill="#CFCDCD"/>
<path d="M231.809 309.816C237.758 309.712 231.036 305.735 227.482 304.978C223.928 304.222 216.002 303.109 213.504 306.462C211.005 309.816 192.135 336.555 189.19 337.786C186.246 339.018 170.652 356.469 170.652 356.469C137.401 360.268 160.264 351.856 152.65 348.487C145.036 345.119 143.544 321.274 131.915 309.062C120.286 296.85 121.059 284.163 111.23 286.953C99.8986 290.158 100.062 286.419 100.062 286.419L99.1105 284.712C96.6967 278.641 95.116 272.272 94.4114 265.778C99.3484 266.832 98.9618 267.173 103.512 265.942C130.279 258.626 105.49 187.03 105.49 187.03C98.129 167.503 49.0709 183.083 42.8996 194.005C36.9514 204.51 45.5763 220.521 45.5763 220.521C39.4496 220.298 38.7507 225.24 38.7507 225.24C37.5016 235.864 52.8034 242.749 52.8034 242.749L54.2905 244.619C67.8822 263.716 64.4768 277.263 61.9488 283.036C61.3838 284.237 56.5954 287.042 51.6881 286.953C45.4425 286.864 28.1777 287.294 19.4784 308.751C2.95716 349.453 18.1995 409.86 26.9881 415.766C35.7766 421.672 119.87 433.572 119.87 433.572L128.435 439.285L138.607 442.253C141.863 443.336 148.302 446.229 156.452 448.396C166.668 451.067 168.155 451.675 170.921 452.016C174.029 452.387 173.523 452.684 177.434 453.04C180.408 453.307 180.408 450.918 180.408 450.918L185.553 452.239C189.747 451.957 188.022 447.179 188.022 447.179C188.52 446.997 188.965 446.694 189.316 446.296C189.666 445.899 189.912 445.421 190.03 444.905C190.148 444.389 190.135 443.851 189.992 443.341C189.849 442.832 189.581 442.366 189.211 441.986C188.319 441.259 180.289 436.659 178.594 435.575C176.899 434.492 170.192 430.753 170.192 430.753C170.192 430.753 179.932 433.379 180.482 434.121C183.292 436.465 186.231 438.65 189.286 440.665C191.055 441.555 192.795 438.691 191.665 437.193C190.535 435.694 183.992 429.358 181.003 428.052C178.014 426.746 172.839 422.844 170.415 421.731C167.991 420.618 167.441 422.799 160.467 422.606C153.492 422.414 156.005 422.517 154.92 422.295C153.834 422.072 152.258 421.716 150.384 421.345C148.268 420.926 146.769 421.074 145.046 421.746L127.974 417.799H150.072C148.183 373.313 144.629 350.002 144.629 350.002C144.629 350.002 137.447 387.721 162.92 384.13C188.394 380.539 193.86 350.562 195.956 349.271C196.893 348.693 199.406 347.209 202.306 345.042C216.106 343.217 212.165 331.109 220.642 331.109C230.441 331.109 232.389 330.545 232.389 328.735C232.389 326.924 222.604 325.99 216.225 325.767C217.281 321.197 217.43 316.864 219.05 312.843C220.924 308.139 227.393 309.89 231.809 309.816Z" fill="#F4C7C3"/>
<path opacity="0.1" d="M107.408 264.22C113.52 258.165 109.936 241.131 111.111 235.003C112.285 228.874 102.099 223.384 102.337 207.759C102.515 196.096 95.1693 183.661 91.4219 178.082C98.1285 178.928 103.437 181.643 105.489 187.089C105.489 187.089 127.676 251.073 107.408 264.22Z" fill="black"/>
<path opacity="0.1" d="M94.3661 288.242C92.2099 286.253 88.6855 264.5 88.6855 264.5L94.3661 265.984C95.0692 272.478 96.6499 278.847 99.0652 284.918L100.017 286.624C100.017 286.624 103.749 289.117 111.259 287.989L109.594 288.553C104.478 289.666 96.5224 290.23 94.3661 288.242Z" fill="black"/>
<path d="M188.327 335.944C183.196 339.365 178.065 342.785 178.065 342.785C157.54 354.188 162.362 352.316 154.361 350.001C141.93 346.336 146.712 312.623 135.083 300.381C123.455 288.139 121.06 284.207 111.29 287.026C101.52 289.846 99.394 282.857 98.2043 282.189C98.472 284.059 94.8138 290.662 91.8694 291.597L89.6983 299.55L82.263 291.611C72.7905 289.757 62.5446 281.848 62.5446 281.848C61.9647 283.05 64.0317 289.668 53.2505 286.967C47.1982 285.483 28.1935 287.293 19.4942 308.75C1.33721 353.488 12.966 404.25 27.0039 415.765C35.1827 422.472 119.886 433.571 119.886 433.571L120.005 437.34L128.451 439.284C127.96 427.769 136.02 419.712 136.02 419.712L127.975 417.798H150.073C148.184 373.312 144.63 350.001 144.63 350.001C144.63 350.001 137.448 387.72 162.921 384.129C180.245 381.681 186.047 369.012 194.599 357.609C187.282 350.798 188.327 335.944 188.327 335.944Z" fill="white"/>
<path opacity="0.1" d="M120.049 413.125L115.276 381.162L110.815 351.367L109.134 340.104C110.21 333.906 110.41 327.588 109.729 321.334C108.822 312.282 109.224 300.901 104.643 290.41C104.643 290.41 106.651 299.669 105.982 306.302C105.565 310.472 102.457 323.025 104.495 332.715C106.532 342.404 109.923 344.823 109.268 358.133C108.614 371.443 107.96 393.196 120.049 413.125Z" fill="black"/>
<path d="M125.252 438.444L90.9804 430.465L92.1228 465.803H128.68L125.252 438.444Z" fill="#F4EBEA"/>
<path d="M124.94 438.568L128.928 466.504H122.661C120.382 463.084 119.812 455.672 120.382 451.111C120.952 446.55 122.091 441.419 111.836 440.278C103.632 439.366 94.7449 437.998 91.3266 437.428L89.6175 430.586L91.3266 431.156L124.94 438.568Z" fill="#DCD4D3"/>
<path d="M127.537 478.344L126.605 465.805H92.1227L92.6128 478.344H127.537Z" fill="black"/>
<path d="M118.969 478.344V465.805H103.546V478.344H118.969Z" stroke="#FFD300" stroke-width="3"/>
<path d="M7.58416 308.579C13.2945 291.871 30.6633 286.069 39.0206 285.313L62.5883 281.82C62.5883 281.82 71.5107 317.166 88.7755 340.699L91.4224 398.495L129.224 417.785L128.986 418.023C126.967 420.187 125.435 422.756 124.492 425.558C123.548 428.36 123.214 431.33 123.513 434.271L123.632 438.04L120.108 437.268C120.108 437.268 68.5283 431.552 42.0438 425.558C39.8429 425.053 32.9216 423.177 32.9216 423.177L7.58411 412.228C7.58411 412.228 -8.60993 355.974 7.58416 308.579Z" fill="#00181B"/>
<path d="M184.906 335.376L183.121 337.114C175.784 342.788 165.396 350.745 157.782 347.377C150.168 344.008 148.586 320.667 142.608 304.879C138.607 294.329 134.384 283.423 118.294 281.82L98.1445 282.162C98.6026 283.727 99.2677 285.224 100.122 286.613L100.42 286.791C101.548 287.272 102.718 287.649 103.914 287.919C103.914 287.919 112.465 314.42 109.149 340.121L120.213 414.18L129.224 417.785H150.043C148.154 373.27 147.515 377.603 147.515 377.603C147.515 377.603 132.309 398.261 157.782 394.67C172.281 392.622 183.121 380.987 191.865 361.301C189.575 357.547 183.508 344.13 184.906 335.376Z" fill="#00181B"/>
<path d="M128.679 495.442L124.68 438.445C126.394 438.825 130.621 439.813 133.819 440.725L133.819 440.725C137.818 441.865 141.816 443.005 144.672 444.145C146.957 445.057 151.717 446.805 153.811 447.565L159.523 495.442H128.679Z" fill="#00181B"/>
<path d="M93.2637 497.153L90.9789 431.037L21.8636 413.938L24.1484 439.016L16.1516 497.153H93.2637Z" fill="#00181B"/>
<path d="M85.7414 349.333L84.5815 341.661L80.2839 348.175C74.8977 342.519 70.3281 336.142 66.707 329.227C70.0177 336.856 74.5868 343.878 80.2244 350L84.4625 343.561L85.7414 349.333Z" fill="black"/>
<path d="M110.828 347.033L112.821 339.613L117.431 344.065C117.431 344.065 120.806 330.874 120.122 320.234C121.03 329.014 120.207 337.886 117.698 346.35L113.237 341.78L110.828 347.033Z" fill="black"/>
<path d="M118.949 241.147C118.244 237.89 117.12 234.737 115.603 231.769C115.603 231.769 115.44 236.324 111.142 235.003C104.792 233.06 95.6916 232.703 85.8621 242.067C76.0326 251.43 62.0691 237.719 59.9427 230.507C57.8162 223.296 51.4515 206.38 56.1506 201.869C60.8498 197.358 72.9544 203.857 86.0108 199.347C99.0672 194.836 104.569 184.226 106.027 189.449C106.798 192.296 107.721 195.1 108.793 197.848C108.793 197.848 111.99 179.003 107.157 171.613C102.324 164.224 93.2231 165.307 85.2822 168.2C77.3413 171.094 68.6717 169.684 64.4633 169.684C60.7093 169.868 57.0494 170.919 53.7721 172.755C50.4948 174.591 47.6896 177.162 45.5776 180.264C39.793 188.722 33.1161 187.283 32.4023 195.103C31.6885 202.923 42.7076 217.909 45.5776 220.655C47.5108 222.48 52.5222 231.605 56.9239 241.161C56.5373 242.527 55.4369 243.372 52.8642 242.823C54.8498 247.795 57.4153 252.517 60.5077 256.89C64.4336 262.232 76.6275 270.245 94.2937 270.423C98.5778 270.633 102.85 269.819 106.755 268.049C119.38 261.98 120.659 247.809 118.949 241.147Z" fill="#594423"/>
<path d="M75.0207 257.455C68.0612 256.194 62.0684 253.004 59.6891 242.483C57.3098 231.963 43.1084 209.542 39.6287 200.238C36.1489 190.934 46.9004 191.097 47.6736 184.316C48.1644 180.087 51.7482 175.413 54.3654 172.445C50.8272 174.304 47.8033 177.005 45.562 180.31C39.7774 188.768 33.1005 187.328 32.3867 195.148C31.6729 202.968 42.692 217.955 45.562 220.7C47.4952 222.525 52.5066 231.651 56.9083 241.207C56.5217 242.572 55.4212 243.418 52.8486 242.869C54.8342 247.841 57.3997 252.562 60.4921 256.936C64.4179 262.278 76.6118 270.29 94.2781 270.468C96.7749 270.561 99.2733 270.336 101.713 269.801C89.9805 271.359 81.9653 258.716 75.0207 257.455Z" fill="#3E2F1C"/>
<path d="M59.125 170.456C59.125 170.456 65.9506 176.391 78.4568 175.338C82.8882 174.997 95.4093 167.206 100.48 170.456C105.551 173.706 108.064 179.151 106.027 189.42C106.798 192.266 107.721 195.07 108.793 197.818C108.793 197.818 111.99 179.003 107.157 171.613C102.324 164.224 93.2233 165.307 85.2824 168.2C77.3415 171.094 68.6719 169.684 64.4635 169.684C62.6577 169.705 60.8625 169.964 59.125 170.456Z" fill="#674F2D"/>
<path d="M118.949 241.147C118.245 237.89 117.12 234.738 115.603 231.77C115.603 231.77 115.44 236.325 111.142 235.004C108.263 234.075 105.227 233.727 102.211 233.982C99.196 234.236 96.2617 235.089 93.5801 236.488C94.0411 236.384 109.551 232.734 113.774 239.693C117.998 246.653 117.314 256.965 111.975 264.548C119.678 257.633 120.392 246.742 118.949 241.147Z" fill="#674F2D"/>
<path d="M219.869 324.863C222.864 325.057 225.844 325.438 228.792 326.006C230.74 326.644 231.543 327.326 231.438 328.365C231.334 329.404 229.252 330.205 226.606 330.146L221.193 330.027L219.869 324.863Z" fill="#F4C7C3"/>
<path d="M230.438 375.149C230.438 375.149 242.767 373.49 252.634 361.219C252.634 361.219 250.173 371.536 263.334 383.353C272.449 391.511 265.339 434.971 261.499 442.64C261.499 442.64 297.87 478.476 357.076 449.776C357.076 449.776 342.206 395.658 341.124 365.06C339.791 330.314 335.768 307.977 323.599 275.174C311.43 242.372 308.547 224.272 310.199 207.001C311.851 189.731 311.02 162.689 280.573 156.156C250.127 149.623 246.527 185.425 246.527 185.425C246.527 185.425 243.838 231.203 255.813 241.69C266.308 250.939 284.299 239.202 284.299 239.202C284.299 239.202 288.47 260.437 283.639 267.936C283.639 267.936 276.973 275.56 260.508 282.116C243.313 288.934 240.556 338.927 231.44 348.085" fill="#E2BBA6"/>
<path d="M265.557 156.688C264.337 164.13 262.389 176.083 260.589 187.865C261.728 176.764 263.836 164.471 265.295 156.778L265.557 156.688Z" fill="#CEA999"/>
<path d="M246.55 185.469L260.588 187.866L259.882 198.547C259.745 204.409 263.143 204.699 264.59 206.926C270.652 216.277 270.357 198.069 275.37 198.547C280.384 199.024 282.5 205.5 278.899 215.226C275.298 224.952 288.243 227.656 289.359 233.11C290.476 238.564 299.17 269.276 289.359 279.786L274.33 275.241C277.733 273.234 280.858 270.794 283.628 267.98C288.459 260.481 285.059 249.164 285.059 249.164C285.059 249.164 267.079 260.901 256.573 251.653C255.704 250.875 254.938 249.989 254.294 249.017C248.312 240.643 246.687 209.466 246.516 204.909C246.345 200.353 246.55 185.469 246.55 185.469Z" fill="#CEA999"/>
<path d="M273.758 199.55C270.58 202.273 267.895 213.546 266.949 218.841C268.084 205.791 259.122 201.027 249.36 196.146C242.552 192.741 235.53 184.798 238.012 176.855C240.849 167.776 244.254 171.181 252.764 160.4C261.275 149.62 272.952 150.725 278.864 153.024C289.077 156.996 289.645 158.131 295.886 161.535C301.455 164.573 302.203 163.219 311.773 167.777C323.688 173.45 325.39 189.904 321.418 199.55C317.447 209.196 314.61 208.628 317.446 216.572C320.283 224.515 317.446 227.919 313.475 231.891C310.297 235.068 309.125 240.024 308.936 242.104C307.234 238.7 300.425 234.728 293.616 235.863C286.808 236.998 287.375 229.054 282.836 226.217C278.297 223.38 276.595 220.543 279.432 212.6C282.269 204.657 277.729 196.146 273.758 199.55Z" fill="#00181B"/>
<path d="M238.58 185.365C237.445 183.095 236.084 177.308 239.715 172.315C244.254 166.074 245.956 170.045 251.63 162.102C257.304 154.158 263.545 149.619 276.028 151.889C288.51 154.158 291.347 160.967 303.262 164.371C314.869 167.688 322.169 171.543 323.588 187.475C323.657 187.961 323.688 188.397 323.688 188.769C323.659 188.329 323.625 187.898 323.588 187.475C323.092 184.014 320.64 177.997 313.475 174.017C303.262 168.343 297.021 168.343 285.106 162.102C273.191 155.861 264.68 153.024 257.304 162.102C249.928 171.18 243.119 170.613 240.85 175.152C238.58 179.691 238.58 180.826 238.58 185.365Z" fill="#2B2B2B"/>
<path d="M262.981 438.57C262.981 438.57 245.668 500.958 246.648 539.998H362.362H379.328C379.328 539.998 378.158 508.774 373.051 488.348C367.945 467.922 354.923 441.581 354.923 441.581C354.923 441.581 304.388 467.476 262.981 438.57Z" fill="#F4EFEF"/>
<path d="M219.29 335.721C198.859 355.275 165.955 365.224 148.934 362.387V387.143C161.416 391.226 201.133 395.863 227.384 380.532C227.384 380.532 238.581 376.005 247.659 366.359V404.698C247.659 404.698 246.4 466.615 246.4 481.562C246.4 481.562 326.089 521.134 370.912 475.743C370.912 475.743 368.607 444.319 365.481 393.991C362.623 347.97 365.675 301.677 336.739 278.982C326.293 270.789 319.601 261.623 319.601 261.623C316.657 260.222 304.956 259.577 281.702 268.202C276.122 276.038 265.815 276.712 256.17 283.521C232.339 300.342 235.037 320.654 219.29 335.721Z" fill="#CCD2DD"/>
<g style="mix-blend-mode:multiply" opacity="0.3">
<path d="M318.381 453.82C318.176 455.195 317.982 456.536 317.788 457.865C317.982 456.536 318.176 455.195 318.381 453.82Z" fill="black"/>
</g>
<g style="mix-blend-mode:multiply" opacity="0.3">
<path d="M318.54 452.773C318.54 452.409 318.642 452.046 318.699 451.637C318.654 452.046 318.586 452.409 318.54 452.773Z" fill="black"/>
</g>
<path d="M317.861 518.422L322.555 539.983H311.207C313.477 529.77 317.139 520.881 317.861 518.422Z" fill="#E1E1E1"/>
<path d="M318.015 518.421L322.554 539.982H331.632L327.093 523.527L339.008 516.719C333.561 517.627 322.743 518.232 318.015 518.421Z" fill="#C4C4C4"/>
<path fill-rule="evenodd" clip-rule="evenodd" d="M261.369 486.623C252.42 473.528 254.701 431.611 261.842 411.835C267.607 395.87 261.057 370.949 256.99 355.476C255.932 351.451 255.042 348.066 254.58 345.643C253.392 339.404 247.622 345.399 239.203 354.146C231.787 361.851 222.315 371.692 212.108 377.188C196.604 385.537 166.693 384.487 149.256 382.45V386.188C161.738 390.271 201.455 394.908 227.707 379.577C227.707 379.577 238.903 375.05 247.981 365.404V403.743C247.981 403.743 246.722 465.66 246.722 480.607C246.722 480.607 252.314 483.384 261.369 486.623Z" fill="#B8BFCD"/>
<path d="M148.498 387.601V363.266C148.498 362.2 149.335 361.321 150.399 361.268L166.25 360.486C167.392 360.43 168.349 361.341 168.349 362.484V390.646C168.349 391.902 167.205 392.847 165.971 392.61L150.121 389.565C149.179 389.384 148.498 388.56 148.498 387.601Z" fill="#FAFAFC"/>
<ellipse cx="157.978" cy="366.807" rx="2.33345" ry="2.22456" fill="#FFD300"/>
<path d="M126.355 349.378L122.907 363.17L108.541 355.842L102.075 340.326L111.127 338.746L126.355 349.378Z" fill="#CEA999"/>
<path d="M137.808 363.162C141.303 364.181 146.466 366.635 148.468 366.513V384.012C134.673 378.305 115.499 370.003 106.123 358.303C98.6224 348.944 96.0432 337.401 97.6737 331.477C105.912 341.847 121.346 358.541 121.346 357.23C121.346 355.592 121.164 348.493 120.072 345.58C118.979 342.668 113.867 337.857 116.051 335.49C118.236 333.124 124.168 342.18 129.993 349.643C135.818 357.106 133.44 361.888 137.808 363.162Z" fill="#E2BBA6"/>
<path d="M114.662 349.783L73.396 324.196L134.083 324.196L171.647 343.281L114.662 349.783Z" fill="white"/>
<path d="M139.865 342.069C139.294 342.128 138.356 341.994 139.175 340.986C140.199 339.725 141.282 339.035 141.401 340.178C141.495 341.092 141.178 341.74 141.007 341.95C141.48 340.939 142.448 339.146 142.543 340.059C142.638 340.973 142.701 341.582 142.721 341.773C143.193 340.762 144.162 338.968 144.256 339.882C144.375 341.024 144.946 340.965 146.088 340.846C147.002 340.752 147.913 339.888 148.254 339.467C148.655 339.618 149.798 339.884 151.169 339.742" stroke="#00181B" stroke-width="0.3"/>
<path d="M97.7613 335.692L121.539 334.87M106.002 339.809L127.96 338.236M113.385 344.283L135.593 342.103" stroke="#00181B" stroke-width="0.3"/>
<path d="M138.143 332.5L127.289 332.984L133.71 336.349L143.957 335.615L138.143 332.5Z" fill="#FF8139"/>
<path d="M132.037 333.529L130.573 333.634L131.786 334.135C132.274 334.101 133.493 334.131 134.463 334.532C135.676 335.034 135.426 335.64 133.962 335.745" stroke="white" stroke-width="0.3"/>
<path d="M137.94 335.332C137.922 335.357 137.877 335.388 137.775 335.393C137.674 335.399 137.537 335.379 137.372 335.327C137.042 335.225 136.63 335.01 136.218 334.703C135.805 334.395 135.481 334.062 135.289 333.775C135.193 333.631 135.134 333.506 135.111 333.407C135.087 333.308 135.103 333.257 135.122 333.232C135.14 333.207 135.184 333.177 135.287 333.171C135.388 333.165 135.524 333.186 135.69 333.237C136.019 333.339 136.432 333.554 136.844 333.862C137.257 334.169 137.581 334.503 137.773 334.789C137.869 334.933 137.928 335.058 137.951 335.157C137.975 335.257 137.959 335.307 137.94 335.332Z" stroke="white" stroke-width="0.3"/>
<path d="M140.327 335.114C140.308 335.139 140.264 335.169 140.162 335.174C140.061 335.18 139.924 335.16 139.759 335.109C139.429 335.006 139.017 334.791 138.604 334.484C138.192 334.176 137.868 333.843 137.676 333.556C137.579 333.412 137.521 333.287 137.497 333.189C137.474 333.089 137.49 333.038 137.508 333.013C137.527 332.988 137.571 332.958 137.673 332.952C137.775 332.947 137.911 332.967 138.077 333.018C138.406 333.121 138.819 333.336 139.231 333.643C139.643 333.95 139.967 334.284 140.16 334.571C140.256 334.715 140.314 334.84 140.338 334.938C140.362 335.038 140.346 335.089 140.327 335.114Z" stroke="white" stroke-width="0.3"/>
<ellipse cx="97.4393" cy="330.329" rx="6.43822" ry="1.7135" transform="rotate(-3.77182 97.4393 330.329)" fill="#CCD2DD"/>
<path d="M120.32 346.936C121.125 348.085 121.23 350.096 121.182 350.958L129.084 348.66C123.337 342.338 115.867 339.034 115.292 340.614C114.717 342.195 119.315 345.499 120.32 346.936Z" fill="#E2BBA6"/>
</svg>
