<svg width="470" height="541" viewBox="0 0 470 541" fill="none" xmlns="http://www.w3.org/2000/svg">
<path d="M0 313.66C0 252.909 49.2487 203.66 110 203.66H370C425.228 203.66 470 248.432 470 303.66V539.999H0V313.66Z" fill="#E1E1E1"/>
<path d="M192 163.5V196H161.5V163.5C161.5 157.5 163.5 147.5 177 147.5C190.5 147.5 192 158 192 163.5Z" fill="#C5C5DD"/>
<rect width="31" height="3" transform="matrix(-1 0 0 1 192 196)" fill="#8E5841"/>
<path d="M168 159.5C168.4 155.1 170.833 153.333 172 153L167.5 152C165.5 153.2 164.333 156.167 164 157.5L168 159.5Z" fill="white"/>
<rect width="139" height="8" transform="matrix(-1 0 0 1 140 89)" fill="#666A6A"/>
<path d="M85 50V87C85 88.1046 84.1046 89 83 89H76C74.8954 89 74 88.1046 74 87V50C74 48.8954 74.8954 48 76 48H83C84.1046 48 85 48.8954 85 50Z" fill="#FF8139"/>
<rect width="52" height="13" transform="matrix(-1 0 0 1 139 75)" fill="white"/>
<rect width="55" height="2" transform="matrix(-1 0 0 1 140 87)" fill="#C4C4C4"/>
<rect width="55" height="2" transform="matrix(-1 0 0 1 140 74)" fill="#C4C4C4"/>
<path d="M140 75V88.5H137C137.5 87.6667 138.5 85.2 138.5 82C138.5 78.8 137.5 76 137 75H140Z" fill="#C4C4C4"/>
<rect width="32.1455" height="8.03636" transform="matrix(1 -1.74846e-07 -1.74846e-07 -1 85.6191 73.3828)" fill="white"/>
<rect width="34" height="1.23636" transform="matrix(1 -1.74846e-07 -1.74846e-07 -1 85 65.9648)" fill="#FF8139"/>
<rect width="34" height="1.23636" transform="matrix(1 -1.74846e-07 -1.74846e-07 -1 85 74)" fill="#FF8139"/>
<path d="M85 73.3828L85 65.0374L86.8545 65.0374C86.5455 65.5525 85.9273 67.0774 85.9273 69.0555C85.9273 71.0337 86.5455 72.7646 86.8545 73.3828L85 73.3828Z" fill="#FF8139"/>
<path opacity="0.4" d="M1 114.5L128.5 97H1V114.5Z" fill="#666A6A"/>
<rect width="139" height="8" transform="matrix(-1 0 0 1 255 199)" fill="#666A6A"/>
<path opacity="0.4" d="M116 224.5L243.5 207H116V224.5Z" fill="#666A6A"/>
<path d="M395.597 85.1637C395.687 38.5434 357.919 0.621094 311.299 0.621094C264.742 0.621094 227 38.4443 227 85.0013C227 131.558 264.742 169.381 311.299 169.381C357.792 169.381 395.508 131.657 395.597 85.1637Z" fill="#F5F5F5"/>
<path d="M232.287 81.2446C234.048 39.0137 268.797 5.68359 311.064 5.68359C352.903 5.68359 387.457 38.3637 389.787 80.1378L390.058 85.001L389.787 89.864C387.457 131.638 352.903 164.318 311.064 164.318C268.797 164.318 234.048 130.988 232.287 88.7572L232.131 85.001L232.287 81.2446Z" fill="white"/>
<rect x="232.701" y="85" width="157.357" height="6.84163" fill="#E5E5E5"/>
<rect x="314.801" y="5.18359" width="159.638" height="6.84162" transform="rotate(90 314.801 5.18359)" fill="#E5E5E5"/>
<path d="M231.158 365H0C0 431.274 53.7258 485 120 485H318V427.222C315.763 427.088 307.344 421.162 291.57 398.535C275.796 375.909 244.723 366.751 231.158 365Z" fill="white"/>
<path d="M89.5011 423.735C79.9011 417.745 93.5011 415.583 101.501 415.25L224.001 423.735L265.001 434.216L246.001 484.624C236.668 477.637 219.601 464.461 212.001 459.669C202.501 453.68 181.001 456.675 154.501 451.684C128.001 446.693 101.501 431.221 89.5011 423.735Z" fill="#E1E1E1"/>
<path d="M24 373.825C11.2 371.03 5.66667 364.675 4.5 361.847L11 359.352L140.5 391.793V401.275C134.833 402.606 121.7 403.471 114.5 396.284C105.5 387.301 40 377.319 24 373.825Z" fill="#E1E1E1"/>
<path d="M145.5 379.5L196 405L143.5 419.5L97 387L145.5 379.5Z" fill="#F5F5F5" stroke="white"/>
<path d="M143.774 384.133C147.107 384.8 153.074 386.333 150.274 387.133C146.774 388.133 137.274 383.133 139.774 384.133C142.274 385.133 146.774 388.633 143.774 388.633C141.374 388.633 139.107 389.633 138.274 390.133L132.774 392.633" stroke="black"/>
<line y1="-0.5" x2="16.7631" y2="-0.5" transform="matrix(0.95448 -0.298275 -0.298275 -0.95448 141 412)" stroke="black"/>
<line y1="-0.5" x2="37.3631" y2="-0.5" transform="matrix(0.963518 -0.267644 -0.267644 -0.963518 130 405)" stroke="black"/>
<line y1="-0.5" x2="37.3631" y2="-0.5" transform="matrix(0.963518 -0.267644 -0.267644 -0.963518 126 402)" stroke="black"/>
<line y1="-0.5" x2="37.3631" y2="-0.5" transform="matrix(0.963518 -0.267644 -0.267644 -0.963518 122 399)" stroke="black"/>
<path d="M109.551 371.023C110.402 370.175 111.415 369.504 112.53 369.052C115.671 368.525 118.841 368.179 122.022 368.016C123.714 368.016 130.43 370.945 130.926 371.271C131.423 371.598 131.716 373.243 129.132 373.164C126.547 373.085 109.551 371.023 109.551 371.023Z" fill="#E5B9B7"/>
<path d="M140 380.5L141 385L137 382.5L121 364.5L123.5 362L140 380.5Z" fill="#272E80"/>
<path d="M201.122 300.253C198.06 302.515 195.164 304.992 192.455 307.665C188.99 311.203 182.072 314.83 177.422 313.895L187.478 292.423C187.478 292.423 193.459 288.773 196.247 288.312C199.034 287.85 210.501 289.652 214.62 291.398C214.772 291.45 214.91 291.534 215.027 291.644C215.144 291.754 215.236 291.888 215.296 292.036C215.357 292.184 215.386 292.344 215.38 292.504C215.374 292.664 215.334 292.821 215.263 292.964C215.263 292.964 216.696 293.471 216.798 294.237C217.001 295.713 214.778 295.679 212.735 295.578C212.735 295.578 213.108 297.076 210.783 297.245C207.307 297.072 203.883 298.138 201.122 300.253Z" fill="#F4C7C3"/>
<path d="M182.625 313.466C183.617 313.158 184.586 312.782 185.525 312.34C184.59 312.791 183.62 313.168 182.625 313.466Z" fill="#E5B9B7"/>
<path d="M181.779 313.695C182.05 313.627 182.333 313.559 182.615 313.469C182.095 313.627 181.779 313.695 181.779 313.695Z" fill="#E5B9B7"/>
<path d="M185.525 312.386L186.203 312.07L185.525 312.386Z" fill="#E5B9B7"/>
<path d="M189.362 293.323C189.362 293.323 190.333 292.771 191.62 292.095C193.464 291.073 195.432 290.293 197.477 289.775C200.197 289.347 206.855 291.07 209.045 291.521C211.234 291.971 215.23 292.963 215.23 292.963C214.993 294.427 216.776 294.517 216.776 294.517C216.629 295.565 215.218 295.554 214.067 295.644C213.145 295.652 212.225 295.553 211.325 295.351C211.344 295.953 211.571 296.53 211.968 296.985C211.598 297.195 211.175 297.297 210.749 297.277C208.005 297.274 205.299 297.914 202.849 299.148C199.576 301.074 196.337 304.138 191.744 308.351C190.104 309.844 188.256 311.092 186.259 312.058H186.169L185.491 312.373C184.552 312.815 183.583 313.191 182.591 313.5C182.309 313.59 182.027 313.657 181.756 313.725L189.362 293.323Z" fill="#E5B9B7"/>
<path d="M198 289L222 301.5L216 314L191.5 301.5L198 289Z" fill="#E1E1E1"/>
<path d="M202 291L226 303.5L220 316L195.5 303.5L202 291Z" fill="white"/>
<path d="M219.5 308.5L207 302M219 312L202 303" stroke="black"/>
<path d="M199.904 288.199C204.419 288.12 199.317 285.101 196.62 284.526C193.923 283.952 187.908 283.107 186.012 285.653C184.116 288.199 169.794 308.499 167.559 309.434C165.325 310.369 151.703 312.352 151.703 312.352C126.468 315.236 116.593 313.151 110.814 310.594C105.036 308.037 104.359 292.57 95.5333 283.298C86.7078 274.027 87.2946 264.395 79.8347 266.513C71.235 268.946 71.3591 266.107 71.3591 266.107L70.6368 264.812C68.8049 260.203 67.6053 255.367 67.0705 250.437C70.8174 251.237 70.524 251.496 73.9774 250.561C94.2918 245.008 75.4784 190.652 75.4784 190.652C69.8919 175.827 32.6601 187.656 27.9765 195.947C23.4622 203.923 30.0079 216.078 30.0079 216.078C25.3582 215.909 24.8278 219.661 24.8278 219.661C23.8798 227.727 35.4928 232.954 35.4928 232.954L36.6214 234.373C46.9366 248.872 44.3522 259.157 42.4336 263.539C42.0047 264.451 38.3707 266.581 34.6464 266.513C29.9064 266.445 16.8036 266.772 10.2014 283.062C-2.33716 313.963 9.23078 359.824 15.9007 364.307C22.5706 368.791 86.3918 377.826 86.3918 377.826L92.8924 382.163L100.612 384.416C103.083 385.238 107.97 387.435 114.155 389.08C121.908 391.107 123.037 391.569 125.136 391.828C127.495 392.11 127.111 392.335 130.079 392.606C132.336 392.808 132.336 390.995 132.336 390.995L136.241 391.997C139.424 391.783 138.115 388.156 138.115 388.156C138.493 388.018 138.83 387.787 139.096 387.486C139.363 387.184 139.549 386.821 139.639 386.429C139.729 386.037 139.719 385.629 139.61 385.242C139.502 384.855 139.298 384.501 139.017 384.213C138.34 383.661 132.246 380.169 130.959 379.346C129.673 378.524 124.583 375.685 124.583 375.685C124.583 375.685 131.975 377.679 132.393 378.242C134.525 380.022 136.756 381.68 139.074 383.21C140.417 383.886 141.737 381.712 140.88 380.574C140.022 379.437 135.056 374.626 132.788 373.635C130.519 372.644 126.592 369.681 124.752 368.836C122.913 367.991 122.495 369.647 117.202 369.501C111.909 369.354 113.816 369.433 112.992 369.264C112.169 369.095 111.029 368.419 109.607 368.137C108.203 368.096 106.806 368.337 105.499 368.847L92.5425 365.851H109.313C107.88 332.077 105.183 314.379 105.183 314.379C105.183 314.379 99.7316 343.016 119.064 340.29C138.397 337.563 171.103 319.133 172.694 318.153C173.405 317.714 175.313 316.587 177.513 314.943C187.987 313.557 184.996 304.364 191.429 304.364C198.866 304.364 200.344 303.936 200.344 302.562C200.344 301.188 192.918 300.478 188.077 300.309C188.878 296.839 188.991 293.55 190.221 290.497C191.643 286.926 196.552 288.255 199.904 288.199Z" fill="#F4C7C3"/>
<path d="M84.5 192.5C84.5 197.7 82 208 81 211.5C80.5 208.5 78.1667 199.833 77 196C75.3333 195.834 71.1 195.2 65.5 194C58.5 192.5 50.5 195.5 48.5 203.5C46.5 211.5 40.5 209.5 39 214.5C37.8 218.5 39.5 222.833 40.5 224.5C38.1 224.1 35.5 220.333 34.5 218.5C32.1667 217.5 27.4 216.6 27 221C26.5 226.5 29 226.5 34.5 231.5C38.9 235.5 42.3333 244.167 43.5 248C42.5 247.667 39.9 245.9 37.5 241.5C34.5 236 36 235 29 231.5C22 228 21.5 221.5 21.5 215.5C21.5 209.5 17.5 207.5 19 197C20.2 188.6 27.8333 186.5 31.5 186.5C35.5 179.5 45.4945 180.703 53 176.5C65.5 169.5 73.6409 174.741 77 180.5C80.5 186.5 84.5 186 84.5 192.5Z" fill="#00181B"/>
<path opacity="0.1" d="M76.935 249.255C81.5734 244.658 78.8536 231.726 79.7451 227.073C80.6367 222.421 72.9059 218.252 73.0865 206.39C73.2219 197.535 67.6468 188.095 64.8027 183.859C69.8926 184.501 73.9217 186.563 75.4791 190.697C75.4791 190.697 92.3175 239.273 76.935 249.255Z" fill="black"/>
<path opacity="0.1" d="M67.0358 267.493C65.3993 265.984 62.7246 249.469 62.7246 249.469L67.0358 250.595C67.5694 255.525 68.769 260.361 70.6021 264.97L71.3244 266.265C71.3244 266.265 74.1571 268.158 79.8565 267.302L78.5924 267.73C74.7101 268.575 68.6722 269.003 67.0358 267.493Z" fill="black"/>
<path d="M141.184 313.364C123.544 314.615 115.712 312.801 110.814 310.627C105.036 308.058 106.762 291.746 98.7382 279.084C91.8878 268.258 87.2944 264.439 79.8345 266.58C78.3899 266.985 80.8954 266.58 79.7104 266.749V265.397C75.9748 263.437 69.903 262.873 69.903 262.873C70.0272 263.223 70.9075 265.892 71.3589 266.14C71.8103 266.388 68.5826 266.895 68.5826 266.895C67.9538 268.342 67.0046 269.629 65.8063 270.658L63.1203 287.342L56.7551 272.246C48.618 270.511 42.8848 262.637 42.8848 262.637C41.2555 262.778 39.6952 263.358 38.3705 264.315C37.7611 264.225 36.4971 266.703 35.7748 266.568C31.1814 265.442 15.4603 267.695 7.65055 283.376C4.65982 289.471 0.698501 305.366 0.393785 315.37C0.393785 315.37 -0.93794 341.483 1.29665 361.084C1.29665 361.084 17.5369 365.59 25.1548 367.258C37.0275 370.074 57.1952 373.363 71.1445 375.504L72.4649 359.834L92.5423 365.85H109.313C107.88 332.076 105.182 314.378 105.182 314.378C105.182 314.378 99.7314 343.015 119.064 340.289C126.005 339.308 134.661 336.301 142.99 332.808L141.184 313.364Z" fill="#F4EFEF"/>
<path d="M72.7134 356.985L71.0996 375.505L53.3809 372.666L54.8593 350.135C55.1714 349.785 55.566 349.519 56.0074 349.359C56.4489 349.2 56.9232 349.153 57.3873 349.223C58.9109 349.527 60.4232 352.355 60.4232 352.355C60.6297 352.044 60.9179 351.795 61.2562 351.636C61.5945 351.477 61.97 351.414 62.3418 351.453C63.5607 351.645 64.6667 353.966 64.6667 353.966C64.8666 353.247 65.3185 352.624 65.94 352.211C66.5615 351.797 67.3112 351.62 68.0524 351.712C70.6368 352.096 72.7134 356.985 72.7134 356.985Z" fill="#E0DEDE"/>
<path d="M62.3415 288.862L55.57 278.408L52.7711 288.378L42.9863 276.707L52.6583 289.955C52.6583 289.955 54.0577 286.677 55.6377 286.677C57.2177 286.677 57.7143 290.924 62.3415 288.862Z" fill="#E0DEDE"/>
<path d="M64.8027 288.355L67.3195 277.935L71.8338 284.018L73.5944 276.707L72.1949 285.719C71.8885 285.94 71.5391 286.093 71.1693 286.17C70.7996 286.247 70.4178 286.246 70.0486 286.166C69.6794 286.087 69.3311 285.93 69.0262 285.708C68.7214 285.485 68.4667 285.201 68.2788 284.874C66.7778 282.419 64.8027 288.355 64.8027 288.355Z" fill="#E0DEDE"/>
<path d="M54.8583 350.179C54.8583 350.179 43.8546 344.547 40.9429 343.567L32.377 340.694L36.4286 316.496C36.4286 316.496 32.8735 330.848 35.458 333.394C38.0424 335.94 43.5048 333.653 46.7438 340.728C49.9828 347.802 54.8583 350.179 54.8583 350.179Z" fill="#E0DEDE"/>
<path d="M107.508 331.875C99.3142 323.212 115.114 318.886 108.083 316.757C101.052 314.628 103.648 301.785 103.648 301.785L105.183 314.38C105.183 314.38 99.7318 343.016 119.064 340.29C121.483 339.925 123.877 339.409 126.231 338.747C123.184 339.017 114.2 338.961 107.508 331.875Z" fill="#E0DEDE"/>
<path d="M65.7383 262.617L65.7496 262.628L65.7383 262.617Z" fill="#F4EBEA"/>
<path d="M160.088 311.055C155.947 311.765 151.703 312.384 151.703 312.384C126.468 315.268 116.886 312.384 110.815 310.627C101.38 307.844 106.763 286.001 97.9376 276.707C89.1121 267.413 87.2951 264.428 79.8803 266.568C72.4656 268.709 70.8517 263.403 69.9488 262.896C70.152 264.315 67.3757 269.328 65.1411 270.038L63.4933 276.076L57.8504 270.049C50.6614 268.641 42.8855 262.637 42.8855 262.637C42.4453 263.549 44.0141 268.574 35.8319 266.523C31.2385 265.397 16.8153 266.771 10.2131 283.061C-3.56686 317.026 5.25863 355.564 15.9124 364.306C22.1196 369.398 86.4035 377.825 86.4035 377.825L86.4938 380.686L92.9041 382.162C92.5317 373.42 98.6486 367.303 98.6486 367.303L92.543 365.85H109.314C107.88 332.076 105.183 314.378 105.183 314.378C105.183 314.378 99.732 343.015 119.065 340.289C132.213 338.43 151.534 329.327 163.079 323.391C157.527 318.22 160.088 311.055 160.088 311.055Z" fill="#F4EBEA"/>
<path d="M65.7383 262.617L65.7496 262.628L65.7383 262.617Z" fill="#F4EBEA"/>
<path d="M65.7383 262.617L65.7496 262.628L65.7383 262.617Z" fill="#292289"/>
<path d="M6.00008 283C9.53835 270.968 15.5001 265.5 27.5001 264L34.0002 262.615L39.0002 258L44.0002 257.5L42.9189 262.615C42.9189 262.615 49.6904 289.449 62.7932 307.316L64.802 351.194L93.4905 365.839L93.31 366.02C91.7783 367.662 90.6156 369.613 89.8994 371.74C89.1832 373.867 88.93 376.122 89.1568 378.355L89.2471 381.216L86.5724 380.631C86.5724 380.631 46.993 372.204 26.893 367.653C25.2227 367.27 23.6879 366.91 22.3223 366.527L4.11829 362.02C4.11829 362.02 -5.31188 321.468 6.00008 283Z" fill="white"/>
<path d="M154.084 312.025L151.703 312.385C126.467 315.269 118.778 311.557 113 309C107.222 306.443 109.537 289.486 105 277.5C102.5 270.895 97.4066 263.832 85.1953 262.615H77.5L71.6298 258.5L68 257.5L69.9031 262.874C70.2507 264.062 70.7555 265.199 71.4041 266.254L71.6298 266.389C72.4861 266.754 73.3738 267.041 74.282 267.245C74.282 267.245 80.7713 287.365 78.2546 306.877L86.6512 363.102L93.4904 365.839H109.291C107.857 332.043 107.372 335.333 107.372 335.333C107.372 335.333 99.7089 343.05 119.041 340.323C130.045 338.769 146.872 336.358 158.339 330.748C156.601 327.898 153.023 318.671 154.084 312.025Z" fill="white"/>
<path d="M60.4907 313.874L59.6104 308.05L56.3489 312.995C52.2611 308.701 48.7931 303.859 46.0449 298.609C48.5575 304.402 52.0251 309.733 56.3037 314.381L59.5202 309.492L60.4907 313.874Z" fill="#E1E1E1"/>
<path d="M79.5293 312.126L81.0416 306.494L84.5402 309.873C84.5402 309.873 87.1021 299.858 86.5829 291.781C87.272 298.447 86.647 305.182 84.7433 311.608L81.3576 308.138L79.5293 312.126Z" fill="#E1E1E1"/>
<path d="M54.9722 347.185C54.9722 347.185 48.528 343.456 46.0451 343.67C43.5623 343.884 37.7388 343.67 37.7388 343.67C37.7388 343.67 34.748 328.102 34.748 321.41C34.748 321.41 35.4252 330.625 37.8291 334.298C40.2329 337.97 42.8738 336.438 47.0609 339.739C51.2479 343.04 50.7852 344.988 54.9722 347.185Z" fill="#E1E1E1"/>
<path d="M158.361 330.757C158.361 330.757 158.88 329.405 158.361 325.789L156.465 326.724C156.978 328.121 157.612 329.471 158.361 330.757Z" fill="#E1E1E1"/>
<path opacity="0.1" d="M86.5269 362.301L82.9041 338.035L79.5184 315.415L78.2431 306.864C79.0594 302.158 79.2114 297.362 78.6945 292.614C78.0061 285.742 78.3108 277.101 74.8348 269.137C74.8348 269.137 76.3584 276.166 75.8505 281.202C75.5345 284.367 73.1758 293.898 74.7219 301.254C76.2681 308.61 78.8412 310.447 78.3447 320.552C77.8481 330.657 77.3515 347.172 86.5269 362.301Z" fill="black"/>
<path d="M190.842 300.488C193.115 300.635 195.377 300.925 197.613 301.356C199.092 301.84 199.701 302.358 199.622 303.147C199.543 303.935 197.963 304.544 195.954 304.499L191.846 304.409L190.842 300.488Z" fill="#F4C7C3"/>
<g style="mix-blend-mode:multiply" opacity="0.3">
<path d="M295.443 493.638C295.443 493.32 295.532 493.002 295.582 492.645C295.542 493.002 295.482 493.32 295.443 493.638Z" fill="black"/>
</g>
<path d="M232.545 259.938L244.81 262.033L244.193 271.371C244.074 276.497 244.482 280.609 245.746 282.556C251.043 290.732 253.153 271.629 257.534 272.047C261.914 272.464 263.955 277.451 260.809 285.954C257.663 294.457 268.973 296.821 269.948 301.589C270.924 306.357 278.52 333.208 269.948 342.397L256.817 338.423C259.79 336.669 262.521 334.535 264.941 332.076C269.162 325.519 265.518 306.953 265.518 306.953C265.518 306.953 249.808 317.215 240.629 309.129C239.869 308.449 239.2 307.674 238.638 306.824C233.411 299.503 232.664 280.917 232.515 276.934C232.366 272.951 232.545 259.938 232.545 259.938Z" fill="#CEA999"/>
<path d="M298.249 333.922C298.249 333.922 303.008 337.895 307.299 349.816C311.59 361.736 300.43 342.952 300.43 342.952L299.116 336.306L298.249 333.922Z" fill="#D3662F"/>
<path d="M249.152 234.773C248.087 241.28 246.385 251.73 244.812 262.031C245.807 252.326 247.649 241.578 248.923 234.853L249.152 234.773Z" fill="#CEA999"/>
<path d="M218.466 425.774C218.466 425.774 229.238 424.324 237.859 413.596C237.859 413.596 235.709 422.616 247.208 432.947C255.172 440.079 248.96 478.075 245.605 484.78C245.605 484.78 277.383 516.111 329.113 491.019C329.113 491.019 316.121 443.705 315.175 416.953C314.01 386.576 310.496 367.047 299.863 338.368C289.231 309.69 286.712 293.866 288.156 278.767C289.599 263.667 288.872 240.025 262.271 234.314C235.669 228.602 232.523 259.903 232.523 259.903C232.523 259.903 230.174 299.925 240.637 309.094C249.806 317.18 265.526 306.919 265.526 306.919C265.526 306.919 269.17 325.484 264.949 332.041C264.949 332.041 259.125 338.706 244.739 344.438C229.716 350.398 227.306 394.106 219.342 402.113" fill="#E2BBA6"/>
<path d="M243.5 275.503C240.7 274.704 235 272.508 232.5 271.51V267.018L246.5 249.051L294.5 323.416L299 336.392L297 340.884C290.6 344.477 281 342.381 277 340.884C277.5 337.557 278.2 329.405 277 323.416C275.8 317.426 269.833 313.933 267 312.935H251.5L246.5 311.936C248.1 287.581 245.167 277.499 243.5 275.503Z" fill="#D2AB96"/>
<path d="M246.763 481C246.763 481 239.209 505.943 240.068 540H333.921H349.5L339 513.723L327.421 483.627C327.421 483.627 283.089 506.216 246.763 481Z" fill="white"/>
<path d="M170.5 430.237C184.099 427.774 199.306 426.948 211.5 411.002C218 402.502 229.676 350.475 244.739 344.475C250.23 342.357 255.432 339.557 260.22 336.141C283.815 343.919 294.438 341.177 299.127 336.29C299.376 336.975 306.504 344.892 310.656 355.73C321.607 384.289 317.625 397.977 318.72 428.345C319.716 455.096 327.242 483.854 327.242 483.854C319.965 517.042 245.605 484.778 245.605 484.778C248.532 476.99 255.143 440.076 247.208 432.944C235.71 422.613 237.86 413.593 237.86 413.593C231.5 427.002 223 435.502 223 435.502C202.621 447.194 181.68 448.456 170.5 447.502V430.237Z" fill="#FF8139"/>
<path d="M157 430.502H170.5V447.502C160.9 446.302 152.5 443.669 149.5 442.502C148.5 442.669 145.4 442.902 141 442.502C135.5 442.002 132 437.002 130 436.002C128 435.002 124.5 434.502 122.5 436.002C120.5 437.502 119.5 437.002 119.5 436.002C119.5 435.202 120.167 434.002 120.5 433.502C119.833 433.669 118.2 434.102 117 434.502C115.5 435.002 112 434.002 116.5 432.002C121 430.002 126 428.502 128 428.002C130 427.502 130.5 426.502 133 426.502C135.5 426.502 135 425.002 138 425.002C141 425.002 140 424.502 143 424.002C146 423.502 152 430.502 157 430.502Z" fill="#E2BBA6"/>
<path d="M170.5 447.5V441C170.5 441 179 443.5 192.5 441C210.5 435.442 215.515 426.211 225.5 420C236.728 413.017 242.122 400.25 242.122 400.25C242.918 418.478 254.895 421.349 262.182 436.21C267.588 447.236 263.696 476.361 261.326 490.666C252.057 487.567 245.606 484.775 245.606 484.775C248.533 476.987 255.144 440.074 247.209 432.942C235.71 422.611 237.861 413.591 237.861 413.591C232 428 222.5 436 222.5 436C202.121 447.722 181.681 448.454 170.5 447.5Z" fill="#D3662F"/>
<path d="M246.298 272.619C241.96 271.753 234.007 268.65 230.573 267.206C230.031 258.186 232.2 239.711 247.382 233.649C262.565 227.587 277.747 231.665 283.17 235.814C311.908 232.567 312.269 292.825 308.654 319.707C288.05 338.651 255.154 325.3 246.84 321.331C251.612 290.588 249.732 267.928 246.298 258.547C243.695 265.041 245.213 270.634 246.298 272.619Z" fill="#594423"/>
<path fill-rule="evenodd" clip-rule="evenodd" d="M240.719 237.296C249.282 233.558 263.332 230.698 276.501 238.072C288.009 244.517 284.075 253.635 279.825 263.484C276.505 271.18 272.992 279.322 276.501 286.983C284.501 304.452 284.001 309.942 278.501 329.406C278.484 329.467 278.467 329.527 278.451 329.586C288.7 329.931 299.51 327.668 308.155 319.719C311.77 292.837 311.409 232.578 282.67 235.826C277.248 231.676 262.065 227.599 246.883 233.661C244.528 234.601 242.486 235.84 240.719 237.296Z" fill="#74582D"/>
<path d="M31.1161 521.155C33.5161 525.155 39.4494 535.155 42.1161 539.655H44.1161C41.2828 534.655 35.2161 523.955 33.6161 521.155C31.6161 517.655 44.1161 510.155 37.6161 499.655C31.1161 489.155 16.6161 439.655 13.6161 417.655C10.6161 395.655 5.61605 383.655 3.61605 410.655C1.61605 437.655 4.11605 513.655 16.6161 515.655C26.6161 517.255 30.4494 519.988 31.1161 521.155Z" fill="#00B67A"/>
<path d="M31 517.113C25.5 503.613 13.2 463.413 8 410.613" stroke="white"/>
<path d="M89.5005 511.112C89.9005 529.512 85.3338 537.445 83.0005 539.112H53.5005C47.1005 539.112 44.8338 530.112 44.5005 525.612C47.0005 440.112 19.5005 363.073 32.0005 360.112C51.0005 355.612 89.0005 488.112 89.5005 511.112Z" fill="#00B67A" stroke="#00B67A"/>
<path d="M68.4596 540.113C71.9541 513.015 71.7544 443.678 43 383.113" stroke="white"/>
<path d="M53.5 520.613C57.1667 521.78 65.4 525.913 69 533.113C72.1667 531.78 79.6 527.413 84 520.613M53.5 500.113C57.5 500.447 66.4 502.413 70 507.613C72 506.447 76.8 502.513 80 496.113M53.5 476.613C56.1667 476.613 62.9 477.313 68.5 480.113C70.5 478.613 74.7 474.313 75.5 469.113M52.5 450.613C54.6667 450.447 60.1 450.813 64.5 453.613C65.8333 452.613 68.5 449.513 68.5 445.113M49 427.113C51.5 426.447 57.3 426.413 60.5 431.613C61.1667 429.78 62.5 425.113 62.5 421.113M44.5 406.113C46.6667 406.113 51.5 406.713 53.5 409.113C54 407.613 55 404.013 55 401.613" stroke="white"/>
<path d="M14.5 498.613C16.3333 500.78 21.4 505.313 27 506.113C28.3333 504.78 30.8 500.713 30 495.113" stroke="white"/>
<path d="M12 483.113C13.6667 484.613 18 487.713 22 488.113C23 487.113 25 484.113 25 480.113M10.5 468.613C11.6667 470.113 14.8 473.113 18 473.113C19 472.28 21 469.813 21 466.613M8.5 452.613C9.33333 453.947 11.7 456.613 14.5 456.613C15.6667 455.947 18 453.813 18 450.613M7 437.113C7.83333 438.28 10 440.613 12 440.613C12.8333 440.113 14.5 438.513 14.5 436.113M7 423.113C7.5 424.28 8.7 426.613 9.5 426.613C10.5 426.613 12 424.613 12 423.113" stroke="white"/>
<path d="M103 526.61C103 533.81 107 537.944 109 539.11H116C122.8 539.11 125.833 530.777 126.5 526.61C133.5 508.11 122 459.61 116 445.61C110 431.61 104.992 421.879 109 452.61C113.5 487.11 103 517.61 103 526.61Z" fill="#00B67A" stroke="#00B67A"/>
<path d="M112.5 539.613C112.846 537.759 113.216 535.573 113.588 533.113M114.5 459.113C115.644 465.273 116.325 471.885 116.661 478.613M108 525.113C109.559 526.613 112.858 530.313 113.588 533.113M113.588 533.113C115.392 532.447 119.7 530.113 122.5 526.113M113.588 533.113C114.196 529.094 114.811 524.344 115.344 519.113M109.5 512.113C110.896 513.28 114.019 516.313 115.344 519.113M115.344 519.113C117.229 518.447 121.5 516.213 123.5 512.613M115.344 519.113C115.775 514.883 116.153 510.339 116.431 505.613M111.5 500.613C112.621 501.613 115.176 504.013 116.431 505.613M116.431 505.613C117.788 505.113 121.1 503.413 123.5 500.613M116.431 505.613C116.689 501.233 116.861 496.698 116.909 492.113M112.5 489.113C113.606 489.613 116.036 490.913 116.909 492.113M116.909 492.113C118.106 491.447 120.8 489.613 122 487.613M116.909 492.113C116.956 487.628 116.885 483.095 116.661 478.613M113 476.113C113.774 476.447 115.59 477.413 116.661 478.613M116.661 478.613C117.441 478.447 119.3 477.413 120.5 474.613" stroke="white"/>
<path d="M131.5 520.613C128.7 528.213 127.667 536.113 127.5 539.113H130.5C131 535.613 131.5 526.113 136 520.613C140.5 515.113 155.5 521.613 158.5 513.113C161.5 504.613 194 432.613 199.5 423.613C205 414.613 235.5 376.613 189.5 414.613C143.5 452.613 125 489.613 125.5 500.113C126 510.613 135 511.113 131.5 520.613Z" fill="#00B67A" stroke="#00B67A"/>
<path d="M135.5 515.113C137.833 500.613 151.2 462.413 186 425.613" stroke="white"/>
<path d="M133 490.613C133.5 493.78 135.2 500.813 138 503.613C141.667 503.447 151.3 501.513 160.5 495.113M140.5 477.113C140.5 479.947 141.3 486.113 144.5 488.113C147.333 487.613 154.5 485.213 160.5 479.613M149.5 463.113C149 465.113 148.7 469.913 151.5 473.113C154.333 472.613 161.2 470.513 166 466.113M159 451.613C158.833 453.447 158.7 457.513 159.5 459.113C162 458.947 167.8 458.113 171 456.113M169.5 439.113C169 440.113 168.3 442.613 169.5 444.613C171 447.113 179.5 442.613 182 441.613" stroke="white"/>
<ellipse rx="7" ry="8.5" transform="matrix(-1 0 0 1 91 292.5)" fill="#00181B"/>
<ellipse rx="7" ry="8.5" transform="matrix(-1 0 0 1 93 292.5)" fill="#C4C4C4"/>
<ellipse rx="5" ry="6.5" transform="matrix(-1 0 0 1 93 292.5)" fill="#666A6A"/>
<ellipse rx="5" ry="6.5" transform="matrix(-1 0 0 1 95 292.5)" fill="#C4C4C4"/>
<path d="M91.5 284C90.3333 279.167 86 268.2 78 263" stroke="black" stroke-width="2"/>
<path d="M34.9993 261.5C32.9993 260 26.4993 266 25.9992 274.5C25.8483 277.064 26.2471 279.288 27.7579 281.5M46.4992 313.5C49.6608 297.296 33.4553 289.839 27.7579 281.5M27.7579 281.5C24.8384 287.666 19.9993 304.5 30.9993 315.5" stroke="black" stroke-width="2"/>
<ellipse rx="3" ry="4.5" transform="matrix(-0.988154 -0.153469 -0.153469 0.988154 46.3449 316.908)" fill="#C4C4C4"/>
<ellipse rx="3" ry="4.5" transform="matrix(-0.666036 0.745919 0.745919 0.666036 33.6456 317.235)" fill="#C4C4C4"/>
</svg>
