<svg width="471" height="540" viewBox="0 0 471 540" fill="none" xmlns="http://www.w3.org/2000/svg">
<path d="M370.836 110C370.836 49.2486 321.587 0 260.836 0H0.835938V539.5H102.836L102.336 540H370.836V110Z" fill="#F5F5F5"/>
<rect width="261" height="539" transform="matrix(-1 0 0 1 262.836 0)" fill="#E1E1E1"/>
<path d="M317 370H91C41.2944 370 1 410.294 1 460V540H317V370Z" fill="white"/>
<circle r="5.34111" transform="matrix(-1 0 0 1 259.391 165.806)" fill="white"/>
<circle r="5.34111" transform="matrix(-1 0 0 1 213.61 165.806)" fill="white"/>
<circle r="5.34111" transform="matrix(-1 0 0 1 167.829 165.806)" fill="white"/>
<circle r="5.34111" transform="matrix(-1 0 0 1 122.048 165.806)" fill="white"/>
<rect width="209.381" height="4.57809" transform="matrix(-1 0 0 1 285.457 198.613)" fill="white"/>
<rect width="4" height="203" transform="matrix(-1 0 0 1 124 168)" fill="white"/>
<rect width="4.57809" height="256.373" transform="matrix(-1 0 0 1 170.117 168.094)" fill="white"/>
<circle r="5.34111" transform="matrix(-1 0 0 1 77.155 165.806)" fill="white"/>
<rect width="4.57809" height="256.373" transform="matrix(-1 0 0 1 79.4434 168.094)" fill="white"/>
<rect width="4.57809" height="256.373" transform="matrix(-1 0 0 1 215.898 168.094)" fill="white"/>
<rect width="4.57809" height="212.118" transform="matrix(-1 0 0 1 261.805 168.094)" fill="white"/>
<path d="M86.0277 423.183C86.0277 423.183 94.7084 422.015 101.656 413.375C101.656 413.375 107.2 423.183 109.19 428.959C115.608 434.703 110.602 465.303 107.898 470.703C107.898 470.703 133.507 495.935 175.193 475.727C175.193 475.727 164.724 437.623 163.961 416.079C163.023 391.615 160.191 375.887 151.622 352.791C143.054 329.695 141.024 316.951 142.187 304.791C143.351 292.631 142.765 273.591 121.328 268.991C99.8912 264.391 97.3559 289.599 97.3559 289.599C97.3559 289.599 95.4626 321.831 103.895 329.215C111.284 335.727 123.952 327.463 123.952 327.463C123.952 327.463 126.888 342.415 123.486 347.695C123.486 347.695 118.793 353.063 107.2 357.679C95.0935 362.479 93.152 397.679 86.7337 404.127" fill="#E2BBA6"/>
<path d="M110.754 269.367C109.895 274.607 108.524 283.023 107.256 291.319C108.058 283.503 109.542 274.847 110.569 269.431L110.754 269.367Z" fill="#CEA999"/>
<path d="M97.3715 289.633L107.256 291.321L106.758 298.841C106.662 302.969 106.991 306.281 108.01 307.849C112.278 314.433 113.979 299.049 117.509 299.385C121.039 299.721 122.684 303.737 120.148 310.585C117.613 317.433 126.727 319.337 127.513 323.177C128.299 327.017 134.421 348.641 127.513 356.041L116.931 352.841C119.327 351.428 121.528 349.71 123.478 347.729C126.879 342.449 123.943 327.497 123.943 327.497C123.943 327.497 111.283 335.761 103.886 329.249C103.274 328.701 102.735 328.077 102.281 327.393C98.0695 321.497 97.4678 306.529 97.3475 303.321C97.2271 300.113 97.3715 289.633 97.3715 289.633Z" fill="#CEA999"/>
<path d="M96.0081 272.993C96.0081 272.993 89.7905 279.393 94.187 286.441C98.5835 293.489 107.393 290.169 108.492 297.409C109.591 304.649 117.509 299.385 117.509 299.385C117.509 299.385 120.815 293.241 123.928 298.073C127.04 302.905 120.189 310.577 120.189 310.577C119.238 311.925 118.727 313.533 118.727 315.181C118.727 316.829 119.238 318.437 120.189 319.785C123.518 324.721 127.674 319.569 131.421 324.585C135.167 329.601 141.313 324.201 144.257 329.217C144.257 329.217 142.171 320.857 146.568 318.217C150.964 315.577 156.332 311.145 154.27 303.193C152.553 296.577 151.983 291.689 152.866 287.297C153.748 282.905 147.25 279.609 144.586 278.497C141.923 277.385 142.829 264.897 130.506 264.017C118.183 263.137 116.867 268.425 111.364 268.409C105.86 268.393 99.121 269.513 96.0081 272.993Z" fill="#594423"/>
<path d="M123.599 289.711C120.486 280.871 128.324 279.903 127.193 274.119C126.503 270.559 128.549 266.591 130.226 264.047H130.49C142.797 264.943 141.931 277.447 144.571 278.543C147.21 279.639 153.725 282.943 152.85 287.343C152.048 291.167 152.417 295.343 153.652 300.767C151.133 304.639 150.066 308.079 151.31 314.615C149.894 316.034 148.297 317.26 146.56 318.263C144.45 319.527 143.84 322.103 143.768 324.447C139.211 322.047 142.677 316.447 142.356 312.231C142.035 308.015 136.877 309.503 135.136 301.943C133.395 294.383 126.712 298.551 123.599 289.711Z" fill="#3E2F1C"/>
<path d="M150.322 349.219C150.322 349.219 154.157 352.419 157.615 362.019C161.073 371.619 152.079 356.491 152.079 356.491L151.02 351.139L150.322 349.219Z" fill="#292289"/>
<path d="M101.596 467C101.596 467 67.0023 506.035 85.0509 540H178.862H190.836L173.631 470.003C173.631 470.003 130.829 487.635 101.596 467Z" fill="#00B67A"/>
<path d="M172.836 486L181.336 500.5C176.836 497.5 175.336 496.5 168.336 506.5C161.336 516.5 149.336 517.5 138.836 515C130.436 513 127.669 523.5 127.336 529C125.336 516.5 129.336 498.5 142.336 496.5C152.736 494.9 167.003 488.833 172.836 486Z" fill="#04A670"/>
<path d="M36.4953 422.16C47.4544 420.176 64.6313 415.72 79.0162 401.952C90.1037 391.344 95.0619 362.544 107.2 357.712C111.625 356.006 115.817 353.751 119.676 351C138.69 357.264 147.25 355.056 151.029 351.12C151.23 351.672 156.974 358.048 160.319 366.776C169.145 389.776 167.083 393.998 175.336 422.16C181.854 444.402 186.836 460.498 186.836 460.498C147.336 504.998 100.836 467.998 100.836 467.998C100.836 460.292 100.836 454.498 101.657 434.498C101.657 430.794 101.657 413.376 101.657 413.376C94.7088 422.032 83.878 426.976 83.878 426.976C67.4553 436.392 45.5049 436.832 36.4953 436.064V422.16Z" fill="#152D5D"/>
<path d="M183.836 451.5L180.836 441.5L154.836 451.5L125.336 441.5L101.836 418V421.5L121.836 444.5C121.836 446.833 122.736 452.3 126.336 455.5C130.836 459.5 153.836 468.5 155.836 468C157.436 467.6 175.169 456.833 183.836 451.5Z" fill="#0C2048"/>
<path d="M58.9824 405.761L45.2313 402.633C45.2313 402.633 34.1999 403.569 32.9724 403.761C31.7449 403.953 28.7043 408.857 28.247 409.801C27.7897 410.745 30.1003 411.121 31.6808 409.801C33.2613 408.481 33.0848 407.345 34.5449 407.065C36.0051 406.785 54.8828 410.017 58.9824 405.761Z" fill="#E2BBA6"/>
<path d="M37.1604 406.441C37.1604 406.441 32.8521 408.585 31.5444 410.297C30.2367 412.009 29.3702 413.425 29.3622 414.185C29.3542 414.945 30.5576 415.993 32.0499 414.657C32.0499 414.657 32.3387 416.849 34.5209 415.705C34.5209 415.705 35.4114 417.657 38.3397 416.033C38.7328 415.825 38.9816 415.593 38.9495 415.273C38.8532 414.113 45.0468 415.857 49.7562 416.441C55.2919 417.137 57.779 416.193 58.9503 415.129C60.1217 414.065 46.4428 406.937 46.4428 406.937L37.1604 406.441Z" fill="#CEA999"/>
<path d="M74.3555 405.953H61.3665L59.088 415.313C59.088 415.313 68.2822 411.441 74.3555 405.953Z" fill="#0C2048"/>
<path d="M61.3652 405.952C61.3652 405.952 52.3877 405.216 51.3367 405.216C50.2857 405.216 46.3465 402.568 44.7339 402.088C42.3499 401.579 39.9393 401.203 37.5134 400.96C36.1415 400.8 36.0613 401.944 37.9145 403.456C39.7678 404.968 42.8245 403.936 43.9477 405.456C45.0709 406.976 45.3116 409.952 48.4565 412.272C51.6015 414.592 59.0948 415.312 59.0948 415.312L61.3652 405.952Z" fill="#E2BBA6"/>
<path d="M101.881 417.663C101.881 417.663 97.2677 419.207 95.5027 419.495C95.5027 419.495 100.421 415.151 101.624 413.375C101.476 414.809 101.563 416.257 101.881 417.663Z" fill="#0C2048"/>
<path d="M36.4961 422.163C34.4417 422.649 32.3562 422.993 30.2543 423.195C28.5535 423.195 21.2688 417.019 20.1777 415.931C19.0866 414.843 11.3526 411.555 7.79847 411.563C4.24437 411.571 6.58703 413.507 7.79847 413.963C9.00992 414.419 13.623 416.131 15.4442 417.347C17.2654 418.563 20.1536 420.507 18.9903 419.859C16.7782 418.731 14.4296 417.892 12.0024 417.363C10.5824 417.059 3.91542 415.867 1.85356 416.427C-0.208302 416.987 0.361301 418.371 2.03807 418.971C2.03807 418.971 0.176788 420.459 3.53033 421.715C3.53033 421.715 5.67242 422.219 6.78759 422.515C6.63554 422.696 6.53127 422.913 6.48421 423.145C6.43716 423.377 6.4488 423.616 6.51807 423.843C6.58735 424.069 6.71207 424.275 6.881 424.441C7.04992 424.607 7.25771 424.729 7.48557 424.795C9.30675 425.595 13.2861 426.555 15.6608 427.739C18.0356 428.923 20.7313 432.347 22.4562 433.091C24.1811 433.835 28.1122 434.955 30.6635 433.891L36.4961 434.491V422.163Z" fill="#E2BBA6"/>
<g style="mix-blend-mode:multiply" opacity="0.3">
<path d="M147.949 478.578C147.805 479.546 147.668 480.49 147.532 481.426C147.668 480.49 147.805 479.546 147.949 478.578Z" fill="black"/>
</g>
<g style="mix-blend-mode:multiply" opacity="0.3">
<path d="M148.062 477.839C148.062 477.583 148.134 477.327 148.174 477.039C148.142 477.327 148.094 477.583 148.062 477.839Z" fill="black"/>
</g>
<path d="M6.4096 423.535C7.21189 424.823 16.6788 426.519 19.8559 428.495C23.0121 430.331 26.5641 431.384 30.2133 431.567C32.3084 431.428 34.3929 431.161 36.4551 430.767V434.503L30.6225 433.903C28.0712 434.983 24.132 433.903 22.4151 433.103C20.6983 432.303 17.9865 428.935 15.6198 427.751C13.2531 426.567 9.26574 425.639 7.44455 424.807C6.69041 424.415 6.45774 423.959 6.4096 423.535Z" fill="#CEA999"/>
<path d="M3.01562 418.815L2.03684 419.023C1.1784 418.711 0.608791 418.223 0.536586 417.695C1.28358 418.223 2.1251 418.603 3.01562 418.815Z" fill="#CEA999"/>
<path d="M6.78702 422.53C5.67185 422.25 3.52975 421.73 3.52975 421.73C2.20598 421.234 1.70053 420.706 1.56414 420.242C2.20597 421.042 7.46094 422.146 7.46094 422.146L6.78702 422.53Z" fill="#CEA999"/>
<path d="M138.836 260.999C126.836 264.999 129.169 277.666 131.836 283.499C136.336 290.499 148.336 292.499 148.336 298.499C148.336 304.499 151.836 307.499 161.836 307.999C171.836 308.499 164.836 316.499 173.336 328.499C181.836 340.499 193.836 333.499 196.336 325.999C198.836 318.499 196.836 306.999 186.336 302.499C175.836 297.999 175.836 287.999 171.836 276.499C167.836 264.999 153.836 255.999 138.836 260.999Z" fill="#594423"/>
<path d="M203.622 357.241C203.222 354.441 201.455 354.074 200.622 354.241L117.622 375.241C115.122 378.741 122.122 440.741 125.622 443.741C129.122 446.741 151.622 455.741 155.622 454.241C159.622 452.741 219.122 420.741 221.622 416.741C224.122 412.741 204.122 360.741 203.622 357.241Z" fill="#FF8139" stroke="#FF8139"/>
<path d="M150.338 421L214.338 388L148.838 423.5C140.838 415.5 139.338 404.5 139.338 398C139.338 391.5 136.838 387 129.838 386C124.238 385.2 120.171 379 118.838 376C125.671 378.167 139.638 383.2 140.838 386C142.038 388.8 147.671 410.5 150.338 421Z" fill="#D3662F"/>
<path d="M140.337 385.5C142.337 384.7 178.121 364.241 199.121 355.241C207.621 351.598 186.621 345.741 181.121 347.241C175.621 348.741 115.121 372.741 117.621 375.241C120.121 377.741 137.837 386.5 140.337 385.5Z" fill="#FF8139"/>
<path d="M148.838 345.5L168.838 351.5L160.838 355L150.838 350.5L148.838 345.5Z" fill="#FF8139"/>
<path d="M116.838 351.5C118.038 351.5 134.005 359.167 141.838 363H142.838L129.338 368.5C122.838 364.833 109.438 357.5 107.838 357.5C106.238 357.5 103.505 360.167 102.338 361.5C102.671 360.5 103.538 358.3 104.338 357.5C105.338 356.5 115.338 351.5 116.838 351.5Z" fill="#FF8139"/>
<path d="M122.838 430.5L102.338 413.5C100.738 413.5 100.671 416.167 100.838 417.5L124.338 441.5L122.838 430.5Z" fill="#FF8139"/>
<path d="M209.338 396L205.838 386L202.338 388L205.838 398L209.338 396Z" fill="#FFD300"/>
<path d="M173.838 411L170.338 401L166.838 403L170.338 413L173.838 411Z" fill="#FFD300"/>
<path d="M226.803 357.756C225.819 356.775 224.648 356.001 223.36 355.478C219.73 354.87 216.068 354.47 212.392 354.281C210.436 354.281 202.676 357.665 202.103 358.042C201.529 358.419 201.19 360.319 204.176 360.228C207.163 360.137 226.803 357.756 226.803 357.756Z" fill="#E5B9B7"/>
<path d="M219.008 489.856C219.409 465.863 228.192 409.879 232.534 384.887H327.21C333.722 399.882 335.225 418.377 335.225 434.872C335.225 448.068 334.169 516.681 331.998 539.341H282.406L273.115 468.862C271.111 476.46 268.267 525.678 267.098 539.341H219.008C218.841 539.508 218.608 513.849 219.008 489.856Z" fill="#152D5D"/>
<path d="M232.336 386H327.836L331.836 398H230.336L232.336 386Z" fill="#00181B"/>
<path d="M267.539 460.999C263.539 491.799 260.539 526.166 259.539 539.499H267.539C269.939 507.099 272.206 480.999 273.039 471.999C271.439 457.599 268.706 458.666 267.539 460.999Z" fill="#0C2048"/>
<path d="M200.336 316C213.136 288.8 231.003 258.667 238.336 247V314C234.003 322 224.636 332.1 221.836 336.5C219.036 340.9 209.669 361 205.336 370.5L185.836 356.5C185.336 354.333 187.536 343.2 200.336 316Z" fill="white"/>
<path d="M229.836 287V326.5C217.836 340.5 211.836 356.333 210.336 362.5L206.336 356C211.503 351.833 221.536 341.6 220.336 334C219.136 326.4 213.169 322.833 210.336 322C213.336 322.882 218.836 326.5 223.836 322C227.836 318.4 229.503 297.167 229.836 287Z" fill="#F4F1F1"/>
<path d="M206.836 354C206.836 352.8 206.503 348.833 206.336 347L201.336 356.5C201.169 359.167 200.936 364.8 201.336 366C201.836 367.5 203.836 367.5 204.336 365.5C204.836 363.5 206.836 355.5 206.836 354Z" fill="#E5B9B7"/>
<path d="M206.336 345.499C204.836 343.249 204.169 342.499 202.836 341.499C200.336 340.499 199.336 340.499 197.336 338.999C195.336 337.499 193.836 339.999 191.836 338.499C189.836 336.999 188.836 338.499 187.336 338.499C185.836 338.499 184.836 337.499 183.336 337.999C181.836 338.499 178.336 346.999 177.336 348.999C176.336 350.999 173.836 356.499 174.336 358.499C174.736 360.099 175.502 360.833 175.836 360.999C175.502 361.833 174.736 363.799 174.336 364.999C173.836 366.499 174.336 368.999 176.336 368.999C177.936 368.999 179.002 367.666 179.336 366.999C179.336 368.499 180.836 368.999 182.336 368.499C183.836 367.999 184.336 364.999 184.836 363.999C185.336 362.999 189.336 354.999 190.836 353.499C192.336 351.999 197.336 350.499 197.336 351.499C197.336 352.499 195.336 356.999 193.836 358.499C192.336 359.999 187.836 363.499 187.336 364.999C186.836 366.499 187.336 367.499 189.336 367.499C191.336 367.499 200.336 359.499 201.836 356.999C203.336 354.499 207.336 346.999 206.336 345.499Z" fill="#F4C7C3"/>
<path d="M241.336 253.498C231.138 264.208 243.808 284.044 237.13 286.998L231.849 292.326C231.849 292.326 233.493 316.485 231.836 355.498C230.325 354.909 228.658 354.526 226.802 354.893C225.159 355.219 223.776 355.531 222.824 355.726C221.872 355.921 224.076 355.83 217.96 355.999C211.843 356.168 211.361 354.255 209.235 355.231C207.109 356.207 202.571 359.63 199.95 360.775C197.328 361.92 191.59 367.477 190.599 368.791C189.608 370.105 191.134 372.617 192.686 371.836C195.365 370.069 197.942 368.153 200.406 366.097C200.889 365.447 209.431 363.143 209.431 363.143C209.431 363.143 203.549 366.423 202.062 367.373C200.576 368.323 193.533 372.357 192.751 372.994C192.427 373.327 192.191 373.736 192.066 374.183C191.941 374.63 191.929 375.102 192.033 375.554C192.137 376.007 192.352 376.426 192.66 376.775C192.967 377.123 193.357 377.389 193.794 377.549C193.794 377.549 192.281 381.739 195.959 381.986L200.471 380.828C200.471 380.828 200.471 382.923 203.08 382.689C206.509 382.377 206.066 382.116 208.792 381.791C211.217 381.492 212.522 380.958 221.481 378.616C228.628 376.716 234.274 374.178 237.13 373.229L246.051 370.626L253.562 365.616C253.562 365.616 327.311 355.179 335.018 350C342.726 344.821 356.093 291.844 341.604 256.149C333.975 237.332 319.814 236.487 314.336 236.565C310.033 236.643 304.854 234.652 304.358 233.598C302.141 228.536 299.155 216.655 311.075 199.907V195.998C311.075 195.998 321.932 192.815 320.836 183.498C320.836 183.498 320.322 177.636 312.836 175.998C312.836 175.998 319.336 155.498 317.336 153.998C311.924 144.42 260.292 142.873 253.836 159.998C253.836 159.998 254.836 209.998 267.336 223.498C271.327 224.578 269.007 224.422 273.336 223.498C272.718 229.193 273.885 229.744 271.768 235.068L270.933 236.565C270.933 236.565 271.077 239.844 261.139 237.033C252.519 234.587 246.455 244.998 241.336 253.498Z" fill="#F4C7C3"/>
<path opacity="0.1" d="M273.513 224.153C266.767 220.775 265.105 205.6 262.453 200.813C259.802 196.026 266.793 188.67 262.33 175.713C258.999 166.041 261.728 153.673 263.328 148C257.969 150.535 254.286 154.247 254.062 159.346C254.062 159.346 253.033 218.728 273.513 224.153Z" fill="black"/>
<path opacity="0.1" d="M275.928 238.165C277.819 236.421 280.91 217.344 280.91 217.344L275.928 218.645C275.312 224.34 273.926 229.926 271.807 235.25L270.973 236.746C270.973 236.746 267.699 238.933 261.113 237.944L262.574 238.438C267.06 239.414 274.037 239.909 275.928 238.165Z" fill="black"/>
<path d="M334.336 374.5C334.336 371.7 332.836 357.167 332.836 350L255.336 362L245.836 370.5L230.336 375C231.136 378.6 231.169 384.5 232.836 386H327.836C329.836 383.5 334.336 380.5 334.336 374.5Z" fill="white"/>
<path d="M332.836 352C313.636 363.6 277.836 367.833 262.336 368.5V372L269.836 374C280.336 376.5 307.836 365.5 319.836 364C329.436 362.8 332.836 364.5 333.336 365.5L332.836 352Z" fill="#F4F1F1"/>
<path d="M261.837 236.5C249.837 234 246.456 238.454 238.337 247C228.337 257.527 231.85 271.5 231.85 323.5V355.5L239.49 353.557C240.309 354.419 246.44 361.203 246.038 370.628L253.446 368.923L253.55 365.618C253.55 365.618 327.833 355.884 335.006 350.002C347.317 339.904 365.761 293.735 349.837 254.5C342.208 235.683 323.145 233.699 317.837 235C308.382 237.368 304.346 233.613 303.837 232.559C303.837 232.559 294.852 239.495 286.545 241.121L280.024 248.083L278.12 241.108C275.538 240.288 272.33 234.498 272.564 232.858C271.521 233.443 270.405 238.972 261.837 236.5Z" fill="white"/>
<path d="M316.838 299.5L315.194 304.065C313.864 305.9 311.581 307.668 307.838 308.5C298.838 310.5 295.338 314.5 292.338 319.5C289.938 323.5 275.671 334.5 268.838 339.5C276.005 335.833 291.338 328.1 295.338 326.5C299.338 324.9 305.338 324.5 307.838 324.5L315.194 304.065C316.423 302.371 316.838 300.62 316.838 299.5Z" fill="#F4F1F1"/>
<path d="M275.836 399V385H257.836V399H275.836Z" stroke="#FFD300" stroke-width="3"/>
<path d="M259.678 213.015C259.275 210.12 259.249 207.185 259.602 204.283C259.602 204.283 261.112 207.984 264.252 205.6C268.893 202.082 276.279 199.042 287.199 203.784C298.119 208.527 305.478 193.022 305.052 186.442C304.626 179.863 304.76 164.013 299.529 161.717C294.298 159.421 286.293 168.427 274.181 168.654C262.069 168.881 254.336 161.806 254.713 166.547C254.937 169.123 255.023 171.71 254.97 174.297C254.97 174.297 246.649 159.745 248.398 152.202C250.147 144.658 257.967 142.803 265.379 142.788C272.791 142.774 279.504 138.996 282.969 137.726C286.116 136.744 289.447 136.505 292.699 137.027C295.952 137.55 299.038 138.819 301.713 140.736C309.029 145.954 314.093 142.754 317.041 148.977C319.989 155.2 315.44 170.867 313.906 173.993C312.865 176.08 311.493 185.107 310.754 194.304C311.484 195.311 312.645 195.675 314.598 194.447C314.464 199.14 313.777 203.802 312.551 208.336C310.931 213.92 303.309 224.199 288.816 229.678C285.352 231.144 281.589 231.764 277.839 231.485C265.612 230.299 260.281 219.017 259.678 213.015Z" fill="#C09550"/>
<path d="M300.77 213.181C306.119 210.042 310.091 205.606 308.874 196.225C307.658 186.844 312.583 164.096 312.64 155.385C312.696 146.674 303.893 150.054 301.209 144.704C299.528 141.37 295.167 138.603 292.116 136.949C295.59 137.412 298.896 138.723 301.738 140.767C309.055 145.985 314.118 142.785 317.066 149.008C320.014 155.232 315.465 170.898 313.931 174.025C312.89 176.111 311.518 185.138 310.779 194.335C311.509 195.342 312.671 195.706 314.623 194.478C314.489 199.171 313.802 203.833 312.576 208.368C310.956 213.951 303.334 224.23 288.842 229.709C286.814 230.539 284.689 231.108 282.518 231.404C292.649 229.145 295.432 216.316 300.77 213.181Z" fill="#A07E49"/>
<path d="M287.597 136.751C287.597 136.751 283.769 143.699 273.153 146.606C269.401 147.663 256.74 145.028 253.545 149.235C250.351 153.441 249.926 158.684 254.703 166.524C254.927 169.1 255.013 171.688 254.961 174.274C254.961 174.274 246.648 159.747 248.397 152.203C250.146 144.66 257.966 142.804 265.378 142.79C272.79 142.775 279.503 138.998 282.968 137.727C284.462 137.199 286.018 136.871 287.597 136.751Z" fill="#DDAB5B"/>
<path d="M259.676 213.017C259.273 210.122 259.248 207.187 259.6 204.285C259.6 204.285 261.11 207.986 264.25 205.602C266.34 203.967 268.735 202.764 271.295 202.064C273.855 201.363 276.528 201.179 279.159 201.522C278.748 201.576 264.875 203.252 263.498 210.257C262.122 217.262 265.798 225.547 272.483 230.179C264.053 226.811 260.177 218.058 259.676 213.017Z" fill="#DDAA5B"/>
<path d="M236.337 351C245.137 359.8 246.004 371 245.337 375.5L262.337 373C263.537 358.2 255.837 348.5 251.837 345.5L236.337 351Z" fill="#F4F1F1"/>
<rect width="212.841" height="77.8841" rx="8" transform="matrix(-1 0 0 1 236.422 42.4453)" fill="#CCD2DD"/>
<path d="M51.5527 98.0192V65.9792H73.6477V71.4242H58.3927V78.9842H72.7027V84.4742H58.3927V92.5742H73.6477V98.0192H51.5527Z" fill="#FAFAFC"/>
<path d="M97.5212 98.4242C94.2812 98.4242 91.4462 97.7492 89.0162 96.3992C86.6162 95.0192 84.7712 93.0992 83.4812 90.6392C82.1912 88.1492 81.5462 85.2542 81.5462 81.9542C81.5462 78.6842 82.1912 75.8192 83.4812 73.3592C84.7712 70.8692 86.6162 68.9492 89.0162 67.5992C91.4462 66.2492 94.2812 65.5742 97.5212 65.5742C99.6512 65.5742 101.676 65.9042 103.596 66.5642C105.546 67.1942 107.136 68.0942 108.366 69.2642L106.161 74.3042C104.721 73.2242 103.311 72.4442 101.931 71.9642C100.581 71.4542 99.1562 71.1992 97.6562 71.1992C94.7762 71.1992 92.5712 72.1142 91.0412 73.9442C89.5112 75.7742 88.7462 78.4442 88.7462 81.9542C88.7462 85.4942 89.5112 88.1942 91.0412 90.0542C92.5712 91.8842 94.7762 92.7992 97.6562 92.7992C99.1562 92.7992 100.581 92.5592 101.931 92.0792C103.311 91.5692 104.721 90.7742 106.161 89.6942L108.366 94.7342C107.136 95.9042 105.546 96.8192 103.596 97.4792C101.676 98.1092 99.6512 98.4242 97.5212 98.4242Z" fill="#FAFAFC"/>
<path d="M131.353 98.4242C128.173 98.4242 125.398 97.7642 123.028 96.4442C120.688 95.0942 118.873 93.1742 117.583 90.6842C116.323 88.1942 115.693 85.2842 115.693 81.9542C115.693 78.6242 116.323 75.7292 117.583 73.2692C118.873 70.8092 120.688 68.9192 123.028 67.5992C125.398 66.2492 128.173 65.5742 131.353 65.5742C134.533 65.5742 137.293 66.2492 139.633 67.5992C141.973 68.9192 143.773 70.8092 145.033 73.2692C146.293 75.7292 146.923 78.6242 146.923 81.9542C146.923 85.2842 146.293 88.1942 145.033 90.6842C143.773 93.1742 141.973 95.0942 139.633 96.4442C137.293 97.7642 134.533 98.4242 131.353 98.4242ZM131.353 92.9342C134.053 92.9342 136.153 91.9892 137.653 90.0992C139.183 88.2092 139.948 85.4942 139.948 81.9542C139.948 78.4142 139.183 75.7142 137.653 73.8542C136.153 71.9942 134.053 71.0642 131.353 71.0642C128.653 71.0642 126.538 71.9942 125.008 73.8542C123.508 75.7142 122.758 78.4142 122.758 81.9542C122.758 85.5242 123.508 88.2542 125.008 90.1442C126.538 92.0042 128.653 92.9342 131.353 92.9342Z" fill="#FAFAFC"/>
<path d="M156.409 98.0192V65.9792H163.429V92.3042H177.739V98.0192H156.409Z" fill="#FAFAFC"/>
<path d="M186.029 98.0192V65.9792H208.124V71.4242H192.869V78.9842H207.179V84.4742H192.869V92.5742H208.124V98.0192H186.029Z" fill="#FAFAFC"/>
<path d="M66.8134 49.1133L60.2148 57.9956L64.0961 60.6632L70.6202 51.651L66.8134 49.1133Z" fill="#FAFAFC"/>
</svg>
