<svg xmlns="http://www.w3.org/2000/svg" fill="none" viewBox="0 0 472 541"><path fill="#E1E1E1" d="M194 206h198c44.183 0 80 35.817 80 80v26.446L470.963 541H114V286c0-44.183 35.817-80 80-80zM346.285 75.736C309.902 73.19 284.269 100.565 276 114.57h194c-6.785-10.504-26.397-29.157-50.567-19.735-30.213 11.777-27.669-15.915-73.148-19.099z"/><path fill="#fff" d="M228.949 174.218v365.741H92.381V95.07l136.568 79.148z"/><path fill="#E1E1E1" d="M207.25 188.258h-19.145v29.361h19.145zM168.959 188.258h-19.145v29.361h19.145zM130.67 188.258h-19.145v29.361h19.145zM207.25 239.32h-19.145v29.361h19.145zM168.959 239.32h-19.145v29.361h19.145zM130.67 239.32h-19.145v29.361h19.145zM207.25 290.383h-19.145v29.361h19.145zM168.959 290.383h-19.145v29.361h19.145zM130.67 290.383h-19.145v29.361h19.145zM207.25 341.449h-19.145v29.361h19.145zM168.959 341.449h-19.145v29.361h19.145zM130.67 341.449h-19.145v29.361h19.145z"/><rect width="182.376" height="10.737" fill="#152D5D" rx="5.368" transform="rotate(30.005 -107.809 202.328) skewX(.01)"/><path fill="#24AD79" d="M178.903 484.324s-19.771 0-19.771-18.484c0-18.485 12.464-23.643 9.885-37.184-2.579-13.541 7.737-26.867 21.923-18.7 14.186 8.167 3.193 36.181 8.166 44.708 4.972 8.526 6.443 30.951-20.203 29.66z"/><path fill="#179364" fill-rule="evenodd" d="M185.004 407.798c-4.117 3.07-8.597 8.645-6.047 15.659 3.999 11 4.499 22 0 31-4.129 8.26-6.995 23.257 1.835 29.92a44.155 44.155 0 01-2.436-.053s-19.771 0-19.771-18.484c0-9.25 3.121-15.163 5.916-20.459 2.791-5.287 5.257-9.96 3.969-16.725-2.239-11.755 5.241-23.349 16.534-20.858z" clip-rule="evenodd"/><path fill="#fff" d="M182.285 470.531h-2.817v31.927h2.817z"/><path fill="#152D5D" d="M256.211 479.457h190.707v61.032H61.048c.176-11.114 9.236-20.032 20.352-20.032h29.572c18.922 0 54.064-2.191 71.085-18.5 25.57-24.5 52.163-22.5 74.154-22.5z"/><path fill="#0C2048" d="M339.489 539.457c8.398-28.8 32.494-51.667 43.491-59.5h-94.481c-21.996 16-41.159 46.333-42.992 59.5h93.982z"/><path fill="#E5B9B7" d="M131.01 389.89a10.393 10.393 0 013.429-2.268 95.78 95.78 0 0110.923-1.192c1.948 0 9.676 3.369 10.247 3.745.572.376.91 2.268-2.065 2.177-2.974-.09-22.534-2.462-22.534-2.462zM189.996 294.528s1.117-.635 2.598-1.413a28.185 28.185 0 016.741-2.67c3.13-.492 10.793 1.491 13.313 2.009 2.519.518 7.117 1.659 7.117 1.659-.273 1.685 1.78 1.788 1.78 1.788-.169 1.206-1.793 1.193-3.118 1.296a13.848 13.848 0 01-3.156-.337c.023.693.284 1.357.741 1.88a2.608 2.608 0 01-1.403.337 20.155 20.155 0 00-9.092 2.151c-3.766 2.216-7.494 5.741-12.78 10.588a26.557 26.557 0 01-6.313 4.264h-.103l-.78.363a25.98 25.98 0 01-3.338 1.296c-.324.104-.649.182-.961.259l8.754-23.47z"/><path fill="#152D5D" d="M194.775 280.977l13.112 33.063v5.46l-3.769-4.262-13.048-32.836 3.705-1.425z"/><path fill="#F4EFEF" d="M138.772 521.448c-.399-23.895-9.146-79.651-13.47-104.542H31.011c-6.486 14.935-7.982 33.354-7.982 49.782 0 13.142.99 51.259 3.152 73.826h49.542l9.163-39.974c1.996 7.567 3.616 26.367 4.78 39.974h49.105c.043-7.672.09-11.06.13-12.276.094-2.857.146 6.271 0 0-.032-1.398-.075-3.56-.129-6.79z"/><path fill="#CFCDCD" d="M133.264 463.829l-1.992-11.951v-1.494h-17.927l-1.494-14.939h-31.87v16.433l-57.265.996v10.955c27.089-7.17 52.452-7.303 61.747-6.473l-.996-14.939c1.195.797 3.486 1.328 4.482 1.494h13.943c4.382 0 6.805-1.66 7.469-2.49l.996 15.437c8.366 1.593 18.757 5.311 22.907 6.971zM90.44 492.709c3.984 30.674 5.203 34.525 6.199 47.804H88.67c-2.39-32.268-2.879-27.886-3.709-36.849 1.594-14.341 4.316-13.279 5.478-10.955z"/><path fill="#CFCDCD" d="M26.202 540.514c-1.992-67.723 3.486-71.375 6.474-79.674l-9.96 1.992c-1.195 28.682 1.826 53.78 3.486 77.682z"/><path fill="#F4C7C3" d="M202.127 289.626c5.195-.091-.675-3.564-3.779-4.225-3.105-.661-10.027-1.633-12.209 1.296-2.182 2.929-18.664 26.283-21.236 27.359-2.572 1.075-16.191 16.318-16.191 16.318-29.042 3.317-9.074-4.03-15.724-6.972s-7.953-23.768-18.11-34.434c-10.157-10.666-9.481-21.747-18.067-19.311-9.897 2.8-9.754-.466-9.754-.466l-.83-1.491a63.22 63.22 0 01-4.105-16.537c4.312.92 3.974 1.218 7.949.143 23.378-6.39 1.727-68.923 1.727-68.923-6.43-17.055-49.277-3.447-54.667 6.092-5.196 9.176 2.338 23.16 2.338 23.16-5.352-.195-5.962 4.121-5.962 4.121-1.091 9.279 12.274 15.293 12.274 15.293l1.299 1.633c11.87 16.68 8.897 28.512 6.689 33.554-.494 1.049-4.676 3.499-8.962 3.421-5.455-.078-20.535.298-28.133 19.039-14.43 35.549-1.117 88.31 6.56 93.468 7.675 5.158 81.124 15.553 81.124 15.553l7.481 4.989 8.884 2.592c2.844.946 8.468 3.474 15.586 5.366 8.922 2.333 10.221 2.864 12.637 3.162 2.715.324 2.273.583 5.689.894 2.598.234 2.598-1.853 2.598-1.853l4.493 1.153c3.663-.246 2.157-4.419 2.157-4.419a2.775 2.775 0 001.721-3.352 2.783 2.783 0 00-.682-1.184c-.78-.635-7.793-4.653-9.274-5.599-1.481-.946-7.338-4.212-7.338-4.212s8.507 2.294 8.987 2.942a85.525 85.525 0 007.689 5.715c1.546.778 3.066-1.723 2.079-3.032-.988-1.309-6.702-6.843-9.313-7.984-2.611-1.14-7.13-4.549-9.248-5.521-2.117-.972-2.597.933-8.689.765-6.091-.169-3.896-.078-4.844-.272-.948-.195-2.325-.505-3.962-.829-1.848-.366-3.158-.237-4.662.349l-14.911-3.447h19.301c-1.65-38.855-4.754-59.215-4.754-59.215s-6.273 32.945 15.975 29.808c22.249-3.136 27.023-29.319 28.855-30.446.818-.506 3.013-1.802 5.546-3.694 12.053-1.594 8.611-12.169 16.014-12.169 8.559 0 10.261-.493 10.261-2.074s-8.546-2.398-14.118-2.592c.922-3.992 1.052-7.776 2.467-11.288 1.637-4.109 7.287-2.579 11.144-2.644z"/><path fill="#000" d="M93.474 249.804c5.338-5.288 2.208-20.166 3.234-25.519 1.026-5.352-7.87-10.147-7.663-23.794.156-10.187-6.26-21.048-9.533-25.921 5.857.739 10.494 3.111 12.287 7.867 0 0 19.378 55.884 1.675 67.367zM82.083 270.783c-1.884-1.737-4.962-20.736-4.962-20.736l4.962 1.296a63.1 63.1 0 004.104 16.537l.831 1.49s3.26 2.178 9.82 1.193l-1.456.492c-4.467.972-11.416 1.465-13.3-.272z" opacity=".1"/><path fill="#F4EBEA" d="M164.15 312.448a47938.5 47938.5 0 00-8.963 5.975c-17.927 9.959-13.715 8.324-20.703 6.302-10.858-3.201-6.681-32.646-16.838-43.339-10.157-10.692-12.248-14.126-20.78-11.664-8.534 2.463-10.391-3.641-11.43-4.225.233 1.633-2.962 7.401-5.534 8.217l-1.896 6.947-6.494-6.934c-8.273-1.62-17.222-8.528-17.222-8.528-.507 1.05 1.299 6.83-8.118 4.471-5.286-1.296-21.885.286-29.483 19.026-15.859 39.075-5.702 83.412 6.559 93.469 7.143 5.858 81.124 15.552 81.124 15.552l.104 3.292 7.377 1.697c-.428-10.057 6.611-17.094 6.611-17.094l-7.026-1.672h19.3c-1.649-38.854-4.753-59.215-4.753-59.215s-6.274 32.945 15.975 29.809c15.131-2.139 20.198-13.205 27.668-23.164-6.39-5.949-5.478-18.922-5.478-18.922z"/><path fill="#000" d="M104.515 379.856l-4.169-27.916-3.897-26.024-1.467-9.837a58.707 58.707 0 00.52-16.394c-.793-7.906-.442-17.846-4.443-27.009 0 0 1.754 8.087 1.17 13.88-.364 3.642-3.079 14.606-1.3 23.069 1.78 8.463 4.741 10.576 4.17 22.201-.572 11.625-1.143 30.625 9.416 48.03z" opacity=".1"/><path fill="#F4EBEA" d="M109.059 401.973l-29.933-6.969.998 30.865h31.929l-2.994-23.896z"/><path fill="#DCD4D3" d="M108.786 402.081l3.484 24.4h-5.474c-1.99-2.988-2.488-9.461-1.99-13.445.497-3.984 1.492-8.465-7.464-9.461-7.166-.797-14.928-1.992-17.914-2.49l-1.493-5.976 1.493.498 29.358 6.474z"/><path fill="#000" d="M111.055 436.819l-.814-10.952H80.123l.428 10.952h30.504z"/><path stroke="#FFD300" stroke-width="3" d="M103.57 436.819v-10.952H90.1v10.952h13.47z"/><path fill="#CCD2DD" d="M6.286 288.544c4.988-14.594 20.158-19.661 27.457-20.322l20.585-3.05s7.793 30.871 22.872 51.426l2.312 50.48 33.016 16.848-.208.207a18.131 18.131 0 00-4.78 14.192l.104 3.291-3.078-.674s-45.05-4.992-68.182-10.228c-1.922-.441-7.968-2.079-7.968-2.079l-22.13-9.563s-14.144-49.134 0-90.528z"/><path fill="#CCD2DD" d="M161.162 311.948l-1.559 1.518c-6.409 4.956-15.482 11.906-22.132 8.964-6.65-2.942-8.032-23.328-13.253-37.118-3.494-9.215-7.183-18.74-21.236-20.14l-17.6.298c.4 1.367.982 2.674 1.728 3.888l.26.156c.985.419 2.007.749 3.052.985 0 0 7.468 23.146 4.572 45.593l9.663 64.684 7.871 3.15h18.184c-1.65-38.881-2.208-35.096-2.208-35.096s-13.282 18.043 8.967 14.906c12.663-1.788 22.132-11.951 29.769-29.144-2-3.279-7.299-14.998-6.078-22.644zM112.052 451.754l-3.492-49.781c1.496.332 5.188 1.194 7.982 1.991 3.492.996 6.984 1.991 9.479 2.987 1.995.796 6.153 2.323 7.982 2.987l4.989 41.816h-26.94zM81.121 453.248l-1.995-57.747-60.367-14.935 1.996 21.904-6.985 50.778h67.351z"/><path fill="#B8BFCD" d="M131.01 387.035l-.499-7.965-19.956 4.481 15.466 3.982c1.497-.995 4.49-.498 4.989-.498zM18.721 381.664l60.21 13.943.497 5.478-60.21-13.943-.497-5.478zM74.55 324.143l-1.012-6.7-3.754 5.689a73.315 73.315 0 01-11.858-16.55 64.948 64.948 0 0011.806 18.144l3.702-5.624 1.117 5.041zM96.463 322.133l1.74-6.48 4.027 3.888s2.948-11.522 2.351-20.814a58.949 58.949 0 01-2.118 22.809l-3.896-3.991-2.104 4.588zM68.2 362.466s-7.416-4.29-10.274-4.044c-2.857.246-17.714-2.249-17.714-2.249s-.722-16.962 1.995-26.384c0 0 3.497 13.625 6.264 17.85 2.766 4.225 5.806 2.463 10.624 6.26 4.819 3.797 4.286 6.04 9.105 8.567z"/><path fill="#594423" d="M103.554 229.65a33.687 33.687 0 00-2.922-8.191s-.143 3.979-3.897 2.825c-5.546-1.698-13.495-2.009-22.08 6.169-8.585 8.178-20.781-3.797-22.638-10.096-1.858-6.298-7.417-21.073-3.312-25.013 4.104-3.94 14.676 1.737 26.08-2.203 11.404-3.94 16.21-13.206 17.482-8.644a71.994 71.994 0 002.416 7.335s2.792-16.459-1.429-22.914c-4.22-6.454-12.17-5.508-19.105-2.98-6.936 2.527-14.508 1.296-18.184 1.296a21.217 21.217 0 00-16.495 9.24c-5.052 7.387-10.884 6.13-11.508 12.96-.623 6.83 9.001 19.92 11.508 22.318 1.689 1.594 6.066 9.564 9.91 17.911-.338 1.192-1.299 1.931-3.546 1.451A59.475 59.475 0 0052.51 243.4c3.43 4.666 14.08 11.665 29.51 11.82a23.55 23.55 0 0010.883-2.074c11.028-5.3 12.145-17.677 10.651-23.496z"/><path fill="#3E2F1C" d="M65.186 243.893c-6.078-1.101-11.313-3.888-13.39-13.077-2.079-9.188-14.483-28.771-17.522-36.897-3.04-8.126 6.351-7.984 7.027-13.906.428-3.694 3.558-7.776 5.844-10.368a21.202 21.202 0 00-7.689 6.868c-5.052 7.388-10.884 6.131-11.507 12.961-.624 6.83 9 19.919 11.507 22.317 1.689 1.594 6.066 9.565 9.91 17.911-.337 1.192-1.298 1.931-3.545 1.451a59.509 59.509 0 006.676 12.287c3.428 4.665 14.079 11.664 29.509 11.819 2.18.081 4.363-.115 6.494-.583-10.248 1.361-17.249-9.681-23.314-10.783z"/><path fill="#674F2D" d="M51.303 167.908s5.961 5.184 16.884 4.263c3.87-.298 14.807-7.102 19.236-4.263 4.429 2.838 6.624 7.594 4.844 16.563a71.994 71.994 0 002.416 7.335s2.793-16.433-1.428-22.888c-4.221-6.454-12.17-5.508-19.106-2.98-6.936 2.527-14.508 1.296-18.184 1.296a17.85 17.85 0 00-4.662.674zM103.552 229.648a33.603 33.603 0 00-2.922-8.191s-.143 3.979-3.896 2.825a19.937 19.937 0 00-15.34 1.296c.403-.09 13.95-3.279 17.638 2.8 3.689 6.078 3.092 15.085-1.571 21.708 6.728-6.039 7.351-15.552 6.091-20.438z"/><path fill="#F4C7C3" d="M191.699 302.77a62.47 62.47 0 017.793.997c1.702.558 2.403 1.154 2.312 2.061-.091.907-1.909 1.607-4.221 1.555l-4.728-.103-1.156-4.51z"/><path fill="#fff" d="M447 298l-110 52.668V541h110V298z"/><path fill="#FF8139" d="M353 391.434v-5.903h81.312v5.903H353z"/><path fill="#D3662F" fill-rule="evenodd" d="M413.439 391.986h-60.562v-5.009l60.562 5.009z" clip-rule="evenodd"/><path fill="#FF8139" d="M353.002 372.309v-5.903h81.312v5.903h-81.312z"/><path fill="#D3662F" fill-rule="evenodd" d="M429.023 372.245h-76.4v-5.878l76.4 5.878z" clip-rule="evenodd"/><path fill="#FF8139" d="M352.877 470.696v-5.903h81.312v5.903h-81.312z"/><path fill="#D3662F" fill-rule="evenodd" d="M431.486 470.54h-78.863v-5.903h1.6l77.263 5.903z" clip-rule="evenodd"/><path fill="#FF8139" d="M352.877 451.02v-5.903h81.312v5.903h-81.312z"/><path fill="#D3662F" fill-rule="evenodd" d="M420.226 451.392h-67.603v-5.904h2.226l65.377 5.904z" clip-rule="evenodd"/><path fill="#FF8139" d="M352.877 431.341v-5.903l81.312-.001v5.904h-81.312z"/><path fill="#D3662F" fill-rule="evenodd" d="M424.408 430.965h-71.785v-5.485l71.785 5.485z" clip-rule="evenodd"/><path fill="#FF8139" d="M352.877 411.665v-5.903h81.312v5.903h-81.312z"/><path fill="#D3662F" fill-rule="evenodd" d="M416.787 411.818h-64.164v-5.541l64.164 5.541z" clip-rule="evenodd"/><rect width="153.908" height="10.737" fill="#152D5D" rx="5.368" transform="matrix(-.86598 .50007 .49993 .86607 456.645 282.09)"/><path fill="#E2BBA6" d="M213.254 380.753s11.948-1.607 21.511-13.5c0 0-2.385 9.999 10.369 21.45 8.835 7.907 1.944 50.025-1.777 57.457 0 0 35.248 34.73 92.625 6.915 0 0-14.41-52.446-15.459-82.1-1.292-33.672-5.19-55.32-16.984-87.11-11.793-31.789-14.587-49.33-12.986-66.068 1.601-16.737.795-42.944-28.711-49.275-29.506-6.332-32.996 28.365-32.996 28.365s-2.606 44.364 9 54.528c10.171 8.963 27.607-2.412 27.607-2.412s4.042 20.58-.641 27.848c0 0-6.459 7.388-22.416 13.742-16.664 6.607-19.336 55.056-28.17 63.931"/><path fill="#CEA999" d="M247.287 169.039c-1.181 7.212-3.07 18.796-4.814 30.215 1.104-10.758 3.147-22.672 4.56-30.127l.254-.088z"/><path fill="#CEA999" d="M228.868 196.93l13.605 2.323-.685 10.351c-.132 5.681 3.161 5.962 4.563 8.12 5.875 9.062 5.589-8.583 10.447-8.12 4.859.462 6.91 6.739 3.42 16.164-3.489 9.426 9.055 12.047 10.137 17.332 1.083 5.285 9.508 35.049 0 45.234l-14.565-4.404a44.041 44.041 0 009.011-7.036c4.682-7.268.64-27.848.64-27.848s-17.425 11.375-27.606 2.412a13.229 13.229 0 01-2.209-2.555c-5.797-8.115-6.625-28.717-6.791-33.133-.166-4.416.033-18.84.033-18.84z"/><path fill="#E9D694" d="M255.238 210.574c-3.079 2.64-5.682 13.564-6.599 18.696 1.1-12.647-7.585-17.265-17.045-21.995-6.599-3.299-13.404-10.997-10.998-18.695 2.75-8.798 6.049-5.499 14.297-15.946 8.248-10.448 19.564-9.377 25.294-7.149 9.897 3.849 10.447 4.949 16.496 8.248 5.397 2.944 6.121 1.633 15.396 6.049 11.547 5.498 13.197 21.445 9.348 30.792-3.849 9.348-6.599 8.798-3.849 16.496 2.749 7.698 0 10.998-3.849 14.847-3.08 3.079-4.216 7.881-4.399 9.897-1.65-3.299-8.248-7.148-14.847-6.048-6.598 1.1-6.048-6.599-10.447-9.348-4.399-2.749-6.049-5.499-3.299-13.197 2.749-7.698-1.65-15.946-5.499-12.647z"/><path fill="#FAE9B1" d="M221.146 196.829c-1.1-2.2-2.419-7.808 1.1-12.647 4.399-6.049 6.048-2.2 11.547-9.898 5.499-7.698 11.547-12.097 23.644-9.898 12.097 2.2 14.847 8.798 26.394 12.098 11.249 3.214 18.323 6.949 19.698 22.39.067.471.097.893.097 1.254a57.25 57.25 0 00-.097-1.254c-.48-3.355-2.857-9.185-9.801-13.043-9.897-5.498-15.946-5.498-27.493-11.547-11.547-6.048-19.795-8.798-26.943 0-7.149 8.798-13.747 8.248-15.946 12.647-2.2 4.399-2.2 5.499-2.2 9.898z"/><path fill="#F4EFEF" d="M244.792 442.215s-16.778 60.461-15.829 98.296h128.584s-1.134-30.26-6.083-50.056c-4.949-19.795-17.569-45.322-17.569-45.322s-48.974 25.095-89.103-2.918z"/><path fill="#152D5D" d="M202.45 342.544c-19.8 18.95-51.688 28.592-68.184 25.843v23.991c12.098 3.957 50.588 8.451 76.029-6.407 0 0 10.85-4.387 19.648-13.735v37.156s-1.22 60.004-1.22 74.49c0 0 77.228 38.35 120.668-5.639 0 0-2.234-30.454-5.264-79.228-2.77-44.6.188-89.464-27.855-111.458-10.123-7.94-16.608-16.823-16.608-16.823-2.853-1.357-14.193-1.983-36.729 6.375-5.408 7.594-15.396 8.248-24.744 14.847-23.094 16.302-20.48 35.987-35.741 50.588z"/><path fill="#000" d="M298.482 456.992c-.198 1.333-.386 2.632-.574 3.92.188-1.288.376-2.587.574-3.92zM298.637 455.98c0-.352.099-.705.154-1.101-.044.396-.11.749-.154 1.101z" opacity=".3"/><path fill="#152D5D" d="M297.976 519.602l4.549 20.894h-10.997c2.2-9.897 5.749-18.512 6.448-20.894z"/><path fill="#C4C4C4" d="M298.128 519.599l4.399 20.895h8.797l-4.399-15.946 11.548-6.599c-5.279.88-15.763 1.467-20.345 1.65z"/><path fill="#081B42" fill-rule="evenodd" d="M243.23 488.784c-8.673-12.691-6.463-53.313.458-72.479 5.587-15.471-.761-39.623-4.703-54.618-1.025-3.901-1.887-7.182-2.335-9.529-1.151-6.047-6.743-.237-14.902 8.24-7.188 7.467-16.367 17.004-26.259 22.331-15.025 8.09-44.012 7.073-60.911 5.099v3.622c12.097 3.957 50.588 8.452 76.028-6.407 0 0 10.851-4.387 19.649-13.734v37.155s-1.221 60.004-1.221 74.49c0 0 5.42 2.691 14.196 5.83z" clip-rule="evenodd"/><path fill="#666A6A" d="M133.844 392.768v-23.474c0-1.066.836-1.945 1.901-1.997l15.238-.752a2 2 0 012.098 1.998v27.153a2 2 0 01-2.377 1.964l-15.238-2.928a2 2 0 01-1.622-1.964z"/><ellipse cx="143.031" cy="372.668" fill="#FFD300" rx="2.261" ry="2.156"/><path fill="#E1E1E1" d="M63.13 315.948l52.502 56.91 49.296-14.828-51.7-55.307-50.097 13.225z"/><path stroke="#000" d="M112.979 310.926l-13.68 4.45M114.68 342.375l-13.681 4.45M133.086 348.508c-3.187-1.758-8.241-5.242-2.967-5.11 6.593.165 16.647 10.714 9.395 10.054-5.802-.527-12.087-4.285-14.504-6.098 1.867 2.307 5.043 6.758 2.801 6.098-2.241-.659-5.109-3.571-6.263-4.944 1.099 1.922 2.374 5.373-1.318 3.79-4.615-1.977-1.319 0-3.462 0h-12.032M117.758 317.191L84.794 328.07m37.874-5.599l-32.964 10.878m38.255-5.279l-32.964 10.878"/><path fill="#E2BBA6" d="M123.484 369.136c3.387.988 8.39 3.366 10.331 3.249v16.958c-13.37-5.531-31.951-13.577-41.038-24.915-7.269-9.07-9.768-20.257-8.188-25.998 7.984 10.05 22.941 26.228 22.941 24.958 0-1.588-.176-8.468-1.235-11.29-1.058-2.823-6.013-7.485-3.896-9.779 2.117-2.293 7.866 6.483 13.511 13.716s3.34 11.867 7.574 13.101z"/></svg>