<svg xmlns="http://www.w3.org/2000/svg" fill="none" viewBox="0 0 470 541"><path fill="#E1E1E1" d="M116 100C116 44.772 160.772 0 216 0h144c60.751 0 110 49.249 110 110v431H116V100z"/><path fill="#D2D2D2" d="M385.983 524.427c30.274-30.18 69.493-94.367 83.611-121.517l-343.396-29.974-64.51 78.193c130.755 48.8 285.008 112.463 324.295 73.298z"/><path fill="#fff" d="M320 154H116v7h204z"/><path fill="#C4C4C4" d="M239 88v64a2 2 0 01-2 2h-12a2 2 0 01-2-2V88a2 2 0 012-2h12a2 2 0 012 2z"/><circle r="3.5" fill="#fff" transform="matrix(-1 0 0 1 231.5 146.5)"/><path fill="#FF8139" d="M223 88v64a2 2 0 01-2 2h-12a2 2 0 01-2-2V88a2 2 0 012-2h12a2 2 0 012 2z"/><circle r="3.5" fill="#fff" transform="matrix(-1 0 0 1 215.5 146.5)"/><path fill="#FF8139" d="M173 88v64a2 2 0 01-2 2h-12a2 2 0 01-2-2V88a2 2 0 012-2h12a2 2 0 012 2z"/><circle r="3.5" fill="#fff" transform="matrix(-1 0 0 1 165.5 146.5)"/><path fill="#C4C4C4" d="M157 88v64a2 2 0 01-2 2h-12a2 2 0 01-2-2V88a2 2 0 012-2h12a2 2 0 012 2z"/><circle r="3.5" fill="#fff" transform="matrix(-1 0 0 1 149.5 146.5)"/><path fill="#666A6A" d="M184.186 98.092l6.85 1.444-11.549 54.796-6.85-1.444z"/><path fill="#C4C4C4" d="M191.406 98l6.927 1.008-8.066 55.416-6.927-1.008z"/><path fill="#666A6A" d="M199.033 98l6.967.674-5.395 55.74-6.967-.674z"/><path fill="#fff" d="M131.953 403l-3.266-75.604L470 403l-55.641 39.27a100.001 100.001 0 01-83.941 14.784L131.953 403z"/><path fill="#E1E1E1" d="M262.5 388c5.6-4.8 2.333-7.667 0-8.5-7.667 1.833-23.2 5.5-24 5.5-.8 0-49.933 14.9-72.933 20.733l-3.622 5.446L194 419.908v-5.846c7.5-2 40.5-19.062 47-19.062s14.5-1 21.5-7z"/><rect width="99" height="69" fill="#152D5D" rx="4" transform="matrix(-1 0 0 1 239 280)"/><rect width="95" height="66" fill="#CCD2DD" rx="4" transform="matrix(-1 0 0 1 237 282)"/><path fill="#152D5D" d="M258 360.5l-21.5-12h-95l19 12H258z"/><path fill="#fff" d="M258 358.5v2l-4-2h4z"/><path fill="#152D5D" d="M258 358.5l-21.5-12h-95l19 12H258z"/><path fill="#fff" d="M209 351.5l6.5 5h-23l-6-5H209zM214.5 350H211l1 1h4l-1.5-1zM219.5 350H216l1 1h4l-1.5-1zM224.5 350H221l1 1h4l-1.5-1zM189 350h-4l1 1h4l-1-1zM184 350h-4l1 1h4l-1-1zM179 350h-4l1 1h4l-1-1zM174 350h-4l1 1h4l-1-1zM169 350h-4l1 1h4l-1-1zM164 350h-4l1 1h4l-1-1zM210.5 348H207l1 1h4l-1.5-1zM205.5 348H202l1 1h4l-1.5-1zM200.5 348H197l1 1h4l-1.5-1zM195.5 348H192l1 1h4l-1.5-1zM190.5 348H187l1 1h4l-1.5-1zM215.5 348H212l1 1h4l-1.5-1zM220.5 348H217l1 1h4l-1.5-1zM186 348h-4l1 1h4l-1-1zM181 348h-4l1 1h4l-1-1zM176 348h-4l1 1h4l-1-1zM171 348h-4l1 1h4l-1-1zM166 348h-4l1 1h4l-1-1zM161 348h-4l1 1h4l-1-1zM191.143 351H206l-1.143-1H190l1.143 1zM209.5 350H206l1 1h4l-1.5-1z"/><path fill="#999696" d="M215.861 303.348a2 2 0 012.227-1.73l41.085 5.037a2 2 0 011.74 2.24l-8.438 65.591a2 2 0 01-2.227 1.73l-41.085-5.037a2 2 0 01-1.74-2.24l8.438-65.591z"/><path fill="#C4C4C4" d="M214.916 302.765a3 3 0 013.308-2.587l39.025 4.366a3 3 0 012.64 3.376l-8.548 64.357a3 3 0 01-3.307 2.586l-39.026-4.366a3 3 0 01-2.64-3.376l8.548-64.356z"/><path fill="#fff" d="M217.463 302.284l40.172 4.885-8.376 63.223-40.286-5.781 8.49-62.327z"/><path fill="#FFD300" d="M235.922 329.568c-1.043-.089-1.925.15-2.644.715-.712.565-1.233 1.468-1.562 2.708l5.064.431-.146 1.71-5.23-.445-.065.498-.052.61-.014.435 4.53.386-.144 1.699-4.342-.37c.277 2.35 1.526 3.62 3.747 3.809 1.059.09 2.163-.047 3.312-.411l-.192 2.254c-1.008.369-2.156.499-3.444.389-1.784-.152-3.194-.764-4.229-1.836-1.027-1.072-1.632-2.548-1.815-4.428l-1.688-.143.145-1.699 1.51.128.013-.413.035-.411.083-.719-1.51-.129.146-1.71 1.666.142c.439-1.835 1.27-3.233 2.493-4.195 1.223-.962 2.73-1.367 4.522-1.215 1.48.127 2.778.565 3.892 1.316l-1.11 1.997c-1.092-.659-2.082-1.027-2.971-1.103z"/><path fill="#E2BBA6" d="M236 368c-.919 2.144-4.5 5-7 6v17c8-1.5 8.5-1.5 11.5-1.5 8 0 10.5-1 16-3.5 3.053-1.388 7-4.5 7-6.5s-1.5-5-.5-7.5.5-5-1-7-3.5-4-3.5-7.5c0-2.8-1.5-5.5-3-7L254 361c0 3.6-2.5 7.5-9 5.5-3.5-1.077-4-3.5-4-5.5 0-2.5 2.5-8.5 1-8.5s-3.5 2-4.5 6.5 0 5.5-1.5 9zM151.176 394.743s-10.864-1.462-19.56-12.276c0 0 2.169 9.092-9.429 19.505-8.033 7.189-1.767 45.488 1.617 52.246 0 0-32.052 31.58-84.226 6.288 0 0 13.104-47.69 14.058-74.654 1.175-30.619 4.72-50.304 15.443-79.211 10.724-28.906 13.265-44.856 11.809-60.076-1.456-15.219-.723-39.049 26.107-44.806 26.83-5.758 30.003 25.792 30.003 25.792s2.37 40.341-8.184 49.583c-9.247 8.15-25.103-2.193-25.103-2.193s-3.675 18.714.583 25.322c0 0 5.874 6.719 20.383 12.496 15.153 6.008 17.583 50.064 25.616 58.134"/><path fill="#CEA999" d="M120.229 202.229c1.074 6.559 2.791 17.092 4.377 27.475-1.004-9.782-2.861-20.616-4.147-27.394l-.23-.081z"/><path fill="#E2BBA6" d="M136.977 227.592l-12.371 2.112.623 9.412c.12 5.167-.291 9.312-1.567 11.275-5.341 8.24-7.47-11.014-11.888-10.594-4.418.421-6.477 5.447-3.304 14.018 3.173 8.571-8.234 10.954-9.218 15.76-.984 4.806-8.645 31.87 0 41.132l13.245-4.005a40.002 40.002 0 01-8.194-6.398c-4.257-6.608-.582-25.322-.582-25.322s15.845 10.343 25.103 2.193a12.057 12.057 0 002.008-2.323c5.272-7.38 6.025-26.113 6.175-30.129.151-4.015-.03-17.131-.03-17.131z"/><path fill="#F3D6C6" d="M131 254.5v-28l6.5 10.5c0 5.167-.5 18.1-2.5 28.5-2 10.4-9 14-12 14.5 7-5.5 8-18 8-25.5z"/><path fill="#2F2417" d="M114.925 240.515c2.8 2.4 5.167 12.333 6 17-1-11.5 6.898-15.699 15.5-20 6-3 12.188-10 10-17-2.5-8-5.5-5-13-14.5s-17.79-8.526-23-6.5c-9 3.5-9.5 4.5-15 7.5-4.907 2.677-5.566 1.484-14 5.5-10.5 5-12 19.5-8.5 28s6 8 3.5 15 0 10 3.5 13.5c2.8 2.8 3.834 7.166 4 9 1.5-3 7.5-6.5 13.5-5.5s5.5-6 9.5-8.5 5.5-5 3-12 1.5-14.5 5-11.5z"/><path fill="#4F3C27" d="M145.924 228.015c1-2 2.2-7.1-1-11.5-4-5.5-5.5-2-10.5-9s-10.5-11-21.5-9-13.329 6-23.829 9c-10.23 2.923-16.825 8.218-18.082 22.36a8.152 8.152 0 00-.089 1.14c.026-.386.055-.766.089-1.14.436-3.05 2.597-8.352 8.911-11.86 9-5 14.5-5 25-10.5s18-8 24.5 0 12.5 7.5 14.5 11.5 2 5 2 9z"/><path fill="#292289" d="M70.706 302.166s-4.8 4.005-9.128 16.02c-4.327 12.016 6.929-6.918 6.929-6.918l1.325-6.699.874-2.403z"/><path fill="#F4EFEF" d="M122.498 450.634s15.245 54.657 14.382 89.06H20s1-27.194 5.5-45.194c4.5-18 15.975-41.213 15.975-41.213s44.533 22.819 81.023-2.653z"/><path fill="#FF8139" d="M229.001 373.5c-15 2.5-47.997 5.732-66.001-11.5-13.876-13.277-13-36-31.384-49.5-9.429-6.5-23.786-11.557-28.616-15-23 2-24.77-.074-29.5-5-4 3.5-16.5 5-23.439 29.5-3.94 13.911-7.49 44.391-8.595 75-1.004 26.964 0 56.287 0 56.287 7.34 33.453 82.338.931 82.338.931C126 443 129.5 414 129.5 414l2.116-31.532c8.696 10.833 22.251 17.021 22.251 17.021 20.555 11.785 64.134-4.989 75.134-8.587V373.5z"/><path fill="#D3662F" d="M229.001 391v-5.5s-35 16.472-57.5 13.989c-7.5-.828-16.328-7.209-25.677-9.983-9.348-2.773-18.506-20.485-18.506-20.485-.803 18.373-12.883 21.266-20.233 36.245-5.452 11.114-1.526 40.472.864 54.89 9.348-3.124 15.855-5.938 15.855-5.938-2.952-7.85-9.62-45.057-1.617-52.246 11.598-10.413 9.429-19.504 9.429-19.504 8.696 10.833 22.251 17.021 22.251 17.021 20.555 11.815 64.634-4.989 75.134-8.489z"/><path fill="#000" d="M73.678 464.071c.18 1.212.351 2.393.522 3.565-.17-1.172-.341-2.353-.522-3.565zM73.537 463.15c0-.321-.09-.641-.14-1.002.04.361.1.681.14 1.002z" opacity=".3"/><path fill="#E1E1E1" d="M74.136 521L70 540h10c-2-9-5.227-16.833-5.864-19z"/><path fill="#C4C4C4" d="M74 521l-4 19h-8l4-14.5-10.5-6c4.8.8 14.333 1.333 18.5 1.5z"/><path fill="#F4EFEF" d="M222.5 445.5c-11.2.4-54.667 6.167-75 9h47c16.8 5.6 22 27.833 22.5 36.5v50h48c-4.667-21.167-14.6-65.7-17-74.5-3-11-11.5-21.5-25.5-21z"/><path fill="#F4EFEF" d="M175 430l-29 5v19.5l58.5-7.5c-.4-17.6-19.833-18.667-29.5-17z"/><path fill="#152D5D" d="M111.116 355.451c-12.89-8.781-40.94-11.118-65.631-11.273C19.675 344.016 0 365.731 0 391.54V540l216.83 1c.128-4.311.308-20.599 0-47.261-.309-26.663-15.047-37.308-22.378-39.298h-48.227c.617-60.886-9.494-81.539-35.109-98.99z"/><ellipse fill="#152D5D" rx="24.5" ry="9" transform="matrix(-1 0 0 1 375.5 406)"/><ellipse fill="#152D5D" rx="24.5" ry="9" transform="matrix(-1 0 0 1 375.5 391)"/><path fill="#152D5D" d="M400 406v-15h-49v15h49z"/><ellipse fill="#152D5D" rx="4.5" ry="13" transform="scale(-1 1) rotate(-15.345 920.282 1436.082)"/><path stroke="#fff" stroke-width="5" d="M375.5 388.5v-63c-.167-6.833-5.7-22.3-26.5-29.5"/><path fill="#152D5D" d="M341 278l9.5 4-7 25-12-4c0-13 5-22 9.5-25z"/><path fill="#fff" d="M304.397 248.993l35.882 28.847c-7.848 8.375-9.08 20.238-8.714 25.123l-36.314-3.313c-7.317-28.143 3.049-45.497 9.146-50.657z"/><ellipse fill="#152D5D" rx="13.5" ry="7" transform="matrix(-1 0 0 1 314.5 371)"/><ellipse fill="#152D5D" rx="13.5" ry="6" transform="matrix(-1 0 0 1 314.5 348)"/><path fill="#152D5D" d="M328 371v-23h-27v23h27z"/><ellipse fill="#000" rx="11.5" ry="5" transform="matrix(-1 0 0 1 314.5 348)"/><path fill="#FF8139" d="M328 330l-4.5 21c-.8.8-2 1-2.5 1l5-22.5 2 .5z"/><path fill="#FFD300" d="M306 331.5l7.5 21.5c-1.6 0-3-.333-3.5-.5l-7-20 3-1z"/><ellipse fill="#FAFAFC" rx="1.486" ry="1.417" transform="matrix(-1 0 0 1 226.866 369.685)"/></svg>