<svg xmlns="http://www.w3.org/2000/svg" fill="none" viewBox="0 0 472 541"><path fill="#E1E1E1" fill-rule="evenodd" d="M71.876 65c-4.07 10.893-6.296 22.687-6.296 35v440H470V110C470 49.249 420.751 0 360 0H165.58c-27.301 0-52.047 10.94-70.093 28.677 9.321 2.133 14.802 7.3 19.788 12.001 5.15 4.855 9.771 9.212 17.55 9.212 18.599 0 26.936 8 26.936 15.11H71.876z" clip-rule="evenodd"/><path fill="#fff" d="M461.578 115h-248c0-8.095 7.624-24.286 38.118-24.286C305.813 90.714 304.402 55 342.99 55c44.706 0 47.059 35.714 75.294 35.714 29.893 0 43.294 12.857 43.294 24.286z"/><path fill="#24AD79" d="M379.768 398.826s-64.77 0-64.77-60.558c0-60.557 40.831-77.456 32.383-121.818-8.447-44.361 25.347-88.019 71.823-61.263 46.475 26.757 10.46 118.533 26.751 146.467 16.292 27.934 21.11 101.4-66.187 97.172z"/><path fill="#179364" fill-rule="evenodd" d="M390.634 147.007c11.763 10.113 20.874 27.98 14.285 56.975-13.249 58.307-3.974 82.159 7.95 103.362 11.853 21.077-6.406 97.154-89.919 62.906 17.388 28.576 56.646 28.576 56.646 28.576 87.297 4.228 82.479-69.238 66.187-97.172-6.198-10.627-4.825-30.495-3.304-52.507 2.477-35.847 5.347-77.383-23.447-93.96-10.178-5.859-19.747-8.342-28.398-8.18z" clip-rule="evenodd"/><path fill="#fff" d="M377.167 335.785c-.001-11.019-12.391-33.363-16.175-40.572 21.397 37.101 23.877 13.38 26.82 5.231 2.354-6.519-.227-22.939-1.811-30.333 1.755 6.64 5.978 19.15 8.828 16.072 2.85-3.079 9.94-19.996 13.129-28.07-6.489 19.015-18.912 58.246-16.692 63.05 2.221 4.804 18.225 2.001 25.95 0-20.327 7.352-25.769 20.723-25.95 26.49v176.239h-14.099V335.785z"/><path fill="#0C2048" d="M134.08 419.498c24 4 78.666 12.334 103 16h3.5l-17 104.501h-30c5-33 22.5-60 19-71s-29-18-47-25.5-28 5.999-36-10.501c-6.4-13.2.333-14.5 4.5-13.5z"/><path fill="#152D5D" d="M86.082 310.5c-4.43-1.846-11.5-7-85.5-4v234h469c3.6-37.6-11.833-64.333-20-73-26-17.6-169.167-40-237.5-49-61-61-114-103-126-108z"/><path fill="#E1E1E1" d="M96.582 329c32.4 23.6 79.5 70.5 99 91h-195V318h70c13.2.4 21.5 7.5 26 11z"/><path fill="#666A6A" d="M409.58 470.498c19.2 2.4 40.667 8.334 49 11 5.2 7.2 9.167 21 9.5 27-15.2-.4-40.666-4.833-49.5-9-8.833-4.166-16-29.875-9-29zM116.582 391.5l-9.5 28.5h7.5l8.5-27c.333-1.167.4-3.7-2-4.5-2.4-.8-4 1.667-4.5 3zm6.5 28.5c16.8-14.4 36.5-21.833 44.5-24l21.5 24h-66z"/><rect width="37" height="59" x="8.582" y="344" fill="#666A6A" rx="17"/><path fill="#666A6A" d="M20.582 401h11v5h-11zm2 5h7v14h-7z"/><path fill="#666A6A" d="M25.082 414c-10 0-15.167 4-16.5 6h46.5c-5.5-5.5-17-6-30-6zm105.5.5l-14-2.5-2 4 11 2 5-3.5z"/><path fill="#152D5D" d="M181.083 404.499c3.6 4 13.5 12 18 15.5h-13c-5.6-6.801-13.334-4.834-16.5-3-9.2 2.4-14.5 3-16.5-1.5-3-4.5-3.5-25.8 4.5-25 10 1 19 9 23.5 14z"/><path fill="#fff" d="M6.58 154l.5 386.5h5V163.062l54.537 16.861v126.492l5.988.619-1.025-132.031L6.58 154z"/><path fill="#081B42" d="M66.616 306.431l-54.55-.146-.226-143.465 54.776 17.034v126.577z"/><path fill="#E2BBA6" d="M189.402 395.741s10.864-1.462 19.56-12.276c0 0-2.169 9.092 9.429 19.505 8.033 7.189 1.767 45.488-1.617 52.246 0 0 32.052 31.58 84.226 6.288 0 0-13.104-47.69-14.058-74.654-1.175-30.619-4.719-50.304-15.443-79.211-10.724-28.906-13.265-44.856-11.809-60.076 1.456-15.219.723-39.049-26.107-44.806-26.83-5.758-30.003 25.792-30.003 25.792s-2.37 40.341 8.184 49.583c9.248 8.15 25.103-2.193 25.103-2.193s3.675 18.714-.583 25.322c0 0-5.874 6.719-20.383 12.496-15.153 6.008-17.583 50.064-25.616 58.134"/><path fill="#CEA999" d="M220.348 203.23c-1.075 6.559-2.792 17.092-4.378 27.475 1.004-9.782 2.861-20.616 4.147-27.394l.231-.081z"/><path fill="#CEA999" d="M203.599 228.59l12.371 2.113-.623 9.411c-.12 5.167 2.874 5.422 4.149 7.384 5.342 8.241 5.082-7.804 9.5-7.384 4.419.421 6.283 6.128 3.11 14.699-3.173 8.571 8.234 10.954 9.218 15.76.984 4.806 8.645 31.87 0 41.132L228.08 307.7a40.023 40.023 0 008.193-6.398c4.258-6.608.583-25.322.583-25.322s-15.845 10.343-25.103 2.193a12.028 12.028 0 01-2.009-2.323c-5.271-7.38-6.024-26.113-6.175-30.128-.151-4.016.03-17.132.03-17.132z"/><path fill="#00181B" d="M227.579 241c-2.8 2.4-5.167 12.333-6 17 1-11.5-6.898-15.699-15.5-20-6-3-12.188-10-10-17 2.5-8 5.5-5 13-14.5s17.79-8.526 23-6.5c9 3.5 9.5 4.5 15 7.5 4.907 2.677 5.566 1.484 14 5.5 10.5 5 12 19.5 8.5 28s-6 8-3.5 15 0 10-3.5 13.5c-2.8 2.8-3.834 7.167-4 9-1.5-3-7.5-6.5-13.5-5.5s-5.5-6-9.5-8.5-5.5-5-3-12-1.5-14.5-5-11.5z"/><path fill="#2B2B2B" d="M196.58 228.499c-1-2-2.2-7.1 1-11.5 4-5.5 5.5-2 10.5-9s10.5-11 21.5-9 13.5 8 24 11c10.228 2.923 16.661 6.32 17.911 20.36.061.428.089.812.089 1.14a54.015 54.015 0 00-.089-1.14c-.436-3.05-2.598-8.352-8.911-11.86-9-5-14.5-5-25-10.5s-18-8-24.5 0-12.5 7.5-14.5 11.5-2 5-2 9z"/><path fill="#F4EFEF" d="M218.08 451.633s-15.245 54.657-14.381 89.06h116.879s-1-27.194-5.5-45.194c-4.5-18-15.975-41.213-15.975-41.213s-44.533 22.819-81.023-2.653z"/><path fill="#00181B" d="M117.578 384.5c15 2.5 43.996-6.268 62-23.5 13.877-13.277 11.5-31.176 32.5-46 8.5-6 17.583-6.595 22.5-13.5 4.962-6.969 3.5-17.5 3.5-17.5 10.5 2 20.271 2.426 25-2.5 9.5 27 10.795 22.28 20 29.5 25.5 20 14.896 64.391 16 95 4 35.011 9.5 67 9.5 67-39.5 40-99.615 13.5-99.615 13.5 3.115-18.5 3.115-42.5 0-72.5-2.169-20.888-4.385-26-4.385-26-8 8.5-17.866 12.489-17.866 12.489-23.134 13.511-58.134 5.011-69.134 1.413V384.5z"/><path fill="#000" d="M266.902 465.07c-.18 1.212-.351 2.393-.522 3.565.171-1.172.342-2.353.522-3.565zm.142-.92c0-.321.09-.641.14-1.002-.04.361-.1.681-.14 1.002z" opacity=".3"/><path fill="#152D5D" d="M266.442 522l4.136 19h-10c2-9 5.227-16.833 5.864-19z"/><path fill="#666A6A" d="M266.578 522l4 19h8l-4-14.5 10.5-6c-4.8.8-14.333 1.333-18.5 1.5z"/><path fill="#000" d="M108.578 379.5V376l-3 1 3 2.5z"/><path fill="#00181B" d="M84.66 365.69l23.786 10.209-12.08 6.783-23.785-10.209 12.078-6.783z"/><path fill="#000" d="M72.578 377.5v-5l6 2.5 1 5.5-7-3z"/><path fill="#00181B" d="M84.66 370.69l23.786 10.209-12.08 6.783-23.785-10.209 12.078-6.783z"/><ellipse cx="89.078" cy="373.5" fill="#CC2131" rx="5.5" ry="2.5"/><path fill="#fff" d="M65.594 364.078l11.486 5.921 2.995-1.792-6.359-3.259-1.46.924-.565-1.722-1.748.643-.565-1.723-4.627-2.158.843 3.166z"/><path fill="#E2BBA6" d="M108.078 379c.779.627 5.75 4.451 8.25 5.139l1.25.413V402c-4.583-1.239-16.665 1.555-20.832 1.968-4.166.413-14.998-3.304-18.331-6.196-2.667-2.314-2.5-4.544-2.083-5.371-1.667-1.322-1.25-4.681-.834-6.196-1.666-1.983-.694-4.958 0-6.197-1.25-2.892 4.581-4.544 5.414-3.305.834 1.24 7.083 4.131 9.166 5.371 1.667.991 7.085 1.79 10.835 2.065-.833-2.616-2.833-8.014-4.166-8.675-1.667-.826-9.166-.413-7.5-2.065 1.667-1.653 10.416-2.066 12.499 0 2.083 2.065 4.998 4.527 6.332 5.601z"/><path fill="#081C42" d="M36.078 492v-33c-2.667 0-8 3.2-8 16s5.333 16.667 8 17z"/><ellipse cx="48.899" cy="475.499" fill="#666A6A" rx="6.731" ry="6.706"/><path fill="#152D5D" d="M48.07 472.188h1.654v6.62H48.07z"/><path fill="#E1E1E1" d="M.586 156.143l5.87-2.088.139-.047.484 386.532H.586V156.143z"/><path fill="#00181B" d="M66.575 306.427l.051-126.583-2.665-.813v127.396h2.614z"/></svg>