<svg xmlns="http://www.w3.org/2000/svg" fill="none" viewBox="0 0 470 541"><path fill="#E1E1E1" d="M0 313.66c0-60.751 49.249-110 110-110h260c55.228 0 100 44.772 100 100v236.339H0V313.66z"/><path fill="#C5C5DD" d="M192 163.5V196h-30.5v-32.5c0-6 2-16 15.5-16s15 10.5 15 16z"/><path fill="#8E5841" d="M192 196h-31v3h31z"/><path fill="#fff" d="M168 159.5c.4-4.4 2.833-6.167 4-6.5l-4.5-1c-2 1.2-3.167 4.167-3.5 5.5l4 2z"/><path fill="#666A6A" d="M140 89H1v8h139z"/><path fill="#FF8139" d="M85 50v37a2 2 0 01-2 2h-7a2 2 0 01-2-2V50a2 2 0 012-2h7a2 2 0 012 2z"/><path fill="#fff" d="M139 75H87v13h52z"/><path fill="#C4C4C4" d="M140 87H85v2h55zm0-13H85v2h55z"/><path fill="#C4C4C4" d="M140 75v13.5h-3c.5-.833 1.5-3.3 1.5-6.5s-1-6-1.5-7h3z"/><path fill="#fff" d="M85.62 73.383h32.144v-8.036H85.62z"/><path fill="#FF8139" d="M85 65.965h34v-1.236H85zM85 74h34v-1.236H85z"/><path fill="#FF8139" d="M85 73.383v-8.346h1.855c-.31.515-.928 2.04-.928 4.018 0 1.979.618 3.71.927 4.328H85z"/><path fill="#666A6A" d="M1 114.5L128.5 97H1v17.5z" opacity=".4"/><path fill="#666A6A" d="M255 199H116v8h139z"/><path fill="#666A6A" d="M116 224.5L243.5 207H116v17.5z" opacity=".4"/><path fill="#F5F5F5" d="M395.597 85.164C395.687 38.544 357.919.62 311.299.62 264.742.621 227 38.444 227 85.001s37.742 84.38 84.299 84.38c46.493 0 84.209-37.724 84.298-84.217z"/><path fill="#fff" d="M232.287 81.245c1.761-42.231 36.51-75.561 78.777-75.561 41.839 0 76.393 32.68 78.723 74.454l.271 4.863-.271 4.863c-2.33 41.774-36.884 74.454-78.723 74.454-42.267 0-77.016-33.33-78.777-75.56L232.131 85l.156-3.756z"/><path fill="#E5E5E5" d="M232.701 85h157.357v6.842H232.701z"/><path fill="#E5E5E5" d="M314.8 5.184v159.638h-6.841V5.184z"/><path fill="#fff" d="M231.158 365H0c0 66.274 53.726 120 120 120h198v-57.778c-2.237-.134-10.656-6.06-26.43-28.687-15.774-22.626-46.847-31.784-60.412-33.535z"/><path fill="#E1E1E1" d="M89.501 423.735c-9.6-5.99 4-8.152 12-8.485l122.5 8.485 41 10.481-19 50.408c-9.333-6.987-26.4-20.163-34-24.955-9.5-5.989-31-2.994-57.5-7.985s-53-20.463-65-27.949zM24 373.825c-12.8-2.795-18.333-9.15-19.5-11.978l6.5-2.495 129.5 32.441v9.482c-5.667 1.331-18.8 2.196-26-4.991-9-8.983-74.5-18.965-90.5-22.459z"/><path fill="#F5F5F5" stroke="#fff" d="M145.5 379.5L196 405l-52.5 14.5L97 387l48.5-7.5z"/><path stroke="#000" d="M143.774 384.133c3.333.667 9.3 2.2 6.5 3-3.5 1-13-4-10.5-3s7 4.5 4 4.5c-2.4 0-4.667 1-5.5 1.5l-5.5 2.5m8.376 19.844l16-5m-27.016-1.995l36-10m-40 7l36-10m-40 7l36-10"/><path fill="#E5B9B7" d="M109.551 371.023a9.026 9.026 0 012.979-1.971 83.06 83.06 0 019.492-1.036c1.692 0 8.408 2.929 8.904 3.255.497.327.79 1.972-1.794 1.893-2.585-.079-19.581-2.141-19.581-2.141z"/><path fill="#272E80" d="M140 380.5l1 4.5-4-2.5-16-18 2.5-2.5 16.5 18.5z"/><path fill="#F4C7C3" d="M201.122 300.253a80.118 80.118 0 00-8.667 7.412c-3.465 3.538-10.383 7.165-15.033 6.23l10.056-21.472s5.981-3.65 8.769-4.111c2.787-.462 14.254 1.34 18.373 3.086a1.126 1.126 0 01.643 1.566s1.433.507 1.535 1.273c.203 1.476-2.02 1.442-4.063 1.341 0 0 .373 1.498-1.952 1.667-3.476-.173-6.9.893-9.661 3.008z"/><path fill="#E5B9B7" d="M182.625 313.466a22.414 22.414 0 002.9-1.126 19.66 19.66 0 01-2.9 1.126zm-.846.229c.271-.068.554-.136.836-.226-.52.158-.836.226-.836.226zm3.746-1.309l.678-.316-.678.316z"/><path fill="#E5B9B7" d="M189.362 293.323s.971-.552 2.258-1.228a24.482 24.482 0 015.857-2.32c2.72-.428 9.378 1.295 11.568 1.746 2.189.45 6.185 1.442 6.185 1.442-.237 1.464 1.546 1.554 1.546 1.554-.147 1.048-1.558 1.037-2.709 1.127a12.044 12.044 0 01-2.742-.293 2.61 2.61 0 00.643 1.634c-.37.21-.793.312-1.219.292a17.518 17.518 0 00-7.9 1.871c-3.273 1.926-6.512 4.99-11.105 9.203a23.07 23.07 0 01-5.485 3.707h-.09l-.678.315c-.939.442-1.908.818-2.9 1.127-.282.09-.564.157-.835.225l7.606-20.402z"/><path fill="#E1E1E1" d="M198 289l24 12.5-6 12.5-24.5-12.5L198 289z"/><path fill="#fff" d="M202 291l24 12.5-6 12.5-24.5-12.5L202 291z"/><path stroke="#000" d="M219.5 308.5L207 302m12 10l-17-9"/><path fill="#F4C7C3" d="M199.904 288.199c4.515-.079-.587-3.098-3.284-3.673-2.697-.574-8.712-1.419-10.608 1.127-1.896 2.546-16.218 22.846-18.453 23.781-2.234.935-15.856 2.918-15.856 2.918-25.235 2.884-35.11.799-40.889-1.758-5.778-2.557-6.455-18.024-15.28-27.296-8.826-9.271-8.24-18.903-15.7-16.785-8.599 2.433-8.475-.406-8.475-.406l-.722-1.295a54.971 54.971 0 01-3.567-14.375c3.747.8 3.454 1.059 6.907.124 20.315-5.553 1.501-59.909 1.501-59.909-5.586-14.825-42.818-2.996-47.501 5.295-4.515 7.976 2.03 20.131 2.03 20.131-4.649-.169-5.18 3.583-5.18 3.583-.947 8.066 10.666 13.293 10.666 13.293l1.128 1.419c10.316 14.499 7.731 24.784 5.813 29.166-.43.912-4.063 3.042-7.788 2.974-4.74-.068-17.842.259-24.445 16.549-12.538 30.901-.97 76.762 5.7 81.245 6.67 4.484 70.49 13.519 70.49 13.519l6.501 4.337 7.72 2.253c2.471.822 7.358 3.019 13.543 4.664 7.753 2.027 8.882 2.489 10.981 2.748 2.359.282 1.975.507 4.943.778 2.257.202 2.257-1.611 2.257-1.611l3.905 1.002c3.183-.214 1.874-3.841 1.874-3.841a2.416 2.416 0 001.524-1.727 2.398 2.398 0 00-.622-2.216c-.677-.552-6.771-4.044-8.058-4.867-1.286-.822-6.376-3.661-6.376-3.661s7.392 1.994 7.81 2.557a74.21 74.21 0 006.681 4.968c1.343.676 2.663-1.498 1.806-2.636-.858-1.137-5.824-5.948-8.092-6.939-2.269-.991-6.196-3.954-8.036-4.799-1.839-.845-2.257.811-7.55.665-5.293-.147-3.386-.068-4.21-.237-.823-.169-1.963-.845-3.385-1.127a10.46 10.46 0 00-4.108.71l-12.956-2.996h16.77c-1.433-33.774-4.13-51.472-4.13-51.472s-5.451 28.637 13.881 25.911c19.333-2.727 52.039-21.157 53.63-22.137.711-.439 2.619-1.566 4.819-3.21 10.474-1.386 7.483-10.579 13.916-10.579 7.437 0 8.915-.428 8.915-1.802s-7.426-2.084-12.267-2.253c.801-3.47.914-6.759 2.144-9.812 1.422-3.571 6.331-2.242 9.683-2.298z"/><path fill="#00181B" d="M84.5 192.5c0 5.2-2.5 15.5-3.5 19-.5-3-2.833-11.667-4-15.5-1.667-.166-5.9-.8-11.5-2-7-1.5-15 1.5-17 9.5s-8 6-9.5 11c-1.2 4 .5 8.333 1.5 10-2.4-.4-5-4.167-6-6-2.333-1-7.1-1.9-7.5 2.5-.5 5.5 2 5.5 7.5 10.5 4.4 4 7.833 12.667 9 16.5-1-.333-3.6-2.1-6-6.5-3-5.5-1.5-6.5-8.5-10s-7.5-10-7.5-16-4-8-2.5-18.5c1.2-8.4 8.833-10.5 12.5-10.5 4-7 13.995-5.797 21.5-10 12.5-7 20.64-1.759 24 4 3.5 6 7.5 5.5 7.5 12z"/><path fill="#000" d="M76.935 249.255c4.638-4.597 1.919-17.529 2.81-22.182.892-4.652-6.84-8.821-6.659-20.683.136-8.855-5.44-18.295-8.283-22.531 5.09.642 9.119 2.704 10.676 6.838 0 0 16.838 48.576 1.456 58.558zm-9.899 18.238c-1.637-1.509-4.311-18.024-4.311-18.024l4.31 1.126a54.877 54.877 0 003.567 14.375l.722 1.295s2.833 1.893 8.532 1.037l-1.264.428c-3.882.845-9.92 1.273-11.556-.237z" opacity=".1"/><path fill="#F4EFEF" d="M141.184 313.364c-17.64 1.251-25.472-.563-30.37-2.737-5.778-2.569-4.052-18.881-12.076-31.543-6.85-10.826-11.444-14.645-18.903-12.504-1.445.405 1.06 0-.125.169v-1.352c-3.735-1.96-9.807-2.524-9.807-2.524.124.35 1.004 3.019 1.456 3.267.451.248-2.776.755-2.776.755a10.45 10.45 0 01-2.777 3.763l-2.686 16.684-6.365-15.096c-8.137-1.735-13.87-9.609-13.87-9.609a9.04 9.04 0 00-4.514 1.678c-.61-.09-1.874 2.388-2.596 2.253-4.594-1.126-20.315 1.127-28.124 16.808C4.66 289.471.699 305.366.394 315.37c0 0-1.332 26.113.903 45.714 0 0 16.24 4.506 23.858 6.174 11.873 2.816 32.04 6.105 45.99 8.246l1.32-15.67 20.077 6.016h16.771c-1.433-33.774-4.131-51.472-4.131-51.472s-5.45 28.637 13.882 25.911c6.941-.981 15.597-3.988 23.926-7.481l-1.806-19.444z"/><path fill="#E0DEDE" d="M72.713 356.985l-1.613 18.52-17.72-2.839 1.48-22.531a2.828 2.828 0 012.527-.912c1.524.304 3.036 3.132 3.036 3.132a2.044 2.044 0 011.919-.902c1.219.192 2.325 2.513 2.325 2.513a3.118 3.118 0 013.386-2.254c2.584.384 4.66 5.273 4.66 5.273zm-10.371-68.123l-6.772-10.454-2.799 9.97-9.785-11.671 9.672 13.248s1.4-3.278 2.98-3.278 2.076 4.247 6.704 2.185zm2.461-.507l2.517-10.42 4.514 6.083 1.76-7.311-1.4 9.012a2.689 2.689 0 01-2.145.447 2.698 2.698 0 01-1.77-1.292c-1.501-2.455-3.476 3.481-3.476 3.481z"/><path fill="#E0DEDE" d="M54.858 350.179s-11.003-5.632-13.915-6.612l-8.566-2.873 4.052-24.198s-3.556 14.352-.971 16.898c2.584 2.546 8.047.259 11.286 7.334 3.239 7.074 8.114 9.451 8.114 9.451zm52.65-18.304c-8.194-8.663 7.606-12.989.575-15.118-7.031-2.129-4.435-14.972-4.435-14.972l1.535 12.595s-5.451 28.636 13.881 25.91a58.984 58.984 0 007.167-1.543c-3.047.27-12.031.214-18.723-6.872z"/><path fill="#F4EBEA" d="M65.738 262.617l.012.011-.012-.011zm94.35 48.438c-4.141.71-8.385 1.329-8.385 1.329-25.235 2.884-34.817 0-40.888-1.757-9.435-2.783-4.052-24.626-12.877-33.92-8.826-9.294-10.643-12.279-18.058-10.139-7.414 2.141-9.028-3.165-9.931-3.672.203 1.419-2.573 6.432-4.808 7.142l-1.648 6.038-5.643-6.027c-7.189-1.408-14.965-7.412-14.965-7.412-.44.912 1.13 5.937-7.053 3.886-4.594-1.126-19.017.248-25.619 16.538-13.78 33.965-4.954 72.503 5.7 81.245 6.207 5.092 70.49 13.519 70.49 13.519l.09 2.861 6.411 1.476c-.372-8.742 5.745-14.859 5.745-14.859l-6.106-1.453h16.771c-1.434-33.774-4.131-51.472-4.131-51.472s-5.451 28.637 13.882 25.911c13.148-1.859 32.469-10.962 44.014-16.898-5.552-5.171-2.991-12.336-2.991-12.336zm-94.35-48.438l.012.011-.012-.011z"/><path fill="#292289" d="M65.738 262.617l.012.011-.012-.011z"/><path fill="#fff" d="M6 283c3.538-12.032 9.5-17.5 21.5-19l6.5-1.385L39 258l5-.5-1.081 5.115s6.771 26.834 19.874 44.701l2.009 43.878 28.688 14.645-.18.181a15.759 15.759 0 00-4.153 12.335l.09 2.861-2.675-.585s-39.579-8.427-59.679-12.978c-1.67-.383-3.205-.743-4.57-1.126L4.117 362.02S-5.312 321.468 6 283z"/><path fill="#fff" d="M154.084 312.025l-2.381.36c-25.236 2.884-32.925-.828-38.703-3.385-5.778-2.557-3.463-19.514-8-31.5-2.5-6.605-7.593-13.668-19.805-14.885H77.5l-5.87-4.115-3.63-1 1.903 5.374a13.916 13.916 0 001.501 3.38l.226.135c.856.365 1.744.652 2.652.856 0 0 6.49 20.12 3.973 39.632l8.396 56.225 6.84 2.737h15.8c-1.434-33.796-1.919-30.506-1.919-30.506s-7.663 7.717 11.669 4.99c11.004-1.554 27.831-3.965 39.298-9.575-1.738-2.85-5.316-12.077-4.255-18.723z"/><path fill="#E1E1E1" d="M60.49 313.874l-.88-5.824-3.261 4.945a63.73 63.73 0 01-10.304-14.386 56.46 56.46 0 0010.259 15.772l3.216-4.889.97 4.382zm19.04-1.748l1.512-5.632 3.498 3.379s2.562-10.015 2.043-18.092a51.245 51.245 0 01-1.84 19.827l-3.385-3.47-1.829 3.988zm-24.558 35.059s-6.444-3.729-8.927-3.515c-2.483.214-8.306 0-8.306 0s-2.991-15.568-2.991-22.26c0 0 .677 9.215 3.081 12.888 2.404 3.672 5.045 2.14 9.232 5.441 4.187 3.301 3.724 5.249 7.911 7.446zm103.389-16.428s.519-1.352 0-4.968l-1.896.935a25.432 25.432 0 001.896 4.033z"/><path fill="#000" d="M86.527 362.301l-3.623-24.266-3.386-22.62-1.275-8.551c.816-4.706.968-9.502.452-14.25-.689-6.872-.384-15.513-3.86-23.477 0 0 1.523 7.029 1.016 12.065-.317 3.165-2.675 12.696-1.13 20.052 1.547 7.356 4.12 9.193 3.624 19.298-.497 10.105-.993 26.62 8.182 41.749z" opacity=".1"/><path fill="#F4C7C3" d="M190.842 300.488a54.29 54.29 0 016.771.868c1.479.484 2.088 1.002 2.009 1.791-.079.788-1.659 1.397-3.668 1.352l-4.108-.09-1.004-3.921z"/><path fill="#000" d="M295.443 493.638c0-.318.089-.636.139-.993-.04.357-.1.675-.139.993z" opacity=".3"/><path fill="#CEA999" d="M232.545 259.938l12.265 2.095-.617 9.338c-.119 5.126.289 9.238 1.553 11.185 5.297 8.176 7.407-10.927 11.788-10.509 4.38.417 6.421 5.404 3.275 13.907-3.146 8.503 8.164 10.867 9.139 15.635.976 4.768 8.572 31.619 0 40.808l-13.131-3.974a39.708 39.708 0 008.124-6.347c4.221-6.557.577-25.123.577-25.123s-15.71 10.262-24.889 2.176a11.899 11.899 0 01-1.991-2.305c-5.227-7.321-5.974-25.907-6.123-29.89-.149-3.983.03-16.996.03-16.996z"/><path fill="#D3662F" d="M298.249 333.922s4.759 3.973 9.05 15.894c4.291 11.92-6.869-6.864-6.869-6.864l-1.314-6.646-.867-2.384z"/><path fill="#CEA999" d="M249.152 234.773c-1.065 6.507-2.767 16.957-4.34 27.258.995-9.705 2.837-20.453 4.111-27.178l.229-.08z"/><path fill="#E2BBA6" d="M218.466 425.774s10.772-1.45 19.393-12.178c0 0-2.15 9.02 9.349 19.351 7.964 7.132 1.752 45.128-1.603 51.833 0 0 31.778 31.331 83.508 6.239 0 0-12.992-47.314-13.938-74.066-1.165-30.377-4.679-49.906-15.312-78.585-10.632-28.678-13.151-44.502-11.707-59.601 1.443-15.1.716-38.742-25.885-44.453-26.602-5.712-29.748 25.589-29.748 25.589s-2.349 40.022 8.114 49.191c9.169 8.086 24.889-2.175 24.889-2.175s3.644 18.565-.577 25.122c0 0-5.824 6.665-20.21 12.397-15.023 5.96-17.433 49.668-25.397 57.675"/><path fill="#D2AB96" d="M243.5 275.503c-2.8-.799-8.5-2.995-11-3.993v-4.492l14-17.967 48 74.365 4.5 12.976-2 4.492c-6.4 3.593-16 1.497-20 0 .5-3.327 1.2-11.479 0-17.468-1.2-5.99-7.167-9.483-10-10.481h-15.5l-5-.999c1.6-24.355-1.333-34.437-3-36.433z"/><path fill="#fff" d="M246.763 481s-7.554 24.943-6.695 59H349.5L339 513.723l-11.579-30.096s-44.332 22.589-80.658-2.627z"/><path fill="#FF8139" d="M170.5 430.237c13.599-2.463 28.806-3.289 41-19.235 6.5-8.5 18.176-60.527 33.239-66.527a70.08 70.08 0 0015.481-8.334c23.595 7.778 34.218 5.036 38.907.149.249.685 7.377 8.602 11.529 19.44 10.951 28.559 6.969 42.247 8.064 72.615.996 26.751 8.522 55.509 8.522 55.509-7.277 33.188-81.637.924-81.637.924 2.927-7.788 9.538-44.702 1.603-51.834-11.498-10.331-9.348-19.351-9.348-19.351-6.36 13.409-14.86 21.909-14.86 21.909-20.379 11.692-41.32 12.954-52.5 12v-17.265z"/><path fill="#E2BBA6" d="M157 430.502h13.5v17c-9.6-1.2-18-3.833-21-5-1 .167-4.1.4-8.5 0-5.5-.5-9-5.5-11-6.5s-5.5-1.5-7.5 0-3 1-3 0c0-.8.667-2 1-2.5-.667.167-2.3.6-3.5 1-1.5.5-5-.5-.5-2.5s9.5-3.5 11.5-4 2.5-1.5 5-1.5 2-1.5 5-1.5 2-.5 5-1 9 6.5 14 6.5z"/><path fill="#D3662F" d="M170.5 447.5V441s8.5 2.5 22 0c18-5.558 23.015-14.789 33-21 11.228-6.983 16.622-19.75 16.622-19.75.796 18.228 12.773 21.099 20.06 35.96 5.406 11.026 1.514 40.151-.856 54.456-9.269-3.099-15.72-5.891-15.72-5.891 2.927-7.788 9.538-44.701 1.603-51.833-11.499-10.331-9.348-19.351-9.348-19.351C232 428 222.5 436 222.5 436c-20.379 11.722-40.819 12.454-52 11.5z"/><path fill="#594423" d="M246.298 272.619c-4.338-.866-12.291-3.969-15.725-5.413-.542-9.02 1.627-27.495 16.809-33.557 15.183-6.062 30.365-1.984 35.788 2.165 28.738-3.247 29.099 57.011 25.484 83.893-20.604 18.944-53.5 5.593-61.814 1.624 4.772-30.743 2.892-53.403-.542-62.784-2.603 6.494-1.085 12.087 0 14.072z"/><path fill="#74582D" fill-rule="evenodd" d="M240.719 237.296c8.563-3.738 22.613-6.598 35.782.776 11.508 6.445 7.574 15.563 3.324 25.412-3.32 7.696-6.833 15.838-3.324 23.499 8 17.469 7.5 22.959 2 42.423l-.05.18c10.249.345 21.059-1.918 29.704-9.867 3.615-26.882 3.254-87.141-25.485-83.893-5.422-4.15-20.605-8.227-35.787-2.165a23.093 23.093 0 00-6.164 3.635z" clip-rule="evenodd"/><path fill="#00B67A" d="M31.116 521.155c2.4 4 8.333 14 11 18.5h2c-2.833-5-8.9-15.7-10.5-18.5-2-3.5 10.5-11 4-21.5s-21-60-24-82-8-34-10-7 .5 103 13 105c10 1.6 13.833 4.333 14.5 5.5z"/><path stroke="#fff" d="M31 517.113c-5.5-13.5-17.8-53.7-23-106.5"/><path fill="#00B67A" stroke="#00B67A" d="M89.5 511.112c.4 18.4-4.166 26.333-6.5 28H53.5c-6.4 0-8.666-9-9-13.5 2.5-85.5-25-162.539-12.5-165.5 19-4.5 57 128 57.5 151z"/><path stroke="#fff" d="M68.46 540.113c3.494-27.098 3.294-96.435-25.46-157m10.5 137.5c3.667 1.167 11.9 5.3 15.5 12.5 3.167-1.333 10.6-5.7 15-12.5m-30.5-20.5c4 .334 12.9 2.3 16.5 7.5 2-1.166 6.8-5.1 10-11.5m-26.5-19.5c2.667 0 9.4.7 15 3.5 2-1.5 6.2-5.8 7-11m-23-18.5c2.167-.166 7.6.2 12 3 1.333-1 4-4.1 4-8.5m-19.5-18c2.5-.666 8.3-.7 11.5 4.5.667-1.833 2-6.5 2-10.5m-18-15c2.167 0 7 .6 9 3 .5-1.5 1.5-5.1 1.5-7.5m-40.5 97c1.833 2.167 6.9 6.7 12.5 7.5 1.333-1.333 3.8-5.4 3-11m-18-12c1.667 1.5 6 4.6 10 5 1-1 3-4 3-8m-14.5-11.5c1.167 1.5 4.3 4.5 7.5 4.5 1-.833 3-3.3 3-6.5m-12.5-14c.833 1.334 3.2 4 6 4 1.167-.666 3.5-2.8 3.5-6m-11-13.5c.833 1.167 3 3.5 5 3.5.833-.5 2.5-2.1 2.5-4.5m-7.5-13c.5 1.167 1.7 3.5 2.5 3.5 1 0 2.5-2 2.5-3.5"/><path fill="#00B67A" stroke="#00B67A" d="M103 526.61c0 7.2 4 11.334 6 12.5h7c6.8 0 9.833-8.333 10.5-12.5 7-18.5-4.5-67-10.5-81s-11.008-23.731-7 7c4.5 34.5-6 65-6 74z"/><path stroke="#fff" d="M112.5 539.613c.346-1.854.716-4.04 1.088-6.5m.912-74c1.144 6.16 1.825 12.772 2.161 19.5m-8.661 46.5c1.559 1.5 4.858 5.2 5.588 8m0 0c1.804-.666 6.112-3 8.912-7m-8.912 7a293.463 293.463 0 001.756-14m-5.844-7c1.396 1.167 4.519 4.2 5.844 7m0 0c1.885-.666 6.156-2.9 8.156-6.5m-8.156 6.5c.431-4.23.809-8.774 1.087-13.5m-4.931-5c1.121 1 3.676 3.4 4.931 5m0 0c1.357-.5 4.669-2.2 7.069-5m-7.069 5c.258-4.38.43-8.915.478-13.5m-4.409-3c1.106.5 3.536 1.8 4.409 3m0 0c1.197-.666 3.891-2.5 5.091-4.5m-5.091 4.5c.047-4.485-.024-9.018-.248-13.5m-3.661-2.5c.774.334 2.59 1.3 3.661 2.5m0 0c.78-.166 2.639-1.2 3.839-4"/><path fill="#00B67A" stroke="#00B67A" d="M131.5 520.613c-2.8 7.6-3.833 15.5-4 18.5h3c.5-3.5 1-13 5.5-18.5s19.5 1 22.5-7.5 35.5-80.5 41-89.5 36-47-10-9-64.5 75-64 85.5 9.5 11 6 20.5z"/><path stroke="#fff" d="M135.5 515.113c2.333-14.5 15.7-52.7 50.5-89.5m-53 65c.5 3.167 2.2 10.2 5 13 3.667-.166 13.3-2.1 22.5-8.5m-20-18c0 2.834.8 9 4 11 2.833-.5 10-2.9 16-8.5m-11-16.5c-.5 2-.8 6.8 2 10 2.833-.5 9.7-2.6 14.5-7m-7-14.5c-.167 1.834-.3 5.9.5 7.5 2.5-.166 8.3-1 11.5-3m-1.5-17c-.5 1-1.2 3.5 0 5.5 1.5 2.5 10-2 12.5-3"/><ellipse fill="#00181B" rx="7" ry="8.5" transform="matrix(-1 0 0 1 91 292.5)"/><ellipse fill="#C4C4C4" rx="7" ry="8.5" transform="matrix(-1 0 0 1 93 292.5)"/><ellipse fill="#666A6A" rx="5" ry="6.5" transform="matrix(-1 0 0 1 93 292.5)"/><ellipse fill="#C4C4C4" rx="5" ry="6.5" transform="matrix(-1 0 0 1 95 292.5)"/><path stroke="#000" stroke-width="2" d="M91.5 284c-1.167-4.833-5.5-15.8-13.5-21m-43-1.5c-2-1.5-8.5 4.5-9 13-.152 2.564.247 4.788 1.758 7m18.741 32c3.162-16.204-13.044-23.661-18.741-32m0 0c-2.92 6.166-7.759 23 3.241 34"/><ellipse fill="#C4C4C4" rx="3" ry="4.5" transform="scale(-1 1) rotate(-8.828 2029.56 458.647)"/><ellipse fill="#C4C4C4" rx="3" ry="4.5" transform="scale(-1 1) rotate(48.238 -371.1 121.043)"/></svg>