<svg xmlns="http://www.w3.org/2000/svg" fill="none" viewBox="0 0 478 541"><path fill="#E1E1E1" d="M8 481c0-55.228 44.772-100 100-100h270c55.228 0 100 44.772 100 100v59H8v-59z"/><path fill="#00B67A" d="M318.725 488.485c-8.716 3.705-18.262 32.53-21.945 46.479l-4.844.621c5.298-14.156 16.054-43.783 16.693-49.04.799-6.572-15.364-17.439-23.267-40.687-6.322-18.598 5.073-32.995 13.073-38.872 8.555 6.991 24.545 30.172 28.094 27.129 3.549-3.042-12.542-21.035-22.247-32.73 12.742-13.277 35.1-20.669 43.173-21.703 4.453 9.132 14.245 26.638 17.794 23.595 3.55-3.042-3.925-17.825-8.106-24.837 21.634-5.359 45.614-6.923 54.9-7.034l-5.186 49.183-25.24-4.854c-10.096-1.941-14.329 3.453-10.895 4.631 2.746.941 22.82 7.318 32.514 10.389-2.081 14.499-11.067 28.912-15.299 34.306-10.368-4.062-32.154-12.699-36.355-14.749-5.252-2.561-12.918 1.656-7.666 4.217 4.201 2.049 24.242 14.145 33.738 19.937-28.641 19.842-48.034 9.389-58.929 14.019z"/><path fill="#00B67A" d="M316.398 524.916c-4.83-1.555-18.825 6.794-25.218 11.164l-2.18-1.448c7.12-3.887 21.887-12.138 23.993-14.047 2.633-2.387-.091-12.47 4.88-24.678 3.977-9.768 13.65-11.613 18.954-11.191 1.006 5.84-.668 20.86 1.838 20.87 2.506.011 2.316-12.939 2.497-21.091 9.824-.918 21.473 3.927 25.105 6.341-1.408 5.269-3.596 15.81-1.09 15.821 2.506.011 4.676-8.613 5.448-12.925 10.641 5.416 20.898 13.196 24.696 16.41l-19.385 18.142-8.511-10.827c-3.405-4.331-7.014-3.627-6.038-1.944.781 1.346 6.666 10.979 9.511 15.627-5.938 5.154-14.641 7.851-18.25 8.555-2.769-5.287-8.553-16.437-9.534-18.743-1.225-2.883-5.811-3.862-4.585-.979.981 2.306 4.843 14.248 6.651 19.931-18.568-1.997-22.744-13.045-28.782-14.988z"/><path fill="#E1E1E1" d="M265.5 81.26c-57.2-4-97.5 39.001-110.5 61.001h305c-10.667-16.5-41.5-45.8-79.5-31-47.5 18.5-43.5-25-115-30zm-133.785 99.906C168.098 178.62 193.731 205.994 202 220H8c6.785-10.504 26.397-29.157 50.567-19.735 30.213 11.777 27.67-15.916 73.148-19.099z"/><path fill="#C4C4C4" d="M179.574 121.914l-5.93-.915-26.247 170.14 5.93.915z"/><path fill="#081B42" d="M244.133 175.887c33.699-17.683 75.597 1.998 85.376 13.113 7.221-71.933-29.336-118.639-51.903-133H81.656c-58.297 5.62-78.983 56.197-77.102 88.791 36.708-26.375 62.684-3.996 71.084 10.491 36.407-34.768 74.093-8.118 85.376 6.369 41.823-21.58 73.967-2.248 83.119 14.236z"/><path fill="#081B42" d="M191.938 20.812c55 6.667 94 38.37 99.5 48l-275 31.5c28-56.998 92.5-89.56 175.5-79.5z"/><path fill="#E2BBA6" d="M295.349 336.131c-7.851-10.523-28.082-9.852-41.057-17.271-4.828-2.76-8.453-17.39-8.379-27.009 10.686-6.277 20.12-31.707 20.231-53.935.137-27.431-13.362-49.46-33.833-49.563-20.471-.102-34.178 22.019-34.316 49.451-.109 21.82 4.625 43.969 17.094 51.913-.048 9.58-2.266 20.093-7.184 22.842-13.049 7.289-31.35 4.482-38.685 15.337-20.023 29.686-21.135 87.999-21.135 87.999l155.084 29.179s18.142-69.633-7.82-108.943z"/><path fill="#CBA895" d="M229.634 220.35c-23.834-3.349-31.746 24.45-30.946 34.65-8.537-32.242 16.23-42.704 29.68-43.904l37.746 8.155-1.041 33.666-3.571-25.715c-17.582 1.649-23.702-6.852-31.868-6.852z"/><path fill="#142B5A" d="M169.604 321.671c13.321-5.387 23.507-5.522 37.772-9.181.823 3.292 5.421 13.01 22.421 14.51 3.5 0 16.748.729 24.698-8.109 21.988 2.987 33.525 6.317 41.376 16.84 25.697 34.443 8.193 109.467 8.193 109.467l-202.856-37.5s33.63-71.968 68.396-86.027z"/><path fill="#142B5A" d="M279.797 540l6.357-100.548-132.674-35.179L141.298 540h138.499z"/><path fill="#142B5A" d="M310.519 444.494c.986-18.418.229-63.719-1.721-71.993l-55.749 15.471c5 11.194 13.613 40.186 10.582 42.533-6.926 5.365-36.444 26.5-57.959 38.954l8.844 25.322c69.85-20.324 88.025-40.288 96.003-50.287z"/><path fill="#00181B" d="M284.297 466c-9.667 3.667-29.4 11-31 11-1.6 0-4.333-3.667-5.5-5.5l-4.5 2 1.5 5.5c1.333 1.833 4.6 5.5 7 5.5 2.4 0 22.333-5.667 32-8.5l.5-10z"/><path fill="#000" d="M225.359 294.766c3.558.802 7.248.82 10.814.054 0 0-5.211 5.229-10.814-.054z" opacity=".1"/><path fill="#C09550" d="M229.817 214.913c-23.019-4.41-32.105 15.511-31.063 39.594-4.757-12.617-20.956-45.004-4.956-53.004 5.384-2.692 11.296-1.705 19.718-6.3 6.782-3.7 10.89-11.182 23.282-11.2 12.997-.02 24.704 16.334 29.5 19.5 18.084 7.391 3.585 40.342-1.639 50.222l-.628-8.012-3.003-22.417c-11.284 1.782-24.038-7.009-31.211-8.383z"/><path fill="#A77F40" d="M195.298 210.003c-6 4-5.167 18.666-4 25.499-13-37 4-34 16-37.5s8-6.5 21-12.5c10.4-4.799 21 2 25 6-4.833-3-17.1-6.3-27.5 4.5-13 13.5-23 9.001-30.5 14.001z"/><path fill="#142B5A" d="M146.297 294l1.5 6.5h-29.5V299l28-5z"/><path fill="#E2BBA6" d="M114.297 292.5c-3.6-1.2-6.167-4.167-7-5.5l9.5-1 3 13-4.5 1-1-7.5z"/><path fill="#CBA895" d="M149.821 252.729c2.115.869 10.598 9.107 14.575 13.118l-1.75 23.641c-3.837 2.108-12.017 5.996-14.046 4.687-2.537-1.636-8.588-2.815-8.388-6.773.2-3.958-2.551-4.494-3.451-8.667-.9-4.172.964-4.951 1.393-7.151.429-2.201-1.45-4.28 1.393-7.152 2.844-2.872 2.615-4.63 2.937-6.28.321-1.651 4.693-6.509 7.337-5.423z"/><path fill="#00181B" d="M278.297 421.5c-1.6 2-10.667 8.5-15 11.5 5-10 9.5-17.5 11-22.5 1.2-4-.5-16-1.5-21.5 2.5 10 7.1 30.5 5.5 32.5z"/><path fill="#E2BBA6" d="M171.821 289.621c-.08 1.343 1.712 8.899 2.618 12.51l-18.731 3.367-1.857-15.833c-.679-1.164-1.969-4.61-1.701-9.086.336-5.595 7.654-15.262 4.398-17.142-3.256-1.88-14.781 3.043-15.105-.907-.325-3.95 3.032-3.748 4.744-4.207 1.712-.458 16.628-5.739 18.765-3.927 2.137 1.813 8.347 10.608 8.145 13.965-.201 3.357-2.316 10.529-.806 13.427 1.511 2.898-.369 6.154-.47 7.833z"/><path fill="#000" d="M37.797 255l15.5-32.5 53 26.5 6 87.5-70.5 1.5-4-83z"/><path fill="#F4C7C3" d="M19.12 351.382c6.542-10.476 30.551-12.523 42.138-20.487 4.312-2.962 7.539-25.398 3.039-25.398-14.61-4.722-23.6-27.629-25.432-48.458-2.261-25.705 8.682-47.405 27.864-49.092 19.183-1.687 33.753 17.985 36.013 43.69 1.799 20.448-3.945 42.36-14.945 49.36.79 8.978.818 20.584 5.643 22.779 12.799 5.819 35.56.477 43.281 10.082 21.078 26.273 23.865 89.214 23.865 89.214l-138.97 30.745s-16.54-79.982-2.496-102.435z"/><path fill="#DCB3AF" d="M49.297 261.5c-1.2 11.2-.5 25 0 30.5-3.2-4.401-6-11.5-7-14.5v-16c4-24.4 13-32.167 17-33 12 14.8 31 23.167 39 25.5l1 30.5c-.4 1.6-2.5 5.666-3.5 7.5l-2.5-33.5c-14.8-4.8-27.834-16.333-32.5-21.5-3.333 3.5-10.3 13.299-11.5 24.5z"/><path fill="#FF8139" d="M13.154 467.9c-1.642-7.421-3.357-27.902-3.357-39.402l25.744-7.543 3.565 16.11c-3.847.851 50.628 7.405 82.803 10.87l.795 19.796c-2.441.54-107.498 9.444-109.55.169z"/><path fill="#FF8139" d="M50.773 471.997c-2.247-10.155 2.108-20.373 0-27.588l81.04-17.93 28.717-29.91 6.135 50.876c-8.37-.026-27.203 13.342-18.368 31.052 8.834 17.709 18.368 40.5 18.368 61.499l-125.368.001c0-11 2.475-24.408 6.5-38 3.109-10.5 5.784-17.308 2.976-30z"/><path fill="#D3662F" d="M97.797 468.996c-10.8.8-35.833 2.333-47 3 .8 4.399 1 8.5 1 10.001l44-5 2-8.001z"/><path fill="#FF8139" fill-rule="evenodd" d="M55.8 333.999c2.333 4.833 10.7 16.2 25.5 23 4.432-2.626 14.393-12.495 19.278-31.136 3.834.593 7.688.473 11.652.349 6.786-.212 13.896-.435 21.783 2.895 29.065 21.842 48.287 93.392 48.287 93.392l-170.5 36s-11.5-93 6-110c3.707-5.936 13.441-8.238 23.294-10.567 5.162-1.221 10.356-2.449 14.733-4.211l-.027.278z" clip-rule="evenodd"/><path fill="#DCB3AF" d="M94.797 323.996v16.5c4-4.8 5.333-11.666 5.5-14.499-3.2-.8-5-1.667-5.5-2.001z"/><path fill="#D3662F" d="M94.797 340.996c4.4-8.4 5.5-13.5 5.5-15l1.5 47.501c-2 4.8-4.5 7.333-5.5 8l-1.5-40.501zM42.582 392.07s-3.968 15.69-1.877 24.254l2.091 8.563 1.21-.882s-2.104-7.376-2.545-10.071c-.44-2.696-.31-14.242 1.121-21.864zm86.022-10.037s9.743 19.916 9.094 25.632l-.698 5.709-.816-.277c.377-2.699.407-5.435.088-8.142-.531-3.305-7.668-22.922-7.668-22.922z"/><path fill="#000" d="M77.798 304.994c-3.3.938-13.11.534-16.5 0 0 0 6.5 5 16.5 0z" opacity=".1"/><path fill="#2F2417" d="M59.297 228.497c-13.2 5.6-15.167 29-16.5 33v76l-7.5 2v-85c0-26 11-41 18.5-46.5 6-4.4 11.166-3.166 13-2 25-7 42 7 47 22.5 4 12.4 16.833 74 23 103-6.4-4.8-14.167-5.333-17.5-5-1.2 30.8-12.167 47-17.5 51.5l-3.5-123.5c-20.8-6.8-34.667-20.166-39-26z"/><path fill="#DCB3AF" d="M96.297 431c-.8.8-3 3.667-4 5l8.5-3 3-5.5c-2.167.833-6.7 2.7-7.5 3.5z"/><path fill="#F4C7C3" d="M202.6 389.321c-3.041.934-11.136 2.16-14.303 2.679.912 2.491 4 5 5 5 2 0 6.389.496 8.163.886l.38 1.168c.76 2.335 5.321 12.068 5.321 14.014 0 1.947-.38 7.786 0 10.511.38 2.725 1.901 3.504 2.661 3.504s1.14-6.229 1.52-8.175c.381-1.947 1.141-6.229.761-9.733-.304-2.803.887-4.022 1.52-4.282.887 3.244 2.813 10.044 3.421 11.29.76 1.557 0 8.175 0 9.732 0 1.557.76 4.672 3.041 5.061 1.824.311 2.28-2.466 2.28-3.893 2.281 2.725 4.561 1.557 4.561 0v-6.229c0-2.491-1.013-8.045-1.52-10.511 1.14 1.168 2.281 6.618 3.801 8.565 1.52 1.946 3.421 1.168 3.041 0-.38-1.168-4.181-12.068-5.322-14.015-1.14-1.946-6.841-8.175-7.982-8.175-1.14 0-3.801-3.115-4.561-4.672-.76-1.557-3.801 0-5.321-.778-1.521-.779-2.661-3.115-6.462-1.947z"/><path fill="#F4C7C3" d="M229.298 411.496c-7.986-8.138-24.17-9.717-36.203-14.585-4.476-1.81-9.306-13.976-10.367-22.261 8.462-6.651 13.607-29.636 11.105-48.776-3.088-23.621-17.408-29.683-35.035-27.378-17.627 2.305-26.708 11.626-23.62 35.247 2.456 18.789 9.119 37.295 20.777 42.673 1.079 8.25.399 17.555-3.512 20.495-10.377 7.798-23.903 9.085-31.496 17.72-16.149 18.365-11.649 75.865-11.649 75.865h127.5s19.435-48.209-7.5-79z"/><path fill="#DCB3AF" d="M160.363 315.027c-22.579 7.641-24.46 24.749-22.579 33.433-11.115-26.747 8.974-38.644 20.408-41.249l33.433 2.605 3.04 29.092-5.866-18.411c-14.937 3.474-25.252-2.576-28.436-5.47z"/><path fill="#fff" d="M120.553 409.232c10.833-6.192 19.582-7.5 31.429-12.315 1.094 2.736 11.942 9.546 22.81 14.894 2.109-1.408 12.677-6.359 18.484-14.894 19.271 0 33.536 6.757 41.523 14.894 22 22.418 30.5 80.188 30.5 80.188h-182s8.981-66.605 37.254-82.767z"/><path fill="#E2BBA6" d="M265.176 441.117c1.813 3.444-.636 7.927-2.087 9.738.803.384 2.738 1.605 4.051 3.414 1.64 2.262 1.888 3.588 1.235 6.631-.652 3.042 3.138 7.674-1.071 9.955-4.209 2.28-14.207 5.526-16.747 4.981-8.703-1.865-15.336-4.501-20.853-7.973-3.195-2.01-3.14-3.62-2.666-5.003l-5.458-1.807c-1.104-2.783.235-4.405 1.043-4.869-.247-1.326.014-2.543.783-3.651.769-1.109 16.755-1.678 19.177-1.678 4.294 0 10.544-4.364 10.427-6.299-.287-4.766-9.813-3.439-12.378-2.971-1.022.186-11.726 5.125-13.251 4.798-1.524-.327-1.771-1.653-.871-3.37.899-1.717 18.372-11.339 22.436-10.468 4.065.872 13.965 4.267 16.23 8.572z"/><path fill="#F4C7C3" d="M94.3 540l6.001-48h15.5l-2.5 48h-19z"/><path fill="#DCB3AF" d="M115.801 492h-15.5c11.6 0 13.5 27.666 13 41.5l2.5-41.5z"/><path fill="#fff" d="M234.611 540.498l-5.312-58.303H116.334l-3.299 58.303h121.576z"/><path fill="#F4C7C3" d="M229.801 492h16l6.5 48h-18l-4.5-48z"/><path fill="#DCB3AF" d="M229.801 492h15.5c-11.2 0-12.334 27-11.5 40.5l-4-40.5z"/><path fill="#000" d="M165.387 379.559a21.83 21.83 0 009.311-1.218s-3.872 5.109-9.311 1.218z" opacity=".1"/><path fill="#2F2417" d="M159.889 310.325c-17.816 8.241-25.814 17.1-22.102 37.702-5.568-10.301-9.521-25.794-11.486-40.529-1-7.5 14.287-11.567 17.257-12.228 14.252-14.896 56.959 3.002 65.743 7.228 3.563 11.727-11.554 28.04-14.895 37.152l-1.476-6.82-3.129-15.832c-9.502 2.852-24.592-4.296-29.912-6.673z"/><path fill="#F4C7C3" d="M87.879 439.695c-1.478 2.807.518 6.462 1.701 7.938-.655.313-2.232 1.309-3.302 2.784-1.338 1.843-1.539 2.924-1.007 5.405.531 2.48-2.558 6.256.873 8.116 3.431 1.859 11.582 4.504 13.653 4.061 7.095-1.521 12.502-3.67 17-6.5 2.604-1.639 2.559-2.951 2.173-4.079l4.45-1.473c.9-2.269-.193-3.591-.851-3.969.201-1.081-.011-2.074-.638-2.977-.627-.904-13.659-1.368-15.634-1.368-3.5 0-8.595-3.557-8.5-5.134.234-3.886 8-2.804 10.091-2.423.833.152 9.559 4.178 10.802 3.911 1.242-.266 1.444-1.347.711-2.747-.734-1.399-14.978-9.243-18.291-8.533-3.314.71-11.385 3.478-13.231 6.988z"/></svg>