<svg xmlns="http://www.w3.org/2000/svg" fill="none" viewBox="0 0 471 541"><path fill="#E1E1E1" d="M467.801 221c0-60.751-49.249-110-110-110h-290v428h290c60.751 0 110-49.249 110-110V221z"/><path fill="#666A6A" d="M206.801 103h-139v8h139z"/><path fill="#666A6A" d="M67.8 128.5L195.302 111h-127.5v17.5z" opacity=".4"/><path fill="#666A6A" d="M253.801 193h-139v8h139z"/><path fill="#666A6A" d="M114.801 218.5l127.5-17.5h-127.5v17.5z" opacity=".4"/><path fill="#FF8139" d="M198.801 37v64a2 2 0 01-2 2h-11.5a2 2 0 01-2-2V37a2 2 0 012-2h11.5a2 2 0 012 2zM190.801 154v37a2 2 0 01-2 2h-7a2 2 0 01-2-2v-37a2 2 0 012-2h7a2 2 0 012 2zM149.801 27v74a2 2 0 01-2 2h-12a2 2 0 01-2-2V27a2 2 0 012-2h12a2 2 0 012 2z"/><path fill="#C4C4C4" d="M133.801 50v51a2 2 0 01-2 2h-12a2 2 0 01-2-2V50a2 2 0 012-2h12a2 2 0 012 2z"/><path fill="#666A6A" d="M171.252 47.092l-6.85 1.444 11.549 54.796 6.85-1.443z"/><path fill="#C4C4C4" d="M164.033 47l-6.927 1.008 8.066 55.416 6.927-1.008z"/><path fill="#666A6A" d="M156.406 47l-6.967.674 5.395 55.74 6.967-.675z"/><path fill="#fff" d="M244.801 179h-52v13h52z"/><path fill="#C4C4C4" d="M245.801 191h-55v2h55zM245.801 178h-55v2h55z"/><path fill="#C4C4C4" d="M245.801 179v13.5h-3c.5-.833 1.5-3.3 1.5-6.5s-1-6-1.5-7h3z"/><path fill="#fff" d="M191.42 177.382h32.145v-8.036H191.42z"/><path fill="#FF8139" d="M190.801 169.964h34v-1.236h-34zM190.801 178h34v-1.236h-34z"/><path fill="#FF8139" d="M190.801 177.382v-8.346h1.854c-.309.516-.927 2.04-.927 4.019 0 1.978.618 3.709.927 4.327h-1.854z"/><path fill="#F5F5F5" d="M415.398 86.163c.09-46.62-37.678-84.543-84.298-84.543-46.557 0-84.299 37.823-84.299 84.38 0 46.557 37.742 84.38 84.298 84.38 46.494 0 84.21-37.724 84.299-84.217z"/><path fill="#fff" d="M252.088 82.244c1.761-42.23 36.51-75.56 78.777-75.56 41.839 0 76.393 32.68 78.723 74.453l.271 4.864-.271 4.862c-2.33 41.775-36.884 74.455-78.723 74.455-42.267 0-77.016-33.33-78.777-75.561L251.932 86l.156-3.756z"/><path fill="#E5E5E5" d="M252.502 86h157.357v6.842H252.502z"/><path fill="#E5E5E5" d="M334.602 6.18V165.82h-6.842V6.18z"/><ellipse fill="#fff" rx="30.483" ry="10.288" transform="matrix(-.9875 -.15756 -.18452 .98283 232.801 299.914)"/><ellipse fill="#00181B" rx="16.185" ry="3.642" transform="matrix(-.9875 -.15756 -.18452 .98283 233.433 296.545)"/><path fill="#fff" d="M229.801 261c-11.2 0-16.667 9.333-18 14h4c6.5-9 13.273-11.385 22.5-6.5 8.5 4.5 12 22 14.5 30.5 3.5 2.5 5 1.5 6 0l-2.5-9-2.5-8.5c-4.5-12-10-20.5-24-20.5zM267.301 350c-.4-24.8-3.167-41.333-4.5-46.5-2.5 5-9.082 9.541-34 5.5-18.5-3-25.5-10.333-26-14-6 18.5-6.5 34.5-6.5 39 0 3.6 3.333 6.833 5 8 23 16 49.5 13.5 57.5 12.5 6.4-.8 8.333-3.333 8.5-4.5z"/><path fill="#F5F5F5" d="M216.568 301c-4.4-.4-11.166-4.833-14-7-4.4 9.2-6.267 31.5-6.267 40 2.333-3.333 7.967-13.3 14.767-16.5 8.5-4 13 4 19 2s7.5-9.5 3.5-15-11.5-3-17-3.5z"/><ellipse fill="#F5F5F5" rx="16" ry="17" transform="matrix(-1 0 0 1 267.801 333)"/><ellipse fill="#fff" rx="16" ry="17" transform="matrix(-1 0 0 1 270.801 335)"/><circle r=".5" fill="#C4C4C4" transform="matrix(-1 0 0 1 279.301 323.5)"/><circle r=".5" fill="#C4C4C4" transform="matrix(-1 0 0 1 275.301 321.5)"/><circle r=".5" fill="#C4C4C4" transform="matrix(-1 0 0 1 270.301 321.5)"/><circle r=".5" fill="#C4C4C4" transform="matrix(-1 0 0 1 265.301 323.5)"/><circle r=".5" fill="#C4C4C4" transform="matrix(-1 0 0 1 261.301 327.5)"/><circle r=".5" fill="#C4C4C4" transform="matrix(-1 0 0 1 259.301 332.5)"/><circle r=".5" fill="#C4C4C4" transform="matrix(-1 0 0 1 258.301 338.5)"/><circle r=".5" fill="#C4C4C4" transform="matrix(-1 0 0 1 261.301 343.5)"/><circle r=".5" fill="#C4C4C4" transform="matrix(-1 0 0 1 265.301 346.5)"/><circle r=".5" fill="#C4C4C4" transform="matrix(-1 0 0 1 270.301 348.5)"/><circle r=".5" fill="#C4C4C4" transform="matrix(-1 0 0 1 276.301 347.5)"/><circle r=".5" fill="#C4C4C4" transform="matrix(-1 0 0 1 280.301 343.5)"/><circle r=".5" fill="#C4C4C4" transform="matrix(-1 0 0 1 283.301 338.5)"/><circle r=".5" fill="#C4C4C4" transform="matrix(-1 0 0 1 283.301 333.5)"/><circle r=".5" fill="#C4C4C4" transform="matrix(-1 0 0 1 282.301 328.5)"/><circle r=".5" fill="#C4C4C4" transform="matrix(-1 0 0 1 277.301 327.5)"/><circle r=".5" fill="#C4C4C4" transform="matrix(-1 0 0 1 273.301 330.5)"/><circle r=".5" fill="#C4C4C4" transform="matrix(-1 0 0 1 275.301 334.5)"/><circle r=".5" fill="#C4C4C4" transform="matrix(-1 0 0 1 274.301 339.5)"/><circle r=".5" fill="#C4C4C4" transform="matrix(-1 0 0 1 270.301 337.5)"/><circle r=".5" fill="#C4C4C4" transform="matrix(-1 0 0 1 270.301 333.5)"/><circle r=".5" fill="#C4C4C4" transform="matrix(-1 0 0 1 273.301 325.5)"/><circle r=".5" fill="#C4C4C4" transform="matrix(-1 0 0 1 268.301 327.5)"/><circle r=".5" fill="#C4C4C4" transform="matrix(-1 0 0 1 265.301 332.5)"/><circle r=".5" fill="#C4C4C4" transform="matrix(-1 0 0 1 265.301 337.5)"/><circle r=".5" fill="#C4C4C4" transform="matrix(-1 0 0 1 267.301 341.5)"/><circle r=".5" fill="#C4C4C4" transform="matrix(-1 0 0 1 272.301 343.5)"/><circle r=".5" fill="#C4C4C4" transform="matrix(-1 0 0 1 277.301 341.5)"/><circle r=".5" fill="#C4C4C4" transform="matrix(-1 0 0 1 279.301 336.5)"/><circle r=".5" fill="#C4C4C4" transform="matrix(-1 0 0 1 279.301 332.5)"/><path fill="#00181B" stroke="#00181B" d="M134.607 489.856c-.401-23.993-9.184-79.977-13.525-104.969H26.405c-6.512 14.995-8.015 33.49-8.015 49.985 0 13.196 1.056 81.809 3.227 104.469H71.21l9.29-70.479c2.004 7.598 4.848 56.816 6.017 70.479h48.09c.167.167.401-25.492 0-49.485z"/><path fill="#CFCDCD" d="M86.076 461c4 30.8 7 65.167 8 78.5h-8c-2.4-32.4-4.666-58.5-5.5-67.5 1.6-14.4 4.334-13.333 5.5-11z"/><path fill="#000" d="M21.474 539C20.8 434 30.38 397.667 33.3 386l-7-2.5c-15.5 35-6.45 121.9-4.827 155.5z"/><path fill="#F4C7C3" d="M175.523 289.986s15.741-2.291 18.323-3.371l5.933 10.073c-1.838 1.132-39.632 22.421-61.972 25.57-21.105 2.975-16.649-26.386-16.092-29.639l-6.914 38.881 1.684 41.731-8.92-2.603-7.512-5.01s-73.749-10.437-81.456-15.616c-7.708-5.179-21.075-58.155-6.586-93.85 7.63-18.817 22.77-19.195 28.248-19.117 4.303.078 8.502-2.381 8.998-3.435 2.217-5.062 5.203-16.943-6.716-33.691l-1.304-1.64s-13.42-6.038-12.324-15.355c0 0 .613-4.334 5.985-4.138 0 0-7.563-14.042-2.347-23.255 5.412-9.578 48.435-23.241 54.89-6.116 0 0 21.741 62.788-1.734 69.204-3.99 1.08-3.651.781-7.98-.143a63.483 63.483 0 004.12 16.604l.835 1.497s-.144 3.279 9.794.468c8.62-2.446 7.942 8.68 18.14 19.39s10.981 28.577 17.658 31.531c6.677 2.954 18.088 5.361 47.249 2.03z"/><path fill="#000" d="M89.125 217.099c5.36-5.309 2.217-20.248 3.247-25.623 1.03-5.374-7.903-10.189-7.694-23.892.156-10.228-6.286-21.133-9.572-26.026 5.881.742 10.537 3.123 12.337 7.899 0 0 19.457 56.113 1.682 67.642zM77.687 238.167c-1.891-1.744-4.982-20.821-4.982-20.821l4.982 1.302a63.363 63.363 0 004.12 16.604l.835 1.497s3.274 2.186 9.86 1.197l-1.46.494c-4.487.976-11.464 1.471-13.355-.273z" opacity=".1"/><path fill="#E1E1E1" d="M99.246 196.864a33.792 33.792 0 00-2.934-8.225s-.144 3.995-3.913 2.837c-5.569-1.704-13.55-2.017-22.17 6.195-8.62 8.211-20.866-3.813-22.731-10.138-1.865-6.324-7.447-21.159-3.326-25.115 4.122-3.956 14.737 1.744 26.187-2.212 11.45-3.956 16.276-13.261 17.554-8.68a72.23 72.23 0 002.425 7.365s2.804-16.526-1.434-23.007c-4.238-6.48-12.22-5.53-19.184-2.993-6.964 2.538-14.567 1.302-18.258 1.302a21.316 21.316 0 00-9.376 2.693 21.26 21.26 0 00-7.186 6.585c-5.073 7.417-10.928 6.155-11.554 13.013-.627 6.858 9.037 20.001 11.554 22.409 1.695 1.6 6.09 9.603 9.95 17.984-.339 1.197-1.304 1.939-3.56 1.457a59.751 59.751 0 006.703 12.337c3.443 4.684 14.137 11.712 29.63 11.868 3.757.184 7.504-.53 10.929-2.082 11.072-5.323 12.193-17.75 10.694-23.593z"/><path fill="#C4C4C4" d="M60.721 211.165c-6.103-1.106-11.359-3.904-13.445-13.13-2.087-9.227-14.541-28.889-17.593-37.049-3.052-8.159 6.377-8.016 7.055-13.963.43-3.708 3.574-7.808 5.869-10.41a21.291 21.291 0 00-7.72 6.897c-5.074 7.417-10.93 6.155-11.555 13.013-.626 6.858 9.037 20.001 11.554 22.408 1.696 1.601 6.09 9.604 9.95 17.985-.338 1.197-1.303 1.939-3.56 1.457a59.751 59.751 0 006.704 12.337c3.443 4.684 14.137 11.711 29.63 11.868 2.19.08 4.38-.116 6.52-.586-10.29 1.366-17.319-9.721-23.409-10.827z"/><path fill="#fff" d="M46.78 134.869s5.985 5.205 16.953 4.282c3.886-.3 14.867-7.132 19.314-4.282 4.447 2.85 6.651 7.626 4.865 16.631a72.23 72.23 0 002.425 7.365s2.804-16.5-1.434-22.981c-4.239-6.48-12.22-5.53-19.184-2.993-6.964 2.538-14.567 1.302-18.258 1.302a17.951 17.951 0 00-4.682.676zM99.245 196.863a33.791 33.791 0 00-2.935-8.224s-.143 3.995-3.912 2.837a20.016 20.016 0 00-15.402 1.301c.404-.091 14.006-3.292 17.71 2.811 3.704 6.103 3.104 15.147-1.578 21.797 6.755-6.064 7.382-15.616 6.117-20.522z"/><path fill="#FAFAFC" d="M84.3 236.5c-3.2.4-4.166-9-4.5-12H50.3c0 2-.115 4-.5 6.5-.8 5.2-12.832 5.833-19 5.5-27 4.5-27 51-27 59.5s1 52 18 57.5c13.6 4.4 77.667 27.333 99.501 30.5v-13.5l.5-15 2.495-31.944c-.04 1.314 4.362 2.571 22.505-2.556 18.4-5.2 38.333-15.5 46-20l-3.5-13.5c-11.167 1-36.8 3-50 3-16.5 0-19-23-27-41s-24-13.5-28-13z"/><path fill="#FAFAFC" d="M121.301 384l-1.5-9.5c-4.4-1.2-12.5-4.833-16-6.5-21.2-2.4-61.834-10.333-79.5-14 1.2 9.2 1.833 23.833 2 30 42.4 14 81 5.833 95 0z"/><path fill="#E7BCB8" d="M216.801 291c1.2-1.2 6.166-2.5 8.5-3l-9.5-6-10.5 10.5c6 1.5 10 0 11.5-1.5z"/><path fill="#F4C7C3" d="M230.186 269.748c0-1.999-1.246-3.332-1.869-3.748 0 0-1.516-.5-5.516 2s-4.45 4.247-4.45 4.247c-8.55 10.753-4.148 16.317-.55 16.869 2.5.384 6.156.625 8.024 0 1.869-.625 6.229-4.998 6.229-6.247 0-1.25 0-2.5.623-3.749.623-1.25-1.246-3.124-2.491-4.998-1.246-1.875 0-1.875 0-4.374z"/><path fill="#F4C7C3" d="M204.8 279c-2 2.4-8 6-11 7.5l-4 1.5 8.5 9.5c3-1.5 5.333-4 6.5-5 1.5 0 5-.3 7-1.5 2.5-1.5 3-7.5 4.5-8.5s3.5-1.5 6 3c2.075 3.734 4.5 2.5 5 1.5.224-.447-4-9.5-5.5-10.5s-4-5-9-4.5-5.5 4-8 7z"/><path fill="#F4C7C3" d="M217.301 266c-3.6 1.6-6.167 5-7 6.5h2.5c2-3.6 3.833-5.833 4.5-6.5z"/><path fill="#fff" stroke="#fff" d="M22.3 540c0-110.4 298.667-119.333 448.001-110 0 12-3 42.1-27 72.5s-64.334 38.167-80 37.5h-341z"/><path fill="#FF8139" d="M387.906 433.418c2.791 4.213-23.3 61.228-23.3 61.228S359.514 498 331.802 498c-28.148 0-33.337-3.354-33.337-3.354s-23.884-57.894-21.128-61.228c2.755-3.334 35.429-6.418 54.465-6.418s53.305 2.196 56.104 6.418z"/><path fill="#E26630" d="M296.301 454c-12-4.8-17.667-13.667-19-17.5 6 21.6 16.5 47.667 21 58 18.491 5.902 47.205 3.58 59.879 1.599.215-.024.422-.057.621-.099l-.621.099c-7.389.805-24.521-9.439-29.379-21.099-5-12-17.5-15-32.5-21z"/><path fill="#fff" d="M280.115 435c0 2.764 37.725 5 51.733 5 14.008 0 50.267-2.236 50.267-5s-36.25-5-50.267-5c-14.017 0-51.733 2.236-51.733 5z"/><path fill="#00181B" d="M337.301 436c-.834-11.167-2-33.7 0-40.5 2-6.8 24.5-24.5 48-42-20.5 11-34.7 24.3-37.5 25.5-3.5 1.5-10.5-29.5-10.5-39 0-7.123 6.735-15.096 10.736-18.812.268-.238.523-.468.764-.688-.241.209-.496.439-.764.688-4.001 3.553-10.736 8.811-10.736 5.812v-39c0-4-12.667-23.333-19-32.5 4.166 7.167 12.9 22.6 14.5 27 2 5.5 2.5 4.5 2.5 15.5v38.5c0 2.5 0 7.5 1 13-7.5-7.167-25-23.6-35-32 9.423 8.833 29.615 28.9 35 38.5 1.666 4.333 5.1 14.3 5.5 19.5.5 6.5-9 15.5-9 18.5v42h4.5z"/><path fill="#24AD79" d="M357.801 293c-13.6 2-19.334 12.167-20.5 17l12 6c2.4-9.2 13-12.833 18-13.5l-9.5-9.5zM327.801 293c.4 6.4 4.833 9 7 9.5l-7 11.5c-2.167-.833-6.7-4.1-7.5-10.5-.8-6.4-3.667-9.667-5-10.5l9.5-11c.833 1 2.6 4.6 3 11zM317.301 266.5c4.8 11.2 15 18.167 17.5 18.5l9.5-9c-7.6-2.8-14.834-14-15.5-17.5l-11.5 8z"/><path fill="#237556" d="M328.8 275c2 2 4 3.25 5.5 2 2-1.666.081-4.557-1-6-1.5-2-4.5-4-6-2.5-1.212 1.211-1 4 1.5 6.5zM328.301 302c-.4-3.6-2.833-6.167-4-7-2.5-1.5-2.5 1-2.5 2s.659 3.711 2 5.5c1.5 2 5 4 4.5-.5zM350.761 305.692c3.242-2.274 4.793-4.742 4.572-5.797-.553-2.635-3.921-1.967-6.533-.395-1.627 1.138-2.896 2.464-3.689 3.677-2.082 3.188 1.598 5.357 5.65 2.515z"/><path fill="#24AD79" d="M316.86 374c13.176 1.818 20.784 10.227 22.941 14.205L330.977 399c-6.117-9.091-16.666-12.121-21.176-12.5l7.059-12.5zM310.801 273.5c9.2-1.6 18.166 3 21.5 5.5l-3.5 10c-7.2-4.8-18-5.666-22.5-5.5l4.5-10z"/><path fill="#237556" d="M318.8 277c2 .4 3.5 1.333 4 2 2.5 3-2.688 3.771-5 3-1.123-.374-3.293-.879-4-3-.5-1.5 1.649-2.67 5-2z"/><path fill="#24AD79" d="M352.301 329.5c-10.4 7.6-13.334 19.833-13.5 25l-12-9c2-12.8 8.833-20.667 12-23l13.5 7zM367.801 374c-7.2 6.8-17.334 6.833-21.5 6l-1.5-13.5c12.4 1.2 19.5-4.5 21.5-7.5l1.5 15z"/><path fill="#237556" d="M356.801 375.5c3.315-.829 4.5-3.333 4.5-4.5 0-1.5-2.5-3.5-6.5-2s-4 3.5-4 4.5 2 3 6 2z"/><path fill="#24AD79" d="M366.3 335c8.8 6.8 10.334 18.167 10 23l-14 7.5c2.4-11.2-4-19.333-7-22.5l11-8z"/><path fill="#237556" d="M370.801 348c1.147 2.677 1 5-.5 6s-3.5 0-5-3.5-.5-5.5.5-6 3.5 0 5 3.5z"/><path fill="#24AD79" d="M404.801 366c-12.8 1.2-21.667-4.833-24.5-8l-6.5 13.5c10.8 8.8 22.5 10 27 9.5l4-15z"/><path fill="#237556" d="M394.773 371.548c-.4-2.4-4.166-3.333-6-3.5-6-.5-6 3-3 5s9.5 1.5 9-1.5z"/><path fill="#24AD79" d="M386.37 325c-6.908 12.784-4.477 24.66-2.399 29l13.431-1.776c-3.453-9.469.16-20.122 2.399-24.265L386.37 325z"/><path fill="#237556" d="M393.801 340c0-1.5-.5-5.5-2.5-6-3.5-1-4 5-4 6s0 6.5 3 6.5c3.535 0 3.5-5 3.5-6.5zM337.752 339.458c1.6-4 1.181-6.213 0-7-3-2-5.561 2.992-6 6.5-.5 4 4 5.5 6 .5zM326.8 382.5c-3-2-6-1-6.5.5s0 3 3 5.5c2.5 2.083 5.5 2 6.5.5 1.241-1.861 0-4.5-3-6.5z"/><path fill="#24AD79" d="M314.801 349.5c4.8 8 14.666 8.333 19 7.5l-4 12.5c-12 1.2-21-4.5-24-7.5l9-12.5z"/><path fill="#237556" d="M322.301 359c2.8 1.2 3.5 3.167 3.5 4 0 2-3 2.5-6.5 1.5s-4.75-3.5-4-5 3.5-2 7-.5z"/><path fill="#24AD79" d="M288.301 337c2.8-8.8 16.666-9.666 22-9l7 13.5c-11.6-3.6-20.167 3.5-23 7.5l-6-12z"/><path fill="#237556" d="M300.801 333.5c2.677-1.147 5.4-.5 6 1 1 2.5-2 4.333-4 5-3 1-5 0-5.5-1s0-3.5 3.5-5z"/><path fill="#24AD79" d="M308.301 296.5c5.2 10.8 2.166 21.833 0 26l-9.5-11.5c2.8-7.2-1.167-18-3.5-22.5l13 8z"/><path fill="#237556" d="M306.801 306.676c0-3.6-1-6.176-2-6.676-2-1-3 3-3 5s0 6 2 6.5c1.084.271 3-.324 3-4.824z"/><path fill="#016BCD" d="M287.301 349c2 1.667 5.8 5.3 5 6.5-1 1.5-2-3.5-5-6.5zM285.692 337c2 1.667 5.8 5.3 5 6.5-1 1.5-2-3.5-5-6.5zM274.692 337c2 1.667 5.8 5.3 5 6.5-1 1.5-2-3.5-5-6.5zM276.692 348c2 1.667 5.8 5.3 5 6.5-1 1.5-2-3.5-5-6.5zM282.692 348c2 1.667 5.8 5.3 5 6.5-1 1.5-2-3.5-5-6.5zM286.861 362c1.509 2.122 4.257 6.604 3.177 7.56-1.349 1.196-1.041-3.894-3.177-7.56zM305.861 362c1.509 2.122 4.257 6.604 3.177 7.56-1.349 1.196-1.041-3.894-3.177-7.56zM305.861 372c1.509 2.122 4.257 6.604 3.177 7.56-1.349 1.196-1.041-3.894-3.177-7.56zM288.179 392c1.099 2.36 2.987 7.267 1.752 8.011-1.544.931-.317-4.018-1.752-8.011zM321.721 392.122c1.355 2.224 3.778 6.89 2.633 7.767-1.431 1.096-.762-3.959-2.633-7.767zM321.721 403.122c1.355 2.224 3.778 6.89 2.633 7.767-1.431 1.096-.762-3.959-2.633-7.767zM301.721 393.122c1.355 2.224 3.778 6.89 2.633 7.767-1.431 1.096-.762-3.959-2.633-7.767zM301.721 423.122c1.355 2.224 3.778 6.89 2.633 7.767-1.431 1.096-.762-3.959-2.633-7.767zM311.721 428.122c1.355 2.224 3.778 6.89 2.633 7.767-1.431 1.096-.762-3.959-2.633-7.767zM315.721 423.122c1.355 2.224 3.778 6.89 2.633 7.767-1.431 1.096-.762-3.959-2.633-7.767zM295.721 384.122c1.355 2.224 3.778 6.89 2.633 7.767-1.431 1.096-.762-3.959-2.633-7.767z"/><path fill="#FAFAFC" d="M49.302 235.5c12.8 73.6-11 109.667-24.5 118.5l-7.5-57 18-63 14 1.5z"/><path fill="#152D5D" d="M33.3 182l30.5 36-19 4.5-29.5-36 18-4.5z"/><path fill="#152D5D" d="M32.3 184l30.5 36-19 4.5-29.5-36 18-4.5z"/><path fill="#F4C7C3" d="M36.8 221c0 2-.666 9.5-1 13l17 3 1-14.5c2.5-5 0-8-1-11-.8-2.4.334-3.667 1-4 .667 1.833 2.5 5.5 4.5 5.5 2.5 0 3.5-3 3-4s-2.5-10.5-4-12-7-8-8.5-8-10 1.5-10.5 2c-.4.4-3.5 4.833-5 7v-9c0-1.5 3-5 4-6s2-5-.5-5-8.5 8-8.5 10.5v15c2.834 5 8.5 15.5 8.5 17.5z"/><path fill="#152D5D" d="M63.8 218l-1 2-2-1.5 3-.5zM14.3 188.5l1-2 3 2h-4z"/></svg>