<svg xmlns="http://www.w3.org/2000/svg" fill="none" viewBox="0 0 470 540"><path fill="#E1E1E1" d="M469.801 481c0-55.228-44.772-100-100-100h-270c-55.229 0-100 44.772-100 100v59h470v-59z"/><path fill="#00B67A" d="M208.727 488.485c-8.716 3.705-18.262 32.53-21.945 46.479l-4.844.621c5.298-14.156 16.054-43.783 16.693-49.04.799-6.572-15.364-17.439-23.267-40.687-6.322-18.598 5.073-32.995 13.073-38.872 8.555 6.991 24.545 30.172 28.094 27.129 3.549-3.042-12.542-21.035-22.247-32.73 12.742-13.277 35.1-20.669 43.173-21.703 4.453 9.132 14.245 26.638 17.794 23.595 3.55-3.042-3.925-17.825-8.106-24.837 21.634-5.359 45.614-6.923 54.9-7.034l-5.186 49.183-25.24-4.854c-10.096-1.941-14.329 3.453-10.896 4.631 2.747.941 22.821 7.318 32.515 10.389-2.081 14.499-11.067 28.912-15.299 34.306-10.368-4.062-32.154-12.699-36.355-14.749-5.252-2.561-12.918 1.656-7.666 4.217 4.201 2.049 24.242 14.145 33.737 19.937-28.64 19.842-48.033 9.389-58.928 14.019z"/><path fill="#00B67A" d="M206.398 524.916c-4.83-1.555-18.825 6.794-25.218 11.164l-2.18-1.448c7.12-3.887 21.887-12.138 23.993-14.047 2.633-2.387-.091-12.47 4.88-24.678 3.977-9.768 13.65-11.613 18.954-11.191 1.006 5.84-.668 20.86 1.838 20.87 2.506.011 2.316-12.939 2.497-21.091 9.824-.918 21.473 3.927 25.105 6.341-1.408 5.269-3.596 15.81-1.09 15.821 2.506.011 4.676-8.613 5.448-12.925 10.641 5.416 20.898 13.196 24.696 16.41l-19.385 18.142-8.511-10.827c-3.405-4.331-7.014-3.627-6.038-1.944.781 1.346 6.666 10.979 9.511 15.627-5.938 5.154-14.641 7.851-18.25 8.555-2.769-5.287-8.553-16.437-9.534-18.743-1.225-2.883-5.811-3.862-4.585-.979.981 2.306 4.843 14.248 6.651 19.931-18.568-1.997-22.744-13.045-28.782-14.988z"/><path fill="#E1E1E1" d="M336.086 211.166c-36.383-2.546-62.016 24.828-70.285 38.834h194c-6.785-10.504-26.397-29.157-50.567-19.735-30.214 11.777-27.669-15.916-73.148-19.099z"/><path fill="#FF8139" d="M76.037 380.573c-13.518-3.931-24.916-1.172-28.431.466l-.676-25.388c12.642-1.456 24.713 1.873 29.107 3.831v21.091zm-13.197.989l13.197 1.242-14.824 157.194-13.245-.373L62.84 381.562z"/><path fill="#00181B" d="M60.39 514.402l-11.83 4.888-.779-22.384c2.338.567 4.109 1.842 5.525 3.542 1.134 1.36.567-.071 1.7.495 4.024-1.473 6.493-4.627 6.8-6.658 2.494 9.01.095 17.166-1.416 20.117z"/><path fill="#E2BBA6" d="M61.253 317.355c7.134-9.562 32.59-12.436 44.38-19.178 4.387-2.508 7.681-15.802 7.614-24.543-9.711-5.704-18.283-28.812-18.384-49.01-.124-24.927 12.142-44.944 30.744-45.037 18.602-.093 31.057 20.009 31.182 44.935.1 19.828-4.202 39.954-15.533 47.173.044 8.705 2.059 18.258 6.529 20.756 11.857 6.623 28.487 4.073 35.152 13.936 18.195 26.975 15.468 57.54 15.468 57.54l-140.81 31.527s-15.659-45.6 3.658-78.099z"/><path fill="#00181B" d="M154.967 257.415c-.364-4.362 2.272-18.477 3.635-24.989l-2.272 1.363c-.454 4.695-1.999 14.63-4.544 16.81-3.18 2.727-15.902-4.997-25.443-4.089-9.541.909-18.628 6.816-23.626 6.816-3.998 0-5.906-11.51-6.36-17.265l-2.272-2.272c.909 2.726 4.089 22.263 4.543 28.169.455 5.907 7.27 20.446 29.533 19.082 22.262-1.363 27.26-18.173 26.806-23.625z"/><path fill="#CBA895" d="M128.04 208.663c21.657-3.044 28.847 22.217 28.12 31.486 7.758-29.299-14.748-38.805-26.97-39.896l-34.299 7.41.946 30.593 3.245-23.367c15.976 1.498 21.537-6.226 28.958-6.226z"/><path fill="#000" d="M132.441 274.762a25.15 25.15 0 01-10.813.054s5.21 5.229 10.813-.054z" opacity=".1"/><path fill="#00181B" d="M127.872 203.721c20.918-4.008 29.174 14.094 28.227 35.978 4.322-11.465 19.043-40.894 4.504-48.164-4.893-2.446-10.265-1.549-17.918-5.725-6.163-3.362-9.896-10.16-21.156-10.177-11.81-.018-22.448 14.843-26.806 17.72-16.433 6.716-3.258 36.658 1.49 45.635l.57-7.279 2.728-20.371c10.254 1.62 21.844-6.369 28.361-7.617z"/><path fill="#00181B" d="M159.24 199.259c5.452 3.635 4.695 16.962 3.635 23.171 11.813-33.621-3.635-30.895-14.539-34.075-10.905-3.181-7.27-5.907-19.083-11.359-9.45-4.361-19.082 1.818-22.717 5.452 4.392-2.726 15.539-5.724 24.989 4.089 11.813 12.268 20.9 8.179 27.715 12.722z"/><path fill="#142B5A" d="M61.15 539.995l4.929-52.241 116.402 3.564 6.435 48.676h-58.507c-2.545-5.112-6.941-14.719-8.659-13.119-1.718 1.6-5.83 9.342-6.865 13.12H61.15z"/><path fill="#FAFAFC" d="M147.975 291.461c-13.9 15.164-32.821 8.425-40.543 3.16-12.04 0-38.787 5.01-49.456 25.052-4.609 8.658-10.008 26.609-11.023 33.753l30.04 11.421-11.172 126.24c54.601 16.945 95.202 6.385 117.593 0 0-2.875-4.075-57.542-4.075-88.236 0 0 .707-29.591.707-38.004 9.268-18.534 17.595-25.114 22.159-27.922-.351-1.58.006-9.968-7.444-22.465-9.898-16.603-33.798-21.244-46.786-22.999z"/><path fill="#C4C4C4" d="M211.805 121.734l5.882-1.182 48.898 243.3-5.882 1.183z"/><path fill="#E2BBA6" d="M228.3 283.018c-.061 1.259-1.745 4.517-5.398 8.881l19.129 7.241 4.766-13.833c.75-1.014.531-4.517.734-8.712.255-5.243-5.578-14.986-2.356-16.406 3.222-1.42 13.454 4.332 14.156.688.703-3.645-2.443-3.798-3.99-4.399-1.548-.6-14.899-7.03-17.073-5.559-2.174 1.471-8.848 9.03-9 12.176-.153 3.146 1.089 10.038-.612 12.583-1.7 2.545-.28 5.767-.356 7.34z"/><path fill="#E2BBA6" d="M252.682 251.848c-2.057.594-10.791 7.404-14.901 10.735 0 0-6.029 4.305-6.385 10.99-.355 6.686 5.617 11.199 5.617 11.199 3.358 2.351 10.58 6.801 12.602 5.788 2.528-1.266 8.282-1.75 8.497-5.455.215-3.706 2.83-3.926 4.092-7.719 1.261-3.794-.396-4.708-.572-6.8-.176-2.093 1.785-3.838-.572-6.8-2.356-2.963-1.965-4.576-2.097-6.146-.132-1.569-3.71-6.535-6.281-5.792z"/><path fill="#152D5D" d="M149.757 178.577c-34.465-16.14-75.43 5.417-84.695 16.963-11.76-65.538 23.937-119.845 45.83-135.213l185.605-8.409 10.145-.46c58.491 2.976 81.444 52.566 81.041 85.212-37.864-24.687-62.801-1.156-70.536 13.696-37.943-33.084-74.384-4.755-85 10.227-42.757-19.665-73.994 1.102-82.39 17.984z"/><path fill="#152D5D" d="M194.879 21.297c-54.642 9.15-92.167 42.586-97.226 52.454l278.648 19.75c-30.551-55.673-98.962-86.01-181.422-72.204z"/><path fill="#E2BBA6" d="M209.427 378.4c8.528-8.527 26.639-57.585 33.631-82.114l-14.132-11.803c-21.979 25.678-45.93 65.589-48.95 76.726-3.961 14.61 16.431 30.209 29.451 17.191zM52.72 399.235c1.26-9.819 1.05-22.168 0-26.305l22.433 12.59-5.788 67.647c-3.617 8.2-10.201 26.842-7.597 35.813 2.605 8.972-9.385 20.351-15.432 10.038-3.256-3.256-9.048.362-9.048 6.873 0 5.209 6.032 10.611 9.048 12.661-1.085 1.327-5.31 4.255-11.523 0-7.03-4.813-5.94-9.761-7.223-15.742 0-9.282 2.317-14.512 11.608-20.894 10.146-6.97 6.36-19.209 8.236-44.295 1.522-20.354 3.17-21.886 5.286-38.386z"/><path fill="#E2BBA6" d="M62.617 502.576c1-5.329-.416-11.381-1.249-13.74l-8.333 12.347c.96 2.356 1.786 7.286 1.522 9.551-.469 4.028-2.534 5.451-3.104 6.876-.456 1.14 1.481 1.011 2.213.787 6.245-3.331 7.702-9.16 8.951-15.821z"/><rect width="3.144" height="25.869" x="45.381" y="355.508" fill="#FF8139" rx="1.572"/><rect width="3.144" height="25.869" x="72.152" y="357.164" fill="#FF8139" rx="1.572"/><ellipse cx="45.38" cy="508.193" fill="#FF8139" rx="9.153" ry="11.763"/><path fill="#1C3B78" d="M47.623 431.152l6.002-46.785 21.35 3.945-4.28 48.096-23.072-5.256z"/><path stroke="#FAFAFC" d="M52.805 389.504l21.123 8.953m-22.133.138l18.162-1.958m-18.689 7.554c3.21 1.541 12.06 4.767 21.774 5.345m-23.092 4.335c1.371 1.444 7.737 4.68 22.225 6.067m-23.4 2.308c2.76 1.782 11.13 5.518 22.533 6.211"/><path fill="#FF8139" d="M79.017 355.508c-2.635 2.24-4.172 2.141-4.612 1.811l-.266 25.658c.925-.132 1.267-.459 1.322-.606l3.556-26.863z"/></svg>