<svg xmlns="http://www.w3.org/2000/svg" fill="none" viewBox="0 0 470 550"><path fill="#E1E1E1" d="M353.738 392.242l15.496-300.147c1.771-34.306-25.568-63.093-59.92-63.093H92.386c-33.137 0-60 26.863-60 60v360.146h261.432c31.935 0 58.274-25.014 59.92-56.906z"/><path fill="#E1E1E1" d="M358.387 361c0-55.228-44.772-100-100-100h-116c-60.752 0-110 49.249-110 110v168h326V361z"/><rect width="401.325" height="286.051" fill="#152D5D" rx="50" transform="matrix(-1 0 0 1 453.737 46.934)"/><path stroke="#E1E1E1" stroke-dasharray="10 10" d="M417.404 158.008H96.403"/><path stroke="#24AD79" stroke-width="2" d="M135.103 129.714l11.367 20.987 6.82-13.921 33.343 54.412 32.62-61.478 9.093 20.987 24.973-53.564 28.83 53.564 13.64-20.987 7.578 14.769 25.766-38.866 28.003 38.866 16.672-24.804 20.798 24.804 20.915-31.093-.728 158.771h-305.39"/><path stroke="#FB5756" stroke-width="2" d="M413.584 175.801l-32.177 61.765-36.146-66.307-15.183 34.393-21.509-46.722-18.978 55.157-11.387-29.201-15.816 40.233-20.244-30.499-13.284 19.467-39.223-55.157-34.794 66.189-40.234-53.86"/><path fill="#FB5756" d="M189.637 158.93l-34.794 66.189-40.234-53.86v101.24h298.975v-96.698l-32.177 61.765-36.146-66.307-15.183 34.393-21.509-46.722-18.978 55.157-11.387-29.201-15.816 40.233-20.244-30.499-13.284 19.467-39.223-55.157z" opacity=".2"/><path stroke="#fff" stroke-width="4" d="M415.402 76v197h-306"/><path fill="#E5B9B7" d="M150.385 424.61a11.883 11.883 0 013.926-2.596c4.139-.695 8.314-1.15 12.506-1.366 2.23 0 11.078 3.858 11.733 4.289.654.43 1.041 2.596-2.365 2.493-3.405-.104-25.8-2.82-25.8-2.82z"/><path fill="#FF8139" fill-rule="evenodd" d="M199.297 410.22a8.814 8.814 0 00.967-4.024c0-4.973-4.117-9.005-9.196-9.005-4.553 0-8.333 3.24-9.067 7.494l-13.583-4.348-14.691 45.902 44.84 14.352 4.441-13.877c-3.267-1.382-5.554-4.565-5.554-8.271 0-4.973 4.118-9.004 9.196-9.004.627 0 1.238.061 1.83.178l4.778-14.928-13.961-4.469z" clip-rule="evenodd"/><path fill="#E5B9B7" d="M217.921 315.427s1.279-.727 2.974-1.617a32.281 32.281 0 017.718-3.057c3.584-.564 12.358 1.707 15.243 2.3 2.884.594 8.149 1.9 8.149 1.9-.313 1.929 2.037 2.047 2.037 2.047-.193 1.38-2.052 1.365-3.569 1.484a15.862 15.862 0 01-3.614-.386c.026.794.325 1.554.848 2.152a2.985 2.985 0 01-1.606.386 23.092 23.092 0 00-10.409 2.463c-4.313 2.537-8.581 6.573-14.633 12.123a30.387 30.387 0 01-7.227 4.882h-.119l-.892.415a29.79 29.79 0 01-3.822 1.484c-.372.119-.744.208-1.101.297l10.023-26.873z"/><path fill="#F4EFEF" d="M159.592 526.189c-.457-27.359-10.793-42.148-15.743-70.646H35.892c-7.426 17.099-9.14 38.188-9.14 56.997 0 15.047 1.456.64 3.93 26.478H94.39c6.52-20.279 7.646-15.579 8.979 0h56.221c.023-4.095.047-6.994.071-8.972.163-13.551.313 16.058 0 0-.021-1.073-.044-2.35-.069-3.857z"/><path fill="#CFCDCD" d="M152.965 509.263l-2.281-13.683v-1.71h-20.525l-1.71-17.104H91.96v18.814l-65.565 1.14v12.543c31.015-8.21 60.054-8.362 70.697-7.411l-1.14-17.104c1.368.912 3.99 1.52 5.13 1.71h15.964c5.017 0 7.792-1.901 8.552-2.851l1.141 17.674c9.578 1.825 21.475 6.082 26.226 7.982z"/><path fill="#CFCDCD" d="M30.385 549.419c-2.28-37.039 3.991-39.036 7.412-43.575l-11.403 1.089c-1.368 15.687 2.09 29.414 3.991 42.486z"/><path fill="#F4C7C3" d="M231.809 309.816c5.949-.104-.773-4.081-4.327-4.838-3.554-.756-11.48-1.869-13.978 1.484-2.499 3.354-21.369 30.093-24.314 31.324-2.944 1.232-18.538 18.683-18.538 18.683-33.251 3.799-10.388-4.613-18.002-7.982-7.614-3.368-9.106-27.213-20.735-39.425-11.629-12.212-10.856-24.899-20.685-22.109-11.331 3.205-11.168-.534-11.168-.534l-.951-1.707a72.378 72.378 0 01-4.7-18.934c4.937 1.054 4.55 1.395 9.101.164 26.767-7.316 1.978-78.912 1.978-78.912-7.361-19.527-56.42-3.947-62.59 6.975-5.949 10.505 2.676 26.516 2.676 26.516-6.126-.223-6.825 4.719-6.825 4.719-1.25 10.624 14.052 17.509 14.052 17.509l1.488 1.87c13.591 19.097 10.186 32.644 7.658 38.417-.565 1.201-5.354 4.006-10.26 3.917-6.246-.089-23.511.341-32.21 21.798-16.522 40.702-1.28 101.109 7.51 107.015 8.788 5.906 92.881 17.806 92.881 17.806l8.565 5.713 10.172 2.968c3.256 1.083 9.695 3.976 17.845 6.143 10.216 2.671 11.703 3.279 14.469 3.62 3.108.371 2.602.668 6.513 1.024 2.974.267 2.974-2.122 2.974-2.122l5.145 1.321c4.194-.282 2.469-5.06 2.469-5.06a3.18 3.18 0 002.008-2.274 3.174 3.174 0 00-.819-2.919c-.892-.727-8.922-5.327-10.617-6.411-1.695-1.083-8.402-4.822-8.402-4.822s9.74 2.626 10.29 3.368a97.861 97.861 0 008.804 6.544c1.769.89 3.509-1.974 2.379-3.472-1.13-1.499-7.673-7.835-10.662-9.141-2.989-1.306-8.164-5.208-10.588-6.321-2.424-1.113-2.974 1.068-9.948.875-6.975-.192-4.462-.089-5.547-.311-1.086-.223-2.662-.579-4.536-.95-2.116-.419-3.615-.271-5.338.401l-17.072-3.947h22.098c-1.889-44.486-5.443-67.797-5.443-67.797s-7.182 37.719 18.291 34.128c25.474-3.591 30.94-33.568 33.036-34.859.937-.578 3.45-2.062 6.35-4.229 13.8-1.825 9.859-13.933 18.336-13.933 9.799 0 11.747-.564 11.747-2.374 0-1.811-9.785-2.745-16.164-2.968 1.056-4.57 1.205-8.903 2.825-12.924 1.874-4.704 8.343-2.953 12.759-3.027z"/><path fill="#000" d="M107.408 264.22c6.112-6.055 2.528-23.089 3.703-29.217 1.174-6.129-9.012-11.619-8.774-27.244.178-11.663-7.168-24.098-10.915-29.677 6.707.846 12.015 3.561 14.067 9.007 0 0 22.187 63.984 1.919 77.131zM94.366 288.242c-2.156-1.989-5.68-23.742-5.68-23.742l5.68 1.484a72.26 72.26 0 004.7 18.934l.951 1.706s3.732 2.493 11.242 1.365l-1.665.564c-5.116 1.113-13.072 1.677-15.228-.311z" opacity=".1"/><path fill="#fff" d="M188.327 335.944l-10.262 6.841c-20.525 11.403-15.703 9.531-23.704 7.216-12.431-3.665-7.649-37.378-19.278-49.62-11.628-12.242-14.023-16.174-23.793-13.355-9.77 2.82-11.896-4.169-13.086-4.837.268 1.87-3.39 8.473-6.335 9.408l-2.17 7.953-7.436-7.939c-9.473-1.854-19.718-9.763-19.718-9.763-.58 1.202 1.487 7.82-9.294 5.119-6.053-1.484-25.057.326-33.757 21.783-18.157 44.738-6.528 95.5 7.51 107.015 8.179 6.707 92.882 17.806 92.882 17.806l.119 3.769 8.446 1.944c-.491-11.515 7.569-19.572 7.569-19.572l-8.045-1.914h22.098c-1.889-44.486-5.443-67.797-5.443-67.797s-7.182 37.719 18.291 34.128c17.324-2.448 23.126-15.117 31.678-26.52-7.317-6.811-6.272-21.665-6.272-21.665z"/><path fill="#000" d="M120.049 413.125l-4.773-31.963-4.461-29.795-1.681-11.263a67.203 67.203 0 00.595-18.77c-.907-9.052-.505-20.433-5.086-30.924 0 0 2.008 9.259 1.339 15.892-.417 4.17-3.525 16.723-1.487 26.413 2.037 9.689 5.428 12.108 4.773 25.418-.654 13.31-1.308 35.063 10.781 54.992z" opacity=".1"/><path fill="#F4EBEA" d="M125.252 438.444l-34.272-7.979 1.143 35.338h36.557l-3.428-27.359z"/><path fill="#DCD4D3" d="M124.94 438.568l3.988 27.936h-6.267c-2.279-3.42-2.849-10.832-2.279-15.393.57-4.561 1.709-9.692-8.546-10.833-8.204-.912-17.091-2.28-20.51-2.85l-1.708-6.842 1.709.57 33.613 7.412z"/><path fill="#000" d="M127.537 478.344l-.932-12.539H92.123l.49 12.539h34.924z"/><path stroke="#FFD300" stroke-width="3" d="M118.969 478.344v-12.539h-15.423v12.539h15.423z"/><path fill="#00181B" d="M7.584 308.579c5.71-16.708 23.08-22.51 31.437-23.266l23.567-3.493s8.923 35.346 26.187 58.879l2.647 57.796 37.802 19.29-.238.238a20.745 20.745 0 00-5.473 16.248l.119 3.769-3.524-.772s-51.58-5.716-78.064-11.71c-2.201-.505-9.122-2.381-9.122-2.381L7.584 412.228s-16.194-56.254 0-103.649z"/><path fill="#00181B" d="M184.906 335.376l-1.785 1.738c-7.337 5.674-17.725 13.631-25.339 10.263-7.614-3.369-9.196-26.71-15.174-42.498-4.001-10.55-8.224-21.456-24.314-23.059l-20.15.342a18.32 18.32 0 001.978 4.451l.298.178c1.128.481 2.298.858 3.494 1.128 0 0 8.551 26.501 5.235 52.202l11.064 74.059 9.011 3.605h20.819c-1.889-44.515-2.528-40.182-2.528-40.182s-15.206 20.658 10.267 17.067c14.499-2.048 25.339-13.683 34.083-33.369-2.29-3.754-8.357-17.171-6.959-25.925zM128.679 495.442l-3.999-56.997c1.714.38 5.941 1.368 9.139 2.28 3.999 1.14 7.997 2.28 10.853 3.42 2.285.912 7.045 2.66 9.139 3.42l5.712 47.877h-30.844zM93.264 497.153l-2.285-66.116-69.115-17.099 2.284 25.078-7.996 58.137h77.112z"/><path fill="#000" d="M85.741 349.333l-1.16-7.672-4.297 6.514a83.945 83.945 0 01-13.577-18.948A74.375 74.375 0 0080.224 350l4.239-6.439 1.278 5.772zM110.828 347.033l1.993-7.42 4.61 4.452s3.375-13.191 2.691-23.831a67.466 67.466 0 01-2.424 26.116l-4.461-4.57-2.409 5.253z"/><path fill="#594423" d="M118.949 241.147a38.504 38.504 0 00-3.346-9.378s-.163 4.555-4.461 3.234c-6.35-1.943-15.45-2.3-25.28 7.064-9.83 9.363-23.793-4.348-25.92-11.56-2.126-7.211-8.49-24.127-3.791-28.638 4.699-4.511 16.803 1.988 29.86-2.522 13.056-4.511 18.558-15.121 20.016-9.898a82.318 82.318 0 002.766 8.399s3.197-18.845-1.636-26.235c-4.833-7.389-13.934-6.306-21.875-3.413-7.94 2.894-16.61 1.484-20.819 1.484a24.31 24.31 0 00-10.69 3.071 24.254 24.254 0 00-8.195 7.509c-5.785 8.458-12.462 7.019-13.176 14.839-.713 7.82 10.306 22.806 13.176 25.552 1.933 1.825 6.944 10.95 11.346 20.506-.387 1.366-1.487 2.211-4.06 1.662a68.122 68.122 0 007.644 14.067c3.926 5.342 16.12 13.355 33.786 13.533 4.284.21 8.556-.604 12.461-2.374 12.625-6.069 13.904-20.24 12.194-26.902z"/><path fill="#3E2F1C" d="M75.02 257.455c-6.959-1.261-12.952-4.451-15.33-14.972-2.38-10.52-16.582-32.941-20.061-42.245-3.48-9.304 7.271-9.141 8.045-15.922.49-4.229 4.074-8.903 6.691-11.871a24.28 24.28 0 00-8.803 7.865c-5.785 8.458-12.462 7.018-13.175 14.838-.714 7.82 10.305 22.807 13.175 25.552 1.933 1.825 6.945 10.951 11.346 20.507-.386 1.365-1.487 2.211-4.06 1.662a68.148 68.148 0 007.644 14.067c3.926 5.342 16.12 13.354 33.786 13.532a29.574 29.574 0 007.435-.667c-11.732 1.558-19.748-11.085-26.692-12.346z"/><path fill="#674F2D" d="M59.125 170.456s6.826 5.935 19.332 4.882c4.431-.341 16.952-8.132 22.023-4.882 5.071 3.25 7.584 8.695 5.547 18.964a82.381 82.381 0 002.766 8.398s3.197-18.815-1.636-26.205c-4.833-7.389-13.934-6.306-21.875-3.413-7.94 2.894-16.61 1.484-20.819 1.484-1.805.021-3.6.28-5.338.772zM118.949 241.147a38.456 38.456 0 00-3.346-9.377s-.163 4.555-4.461 3.234a22.823 22.823 0 00-17.562 1.484c.461-.104 15.971-3.754 20.194 3.205 4.224 6.96 3.54 17.272-1.799 24.855 7.703-6.915 8.417-17.806 6.974-23.401z"/><path fill="#F4C7C3" d="M219.869 324.863c2.995.194 5.975.575 8.923 1.143 1.948.638 2.751 1.32 2.646 2.359-.104 1.039-2.186 1.84-4.832 1.781l-5.413-.119-1.324-5.164z"/><path fill="#E2BBA6" d="M230.438 375.149s12.329-1.659 22.196-13.93c0 0-2.461 10.317 10.7 22.134 9.115 8.158 2.005 51.618-1.835 59.287 0 0 36.371 35.836 95.577 7.136 0 0-14.87-54.118-15.952-84.716-1.333-34.746-5.356-57.083-17.525-89.886-12.169-32.802-15.052-50.902-13.4-68.173 1.652-17.27.821-44.312-29.626-50.845-30.446-6.533-34.046 29.269-34.046 29.269s-2.689 45.778 9.286 56.265c10.495 9.249 28.486-2.488 28.486-2.488s4.171 21.235-.66 28.734c0 0-6.666 7.624-23.131 14.18-17.195 6.818-19.952 56.811-29.068 65.969"/><path fill="#CEA999" d="M265.557 156.688c-1.22 7.442-3.168 19.395-4.968 31.177 1.139-11.101 3.247-23.394 4.706-31.087l.262-.09zM246.55 185.469l14.038 2.397-.706 10.681c-.137 5.862 3.261 6.152 4.708 8.379 6.062 9.351 5.767-8.857 10.78-8.379 5.014.477 7.13 6.953 3.529 16.679-3.601 9.726 9.344 12.43 10.46 17.884 1.117 5.454 9.811 36.166 0 46.676l-15.029-4.545a45.424 45.424 0 009.298-7.261c4.831-7.499 1.431-18.816 1.431-18.816s-17.98 11.737-28.486 2.489a13.68 13.68 0 01-2.279-2.636c-5.982-8.374-7.607-39.551-7.778-44.108-.171-4.556.034-19.44.034-19.44z"/><path fill="#00181B" d="M273.758 199.55c-3.178 2.723-5.863 13.996-6.809 19.291 1.135-13.05-7.827-17.814-17.589-22.695-6.808-3.405-13.83-11.348-11.348-19.291 2.837-9.079 6.242-5.674 14.752-16.455 8.511-10.78 20.188-9.675 26.1-7.376 10.213 3.972 10.781 5.107 17.022 8.511 5.569 3.038 6.317 1.684 15.887 6.242 11.915 5.673 13.617 22.127 9.645 31.773-3.971 9.646-6.808 9.078-3.972 17.022 2.837 7.943 0 11.347-3.971 15.319-3.178 3.177-4.35 8.133-4.539 10.213-1.702-3.404-8.511-7.376-15.32-6.241-6.808 1.135-6.241-6.809-10.78-9.646-4.539-2.837-6.241-5.674-3.404-13.617 2.837-7.943-1.703-16.454-5.674-13.05z"/><path fill="#2B2B2B" d="M238.58 185.365c-1.135-2.27-2.496-8.057 1.135-13.05 4.539-6.241 6.241-2.27 11.915-10.213 5.674-7.944 11.915-12.483 24.398-10.213 12.482 2.269 15.319 9.078 27.234 12.482 11.607 3.317 18.907 7.172 20.326 23.104.069.486.1.922.1 1.294-.029-.44-.063-.871-.1-1.294-.496-3.461-2.948-9.478-10.113-13.458-10.213-5.674-16.454-5.674-28.369-11.915-11.915-6.241-20.426-9.078-27.802 0-7.376 9.078-14.185 8.511-16.454 13.05-2.27 4.539-2.27 5.674-2.27 10.213z"/><path fill="#F4EFEF" d="M262.981 438.57s-17.313 62.388-16.333 101.428h132.68s-1.17-31.224-6.277-51.65c-5.106-20.426-18.128-46.767-18.128-46.767s-50.535 25.895-91.942-3.011z"/><path fill="#CCD2DD" d="M219.29 335.721c-20.431 19.554-53.335 29.503-70.356 26.666v24.756c12.482 4.083 52.199 8.72 78.45-6.611 0 0 11.197-4.527 20.275-14.173v38.339s-1.259 61.917-1.259 76.864c0 0 79.689 39.572 124.512-5.819 0 0-2.305-31.424-5.431-81.752-2.858-46.021.194-92.314-28.742-115.009-10.446-8.193-17.138-17.359-17.138-17.359-2.944-1.401-14.645-2.046-37.899 6.579-5.58 7.836-15.887 8.51-25.532 15.319-23.831 16.821-21.133 37.133-36.88 52.2z"/><path fill="#000" d="M318.381 453.82c-.205 1.375-.399 2.716-.593 4.045.194-1.329.388-2.67.593-4.045zM318.54 452.773c0-.364.102-.727.159-1.136-.045.409-.113.772-.159 1.136z" opacity=".3"/><path fill="#E1E1E1" d="M317.861 518.422l4.694 21.561h-11.348c2.27-10.213 5.932-19.102 6.654-21.561z"/><path fill="#C4C4C4" d="M318.015 518.421l4.539 21.561h9.078l-4.539-16.455 11.915-6.808c-5.447.908-16.265 1.513-20.993 1.702z"/><path fill="#B8BFCD" fill-rule="evenodd" d="M261.369 486.623c-8.949-13.095-6.668-55.012.473-74.788 5.765-15.965-.785-40.886-4.852-56.359-1.058-4.025-1.948-7.41-2.41-9.833-1.188-6.239-6.958-.244-15.377 8.503-7.416 7.705-16.888 17.546-27.095 23.042-15.504 8.349-45.415 7.299-62.852 5.262v3.738c12.482 4.083 52.199 8.72 78.451-6.611 0 0 11.196-4.527 20.274-14.173v38.339s-1.259 61.917-1.259 76.864c0 0 5.592 2.777 14.647 6.016z" clip-rule="evenodd"/><path fill="#FAFAFC" d="M148.498 387.601v-24.335c0-1.066.837-1.945 1.901-1.998l15.851-.782a2.001 2.001 0 012.099 1.998v28.162a2 2 0 01-2.378 1.964l-15.85-3.045a2 2 0 01-1.623-1.964z"/><ellipse cx="157.978" cy="366.807" fill="#FFD300" rx="2.333" ry="2.225"/><path fill="#CEA999" d="M126.355 349.378l-3.448 13.792-14.366-7.328-6.466-15.516 9.052-1.58 15.228 10.632z"/><path fill="#E2BBA6" d="M137.808 363.162c3.495 1.019 8.658 3.473 10.66 3.351v17.499c-13.795-5.707-32.969-14.009-42.345-25.709-7.5-9.359-10.08-20.902-8.45-26.826 8.239 10.37 23.673 27.064 23.673 25.753 0-1.638-.182-8.737-1.274-11.65-1.093-2.912-6.205-7.723-4.021-10.09 2.185-2.366 8.117 6.69 13.942 14.153 5.825 7.463 3.447 12.245 7.815 13.519z"/><path fill="#fff" d="M114.662 349.783l-41.266-25.587h60.687l37.564 19.085-56.985 6.502z"/><path stroke="#00181B" stroke-width=".3" d="M139.865 342.069c-.571.059-1.509-.075-.69-1.083 1.024-1.261 2.107-1.951 2.226-.808.094.914-.223 1.562-.394 1.772.473-1.011 1.441-2.804 1.536-1.891l.178 1.714c.472-1.011 1.441-2.805 1.535-1.891.119 1.142.69 1.083 1.832.964.914-.094 1.825-.958 2.166-1.379.401.151 1.544.417 2.915.275M97.761 335.692l23.778-.822m-15.537 4.939l21.958-1.573m-14.575 6.047l22.208-2.18"/><path fill="#FF8139" d="M138.143 332.5l-10.854.484 6.421 3.365 10.247-.734-5.814-3.115z"/><path stroke="#fff" stroke-width=".3" d="M132.037 333.529l-1.464.105 1.213.501c.488-.034 1.707-.004 2.677.397 1.213.502.963 1.108-.501 1.213M137.94 335.332c-.018.025-.063.056-.165.061a1.173 1.173 0 01-.403-.066c-.33-.102-.742-.317-1.154-.624-.413-.308-.737-.641-.929-.928a1.195 1.195 0 01-.178-.368c-.024-.099-.008-.15.011-.175.018-.025.062-.055.165-.061.101-.006.237.015.403.066.329.102.742.317 1.154.625.413.307.737.641.929.927.096.144.155.269.178.368.024.1.008.15-.011.175zM140.327 335.114c-.019.025-.063.055-.165.06a1.193 1.193 0 01-.403-.065c-.33-.103-.742-.318-1.155-.625-.412-.308-.736-.641-.928-.928a1.21 1.21 0 01-.179-.367c-.023-.1-.007-.151.011-.176.019-.025.063-.055.165-.061a1.23 1.23 0 01.404.066c.329.103.742.318 1.154.625.412.307.736.641.929.928.096.144.154.269.178.367.024.1.008.151-.011.176z"/><ellipse cx="97.439" cy="330.329" fill="#CCD2DD" rx="6.438" ry="1.714" transform="rotate(-3.772 97.44 330.329)"/><path fill="#E2BBA6" d="M120.32 346.936c.805 1.149.91 3.16.862 4.022l7.902-2.298c-5.747-6.322-13.217-9.626-13.792-8.046-.575 1.581 4.023 4.885 5.028 6.322z"/></svg>