<svg width="473" height="541" viewBox="0 0 473 541" fill="none" xmlns="http://www.w3.org/2000/svg">
<path d="M382.359 452.867C382.359 392.116 333.111 342.867 272.359 342.867H103.001C47.7725 342.867 3.00098 387.639 3.00098 442.867V539.999H382.359V452.867Z" fill="#E1E1E1"/>
<path d="M189.359 97.3477V540.348H382.359V97.3477H189.359Z" fill="#152D5D"/>
<path d="M221.812 540.334V366.637H276.737V540.334H221.812Z" fill="#0B1B39"/>
<path d="M227.781 540.333V372.895H270.766V540.333H227.781Z" fill="#152D5D"/>
<path d="M300.109 540.334V366.637H355.034V540.334H300.109Z" fill="#0B1B39"/>
<path d="M306.078 540.333V372.895H349.063V540.333H306.078Z" fill="#152D5D"/>
<mask id="mask0" mask-type="alpha" maskUnits="userSpaceOnUse" x="219" y="124" width="134" height="222">
<path d="M219.475 190.771C219.475 153.983 249.297 124.16 286.085 124.16C322.873 124.16 352.696 153.983 352.696 190.771V345.654H219.475V190.771Z" fill="#E1E1E1"/>
</mask>
<g mask="url(#mask0)">
<path d="M219.475 124.16H352.696V345.654H219.475V124.16Z" fill="#E9E9EA"/>
<path d="M236.78 345.655L311.859 129.551C320.259 132.539 325.359 136.843 326.859 138.622L253.359 345.655H236.78Z" fill="white"/>
<path d="M227.482 345.655L301.359 126.348L305.359 126.881L231.278 345.655H227.482Z" fill="white"/>
</g>
<path d="M159.969 174.389C160.002 144.136 135.487 119.594 105.234 119.594C75.0055 119.594 50.5 144.099 50.5 174.328V255.25C50.5 285.454 74.9854 309.94 105.19 309.94C135.37 309.94 159.846 285.491 159.879 255.311L159.969 174.389Z" fill="#F5F5F5"/>
<path d="M56.5254 173.309C56.5254 146.409 78.3324 124.602 105.233 124.602C132.133 124.602 153.94 146.409 153.94 173.309V256.222C153.94 283.122 132.133 304.929 105.233 304.929C78.3324 304.929 56.5254 283.122 56.5254 256.222V173.309Z" fill="white"/>
<rect x="56.5254" y="212.762" width="99.4231" height="4.00729" fill="#E5E5E5"/>
<rect x="107.744" y="124.602" width="181.33" height="5.02135" transform="rotate(90 107.744 124.602)" fill="#E5E5E5"/>
<rect x="235" y="384" width="66" height="66" fill="#F5F5F5"/>
<path d="M301 384H337V450H301V384Z" fill="#C4C4C4"/>
<rect x="242" y="395" width="51" height="11" fill="#666A6A"/>
<rect x="273" y="433" width="19" height="9" fill="#E1E1E1"/>
<path d="M275.5 436C275 436.333 274.2 437 275 437C275.8 437 276.666 436 277 435.5C277 436 277.3 437 278.5 437C279.7 437 280 436.333 280 436C279.833 436.333 280.2 437 283 437C285.8 437 288.833 437 290 437" stroke="black" stroke-width="0.5"/>
<path d="M277 440.498C276.5 440.498 275.7 440.298 276.5 439.498C277.5 438.498 278.5 437.998 278.5 438.998C278.5 439.798 278.166 440.332 278 440.498C278.5 439.665 279.5 438.198 279.5 438.998C279.5 439.798 279.5 440.331 279.5 440.498C280 439.665 281 438.198 281 438.998C281 439.998 281.5 439.998 282.5 439.998C283.3 439.998 284.166 439.331 284.5 438.998C284.833 439.165 285.8 439.498 287 439.498" stroke="black" stroke-width="0.5"/>
<rect x="281" y="450" width="9" height="90" fill="#C4C4C4"/>
<g style="mix-blend-mode:multiply" opacity="0.3">
<path d="M63.5169 488.21C63.5169 487.856 63.4169 487.501 63.3613 487.102C63.4058 487.501 63.4724 487.856 63.5169 488.21Z" fill="black"/>
</g>
<path d="M133.72 227.359L120.03 229.699L120.719 240.121C120.852 245.842 120.397 250.433 118.985 252.606C113.074 261.731 110.718 240.41 105.829 240.875C100.939 241.341 98.6612 246.907 102.173 256.398C105.684 265.889 93.0606 268.528 91.9716 273.85C90.8826 279.172 82.4039 309.142 91.9716 319.398L106.629 314.963C103.31 313.005 100.262 310.623 97.5611 307.878C92.8495 300.56 96.9165 279.837 96.9165 279.837C96.9165 279.837 114.452 291.291 124.697 282.265C125.545 281.506 126.292 280.642 126.92 279.693C132.754 271.521 133.587 250.776 133.754 246.33C133.92 241.884 133.72 227.359 133.72 227.359Z" fill="#CEA999"/>
<path d="M60.3847 309.941C60.3847 309.941 55.073 314.376 50.2836 327.682C45.4942 340.987 57.9511 320.02 57.9511 320.02L59.4179 312.602L60.3847 309.941Z" fill="#292289"/>
<path d="M115.184 199.273C116.373 206.536 118.273 218.2 120.029 229.698C118.917 218.865 116.862 206.868 115.439 199.362L115.184 199.273Z" fill="#CEA999"/>
<path d="M149.435 412.461C149.435 412.461 137.412 410.842 127.789 398.867C127.789 398.867 130.189 408.935 117.354 420.466C108.464 428.427 115.398 470.837 119.143 478.321C119.143 478.321 83.6729 513.292 25.9336 485.284C25.9336 485.284 40.4351 432.474 41.4908 402.615C42.7909 368.709 46.7135 346.911 58.5814 314.901C70.4493 282.891 73.2607 265.228 71.6494 248.375C70.0381 231.522 70.8493 205.133 100.541 198.758C130.233 192.382 133.745 227.32 133.745 227.32C133.745 227.32 136.367 271.992 124.688 282.226C114.454 291.251 96.9076 279.797 96.9076 279.797C96.9076 279.797 92.8405 300.52 97.5521 307.838C97.5521 307.838 104.053 315.278 120.11 321.675C136.878 328.328 139.568 377.113 148.457 386.05" fill="#E2BBA6"/>
<path d="M121.494 244.736C124.619 243.844 130.981 241.393 133.771 240.279V235.266L118.145 215.211L64.5689 298.215L59.5461 312.699L61.7785 317.712C68.9219 321.723 79.6372 319.384 84.1019 317.712C83.5438 313.998 82.7625 304.9 84.1019 298.215C85.4413 291.53 92.1011 287.63 95.2636 286.516H112.564L118.145 285.402C116.359 258.217 119.633 246.964 121.494 244.736Z" fill="#D2AB96"/>
<path d="M117.698 474.348C117.698 474.348 126.097 502.25 125.141 540.347H20.8077H4L15.1617 510.953L28.0336 477.286C28.0336 477.286 77.3165 502.555 117.698 474.348Z" fill="#F5F5F5"/>
<path d="M218.043 411.039C202.864 408.289 179.072 402.113 159.148 383.031C143.791 368.329 136.924 328.414 120.111 321.717C113.982 319.353 108.176 316.227 102.831 312.414C76.4951 321.096 65.5987 315.139 60.3648 309.684C57.5689 311.435 51.1703 322.182 46.5365 334.279C34.313 366.156 38.7579 381.435 37.5355 415.329C36.4243 445.188 28.0234 477.287 28.0234 477.287C36.1465 514.331 119.144 478.318 119.144 478.318C115.877 469.626 108.498 428.424 117.355 420.463C130.19 408.932 127.789 398.864 127.789 398.864C137.412 410.861 152.414 417.713 152.414 417.713C175.161 430.763 205.564 431.373 218.043 430.309V411.039Z" fill="#FF8139"/>
<path d="M218.042 430.308V422.946C218.042 422.946 199.318 425.585 183.594 418.211C167.87 410.838 153.857 409.729 143.512 406.658C133.166 403.587 123.032 383.973 123.032 383.973C122.143 404.318 108.775 407.523 100.641 424.11C94.6067 436.417 98.9516 468.926 101.596 484.892C111.942 481.433 119.143 478.317 119.143 478.317C115.876 469.625 108.497 428.423 117.354 420.462C130.188 408.931 127.788 398.863 127.788 398.863C137.411 410.86 152.413 417.712 152.413 417.712C175.159 430.796 205.563 431.372 218.042 430.308Z" fill="#D3662F"/>
<path d="M233.372 411.042C228.015 412.828 220.537 411.786 217.746 411.042V429.459C227.234 428.715 248.887 426.222 257.37 422.204C265.853 418.185 269.834 413.088 270.764 411.042L246.767 407.135C247.325 404.903 252.905 400.996 256.254 400.438C259.603 399.88 259.044 397.09 256.254 397.09C253.464 397.09 246.208 398.206 242.86 402.671C239.511 407.135 240.07 408.81 233.372 411.042Z" fill="#E2BBA6"/>
<path d="M118.371 241.515C123.213 240.548 132.089 237.085 135.922 235.474C136.527 225.405 134.107 204.784 117.16 198.018C100.214 191.252 83.2678 195.803 77.2156 200.435C45.1389 196.81 44.7354 264.069 48.7702 294.074C71.7687 315.218 108.485 300.316 117.766 295.886C112.44 261.572 114.538 236.279 118.371 225.808C121.276 233.057 119.581 239.3 118.371 241.515Z" fill="#E9D694"/>
<path fill-rule="evenodd" clip-rule="evenodd" d="M124.598 202.087C115.041 197.915 99.3583 194.723 84.6596 202.954C71.8141 210.147 76.2054 220.324 80.9489 231.318C84.655 239.907 88.5761 248.995 84.6596 257.547C75.7302 277.044 76.2883 283.172 82.4272 304.898C82.4463 304.965 82.4649 305.032 82.483 305.099C71.0429 305.483 58.9778 302.957 49.3278 294.085C45.293 264.081 45.6965 196.822 77.7732 200.446C83.8255 195.815 100.772 191.264 117.718 198.03C120.347 199.079 122.626 200.462 124.598 202.087Z" fill="#D6C589"/>
<path d="M25.6759 523.357C27.7828 526.868 32.9914 535.647 35.3323 539.597H37.0881C34.6008 535.208 29.2752 525.815 27.8706 523.357C26.1149 520.284 37.0881 513.7 31.382 504.483C25.676 495.265 12.9471 451.812 10.3135 432.499C7.67999 413.186 3.29065 402.652 1.53495 426.354C-0.220763 450.056 1.97387 516.773 12.9471 518.529C21.7256 519.933 25.0907 522.333 25.6759 523.357Z" fill="#00B67A"/>
<path d="M25.5735 519.808C20.7453 507.957 9.94766 472.667 5.38281 426.316" stroke="white"/>
<path d="M76.9288 514.541C77.2799 530.694 73.2711 537.658 71.2227 539.121H45.326C39.7077 539.121 37.718 531.22 37.4254 527.27C39.62 452.213 15.479 384.584 26.4522 381.985C43.1314 378.035 76.4899 494.35 76.9288 514.541Z" fill="#00B67A" stroke="#00B67A"/>
<path d="M58.4572 539.999C61.5249 516.211 61.3496 455.343 36.1074 402.176" stroke="white"/>
<path d="M45.3265 522.879C48.5453 523.903 55.7729 527.531 58.9332 533.852C61.7131 532.681 68.2385 528.848 72.101 522.879M45.3265 504.883C48.8379 505.175 56.6508 506.902 59.8111 511.467C61.5668 510.443 65.7805 506.99 68.5896 501.371M45.3265 484.253C47.6674 484.253 53.5783 484.868 58.4943 487.326C60.25 486.009 63.937 482.234 64.6393 477.669M44.4486 461.429C46.3506 461.283 51.1203 461.605 54.9829 464.063C56.1533 463.185 58.4943 460.463 58.4943 456.601M41.3761 440.799C43.5708 440.214 48.6623 440.185 51.4715 444.75C52.0567 443.14 53.2272 439.044 53.2272 435.532M37.4258 422.364C39.3278 422.364 43.5708 422.891 45.3265 424.998C45.7654 423.681 46.6433 420.521 46.6433 418.414" stroke="white"/>
<path d="M11.0898 503.569C12.6992 505.471 17.147 509.45 22.063 510.152C23.2335 508.982 25.3989 505.412 24.6966 500.496" stroke="white"/>
<path d="M8.89513 489.96C10.3582 491.277 14.1623 493.998 17.6737 494.35C18.5515 493.472 20.3072 490.838 20.3072 487.327M7.57835 477.231C8.60251 478.548 11.3531 481.182 14.1623 481.182C15.0401 480.45 16.7958 478.285 16.7958 475.476M5.82264 463.186C6.55419 464.356 8.63178 466.697 11.0898 466.697C12.1139 466.112 14.1623 464.239 14.1623 461.43M4.50586 449.579C5.2374 450.603 7.13942 452.652 8.89513 452.652C9.62668 452.213 11.0898 450.808 11.0898 448.701M4.50586 437.289C4.94479 438.313 5.99821 440.362 6.7005 440.362C7.57835 440.362 8.89513 438.606 8.89513 437.289" stroke="white"/>
<path d="M78.3438 528.148C78.3438 534.468 81.8552 538.097 83.6109 539.121H89.7559C95.7253 539.121 98.3881 531.806 98.9733 528.148C105.118 511.908 95.023 469.331 89.7559 457.042C84.4887 444.752 80.092 436.209 83.6109 463.187C87.5612 493.473 78.3438 520.247 78.3438 528.148Z" fill="#00B67A" stroke="#00B67A"/>
<path d="M86.6828 539.562C86.9869 537.934 87.3111 536.015 87.6377 533.856M88.4385 468.895C89.4428 474.302 90.0405 480.106 90.3356 486.013M82.7324 526.833C84.1006 528.15 86.9971 531.398 87.6377 533.856M87.6377 533.856C89.2214 533.271 93.0033 531.222 95.4613 527.711M87.6377 533.856C88.1713 530.327 88.7111 526.157 89.1793 521.566M84.0492 515.421C85.2747 516.445 88.0163 519.108 89.1793 521.566M89.1793 521.566C90.8344 520.981 94.5835 519.02 96.3392 515.86M89.1793 521.566C89.5581 517.852 89.89 513.863 90.1339 509.715M85.8049 505.325C86.7889 506.203 89.0323 508.31 90.1339 509.715M90.1339 509.715C91.3245 509.276 94.2323 507.783 96.3392 505.325M90.1339 509.715C90.3601 505.87 90.5107 501.889 90.553 497.864M86.6828 495.23C87.6535 495.669 89.7866 496.81 90.553 497.864M90.553 497.864C91.6039 497.278 93.969 495.669 95.0224 493.913M90.553 497.864C90.5944 493.926 90.5322 489.947 90.3356 486.013M87.1217 483.818C87.8012 484.111 89.3954 484.959 90.3356 486.013M90.3356 486.013C91.02 485.866 92.6522 484.959 93.7056 482.501" stroke="white"/>
<path d="M103.362 522.879C100.904 529.551 99.9966 536.486 99.8503 539.119H102.484C102.923 536.047 103.362 527.707 107.312 522.879C111.262 518.051 124.43 523.757 127.064 516.295C129.697 508.834 158.228 445.628 163.056 437.727C167.884 429.827 194.659 396.468 154.277 429.827C113.896 463.185 97.6557 495.666 98.0946 504.883C98.5335 514.101 106.434 514.54 103.362 522.879Z" fill="#00B67A" stroke="#00B67A"/>
<path d="M106.873 518.052C108.921 505.323 120.655 471.789 151.205 439.484" stroke="white"/>
<path d="M104.68 496.545C105.119 499.325 106.611 505.5 109.069 507.958C112.288 507.811 120.744 506.114 128.821 500.496M111.264 484.694C111.264 487.182 111.966 492.595 114.775 494.351C117.262 493.912 123.554 491.805 128.821 486.889M119.164 472.404C118.725 474.16 118.462 478.374 120.92 481.183C123.407 480.744 129.435 478.901 133.649 475.038M127.504 462.309C127.358 463.919 127.241 467.488 127.943 468.893C130.137 468.747 135.229 468.015 138.038 466.259M136.721 451.336C136.282 452.214 135.668 454.408 136.721 456.164C138.038 458.359 145.5 454.408 147.695 453.531" stroke="white"/>
<path d="M259 419.5L222.5 413.5L260 398.5L292 401L259 419.5Z" fill="#CCD2DD"/>
<path d="M274.497 406.733C274.112 406.941 273.413 407.119 273.696 406.171C274.05 404.986 274.611 404.185 275.027 404.954C275.36 405.57 275.325 406.119 275.266 406.317C275.304 405.468 275.464 403.923 275.797 404.539C276.13 405.154 276.351 405.565 276.421 405.693C276.459 404.844 276.619 403.299 276.951 403.915C277.367 404.684 277.752 404.476 278.522 404.061C279.137 403.728 279.527 402.854 279.645 402.459C279.971 402.449 280.854 402.303 281.777 401.804" stroke="black" stroke-width="0.3"/>
<path d="M243 414.5L259.5 407M250 415L265 407.5M256.5 416L271.5 408" stroke="black" stroke-width="0.3"/>
<path d="M270.5 400.5L263 404L268.5 404.5L275.5 401L270.5 400.5Z" fill="#152D5D"/>
<path d="M266.5 403L265.5 403.5H266.5C266.833 403.333 267.7 403 268.5 403C269.5 403 269.5 403.5 268.5 404" stroke="white" stroke-width="0.3"/>
<path d="M271.147 402.543C271.145 402.551 271.133 402.579 271.068 402.61C271.003 402.641 270.906 402.666 270.777 402.678C270.52 402.701 270.172 402.671 269.795 402.575C269.418 402.479 269.096 402.34 268.882 402.197C268.774 402.125 268.7 402.057 268.658 401.999C268.616 401.94 268.618 401.911 268.621 401.902C268.623 401.893 268.635 401.866 268.7 401.835C268.764 401.804 268.862 401.779 268.991 401.767C269.248 401.743 269.596 401.774 269.973 401.87C270.35 401.965 270.672 402.105 270.886 402.248C270.994 402.32 271.068 402.388 271.11 402.446C271.152 402.504 271.149 402.534 271.147 402.543Z" stroke="white" stroke-width="0.3"/>
<path d="M272.762 401.695C272.76 401.704 272.748 401.731 272.683 401.762C272.619 401.793 272.521 401.818 272.392 401.83C272.136 401.854 271.787 401.823 271.41 401.727C271.033 401.632 270.712 401.492 270.497 401.349C270.389 401.277 270.315 401.209 270.274 401.151C270.231 401.093 270.234 401.063 270.236 401.054C270.238 401.046 270.25 401.018 270.315 400.987C270.38 400.956 270.477 400.931 270.606 400.919C270.863 400.896 271.212 400.927 271.589 401.022C271.966 401.118 272.287 401.257 272.501 401.4C272.609 401.472 272.683 401.54 272.725 401.598C272.767 401.657 272.765 401.686 272.762 401.695Z" stroke="white" stroke-width="0.3"/>
<ellipse cx="241.211" cy="410.819" rx="4.90471" ry="1.30536" transform="rotate(-26.2377 241.211 410.819)" fill="white"/>
</svg>
