<svg xmlns="http://www.w3.org/2000/svg" fill="none" viewBox="0 0 470 540"><path fill="#E1E1E1" d="M68.862 392.586L51.64 92.439c-1.976-34.432 25.413-63.437 59.901-63.437H366c33.137 0 60 26.863 60 60v360.146H128.764c-31.802 0-58.08-24.813-59.902-56.562z"/><path fill="#fff" d="M88.266 449.007l-3.267-75.605 341.313 75.605-55.64 39.269a100.002 100.002 0 01-83.941 14.785L88.266 449.007z"/><ellipse fill="#152D5D" rx="13.5" ry="7" transform="matrix(-1 0 0 1 260.812 428.008)"/><ellipse fill="#152D5D" rx="13.5" ry="6" transform="matrix(-1 0 0 1 260.812 405.008)"/><path fill="#152D5D" d="M274.312 428.008v-23h-27v23h27z"/><ellipse fill="#000" rx="11.5" ry="5" transform="matrix(-1 0 0 1 260.812 405.008)"/><path fill="#FF8139" d="M274.312 387.008l-4.5 21c-.8.8-2 1-2.5 1l5-22.5 2 .5z"/><path fill="#FFD300" d="M252.312 388.508l7.5 21.5c-1.6 0-3-.334-3.5-.5l-7-20 3-1z"/><rect width="401.325" height="286.051" fill="#152D5D" rx="50" transform="matrix(-1 0 0 1 406.334 46.934)"/><path stroke="#24AD79" stroke-width="2" d="M368.062 248.655l-10.051-37.113-6.186 15.464-7.732-44.846-5.412 14.691-7.732-26.289-15.464 56.444-10.052-30.155-6.959 14.691-21.649-80.413-12.372 51.031-6.185-11.598-6.186 11.598-6.185-18.557-11.598 44.073-24.743-102.836-10.825 40.206-5.412-13.917-13.144 51.031-8.506-43.299-10.051 43.299-21.65-62.629-26.54 81.975-9.8-30.944-16.237 37.114"/><path fill="#24AD79" d="M358.011 211.542l10.051 37.113v25.848H87.391v-66.827l16.237-37.114 9.8 30.944 26.54-81.975 21.65 62.629 10.051-43.299 8.506 43.299 13.144-51.031 5.412 13.917 10.825-40.206 24.743 102.836 11.598-44.073 6.185 18.557 6.186-11.598 6.185 11.598 12.372-51.031 21.649 80.413 6.959-14.691 10.052 30.155 15.464-56.444 7.732 26.289 5.412-14.691 7.732 44.846 6.186-15.464z" opacity=".2"/><path stroke="#E1E1E1" stroke-dasharray="10 10" d="M370 158.008H48.998"/><path stroke="#fff" stroke-width="4" d="M368 76v197H62"/><path fill="#E2BBA6" d="M133.368 395.001s-4.689-1.718-13.385-12.532c0 0 2.169 9.092-9.429 19.505-8.033 7.189-1.767 45.488 1.617 52.246 0 0-32.052 31.58-84.226 6.288 0 0 13.104-47.69 14.058-74.654 1.175-30.619 4.72-50.304 15.443-79.211 10.724-28.906 13.265-44.856 11.809-60.076-1.456-15.219-.723-39.049 26.107-44.806 26.83-5.758 30.003 25.792 30.003 25.792s2.37 40.341-8.183 49.583c-9.248 8.15-25.103-2.193-25.103-2.193s-3.675 18.714.582 25.322c0 0 5.874 6.719 20.384 12.496 15.152 6.008 17.582 50.064 25.615 58.134"/><path fill="#CEA999" d="M108.596 202.23c1.074 6.559 2.791 17.092 4.378 27.475-1.004-9.782-2.862-20.616-4.147-27.394l-.231-.081zM125.344 227.594l-12.37 2.112.622 9.412c.121 5.167 4.87 3.645 3.595 5.607-5.342 8.241-12.632-5.346-17.05-4.926-4.418.421-6.477 5.447-3.304 14.018 3.173 8.571-8.234 10.954-9.218 15.76-.984 4.806-8.645 31.87 0 41.132l13.245-4.005a40.017 40.017 0 01-8.194-6.398c-4.257-6.609-.582-25.322-.582-25.322s15.845 10.343 25.103 2.193a12.057 12.057 0 002.008-2.323c5.272-7.38 6.025-26.113 6.175-30.129.151-4.015-.03-17.131-.03-17.131z"/><path fill="#F4EFEF" d="M110.865 450.633s15.366 54.961 14.502 89.365l-102.054-.305H8.367s1-27.194 5.5-45.194c4.5-18 15.975-41.213 15.975-41.213s44.533 22.819 81.023-2.653z"/><path fill="#000" d="M62.045 464.07c.18 1.212.351 2.393.522 3.565-.17-1.172-.341-2.353-.522-3.565zM61.904 463.15c0-.321-.09-.641-.14-1.002.04.361.1.681.14 1.002z" opacity=".3"/><path fill="#fff" d="M62.504 521l-4.137 19h10c-2-9-5.227-16.833-5.863-19z"/><path fill="#C4C4C4" d="M62.367 521l-4 19h-8l4-14.5-10.5-6c4.8.8 14.334 1.333 18.5 1.5z"/><path fill="#00181B" d="M201.685 356.539l-17.293-6.104a2 2 0 01-1.016-2.969l20.785-32.285a2.003 2.003 0 012.208-.847l18.445 5.023a2 2 0 011.145 3.028l-21.937 33.367a2 2 0 01-2.337.787z"/><path fill="#00181B" d="M225.942 323.33c.493-.991.435-1.899.344-2.228l-.782 1.92-16.461 24.998-2.157 4.298c6.146-9.249 18.563-27.996 19.056-28.988z"/><path fill="#fff" d="M224.563 321.007l-18.912-5.315-20.288 32.607 17.246 6.015 21.954-33.307z"/><path fill="#FFD300" d="M208.328 328.869c-.857-.285-1.645-.262-2.362.067-.711.331-1.329.983-1.855 1.956l4.16 1.382-.467 1.405-4.296-1.427-.155.404-.166.502-.1.362 3.722 1.236-.464 1.395-3.567-1.184c-.241 2.027.551 3.343 2.376 3.949.869.289 1.823.396 2.86.322l-.615 1.852c-.92.106-1.909-.016-2.967-.368-1.465-.486-2.524-1.284-3.176-2.391-.645-1.106-.856-2.466-.631-4.079l-1.386-.46.463-1.396 1.241.412.094-.344.112-.337.215-.587-1.241-.412.467-1.405 1.368.454c.738-1.449 1.717-2.455 2.936-3.015 1.22-.561 2.565-.597 4.037-.108 1.216.404 2.216 1.033 2.999 1.887l-1.333 1.452c-.783-.774-1.539-1.281-2.269-1.524z"/><path fill="#E2BBA6" d="M152.436 388.406c-.727-.363-1.506-1.527-1.506-1.527l-19.846 11.487c1.315 2.192 2.138 3.252 4.136 5.892 6.947 9.181 12.667 8.567 15.71 7.252 20.968-11.048 42.792-31.566 48.479-38.845 5.686-7.278 11.574-8.768 18.676-17.185 5.682-6.735 4.297-19.116 2.894-24.464-3.244 5.348-10.68 16.677-14.468 19.203-4.735 3.156-5.524 1.315-7.102-3.157-1.579-4.472 2.893-11.574 1.578-13.679-1.315-2.104-3.284.471-7.265 10.422-3.184 7.962-1.327 14.596 0 16.918-13.269 9.952-38.898 28.877-41.286 27.683z"/><path fill="#00181B" d="M40.711 340.935c2.169-12.52 9.455-33.617 21.698-47.31 7.55 5.358 21.723 6.389 28.747 2 3.248 2.232 12.665 8.524 24.355 15.83 14.612 9.133 16.743 36.532 25.268 56.928 8.524 20.397 15.83 14.613 19.179 12.482 2.679-1.705 18.773-12.279 26.485-17.352l10.96 14.612c-3.552 3.045-13.882 11.569-26.79 21.31-16.135 12.178-21.919 15.222-29.834 10.655-6.203-3.578-12.789-10.01-16.966-17.33.025.774-.589 2.85-4.056 8.426-5.538 8.904-4.246 43.154-4.246 43.154l9.742 61.037c-23.624 6.819-54.493 4.262-66.975 2.131l-4.567-21.006-6.393 18.875c-13.395-1.948-28.718-6.494-34.705-8.524 4.63-24.111 18.651-50.69 24.937-83.141 0-48.049 1.301-62.04 3.161-72.777z"/><path fill="#E9D694" d="M112.158 253.316c10-9.6 14.5-20.666 15.5-25 6.8-18.8-7.5-24.5-15.5-25-4.8-2.8-10-4.5-12-5-29-5.5-43 8.644-49.5 19.644-3.815 6.457-7 18-6 23s0 11-4 19.5 2.5 10.5 2.5 17c0 5.2-4.166 8.833-5.5 10.5 2.667 1.667 20.9 7.056 24.5 5.856 4.5-1.5 3-2.5 12 0s16.5.5 21-2.5c3.6-2.4 11.334-.666 13.5 0-1-2.833-4.9-11.4-2.5-19 2.4-7.6-2-12.833-4.5-14.5-2.666-3-6.7-9.9-1.5-13.5 5.2-3.6 10.167 4.5 12 9z"/><path fill="#C9B058" d="M112.158 253.461c17.6-18.4 18-34.333 16-40-2 26.5-24 22-30.5 29.5s-5 18.5 0 27.5c4 7.2 2.334 12.333 1 14-5.5-.5-7.5 3.5-16 5s-7.5-1.5-18 1c-8.4 2-21.166-.833-26.5-2.5 2 2 16 6 21 6s4-1 10-1 7 2.5 13.5 2 6.5-1 13.5-4.5c5.6-2.8 11-.167 13 1.5-1.5-3.5-4.1-12.7-2.5-21.5 2-11-3.5-11.5-6-14-1.768-1.768-5.5-9 1-12.5 4-2.154 9.167 5.167 10.5 9.5z"/><path fill="#FAE7A4" d="M44.659 261.461c-3.6 2.4-4.5 6-4.5 7.5-3-5.5 0-7.5 3-15s1.5-6.5 1.5-14 1-12.5 5-20.5 12.5-19 32-22c15.6-2.4 26.833 3 30.5 6 3.2-.4 6.333.834 7.5 1.5-1.667.833-6.3 2-11.5 0s-8.167-.833-9 0c-18 10-25 7-35.5 11s-16.5 14.5-14 26-.5 16.5-5 19.5z"/><ellipse fill="#152D5D" rx="24.5" ry="9" transform="matrix(-1 0 0 1 331.812 452.008)"/><ellipse fill="#152D5D" rx="24.5" ry="9" transform="matrix(-1 0 0 1 331.812 437.008)"/><path fill="#152D5D" d="M356.312 452.008v-15h-49v15h49z"/><ellipse fill="#152D5D" rx="4.5" ry="13" transform="scale(-1 1) rotate(-15.345 1112.886 1296.94)"/><path stroke="#fff" stroke-width="5" d="M331.812 434.508v-63c-.166-6.834-5.7-22.3-26.5-29.5"/><path fill="#152D5D" d="M297.312 324.008l9.5 4-7 25-12-4c0-13 5-22 9.5-25z"/><path fill="#fff" d="M260.71 295l35.882 28.846c-7.849 8.376-9.08 20.239-8.715 25.124l-36.314-3.313c-7.317-28.143 3.049-45.497 9.147-50.657z"/></svg>