<svg xmlns="http://www.w3.org/2000/svg" fill="none" viewBox="0 0 470 540"><path fill="#E1E1E1" d="M69.06 392.362L51.393 63.216C49.55 28.865 76.906 0 111.307 0H366c33.137 0 60 26.863 60 60v389.146H128.974c-31.888 0-58.205-24.942-59.914-56.784z"/><path fill="#fff" d="M88.266 449.007L85 373.403l341.313 75.604-55.641 39.27a100.001 100.001 0 01-83.941 14.784L88.266 449.007z"/><ellipse fill="#152D5D" rx="13.5" ry="7" transform="matrix(-1 0 0 1 260.813 428.007)"/><ellipse fill="#152D5D" rx="13.5" ry="6" transform="matrix(-1 0 0 1 260.813 405.007)"/><path fill="#152D5D" d="M274.313 428.007v-23h-27v23h27z"/><ellipse fill="#000" rx="11.5" ry="5" transform="matrix(-1 0 0 1 260.813 405.007)"/><path fill="#FF8139" d="M274.313 387.007l-4.5 21c-.8.8-2 1-2.5 1l5-22.5 2 .5z"/><path fill="#FFD300" d="M252.313 388.507l7.5 21.5c-1.6 0-3-.333-3.5-.5l-7-20 3-1z"/><rect width="401.325" height="286.051" x="5.59" y="46.931" fill="#F5F5F5" rx="50"/><path stroke="#24AD79" stroke-width="2" d="M43.862 248.652l10.96-37.113 6.746 15.464 8.431-44.846 5.902 14.691 8.432-26.289 16.863 56.444 10.961-30.155 7.588 14.691 23.608-80.413 13.491 51.031 6.745-11.598 6.745 11.598 6.745-18.557 12.648 44.073 26.98-102.836 11.805 40.206 5.902-13.917 14.333 51.031 9.275-43.299 10.961 43.299 23.608-62.629 28.942 81.975 10.686-30.944 17.706 37.114"/><path fill="#24AD79" d="M54.822 211.539l-10.96 37.113V274.5h306.063v-66.827l-17.706-37.114-10.686 30.944-28.942-81.975-23.608 62.629-10.961-43.299-9.275 43.299-14.333-51.031-5.902 13.917-11.805-40.206-26.98 102.836-12.648-44.073-6.745 18.557-6.745-11.598-6.745 11.598-13.491-51.031-23.608 80.413-7.588-14.691-10.961 30.155-16.863-56.444-8.432 26.289L70 182.157l-8.431 44.846-6.746-15.464z" opacity=".2"/><path stroke="#E1E1E1" stroke-dasharray="10 10" d="M41.924 157.005h308.001"/><path stroke="#E1E1E1" stroke-width="4" d="M43.925 273h306"/><path fill="#E2BBA6" d="M133.369 395s-4.689-1.718-13.385-12.532c0 0 2.169 9.091-9.429 19.505-8.033 7.189-1.767 45.487 1.617 52.246 0 0-32.051 31.58-84.226 6.288 0 0 13.104-47.691 14.058-74.655 1.175-30.619 4.72-50.303 15.443-79.21 10.724-28.907 13.265-44.857 11.809-60.076-1.456-15.219-.723-39.05 26.107-44.807 26.83-5.757 30.003 25.793 30.003 25.793s2.37 40.341-8.183 49.583c-9.248 8.15-25.103-2.193-25.103-2.193s-3.675 18.713.582 25.322c0 0 5.874 6.718 20.384 12.496 15.152 6.007 17.582 50.063 25.615 58.133"/><path fill="#CEA999" d="M108.597 202.23c1.075 6.558 2.792 17.092 4.378 27.475-1.004-9.783-2.862-20.616-4.147-27.395l-.231-.08z"/><path fill="#CEA999" d="M125.346 227.592l-12.371 2.112.623 9.412c.12 5.167 4.87 3.645 3.594 5.607-5.342 8.241-12.632-5.346-17.05-4.926-4.418.421-6.476 5.447-3.303 14.018 3.173 8.571-8.234 10.954-9.218 15.76-.984 4.806-8.646 31.87 0 41.132l13.244-4.005a40.028 40.028 0 01-8.193-6.398c-4.258-6.608-.583-25.322-.583-25.322s15.845 10.343 25.103 2.193a12.097 12.097 0 002.009-2.323c5.271-7.38 6.024-26.113 6.175-30.129.151-4.015-.03-17.131-.03-17.131z"/><path fill="#F4EFEF" d="M110.866 450.635s15.366 54.961 14.503 89.365l-102.055-.305H8.37s1-27.195 5.5-45.195 15.975-41.212 15.975-41.212 44.533 22.819 81.022-2.653z"/><path fill="#000" d="M62.046 464.071c.18 1.212.351 2.393.522 3.565-.17-1.172-.341-2.353-.522-3.565zM61.905 463.15c0-.321-.09-.641-.14-1.002.04.361.1.681.14 1.002z" opacity=".3"/><path fill="#fff" d="M62.505 521l-4.136 19h10c-2-9-5.228-16.833-5.864-19z"/><path fill="#C4C4C4" d="M62.369 521l-4 19h-8l4-14.5-10.5-6c4.8.8 14.333 1.333 18.5 1.5z"/><path fill="#00181B" d="M201.686 356.541l-17.293-6.104a2 2 0 01-1.016-2.969l20.786-32.285a2 2 0 012.207-.847l18.445 5.023a2 2 0 011.146 3.028l-21.938 33.367a2 2 0 01-2.337.787z"/><path fill="#00181B" d="M225.943 323.331c.493-.991.435-1.898.344-2.228l-.782 1.92-16.461 24.998-2.157 4.298c6.146-9.249 18.563-27.996 19.056-28.988z"/><path fill="#fff" d="M224.565 321.01l-18.912-5.315-20.288 32.608 17.246 6.014 21.954-33.307z"/><path fill="#FFD300" d="M208.33 328.87c-.858-.284-1.645-.262-2.362.067-.711.331-1.329.983-1.855 1.957l4.16 1.381-.467 1.405-4.296-1.427-.155.404-.166.502-.1.362 3.722 1.236-.464 1.396-3.567-1.185c-.241 2.027.551 3.343 2.376 3.949.869.289 1.823.396 2.86.322l-.615 1.852c-.92.106-1.909-.016-2.967-.368-1.465-.486-2.524-1.284-3.176-2.391-.646-1.106-.856-2.465-.631-4.079l-1.386-.46.463-1.396 1.241.412.094-.344.112-.337.215-.587-1.241-.412.467-1.405 1.368.455c.738-1.45 1.717-2.455 2.936-3.016 1.22-.561 2.565-.597 4.037-.108 1.216.404 2.216 1.033 2.999 1.887l-1.333 1.452c-.783-.773-1.539-1.281-2.269-1.524z"/><path fill="#E2BBA6" d="M152.437 388.405c-.727-.363-1.506-1.527-1.506-1.527l-19.846 11.487c1.315 2.192 2.137 3.251 4.136 5.892 6.947 9.181 12.667 8.567 15.71 7.252 20.968-11.048 42.792-31.567 48.479-38.845 5.686-7.278 11.574-8.768 18.676-17.186 5.682-6.734 4.297-19.115 2.894-24.464-3.244 5.349-10.68 16.678-14.468 19.203-4.735 3.157-5.524 1.316-7.102-3.156-1.579-4.472 2.893-11.575 1.578-13.679-1.315-2.104-3.284.47-7.265 10.422-3.184 7.961-1.327 14.596 0 16.918-13.269 9.952-38.898 28.877-41.286 27.683z"/><path fill="#00181B" d="M40.714 340.935c2.168-12.52 9.455-33.617 21.697-47.31 7.55 5.358 21.723 6.389 28.748 2 3.247 2.232 12.664 8.524 24.354 15.83 14.613 9.133 16.744 36.532 25.268 56.929 8.524 20.397 15.83 14.612 19.179 12.481 2.679-1.704 18.773-12.278 26.486-17.352l10.959 14.612c-3.552 3.045-13.882 11.569-26.79 21.311-16.135 12.177-21.919 15.221-29.834 10.655-6.203-3.579-12.789-10.011-16.966-17.331.026.774-.588 2.851-4.056 8.427-5.537 8.904-4.246 43.153-4.246 43.153l9.742 61.037c-23.624 6.82-54.493 4.262-66.975 2.131l-4.566-21.005-6.393 18.874c-13.395-1.948-28.718-6.494-34.705-8.524 4.629-24.111 18.65-50.69 24.936-83.14 0-48.049 1.302-62.04 3.162-72.778z"/><path fill="#E9D694" d="M112.16 253.317c10-9.6 14.5-20.666 15.5-25 6.8-18.8-7.5-24.5-15.5-25-4.8-2.8-10-4.5-12-5-29-5.5-43 8.644-49.5 19.644-3.816 6.457-7 18-6 23s0 11-4 19.5 2.5 10.5 2.5 17c0 5.2-4.167 8.833-5.5 10.5 2.666 1.667 20.9 7.056 24.5 5.856 4.5-1.5 3-2.5 12 0s16.5.5 21-2.5c3.6-2.4 11.333-.666 13.5 0-1-2.833-4.9-11.4-2.5-19 2.4-7.6-2-12.833-4.5-14.5-2.667-3-6.7-9.9-1.5-13.5 5.2-3.6 10.166 4.5 12 9z"/><path fill="#C9B058" d="M112.16 253.461c17.6-18.4 18-34.333 16-40-2 26.5-24 22-30.5 29.5s-5 18.5 0 27.5c4 7.2 2.333 12.333 1 14-5.5-.5-7.5 3.5-16 5s-7.5-1.5-18 1c-8.4 2-21.167-.833-26.5-2.5 2 2 16 6 21 6s4-1 10-1 7 2.5 13.5 2 6.5-1 13.5-4.5c5.6-2.8 11-.167 13 1.5-1.5-3.5-4.1-12.7-2.5-21.5 2-11-3.5-11.5-6-14-1.768-1.768-5.5-9 1-12.5 4-2.154 9.166 5.167 10.5 9.5z"/><path fill="#FAE7A4" d="M44.66 261.461c-3.6 2.4-4.5 6-4.5 7.5-3-5.5 0-7.5 3-15s1.5-6.5 1.5-14 1-12.5 5-20.5 12.5-19 32-22c15.6-2.4 26.833 3 30.5 6 3.2-.4 6.333.834 7.5 1.5-1.667.833-6.3 2-11.5 0s-8.167-.833-9 0c-18 10-25 7-35.5 11s-16.5 14.5-14 26-.5 16.5-5 19.5z"/><ellipse fill="#152D5D" rx="24.5" ry="9" transform="matrix(-1 0 0 1 331.812 452.007)"/><ellipse fill="#152D5D" rx="24.5" ry="9" transform="matrix(-1 0 0 1 331.812 437.007)"/><path fill="#152D5D" d="M356.312 452.007v-15h-49v15h49z"/><ellipse fill="#152D5D" rx="4.5" ry="13" transform="scale(-1 1) rotate(-15.345 1112.879 1296.94)"/><path stroke="#fff" stroke-width="5" d="M331.812 434.507v-63c-.166-6.833-5.7-22.3-26.5-29.5"/><path fill="#152D5D" d="M297.312 324.007l9.5 4-7 25-12-4c0-13 5-22 9.5-25z"/><path fill="#fff" d="M260.71 295l35.882 28.846c-7.848 8.376-9.08 20.239-8.714 25.124l-36.314-3.313c-7.317-28.143 3.049-45.497 9.146-50.657z"/></svg>