<svg width="471" height="540" viewBox="0 0 471 540" fill="none" xmlns="http://www.w3.org/2000/svg">
<path d="M456 264.75C456 209.521 411.228 164.75 356 164.75H100C44.7715 164.75 5.72205e-06 209.522 5.72205e-06 264.75V539.002H456V264.75Z" fill="#E1E1E1"/>
<path fill-rule="evenodd" clip-rule="evenodd" d="M433.836 397.224L338.647 464.483L365.638 351.003C356.53 348.768 347.01 347.582 337.213 347.582C300.069 347.582 266.904 364.624 245.113 391.316V538.575H431.637C446.949 518.569 456.046 493.555 456.046 466.415C456.046 440.602 447.816 416.711 433.836 397.224Z" fill="#081B42"/>
<rect x="316.242" y="164.867" width="153.937" height="9.12217" fill="#666A6A"/>
<path opacity="0.4" d="M469.998 193.943L329.926 173.988H469.998V193.943Z" fill="#666A6A"/>
<path d="M336.77 127.238L347.602 164.867H369.267L378.96 127.238H336.77Z" fill="#FF8139"/>
<path d="M378.96 127.238H336.77L376.679 135.79L378.96 127.238Z" fill="#D3662F"/>
<rect x="334.488" y="118.117" width="46.7511" height="9.12217" rx="2" fill="#FF8139"/>
<path d="M335.625 103.226C338.818 104.138 343.417 113.869 345.317 118.62H347.028C344.557 113.869 339.502 103.91 339.046 102.086C338.476 99.8054 343.607 95.2443 345.317 86.692C346.686 79.8502 342.087 75.2894 339.046 73.5792C336.385 76.4297 331.862 85.3239 330.494 84.4117C329.126 83.4995 333.915 76.4298 336.765 71.8687C331.748 67.7638 323.652 66.1676 320.802 66.1677C319.661 69.5884 317.039 76.2018 315.67 75.2896C314.302 74.3773 316.24 68.8283 317.381 66.1677C309.627 65.2555 301.227 65.7877 297.996 66.1677L301.987 83.2718C303.697 82.7015 307.802 81.3328 310.539 80.4205C313.96 79.2803 315.67 80.9907 314.53 81.5608C313.618 82.0169 306.928 85.1717 303.697 86.692C305.066 91.7092 308.829 96.3843 310.539 98.0947C313.96 96.1943 321.144 92.1655 322.512 91.2533C324.222 90.113 327.073 91.2533 325.363 92.3936C323.994 93.3058 317.571 98.475 314.53 100.946C325.363 106.647 331.634 102.086 335.625 103.226Z" fill="#00B67A"/>
<path d="M374.608 96.5724C370.078 97.8492 363.554 111.468 360.858 118.118H358.432C361.937 111.468 369.108 97.5301 369.755 94.9766C370.564 91.7847 363.285 85.401 360.858 73.4311C358.917 63.8551 365.441 57.4718 369.755 55.0781C373.529 59.0678 379.946 71.5163 381.887 70.2395C383.828 68.9628 377.034 59.0679 372.99 52.6842C380.107 46.9388 391.592 44.7048 395.636 44.705C397.254 49.4926 400.974 58.7487 402.916 57.472C404.857 56.1952 402.107 48.4287 400.489 44.705C411.489 43.4282 423.405 44.173 427.988 44.705L422.327 68.6441C419.9 67.8458 414.077 65.9301 410.195 64.6534C405.342 63.0574 402.916 65.4513 404.533 66.2493C405.827 66.8877 415.317 71.3031 419.9 73.4311C417.959 80.4532 412.621 86.9965 410.195 89.3905C405.342 86.7306 395.151 81.0918 393.21 79.8151C390.784 78.2191 386.74 79.8151 389.166 81.411C391.107 82.6878 400.22 89.9227 404.533 93.3806C389.166 101.36 380.269 94.9765 374.608 96.5724Z" fill="#00B67A"/>
<path d="M84.6135 85.5934C84.5238 38.9731 122.292 1.05078 168.912 1.05078C215.469 1.05078 253.211 38.874 253.211 85.431C253.211 131.988 215.469 169.811 168.912 169.811C122.419 169.811 84.703 132.087 84.6135 85.5934Z" fill="#F5F5F5"/>
<path d="M247.922 81.6743C246.161 39.4434 211.412 6.11328 169.145 6.11328C127.306 6.11328 92.7519 38.7933 90.4218 80.5675L90.1505 85.4306L90.4218 90.2937C92.7519 132.068 127.306 164.748 169.145 164.748C211.412 164.748 246.161 131.418 247.922 89.1869L248.078 85.4306L247.922 81.6743Z" fill="white"/>
<rect width="157.357" height="6.84163" transform="matrix(-1 0 0 1 247.508 85.4297)" fill="#E5E5E5"/>
<rect width="159.638" height="6.84162" transform="matrix(4.3791e-08 1 1 -4.36319e-08 165.41 5.61328)" fill="#E5E5E5"/>
<path d="M152.191 366.544C153.314 365.426 154.648 364.543 156.117 363.947C160.256 363.253 164.432 362.797 168.623 362.582C170.854 362.582 179.702 366.44 180.356 366.87C181.011 367.301 181.397 369.467 177.992 369.363C174.587 369.259 152.191 366.544 152.191 366.544Z" fill="#E5B9B7"/>
<path d="M219.73 257.361C219.73 257.361 221.009 256.634 222.704 255.744C225.134 254.397 227.728 253.369 230.422 252.687C234.006 252.123 242.779 254.393 245.664 254.987C248.549 255.58 253.813 256.886 253.813 256.886C253.501 258.815 255.851 258.934 255.851 258.934C255.657 260.314 253.798 260.299 252.282 260.418C251.066 260.428 249.854 260.298 248.668 260.032C248.694 260.825 248.993 261.585 249.516 262.183C249.028 262.461 248.471 262.595 247.91 262.569C244.294 262.564 240.728 263.408 237.5 265.032C233.188 267.57 228.92 271.606 222.868 277.156C220.706 279.121 218.272 280.766 215.64 282.037H215.521L214.629 282.453C213.391 283.035 212.114 283.53 210.807 283.937C210.436 284.055 210.064 284.144 209.707 284.234L219.73 257.361Z" fill="#E5B9B7"/>
<path d="M161.08 517.17C160.623 489.811 150.608 425.975 145.658 397.477H37.7008C30.2752 414.576 28.5616 435.664 28.5616 454.473C28.5616 469.52 29.6958 513.161 32.171 538.999H88.8936L99.3841 493.231C101.669 501.895 103.525 523.42 104.857 538.999H161.079C161.128 530.215 161.182 526.336 161.228 524.944C161.335 521.673 161.395 532.124 161.228 524.944C161.191 523.344 161.142 520.868 161.08 517.17Z" fill="#F4EFEF"/>
<path d="M154.773 451.197L152.493 437.514V435.803H131.968L130.258 418.699H93.7689V437.514L28.2033 438.654V451.197C59.2187 442.987 88.2576 442.835 98.9001 443.785L97.7599 426.681C99.1282 427.593 101.751 428.201 102.891 428.392H118.855C123.872 428.392 126.647 426.491 127.407 425.541L128.547 443.215C138.125 445.039 150.022 449.297 154.773 451.197Z" fill="#CFCDCD"/>
<path d="M105.743 484.268C110.304 519.388 111.7 523.798 112.84 539.001H103.718C100.981 502.056 100.422 507.074 99.4714 496.811C101.296 480.391 104.413 481.607 105.743 484.268Z" fill="#CFCDCD"/>
<path d="M32.1937 538.999C29.9132 461.461 36.1847 457.28 39.6055 447.777L28.2028 450.058C26.8344 482.898 30.2933 511.633 32.1937 538.999Z" fill="#CFCDCD"/>
<path d="M228.651 341.131C228.651 341.131 214.842 323.163 186.379 327.397C157.915 331.631 151.402 352.559 151.402 352.559L196.854 398.897L228.651 341.131Z" fill="#FF8139"/>
<path d="M233.62 251.749C239.568 251.645 232.847 247.669 229.293 246.912C225.739 246.155 217.813 245.042 215.314 248.396C212.816 251.749 193.945 278.488 191.001 279.72C188.056 280.951 172.463 298.403 172.463 298.403C139.212 302.201 162.074 293.789 154.461 290.421C146.847 287.052 145.354 263.208 133.726 250.996C122.097 238.784 122.87 226.097 113.041 228.886C101.709 232.092 101.873 228.352 101.873 228.352L100.921 226.646C98.5073 220.575 96.9266 214.206 96.2219 207.712C101.159 208.765 100.772 209.107 105.323 207.875C132.09 200.56 107.301 128.964 107.301 128.964C99.9396 109.437 50.8814 125.017 44.7101 135.938C38.7619 146.444 47.3869 162.455 47.3869 162.455C41.2602 162.232 40.5612 167.173 40.5612 167.173C39.3121 177.798 54.614 184.683 54.614 184.683L56.101 186.552C69.6928 205.649 66.2874 219.197 63.7594 224.969C63.1943 226.171 58.406 228.976 53.4987 228.886C47.253 228.797 29.9882 229.228 21.2889 250.684C4.7677 291.386 20.0101 351.794 28.7986 357.699C37.5871 363.605 121.68 375.506 121.68 375.506L130.246 381.218L140.417 384.186C143.674 385.269 150.113 388.163 158.262 390.329C168.478 393 169.965 393.609 172.731 393.95C175.839 394.321 175.334 394.618 179.245 394.974C182.219 395.241 182.219 392.852 182.219 392.852L187.364 394.172C191.557 393.89 189.832 389.113 189.832 389.113C190.331 388.931 190.775 388.627 191.126 388.23C191.477 387.833 191.722 387.354 191.841 386.838C191.959 386.322 191.946 385.785 191.803 385.275C191.66 384.765 191.392 384.299 191.022 383.919C190.13 383.192 182.1 378.592 180.404 377.509C178.709 376.426 172.003 372.686 172.003 372.686C172.003 372.686 181.743 375.313 182.293 376.055C185.103 378.398 188.042 380.583 191.096 382.598C192.866 383.489 194.606 380.625 193.476 379.126C192.345 377.628 185.802 371.291 182.813 369.986C179.824 368.68 174.649 364.777 172.226 363.664C169.802 362.552 169.251 364.733 162.277 364.54C155.303 364.347 157.816 364.451 156.73 364.228C155.645 364.006 154.069 363.65 152.195 363.279C150.079 362.86 148.579 363.008 146.856 363.679L129.785 359.732H151.883C149.994 315.247 146.44 291.935 146.44 291.935C146.44 291.935 139.257 329.655 164.731 326.064C190.204 322.473 195.67 292.496 197.767 291.205C198.704 290.626 201.217 289.142 204.117 286.976C217.917 285.151 213.976 273.042 222.452 273.042C232.252 273.042 234.2 272.479 234.2 270.668C234.2 268.858 224.415 267.923 218.036 267.701C219.091 263.13 219.24 258.798 220.861 254.776C222.735 250.072 229.203 251.823 233.62 251.749Z" fill="#F4C7C3"/>
<path opacity="0.1" d="M109.22 206.153C115.332 200.099 111.748 183.064 112.923 176.936C114.098 170.808 103.911 165.318 104.149 149.693C104.328 138.03 96.9818 125.595 93.2344 120.016C99.941 120.861 105.25 123.577 107.302 129.023C107.302 129.023 129.489 193.006 109.22 206.153Z" fill="black"/>
<path opacity="0.1" d="M96.1767 230.175C94.0204 228.187 90.4961 206.434 90.4961 206.434L96.1767 207.917C96.8797 214.411 98.4604 220.781 100.876 226.851L101.827 228.558C101.827 228.558 105.56 231.051 113.07 229.923L111.404 230.487C106.289 231.6 98.3329 232.164 96.1767 230.175Z" fill="black"/>
<path d="M190.134 277.877C185.003 281.298 179.871 284.719 179.871 284.719C159.347 296.122 164.168 294.249 156.168 291.934C143.736 288.269 148.519 254.556 136.89 242.315C125.261 230.073 122.867 226.141 113.097 228.96C103.327 231.779 101.201 224.79 100.011 224.123C100.279 225.992 96.6205 232.595 93.6761 233.53L91.505 241.484L84.0697 233.545C74.5971 231.69 64.3513 223.781 64.3513 223.781C63.7713 224.983 65.8383 231.601 55.0571 228.901C49.0048 227.417 30.0002 229.227 21.3009 250.683C3.14385 295.422 14.7727 346.184 28.8105 357.699C36.9893 364.406 121.692 375.505 121.692 375.505L121.811 379.274L130.258 381.218C129.767 369.703 137.827 361.646 137.827 361.646L129.782 359.732H151.88C149.991 315.246 146.437 291.934 146.437 291.934C146.437 291.934 139.254 329.654 164.728 326.063C182.052 323.615 187.853 310.945 196.405 299.542C189.089 292.732 190.134 277.877 190.134 277.877Z" fill="#F4EBEA"/>
<path opacity="0.1" d="M121.854 355.058L117.081 323.096L112.619 293.3L110.939 282.038C112.015 275.839 112.215 269.521 111.534 263.267C110.627 254.216 111.028 242.835 106.448 232.344C106.448 232.344 108.456 241.603 107.787 248.236C107.37 252.405 104.262 264.959 106.299 274.648C108.337 284.338 111.727 286.757 111.073 300.067C110.419 313.377 109.764 335.13 121.854 355.058Z" fill="black"/>
<path d="M127.057 380.378L92.7851 372.398L93.9275 407.736H130.484L127.057 380.378Z" fill="#F4EBEA"/>
<path d="M126.746 380.501L130.734 408.438H124.468C122.189 405.017 121.619 397.606 122.189 393.044C122.758 388.483 123.898 383.352 113.643 382.212C105.439 381.3 96.5516 379.931 93.1333 379.361L91.4241 372.52L93.1333 373.09L126.746 380.501Z" fill="#DCD4D3"/>
<path d="M129.344 420.278L128.412 407.738H93.9293L94.4195 420.278H129.344Z" fill="black"/>
<path d="M120.777 420.278V407.738H105.355V420.278H120.777Z" stroke="#FFD300" stroke-width="3"/>
<path d="M9.39275 250.513C15.1031 233.805 32.4719 228.003 40.8292 227.246L64.3969 223.754C64.3969 223.754 73.3193 259.099 90.5841 282.633L93.231 340.429L131.032 359.719L130.794 359.956C128.776 362.12 127.244 364.689 126.3 367.491C125.357 370.293 125.023 373.264 125.322 376.205L125.441 379.974L121.916 379.202C121.916 379.202 70.3369 373.486 43.8524 367.491C41.6515 366.987 34.7302 365.11 34.7302 365.11L9.3927 354.161C9.3927 354.161 -6.80134 297.907 9.39275 250.513Z" fill="#152D5D"/>
<path d="M186.715 277.309L184.93 279.048C177.593 284.721 167.204 292.679 159.59 289.31C151.977 285.942 150.394 262.601 144.416 246.813C140.416 236.263 136.193 225.356 120.103 223.754L99.9531 224.095C100.411 225.66 101.076 227.157 101.931 228.547L102.228 228.725C103.357 229.206 104.526 229.583 105.723 229.853C105.723 229.853 114.274 256.354 110.957 282.054L122.021 356.113L131.033 359.719H151.852C149.963 315.204 149.324 319.536 149.324 319.536C149.324 319.536 134.117 340.194 159.59 336.603C174.089 334.556 184.93 322.92 193.674 303.235C191.384 299.481 185.317 286.064 186.715 277.309Z" fill="#152D5D"/>
<path d="M130.487 437.376L126.489 380.379C128.202 380.759 132.429 381.747 135.628 382.659L135.628 382.659C139.626 383.799 143.625 384.939 146.481 386.079C148.766 386.991 153.526 388.738 155.62 389.498L161.332 437.376H130.487Z" fill="#152D5D"/>
<path d="M95.0742 439.086L92.7894 372.97L23.6741 355.871L25.9589 380.95L17.9621 439.086H95.0742Z" fill="#152D5D"/>
<path d="M152.191 363.28L151.62 354.16L128.772 359.29L146.479 363.85C148.193 362.71 151.62 363.28 152.191 363.28Z" fill="#152D5D"/>
<path d="M23.6317 357.129L92.567 373.093L93.1367 379.364L24.2014 363.4L23.6317 357.129Z" fill="#0C2048"/>
<path d="M87.5539 291.266L86.394 283.595L82.0964 290.109C76.7102 284.453 72.1406 278.075 68.5195 271.16C71.8302 278.79 76.3993 285.812 82.0369 291.934L86.275 285.494L87.5539 291.266Z" fill="#0C2048"/>
<path d="M112.641 288.966L114.633 281.547L119.243 285.999C119.243 285.999 122.619 272.807 121.935 262.168C122.843 270.948 122.019 279.82 119.511 288.284L115.05 283.713L112.641 288.966Z" fill="#0C2048"/>
<path d="M80.2806 335.143C80.2806 335.143 71.7895 330.232 68.518 330.513C65.2464 330.795 48.2363 327.939 48.2363 327.939C48.2363 327.939 47.4095 308.518 50.521 297.73C50.521 297.73 54.5247 313.33 57.6922 318.168C60.8596 323.005 64.3393 320.987 69.8563 325.335C75.3733 329.682 74.7636 332.25 80.2806 335.143Z" fill="#0C2048"/>
<path d="M120.756 183.08C120.051 179.823 118.926 176.671 117.41 173.702C117.41 173.702 117.246 178.258 112.949 176.937C106.599 174.993 97.4982 174.637 87.6688 184C77.8393 193.363 63.8758 179.652 61.7493 172.441C59.6228 165.229 53.2582 148.314 57.9573 143.803C62.6564 139.292 74.7611 145.791 87.8175 141.28C100.874 136.769 106.376 126.16 107.833 131.383C108.604 134.23 109.528 137.033 110.599 139.781C110.599 139.781 113.796 120.937 108.963 113.547C104.131 106.157 95.0297 107.241 87.0888 110.134C79.1479 113.028 70.4783 111.618 66.27 111.618C62.516 111.802 58.8561 112.853 55.5787 114.689C52.3014 116.525 49.4962 119.095 47.3843 122.198C41.5996 130.656 34.9227 129.216 34.2089 137.036C33.4951 144.856 44.5143 159.843 47.3843 162.588C49.3175 164.413 54.3289 173.539 58.7306 183.095C58.3439 184.46 57.2435 185.306 54.6709 184.757C56.6564 189.729 59.2219 194.451 62.3144 198.824C66.2402 204.166 78.4341 212.178 96.1004 212.357C100.384 212.567 104.657 211.753 108.562 209.982C121.187 203.913 122.466 189.743 120.756 183.08Z" fill="#594423"/>
<path d="M76.8273 199.389C69.8679 198.127 63.875 194.937 61.4957 184.417C59.1164 173.896 44.915 151.475 41.4353 142.171C37.9556 132.868 48.707 133.031 49.4803 126.25C49.971 122.021 53.5548 117.347 56.1721 114.379C52.6338 116.238 49.6099 118.939 47.3687 122.243C41.584 130.701 34.9071 129.262 34.1933 137.082C33.4795 144.902 44.4986 159.889 47.3687 162.634C49.3018 164.459 54.3132 173.585 58.7149 183.141C58.3283 184.506 57.2279 185.351 54.6553 184.802C56.6408 189.775 59.2063 194.496 62.2987 198.869C66.2246 204.211 78.4185 212.224 96.0848 212.402C98.5815 212.494 101.08 212.27 103.52 211.734C91.7872 213.292 83.7719 200.65 76.8273 199.389Z" fill="#3E2F1C"/>
<path d="M60.9297 112.39C60.9297 112.39 67.7553 118.325 80.2615 117.271C84.6929 116.93 97.214 109.14 102.285 112.39C107.356 115.639 109.869 121.085 107.832 131.353C108.603 134.2 109.526 137.004 110.598 139.752C110.598 139.752 113.795 120.937 108.962 113.547C104.129 106.157 95.028 107.241 87.0871 110.134C79.1462 113.028 70.4766 111.618 66.2682 111.618C64.4624 111.639 62.6672 111.898 60.9297 112.39Z" fill="#674F2D"/>
<path d="M120.756 183.081C120.051 179.824 118.927 176.672 117.41 173.703C117.41 173.703 117.247 178.259 112.949 176.938C110.07 176.008 107.034 175.66 104.018 175.915C101.003 176.17 98.0683 177.022 95.3867 178.422C95.8477 178.318 111.358 174.668 115.581 181.627C119.804 188.586 119.12 198.899 113.782 206.481C121.485 199.567 122.198 188.675 120.756 183.081Z" fill="#674F2D"/>
<path d="M227.017 293.893C227.017 293.893 248.995 299.576 268.877 278.846C288.759 258.117 281.012 237.61 281.012 237.61L216.562 228.93L227.017 293.893Z" fill="#00181B"/>
<path d="M221.676 266.797C224.671 266.99 227.651 267.372 230.598 267.939C232.546 268.578 233.349 269.26 233.245 270.299C233.141 271.337 231.059 272.139 228.412 272.079L222.999 271.961L221.676 266.797Z" fill="#F4C7C3"/>
<path d="M242.254 153.852C241.029 161.33 239.071 173.341 237.262 185.18C238.407 174.026 240.525 161.672 241.991 153.943L242.254 153.852Z" fill="#CEA999"/>
<path d="M223.154 182.77L237.26 185.179L240.977 174.113C240.839 180.005 242.831 190.927 244.285 193.164C252.267 195.445 257.085 186.766 261.076 189.744C265.637 193.146 271.279 200.495 267.661 210.268C262.595 223.952 265.049 228.734 266.171 234.214C267.293 239.694 276.029 266.983 266.171 277.544L251.069 272.977C254.488 270.961 257.629 268.508 260.412 265.682C265.266 258.146 261.076 236.808 261.076 236.808C261.076 236.808 243.008 248.601 232.451 239.308C231.578 238.526 230.808 237.636 230.162 236.659C224.15 228.245 223.292 206.883 223.12 202.305C222.948 197.726 223.154 182.77 223.154 182.77Z" fill="#CEA999"/>
<path d="M298.725 267.805C298.725 267.805 304.197 272.372 309.132 286.072C314.067 299.773 301.232 278.183 301.232 278.183L299.721 270.545L298.725 267.805Z" fill="#292289"/>
<path d="M239.667 437.098C239.667 437.098 222.283 499.421 223.268 538.651H339.5H356L332.054 440.123C332.054 440.123 281.275 466.143 239.667 437.098Z" fill="#F4EFEF"/>
<path d="M185.944 395.132C188.481 395.279 198.103 389.502 201.265 387.364L205.322 404.882L194.327 407.742C192.901 410.096 189.322 415.173 186.415 416.656C182.782 418.508 174.751 416.151 172.483 416.707C170.215 417.263 166.86 420.25 164.592 420.807C162.778 421.252 161.953 419.851 161.768 419.095L158.135 420.948C155.506 421.208 154.817 419.838 154.802 419.121C154.763 419.29 154.256 419.639 152.534 419.677C150.812 419.715 150.35 418.289 150.334 417.572C149.2 417.85 148.066 418.128 147.163 417.388C146.261 416.648 149.568 411.508 153.317 409.146C156.315 407.257 163.235 403.187 166.321 401.388C158.845 401.298 154.241 405.073 151.186 404.379C148.13 403.686 151.716 399.681 155.743 398.453C159.769 397.225 166.688 395.047 168.841 394.999C170.993 394.952 182.773 394.948 185.944 395.132Z" fill="#CEA999"/>
<path d="M227.72 364.537C222.019 371.693 216.317 376.51 192.15 392.474L200.924 409.578C224.869 402.166 236.272 398.175 243.684 394.712C246.535 405.017 241.545 432.234 238.179 441.186C238.179 441.186 323.697 478.268 332.066 440.124C332.066 440.124 323.41 407.071 322.265 376.325C321.006 341.422 325.586 325.689 312.991 292.865C308.217 280.409 302.441 271.842 298.451 266.141C293.058 271.758 282.123 279.29 254.987 270.35C249.479 274.277 243.497 277.495 237.183 279.929C211.186 289.951 244.227 343.817 227.72 364.537Z" fill="#F4C7C3"/>
<path d="M237.808 196.784L221.274 191.082C220.133 189.372 222.903 169.987 229.826 160.295C235.527 152.313 244.079 147.182 249.78 149.462C266.885 147.182 296.532 137.49 309.645 176.829C313.945 189.731 322.758 229.851 322.758 280.024C322.758 318.865 314.776 330.766 296.532 330.766C268.595 330.766 249.21 290.666 246.93 276.033C244.649 277.857 239.898 279.453 237.808 280.024C241.913 271.814 241.418 209.707 240.658 179.68C239.518 187.662 237.808 195.454 237.808 196.784Z" fill="#4F3C27"/>
<g style="mix-blend-mode:multiply" opacity="0.3">
<path d="M295.336 452.422C295.13 453.803 294.935 455.151 294.741 456.486C294.935 455.151 295.13 453.803 295.336 452.422Z" fill="black"/>
</g>
<g style="mix-blend-mode:multiply" opacity="0.3">
<path d="M295.497 451.368C295.497 451.003 295.599 450.638 295.656 450.227C295.611 450.638 295.542 451.003 295.497 451.368Z" fill="black"/>
</g>
<path d="M239 440.62C244.208 419.276 244.425 400.407 243.882 393.64L252.562 389C255.166 403.848 253.647 433.853 252.562 447L239 440.62Z" fill="#D3A8A4"/>
</svg>
