<svg xmlns="http://www.w3.org/2000/svg" fill="none" viewBox="0 0 471 541"><path fill="#fff" d="M0 539.498c33.081-150.109 237.833-172.832 340.5-165.999v166L0 539.498z"/><path stroke="#C4C4C4" d="M194 97.262V538"/><circle r="22" fill="#E1E1E1" transform="matrix(-1 0 0 1 138.828 361)"/><path fill="#152D5D" d="M191.328 196.998c-48.5-13.535-102.5-12.499-129.5-12.499v123.5c57 0 194.6.499 205 .499 13 0 47.5-13 16.5-52.5s-70.5-52.999-92-59z"/><path fill="#E1E1E1" d="M110.328 249.998h-53.5v-3c14-.333 44.9-.7 56.5.5 11.6 1.2 19.167 5.5 21.5 7.5-4.5-1.667-15.7-5-24.5-5zM140.835 349.143L134.27 297l-8.799 4.752 8.202 61.487 7.162-14.096zM104.009 292.619c21.489-5.897 32.166-20.203 34.819-26.619-5.173 27.192-35.979 39.997-50.736 43H42.828v-4.914c11.44-1.365 39.693-5.57 61.181-11.467z"/><rect width="33" height="53" fill="#E1E1E1" rx="16.5" transform="matrix(-1 0 0 1 190.828 211)"/><circle r="9.5" fill="#E1E1E1" transform="matrix(-1 0 0 1 134.328 220.5)"/><circle r="9.5" fill="#E1E1E1" transform="matrix(-1 0 0 1 103.328 220.5)"/><circle r="9.5" fill="#E1E1E1" transform="matrix(-1 0 0 1 73.328 220.5)"/><path fill="#E1E1E1" d="M220.828 218.997h15c14.4 7.2 30 21.667 36 28h-58c-5.5 0-4.5-4.5-4-6s6.5-16.5 8-19.5c1.2-2.4 2.5-2.667 3-2.5z"/><path fill="#fff" d="M52 96h283v13H52z"/><path fill="#C4C4C4" fill-opacity=".3" d="M256 109.086h-62v183.911l62-183.911z"/><path fill="#E1E1E1" d="M341 539.999V54.569c34.866-1.35 65.747 2.702 95.134 27.47 27.395 23.087 33.87 54.486 33.87 70.247L471 539.999H341zM75.495-.857C36.675-3.534 9.323 25.245.5 39.97h207c-7.239-11.043-28.166-30.653-53.956-20.748C121.307 31.603 124.021 2.49 75.495-.857z"/><path fill="#fff" d="M329 96h12v444h-12zM49 96h12.828v443.178H49z"/><path fill="#DCDCDC" fill-opacity=".5" fill-rule="evenodd" d="M115.997 109.016L62 263.754v63.921l79.537-218.659h53.465L194 539.999H61l1.002-430.983h53.995z" clip-rule="evenodd"/><path fill="#D8D8D8" fill-opacity=".5" fill-rule="evenodd" d="M194 335.261l75-226.171h60v430.911H194v-42.452l129-388.003h-5.5L194 481.116V335.261z" clip-rule="evenodd"/><path fill="#E2BBA6" d="M125.001 395.001s-4.689-1.718-13.385-12.532c0 0 2.169 9.092-9.429 19.505-8.033 7.189-1.767 45.488 1.617 52.246 0 0-32.052 31.58-84.226 6.288 0 0 13.104-47.69 14.058-74.654 1.175-30.619 4.72-50.304 15.443-79.211 10.724-28.906 13.265-44.856 11.809-60.076-1.456-15.219-.723-39.049 26.107-44.806 26.83-5.758 30.003 25.792 30.003 25.792s2.37 40.341-8.184 49.583c-9.247 8.15-25.103-2.193-25.103-2.193s-3.675 18.714.583 25.322c0 0 5.874 6.719 20.383 12.496 15.153 6.008 17.583 50.064 25.616 58.134"/><path fill="#CEA999" d="M100.229 202.23c1.074 6.559 2.791 17.092 4.377 27.475-1.004-9.782-2.861-20.616-4.147-27.394l-.23-.081zM116.977 227.594l-12.371 2.112.623 9.412c.12 5.167 4.87 3.645 3.595 5.607-5.342 8.241-12.632-5.346-17.05-4.926-4.418.421-6.477 5.447-3.304 14.018 3.173 8.571-8.234 10.954-9.218 15.76-.984 4.806-8.645 31.87 0 41.132l13.245-4.005a40.02 40.02 0 01-8.194-6.398c-4.257-6.609-.582-25.322-.582-25.322s15.845 10.343 25.103 2.193a12.057 12.057 0 002.008-2.323c5.272-7.38 6.025-26.113 6.175-30.129.151-4.015-.03-17.131-.03-17.131z"/><path fill="#E9D694" d="M103.5 252.856c10-9.6 14.5-20.667 15.5-25 6.8-18.8-7.5-24.5-15.5-25-4.8-2.8-10-4.5-12-5-29-5.5-43 8.643-49.5 19.643-3.815 6.457-7 18-6 23s0 11-4 19.5 2.5 10.5 2.5 17c0 5.2-4.167 8.834-5.5 10.5 2.667 1.667 20.9 7.057 24.5 5.857 4.5-1.5 3-2.5 12 0s16.5.5 21-2.5c3.6-2.4 11.333-.667 13.5 0-1-2.834-4.9-11.4-2.5-19 2.4-7.6-2-12.834-4.5-14.5-2.667-3-6.7-9.9-1.5-13.5 5.2-3.6 10.167 4.5 12 9z"/><path fill="#C9B058" d="M103.5 253c17.6-18.4 18-34.333 16-40-2 26.5-24 22-30.5 29.5S84 261 89 270c4 7.2 2.333 12.333 1 14-5.5-.5-7.5 3.5-16 5s-7.5-1.5-18 1c-8.4 2-21.167-.833-26.5-2.5 2 2 16 6 21 6s4-1 10-1 7 2.5 13.5 2 6.5-1 13.5-4.5c5.6-2.8 11-.167 13 1.5C99 288 96.4 278.8 98 270c2-11-3.5-11.5-6-14-1.768-1.768-5.5-9 1-12.5 4-2.154 9.167 5.167 10.5 9.5z"/><path fill="#FAE7A4" d="M36 261c-3.6 2.4-4.5 6-4.5 7.5-3-5.5 0-7.5 3-15s1.5-6.5 1.5-14 1-12.5 5-20.5 12.5-19 32-22c15.6-2.4 26.834 3 30.5 6 3.2-.4 6.334.834 7.5 1.5-1.666.834-6.3 2-11.5 0s-8.166-.833-9 0c-18 10-25 7-35.5 11s-16.5 14.5-14 26-.5 16.5-5 19.5z"/><path fill="#292289" d="M50.706 302.164s-4.8 4.005-9.128 16.02c-4.327 12.016 6.929-6.918 6.929-6.918l1.325-6.699.874-2.403z"/><path fill="#F4EFEF" d="M102.498 450.633s15.366 54.961 14.502 89.365l-102.054-.305H0s1-27.194 5.5-45.194c4.5-18 15.975-41.213 15.975-41.213s44.533 22.819 81.023-2.653z"/><path fill="#F4C7C3" d="M102.186 311.5C117.379 317.548 128 348.033 146 385l-26 15s-3.5-6.5-8.385-17.533c0 0 2.169 9.092-9.429 19.505-8.003 7.189-1.335 44.396 1.617 52.246 0 0-74.998 32.521-82.338-.931 0 0 7.591-28.987 8.595-55.951C31.165 366.727 34.484 335.5 41 318.5c4.187-10.924 11-19 11-19 4.73 4.926 8.702 8.84 32.5 1 4.83 3.443 12.148 8.865 17.686 11z"/><path fill="#D3A8A4" d="M107.318 369.023s9.158 17.713 18.506 20.486c3.173 1.606 7.773 1.497 9.677 1.493l-16 9.5s-2.5-6.5-7.885-18.032c0 0 2.169 9.092-9.429 19.505-8.003 7.189-1.335 44.396 1.617 52.246 0 0-6.507 2.814-15.855 5.938-2.39-14.418-6.316-43.776-.864-54.89 7.35-14.979 19.43-17.872 20.233-36.246z"/><path fill="#000" d="M53.678 464.07c.18 1.212.351 2.393.522 3.565-.17-1.172-.342-2.353-.522-3.565zM53.536 463.15c0-.321-.09-.641-.14-1.002.04.361.1.681.14 1.002z" opacity=".3"/><path fill="#fff" d="M54.136 521L50 540h10c-2-9-5.227-16.833-5.864-19z"/><path fill="#C4C4C4" d="M54 521l-4 19h-8l4-14.5-10.5-6c4.8.8 14.333 1.333 18.5 1.5z"/><path fill="#D3A8A4" d="M142.5 356.5L126 343l10.5 22 6-8.5z"/><path fill="#E2BBA6" d="M154 369.5c-2.4-1.2-9.833-7.167-13.5-10l-4 5.5 9.5 20-3.5 2c6 5.2 10.167 5.167 11.5 4.5 14.4-5.6 36.333-20 45.5-26.5l-4.5-11c-12.667 5.667-38.6 16.7-41 15.5z"/><path fill="#8E5841" d="M231.534 313l-20.808 21.333L202 343l18.795 18L251 329l-19.466-16z"/><circle cx="226" cy="335.5" r="5.5" fill="#FFD300"/><path stroke="#FFD300" d="M233.5 320l9.5 8M232.5 324l6 5M211 346.5l6.5 6"/><path fill="#E2BBA6" d="M201 350.499c-2.4 1.6-4 2.5-6 3.5l3 12c1.333-1.167 6-3.7 10-4.5 4-.8 7.5-3.5 9-4.5-2.333-2-7-6.3-7-7.5 0-1.5 1.5-6 3-7.5s5-4 4-5.5-8 3.5-9.5 5.5-3.5 6.5-6.5 8.5z"/><path fill="#1C3B78" d="M153.215 526.712c1.607-9.644 9.951-16.712 19.728-16.712h37.448c12.359 0 21.759 11.097 19.728 23.288L229 540h-78l2.215-13.288z"/><path fill="#152D5D" d="M133.215 526.712c1.607-9.644 9.951-16.712 19.728-16.712h37.448c12.359 0 21.759 11.097 19.728 23.288L209 540h-78l2.215-13.288z"/><path stroke="#000" stroke-width="3" d="M170 510l12.5-68.5h25l-12 68.5"/><path fill="#666A6A" d="M179 437h39l-2 7h-39l2-7z"/><path fill="#C4C4C4" d="M175 437h39l-2 7h-39l2-7z"/><path fill="#fff" d="M154.5 520.5L149 540h4l5-19.5h-3.5zM170.5 521l-5.5 19.5h4l5-19.5h-3.5zM187.5 521l-5.5 19.5h4l5-19.5h-3.5z"/><path fill="#E2BBA6" d="M148 396.5c-5.5-4.5-5.167-5.833-6.5-9.5L122 398.5c3 6.5 4.722 9.725 8.5 13 7.5 6.5 33 23 47 31.5 4.941 3 11.118 6.127 17.5 4 9-3 12.833-8 16.5-11h6l-2 7H208l-1 6s.5.9 2.5.5c2.5-.5 8.5-7.419 8.5-9 0-1.5.5-11.5-2.5-12s-3-1.5-5-2.5-3 1-6 0-4.5 2.5-6.5 1c-1.6-1.2-3.667-.5-4.5 0-3.333 1.333-9.438 5.249-11 4-5-4-29-30-34.5-34.5z"/><path fill="#CEA999" d="M136.5 408c-4-3.6-8-9.833-9.5-12.5l-5 3c3 8 8.5 12.5 12 15.5s28.5 19.5 32.5 22 14 11.5 25.5 11.5c9.2 0 16.5-7.667 19-11.5h4.5c-.5-1.5-2.8-3.6-8 0-6.5 4.5-19 7-24 5s-42-28.5-47-33z"/><path fill="#E1E1E1" d="M292.34 75.582c18.613-16.84 40.993-21.05 49.857-21.05v41.39h-128.73c23.992-30.94 55.607.71 78.873-20.34z"/></svg>