<svg xmlns="http://www.w3.org/2000/svg" fill="none" viewBox="0 0 469 541"><path fill="#E1E1E1" d="M468.969 361.645c0-55.229-44.772-100-100-100H227.456c-60.751 0-110 49.248-110 110v168.293h351.513V361.645z"/><path fill="#C4C4C4" d="M413.91 261.645H185.818v11H413.91z"/><path fill="#FF8139" d="M296.357 195.219v64a2 2 0 01-2 2h-11.5a2 2 0 01-2-2v-64a2 2 0 012-2h11.5a2 2 0 012 2zm-49 0v64a2 2 0 01-2 2h-12a2 2 0 01-2-2v-64a2 2 0 012-2h12a2 2 0 012 2z"/><path fill="#152D5D" d="M231.357 215.219v44a2 2 0 01-2 2h-7a2 2 0 01-2-2v-44a2 2 0 012-2h7a2 2 0 012 2z"/><path fill="#666A6A" d="M268.809 205.312l-6.85 1.444 11.549 54.796 6.85-1.444z"/><path fill="#C4C4C4" d="M261.589 205.219l-6.927 1.008 8.066 55.416 6.927-1.008z"/><path fill="#666A6A" d="M253.963 205.219l-6.967.674 5.395 55.74 6.967-.675z"/><path fill="#152D5D" d="M384.205 539.948V424.316l-79.355 5.313H137.419v110.299l246.786.02z"/><path fill="#1C3B78" d="M384.217 424.32l-166.916.068-80 5.361h167.176l79.74-5.429z"/><path fill="#00181B" d="M304.963 539.937V429.715l79.232-5.395v115.617h-79.232z"/><ellipse fill="#fff" rx="8.952" ry="8.685" transform="matrix(-1 0 0 1 234.769 456.599)"/><path fill="#E1E1E1" d="M239.662 459.088l-7.888-7.889c2.12 1.216 2.35-.166 3.927.313.799.243 4.462 3.33 4.01 4.682-.213.637-.284.974-.349 1.446-.062.448.171 1.224.3 1.448zm-11.346-4.433l7.889 7.888c-2.12-1.216-2.35.167-3.927-.313-.799-.243-4.462-3.329-4.01-4.682.212-.637.283-.974.348-1.446.062-.447-.171-1.224-.3-1.447z"/><path fill="#000" d="M229.504 452.79a.15.15 0 010-.212.15.15 0 01.212 0l-.212.212zm2.129 1.704a.15.15 0 010 .212.15.15 0 01-.212 0l.212-.212zm-1.917-1.916l1.917 1.916-.212.212-1.917-1.916.212-.212z"/><path fill="#E1E1E1" fill-rule="evenodd" d="M227.063 452.177c1.641-1.989 4.164-3.263 6.994-3.263 4.944 0 8.952 3.888 8.952 8.685a8.459 8.459 0 01-1.246 4.423 8.49 8.49 0 001.959-5.423c0-4.797-4.008-8.685-8.953-8.685-3.279 0-6.147 1.711-7.706 4.263z" clip-rule="evenodd"/><ellipse fill="#fff" rx="8.952" ry="8.685" transform="matrix(-1 0 0 1 194.788 456.599)"/><path fill="#E1E1E1" d="M196.263 462.52v-11.157c.639 2.359 1.779 1.545 2.555 2.998.394.737.801 5.51-.475 6.147-.6.3-.889.488-1.269.776-.36.272-.744.986-.811 1.236zm-4.889-11.157v11.157c-.639-2.359-1.78-1.545-2.556-2.999-.393-.737-.801-5.509.476-6.146.6-.3.888-.488 1.269-.776.36-.272.744-.986.811-1.236z"/><path fill="#000" d="M193.536 450.883a.15.15 0 11.3 0h-.3zm.3 2.71a.15.15 0 11-.3 0h.3zm0-2.71v2.71h-.3v-2.71h.3z"/><path fill="#E1E1E1" fill-rule="evenodd" d="M186.303 459.43a8.444 8.444 0 01-.487-2.831c0-4.797 4.008-8.685 8.953-8.685 4.296 0 7.886 2.937 8.752 6.854-1.21-3.407-4.543-5.854-8.465-5.854-4.944 0-8.952 3.888-8.952 8.685 0 .628.068 1.241.199 1.831z" clip-rule="evenodd"/><ellipse fill="#fff" rx="8.952" ry="8.685" transform="matrix(-1 0 0 1 160.022 456.599)"/><path fill="#E1E1E1" d="M161.263 462.52v-11.157c.639 2.359 1.779 1.545 2.555 2.998.394.737.801 5.51-.475 6.147-.6.3-.889.488-1.269.776-.36.272-.744.986-.811 1.236zm-4.889-11.157v11.157c-.639-2.359-1.78-1.545-2.556-2.999-.393-.737-.801-5.509.476-6.146.6-.3.888-.488 1.269-.776.36-.272.744-.986.811-1.236z"/><path fill="#000" d="M158.536 450.883a.15.15 0 11.3 0h-.3zm.3 2.71a.15.15 0 11-.3 0h.3zm0-2.71v2.71h-.3v-2.71h.3z"/><path fill="#E1E1E1" fill-rule="evenodd" d="M152.316 452.177c1.641-1.989 4.164-3.263 6.993-3.263 4.945 0 8.953 3.888 8.953 8.685a8.459 8.459 0 01-1.246 4.423 8.49 8.49 0 001.959-5.423c0-4.797-4.008-8.685-8.953-8.685-3.279 0-6.147 1.711-7.706 4.263z" clip-rule="evenodd"/><ellipse fill="#fff" rx="25.957" ry=".966" transform="matrix(-1 0 0 1 313.004 424.341)"/><ellipse fill="#fff" rx="25.957" ry=".966" transform="matrix(-1 0 0 1 313.004 422.408)"/><path fill="#fff" d="M338.969 424.337v-1.931l-51.909.01v1.921h51.909z"/><ellipse fill="#fff" rx="25.957" ry=".966" transform="matrix(-1 0 0 1 239.008 424.24)"/><ellipse fill="#fff" rx="25.957" ry=".966" transform="matrix(-1 0 0 1 239.008 422.306)"/><path fill="#fff" d="M264.973 424.235v-1.93l-51.909.01v1.92h51.909z"/><ellipse fill="#fff" rx="25.957" ry=".966" transform="matrix(-1 0 0 1 277.144 428.001)"/><ellipse fill="#fff" rx="25.957" ry=".966" transform="matrix(-1 0 0 1 277.144 426.068)"/><path fill="#fff" d="M303.108 427.997v-1.931l-51.908.011v1.92h51.908z"/><ellipse fill="#fff" rx="25.957" ry=".966" transform="matrix(-1 0 0 1 203.147 427.9)"/><ellipse fill="#fff" rx="25.957" ry=".966" transform="matrix(-1 0 0 1 203.147 425.966)"/><path fill="#fff" d="M229.111 427.895v-1.93l-51.908.01v1.92h51.908z"/><ellipse fill="#fff" rx="8.952" ry="8.685" transform="matrix(-1 0 0 1 280.764 456.599)"/><path fill="#E1E1E1" fill-rule="evenodd" d="M273.057 452.177c1.641-1.989 4.164-3.263 6.994-3.263 4.944 0 8.952 3.888 8.952 8.685a8.45 8.45 0 01-1.246 4.423 8.49 8.49 0 001.959-5.423c0-4.797-4.008-8.685-8.952-8.685-3.28 0-6.147 1.711-7.707 4.263z" clip-rule="evenodd"/><path fill="#E1E1E1" d="M282.263 462.52v-11.157c.639 2.359 1.779 1.545 2.555 2.998.394.737.801 5.51-.475 6.147-.6.3-.889.488-1.269.776-.36.272-.744.986-.811 1.236zm-4.889-11.157v11.157c-.639-2.359-1.78-1.545-2.556-2.999-.393-.737-.801-5.509.476-6.146.6-.3.888-.488 1.269-.776.36-.272.744-.986.811-1.236z"/><path fill="#000" d="M279.536 450.883a.15.15 0 11.3 0h-.3zm.3 2.71a.15.15 0 11-.3 0h.3zm0-2.71v2.71h-.3v-2.71h.3z"/><path fill="#CCD2DD" d="M284.904 488.668v51.137H158.037v-51.137h126.867z"/><path fill="#B9C0CD" d="M191.375 488.668v51.137h-33.338v-51.137h33.338z"/><path stroke="#fff" stroke-width="7" d="M273.586 503.09H167.129"/><path fill="#E1E1E1" d="M276.628 505.32l-3.059 1.273v-6.863H167.162l3.066-1.984h106.4v7.574z"/><path fill="#F5F5F5" d="M336.087 422.315c1.353-3.157.564-6.718 0-8.104h-1.41c.733 3.439-.822 6.835-1.691 8.104 1.635.338 2.749.141 3.101 0zm-46.354 0c-1.353-3.157-.563-6.718 0-8.104h1.41c-.733 3.439.822 6.835 1.691 8.104-1.635.338-2.748.141-3.101 0zm13.712.456c-2.469-2.55-2.22-6.376-1.787-7.97h-1.733c-1.386 3.734-.938 6.869-.541 7.97h4.061zm19.582.02c2.47-2.551 2.221-6.377 1.788-7.971h1.732c1.386 3.735.939 6.87.542 7.971h-4.062z"/><path fill="#F5F5F5" d="M300.331 426.124c1.353-3.157.564-6.719 0-8.104h-1.409c.732 3.438-.823 6.835-1.692 8.104 1.635.338 2.749.14 3.101 0zm-46.353 0c-1.353-3.157-.564-6.719 0-8.104h1.409c-.733 3.438.822 6.835 1.691 8.104-1.635.338-2.748.14-3.1 0zm13.712.456c-2.469-2.551-2.22-6.377-1.787-7.971h-1.732c-1.387 3.735-.939 6.87-.542 7.971h4.061zm19.582.015c2.47-2.55 2.221-6.376 1.788-7.97h1.732c1.387 3.735.939 6.87.542 7.97h-4.062zm-24.789-4.171c1.353-3.157.564-6.718 0-8.104h-1.409c.733 3.439-.822 6.836-1.691 8.104 1.635.339 2.748.141 3.1 0zm-46.353 0c-1.353-3.157-.564-6.718 0-8.104h1.409c-.733 3.439.822 6.836 1.692 8.104-1.635.339-2.749.141-3.101 0zm13.712.452c-2.469-2.55-2.221-6.376-1.787-7.97h-1.733c-1.386 3.735-.939 6.87-.542 7.97h4.062z"/><path fill="#F5F5F5" d="M249.424 422.896c2.469-2.55 2.22-6.376 1.787-7.97h1.733c1.386 3.734.938 6.869.541 7.97h-4.061zm-25.132 3.228c1.353-3.157.564-6.719 0-8.104h-1.409c.732 3.438-.823 6.835-1.692 8.104 1.635.338 2.749.14 3.101 0zm-46.354 0c-1.353-3.157-.563-6.719 0-8.104h1.41c-.733 3.438.822 6.835 1.691 8.104-1.635.338-2.748.14-3.101 0zm13.712.456c-2.469-2.551-2.22-6.377-1.787-7.971h-1.733c-1.386 3.735-.938 6.87-.541 7.971h4.061zm19.582.019c2.47-2.55 2.221-6.376 1.788-7.97h1.732c1.387 3.735.939 6.869.542 7.97h-4.062z"/><path fill="#E2BBA6" d="M131.565 395.679s-10.865-1.462-19.56-12.276c0 0 2.169 9.092-9.429 19.505-8.033 7.189-1.767 45.487 1.617 52.246 0 0-32.052 31.58-84.226 6.288 0 0 13.104-47.691 14.058-74.655 1.174-30.618 4.719-50.303 15.443-79.21 10.724-28.907 13.264-44.857 11.808-60.076-1.456-15.219-.723-39.05 26.108-44.807 26.83-5.757 30.003 25.793 30.003 25.793s2.369 40.341-8.184 49.583c-9.248 8.15-25.103-2.193-25.103-2.193s-3.675 18.714.583 25.322c0 0 5.874 6.718 20.383 12.496 15.152 6.007 17.582 50.063 25.615 58.133"/><path fill="#CEA999" d="M100.618 203.168c1.075 6.558 2.792 17.092 4.378 27.475-1.004-9.783-2.862-20.616-4.147-27.395l-.231-.08z"/><path fill="#CEA999" d="M117.367 228.527l-12.371 2.113.623 9.412c.12 5.166-2.874 5.421-4.15 7.384-5.341 8.24-5.081-7.805-9.5-7.384-4.418.42-6.282 6.128-3.11 14.699 3.174 8.57-8.233 10.953-9.217 15.76-.984 4.806-8.646 31.87 0 41.132l13.244-4.005a40.06 40.06 0 01-8.193-6.399c-4.258-6.608-.583-25.322-.583-25.322s15.845 10.343 25.103 2.193a12.037 12.037 0 002.009-2.323c5.271-7.379 6.024-26.113 6.175-30.128.151-4.015-.03-17.132-.03-17.132z"/><path fill="#00181B" d="M93.835 241.124c3.01 2.58 5.553 13.258 6.448 18.275-1.075-12.363 7.413-16.876 16.658-21.5 6.448-3.225 13.097-10.75 10.746-18.275-2.686-8.599-5.91-5.374-13.97-15.587-8.061-10.212-19.119-9.165-24.718-6.987-9.672 3.762-10.21 4.837-16.12 8.062-5.274 2.878-5.983 1.596-15.046 5.913-11.284 5.374-12.896 20.962-9.135 30.099 3.762 9.137 6.449 8.6 3.762 16.125s0 10.75 3.761 14.512c3.01 3.01 4.12 7.704 4.299 9.675 1.612-3.225 8.06-6.987 14.508-5.912 6.448 1.075 5.91-6.45 10.21-9.138 4.298-2.687 5.91-5.375 3.224-12.9-2.687-7.524 1.612-15.587 5.373-12.362z"/><path fill="#2B2B2B" d="M127.149 227.687c1.075-2.15 2.365-7.632-1.074-12.362-4.299-5.912-5.911-2.15-11.284-9.675-5.374-7.525-11.285-11.825-23.106-9.675-11.822 2.15-14.508 8.6-25.792 11.825-10.993 3.142-17.906 6.793-19.25 21.887a8.87 8.87 0 00-.095 1.225c.028-.416.06-.825.096-1.225.468-3.279 2.791-8.979 9.577-12.749 9.672-5.375 15.582-5.375 26.867-11.288 11.284-5.912 19.344-8.6 26.329 0 6.986 8.6 13.434 8.063 15.583 12.363 2.149 4.299 2.149 5.374 2.149 9.674z"/><path fill="#F4EFEF" d="M102.887 451.57s15.246 54.657 14.382 89.061H.39s1-27.195 5.5-45.195 15.975-41.212 15.975-41.212 44.533 22.819 81.022-2.654z"/><path fill="#FF8139" d="M211.681 440.181c-12.747-10.986-46.41-35.161-70.291-79.243-10.192-18.814-11.5-31.177-32.5-46-8.5-6-17.583-6.595-22.5-13.5-4.963-6.969-3.5-17.5-3.5-17.5-10.5 2-20.27 2.426-25-2.5-9.5 27-10.795 22.28-20 29.5-25.5 20-14.896 64.391-16 95-4 35.01-9.5 66.999-9.5 66.999 39.5 40.001 99.615 13.5 99.615 13.5-3.115-18.5-3.115-42.499 0-72.499 2.169-20.888 4.385-26 4.385-26 7.828 11.771 15.705 22.093 15.705 22.093 15.483 26.348 52.719 34.579 68.992 43.731l10.594-13.581z"/><path fill="#D3662F" d="M158.083 427.671c4.539 3.513 32.024 16.835 45.199 23.057l-3.177 3.212-.828-.333c-36.239-13.288-57.104-28.075-63.327-35.762-4.978-6.15-15.496-21.353-20.132-28.186-5.824 37.128-5.824 57.278-5.824 63.838v.11c0 5.155 1.345 24.039 2.018 32.837l-.211.107c-2.89 1.355-7.706 2.754-9.753 3.284-2.39-36.646-.142-83.757 5.347-102.422 4.392-14.932 8.906-12.687 10.614-9.698 19.763 33.853 34.402 45.564 40.074 49.956z"/><path fill="#000" d="M54.067 465.008c.181 1.211.352 2.393.523 3.564-.171-1.171-.342-2.353-.523-3.564zm-.141-.921c0-.32-.09-.641-.14-1.001.04.36.1.681.14 1.001z" opacity=".3"/><path fill="#FAFAFC" d="M54.526 521.938l-4.136 19h10c-2-9-5.228-16.834-5.864-19z"/><path fill="#C4C4C4" d="M54.39 521.938l-4 19h-8l4-14.5-10.5-6c4.8.8 14.333 1.333 18.5 1.5z"/><path fill="#E2BBA6" d="M222.426 441.991c-.999-.022-7.265-.295-9.622-1.377l-1.222-.488-11.23 13.353c4.305 2.001 11.753 11.916 14.676 14.914 2.923 2.998 13.606 7.125 18.018 7.057 3.53-.054 4.838-1.869 5.051-2.769 2.127.06 3.97-2.779 4.626-4.207 2.552-.445 3.722-3.347 3.989-4.742 2.818-1.409-.581-6.426-2.017-6.014-1.435.412-8.079-1.397-10.471-1.789-1.914-.314-6.575-3.19-9.622-5.393 2.322-1.466 7.327-4.31 8.773-3.958 1.807.44 7.28 5.583 7.069 3.246-.212-2.337-6.643-8.285-9.566-8.045-2.924.24-6.74.249-8.452.212z"/><path fill="#F5F5F5" d="M310.062 74.142C310.141 33.258 277.019 0 236.134 0c-40.83 0-73.929 33.17-73.929 74s33.099 74 73.929 74c40.774 0 73.85-33.083 73.928-73.858z"/><path fill="#fff" d="M166.842 70.707c1.544-37.036 32.018-66.266 69.086-66.266 36.693 0 66.996 28.66 69.039 65.296l.238 4.264-.238 4.265c-2.043 36.636-32.346 65.295-69.039 65.295-37.068 0-67.542-29.23-69.086-66.265L166.705 74l.137-3.294z"/><path fill="#E5E5E5" d="M167.205 74h138v6h-138z"/><path fill="#E5E5E5" d="M239.205 4v140h-6V4z"/><path fill="#F5F5F5" d="M376.219 365.831c-2.132-24.056-10.785-60.012-14.844-74.983-6.091 33.19-18.271 67.878-23.599 81.073 5.176 9.439 13.068 13.829 16.367 14.844v10.658c9.744-6.395 11.672-19.666 11.418-25.502 5.177-1.523 9.262-4.694 10.658-6.09z"/><path fill="#CCD2DD" fill-rule="evenodd" d="M215.351 385.642c.655-.545 11.459-.978 24.692-.978 13.232 0 24.037.433 24.692.978h.04v28.209h-.056c-.792.539-11.537.966-24.676.966-13.139 0-23.885-.427-24.677-.966h-.111v-28.209h.096z" clip-rule="evenodd"/><path fill="#666A6A" d="M298.043 391.331v-1.847l-8.703 1.076-31.325-.061v2.046h31.3l8.728-1.214z"/><path fill="#CCD2DD" d="M298.102 389.492h-37.436l-10.069 1.066h38.727l8.778-1.066z"/><ellipse cx="240.16" cy="386.032" fill="#666A6A" rx="23.876" ry=".956" transform="rotate(180 240.16 386.032)"/><path fill="#152D5D" d="M245.953 419.623c-1.374 2.858-4.942 3.912-7.901 3.556-2.128-.256-5.29-2.133-5.29-5.76 0-3.299 2.164-5.298 3.488-7.371 1.802-2.82 1.756-5.061 1.802-6.298 3.627 3.628 4.993 8.84 5.222 10.993 1.209-.604 2.29-1.901 2.679-2.473.573 1.351 1.374 4.495 0 7.353z"/><path fill="#FAFAFC" d="M242.381 420.054c-.192 1.98-1.748 2.793-2.93 2.793-1.182 0-3.024-.376-3.058-2.925-.035-2.549 2.069-4.625 3.058-5.41 1.135.96 3.141 3.367 2.93 5.542z"/><path fill="#152D5D" d="M254.412 419.64c.957 1.99 3.442 2.724 5.503 2.476 1.481-.178 3.684-1.486 3.684-4.011 0-2.297-1.508-3.69-2.43-5.133-1.254-1.964-1.223-3.525-1.254-4.386-2.527 2.526-3.477 6.156-3.637 7.655-.842-.421-1.595-1.323-1.866-1.722-.399.941-.957 3.131 0 5.121z"/><path fill="#FAFAFC" d="M256.899 419.937c.134 1.379 1.218 1.945 2.041 1.945s2.105-.261 2.13-2.036c.024-1.775-1.441-3.221-2.13-3.768-.79.669-2.187 2.345-2.041 3.859z"/><path fill="#152D5D" d="M227.443 419.64c-.957 1.99-3.441 2.724-5.502 2.476-1.482-.178-3.684-1.486-3.684-4.011 0-2.297 1.507-3.69 2.429-5.133 1.255-1.964 1.223-3.525 1.255-4.386 2.526 2.526 3.477 6.156 3.636 7.655.842-.421 1.595-1.323 1.866-1.722.399.941.957 3.131 0 5.121z"/><path fill="#FAFAFC" d="M224.956 419.937c-.134 1.379-1.217 1.945-2.04 1.945s-2.106-.261-2.13-2.036c-.025-1.775 1.441-3.221 2.13-3.768.79.669 2.187 2.345 2.04 3.859z"/><path stroke="#FAFAFC" d="M389.245 272.637v13.138c-.059.936.377 2.806 2.596 2.806 2.218 0 2.653-1.87 2.593-2.806m-35.189-13.138v13.138c-.059.936.377 2.806 2.596 2.806 2.218 0 2.653-1.87 2.593-2.806m-35.189-13.138v13.138c-.059.936.377 2.806 2.596 2.806 2.218 0 2.653-1.87 2.593-2.806"/><path stroke="#000" stroke-width=".3" d="M392.409 292.27c.143-.442.384-1.798.206-3.694-.222-2.369-1.396.594-1.18 2.781"/><path fill="#FAFAFC" d="M392.26 288.051l.453-.11.239.973-.627.135-.065-.998z"/><ellipse fill="#FAFAFC" rx="12.636" ry="4.122" transform="scale(-1 1) rotate(-27.197 510.002 988.859)"/><path fill="#FAFAFC" d="M397.315 355.534c5.821-1.305 8.699-5.536 9.485-7.259l-22.445-11.779c-.72 1.876-1.734 6.904-1.084 10.619 1.084 6.202 6.899 10.021 14.044 8.419z"/><ellipse fill="#C4C4C4" rx="12.011" ry="3.49" transform="scale(-1 1) rotate(-27.197 509.977 988.767)"/><path fill="#FAFAFC" d="M390.251 292.478l-6.221 45.16c.341-1.84 2.244-2.073 3.153-1.959l6.561-43.201c-.028-.483-.375-1.483-1.534-1.619-1.159-.137-1.789 1.022-1.959 1.619z"/><ellipse fill="#C4C4C4" rx=".658" ry="1.16" transform="scale(-1 1) rotate(-5.887 2656.174 3959.225)"/><path fill="#fff" d="M246.025 364.946c-5.394 6.375-5.925 12.055-5.516 14.098-.92-1.839-2.698-6.681-2.452-11.34.306-5.823 4.153-8.798-1.262-19.424-5.004-9.819.444-16.231 3.714-18.581-2.758 4.598-1.533 11.953 2.758 15.631 4.291 3.678 9.501 11.647 2.758 19.616z"/></svg>