<svg xmlns="http://www.w3.org/2000/svg" fill="none" viewBox="0 0 471 540"><path fill="#E1E1E1" d="M456 264.75c0-55.229-44.772-100-100-100H100c-55.228 0-100 44.772-100 100v274.252h456V264.75z"/><path fill="#081B42" fill-rule="evenodd" d="M433.836 397.224l-95.189 67.259 26.991-113.48a119.144 119.144 0 00-28.425-3.421c-37.144 0-70.309 17.042-92.1 43.734v147.259h186.524c15.312-20.006 24.409-45.02 24.409-72.16 0-25.813-8.23-49.704-22.21-69.191z" clip-rule="evenodd"/><path fill="#666A6A" d="M316.242 164.867h153.937v9.122H316.242z"/><path fill="#666A6A" d="M469.998 193.943l-140.072-19.955h140.072v19.955z" opacity=".4"/><path fill="#FF8139" d="M336.77 127.238l10.832 37.629h21.665l9.693-37.629h-42.19z"/><path fill="#D3662F" d="M378.96 127.238h-42.19l39.909 8.552 2.281-8.552z"/><rect width="46.751" height="9.122" x="334.488" y="118.117" fill="#FF8139" rx="2"/><path fill="#00B67A" d="M335.625 103.226c3.193.912 7.792 10.643 9.692 15.394h1.711c-2.471-4.751-7.526-14.71-7.982-16.534-.57-2.28 4.561-6.842 6.271-15.394 1.369-6.842-3.23-11.403-6.271-13.113-2.661 2.85-7.184 11.745-8.552 10.833-1.368-.913 3.421-7.982 6.271-12.543-5.017-4.105-13.113-5.701-15.963-5.701-1.141 3.42-3.763 10.034-5.132 9.122-1.368-.913.57-6.462 1.711-9.122-7.754-.913-16.154-.38-19.385 0l3.991 17.104 8.552-2.852c3.421-1.14 5.131.57 3.991 1.14-.912.457-7.602 3.612-10.833 5.132 1.369 5.017 5.132 9.692 6.842 11.403 3.421-1.9 10.605-5.93 11.973-6.842 1.71-1.14 4.561 0 2.851 1.14-1.369.913-7.792 6.082-10.833 8.553 10.833 5.701 17.104 1.14 21.095 2.28zM374.608 96.572c-4.53 1.277-11.054 14.896-13.75 21.546h-2.426c3.505-6.65 10.676-20.588 11.323-23.141.809-3.192-6.47-9.576-8.897-21.546-1.941-9.576 4.583-15.96 8.897-18.353 3.774 3.99 10.191 16.438 12.132 15.162 1.941-1.277-4.853-11.172-8.897-17.556 7.117-5.745 18.602-7.98 22.646-7.979 1.618 4.788 5.338 14.044 7.28 12.767 1.941-1.277-.809-9.043-2.427-12.767 11-1.277 22.916-.532 27.499 0l-5.661 23.94c-2.427-.8-8.25-2.715-12.132-3.992-4.853-1.596-7.279.798-5.662 1.596 1.294.639 10.784 5.054 15.367 7.182-1.941 7.022-7.279 13.566-9.705 15.96-4.853-2.66-15.044-8.3-16.985-9.576-2.426-1.596-6.47 0-4.044 1.596 1.941 1.277 11.054 8.512 15.367 11.97-15.367 7.979-24.264 1.596-29.925 3.191z"/><path fill="#F5F5F5" d="M84.614 85.593c-.09-46.62 37.678-84.542 84.298-84.542 46.557 0 84.299 37.823 84.299 84.38 0 46.557-37.742 84.38-84.299 84.38-46.493 0-84.209-37.724-84.299-84.218z"/><path fill="#fff" d="M247.922 81.674c-1.761-42.23-36.51-75.56-78.777-75.56-41.839 0-76.393 32.68-78.723 74.453l-.272 4.864.272 4.863c2.33 41.774 36.884 74.454 78.723 74.454 42.267 0 77.016-33.33 78.777-75.561l.156-3.756-.156-3.757z"/><path fill="#E5E5E5" d="M247.508 85.43H90.151v6.842h157.357z"/><path fill="#E5E5E5" d="M165.41 5.613v159.638h6.842V5.613z"/><path fill="#E5B9B7" d="M152.191 366.544a11.911 11.911 0 013.926-2.597c4.139-.694 8.315-1.15 12.506-1.365 2.231 0 11.079 3.858 11.733 4.288.655.431 1.041 2.597-2.364 2.493-3.405-.104-25.801-2.819-25.801-2.819zM219.73 257.361s1.279-.727 2.974-1.617a32.24 32.24 0 017.718-3.057c3.584-.564 12.357 1.706 15.242 2.3 2.885.593 8.149 1.899 8.149 1.899-.312 1.929 2.038 2.048 2.038 2.048-.194 1.38-2.053 1.365-3.569 1.484-1.216.01-2.428-.12-3.614-.386.026.793.325 1.553.848 2.151a2.967 2.967 0 01-1.606.386 23.093 23.093 0 00-10.41 2.463c-4.312 2.538-8.58 6.574-14.632 12.124a30.409 30.409 0 01-7.228 4.881h-.119l-.892.416a29.823 29.823 0 01-3.822 1.484c-.371.118-.743.207-1.1.297l10.023-26.873z"/><path fill="#F4EFEF" d="M161.08 517.17c-.457-27.359-10.472-91.195-15.422-119.693H37.701c-7.426 17.099-9.14 38.187-9.14 56.996 0 15.047 1.135 58.688 3.61 84.526h56.723l10.49-45.768c2.285 8.664 4.141 30.189 5.473 45.768h56.222c.049-8.784.103-12.663.149-14.055.107-3.271.167 7.18 0 0-.037-1.6-.086-4.076-.148-7.774z"/><path fill="#CFCDCD" d="M154.773 451.197l-2.28-13.683v-1.711h-20.525l-1.71-17.104h-36.49v18.815l-65.565 1.14v12.543c31.016-8.21 60.055-8.362 70.697-7.412l-1.14-17.104c1.368.912 3.991 1.52 5.131 1.711h15.964c5.017 0 7.792-1.901 8.552-2.851l1.14 17.674c9.578 1.824 21.475 6.082 26.226 7.982zM105.743 484.268c4.561 35.12 5.957 39.53 7.097 54.733h-9.122c-2.737-36.945-3.296-31.927-4.247-42.19 1.825-16.42 4.942-15.204 6.272-12.543z"/><path fill="#CFCDCD" d="M32.194 538.999c-2.28-77.538 3.99-81.719 7.411-91.222l-11.402 2.281c-1.369 32.84 2.09 61.575 3.99 88.941z"/><path fill="#FF8139" d="M228.651 341.131s-13.809-17.968-42.272-13.734c-28.464 4.234-34.977 25.162-34.977 25.162l45.452 46.338 31.797-57.766z"/><path fill="#F4C7C3" d="M233.62 251.749c5.948-.104-.773-4.08-4.327-4.837-3.554-.757-11.48-1.87-13.979 1.484-2.498 3.353-21.369 30.092-24.313 31.324-2.945 1.231-18.538 18.683-18.538 18.683-33.251 3.798-10.389-4.614-18.002-7.982-7.614-3.369-9.107-27.213-20.735-39.425-11.629-12.212-10.856-24.899-20.685-22.11-11.332 3.206-11.168-.534-11.168-.534l-.952-1.706a72.386 72.386 0 01-4.7-18.934c4.938 1.053 4.551 1.395 9.102.163 26.767-7.315 1.978-78.911 1.978-78.911-7.361-19.527-56.42-3.947-62.59 6.974-5.95 10.506 2.676 26.517 2.676 26.517-6.127-.223-6.826 4.718-6.826 4.718-1.249 10.625 14.053 17.51 14.053 17.51l1.487 1.869c13.592 19.097 10.186 32.645 7.658 38.417-.565 1.202-5.353 4.007-10.26 3.917-6.246-.089-23.51.342-32.21 21.798-16.521 40.702-1.279 101.11 7.51 107.015 8.788 5.906 92.881 17.807 92.881 17.807l8.566 5.712 10.171 2.968c3.257 1.083 9.696 3.977 17.845 6.143 10.216 2.671 11.703 3.28 14.469 3.621 3.108.371 2.603.668 6.514 1.024 2.974.267 2.974-2.122 2.974-2.122l5.145 1.32c4.193-.282 2.468-5.059 2.468-5.059a3.183 3.183 0 002.009-2.275 3.17 3.17 0 00-.819-2.919c-.892-.727-8.922-5.327-10.618-6.41-1.695-1.083-8.401-4.823-8.401-4.823s9.74 2.627 10.29 3.369a98.17 98.17 0 008.803 6.543c1.77.891 3.51-1.973 2.38-3.472-1.131-1.498-7.674-7.835-10.663-9.14-2.989-1.306-8.164-5.209-10.587-6.322-2.424-1.112-2.975 1.069-9.949.876-6.974-.193-4.461-.089-5.547-.312-1.085-.222-2.661-.578-4.535-.949-2.116-.419-3.616-.271-5.339.4l-17.071-3.947h22.098c-1.889-44.485-5.443-67.797-5.443-67.797s-7.183 37.72 18.291 34.129c25.473-3.591 30.939-33.568 33.036-34.859.937-.579 3.45-2.063 6.35-4.229 13.8-1.825 9.859-13.934 18.335-13.934 9.8 0 11.748-.563 11.748-2.374 0-1.81-9.785-2.745-16.164-2.967 1.055-4.571 1.204-8.903 2.825-12.925 1.874-4.704 8.342-2.953 12.759-3.027z"/><path fill="#000" d="M109.22 206.153c6.112-6.054 2.528-23.089 3.703-29.217 1.175-6.128-9.012-11.618-8.774-27.243.179-11.663-7.167-24.098-10.915-29.677 6.707.845 12.016 3.561 14.068 9.007 0 0 22.187 63.983 1.918 77.13zM96.177 230.175c-2.157-1.988-5.68-23.741-5.68-23.741l5.68 1.483a72.234 72.234 0 004.699 18.934l.951 1.707s3.733 2.493 11.243 1.365l-1.666.564c-5.115 1.113-13.071 1.677-15.227-.312z" opacity=".1"/><path fill="#F4EBEA" d="M190.134 277.877l-10.263 6.842c-20.524 11.403-15.703 9.53-23.703 7.215-12.432-3.665-7.649-37.378-19.278-49.619-11.629-12.242-14.023-16.174-23.793-13.355-9.77 2.819-11.896-4.17-13.086-4.837.268 1.869-3.39 8.472-6.335 9.407l-2.171 7.954-7.435-7.939c-9.473-1.855-19.719-9.764-19.719-9.764-.58 1.202 1.487 7.82-9.294 5.12-6.052-1.484-25.057.326-33.756 21.782-18.157 44.739-6.528 95.501 7.51 107.016 8.178 6.707 92.881 17.806 92.881 17.806l.119 3.769 8.447 1.944c-.491-11.515 7.569-19.572 7.569-19.572l-8.045-1.914h22.098c-1.889-44.486-5.443-67.798-5.443-67.798s-7.183 37.72 18.291 34.129c17.324-2.448 23.125-15.118 31.677-26.521-7.316-6.81-6.271-21.665-6.271-21.665z"/><path fill="#000" d="M121.854 355.058l-4.773-31.962-4.462-29.796-1.68-11.262a67.211 67.211 0 00.595-18.771c-.907-9.051-.506-20.432-5.086-30.923 0 0 2.008 9.259 1.339 15.892-.417 4.169-3.525 16.723-1.488 26.412 2.038 9.69 5.428 12.109 4.774 25.419-.654 13.31-1.309 35.063 10.781 54.991z" opacity=".1"/><path fill="#F4EBEA" d="M127.057 380.378l-34.272-7.98 1.142 35.338h36.557l-3.427-27.358z"/><path fill="#DCD4D3" d="M126.746 380.501l3.988 27.937h-6.266c-2.279-3.421-2.849-10.832-2.279-15.394.569-4.561 1.709-9.692-8.546-10.832-8.204-.912-17.091-2.281-20.51-2.851l-1.709-6.841 1.71.57 33.612 7.411z"/><path fill="#000" d="M129.344 420.278l-.932-12.54H93.929l.49 12.54h34.925z"/><path stroke="#FFD300" stroke-width="3" d="M120.777 420.278v-12.54h-15.422v12.54h15.422z"/><path fill="#152D5D" d="M9.393 250.513c5.71-16.708 23.079-22.51 31.436-23.267l23.568-3.492s8.922 35.345 26.187 58.879l2.647 57.796 37.801 19.29-.238.237a20.742 20.742 0 00-5.472 16.249l.119 3.769-3.525-.772s-51.58-5.716-78.064-11.711c-2.2-.504-9.122-2.381-9.122-2.381L9.393 354.161s-16.194-56.254 0-103.648z"/><path fill="#152D5D" d="M186.715 277.309l-1.785 1.739c-7.337 5.673-17.726 13.631-25.34 10.262-7.613-3.368-9.196-26.709-15.174-42.497-4-10.55-8.223-21.457-24.313-23.059l-20.15.341a18.311 18.311 0 001.978 4.452l.297.178c1.129.481 2.298.858 3.495 1.128 0 0 8.551 26.501 5.234 52.201l11.064 74.059 9.012 3.606h20.819c-1.889-44.515-2.528-40.183-2.528-40.183s-15.207 20.658 10.266 17.067c14.499-2.047 25.34-13.683 34.084-33.368-2.29-3.754-8.357-17.171-6.959-25.926zM130.487 437.376l-3.998-56.997c1.713.38 5.94 1.368 9.139 2.28 3.998 1.14 7.997 2.28 10.853 3.42 2.285.912 7.045 2.659 9.139 3.419l5.712 47.878h-30.845zM95.074 439.086L92.79 372.97l-69.115-17.099 2.285 25.079-7.997 58.136h77.112z"/><path fill="#152D5D" d="M152.191 363.28l-.571-9.12-22.848 5.13 17.707 4.56c1.714-1.14 5.141-.57 5.712-.57z"/><path fill="#0C2048" d="M23.632 357.129l68.935 15.964.57 6.271L24.2 363.4l-.57-6.271zM87.554 291.266l-1.16-7.671-4.298 6.514A83.95 83.95 0 0168.52 271.16a74.365 74.365 0 0013.518 20.774l4.238-6.44 1.279 5.772zM112.641 288.966l1.992-7.419 4.61 4.452s3.376-13.192 2.692-23.831a67.485 67.485 0 01-2.424 26.116l-4.461-4.571-2.409 5.253zM80.28 335.143s-8.49-4.911-11.762-4.63c-3.272.282-20.282-2.574-20.282-2.574s-.826-19.421 2.285-30.209c0 0 4.004 15.6 7.171 20.438 3.168 4.837 6.647 2.819 12.164 7.167 5.517 4.347 4.908 6.915 10.425 9.808z"/><path fill="#594423" d="M120.756 183.08a38.561 38.561 0 00-3.346-9.378s-.164 4.556-4.461 3.235c-6.35-1.944-15.45-2.3-25.28 7.063-9.83 9.363-23.793-4.348-25.92-11.559-2.126-7.212-8.49-24.127-3.792-28.638 4.7-4.511 16.804 1.988 29.86-2.523 13.057-4.511 18.559-15.12 20.016-9.897a82.547 82.547 0 002.766 8.398s3.197-18.844-1.636-26.234c-4.832-7.39-13.933-6.306-21.874-3.413-7.941 2.894-16.61 1.484-20.819 1.484a24.31 24.31 0 00-10.691 3.071 24.243 24.243 0 00-8.195 7.509c-5.784 8.458-12.461 7.018-13.175 14.838-.714 7.82 10.305 22.807 13.175 25.552 1.934 1.825 6.945 10.951 11.347 20.507-.387 1.365-1.488 2.211-4.06 1.662a68.113 68.113 0 007.643 14.067c3.926 5.342 16.12 13.354 33.786 13.533 4.284.21 8.557-.604 12.462-2.375 12.625-6.069 13.904-20.239 12.194-26.902z"/><path fill="#3E2F1C" d="M76.827 199.389c-6.96-1.262-12.952-4.452-15.331-14.972-2.38-10.521-16.581-32.942-20.06-42.246-3.48-9.303 7.271-9.14 8.044-15.921.491-4.229 4.075-8.903 6.692-11.871a24.284 24.284 0 00-8.803 7.864c-5.785 8.458-12.462 7.019-13.176 14.839-.713 7.82 10.306 22.807 13.176 25.552 1.933 1.825 6.944 10.951 11.346 20.507-.387 1.365-1.487 2.21-4.06 1.661a68.092 68.092 0 007.644 14.067c3.926 5.342 16.12 13.355 33.786 13.533a29.578 29.578 0 007.435-.668c-11.733 1.558-19.748-11.084-26.693-12.345z"/><path fill="#674F2D" d="M60.93 112.39s6.825 5.935 19.331 4.881c4.432-.341 16.953-8.131 22.024-4.881 5.071 3.249 7.584 8.695 5.547 18.963a82.318 82.318 0 002.766 8.399s3.197-18.815-1.636-26.205c-4.833-7.39-13.934-6.306-21.875-3.413-7.94 2.894-16.61 1.484-20.819 1.484-1.806.021-3.6.28-5.338.772zM120.756 183.081a38.52 38.52 0 00-3.346-9.378s-.163 4.556-4.461 3.235a22.804 22.804 0 00-17.562 1.484c.46-.104 15.971-3.754 20.194 3.205 4.223 6.959 3.539 17.272-1.799 24.854 7.703-6.914 8.416-17.806 6.974-23.4z"/><path fill="#00181B" d="M227.017 293.893s21.978 5.683 41.86-15.047c19.882-20.729 12.135-41.236 12.135-41.236l-64.45-8.68 10.455 64.963z"/><path fill="#F4C7C3" d="M221.676 266.797c2.995.193 5.975.575 8.922 1.142 1.948.639 2.751 1.321 2.647 2.36-.104 1.038-2.186 1.84-4.833 1.78l-5.413-.118-1.323-5.164z"/><path fill="#CEA999" d="M242.254 153.852c-1.225 7.478-3.183 19.489-4.992 31.328 1.145-11.154 3.263-23.508 4.729-31.237l.263-.091z"/><path fill="#CEA999" d="M223.154 182.77l14.106 2.409 3.717-11.066c-.138 5.892 1.854 16.814 3.308 19.051 7.982 2.281 12.8-6.398 16.791-3.42 4.561 3.402 10.203 10.751 6.585 20.524-5.066 13.684-2.612 18.466-1.49 23.946s9.858 32.769 0 43.33l-15.102-4.567a45.672 45.672 0 009.343-7.295c4.854-7.536.664-28.874.664-28.874s-18.068 11.793-28.625 2.5a13.709 13.709 0 01-2.289-2.649c-6.012-8.414-6.87-29.776-7.042-34.354-.172-4.579.034-19.535.034-19.535z"/><path fill="#292289" d="M298.725 267.805s5.472 4.567 10.407 18.267c4.935 13.701-7.9-7.889-7.9-7.889l-1.511-7.638-.996-2.74z"/><path fill="#F4EFEF" d="M239.667 437.098s-17.384 62.323-16.399 101.553H356l-23.946-98.528s-50.779 26.02-92.387-3.025z"/><path fill="#CEA999" d="M185.944 395.132c2.537.147 12.159-5.63 15.321-7.768l4.057 17.518-10.995 2.86c-1.426 2.354-5.005 7.431-7.912 8.914-3.633 1.852-11.664-.505-13.932.051-2.268.556-5.623 3.543-7.891 4.1-1.814.445-2.639-.956-2.824-1.712l-3.633 1.853c-2.629.26-3.318-1.11-3.333-1.827-.039.169-.546.518-2.268.556-1.722.038-2.184-1.388-2.2-2.105-1.134.278-2.268.556-3.171-.184-.902-.74 2.405-5.88 6.154-8.242 2.998-1.889 9.918-5.959 13.004-7.758-7.476-.09-12.08 3.685-15.135 2.991-3.056-.693.53-4.698 4.557-5.926 4.026-1.228 10.945-3.406 13.098-3.454 2.152-.047 13.932-.051 17.103.133z"/><path fill="#F4C7C3" d="M227.72 364.537c-5.701 7.156-11.403 11.973-35.57 27.937l8.774 17.104c23.945-7.412 35.348-11.403 42.76-14.866 2.851 10.305-2.139 37.522-5.505 46.474 0 0 85.518 37.082 93.887-1.062 0 0-8.656-33.053-9.801-63.799-1.259-34.903 3.321-50.636-9.274-83.46-4.774-12.456-10.55-21.023-14.54-26.724-5.393 5.617-16.328 13.149-43.464 4.209a80.62 80.62 0 01-17.804 9.579c-25.997 10.022 7.044 63.888-9.463 84.608z"/><path fill="#4F3C27" d="M237.808 196.784l-16.534-5.702c-1.141-1.71 1.629-21.095 8.552-30.787 5.701-7.982 14.253-13.113 19.954-10.833 17.105-2.28 46.752-11.972 59.865 27.367 4.3 12.902 13.113 53.022 13.113 103.195 0 38.841-7.982 50.742-26.226 50.742-27.937 0-47.322-40.1-49.602-54.733-2.281 1.824-7.032 3.42-9.122 3.991 4.105-8.21 3.61-70.317 2.85-100.344-1.14 7.982-2.85 15.774-2.85 17.104z"/><path fill="#000" d="M295.336 452.422c-.206 1.381-.401 2.729-.595 4.064.194-1.335.389-2.683.595-4.064zM295.497 451.368c0-.365.102-.73.159-1.141-.045.411-.114.776-.159 1.141z" opacity=".3"/><path fill="#D3A8A4" d="M239 440.62c5.208-21.344 5.425-40.213 4.882-46.98l8.68-4.64c2.604 14.848 1.085 44.853 0 58L239 440.62z"/></svg>