<svg xmlns="http://www.w3.org/2000/svg" fill="none" viewBox="0 0 471 542"><path fill="#E1E1E1" d="M470.709 314.661c0-60.751-49.249-110-110-110h-185.76c-55.229 0-100 44.772-100 100V541h395.76V314.661z"/><path fill="#666A6A" d="M330.709 90h139v8h-139z"/><path fill="#FF8139" d="M385.709 51v37a2 2 0 002 2h7a2 2 0 002-2V51a2 2 0 00-2-2h-7a2 2 0 00-2 2z"/><path fill="#fff" d="M331.709 76h52v13h-52z"/><path fill="#C4C4C4" d="M330.709 88h55v2h-55zM330.709 75h55v2h-55z"/><path fill="#C4C4C4" d="M330.709 76v13.5h3c-.5-.833-1.5-3.3-1.5-6.5s1-6 1.5-7h-3z"/><path fill="#fff" d="M385.091 74.382h-32.145v-8.036h32.145z"/><path fill="#FF8139" d="M385.709 66.963h-34v-1.236h34zM385.709 75h-34v-1.236h34z"/><path fill="#FF8139" d="M385.709 74.382v-8.346h-1.855c.31.516.928 2.04.928 4.019 0 1.978-.618 3.709-.928 4.327h1.855z"/><path fill="#666A6A" d="M469.709 115.5L342.209 98h127.5v17.5z" opacity=".4"/><path fill="#F5F5F5" d="M71.112 85.163C71.022 38.543 108.79.62 155.41.62c46.557 0 84.299 37.823 84.299 84.38 0 46.557-37.742 84.38-84.299 84.38-46.493 0-84.209-37.724-84.298-84.217z"/><path fill="#fff" d="M234.421 81.244c-1.761-42.23-36.509-75.56-78.777-75.56-41.839 0-76.393 32.68-78.723 74.453l-.271 4.864.271 4.862c2.33 41.775 36.884 74.455 78.723 74.455 42.268 0 77.016-33.33 78.777-75.561l.157-3.757-.157-3.756z"/><path fill="#E5E5E5" d="M234.008 85H76.651v6.842h157.357z"/><path fill="#E5E5E5" d="M151.908 5.18V164.82h6.842V5.18z"/><path fill="#fff" d="M239.551 366h231.158c0 66.274-53.726 120-120 120h-198v-57.778c2.237-.134 10.656-6.06 26.43-28.687 15.774-22.626 46.847-31.784 60.412-33.535z"/><path fill="#E1E1E1" d="M381.209 424.733c9.6-5.989-4-8.152-12-8.485l-122.5 8.485-41 10.481 19 50.408c9.333-6.987 26.4-20.163 34-24.955 9.5-5.989 31-2.994 57.5-7.985s53-20.463 65-27.949zM446.709 374.823c12.8-2.795 18.333-9.15 19.5-11.978l-6.5-2.495-129.5 32.441v9.482c5.667 1.331 18.8 2.196 26-4.991 9-8.983 74.5-18.965 90.5-22.459z"/><path fill="#FF8139" d="M335.914 375.191l-40.842 20.161 36.787 7.358 36.918-22.614-32.863-4.905z"/><path fill="#152D5D" d="M307.807 395.583l38.306-19.153-24.275-6.013-39.42 15.144 25.389 10.022z"/><path fill="#E5B9B7" d="M361.159 372.022a9.027 9.027 0 00-2.98-1.972 83.042 83.042 0 00-9.491-1.036c-1.693 0-8.408 2.929-8.905 3.255-.496.327-.79 1.972 1.795 1.893 2.584-.079 19.581-2.14 19.581-2.14z"/><path fill="#F4C7C3" d="M269.586 301.253a80.118 80.118 0 018.667 7.412c3.465 3.538 10.383 7.165 15.033 6.23l-10.055-21.472s-5.982-3.65-8.77-4.111c-2.787-.462-14.254 1.34-18.373 3.086a1.126 1.126 0 00-.643 1.566s-1.433.507-1.535 1.273c-.203 1.476 2.02 1.442 4.063 1.341 0 0-.373 1.498 1.952 1.667 3.476-.173 6.9.893 9.661 3.008z"/><path fill="#E5B9B7" d="M288.083 314.467a22.527 22.527 0 01-2.9-1.126c.936.451 1.905.828 2.9 1.126zM288.93 314.693c-.271-.068-.554-.136-.836-.226.52.158.836.226.836.226zM285.183 313.386l-.678-.316.678.316z"/><path fill="#E5B9B7" d="M281.346 294.324s-.971-.552-2.258-1.228a24.482 24.482 0 00-5.857-2.32c-2.72-.428-9.378 1.295-11.568 1.746-2.189.45-6.185 1.442-6.185 1.442.237 1.464-1.546 1.554-1.546 1.554.147 1.048 1.558 1.037 2.709 1.127.922.008 1.843-.091 2.742-.293a2.61 2.61 0 01-.643 1.634c.371.21.793.312 1.219.292a17.53 17.53 0 017.9 1.87c3.273 1.927 6.512 4.991 11.105 9.204a23.07 23.07 0 005.485 3.707h.09l.678.315c.939.442 1.908.818 2.9 1.126.282.091.564.158.835.226l-7.606-20.402z"/><path fill="#FB5756" d="M246.265 277.132l32.083-4.319 6.057 44.997-32.083 4.32z"/><path fill="#fff" d="M251.957 286.263l-.577-4.244.9-.123.476 3.502 1.721-.234.101.743-2.621.356zm3.361-.457l-.576-4.244.9-.122.576 4.244-.9.122zm3.813-4.84l.909-.123-.866 4.44-.982.133-2.016-4.049.909-.123 1.141 2.417c.065.143.134.311.208.504.075.191.123.324.145.4-.002-.181.028-.502.091-.964l.461-2.635zm2.602 1.565l.29-.039c.285-.039.488-.115.611-.228.122-.113.17-.271.142-.474-.027-.202-.116-.336-.267-.402-.149-.066-.369-.08-.659-.04l-.273.037.156 1.146zm.099.732l.221 1.629-.899.122-.577-4.244 1.237-.168c.576-.079 1.018-.031 1.323.142.305.172.487.471.545.899.034.25-.005.481-.116.696-.111.212-.285.39-.521.535.768.867 1.268 1.427 1.499 1.679l-.998.136-1.235-1.491-.479.065zm5.691.886l-2.445.332-.576-4.245 2.444-.332.1.738-1.544.21.127.931 1.437-.195.1.738-1.437.195.148 1.094 1.545-.209.101.743zm2.525-.343l-.9.122-.474-3.495-1.153.156-.101-.749 3.204-.435.102.749-1.152.156.474 3.496zm5.949-.808l-.445-.969-1.548.21-.17 1.053-.97.131.92-4.465 1.1-.149 2.082 4.057-.969.132zm-.763-1.694l-.692-1.488a4.57 4.57 0 01-.115-.274c-.03.256-.129.894-.299 1.912l1.106-.15z"/><path fill="#F4C7C3" d="M270.805 289.199c-4.515-.079.586-3.098 3.284-3.673 2.697-.574 8.712-1.419 10.608 1.127 1.896 2.546 16.218 22.846 18.453 23.781 2.234.935 15.856 2.918 15.856 2.918 25.235 2.884 35.11.799 40.889-1.758 5.778-2.557 6.455-18.024 15.281-27.296 8.825-9.271 8.238-18.903 15.698-16.785 8.6 2.433 8.476-.406 8.476-.406l.722-1.295a54.935 54.935 0 003.566-14.375c-3.746.8-3.453 1.059-6.906.124-20.315-5.553-1.501-59.909-1.501-59.909 5.586-14.825 42.818-2.996 47.501 5.295 4.515 7.976-2.031 20.131-2.031 20.131 4.65-.169 5.18 3.583 5.18 3.583.948 8.066-10.665 13.293-10.665 13.293l-1.128 1.419c-10.316 14.499-7.731 24.784-5.813 29.166.429.912 4.063 3.042 7.788 2.974 4.74-.068 17.842.259 24.445 16.549 12.538 30.901.97 76.762-5.7 81.245-6.67 4.484-70.491 13.519-70.491 13.519l-6.5 4.337-7.72 2.253c-2.472.822-7.358 3.019-13.543 4.664-7.753 2.027-8.882 2.489-10.981 2.748-2.359.282-1.975.507-4.943.778-2.257.202-2.257-1.611-2.257-1.611l-3.905 1.002c-3.183-.214-1.874-3.841-1.874-3.841a2.416 2.416 0 01-1.524-1.727 2.398 2.398 0 01.622-2.216c.677-.552 6.771-4.044 8.058-4.867 1.286-.822 6.376-3.661 6.376-3.661s-7.392 1.994-7.81 2.557a74.21 74.21 0 01-6.681 4.968c-1.343.676-2.663-1.498-1.806-2.636.858-1.137 5.824-5.948 8.092-6.939 2.269-.991 6.196-3.954 8.036-4.799 1.839-.845 2.257.811 7.55.665 5.293-.147 3.386-.068 4.21-.237.823-.169 1.963-.845 3.385-1.127a10.46 10.46 0 014.108.71l12.956-2.996h-16.77c1.433-33.774 4.13-51.472 4.13-51.472s5.451 28.637-13.881 25.911c-19.333-2.727-52.039-21.157-53.63-22.137-.711-.439-2.619-1.566-4.819-3.21-10.474-1.386-7.483-10.579-13.916-10.579-7.437 0-8.916-.428-8.916-1.802s7.427-2.084 12.268-2.253c-.801-3.47-.914-6.759-2.144-9.812-1.422-3.571-6.331-2.242-9.683-2.298z"/><path fill="#00181B" d="M389.639 234.39c-2.634.33-2.606-4.389-2.263-6.79-5.967 7.27-4.115 23.662 8.641 27.571 20.775 6.367 33.264-9.465 36.624-17.077-2.304-8.724.961-15.98 2.881-18.518h-2.881c-4.938 14.197-19.752 24.896-27.57 18.518-7.819-6.379-12.14-4.115-15.432-3.704z"/><path fill="#00181B" d="M386.209 193.5c0 5.2 2.5 15.5 3.5 19 .5-3 2.833-11.667 4-15.5 1.667-.166 5.9-.8 11.5-2 7-1.5 15 1.5 17 9.5s8 6 9.5 11c1.2 4-.5 8.333-1.5 10 2.4-.4 5-4.167 6-6 2.333-1 7.1-1.9 7.5 2.5.5 5.5-2 5.5-7.5 10.5-4.4 4-7.833 12.667-9 16.5 1-.333 3.6-2.1 6-6.5 3-5.5 1.5-6.5 8.5-10s7.5-10 7.5-16 4-8 2.5-18.5c-1.2-8.4-8.833-10.5-12.5-10.5-4-7-13.994-5.797-21.5-10-12.5-7-20.641-1.759-24 4-3.5 6-7.5 5.5-7.5 12z"/><path fill="#000" d="M393.775 250.255c-4.639-4.597-1.919-17.529-2.811-22.182-.891-4.652 6.84-8.821 6.659-20.683-.135-8.855 5.44-18.295 8.284-22.531-5.09.642-9.119 2.704-10.677 6.838 0 0-16.838 48.576-1.455 58.558zM403.672 268.493c1.637-1.509 4.311-18.024 4.311-18.024l-4.311 1.126a54.856 54.856 0 01-3.566 14.375l-.722 1.295s-2.833 1.893-8.532 1.037l1.264.428c3.882.845 9.92 1.273 11.556-.237z" opacity=".1"/><path fill="#F4EFEF" d="M329.525 314.365c17.639 1.251 25.472-.563 30.37-2.737 5.778-2.569 4.051-18.881 12.075-31.543 6.851-10.826 11.444-14.645 18.904-12.504 1.445.405-1.061 0 .124.169v-1.352c3.736-1.96 9.808-2.524 9.808-2.524-.125.349-1.005 3.019-1.456 3.267-.452.248 2.776.755 2.776.755a10.456 10.456 0 002.776 3.763l2.686 16.684 6.366-15.096c8.137-1.735 13.87-9.609 13.87-9.609a9.041 9.041 0 014.514 1.678c.61-.09 1.874 2.388 2.596 2.253 4.593-1.126 20.314 1.127 28.124 16.808 2.991 6.095 4.682 22.084 4.986 32.088 0 0-1.134 24.768-3.369 44.37 0 0-11.446 2.891-19.064 4.559-11.873 2.816-32.098 8.97-46.047 11.111l-1.32-15.67-20.078 6.016h-16.77c1.433-33.774 4.13-51.472 4.13-51.472s5.451 28.637-13.881 25.911c-6.941-.981-15.597-3.988-23.926-7.481l1.806-19.444z"/><path fill="#E0DEDE" d="M397.996 357.985l1.613 18.52 17.719-2.839-1.478-22.531a2.83 2.83 0 00-2.528-.912c-1.524.304-3.036 3.132-3.036 3.132a2.05 2.05 0 00-1.919-.902c-1.219.192-2.325 2.513-2.325 2.513a3.118 3.118 0 00-3.385-2.254c-2.585.384-4.661 5.273-4.661 5.273zM408.368 289.863l6.771-10.454 2.799 9.97 9.785-11.671-9.672 13.248s-1.4-3.278-2.98-3.278-2.076 4.247-6.703 2.185zM405.907 289.356l-2.517-10.42-4.514 6.083-1.761-7.311 1.4 9.012a2.697 2.697 0 003.916-.845c1.501-2.455 3.476 3.481 3.476 3.481z"/><path fill="#E0DEDE" d="M415.85 351.18s11.003-5.632 13.915-6.612l8.566-2.873-4.052-24.198s3.555 14.352.971 16.898c-2.584 2.546-8.047.259-11.286 7.334-3.239 7.074-8.114 9.451-8.114 9.451zM363.202 332.875c8.193-8.663-7.607-12.989-.576-15.118 7.031-2.129 4.435-14.972 4.435-14.972l-1.534 12.595s5.451 28.636-13.882 25.91a58.969 58.969 0 01-7.166-1.543c3.047.27 12.03.214 18.723-6.872z"/><path fill="#F4EBEA" d="M404.97 263.615l-.011.012.011-.012z"/><path fill="#fff" d="M310.621 312.056c4.142.71 8.385 1.329 8.385 1.329 25.235 2.884 34.817 0 40.889-1.757 9.435-2.783 4.051-24.626 12.877-33.92 8.825-9.294 10.642-12.279 18.057-10.139 7.415 2.141 9.029-3.165 9.932-3.672-.203 1.419 2.573 6.432 4.807 7.142l1.648 6.038 5.643-6.027c7.189-1.408 14.965-7.412 14.965-7.412.44.912-1.129 5.937 7.054 3.886 4.593-1.126 19.016.248 25.618 16.538 13.78 33.965 4.955 72.503-5.699 81.245-5.726 0-70.491 13.519-70.491 13.519l-.09 2.861-6.411 1.476c.373-8.742-5.744-14.859-5.744-14.859l6.105-1.454h-16.77c1.433-33.773 4.13-51.471 4.13-51.471s5.451 28.637-13.881 25.91c-13.148-1.858-32.469-10.961-44.015-16.897 5.553-5.171 2.991-12.336 2.991-12.336z"/><path fill="#00181B" d="M413.632 273.271c-6.203.931-9.433-.387-10.273-1.162v9.497c1.086.775 4.2.969 5.621.969l4.652-9.304z"/><path fill="#00181B" d="M399.072 286.22c1.41-2.006 3.435-3.908 4.271-4.608l5.562.84c.562 1.561 1.19 3.908 1.433 4.886l-8.114 58.926c-2.164 4.173-6.44 7.277-8.308 8.308-2.473-2.319-4.379-7.277-5.023-9.467 2.628-17.62 7.881-46.598 10.179-58.885z"/><path fill="#F4EBEA" d="M404.97 263.615l-.011.012.011-.012z"/><path fill="#292289" d="M404.97 263.615l-.011.012.011-.012z"/><path fill="#CCD2DD" d="M464.709 284c-3.538-12.032-9.5-17.5-21.5-19l-6.5-1.385-5-4.615-5-.5 1.081 5.115s-6.771 26.834-19.874 44.701l-2.009 43.878-28.689 14.645.181.181a15.742 15.742 0 014.153 12.335l-.09 2.861 2.675-.585s39.579-8.427 59.679-12.978c1.67-.383 3.205-.743 4.571-1.126l18.204-4.507s9.43-40.552-1.882-79.02z"/><path fill="#CCD2DD" d="M316.625 313.025l2.381.36c25.235 2.884 32.925-.828 38.703-3.385 5.778-2.557 3.463-19.514 8-31.5 2.5-6.605 7.593-13.668 19.805-14.885h7.695l5.87-4.115 3.63-1-1.903 5.374a13.955 13.955 0 01-1.501 3.38l-.226.135c-.856.365-1.744.652-2.652.856 0 0-6.489 20.12-3.973 39.632l-8.396 56.225-6.839 2.737h-15.801c1.434-33.796 1.919-30.506 1.919-30.506s7.663 7.717-11.669 4.99c-11.004-1.554-27.831-3.965-39.298-9.575 1.738-2.85 5.316-12.077 4.255-18.723z"/><path fill="#A7B2C6" d="M410.218 314.872l.881-5.824 3.261 4.945a63.718 63.718 0 0010.304-14.386 56.438 56.438 0 01-10.259 15.772l-3.216-4.889-.971 4.382zM391.179 313.126l-1.512-5.632-3.499 3.379s-2.562-10.015-2.042-18.092a51.24 51.24 0 001.839 19.827l3.386-3.47 1.828 3.988zM415.737 348.184s6.444-3.729 8.927-3.515c2.483.215 8.306 0 8.306 0s2.991-15.568 2.991-22.26c0 0-.677 9.215-3.081 12.888-2.404 3.672-5.045 2.14-9.232 5.441-4.187 3.301-3.724 5.249-7.911 7.446z"/><path fill="#E1E1E1" d="M312.348 331.759s-.52-1.352 0-4.968l1.896.935a25.52 25.52 0 01-1.896 4.033z"/><path fill="#000" d="M384.182 363.302l3.622-24.266 3.386-22.62 1.275-8.551a51.054 51.054 0 01-.451-14.25c.688-6.872.384-15.513 3.86-23.477 0 0-1.524 7.029-1.016 12.065.316 3.165 2.675 12.696 1.129 20.052-1.547 7.356-4.12 9.193-3.623 19.298.496 10.105.993 26.62-8.182 41.749z" opacity=".1"/><path fill="#F4C7C3" d="M279.867 301.489a54.29 54.29 0 00-6.771.868c-1.479.484-2.088 1.002-2.009 1.791.079.788 1.659 1.397 3.668 1.352l4.108-.09 1.004-3.921z"/><path fill="#000" d="M175.268 494.637c0-.317-.09-.635-.14-.993.04.358.1.676.14.993z" opacity=".3"/><path fill="#CEA999" d="M238.164 260.938l-12.266 2.096.617 9.338c.12 5.125-.288 9.238-1.553 11.185-5.296 8.175-7.407-10.927-11.787-10.51-4.381.417-6.422 5.404-3.276 13.907s-8.163 10.868-9.139 15.636c-.976 4.768-8.572 31.618 0 40.807l13.132-3.973a39.693 39.693 0 01-8.124-6.348c-4.221-6.556-.578-25.122-.578-25.122s15.71 10.261 24.89 2.175a11.962 11.962 0 001.991-2.304c5.226-7.321 5.973-25.907 6.122-29.891.15-3.983-.029-16.996-.029-16.996zM221.557 235.774c1.065 6.506 2.767 16.957 4.34 27.258-.995-9.705-2.837-20.454-4.111-27.179l-.229-.079z"/><path fill="#E2BBA6" d="M252.243 426.773s-10.772-1.451-19.394-12.179c0 0 2.151 9.02-9.348 19.351-7.965 7.132-1.752 45.128 1.603 51.833 0 0-31.779 31.331-83.509 6.239 0 0 12.992-47.314 13.938-74.066 1.165-30.377 4.679-49.906 15.312-78.585 10.633-28.678 13.152-44.502 11.708-59.601-1.444-15.099-.717-38.742 25.885-44.453 26.601-5.712 29.747 25.589 29.747 25.589s2.35 40.022-8.114 49.191c-9.169 8.086-24.889-2.175-24.889-2.175s-3.644 18.566.578 25.122c0 0 5.824 6.665 20.21 12.397 15.023 5.96 17.432 49.668 25.397 57.675"/><path fill="#D2AB96" d="M227.209 276.503c2.8-.798 8.5-2.994 11-3.993v-4.491l-14-17.968-48 74.365-4.5 12.976 2 4.492c6.4 3.594 16 1.498 20 0-.5-3.327-1.2-11.479 0-17.468 1.2-5.989 7.167-9.483 10-10.481h15.5l5-.998c-1.6-24.356 1.333-34.437 3-36.434z"/><path fill="#fff" d="M223.946 482s7.555 24.943 6.695 59H121.209l10.5-26.277 11.579-30.096s44.333 22.589 80.658-2.627z"/><path fill="#152D5D" d="M300.209 431.236c-13.599-2.464-28.806-3.29-41-19.236-6.5-8.5-18.176-60.527-33.239-66.527a70.102 70.102 0 01-15.481-8.334c-23.595 7.778-34.218 5.037-38.907.149-.249.686-7.377 8.603-11.529 19.44-10.951 28.559-6.969 42.248-8.064 72.615-.995 26.751-8.522 55.509-8.522 55.509 7.278 33.188 81.637.924 81.637.924-2.927-7.788-9.538-44.701-1.603-51.834 11.499-10.331 9.349-19.35 9.349-19.35C239.209 428 247.709 436.5 247.709 436.5c20.38 11.692 41.32 12.954 52.5 12v-17.264z"/><path fill="#E2BBA6" d="M313.709 431.5h-13.5v17c9.6-1.2 18-3.833 21-5 1 .167 4.1.4 8.5 0 5.5-.5 9-5.5 11-6.5s5.5-1.5 7.5 0 3 1 3 0c0-.8-.667-2-1-2.5.667.167 2.3.6 3.5 1 1.5.5 5-.5.5-2.5s-9.5-3.5-11.5-4-2.5-1.5-5-1.5-2-1.5-5-1.5-2-.5-5-1-9 6.5-14 6.5z"/><path fill="#00181B" d="M300.209 448.5V442s-8.5 2.5-22 0c-18-5.558-23.014-14.789-33-21-11.227-6.983-16.621-19.75-16.621-19.75-.796 18.229-12.773 21.1-20.06 35.96-5.406 11.027-1.514 40.152.856 54.456 9.269-3.099 15.72-5.89 15.72-5.89-2.927-7.788-9.538-44.702-1.603-51.834 11.499-10.331 9.348-19.351 9.348-19.351C238.709 429 248.209 437 248.209 437c20.38 11.722 40.82 12.454 52 11.5z"/><path fill="#fff" d="M191.062 391.306c-9.705-5.994-28.215-7.87-47.652-7.86-39.527.021-68.461 34.639-68.461 74.166V541H301.53c.135-3.497.323-15.897 0-37.524-.322-21.627-15.724-30.262-23.384-31.876h-50.396c.645-49.387-10.553-64.155-36.689-80.294z"/><path fill="#594423" d="M224.411 273.619c4.338-.866 12.291-3.969 15.725-5.413.542-9.02-1.627-27.495-16.809-33.557-15.183-6.062-30.365-1.984-35.788 2.165-28.738-3.247-29.099 57.011-25.484 83.893 20.604 18.944 53.5 5.593 61.814 1.624-4.772-30.743-2.892-53.403.542-62.784 2.603 6.494 1.085 12.087 0 14.072z"/><path fill="#74582D" fill-rule="evenodd" d="M229.991 238.295c-8.563-3.738-22.613-6.598-35.782.776-11.508 6.445-7.574 15.563-3.324 25.412 3.32 7.696 6.833 15.838 3.324 23.499-8 17.469-7.5 22.959-2 42.423l.05.181c-10.249.344-21.059-1.919-29.704-9.868-3.615-26.882-3.254-87.141 25.485-83.893 5.422-4.15 20.605-8.227 35.787-2.165a23.093 23.093 0 016.164 3.635z" clip-rule="evenodd"/><path fill="#00B67A" d="M439.593 522.153c-2.4 4-8.333 14-11 18.5h-2c2.833-5 8.9-15.7 10.5-18.5 2-3.5-10.5-11-4-21.5s21-60 24-82 8-34 10-7-.5 103-13 105c-10 1.6-13.833 4.333-14.5 5.5z"/><path stroke="#fff" d="M439.709 518.112c5.5-13.5 17.8-53.7 23-106.5"/><path fill="#00B67A" stroke="#00B67A" d="M381.209 512.112c-.4 18.4 4.167 26.333 6.5 28h29.5c6.4 0 8.667-9 9-13.5-2.5-85.5 25-162.539 12.5-165.5-19-4.5-57 128-57.5 151z"/><path stroke="#fff" d="M402.249 541.112c-3.494-27.098-3.294-96.436 25.46-157M417.209 521.612c-3.667 1.167-11.9 5.3-15.5 12.5-3.167-1.333-10.6-5.7-15-12.5m30.5-20.5c-4 .333-12.9 2.3-16.5 7.5-2-1.167-6.8-5.1-10-11.5m26.5-19.5c-2.667 0-9.4.7-15 3.5-2-1.5-6.2-5.8-7-11m23-18.5c-2.167-.167-7.6.2-12 3-1.333-1-4-4.1-4-8.5m19.5-18c-2.5-.667-8.3-.7-11.5 4.5-.667-1.834-2-6.5-2-10.5m18-15c-2.167 0-7 .6-9 3-.5-1.5-1.5-5.1-1.5-7.5M456.209 499.612c-1.833 2.166-6.9 6.7-12.5 7.5-1.333-1.334-3.8-5.4-3-11M458.709 484.112c-1.667 1.5-6 4.6-10 5-1-1-3-4-3-8m14.5-11.5c-1.167 1.5-4.3 4.5-7.5 4.5-1-.834-3-3.3-3-6.5m12.5-14c-.833 1.333-3.2 4-6 4-1.167-.667-3.5-2.8-3.5-6m11-13.5c-.833 1.166-3 3.5-5 3.5-.833-.5-2.5-2.1-2.5-4.5m7.5-13c-.5 1.166-1.7 3.5-2.5 3.5-1 0-2.5-2-2.5-3.5"/><path fill="#00B67A" stroke="#00B67A" d="M367.709 527.612c0 7.2-4 11.333-6 12.5h-7c-6.8 0-9.833-8.333-10.5-12.5-7-18.5 4.5-67 10.5-81s11.008-23.732 7 7c-4.5 34.5 6 65 6 74z"/><path stroke="#fff" d="M358.209 540.612a194.566 194.566 0 01-1.088-6.5m-.912-74c-1.144 6.16-1.825 12.772-2.161 19.5m8.661 46.5c-1.559 1.5-4.858 5.2-5.588 8m0 0c-1.804-.667-6.112-3-8.912-7m8.912 7a293.627 293.627 0 01-1.756-14m5.844-7c-1.396 1.166-4.519 4.2-5.844 7m0 0c-1.885-.667-6.156-2.9-8.156-6.5m8.156 6.5a318.013 318.013 0 01-1.087-13.5m4.931-5c-1.121 1-3.677 3.4-4.931 5m0 0c-1.357-.5-4.669-2.2-7.069-5m7.069 5c-.258-4.38-.43-8.915-.478-13.5m4.409-3c-1.106.5-3.536 1.8-4.409 3m0 0c-1.197-.667-3.891-2.5-5.091-4.5m5.091 4.5c-.047-4.486.024-9.019.248-13.5m3.661-2.5c-.774.333-2.59 1.3-3.661 2.5m0 0c-.78-.167-2.639-1.2-3.839-4"/><path fill="#00B67A" stroke="#00B67A" d="M339.209 521.612c2.8 7.6 3.833 15.5 4 18.5h-3c-.5-3.5-1-13-5.5-18.5s-19.5 1-22.5-7.5-35.5-80.5-41-89.5-36-47 10-9 64.5 75 64 85.5-9.5 11-6 20.5z"/><path stroke="#fff" d="M335.209 516.112c-2.333-14.5-15.7-52.7-50.5-89.5M337.709 491.612c-.5 3.166-2.2 10.2-5 13-3.667-.167-13.3-2.1-22.5-8.5m20-18c0 2.833-.8 9-4 11-2.833-.5-10-2.9-16-8.5m11-16.5c.5 2 .8 6.8-2 10-2.833-.5-9.7-2.6-14.5-7m7-14.5c.167 1.833.3 5.9-.5 7.5-2.5-.167-8.3-1-11.5-3m1.5-17c.5 1 1.2 3.5 0 5.5-1.5 2.5-10-2-12.5-3"/></svg>