<svg width="472" height="541" viewBox="0 0 472 541" fill="none" xmlns="http://www.w3.org/2000/svg">
<path d="M194 206H392C436.183 206 472 241.817 472 286V312.446L470.963 541H114V286C114 241.817 149.817 206 194 206Z" fill="#E1E1E1"/>
<path d="M346.285 75.7364C309.902 73.1899 284.269 100.565 276 114.57H470C463.215 104.066 443.603 85.413 419.433 94.835C389.22 106.612 391.764 78.9195 346.285 75.7364Z" fill="#E1E1E1"/>
<path d="M228.949 174.218V539.959H92.3814V95.0703L228.949 174.218Z" fill="white"/>
<rect width="19.1451" height="29.3614" transform="matrix(-1 0 0 1 207.25 188.258)" fill="#E1E1E1"/>
<rect width="19.145" height="29.3614" transform="matrix(-1 0 0 1 168.959 188.258)" fill="#E1E1E1"/>
<rect width="19.145" height="29.3614" transform="matrix(-1 0 0 1 130.67 188.258)" fill="#E1E1E1"/>
<rect width="19.1451" height="29.3614" transform="matrix(-1 0 0 1 207.25 239.32)" fill="#E1E1E1"/>
<rect width="19.145" height="29.3614" transform="matrix(-1 0 0 1 168.959 239.32)" fill="#E1E1E1"/>
<rect width="19.145" height="29.3614" transform="matrix(-1 0 0 1 130.67 239.32)" fill="#E1E1E1"/>
<rect width="19.1451" height="29.3614" transform="matrix(-1 0 0 1 207.25 290.383)" fill="#E1E1E1"/>
<rect width="19.145" height="29.3614" transform="matrix(-1 0 0 1 168.959 290.383)" fill="#E1E1E1"/>
<rect width="19.145" height="29.3614" transform="matrix(-1 0 0 1 130.67 290.383)" fill="#E1E1E1"/>
<rect width="19.1451" height="29.3614" transform="matrix(-1 0 0 1 207.25 341.449)" fill="#E1E1E1"/>
<rect width="19.145" height="29.3614" transform="matrix(-1 0 0 1 168.959 341.449)" fill="#E1E1E1"/>
<rect width="19.145" height="29.3614" transform="matrix(-1 0 0 1 130.67 341.449)" fill="#E1E1E1"/>
<rect width="182.376" height="10.7367" rx="5.36833" transform="matrix(0.865984 0.500072 -0.499928 0.866067 86.7305 81.0273)" fill="#152D5D"/>
<path d="M178.903 484.324C178.903 484.324 159.132 484.324 159.132 465.84C159.132 447.355 171.596 442.197 169.017 428.656C166.438 415.115 176.754 401.789 190.94 409.956C205.126 418.123 194.133 446.137 199.106 454.664C204.078 463.19 205.549 485.615 178.903 484.324Z" fill="#24AD79"/>
<path fill-rule="evenodd" clip-rule="evenodd" d="M185.004 407.798C180.887 410.868 176.407 416.443 178.957 423.457C182.956 434.457 183.456 445.457 178.957 454.457C174.828 462.717 171.962 477.714 180.792 484.377C180.007 484.382 179.195 484.365 178.356 484.324C178.356 484.324 158.585 484.324 158.585 465.84C158.585 456.59 161.706 450.677 164.501 445.381C167.292 440.094 169.758 435.421 168.47 428.656C166.231 416.901 173.711 405.307 185.004 407.798Z" fill="#179364"/>
<rect width="2.81657" height="31.9268" transform="matrix(-1 0 0 1 182.285 470.531)" fill="white"/>
<path d="M256.211 479.457H446.918V540.489H61.0485C61.2244 529.375 70.2843 520.457 81.3999 520.457H110.972C129.894 520.457 165.036 518.266 182.057 501.957C207.627 477.457 234.22 479.457 256.211 479.457Z" fill="#152D5D"/>
<path d="M339.489 539.457C347.887 510.657 371.983 487.79 382.98 479.957H288.499C266.503 495.957 247.34 526.29 245.507 539.457H339.489Z" fill="#0C2048"/>
<path d="M131.01 389.89C131.99 388.914 133.156 388.142 134.439 387.622C138.054 387.016 141.701 386.618 145.362 386.43C147.31 386.43 155.038 389.799 155.609 390.175C156.181 390.551 156.519 392.443 153.544 392.352C150.57 392.262 131.01 389.89 131.01 389.89Z" fill="#E5B9B7"/>
<path d="M189.996 294.528C189.996 294.528 191.113 293.893 192.594 293.115C194.716 291.939 196.982 291.041 199.335 290.445C202.465 289.953 210.128 291.936 212.648 292.454C215.167 292.972 219.765 294.113 219.765 294.113C219.492 295.798 221.545 295.901 221.545 295.901C221.376 297.107 219.752 297.094 218.427 297.197C217.366 297.206 216.307 297.093 215.271 296.86C215.294 297.553 215.555 298.217 216.012 298.74C215.585 298.982 215.099 299.099 214.609 299.077C211.451 299.072 208.337 299.809 205.517 301.228C201.751 303.444 198.023 306.969 192.737 311.816C190.849 313.533 188.723 314.969 186.424 316.08H186.321L185.541 316.443C184.46 316.951 183.345 317.384 182.203 317.739C181.879 317.843 181.554 317.921 181.242 317.998L189.996 294.528Z" fill="#E5B9B7"/>
<path d="M194.775 280.977L207.887 314.04V319.5L204.118 315.238L191.07 282.402L194.775 280.977Z" fill="#152D5D"/>
<path d="M138.772 521.448C138.373 497.553 129.626 441.797 125.302 416.906H31.0109C24.5253 431.841 23.0286 450.26 23.0286 466.688C23.0286 479.83 24.0192 517.947 26.1811 540.514H75.7234L84.886 500.54C86.8816 508.107 88.5024 526.907 89.6665 540.514H138.771C138.814 532.842 138.861 529.454 138.901 528.238C138.995 525.381 139.047 534.509 138.901 528.238C138.869 526.84 138.826 524.678 138.772 521.448Z" fill="#F4EFEF"/>
<path d="M133.264 463.829L131.272 451.878V450.384H113.345L111.851 435.445H79.9814V451.878L22.7155 452.874V463.829C49.8048 456.659 75.1678 456.526 84.4631 457.356L83.4672 442.417C84.6623 443.214 86.953 443.745 87.9489 443.911H101.892C106.274 443.911 108.697 442.251 109.361 441.421L110.357 456.858C118.723 458.451 129.114 462.169 133.264 463.829Z" fill="#CFCDCD"/>
<path d="M90.4401 492.709C94.4238 523.383 95.6427 527.234 96.6387 540.513H88.6712C86.281 508.245 85.7925 512.627 84.9625 503.664C86.556 489.323 89.2782 490.385 90.4401 492.709Z" fill="#CFCDCD"/>
<path d="M26.2022 540.514C24.2104 472.791 29.688 469.139 32.6758 460.84L22.7165 462.832C21.5214 491.514 24.5424 516.612 26.2022 540.514Z" fill="#CFCDCD"/>
<path d="M202.127 289.626C207.322 289.535 201.452 286.062 198.348 285.401C195.243 284.74 188.321 283.768 186.139 286.697C183.957 289.626 167.475 312.98 164.903 314.056C162.331 315.131 148.712 330.374 148.712 330.374C119.67 333.691 139.638 326.344 132.988 323.402C126.338 320.46 125.035 299.634 114.878 288.968C104.721 278.302 105.397 267.221 96.8114 269.657C86.9144 272.457 87.0573 269.191 87.0573 269.191L86.2261 267.7C84.1178 262.397 82.7373 256.835 82.1218 251.163C86.4339 252.083 86.0962 252.381 90.0706 251.306C113.449 244.916 91.798 182.383 91.798 182.383C85.3688 165.328 42.5208 178.936 37.1307 188.475C31.9354 197.651 39.4686 211.635 39.4686 211.635C34.1174 211.44 33.507 215.756 33.507 215.756C32.416 225.035 45.7808 231.049 45.7808 231.049L47.0796 232.682C58.9509 249.362 55.9766 261.194 53.7686 266.236C53.275 267.285 49.0928 269.735 44.8067 269.657C39.3517 269.579 24.2724 269.955 16.6743 288.696C2.24438 324.245 15.5573 377.006 23.2333 382.164C30.9093 387.322 104.358 397.717 104.358 397.717L111.839 402.706L120.723 405.298C123.567 406.244 129.191 408.772 136.309 410.664C145.231 412.997 146.53 413.528 148.946 413.826C151.661 414.15 151.219 414.409 154.635 414.72C157.233 414.954 157.233 412.867 157.233 412.867L161.726 414.02C165.389 413.774 163.883 409.601 163.883 409.601C164.318 409.442 164.706 409.177 165.012 408.83C165.319 408.483 165.533 408.065 165.637 407.615C165.74 407.164 165.729 406.694 165.604 406.249C165.479 405.804 165.244 405.397 164.922 405.065C164.142 404.43 157.129 400.412 155.648 399.466C154.167 398.52 148.31 395.254 148.31 395.254C148.31 395.254 156.817 397.548 157.297 398.196C159.751 400.243 162.318 402.151 164.986 403.911C166.532 404.689 168.052 402.188 167.065 400.879C166.077 399.57 160.363 394.036 157.752 392.895C155.141 391.755 150.622 388.346 148.504 387.374C146.387 386.402 145.907 388.307 139.815 388.139C133.724 387.97 135.919 388.061 134.971 387.867C134.023 387.672 132.646 387.362 131.009 387.038C129.161 386.672 127.851 386.801 126.347 387.387L111.436 383.94H130.737C129.087 345.085 125.983 324.725 125.983 324.725C125.983 324.725 119.71 357.67 141.958 354.533C164.207 351.397 168.981 325.214 170.813 324.087C171.631 323.581 173.826 322.285 176.359 320.393C188.412 318.799 184.97 308.224 192.373 308.224C200.932 308.224 202.634 307.731 202.634 306.15C202.634 304.569 194.088 303.752 188.516 303.558C189.438 299.566 189.568 295.782 190.983 292.27C192.62 288.161 198.27 289.691 202.127 289.626Z" fill="#F4C7C3"/>
<path opacity="0.1" d="M93.474 249.804C98.8122 244.516 95.682 229.638 96.7081 224.285C97.7342 218.933 88.8372 214.138 89.0451 200.491C89.2009 190.304 82.7847 179.443 79.5117 174.57C85.3694 175.309 90.0062 177.681 91.7986 182.437C91.7986 182.437 111.177 238.321 93.474 249.804Z" fill="black"/>
<path opacity="0.1" d="M82.0826 270.783C80.1993 269.046 77.1211 250.047 77.1211 250.047L82.0826 251.343C82.6966 257.015 84.0773 262.578 86.1869 267.88L87.0181 269.37C87.0181 269.37 90.2781 271.548 96.8372 270.563L95.3825 271.055C90.9146 272.027 83.9659 272.52 82.0826 270.783Z" fill="black"/>
<path d="M164.15 312.448C159.668 315.435 155.187 318.423 155.187 318.423C137.26 328.382 141.472 326.747 134.484 324.725C123.626 321.524 127.803 292.079 117.646 281.386C107.489 270.694 105.398 267.26 96.8651 269.722C88.3318 272.185 86.4745 266.081 85.4354 265.497C85.6692 267.13 82.4741 272.898 79.9025 273.714L78.0062 280.661L71.5121 273.727C63.2386 272.107 54.2898 265.199 54.2898 265.199C53.7832 266.249 55.5886 272.029 46.1721 269.67C40.8859 268.374 24.287 269.956 16.6889 288.696C0.830328 327.771 10.9871 372.108 23.248 382.165C30.3915 388.023 104.372 397.717 104.372 397.717L104.476 401.009L111.853 402.706C111.425 392.649 118.464 385.612 118.464 385.612L111.438 383.94H130.738C129.089 345.086 125.985 324.725 125.985 324.725C125.985 324.725 119.711 357.67 141.96 354.534C157.091 352.395 162.158 341.329 169.628 331.37C163.238 325.421 164.15 312.448 164.15 312.448Z" fill="#F4EBEA"/>
<path opacity="0.1" d="M104.515 379.856L100.346 351.94L96.4494 325.916L94.9817 316.079C95.9212 310.666 96.096 305.147 95.5012 299.685C94.709 291.779 95.0596 281.839 91.0593 272.676C91.0593 272.676 92.8127 280.763 92.2282 286.556C91.8645 290.198 89.15 301.162 90.9294 309.625C92.7088 318.088 95.6701 320.201 95.0986 331.826C94.5271 343.451 93.9556 362.451 104.515 379.856Z" fill="black"/>
<path d="M109.059 401.973L79.1257 395.004L80.1235 425.869H112.053L109.059 401.973Z" fill="#F4EBEA"/>
<path d="M108.786 402.081L112.27 426.481H106.796C104.806 423.493 104.308 417.02 104.806 413.036C105.303 409.052 106.298 404.571 97.3417 403.575C90.1763 402.778 82.4138 401.583 79.4282 401.085L77.9354 395.109L79.4282 395.607L108.786 402.081Z" fill="#DCD4D3"/>
<path d="M111.055 436.819L110.241 425.867H80.1232L80.5513 436.819H111.055Z" fill="black"/>
<path d="M103.57 436.819V425.867H90.1001V436.819H103.57Z" stroke="#FFD300" stroke-width="3"/>
<path d="M6.28635 288.544C11.2738 273.95 26.444 268.883 33.7434 268.222L54.3278 265.172C54.3278 265.172 62.1207 296.043 77.2 316.598L79.5119 367.078L112.528 383.926L112.32 384.133C110.557 386.023 109.219 388.267 108.395 390.714C107.571 393.161 107.279 395.756 107.54 398.325L107.644 401.616L104.566 400.942C104.566 400.942 59.5159 395.95 36.3839 390.714C34.4616 390.273 28.4165 388.635 28.4165 388.635L6.2863 379.072C6.2863 379.072 -7.8578 329.938 6.28635 288.544Z" fill="#CCD2DD"/>
<path d="M161.162 311.948L159.603 313.466C153.194 318.422 144.121 325.372 137.471 322.43C130.821 319.488 129.439 299.102 124.218 285.312C120.724 276.097 117.035 266.572 102.982 265.172L85.3828 265.47C85.7829 266.837 86.3638 268.144 87.1102 269.358L87.37 269.514C88.3554 269.933 89.377 270.263 90.4222 270.499C90.4222 270.499 97.8904 293.645 94.9941 316.092L104.657 380.776L112.528 383.926H130.712C129.062 345.045 128.504 348.83 128.504 348.83C128.504 348.83 115.222 366.873 137.471 363.736C150.134 361.948 159.603 351.785 167.24 334.592C165.24 331.313 159.941 319.594 161.162 311.948Z" fill="#CCD2DD"/>
<path d="M112.052 451.754L108.56 401.973C110.056 402.305 113.748 403.167 116.542 403.964L116.542 403.964C120.034 404.96 123.526 405.955 126.021 406.951C128.016 407.747 132.174 409.274 134.003 409.938L138.992 451.754H112.052Z" fill="#CCD2DD"/>
<path d="M81.1211 453.248L79.1255 395.501L18.7592 380.566L20.7548 402.47L13.7703 453.248H81.1211Z" fill="#CCD2DD"/>
<path d="M131.01 387.035L130.511 379.07L110.555 383.551L126.021 387.533C127.518 386.538 130.511 387.035 131.01 387.035Z" fill="#B8BFCD"/>
<path d="M18.721 381.664L78.9301 395.607L79.4277 401.085L19.2186 387.142L18.721 381.664Z" fill="#B8BFCD"/>
<path d="M74.5507 324.143L73.5376 317.443L69.784 323.132C65.0797 318.192 61.0885 312.622 57.9258 306.582C60.8173 313.246 64.8081 319.379 69.7321 324.726L73.4337 319.102L74.5507 324.143Z" fill="#B8BFCD"/>
<path d="M96.4629 322.133L98.2033 315.653L102.23 319.541C102.23 319.541 105.178 308.019 104.581 298.727C105.373 306.395 104.654 314.144 102.463 321.536L98.567 317.545L96.4629 322.133Z" fill="#B8BFCD"/>
<path d="M68.1999 362.466C68.1999 362.466 60.7837 358.176 57.9263 358.422C55.0689 358.668 40.212 356.173 40.212 356.173C40.212 356.173 39.4899 339.211 42.2075 329.789C42.2075 329.789 45.7044 343.414 48.4709 347.639C51.2374 351.864 54.2766 350.102 59.0952 353.899C63.9138 357.696 63.3813 359.939 68.1999 362.466Z" fill="#B8BFCD"/>
<path d="M103.554 229.65C102.938 226.805 101.956 224.052 100.632 221.459C100.632 221.459 100.489 225.438 96.7351 224.284C91.1891 222.586 83.2403 222.275 74.6551 230.453C66.0699 238.631 53.874 226.656 52.0167 220.357C50.1594 214.059 44.6004 199.284 48.7047 195.344C52.809 191.404 63.3814 197.081 74.785 193.141C86.1886 189.201 90.9943 179.935 92.2671 184.497C92.9405 186.983 93.7469 189.432 94.6829 191.832C94.6829 191.832 97.4754 175.373 93.2542 168.918C89.0331 162.464 81.0843 163.41 74.1486 165.938C67.2129 168.465 59.6408 167.234 55.9651 167.234C52.6863 167.394 49.4897 168.312 46.6273 169.916C43.7648 171.52 41.3147 173.765 39.4701 176.474C34.4177 183.861 28.586 182.604 27.9625 189.434C27.3391 196.264 36.9634 209.354 39.4701 211.752C41.1586 213.346 45.5356 221.316 49.3801 229.663C49.0424 230.855 48.0813 231.594 45.8343 231.114C47.5685 235.457 49.8093 239.581 52.5102 243.4C55.9391 248.066 66.5894 255.065 82.0194 255.22C85.7612 255.404 89.4928 254.693 92.9035 253.146C103.931 247.846 105.048 235.469 103.554 229.65Z" fill="#594423"/>
<path d="M65.186 243.893C59.1076 242.792 53.8733 240.005 51.7952 230.816C49.7171 221.628 37.3134 202.045 34.2741 193.919C31.2349 185.793 40.6254 185.935 41.3007 180.013C41.7294 176.319 44.8595 172.237 47.1454 169.645C44.0551 171.268 41.414 173.627 39.4564 176.513C34.404 183.901 28.5723 182.644 27.9489 189.474C27.3254 196.304 36.9497 209.393 39.4564 211.791C41.1449 213.385 45.5219 221.356 49.3664 229.702C49.0287 230.894 48.0676 231.633 45.8206 231.153C47.5549 235.496 49.7956 239.62 52.4966 243.44C55.9255 248.105 66.5758 255.104 82.0058 255.259C84.1865 255.34 86.3686 255.144 88.4999 254.676C78.2522 256.037 71.2515 244.995 65.186 243.893Z" fill="#3E2F1C"/>
<path d="M51.3027 167.908C51.3027 167.908 57.2643 173.092 68.1874 172.171C72.0579 171.873 82.9939 165.069 87.4229 167.908C91.8519 170.746 94.0469 175.502 92.2675 184.471C92.9409 186.957 93.7473 189.406 94.6833 191.806C94.6833 191.806 97.4758 175.373 93.2546 168.918C89.0335 162.464 81.0847 163.41 74.149 165.938C67.2133 168.465 59.6412 167.234 55.9655 167.234C54.3882 167.252 52.8203 167.478 51.3027 167.908Z" fill="#674F2D"/>
<path d="M103.552 229.648C102.937 226.803 101.955 224.05 100.63 221.457C100.63 221.457 100.487 225.436 96.7336 224.282C94.2188 223.47 91.567 223.167 88.9333 223.389C86.2995 223.612 83.7367 224.356 81.3945 225.578C81.7972 225.488 95.3439 222.299 99.0325 228.378C102.721 234.456 102.124 243.463 97.4609 250.086C104.189 244.047 104.812 234.534 103.552 229.648Z" fill="#674F2D"/>
<path d="M191.699 302.77C194.315 302.938 196.918 303.272 199.492 303.767C201.194 304.325 201.895 304.921 201.804 305.828C201.713 306.735 199.895 307.435 197.583 307.383L192.855 307.28L191.699 302.77Z" fill="#F4C7C3"/>
<path d="M447 298L337 350.668V541H447V298Z" fill="white"/>
<path d="M353 391.434L353 385.531L434.312 385.531L434.312 391.434L353 391.434Z" fill="#FF8139"/>
<path fill-rule="evenodd" clip-rule="evenodd" d="M413.439 391.986L352.877 391.986L352.877 386.977L413.439 391.986Z" fill="#D3662F"/>
<path d="M353.002 372.309L353.002 366.406L434.314 366.406L434.314 372.309L353.002 372.309Z" fill="#FF8139"/>
<path fill-rule="evenodd" clip-rule="evenodd" d="M429.023 372.245L352.623 372.245L352.623 366.367L429.023 372.245Z" fill="#D3662F"/>
<path d="M352.877 470.696L352.877 464.793L434.189 464.793L434.189 470.696L352.877 470.696Z" fill="#FF8139"/>
<path fill-rule="evenodd" clip-rule="evenodd" d="M431.486 470.54L352.623 470.54L352.623 464.637L354.223 464.637L431.486 470.54Z" fill="#D3662F"/>
<path d="M352.877 451.02L352.877 445.117L434.189 445.117L434.189 451.02L352.877 451.02Z" fill="#FF8139"/>
<path fill-rule="evenodd" clip-rule="evenodd" d="M420.226 451.392L352.623 451.392L352.623 445.488L354.849 445.488L420.226 451.392Z" fill="#D3662F"/>
<path d="M352.877 431.341L352.877 425.438L434.189 425.437L434.189 431.341L352.877 431.341Z" fill="#FF8139"/>
<path fill-rule="evenodd" clip-rule="evenodd" d="M424.408 430.965L352.623 430.965L352.623 425.48L424.408 430.965Z" fill="#D3662F"/>
<path d="M352.877 411.665L352.877 405.762L434.189 405.762L434.189 411.665L352.877 411.665Z" fill="#FF8139"/>
<path fill-rule="evenodd" clip-rule="evenodd" d="M416.787 411.818L352.623 411.818L352.623 406.277L416.787 411.818Z" fill="#D3662F"/>
<rect width="153.908" height="10.7367" rx="5.36833" transform="matrix(-0.865984 0.500072 0.499928 0.866067 456.645 282.09)" fill="#152D5D"/>
<path d="M213.254 380.753C213.254 380.753 225.202 379.146 234.765 367.253C234.765 367.253 232.38 377.252 245.134 388.703C253.969 396.61 247.078 438.728 243.357 446.16C243.357 446.16 278.605 480.89 335.982 453.075C335.982 453.075 321.572 400.629 320.523 370.975C319.231 337.303 315.333 315.655 303.539 283.865C291.746 252.076 288.952 234.535 290.553 217.797C292.154 201.06 291.348 174.853 261.842 168.522C232.336 162.19 228.846 196.887 228.846 196.887C228.846 196.887 226.24 241.251 237.846 251.415C248.017 260.378 265.453 249.003 265.453 249.003C265.453 249.003 269.495 269.583 264.812 276.851C264.812 276.851 258.353 284.239 242.396 290.593C225.732 297.2 223.06 345.649 214.226 354.524" fill="#E2BBA6"/>
<path d="M247.287 169.039C246.106 176.251 244.217 187.835 242.473 199.254C243.577 188.496 245.62 176.582 247.033 169.127L247.287 169.039Z" fill="#CEA999"/>
<path d="M228.868 196.93L242.473 199.253L241.788 209.604C241.656 215.285 244.949 215.566 246.351 217.724C252.226 226.786 251.94 209.141 256.798 209.604C261.657 210.066 263.708 216.343 260.218 225.768C256.729 235.194 269.273 237.815 270.355 243.1C271.438 248.385 279.863 278.149 270.355 288.334L255.79 283.93C259.088 281.985 262.117 279.62 264.801 276.894C269.483 269.626 265.441 249.046 265.441 249.046C265.441 249.046 248.016 260.421 237.835 251.458C236.992 250.704 236.25 249.845 235.626 248.903C229.829 240.788 229.001 220.186 228.835 215.77C228.669 211.354 228.868 196.93 228.868 196.93Z" fill="#CEA999"/>
<path d="M255.238 210.574C252.159 213.214 249.556 224.138 248.639 229.27C249.739 216.623 241.054 212.005 231.594 207.275C224.995 203.976 218.19 196.278 220.596 188.58C223.346 179.782 226.645 183.081 234.893 172.634C243.141 162.186 254.457 163.257 260.187 165.485C270.084 169.334 270.634 170.434 276.683 173.733C282.08 176.677 282.804 175.366 292.079 179.782C303.626 185.28 305.276 201.227 301.427 210.574C297.578 219.922 294.828 219.372 297.578 227.07C300.327 234.768 297.578 238.068 293.729 241.917C290.649 244.996 289.513 249.798 289.33 251.814C287.68 248.515 281.082 244.666 274.483 245.766C267.885 246.866 268.435 239.167 264.036 236.418C259.637 233.669 257.987 230.919 260.737 223.221C263.486 215.523 259.087 207.275 255.238 210.574Z" fill="#E9D694"/>
<path d="M221.146 196.829C220.046 194.629 218.727 189.021 222.246 184.182C226.645 178.133 228.294 181.982 233.793 174.284C239.292 166.586 245.34 162.187 257.437 164.386C269.534 166.586 272.284 173.184 283.831 176.484C295.08 179.698 302.154 183.433 303.529 198.874C303.596 199.345 303.626 199.767 303.626 200.128C303.598 199.702 303.565 199.284 303.529 198.874C303.049 195.519 300.672 189.689 293.728 185.831C283.831 180.333 277.782 180.333 266.235 174.284C254.688 168.236 246.44 165.486 239.292 174.284C232.143 183.082 225.545 182.532 223.346 186.931C221.146 191.33 221.146 192.43 221.146 196.829Z" fill="#FAE9B1"/>
<path d="M244.792 442.215C244.792 442.215 228.014 502.676 228.963 540.511H341.104H357.547C357.547 540.511 356.413 510.251 351.464 490.455C346.515 470.66 333.895 445.133 333.895 445.133C333.895 445.133 284.921 470.228 244.792 442.215Z" fill="#F4EFEF"/>
<path d="M202.45 342.544C182.65 361.494 150.762 371.136 134.266 368.387V392.378C146.364 396.335 184.854 400.829 210.295 385.971C210.295 385.971 221.145 381.584 229.943 372.236V409.392C229.943 409.392 228.723 469.396 228.723 483.882C228.723 483.882 305.951 522.232 349.391 478.243C349.391 478.243 347.157 447.789 344.127 399.015C341.357 354.415 344.315 309.551 316.272 287.557C306.149 279.617 299.664 270.734 299.664 270.734C296.811 269.377 285.471 268.751 262.935 277.109C257.527 284.703 247.539 285.357 238.191 291.956C215.097 308.258 217.711 327.943 202.45 342.544Z" fill="#152D5D"/>
<g style="mix-blend-mode:multiply" opacity="0.3">
<path d="M298.482 456.992C298.284 458.325 298.096 459.624 297.908 460.912C298.096 459.624 298.284 458.325 298.482 456.992Z" fill="black"/>
</g>
<g style="mix-blend-mode:multiply" opacity="0.3">
<path d="M298.637 455.98C298.637 455.628 298.736 455.275 298.791 454.879C298.747 455.275 298.681 455.628 298.637 455.98Z" fill="black"/>
</g>
<path d="M297.976 519.602L302.525 540.496H291.528C293.728 530.599 297.277 521.984 297.976 519.602Z" fill="#152D5D"/>
<path d="M298.128 519.599L302.527 540.494H311.324L306.925 524.548L318.473 517.949C313.194 518.829 302.71 519.416 298.128 519.599Z" fill="#C4C4C4"/>
<path fill-rule="evenodd" clip-rule="evenodd" d="M243.23 488.784C234.557 476.093 236.767 435.471 243.688 416.305C249.275 400.834 242.927 376.682 238.985 361.687C237.96 357.786 237.098 354.505 236.65 352.158C235.499 346.111 229.907 351.921 221.748 360.398C214.56 367.865 205.381 377.402 195.489 382.729C180.464 390.819 151.477 389.802 134.578 387.828V391.45C146.675 395.407 185.166 399.902 210.606 385.043C210.606 385.043 221.457 380.656 230.255 371.309V408.464C230.255 408.464 229.034 468.468 229.034 482.954C229.034 482.954 234.454 485.645 243.23 488.784Z" fill="#081B42"/>
<path d="M133.844 392.768V369.294C133.844 368.228 134.68 367.349 135.745 367.297L150.983 366.545C152.125 366.489 153.081 367.399 153.081 368.543V395.696C153.081 396.952 151.937 397.897 150.704 397.66L135.466 394.732C134.525 394.551 133.844 393.727 133.844 392.768Z" fill="#666A6A"/>
<ellipse cx="143.031" cy="372.668" rx="2.26139" ry="2.15587" fill="#FFD300"/>
<path d="M63.1308 315.948L115.632 372.858L164.928 358.03L113.228 302.723L63.1308 315.948Z" fill="#E1E1E1"/>
<path d="M112.979 310.926L99.2983 315.376" stroke="black"/>
<path d="M114.68 342.375L100.999 346.825" stroke="black"/>
<path d="M133.086 348.508C129.899 346.75 124.845 343.266 130.119 343.398C136.712 343.563 146.766 354.112 139.514 353.452C133.712 352.925 127.427 349.167 125.01 347.354C126.877 349.661 130.053 354.112 127.811 353.452C125.57 352.793 122.702 349.881 121.548 348.508C122.647 350.43 123.922 353.881 120.23 352.298C115.615 350.321 118.911 352.298 116.768 352.298C115.054 352.298 108.033 352.298 104.736 352.298" stroke="black"/>
<path d="M117.758 317.191L84.7938 328.07M122.668 322.471L89.7038 333.349M127.959 328.07L94.9946 338.948" stroke="black"/>
<path d="M123.484 369.136C126.871 370.124 131.874 372.502 133.815 372.385V389.343C120.445 383.812 101.864 375.766 92.7774 364.428C85.5084 355.358 83.0087 344.171 84.5889 338.43C92.5725 348.48 107.53 364.658 107.53 363.388C107.53 361.8 107.354 354.92 106.295 352.098C105.237 349.275 100.282 344.613 102.399 342.319C104.516 340.026 110.265 348.802 115.91 356.035C121.555 363.268 119.25 367.902 123.484 369.136Z" fill="#E2BBA6"/>
</svg>
