<svg width="470" height="541" viewBox="0 0 470 541" fill="none" xmlns="http://www.w3.org/2000/svg">
<path d="M0 160C0 99.2487 49.2487 50 110 50H157C228.797 50 287 108.203 287 180V362H0V160Z" fill="#E1E1E1"/>
<path d="M296.999 362H0.999451C9.99945 426.5 84.9995 492.5 201.999 494C318.999 495.5 360.499 449.5 359.999 409.5C359.599 377.5 317.833 364.5 296.999 362Z" fill="white"/>
<rect width="93" height="7" transform="matrix(-1 0 0 1 170 416)" fill="white"/>
<rect width="93" height="7" transform="matrix(-1 0 0 1 380 156)" fill="white"/>
<rect width="93" height="7" transform="matrix(-1 0 0 1 380 276)" fill="white"/>
<rect width="7" height="314" transform="matrix(-1 0 0 1 287 102)" fill="white"/>
<rect width="204" height="7" transform="matrix(-1 0 0 1 281 156)" fill="white"/>
<path d="M280 90V154C280 155.105 279.105 156 278 156H266C264.895 156 264 155.105 264 154V90C264 88.8954 264.895 88 266 88H278C279.105 88 280 88.8954 280 90Z" fill="#666A6A"/>
<circle r="3.5" transform="matrix(-1 0 0 1 272.5 148.5)" fill="white"/>
<path d="M264 90V154C264 155.105 263.105 156 262 156H250C248.895 156 248 155.105 248 154V90C248 88.8954 248.895 88 250 88H262C263.105 88 264 88.8954 264 90Z" fill="#FF8139"/>
<circle r="3.5" transform="matrix(-1 0 0 1 256.5 148.5)" fill="white"/>
<path d="M214 90V154C214 155.105 213.105 156 212 156H200C198.895 156 198 155.105 198 154V90C198 88.8954 198.895 88 200 88H212C213.105 88 214 88.8954 214 90Z" fill="#FF8139"/>
<circle r="3.5" transform="matrix(-1 0 0 1 206.5 148.5)" fill="white"/>
<path d="M198 90V154C198 155.105 197.105 156 196 156H184C182.895 156 182 155.105 182 154V90C182 88.8954 182.895 88 184 88H196C197.105 88 198 88.8954 198 90Z" fill="#666A6A"/>
<circle r="3.5" transform="matrix(-1 0 0 1 190.5 148.5)" fill="white"/>
<rect x="225.188" y="100.094" width="7" height="56" transform="rotate(11.901 225.188 100.094)" fill="#666A6A"/>
<rect x="232.406" y="100" width="7" height="56" transform="rotate(8.2814 232.406 100)" fill="#666A6A"/>
<rect x="240.031" y="100" width="7" height="56" transform="rotate(5.52849 240.031 100)" fill="#666A6A"/>
<circle r="3.5" transform="matrix(-1 0 0 1 223.5 276.5)" fill="white"/>
<path d="M380 210V274C380 275.105 379.105 276 378 276H366C364.895 276 364 275.105 364 274V210C364 208.895 364.895 208 366 208H378C379.105 208 380 208.895 380 210Z" fill="#666A6A"/>
<circle r="3.5" transform="matrix(-1 0 0 1 372.5 266.5)" fill="white"/>
<path d="M364 210V274C364 275.105 363.105 276 362 276H350C348.895 276 348 275.105 348 274V210C348 208.895 348.895 208 350 208H362C363.105 208 364 208.895 364 210Z" fill="#FF8139"/>
<circle r="3.5" transform="matrix(-1 0 0 1 356.5 266.5)" fill="white"/>
<circle r="3.5" transform="matrix(-1 0 0 1 223.5 276.5)" fill="white"/>
<rect x="326.188" y="220.094" width="7" height="56" transform="rotate(11.901 326.188 220.094)" fill="#666A6A"/>
<rect x="333.406" y="220" width="7" height="56" transform="rotate(8.2814 333.406 220)" fill="#666A6A"/>
<rect x="341.031" y="220" width="7" height="56" transform="rotate(5.52849 341.031 220)" fill="#666A6A"/>
<path d="M77.6367 210V274C77.6367 275.105 78.5321 276 79.6367 276H91.6367C92.7413 276 93.6367 275.105 93.6367 274V210C93.6367 208.895 92.7413 208 91.6367 208H79.6367C78.5321 208 77.6367 208.895 77.6367 210Z" fill="#666A6A"/>
<circle cx="85.1367" cy="266.5" r="3.5" fill="white"/>
<path d="M93.6367 210V274C93.6367 275.105 94.5321 276 95.6367 276H107.637C108.741 276 109.637 275.105 109.637 274V210C109.637 208.895 108.741 208 107.637 208H95.6367C94.5321 208 93.6367 208.895 93.6367 210Z" fill="#FF8139"/>
<circle cx="101.137" cy="266.5" r="3.5" fill="white"/>
<rect width="7" height="56" transform="matrix(-0.978505 0.206221 0.206221 0.978505 131.453 220.094)" fill="#666A6A"/>
<rect width="7" height="56" transform="matrix(-0.989573 0.144035 0.144035 0.989573 124.23 220)" fill="#666A6A"/>
<rect width="7" height="56" transform="matrix(-0.995348 0.0963407 0.0963407 0.995348 116.605 220)" fill="#666A6A"/>
<rect width="7" height="271" transform="matrix(-1 0 0 1 77 102)" fill="white"/>
<rect width="204" height="7" transform="matrix(-1 0 0 1 281 276)" fill="white"/>
<path d="M75.7355 423.735C66.1355 417.745 79.7355 415.583 87.7355 415.25L210.235 423.735L251.235 434.216L232.235 484.624C222.902 477.637 205.835 464.461 198.235 459.669C188.735 453.68 167.235 456.675 140.735 451.684C114.235 446.693 87.7355 431.221 75.7355 423.735Z" fill="#E1E1E1"/>
<path d="M21.5 372.474C8.7 369.679 2.66667 363.828 1.5 361L8.5 358L138 390.441V399.924C132.333 401.255 119.2 402.12 112 394.933C103 385.949 37.5 375.967 21.5 372.474Z" fill="#000C0E"/>
<path d="M109.551 371.023C110.402 370.175 111.415 369.504 112.53 369.052C115.671 368.525 118.841 368.179 122.022 368.016C123.714 368.016 130.43 370.945 130.926 371.271C131.423 371.598 131.716 373.243 129.132 373.164C126.547 373.085 109.551 371.023 109.551 371.023Z" fill="#E5B9B7"/>
<path d="M201.122 300.253C198.06 302.515 195.164 304.992 192.455 307.665C188.99 311.203 182.072 314.83 177.422 313.895L187.478 292.423C187.478 292.423 193.459 288.773 196.247 288.312C199.034 287.85 210.501 289.652 214.62 291.398C214.772 291.45 214.91 291.534 215.027 291.644C215.144 291.754 215.236 291.888 215.296 292.036C215.357 292.184 215.386 292.344 215.38 292.504C215.374 292.664 215.334 292.821 215.263 292.964C215.263 292.964 216.696 293.471 216.798 294.237C217.001 295.713 214.778 295.679 212.735 295.578C212.735 295.578 213.108 297.076 210.783 297.245C207.307 297.072 203.883 298.138 201.122 300.253Z" fill="#F4C7C3"/>
<path d="M182.625 313.47C183.617 313.162 184.586 312.785 185.525 312.344C184.59 312.795 183.62 313.172 182.625 313.47Z" fill="#E5B9B7"/>
<path d="M181.777 313.695C182.048 313.627 182.331 313.559 182.613 313.469C182.094 313.627 181.777 313.695 181.777 313.695Z" fill="#E5B9B7"/>
<path d="M185.527 312.386L186.205 312.07L185.527 312.386Z" fill="#E5B9B7"/>
<path d="M189.364 293.327C189.364 293.327 190.335 292.775 191.622 292.099C193.466 291.077 195.434 290.297 197.479 289.779C200.199 289.351 206.857 291.074 209.047 291.525C211.236 291.975 215.231 292.967 215.231 292.967C214.994 294.431 216.778 294.521 216.778 294.521C216.631 295.569 215.22 295.558 214.069 295.648C213.147 295.656 212.226 295.557 211.327 295.355C211.346 295.957 211.573 296.534 211.97 296.988C211.599 297.199 211.177 297.301 210.751 297.281C208.007 297.278 205.301 297.918 202.851 299.151C199.578 301.078 196.339 304.142 191.746 308.355C190.106 309.848 188.258 311.096 186.261 312.061H186.171L185.493 312.377C184.554 312.819 183.585 313.195 182.593 313.503C182.311 313.594 182.029 313.661 181.758 313.729L189.364 293.327Z" fill="#E5B9B7"/>
<path d="M199.902 288.199C204.417 288.12 199.316 285.101 196.618 284.526C193.921 283.952 187.906 283.107 186.01 285.653C184.114 288.199 169.792 308.499 167.557 309.434C165.323 310.369 151.701 312.352 151.701 312.352C126.466 315.236 116.591 313.151 110.812 310.594C105.034 308.037 104.357 292.57 95.5313 283.298C86.7058 274.027 87.2927 264.395 79.8328 266.513C71.233 268.946 71.3571 266.107 71.3571 266.107L70.6349 264.812C68.803 260.203 67.6033 255.367 67.0685 250.437C70.8154 251.237 70.522 251.496 73.9755 250.561C94.2899 245.008 75.4765 190.652 75.4765 190.652C69.89 175.827 32.6582 187.656 27.9745 195.947C23.4602 203.923 30.006 216.078 30.006 216.078C25.3562 215.909 24.8258 219.661 24.8258 219.661C23.8778 227.727 35.4909 232.954 35.4909 232.954L36.6195 234.373C46.9347 248.872 44.3502 259.157 42.4316 263.539C42.0028 264.451 38.3688 266.581 34.6445 266.513C29.9044 266.445 16.8016 266.772 10.1994 283.062C-2.33911 313.963 9.22883 359.824 15.8987 364.307C22.5686 368.791 86.3898 377.826 86.3898 377.826L92.8904 382.163L100.61 384.416C103.082 385.238 107.968 387.435 114.153 389.08C121.906 391.107 123.035 391.569 125.134 391.828C127.493 392.11 127.109 392.335 130.077 392.606C132.334 392.808 132.334 390.995 132.334 390.995L136.239 391.997C139.422 391.783 138.113 388.156 138.113 388.156C138.491 388.018 138.828 387.787 139.094 387.486C139.361 387.184 139.547 386.821 139.637 386.429C139.727 386.037 139.717 385.629 139.608 385.242C139.5 384.855 139.296 384.501 139.016 384.213C138.338 383.661 132.244 380.169 130.957 379.346C129.671 378.524 124.581 375.685 124.581 375.685C124.581 375.685 131.973 377.679 132.391 378.242C134.523 380.022 136.754 381.68 139.072 383.21C140.415 383.886 141.735 381.712 140.878 380.574C140.02 379.437 135.054 374.626 132.786 373.635C130.517 372.644 126.59 369.681 124.75 368.836C122.911 367.991 122.493 369.647 117.2 369.501C111.907 369.354 113.814 369.433 112.99 369.264C112.167 369.095 111.027 368.419 109.605 368.137C108.202 368.096 106.804 368.337 105.497 368.847L92.5406 365.851H109.311C107.878 332.077 105.181 314.379 105.181 314.379C105.181 314.379 99.7297 343.016 119.062 340.29C138.395 337.563 171.101 319.133 172.692 318.153C173.403 317.714 175.311 316.587 177.511 314.943C187.985 313.557 184.994 304.364 191.427 304.364C198.864 304.364 200.343 303.936 200.343 302.562C200.343 301.188 192.916 300.478 188.075 300.309C188.876 296.839 188.989 293.55 190.219 290.497C191.641 286.926 196.551 288.255 199.902 288.199Z" fill="#F4C7C3"/>
<path d="M213.477 293.039L198.403 287.314C196.751 286.686 194.917 287.616 194.446 289.32L192.458 296.517C191.976 298.26 193.127 300.078 194.862 300.585C200.074 302.109 207.497 305.148 208.698 305.371C210.194 305.648 211.105 304.45 211.374 303.816C212.027 301.924 213.487 297.667 214.109 295.777C214.731 293.887 213.947 293.164 213.477 293.039Z" fill="#E3C14C"/>
<path opacity="0.1" d="M76.933 249.255C81.5715 244.658 78.8516 231.726 79.7432 227.073C80.6348 222.421 72.904 218.252 73.0846 206.39C73.22 197.535 67.6448 188.095 64.8008 183.859C69.8907 184.501 73.9197 186.563 75.4771 190.697C75.4771 190.697 92.3155 239.273 76.933 249.255Z" fill="black"/>
<path opacity="0.1" d="M67.0377 267.493C65.4013 265.984 62.7266 249.469 62.7266 249.469L67.0377 250.595C67.5713 255.525 68.771 260.361 70.6041 264.97L71.3263 266.265C71.3263 266.265 74.1591 268.158 79.8584 267.302L78.5944 267.73C74.7121 268.575 68.6742 269.003 67.0377 267.493Z" fill="black"/>
<path d="M141.184 313.368C123.544 314.619 115.712 312.805 110.814 310.631C105.036 308.062 106.762 291.75 98.7382 279.088C91.8878 268.262 87.2944 264.443 79.8345 266.583C78.3899 266.989 80.8954 266.583 79.7104 266.752V265.401C75.9748 263.44 69.903 262.877 69.903 262.877C70.0272 263.226 70.9075 265.896 71.3589 266.144C71.8103 266.392 68.5826 266.899 68.5826 266.899C67.9538 268.346 67.0046 269.633 65.8063 270.662L63.1203 287.345L56.7551 272.25C48.618 270.515 42.8848 262.641 42.8848 262.641C41.2555 262.782 39.6952 263.362 38.3705 264.319C37.7611 264.229 36.4971 266.707 35.7748 266.572C31.1814 265.446 15.4603 267.699 7.65055 283.38C4.65982 289.475 0.698501 305.37 0.393785 315.374C0.393785 315.374 -0.93794 341.487 1.29665 361.088C1.29665 361.088 17.5369 365.594 25.1548 367.262C37.0275 370.078 57.1952 373.367 71.1445 375.508L72.4649 359.838L92.5423 365.853H109.313C107.88 332.08 105.182 314.382 105.182 314.382C105.182 314.382 99.7314 343.019 119.064 340.292C126.005 339.312 134.661 336.305 142.99 332.812L141.184 313.368Z" fill="#00181B"/>
<path d="M72.7115 356.985L71.0976 375.505L53.3789 372.666L54.8573 350.135C55.1694 349.785 55.5641 349.519 56.0055 349.359C56.4469 349.2 56.9212 349.153 57.3854 349.223C58.9089 349.527 60.4212 352.355 60.4212 352.355C60.6278 352.044 60.9159 351.795 61.2542 351.636C61.5925 351.477 61.968 351.414 62.3398 351.453C63.5587 351.645 64.6647 353.966 64.6647 353.966C64.8647 353.247 65.3166 352.624 65.9381 352.211C66.5595 351.797 67.3092 351.62 68.0504 351.712C70.6349 352.096 72.7115 356.985 72.7115 356.985Z" fill="#E0DEDE"/>
<path d="M62.3434 288.866L55.5719 278.412L52.7731 288.382L42.9883 276.711L52.6602 289.959C52.6602 289.959 54.0596 286.681 55.6397 286.681C57.2197 286.681 57.7163 290.928 62.3434 288.866Z" fill="#E0DEDE"/>
<path d="M64.8008 288.359L67.3175 277.939L71.8318 284.022L73.5924 276.711L72.193 285.723C71.8865 285.944 71.5371 286.097 71.1674 286.174C70.7976 286.251 70.4158 286.25 70.0466 286.17C69.6775 286.091 69.3292 285.934 69.0243 285.712C68.7194 285.489 68.4648 285.205 68.2768 284.878C66.7758 282.422 64.8008 288.359 64.8008 288.359Z" fill="#E0DEDE"/>
<path d="M54.8602 350.183C54.8602 350.183 43.8566 344.551 40.9448 343.571L32.3789 340.698L36.4305 316.5C36.4305 316.5 32.8755 330.852 35.4599 333.398C38.0444 335.944 43.5067 333.657 46.7457 340.732C49.9848 347.806 54.8602 350.183 54.8602 350.183Z" fill="#E0DEDE"/>
<path d="M107.508 331.875C99.3142 323.212 115.114 318.886 108.083 316.757C101.052 314.628 103.648 301.785 103.648 301.785L105.183 314.38C105.183 314.38 99.7318 343.016 119.064 340.29C121.483 339.925 123.877 339.409 126.231 338.747C123.184 339.017 114.2 338.961 107.508 331.875Z" fill="#E0DEDE"/>
<path d="M65.7383 262.617L65.7496 262.628L65.7383 262.617Z" fill="#F4EBEA"/>
<path d="M160.089 311.059C155.947 311.769 151.704 312.388 151.704 312.388C126.469 315.272 117.073 313.26 111.001 311.503C101.566 308.72 106.764 286.005 97.9382 276.711C89.1127 267.417 87.2957 264.432 79.8809 266.572C72.4661 268.713 70.8523 263.407 69.9494 262.9C70.1525 264.319 67.3762 269.332 65.1416 270.042L63.4939 276.08L57.851 270.053C50.662 268.645 42.8861 262.641 42.8861 262.641C42.4459 263.553 44.0146 268.577 35.8324 266.527C31.2391 265.401 16.8159 266.775 10.2137 283.065C-3.56629 317.03 5.34743 354.261 16.0012 363.003C22.2084 368.095 86.4041 377.828 86.4041 377.828L86.4944 380.69L92.9047 382.166C92.5323 373.424 98.6492 367.307 98.6492 367.307L92.5436 365.853H109.314C107.881 332.08 105.184 314.382 105.184 314.382C105.184 314.382 99.7326 343.019 119.065 340.292C132.213 338.434 151.534 329.331 163.08 323.394C157.527 318.224 160.089 311.059 160.089 311.059Z" fill="white"/>
<path d="M65.7383 262.617L65.7496 262.628L65.7383 262.617Z" fill="#F4EBEA"/>
<path d="M65.7383 262.617L65.7496 262.628L65.7383 262.617Z" fill="#292289"/>
<path d="M7.31281 282.534C11.6466 269.85 24.8284 265.445 31.171 264.87L42.9195 262.617C42.9195 262.617 49.691 289.451 62.7938 307.318L64.8027 351.196L93.4912 365.841L93.3106 366.022C91.779 367.664 90.6162 369.615 89.9 371.742C89.1838 373.869 88.9306 376.124 89.1574 378.357L89.2477 381.218L86.573 380.633C86.573 380.633 46.9937 372.206 26.8937 367.655C25.2234 367.272 23.6885 366.911 22.3229 366.528L4.11893 362.022C4.11893 362.022 -4.97742 318.516 7.31281 282.534Z" fill="#00181B"/>
<path d="M154.083 312.027L151.702 312.387C126.467 315.271 116.592 313.187 110.813 310.63C105.035 308.073 108.184 292.11 103.647 280.123C100.611 272.114 97.4058 263.834 85.1946 262.617L69.9023 262.876C70.25 264.064 70.7548 265.201 71.4034 266.256L71.6291 266.391C72.4853 266.756 73.373 267.043 74.2812 267.247C74.2812 267.247 80.7706 287.367 78.2538 306.879L86.6505 363.104L93.4897 365.841H109.29C107.856 332.045 107.371 335.335 107.371 335.335C107.371 335.335 99.7081 343.052 119.041 340.325C130.044 338.771 146.871 336.36 158.338 330.75C156.6 327.9 153.022 318.673 154.083 312.027Z" fill="#00181B"/>
<path d="M60.4888 313.874L59.6085 308.05L56.3469 312.995C52.2592 308.701 48.7911 303.859 46.043 298.609C48.5555 304.402 52.0232 309.733 56.3018 314.381L59.5182 309.492L60.4888 313.874Z" fill="#1C2223"/>
<path d="M79.5312 312.126L81.0435 306.494L84.5421 309.873C84.5421 309.873 87.104 299.858 86.5849 291.781C87.2739 298.447 86.649 305.182 84.7453 311.608L81.3595 308.138L79.5312 312.126Z" fill="#1C2223"/>
<path d="M54.9702 347.185C54.9702 347.185 48.5261 343.456 46.0432 343.67C43.5603 343.884 37.7368 343.67 37.7368 343.67C37.7368 343.67 34.7461 328.102 34.7461 321.41C34.7461 321.41 35.4232 330.625 37.8271 334.298C40.231 337.97 42.8719 336.438 47.0589 339.739C51.2459 343.04 50.7832 344.988 54.9702 347.185Z" fill="#000C0E"/>
<path d="M158.361 330.761C158.361 330.761 158.88 329.409 158.361 325.793L156.465 326.728C156.978 328.125 157.612 329.475 158.361 330.761Z" fill="#F5F5F5"/>
<path opacity="0.1" d="M86.5288 362.305L82.9061 338.039L79.5203 315.419L78.245 306.868C79.0614 302.162 79.2133 297.366 78.6965 292.618C78.008 285.746 78.3128 277.105 74.8367 269.141C74.8367 269.141 76.3603 276.17 75.8525 281.206C75.5365 284.371 73.1777 293.902 74.7239 301.258C76.27 308.614 78.8432 310.451 78.3466 320.556C77.85 330.661 77.3535 347.175 86.5288 362.305Z" fill="black"/>
<path d="M85.6929 231.738C85.158 229.266 84.3045 226.873 83.1536 224.619C83.1536 224.619 83.0294 228.077 79.7679 227.075C74.9488 225.599 68.0419 225.328 60.582 232.437C53.1221 239.545 42.5247 229.136 40.9108 223.661C39.297 218.186 34.4666 205.344 38.033 201.919C41.5993 198.494 50.7859 203.429 60.6948 200.004C70.6038 196.579 74.7795 188.525 75.8855 192.49C76.4706 194.651 77.1714 196.78 77.9847 198.866C77.9847 198.866 80.4111 184.559 76.7433 178.949C73.0754 173.339 66.1685 174.161 60.1418 176.358C54.1152 178.555 47.5356 177.485 44.3417 177.485C41.4927 177.624 38.7151 178.422 36.2278 179.816C33.7405 181.21 31.6116 183.162 30.0088 185.517C25.6186 191.938 20.5513 190.845 20.0095 196.782C19.4678 202.719 27.8306 214.097 30.0088 216.181C31.4759 217.567 35.2792 224.495 38.6198 231.75C38.3264 232.786 37.4912 233.428 35.5388 233.011C37.0457 236.786 38.9927 240.371 41.3397 243.691C44.3192 247.746 53.5735 253.83 66.981 253.965C70.2324 254.124 73.4748 253.506 76.4385 252.162C86.0202 247.555 86.9908 236.797 85.6929 231.738Z" fill="#594423"/>
<path d="M52.3542 244.117C47.0724 243.16 42.5243 240.738 40.7185 232.75C38.9128 224.763 28.1349 207.741 25.494 200.678C22.8531 193.615 31.0128 193.739 31.5996 188.59C31.972 185.38 34.6919 181.831 36.6782 179.578C33.9929 180.989 31.698 183.04 29.997 185.549C25.6069 191.97 20.5395 190.877 19.9978 196.814C19.4561 202.751 27.8189 214.129 29.997 216.213C31.4642 217.599 35.2675 224.527 38.6081 231.782C38.3147 232.818 37.4795 233.46 35.5271 233.043C37.034 236.818 38.981 240.403 41.328 243.723C44.3074 247.778 53.5618 253.862 66.9693 253.997C68.8642 254.067 70.7603 253.897 72.6122 253.49C63.7077 254.673 57.6247 245.075 52.3542 244.117Z" fill="#3E2F1C"/>
<path d="M40.2891 178.07C40.2891 178.07 45.4692 182.577 54.9606 181.777C58.3238 181.518 67.8264 175.603 71.6749 178.07C75.5233 180.538 77.4306 184.672 75.8845 192.468C76.4696 194.629 77.1703 196.757 77.9836 198.844C77.9836 198.844 80.4101 184.559 76.7422 178.949C73.0743 173.339 66.1674 174.161 60.1408 176.358C54.1142 178.555 47.5345 177.485 44.3407 177.485C42.9701 177.5 41.6077 177.697 40.2891 178.07Z" fill="#674F2D"/>
<path d="M85.6911 231.737C85.1562 229.264 84.3027 226.871 83.1518 224.617C83.1518 224.617 83.0276 228.076 79.766 227.073C77.5809 226.367 75.2767 226.103 72.9881 226.297C70.6996 226.49 68.4726 227.137 66.4375 228.2C66.7874 228.121 78.5584 225.349 81.7636 230.633C84.9688 235.916 84.4496 243.746 80.398 249.502C86.2441 244.253 86.7858 235.984 85.6911 231.737Z" fill="#674F2D"/>
<path d="M190.84 300.492C193.113 300.639 195.375 300.929 197.611 301.36C199.09 301.844 199.699 302.362 199.62 303.151C199.541 303.939 197.961 304.548 195.952 304.503L191.844 304.413L190.84 300.492Z" fill="#F4C7C3"/>
<path d="M116.734 330.5L116.234 332.5L97.2344 335C97.2344 333.4 97.901 331.667 98.2344 331L100.234 334L102.234 331L104.234 333.5L105.734 331L107.234 333.5L109.234 330.5L110.734 333L112.734 330.5L114.234 332.5L116.734 330.5Z" fill="white"/>
<path d="M119.234 407.262H212.234C214.996 407.262 217.234 409.5 217.234 412.262V428.215C217.234 430.976 214.996 433.215 212.234 433.215H119.234V407.262Z" fill="#F5F5F5"/>
<path d="M165.234 356.855L86.2344 363.344L103.734 363.843L112.734 405.267L118.734 407.264L200.234 409.759V399.777L186.234 363.843L165.234 356.855Z" fill="#F5F5F5"/>
<path d="M86.7344 363V416.403L113.234 405.423L103.734 363.499L86.7344 363Z" fill="#E1E1E1"/>
<path d="M160.23 396.895L154.254 397.632L155.952 402.559L161.927 401.822L160.23 396.895Z" fill="#152D5D"/>
<path d="M168.702 396.059L162.727 396.796L164.424 401.723L170.4 400.986L168.702 396.059Z" fill="#152D5D"/>
<path d="M177.655 394.703L171.68 395.44L173.378 400.368L179.353 399.631L177.655 394.703Z" fill="#152D5D"/>
<path d="M186.609 393.348L180.633 394.085L182.331 399.012L188.306 398.275L186.609 393.348Z" fill="#152D5D"/>
<path d="M162.777 404.551L156.801 405.288L158.499 410.215L164.474 409.478L162.777 404.551Z" fill="#152D5D"/>
<path d="M171.249 403.715L165.274 404.452L166.971 409.379L172.947 408.643L171.249 403.715Z" fill="#152D5D"/>
<path d="M180.202 402.36L174.227 403.096L175.924 408.024L181.9 407.287L180.202 402.36Z" fill="#152D5D"/>
<path d="M189.155 401.008L183.18 401.745L184.878 406.672L190.853 405.935L189.155 401.008Z" fill="#152D5D"/>
<path d="M165.777 411.539L159.801 412.276L161.499 417.204L167.474 416.467L165.777 411.539Z" fill="#152D5D"/>
<path d="M174.249 410.703L168.274 411.44L169.971 416.368L175.947 415.631L174.249 410.703Z" fill="#152D5D"/>
<path d="M183.202 409.348L177.227 410.085L178.924 415.012L184.9 414.275L183.202 409.348Z" fill="#152D5D"/>
<path d="M192.155 407.992L186.18 408.729L187.878 413.657L193.853 412.92L192.155 407.992Z" fill="white"/>
<path d="M192.155 407.992L186.18 408.729L187.878 413.657L193.853 412.92L192.155 407.992Z" fill="white"/>
<path d="M86.7344 395.785L119.234 407.264V430.722L86.7344 417.246V395.785Z" fill="#E1E1E1"/>
<path d="M108.362 358.351C113.962 362.743 113.695 371.827 112.862 375.819L132.234 373.823C133.401 369.165 133.262 360.348 124.862 354.359C116.462 348.369 115.568 336.558 116.234 332.398L97.3618 334.395C96.3618 344.876 101.362 352.861 108.362 358.351Z" fill="white"/>
<path d="M178.234 369.332L146.234 372.327L152.734 395.285L186.234 391.292L178.234 369.332Z" fill="#00181B"/>
<line y1="-0.5" x2="15.0333" y2="-0.5" transform="matrix(0.997793 -0.0663977 0.0666405 0.997777 99.2344 337.391)" stroke="black"/>
<line y1="-0.5" x2="10.0499" y2="-0.5" transform="matrix(0.995055 -0.0993233 0.0996844 0.995019 104.234 341)" stroke="black"/>
<line y1="-0.5" x2="13.153" y2="-0.5" transform="matrix(0.98837 -0.152067 -0.152067 -0.98837 102.234 345)" stroke="black"/>
<line y1="-0.5" x2="9.21959" y2="-0.5" transform="matrix(0.976185 -0.216942 -0.216942 -0.976184 107.234 349)" stroke="black"/>
<line y1="-0.5" x2="6.82191" y2="-0.5" transform="matrix(0.992305 -0.123816 0.124254 0.99225 153.234 392.059)" stroke="white"/>
<line y1="-0.5" x2="6.82191" y2="-0.5" transform="matrix(0.992305 -0.123816 0.124254 0.99225 160.852 391.215)" stroke="white"/>
<line y1="-0.5" x2="6.82191" y2="-0.5" transform="matrix(0.992306 -0.123811 0.124259 0.99225 168.465 390.371)" stroke="white"/>
<line y1="-0.5" x2="6.82191" y2="-0.5" transform="matrix(0.992305 -0.123816 0.124254 0.99225 176.234 389.141)" stroke="white"/>
<g style="mix-blend-mode:multiply" opacity="0.3">
<path d="M281.677 493.638C281.677 493.32 281.767 493.002 281.816 492.645C281.777 493.002 281.717 493.32 281.677 493.638Z" fill="black"/>
</g>
<path d="M218.779 259.938L231.045 262.033L230.427 271.371C230.308 276.497 230.716 280.609 231.981 282.556C237.277 290.732 239.388 271.629 243.768 272.047C248.149 272.464 250.189 277.451 247.043 285.954C243.897 294.457 255.207 296.821 256.183 301.589C257.158 306.357 264.755 333.208 256.183 342.397L243.051 338.423C246.024 336.669 248.755 334.535 251.175 332.076C255.396 325.519 251.753 306.953 251.753 306.953C251.753 306.953 236.042 317.215 226.863 309.129C226.104 308.449 225.434 307.674 224.872 306.824C219.645 299.503 218.899 280.917 218.749 276.934C218.6 272.951 218.779 259.938 218.779 259.938Z" fill="#CEA999"/>
<path d="M284.484 333.922C284.484 333.922 289.243 337.895 293.534 349.816C297.825 361.736 286.664 342.952 286.664 342.952L285.35 336.306L284.484 333.922Z" fill="#292289"/>
<path d="M235.387 234.773C234.321 241.28 232.619 251.73 231.046 262.031C232.042 252.326 233.883 241.578 235.158 234.853L235.387 234.773Z" fill="#CEA999"/>
<path d="M204.7 425.771C204.7 425.771 215.472 424.32 224.094 413.592C224.094 413.592 221.943 422.612 233.442 432.943C241.407 440.075 235.194 478.071 231.839 484.776C231.839 484.776 263.618 516.107 315.348 491.015C315.348 491.015 302.355 443.701 301.41 416.949C300.245 386.572 296.731 367.043 286.098 338.365C275.465 309.686 272.946 293.862 274.39 278.763C275.834 263.664 275.107 240.022 248.505 234.31C221.904 228.598 218.758 259.899 218.758 259.899C218.758 259.899 216.408 299.921 226.871 309.09C236.041 317.176 251.761 306.915 251.761 306.915C251.761 306.915 255.404 325.481 251.183 332.037C251.183 332.037 245.359 338.702 230.973 344.434C215.95 350.394 213.541 394.102 205.576 402.109" fill="#E2BBA6"/>
<path d="M135.223 424.4L146.253 426.639L143.518 440.063C133.419 439.033 112.918 436.734 111.697 435.787C110.171 434.604 101.518 431.537 99.5681 430.267C98.0079 429.251 98.7513 427.771 99.318 427.158C98.7808 426.904 97.1639 426.022 94.9933 424.533C92.8227 423.044 93.8651 422.119 94.6577 421.843C94.0076 421.42 93.7358 420.947 92.515 420.001C90.989 418.817 92.3609 416.827 93.6337 417.085C94.6518 417.292 95.2012 417.731 96.2755 418.24C95.598 417.229 95.9177 414.93 98.1767 415.389C100.458 415.852 109.427 420.91 111.548 421.341C113.669 421.771 120.967 422.816 119.95 421.299C119.137 420.086 113.052 418.297 110.111 417.554C109.149 417.213 107.193 416.263 107.059 415.187C106.924 414.111 107.853 413.455 108.335 413.262L123.607 416.362C127.425 417.137 132.678 423.883 135.223 424.4Z" fill="#E2BBA6"/>
<path d="M229.734 275.503C226.934 274.704 221.234 272.508 218.734 271.51V267.018L232.734 249.051L280.734 323.416L285.234 336.392L283.234 340.884C276.834 344.477 267.234 342.381 263.234 340.884C263.734 337.557 264.434 329.405 263.234 323.416C262.034 317.426 256.068 313.933 253.234 312.935H237.734L232.734 311.936C234.334 287.581 231.401 277.499 229.734 275.503Z" fill="#D2AB96"/>
<path d="M233.135 481.219C233.135 481.219 225.611 506.217 226.467 540.349H319.942H335L325 514.014L313.468 483.851C313.468 483.851 269.314 506.49 233.135 481.219Z" fill="#E1E1E1"/>
<path d="M143.234 424.5C156.834 422.037 178.149 416.504 195.999 399.408C209.758 386.236 215.911 350.475 230.974 344.475C236.465 342.357 241.666 339.557 246.455 336.141C270.05 343.919 280.673 341.177 285.362 336.29C285.611 336.975 292.739 344.892 296.89 355.73C307.842 384.289 303.859 397.977 304.954 428.345C305.95 455.096 313.477 483.854 313.477 483.854C306.199 517.042 231.84 484.778 231.84 484.778C234.767 476.99 241.377 440.076 233.443 432.944C221.944 422.613 224.094 413.593 224.094 413.593C215.473 424.341 202.033 430.48 202.033 430.48C181.653 442.172 154.414 442.719 143.234 441.765V424.5Z" fill="#152D5D"/>
<path d="M143.237 441.763V435.167C143.237 435.167 160.012 437.531 174.099 430.925C188.187 424.319 200.741 423.326 210.01 420.574C219.278 417.823 228.358 400.25 228.358 400.25C229.154 418.478 241.131 421.349 248.419 436.21C253.825 447.236 249.932 476.361 247.562 490.666C238.294 487.567 231.842 484.775 231.842 484.775C234.769 476.987 241.38 440.074 233.445 432.942C221.946 422.611 224.097 413.591 224.097 413.591C215.475 424.339 202.035 430.478 202.035 430.478C181.656 442.2 154.417 442.716 143.237 441.763Z" fill="#0C2048"/>
<path d="M232.532 272.619C228.194 271.753 220.242 268.65 216.808 267.206C216.265 258.186 218.434 239.711 233.617 233.649C248.799 227.587 263.982 231.665 269.404 235.814C298.142 232.567 298.504 292.825 294.889 319.707C274.284 338.651 241.389 325.3 233.074 321.331C237.846 290.588 235.966 267.928 232.532 258.547C229.93 265.041 231.448 270.634 232.532 272.619Z" fill="#E9D694"/>
<path fill-rule="evenodd" clip-rule="evenodd" d="M226.955 237.296C235.518 233.558 249.568 230.698 262.737 238.072C274.246 244.517 270.311 253.635 266.061 263.484C262.741 271.18 259.228 279.322 262.737 286.983C270.737 304.452 270.237 309.942 264.737 329.406C264.72 329.467 264.703 329.527 264.687 329.586C274.937 329.931 285.746 327.668 294.391 319.719C298.006 292.837 297.645 232.578 268.907 235.826C263.484 231.676 248.302 227.599 233.119 233.661C230.764 234.601 228.722 235.84 226.955 237.296Z" fill="#D6C589"/>
<circle r="1.5" transform="matrix(-0.258819 -0.965926 -0.965926 0.258819 196.971 296.838)" fill="#FAFAFC"/>
<circle opacity="0.6" r="1.5" transform="matrix(-0.258819 -0.965926 -0.965926 0.258819 199.163 297.287)" fill="#FAFAFC"/>
</svg>
