<svg xmlns="http://www.w3.org/2000/svg" fill="none" viewBox="0 0 470 541"><path fill="#E1E1E1" d="M0 160C0 99.249 49.249 50 110 50h47c71.797 0 130 58.203 130 130v182H0V160z"/><path fill="#fff" d="M296.999 362h-296c9 64.5 84 130.5 201 132s158.5-44.5 158-84.5c-.4-32-42.166-45-63-47.5z"/><path fill="#fff" d="M170 416H77v7h93zm210-260h-93v7h93zm0 120h-93v7h93zm-93-174h-7v314h7z"/><path fill="#fff" d="M281 156H77v7h204z"/><path fill="#666A6A" d="M280 90v64a2 2 0 01-2 2h-12a2 2 0 01-2-2V90a2 2 0 012-2h12a2 2 0 012 2z"/><circle r="3.5" fill="#fff" transform="matrix(-1 0 0 1 272.5 148.5)"/><path fill="#FF8139" d="M264 90v64a2 2 0 01-2 2h-12a2 2 0 01-2-2V90a2 2 0 012-2h12a2 2 0 012 2z"/><circle r="3.5" fill="#fff" transform="matrix(-1 0 0 1 256.5 148.5)"/><path fill="#FF8139" d="M214 90v64a2 2 0 01-2 2h-12a2 2 0 01-2-2V90a2 2 0 012-2h12a2 2 0 012 2z"/><circle r="3.5" fill="#fff" transform="matrix(-1 0 0 1 206.5 148.5)"/><path fill="#666A6A" d="M198 90v64a2 2 0 01-2 2h-12a2 2 0 01-2-2V90a2 2 0 012-2h12a2 2 0 012 2z"/><circle r="3.5" fill="#fff" transform="matrix(-1 0 0 1 190.5 148.5)"/><path fill="#666A6A" d="M225.188 100.094l6.85 1.444-11.549 54.796-6.85-1.444zm7.218-.094l6.927 1.008-8.066 55.416-6.927-1.008zm7.625 0l6.967.674-5.395 55.74-6.967-.674z"/><circle r="3.5" fill="#fff" transform="matrix(-1 0 0 1 223.5 276.5)"/><path fill="#666A6A" d="M380 210v64a2 2 0 01-2 2h-12a2 2 0 01-2-2v-64a2 2 0 012-2h12a2 2 0 012 2z"/><circle r="3.5" fill="#fff" transform="matrix(-1 0 0 1 372.5 266.5)"/><path fill="#FF8139" d="M364 210v64a2 2 0 01-2 2h-12a2 2 0 01-2-2v-64a2 2 0 012-2h12a2 2 0 012 2z"/><circle r="3.5" fill="#fff" transform="matrix(-1 0 0 1 356.5 266.5)"/><circle r="3.5" fill="#fff" transform="matrix(-1 0 0 1 223.5 276.5)"/><path fill="#666A6A" d="M326.188 220.094l6.85 1.444-11.549 54.796-6.85-1.444zm7.218-.094l6.927 1.008-8.066 55.416-6.927-1.008zm7.625 0l6.967.674-5.395 55.74-6.967-.674zM77.637 210v64a2 2 0 002 2h12a2 2 0 002-2v-64a2 2 0 00-2-2h-12a2 2 0 00-2 2z"/><circle cx="85.137" cy="266.5" r="3.5" fill="#fff"/><path fill="#FF8139" d="M93.637 210v64a2 2 0 002 2h12a2 2 0 002-2v-64a2 2 0 00-2-2h-12a2 2 0 00-2 2z"/><circle cx="101.137" cy="266.5" r="3.5" fill="#fff"/><path fill="#666A6A" d="M131.453 220.094l-6.85 1.444 11.549 54.796 6.85-1.444zM124.23 220l-6.927 1.008 8.066 55.416 6.927-1.008zm-7.625 0l-6.967.674 5.395 55.74 6.967-.675z"/><path fill="#fff" d="M77 102h-7v271h7zm204 174H77v7h204z"/><path fill="#E1E1E1" d="M75.736 423.735c-9.6-5.99 4-8.152 12-8.485l122.499 8.485 41 10.481-19 50.408c-9.333-6.987-26.4-20.163-34-24.955-9.5-5.989-31-2.994-57.5-7.985s-53-20.463-65-27.949z"/><path fill="#000C0E" d="M21.5 372.474C8.7 369.679 2.667 363.828 1.5 361l7-3L138 390.441v9.483c-5.667 1.331-18.8 2.196-26-4.991-9-8.984-74.5-18.966-90.5-22.459z"/><path fill="#E5B9B7" d="M109.551 371.023a9.026 9.026 0 012.979-1.971 83.06 83.06 0 019.492-1.036c1.692 0 8.408 2.929 8.904 3.255.497.327.79 1.972-1.794 1.893-2.585-.079-19.581-2.141-19.581-2.141z"/><path fill="#F4C7C3" d="M201.122 300.253a80.118 80.118 0 00-8.667 7.412c-3.465 3.538-10.383 7.165-15.033 6.23l10.056-21.472s5.981-3.65 8.769-4.111c2.787-.462 14.254 1.34 18.373 3.086a1.126 1.126 0 01.643 1.566s1.433.507 1.535 1.273c.203 1.476-2.02 1.442-4.063 1.341 0 0 .373 1.498-1.952 1.667-3.476-.173-6.9.893-9.661 3.008z"/><path fill="#E5B9B7" d="M182.625 313.47a22.56 22.56 0 002.9-1.126 19.66 19.66 0 01-2.9 1.126zm-.848.225c.271-.068.554-.136.836-.226-.519.158-.836.226-.836.226zm3.75-1.309l.678-.316-.678.316z"/><path fill="#E5B9B7" d="M189.364 293.327s.971-.552 2.258-1.228a24.482 24.482 0 015.857-2.32c2.72-.428 9.378 1.295 11.568 1.746 2.189.45 6.184 1.442 6.184 1.442-.237 1.464 1.547 1.554 1.547 1.554-.147 1.048-1.558 1.037-2.709 1.127a12.038 12.038 0 01-2.742-.293c.019.602.246 1.179.643 1.633a2.251 2.251 0 01-1.219.293 17.53 17.53 0 00-7.9 1.87c-3.273 1.927-6.512 4.991-11.105 9.204a23.037 23.037 0 01-5.485 3.706h-.09l-.678.316c-.939.442-1.908.818-2.9 1.126-.282.091-.564.158-.835.226l7.606-20.402z"/><path fill="#F4C7C3" d="M199.902 288.199c4.515-.079-.586-3.098-3.284-3.673-2.697-.574-8.712-1.419-10.608 1.127-1.896 2.546-16.218 22.846-18.453 23.781-2.234.935-15.856 2.918-15.856 2.918-25.235 2.884-35.11.799-40.889-1.758-5.778-2.557-6.455-18.024-15.28-27.296-8.826-9.271-8.24-18.903-15.7-16.785-8.599 2.433-8.475-.406-8.475-.406l-.722-1.295a54.972 54.972 0 01-3.567-14.375c3.747.8 3.454 1.059 6.907.124 20.315-5.553 1.502-59.909 1.502-59.909-5.587-14.825-42.819-2.996-47.503 5.295-4.514 7.976 2.032 20.131 2.032 20.131-4.65-.169-5.18 3.583-5.18 3.583-.948 8.066 10.665 13.293 10.665 13.293l1.129 1.419c10.315 14.499 7.73 24.784 5.812 29.166-.43.912-4.063 3.042-7.788 2.974-4.74-.068-17.842.259-24.445 16.549-12.538 30.901-.97 76.762 5.7 81.245 6.67 4.484 70.49 13.519 70.49 13.519l6.501 4.337 7.72 2.253c2.472.822 7.358 3.019 13.543 4.664 7.753 2.027 8.882 2.489 10.981 2.748 2.359.282 1.975.507 4.943.778 2.257.202 2.257-1.611 2.257-1.611l3.905 1.002c3.183-.214 1.874-3.841 1.874-3.841a2.416 2.416 0 001.524-1.727 2.404 2.404 0 00-.621-2.216c-.678-.552-6.772-4.044-8.059-4.867-1.286-.822-6.376-3.661-6.376-3.661s7.392 1.994 7.81 2.557a74.21 74.21 0 006.681 4.968c1.343.676 2.663-1.498 1.806-2.636-.858-1.137-5.824-5.948-8.092-6.939-2.269-.991-6.196-3.954-8.036-4.799-1.839-.845-2.257.811-7.55.665-5.293-.147-3.386-.068-4.21-.237-.823-.169-1.963-.845-3.385-1.127-1.403-.041-2.801.2-4.108.71l-12.956-2.996h16.77c-1.433-33.774-4.13-51.472-4.13-51.472s-5.451 28.637 13.881 25.911c19.333-2.727 52.039-21.157 53.63-22.137.711-.439 2.619-1.566 4.819-3.21 10.474-1.386 7.483-10.579 13.916-10.579 7.437 0 8.916-.428 8.916-1.802s-7.427-2.084-12.268-2.253c.801-3.47.914-6.759 2.144-9.812 1.422-3.571 6.332-2.242 9.683-2.298z"/><path fill="#E3C14C" d="M213.477 293.039l-15.074-5.725a3 3 0 00-3.957 2.006l-1.988 7.197c-.482 1.743.669 3.561 2.404 4.068 5.212 1.524 12.635 4.563 13.836 4.786 1.496.277 2.407-.921 2.676-1.555a837.357 837.357 0 002.735-8.039c.622-1.89-.162-2.613-.632-2.738z"/><path fill="#000" d="M76.933 249.255c4.638-4.597 1.919-17.529 2.81-22.182.892-4.652-6.839-8.821-6.658-20.683.135-8.855-5.44-18.295-8.284-22.531 5.09.642 9.119 2.704 10.676 6.838 0 0 16.838 48.576 1.456 58.558zm-9.895 18.238c-1.637-1.509-4.311-18.024-4.311-18.024l4.31 1.126a54.877 54.877 0 003.567 14.375l.722 1.295s2.833 1.893 8.532 1.037l-1.264.428c-3.882.845-9.92 1.273-11.556-.237z" opacity=".1"/><path fill="#00181B" d="M141.184 313.368c-17.64 1.251-25.472-.563-30.37-2.737-5.778-2.569-4.052-18.881-12.076-31.543-6.85-10.826-11.444-14.645-18.903-12.505-1.445.406 1.06 0-.125.169v-1.351c-3.735-1.961-9.807-2.524-9.807-2.524.124.349 1.004 3.019 1.456 3.267.451.248-2.776.755-2.776.755a10.45 10.45 0 01-2.777 3.763l-2.686 16.683-6.365-15.095c-8.137-1.735-13.87-9.609-13.87-9.609a9.04 9.04 0 00-4.514 1.678c-.61-.09-1.874 2.388-2.596 2.253-4.594-1.126-20.315 1.127-28.124 16.808C4.66 289.475.699 305.37.394 315.374c0 0-1.332 26.113.903 45.714 0 0 16.24 4.506 23.858 6.174 11.873 2.816 32.04 6.105 45.99 8.246l1.32-15.67 20.077 6.015h16.771c-1.433-33.773-4.131-51.471-4.131-51.471s-5.45 28.637 13.882 25.91c6.941-.98 15.597-3.987 23.926-7.48l-1.806-19.444z"/><path fill="#E0DEDE" d="M72.712 356.985l-1.614 18.52-17.72-2.839 1.48-22.531a2.829 2.829 0 012.527-.912c1.524.304 3.036 3.132 3.036 3.132a2.045 2.045 0 011.919-.902c1.219.192 2.325 2.513 2.325 2.513a3.117 3.117 0 013.386-2.254c2.584.384 4.66 5.273 4.66 5.273zm-10.369-68.119l-6.771-10.454-2.799 9.97-9.785-11.671 9.672 13.248s1.4-3.278 2.98-3.278 2.076 4.247 6.703 2.185zm2.457-.507l2.517-10.42 4.515 6.083 1.76-7.311-1.399 9.012a2.69 2.69 0 01-2.146.447 2.698 2.698 0 01-1.77-1.292c-1.501-2.456-3.476 3.481-3.476 3.481z"/><path fill="#E0DEDE" d="M54.86 350.183s-11.003-5.632-13.915-6.612l-8.566-2.873L36.43 316.5s-3.555 14.352-.971 16.898c2.584 2.546 8.047.259 11.286 7.334 3.239 7.074 8.114 9.451 8.114 9.451zm52.648-18.308c-8.194-8.663 7.606-12.989.575-15.118-7.031-2.129-4.435-14.972-4.435-14.972l1.535 12.595s-5.451 28.636 13.881 25.91a58.984 58.984 0 007.167-1.543c-3.047.27-12.031.214-18.723-6.872z"/><path fill="#F4EBEA" d="M65.738 262.617l.012.011-.012-.011z"/><path fill="#fff" d="M160.089 311.059c-4.142.71-8.385 1.329-8.385 1.329-25.235 2.884-34.631.872-40.703-.885-9.435-2.783-4.237-25.498-13.063-34.792-8.825-9.294-10.642-12.279-18.057-10.139-7.415 2.141-9.029-3.165-9.932-3.672.204 1.419-2.573 6.432-4.807 7.142l-1.648 6.038-5.643-6.027c-7.189-1.408-14.965-7.412-14.965-7.412-.44.912 1.129 5.936-7.054 3.886-4.593-1.126-19.016.248-25.618 16.538-13.78 33.965-4.867 71.196 5.787 79.938 6.207 5.092 70.403 14.825 70.403 14.825l.09 2.862 6.41 1.476c-.372-8.742 5.745-14.859 5.745-14.859l-6.105-1.454h16.77c-1.433-33.773-4.13-51.471-4.13-51.471s-5.451 28.637 13.881 25.91c13.148-1.858 32.469-10.961 44.015-16.898-5.553-5.17-2.991-12.335-2.991-12.335z"/><path fill="#F4EBEA" d="M65.738 262.617l.012.011-.012-.011z"/><path fill="#292289" d="M65.738 262.617l.012.011-.012-.011z"/><path fill="#00181B" d="M7.313 282.534c4.334-12.684 17.515-17.089 23.858-17.664l11.748-2.253s6.772 26.834 19.875 44.701l2.009 43.878 28.688 14.645-.18.181a15.76 15.76 0 00-4.154 12.335l.09 2.861-2.674-.585s-39.58-8.427-59.68-12.978c-1.67-.383-3.204-.744-4.57-1.127l-18.204-4.506s-9.096-43.506 3.194-79.488z"/><path fill="#00181B" d="M154.083 312.027l-2.381.36c-25.235 2.884-35.11.8-40.889-1.757-5.778-2.557-2.629-18.52-7.166-30.507-3.036-8.009-6.241-16.289-18.452-17.506l-15.293.259a13.92 13.92 0 001.501 3.38l.226.135c.856.365 1.744.652 2.652.856 0 0 6.49 20.12 3.973 39.632l8.396 56.225 6.84 2.737h15.8c-1.434-33.796-1.919-30.506-1.919-30.506s-7.663 7.717 11.67 4.99c11.003-1.554 27.83-3.965 39.297-9.575-1.738-2.85-5.316-12.077-4.255-18.723z"/><path fill="#1C2223" d="M60.489 313.874l-.88-5.824-3.262 4.945a63.73 63.73 0 01-10.304-14.386 56.457 56.457 0 0010.259 15.772l3.216-4.889.97 4.382zm19.042-1.748l1.512-5.632 3.5 3.379s2.561-10.015 2.042-18.092a51.247 51.247 0 01-1.84 19.827l-3.386-3.47-1.828 3.988z"/><path fill="#000C0E" d="M54.97 347.185s-6.444-3.729-8.927-3.515c-2.483.214-8.306 0-8.306 0s-2.99-15.568-2.99-22.26c0 0 .676 9.215 3.08 12.888 2.404 3.672 5.045 2.14 9.232 5.441 4.187 3.301 3.724 5.249 7.911 7.446z"/><path fill="#F5F5F5" d="M158.361 330.761s.519-1.352 0-4.968l-1.896.935a25.432 25.432 0 001.896 4.033z"/><path fill="#000" d="M86.529 362.305l-3.623-24.266-3.386-22.62-1.275-8.551c.816-4.706.968-9.502.451-14.25-.688-6.872-.383-15.513-3.86-23.477 0 0 1.524 7.029 1.017 12.065-.316 3.165-2.675 12.696-1.13 20.052 1.547 7.356 4.12 9.193 3.624 19.298-.497 10.105-.993 26.619 8.182 41.749z" opacity=".1"/><path fill="#594423" d="M85.693 231.738a29.265 29.265 0 00-2.54-7.119s-.124 3.458-3.385 2.456c-4.82-1.476-11.726-1.747-19.186 5.362-7.46 7.108-18.057-3.301-19.671-8.776-1.614-5.475-6.444-18.317-2.878-21.742 3.566-3.425 12.753 1.51 22.662-1.915 9.909-3.425 14.084-11.479 15.19-7.514a62.574 62.574 0 002.1 6.376s2.426-14.307-1.242-19.917c-3.668-5.61-10.575-4.788-16.601-2.591-6.027 2.197-12.606 1.127-15.8 1.127a18.434 18.434 0 00-14.333 8.032c-4.39 6.421-9.458 5.328-10 11.265-.541 5.937 7.822 17.315 10 19.399 1.467 1.386 5.27 8.314 8.61 15.569-.293 1.036-1.128 1.678-3.08 1.261a51.715 51.715 0 005.8 10.68c2.98 4.055 12.235 10.139 25.642 10.274a20.478 20.478 0 009.458-1.803c9.581-4.607 10.552-15.365 9.254-20.424z"/><path fill="#3E2F1C" d="M52.354 244.117c-5.282-.957-9.83-3.379-11.636-11.367-1.805-7.987-12.583-25.009-15.224-32.072-2.64-7.063 5.519-6.939 6.106-12.088.372-3.21 3.092-6.759 5.078-9.012a18.426 18.426 0 00-6.681 5.971c-4.39 6.421-9.457 5.328-10 11.265-.54 5.937 7.822 17.315 10 19.399 1.467 1.386 5.27 8.314 8.611 15.569-.293 1.036-1.128 1.678-3.08 1.261a51.715 51.715 0 005.8 10.68c2.98 4.055 12.234 10.139 25.641 10.274 1.895.07 3.791-.1 5.643-.507-8.904 1.183-14.987-8.415-20.258-9.373z"/><path fill="#674F2D" d="M40.29 178.07s5.18 4.507 14.67 3.707c3.364-.259 12.866-6.174 16.715-3.707 3.848 2.468 5.756 6.602 4.21 14.398a62.655 62.655 0 002.099 6.376s2.426-14.285-1.242-19.895c-3.668-5.61-10.575-4.788-16.601-2.591-6.027 2.197-12.606 1.127-15.8 1.127-1.37.015-2.733.212-4.052.585zm45.401 53.667a29.257 29.257 0 00-2.54-7.12s-.123 3.459-3.385 2.456a17.295 17.295 0 00-13.329 1.127c.35-.079 12.121-2.851 15.327 2.433 3.205 5.283 2.686 13.113-1.366 18.869 5.846-5.249 6.388-13.518 5.293-17.765z"/><path fill="#F4C7C3" d="M190.84 300.492a54.29 54.29 0 016.771.868c1.479.484 2.088 1.002 2.009 1.791-.079.788-1.659 1.397-3.668 1.352l-4.108-.09-1.004-3.921z"/><path fill="#fff" d="M116.734 330.5l-.5 2-19 2.5c0-1.6.667-3.333 1-4l2 3 2-3 2 2.5 1.5-2.5 1.5 2.5 2-3 1.5 2.5 2-2.5 1.5 2 2.5-2z"/><path fill="#F5F5F5" d="M119.234 407.262h93a5 5 0 015 5v15.953a5 5 0 01-5 5h-93v-25.953z"/><path fill="#F5F5F5" d="M165.234 356.855l-79 6.489 17.5.499 9 41.424 6 1.997 81.5 2.495v-9.982l-14-35.934-21-6.988z"/><path fill="#E1E1E1" d="M86.734 363v53.403l26.5-10.98-9.5-41.924-17-.499z"/><path fill="#152D5D" d="M160.23 396.895l-5.976.737 1.698 4.927 5.975-.737-1.697-4.927zm8.472-.836l-5.975.737 1.697 4.927 5.976-.737-1.698-4.927zm8.953-1.356l-5.975.737 1.698 4.928 5.975-.737-1.698-4.928zm8.954-1.355l-5.976.737 1.698 4.927 5.975-.737-1.697-4.927zm-23.832 11.203l-5.976.737 1.698 4.927 5.975-.737-1.697-4.927zm8.472-.836l-5.975.737 1.697 4.927 5.976-.736-1.698-4.928zm8.953-1.355l-5.975.736 1.697 4.928 5.976-.737-1.698-4.927zm8.953-1.352l-5.975.737 1.698 4.927 5.975-.737-1.698-4.927zm-23.378 10.531l-5.976.737 1.698 4.928 5.975-.737-1.697-4.928zm8.472-.836l-5.975.737 1.697 4.928 5.976-.737-1.698-4.928zm8.953-1.355l-5.975.737 1.697 4.927 5.976-.737-1.698-4.927z"/><path fill="#fff" d="M192.155 407.992l-5.975.737 1.698 4.928 5.975-.737-1.698-4.928z"/><path fill="#fff" d="M192.155 407.992l-5.975.737 1.698 4.928 5.975-.737-1.698-4.928z"/><path fill="#E1E1E1" d="M86.734 395.785l32.5 11.479v23.458l-32.5-13.476v-21.461z"/><path fill="#fff" d="M108.362 358.351c5.6 4.392 5.333 13.476 4.5 17.468l19.372-1.996c1.167-4.658 1.028-13.475-7.372-19.464-8.4-5.99-9.294-17.801-8.628-21.961l-18.872 1.997c-1 10.481 4 18.466 11 23.956z"/><path fill="#00181B" d="M178.234 369.332l-32 2.995 6.5 22.958 33.5-3.993-8-21.96z"/><path stroke="#000" d="M0-.5h15.033" transform="rotate(-3.807 5125.38 -1324.183) skewX(.014)"/><path stroke="#000" d="M0-.5h10.05" transform="rotate(-5.7 3476.863 -876.34) skewX(.021)"/><path stroke="#000" d="M102.31 345.494l13-2m-7.968 5.994l9-2"/><path stroke="#fff" d="M0-.5h6.822" transform="rotate(-7.112 3230.9 -1036.798) skewX(.025)"/><path stroke="#fff" d="M0-.5h6.822" transform="rotate(-7.112 3227.92 -1098.51) skewX(.025)"/><path stroke="#fff" d="M0-.5h6.822" transform="rotate(-7.112 3225.06 -1160.247) skewX(.026)"/><path stroke="#fff" d="M0-.5h6.822" transform="rotate(-7.112 3218.924 -1223.302) skewX(.025)"/><path fill="#000" d="M281.677 493.638c0-.318.09-.636.139-.993-.039.357-.099.675-.139.993z" opacity=".3"/><path fill="#CEA999" d="M218.779 259.938l12.266 2.095-.618 9.338c-.119 5.126.289 9.238 1.554 11.185 5.296 8.176 7.407-10.927 11.787-10.509 4.381.417 6.421 5.404 3.275 13.907-3.146 8.503 8.164 10.867 9.14 15.635.975 4.768 8.572 31.619 0 40.808l-13.132-3.974a39.708 39.708 0 008.124-6.347c4.221-6.557.578-25.123.578-25.123s-15.711 10.262-24.89 2.176a11.933 11.933 0 01-1.991-2.305c-5.227-7.321-5.973-25.907-6.123-29.89-.149-3.983.03-16.996.03-16.996z"/><path fill="#292289" d="M284.484 333.922s4.759 3.973 9.05 15.894c4.291 11.92-6.87-6.864-6.87-6.864l-1.314-6.646-.866-2.384z"/><path fill="#CEA999" d="M235.387 234.773c-1.066 6.507-2.768 16.957-4.341 27.258.996-9.705 2.837-20.453 4.112-27.178l.229-.08z"/><path fill="#E2BBA6" d="M204.7 425.771s10.772-1.451 19.394-12.179c0 0-2.151 9.02 9.348 19.351 7.965 7.132 1.752 45.128-1.603 51.833 0 0 31.779 31.331 83.509 6.239 0 0-12.993-47.314-13.938-74.066-1.165-30.377-4.679-49.906-15.312-78.584-10.633-28.679-13.152-44.503-11.708-59.602 1.444-15.099.717-38.741-25.885-44.453-26.601-5.712-29.747 25.589-29.747 25.589s-2.35 40.022 8.113 49.191c9.17 8.086 24.89-2.175 24.89-2.175s3.643 18.566-.578 25.122c0 0-5.824 6.665-20.21 12.397-15.023 5.96-17.432 49.668-25.397 57.675M135.223 424.4l11.03 2.239-2.735 13.424c-10.099-1.03-30.6-3.329-31.821-4.276-1.526-1.183-10.179-4.25-12.129-5.52-1.56-1.016-.817-2.496-.25-3.109-.537-.254-2.154-1.136-4.325-2.625-2.17-1.489-1.128-2.414-.335-2.69-.65-.423-.922-.896-2.143-1.842-1.526-1.184-.154-3.174 1.119-2.916 1.018.207 1.567.646 2.641 1.155-.677-1.011-.357-3.31 1.902-2.851 2.281.463 11.25 5.521 13.371 5.952 2.121.43 9.419 1.475 8.402-.042-.813-1.213-6.898-3.002-9.839-3.745-.962-.341-2.918-1.291-3.052-2.367-.135-1.076.794-1.732 1.276-1.925l15.272 3.1c3.818.775 9.071 7.521 11.616 8.038z"/><path fill="#D2AB96" d="M229.734 275.503c-2.8-.799-8.5-2.995-11-3.993v-4.492l14-17.967 48 74.365 4.5 12.976-2 4.492c-6.4 3.593-16 1.497-20 0 .5-3.327 1.2-11.479 0-17.468-1.2-5.99-7.166-9.483-10-10.481h-15.5l-5-.999c1.6-24.355-1.333-34.437-3-36.433z"/><path fill="#E1E1E1" d="M233.135 481.219s-7.524 24.998-6.668 59.13H335l-10-26.335-11.532-30.163s-44.154 22.639-80.333-2.632z"/><path fill="#152D5D" d="M143.234 424.5c13.6-2.463 34.915-7.996 52.765-25.092 13.759-13.172 19.912-48.933 34.975-54.933a70.102 70.102 0 0015.481-8.334c23.595 7.778 34.218 5.036 38.907.149.249.685 7.377 8.602 11.528 19.44 10.952 28.559 6.969 42.247 8.064 72.615.996 26.751 8.523 55.509 8.523 55.509-7.278 33.188-81.637.924-81.637.924 2.927-7.788 9.537-44.702 1.603-51.834-11.499-10.331-9.349-19.351-9.349-19.351-8.621 10.748-22.061 16.887-22.061 16.887-20.38 11.692-47.619 12.239-58.799 11.285V424.5z"/><path fill="#0C2048" d="M143.237 441.763v-6.596s16.775 2.364 30.862-4.242c14.088-6.606 26.642-7.599 35.911-10.351 9.268-2.751 18.348-20.324 18.348-20.324.796 18.228 12.773 21.099 20.061 35.96 5.406 11.026 1.513 40.151-.857 54.456-9.268-3.099-15.72-5.891-15.72-5.891 2.927-7.788 9.538-44.701 1.603-51.833-11.499-10.331-9.348-19.351-9.348-19.351-8.622 10.748-22.062 16.887-22.062 16.887-20.379 11.722-47.618 12.238-58.798 11.285z"/><path fill="#E9D694" d="M232.532 272.619c-4.338-.866-12.29-3.969-15.724-5.413-.543-9.02 1.626-27.495 16.809-33.557 15.182-6.062 30.365-1.984 35.787 2.165 28.738-3.247 29.1 57.011 25.485 83.893-20.605 18.944-53.5 5.593-61.815 1.624 4.772-30.743 2.892-53.403-.542-62.784-2.602 6.494-1.084 12.087 0 14.072z"/><path fill="#D6C589" fill-rule="evenodd" d="M226.955 237.296c8.563-3.738 22.613-6.598 35.782.776 11.509 6.445 7.574 15.563 3.324 25.412-3.32 7.696-6.833 15.838-3.324 23.499 8 17.469 7.5 22.959 2 42.423l-.05.18c10.25.345 21.059-1.918 29.704-9.867 3.615-26.882 3.254-87.141-25.484-83.893-5.423-4.15-20.605-8.227-35.788-2.165a23.093 23.093 0 00-6.164 3.635z" clip-rule="evenodd"/><circle r="1.5" fill="#FAFAFC" transform="scale(-1 1) rotate(-75 94.938 276.768)"/><circle r="1.5" fill="#FAFAFC" opacity=".6" transform="scale(-1 1) rotate(-75 94.134 278.42)"/></svg>