<svg xmlns="http://www.w3.org/2000/svg" fill="none" viewBox="0 0 470 541"><path fill="#E1E1E1" d="M-.2 202.461h370.001c55.228 0 100 44.771 100 100v237.541h-470V202.461zm126.266-39.83c37.133-2.612 63.295 25.465 71.735 39.83h-198c6.924-10.774 26.94-29.905 51.61-20.241 30.836 12.079 28.239-16.324 74.655-19.589z"/><path fill="#081B42" d="M180.27 504.863c0-13.582-5.187-30.693-6.52-43.36l109.065-9.589s-.476 40.739 0 55.989c.477 15.25 9.987 32.095 9.987 32.095H173.75c6.52-11.787 6.52-18.413 6.52-35.135z"/><path fill="#E9D694" d="M168.516 303.622l76.454-9.91-9.014-68.949-39.148-24.178-36.793 38.019 8.501 65.018z"/><path fill="#C9B058" d="M166.226 245.934s2.611 13.445 3.082 23.57c.471 10.124-3.771 18.61 5.774 33.114l65.635-8.345s4.609-8.453.853-19.293c-3.756-10.841-4.26-8.28-3.69-20.969l-71.654-8.077z"/><path fill="#F4C7C3" d="M283.301 331.997c-9.872-10.059-37.127-6.421-52-12.438-5.534-2.238-9.443-21.396-10.755-31.637 15.115-8.864 20.593-32.513 17.5-56.172-3.817-29.197-20.286-43.139-42.075-40.291-21.789 2.849-34.246 20.821-30.428 50.018 3.036 23.225 13.96 44.593 30.428 49.658 1.333 10.197 2.553 24.789-2.281 28.424-12.827 9.638-34.174 9.266-40.408 21.871-17.008 34.469 10.482 105.315 10.482 105.315h128.39s12.33-93.192-8.853-114.748z"/><path fill="#081B42" d="M231.303 319.563c-2.666-1.029-6.414-8.849-9.509-23.375-10.604 5.808-18.841 4.984-24.95 2.876.54 12.547-.638 18.582-3.18 20.499-12.826 9.638-36.448 2.843-43.861 18.778-13.551 23.046 10.556 108.407 10.556 108.407h148.419s-3.785-93.642-24.975-115.251c-9.872-10.059-37.6-5.921-52.5-11.934z"/><path fill="#081B42" d="M148.801 458.91c-5-3.744-8-16.85-8.5-18.41h150l7 27.459c-104.5 6.865-145.584-6.865-148.5-9.049z"/><path fill="#0C2048" d="M270.137 366.809s10.109 15.454 11.033 25.471l.925 10.017-1.634-.503s-.469-8.74-.994-11.812c-.525-3.071-4.954-15.481-9.33-23.173zM168.06 380.155s-5.946 24.593-3.814 30.801l2.185 6.188.841-.509a36.363 36.363 0 01-2.105-9.05c-.223-3.814 2.893-27.43 2.893-27.43z"/><path fill="#000" d="M232.981 237.205l3.508 26.827a85.741 85.741 0 001.557-32.283 80.69 80.69 0 00-4.433-18.015l-37.425-15.947-30.298 46.137c.128.975.255 1.95.503 2.896 7.837-3.188 27.673-13.715 31.115-39.467 0 0 13.132 22.263 35.473 29.852z" opacity=".1"/><path fill="#E9D694" d="M197.718 211.34s-6.68 23.839-30.838 33.594l7.567 57.878-11.829 1.97s-14.664-72.541-3.991-93.652a41.38 41.38 0 0117.336-18.108 40.079 40.079 0 0128.221-3.69s27.594-4.368 35.738 27.207c8.145 31.574 9.894 76.514 9.894 76.514l-9.075 1.155s-6.043-48.749-8.024-61.376c-.023.015-22.919-4.213-34.999-21.492z"/><path fill="#000" d="M202.883 292.961c3.9.339 7.828-.174 11.51-1.505 0 0-4.787 6.315-11.51 1.505z" opacity=".1"/><path fill="#081B42" d="M99.799 422.5c-4.8 8.4-2 20.833 0 24 51.678 16.706 72.566 17.584 88.538 20.886l-7.6-41.799c-20-3-63.438-3.087-80.938-3.087z"/><path stroke="#00181B" d="M111.301 482c5.166.167 17.5 2.1 25.5 8.5m-27-3c5.5 1.833 18.3 8.8 25.5 22m-72.986-47.694c-1.011-4-5.052-12.929-13.122-16.637m9.107 17.33c-4-3.166-14.1-9.1-22.5-7.5"/><path fill="#E3A266" d="M41.8 471C28.6 494.6 7.968 502.5-.7 503.5v37h93.5c-1-9.833-2.4-31 0-37 3-7.5 12.001-4.5 18.501-14.5 6.5-10 5-18 4.5-25.5-.4-6 2.5-21.167 4-28-9.2 2.8-18.167 10.5-21.5 14-6-3.2-16.167-5.333-20.5-6V426c-7 5.5-19.5 15.5-36 45z"/><path fill="#E1E1E1" d="M78.3 457.5c2-5.2 5.5-10.5 7-12.5l7 1.5c-3.6 1.2-10.833 7.833-14 11zm0-7.5c.8-2 2.667-4.833 3.5-6l-3.5-.5v6.5zm11 3.5l5-6 3.5 1.5c-1.6.4-6.333 3.167-8.5 4.5z"/><path fill="#FBC492" d="M69.8 500c12.4 6.4 19.834 18 22 23v-12.5c-6.4-6.8-17.333-9.833-22-10.5zm-18.5 11c-18.8-10-35.166-11.5-41-11l10-5.5c14.4 2.4 26.667 12 31 16.5z"/><path fill="#D3662F" d="M256.302 453.5c12-5 30.5 2.333 41.5 6.499l8 4.001-6 2.5c-7.5-2.167-24.4-7.001-32-9-9.5-2.5-16 7-18.5 6.5s-3.942-5.942 7-10.5z"/><path fill="#fff" d="M409.803 444.999c22.5 40 30.377 33.478 59.877 94.978-38 0-164.377.022-164.377.022s10-12 10-31c0-12-3-20-14.5-29.5-10.119-8.359-38-16.5-35-22 1.068-1.959 14.563 3.395 24.5 5.5 10.103 2.14 15.541.765 10.5-1-11.058-3.87-16-1-35-17s-11.273-41.665-10-46.5c2.5-9.5 37 9.5 45 0s21.5-14.5 44-12c40.5 4.5 53.922 38.807 65 58.5z"/><path fill="#00181B" stroke="#000" d="M259.301 404c-1.6 1.6-4.667 6.333-6 8.5.166-2.333.7-7.8 1.5-11 1-4 1.5-6 6.5-6s5.829 2.527 5.5 4.5c-.5 3-1.5 5.5-6 9-.883.686-3.5 2-4 2s-1-.5 1-2 3.5-7 1.5-5z"/><path fill="#00181B" d="M336.801 498.5c-5.2 2.8-16.834 4.834-22 5.5l-1 16.5c51-4.5 105.04-32.747 113.54-48.747l-9.535-13.444c-20 23.5-53.839 31.358-64.505 35.691l3 3h-7c.5 4 7 7 4 7-2.4 0-6.667-1.666-8.5-2.5-2 3.6-8.667 3-11.5 5 2-3.2 3.166-6.666 3.5-8z"/><path fill="#E1E1E1" d="M322.301 438.877c3.6-3.808 5.833-12.838 6.5-16.877-1.5 5.5-7 17.8-17 23l-4 1.5c1.666.5 6.2 1.3 11 .5-1.834 3.575-5.7 11.48-6.5 14.5-1 3.775-.5 11.5 7.5 16-.5-.5-1.5-2-1.5-4 6.5 4.524 22.9 10.164 36.5-3.464-5.5 4.76-13.5 7.356-23 5.193-7.6-1.731-11.5-7.357-12.5-9.954-1.2 2.078-.5 4.039 0 4.761-3-2.164-3.5-6.924-2-11.252 1.2-3.462 5.166-12.406 7-16.445-2 .693-6.5 1.731-8.5 2.164.666-.288 2.9-1.817 6.5-5.626z"/><ellipse cx="313.301" cy="527" fill="#CDAE19" rx="4.5" ry="8"/><ellipse cx="311.301" cy="527" fill="#FFD300" rx="4.5" ry="8"/><path fill="#E1E1E1" d="M128.801 118h340c0-11.063-10.452-33.19-52.258-33.19-74.194 0-72.258-48.81-125.162-48.81-61.29 0-64.516 48.81-103.225 48.81-40.983 0-59.355 17.571-59.355 33.19zm176.5 276l5-3.5 10-5c10.666 0 32.5.4 34.5 2 2.5 2 2.5 14.5 2 16s-7.5 14.5-10 19c-2 3.6-5.167 3.833-6.5 3.5-.5 1.333-2.1 4.2-4.5 5-2.4.8-3.667-2.333-4-4-.834.667-2.8 1.2-4-2-1.2-3.2-.5-22 0-31-.834.833-2.8 2.9-4 4.5-1.5 2 0 12.5-1 16-.8 2.8-3.334 2.833-4.5 2.5l-1-14.5 3-12c-2.167.5-7.2 1.9-10 3.5s-4.5.667-5 0z"/><path fill="#F4C7C3" d="M329.357 374.5c2.444 0 2.239 2.331 6.944 1 1.795 0 3.955 2.728 7.099 1.663 3.929-1.331 4.936 3.533 6.901 4.198 1.965.666 4.599 1.997 5.254 5.326.655 3.328 0 12.648-1.965 15.976-1.965 3.328-5.239 10.651-7.859 15.976-2.096 4.261-3.93 3.551-4.585 2.663-.873 2.441-3.274 7.189-5.894 6.657-2.62-.533-1.965-4.66-1.31-6.657-.873 1.775-3.013 4.66-4.585 1.997-1.965-3.328-3.356-19.526-3.356-22.854 0-3.329.145-7.781.8-9.778.655-1.997-2.683 2.011-3.993 4.674-1.31 2.662-1.31 6.656-1.31 10.65 0 3.994-.655 8.654-3.275 8.654s-3.275-19.304-1.31-21.967c.571-.774 1.687-2.634 3.032-4.883-3.64.599-6.667 2.161-9.511 2.872-3.559.889-4.893-1.983-2.224-3.111 2.668-1.128 8.006-4.863 10.013-4.863.91 0 3.048-.285 5.188-.613 2.499-4.009 4.951-7.58 5.946-7.58zM93.666 422.893c2.846-.712 8.301-.297 10.673 0 3.201 10.672-.149 18.676-2.224 21.345-1.037.148-3.38.711-4.447 1.778-1.334 1.334-2.223 6.671-3.112 9.339-.703 2.109-1.78 4.891-3.113 8.004-1.829 4.267-4.447 4.447-4.892 2.668-.444-1.779 2.224-7.115 2.224-8.894 0-1.778-.445-7.115-1.334-7.559-.89-.445-6.67 3.557-9.338 4.891-2.669 1.334-10.228 16.453-13.786 17.343-2.07.517-3.112-.89-3.112-1.779l-1.334 2.223c-2.16 3.455-5.156 1.878-5.329.155-.085.184-.137.191-.008-.155 0 .052.003.104.008.155.208-.446.615-1.933-.897-1.933-2.134 0-2.372-2.52-2.223-3.113l1.778-4.002c-2.134-.712-2.371-2.372-2.223-3.113 2.668-7.411 9.605-23.034 16.009-26.236 8.004-4.002 23.123-10.228 26.68-11.117z"/></svg>