<svg xmlns="http://www.w3.org/2000/svg" fill="none" viewBox="0 0 470 542"><path fill="#E1E1E1" d="M80 100C80 44.772 124.772 0 180 0h180c60.751 0 110 49.249 110 110v431H80V100z"/><path fill="#D2D2D2" d="M385.983 524.429c30.274-30.181 69.493-94.367 83.611-121.518l-343.396-29.973-64.51 78.192c130.755 48.8 285.008 112.463 324.295 73.299z"/><path fill="#fff" d="M269 144H126.44v7H269z"/><path fill="#666A6A" d="M268.999 168.5L126.439 151h142.56v17.5z" opacity=".4"/><path fill="#C4C4C4" d="M248 78v64a2 2 0 01-2 2h-12a2 2 0 01-2-2V78a2 2 0 012-2h12a2 2 0 012 2z"/><circle r="3.5" fill="#fff" transform="matrix(-1 0 0 1 240.5 136.5)"/><path fill="#FF8139" d="M232 78v64a2 2 0 01-2 2h-12a2 2 0 01-2-2V78a2 2 0 012-2h12a2 2 0 012 2z"/><circle r="3.5" fill="#fff" transform="matrix(-1 0 0 1 224.5 136.5)"/><path fill="#FF8139" d="M182 78v64a2 2 0 01-2 2h-12a2 2 0 01-2-2V78a2 2 0 012-2h12a2 2 0 012 2z"/><circle r="3.5" fill="#fff" transform="matrix(-1 0 0 1 174.5 136.5)"/><path fill="#C4C4C4" d="M166 78v64a2 2 0 01-2 2h-12a2 2 0 01-2-2V78a2 2 0 012-2h12a2 2 0 012 2z"/><circle r="3.5" fill="#fff" transform="matrix(-1 0 0 1 158.5 136.5)"/><path fill="#666A6A" d="M193.186 88.094l6.85 1.444-11.549 54.796-6.85-1.444z"/><path fill="#C4C4C4" d="M200.404 88l6.927 1.008-8.066 55.416-6.927-1.008z"/><path fill="#666A6A" d="M208.031 88l6.967.674-5.395 55.74-6.967-.674z"/><path fill="#fff" d="M131.953 402.999l-3.266-75.604L470 402.999l-55.641 39.269a99.998 99.998 0 01-83.941 14.785l-198.465-54.054z"/><path fill="#152D5D" d="M392.964 405.645l-23.926-13.172-6.452 7.796-30.647 7.796 21.507 15.861 32.26-10.753 7.258-7.528z"/><path fill="#E1E1E1" d="M360.105 413.133l6.359-2.008 4.323 2.724-6.534 2.309-4.148-3.025zM339.758 408.183l6.97-1.8 3.945 2.681-6.702 1.914-4.213-2.795zM345.498 412.062l6.97-1.8 3.945 2.68-6.702 1.915-4.213-2.795zM351.314 416.253l6.971-1.8 3.944 2.681-6.702 1.915-4.213-2.796z"/><path fill="#00181B" d="M394.033 407.533l-1.177-1.81-7.086 7.386-32.465 10.715-21.36-15.748v2.806l21.36 15.838 33.216-10.951 7.512-8.236z"/><path fill="#E1E1E1" d="M369.579 394.742l-4.657 5.918 19.306 11.06 5.336-6.015-19.985-10.963zM362.786 402.406l-6.015 1.552 4.269 2.426 5.948-1.641-4.202-2.337zM355.083 404.387l-6.124 1.563 4.027 2.436 6.299-1.663-4.202-2.336zM368.466 405.723l-6.015 1.552 4.269 2.425 5.948-1.641-4.202-2.336zM360.764 407.703l-6.153 1.597 3.892 2.741 6.463-2.002-4.202-2.336zM374.407 409.055l-6.014 1.552 4.255 2.589 6.132-1.681-4.373-2.46z"/><ellipse fill="#152D5D" rx="13.5" ry="7" transform="matrix(-1 0 0 1 336.119 388.598)"/><ellipse fill="#152D5D" rx="13.5" ry="6" transform="matrix(-1 0 0 1 336.119 365.598)"/><path fill="#152D5D" d="M349.619 388.598v-23h-27v23h27z"/><ellipse fill="#000" rx="11.5" ry="5" transform="matrix(-1 0 0 1 336.119 365.598)"/><path fill="#FF8139" d="M349.619 347.598l-4.5 21c-.8.8-2 1-2.5 1l5-22.5 2 .5z"/><path fill="#FFD300" d="M327.619 349.098l7.5 21.5c-1.6 0-3-.334-3.5-.5l-7-20 3-1z"/><path fill="#E1E1E1" d="M262.5 388c5.6-4.8 2.333-7.667 0-8.5-7.667 1.833-23.2 5.5-24 5.5-.8 0-49.933 14.9-72.933 20.733l-3.622 5.446L194 419.908v-5.846c7.5-2 40.5-19.062 47-19.062s14.5-1 21.5-7z"/><path fill="#152D5D" d="M135.824 290.375h18.285v42.327l-18.285-5v-37.327z"/><rect width="133" height="84" x="80" y="227" fill="#152D5D" rx="3"/><rect width="131" height="79" x="80" y="230" fill="#CCD2DD" rx="2"/><path fill="#CCD2DD" d="M111 230h73v79h-73z"/><path fill="#fff" d="M141.209 242.469h2.964v4.298h-2.964zM144.965 242.469h2.964v4.298h-2.964zM148.723 242.469h2.964v4.298h-2.964zM152.482 242.469h2.964v4.298h-2.964zM156.242 242.469h2.964v4.298h-2.964zM160 242.469h2.964v4.298H160zM163.756 242.469h2.964v4.298h-2.964zM167.512 242.469h2.964v4.298h-2.964zM171.27 242.469h2.964v4.298h-2.964zM141.209 247.469h2.964v4.298h-2.964zM144.965 247.469h2.964v4.298h-2.964zM148.723 247.469h2.964v4.298h-2.964zM152.482 247.469h2.964v4.298h-2.964zM156.242 247.469h2.964v4.298h-2.964zM160 247.469h2.964v4.298H160zM163.756 247.469h2.964v4.298h-2.964zM167.512 247.469h2.964v4.298h-2.964zM171.27 247.469h2.964v4.298h-2.964z"/><path stroke="#fff" d="M115.678 260.582h33.945M120.678 263.582h33.945"/><path fill="#fff" d="M163 260h10v4h-10zM163 274h10v4h-10zM163 288h10v4h-10z"/><path stroke="#fff" d="M117.678 274.582h33.945M117.678 277.582h40.045M117.678 288.582h33.945M117.678 291.582H160"/><path fill="#000" d="M176.927 260.462a.794.794 0 00-.564.205c-.145.137-.241.343-.29.62h1.113v.376h-1.15l-.005.11v.134l.005.095h.996v.374h-.954c.104.508.4.762.888.762.233 0 .472-.051.716-.152v.496a1.756 1.756 0 01-.745.149c-.392 0-.711-.108-.957-.322-.244-.215-.404-.526-.479-.933h-.371v-.374h.332l-.004-.09v-.09l.004-.159h-.332v-.376h.367c.061-.408.217-.729.466-.962.249-.233.57-.349.964-.349.326 0 .617.072.874.215l-.205.456c-.25-.123-.473-.185-.669-.185zM176.927 274.462a.794.794 0 00-.564.205c-.145.137-.241.343-.29.62h1.113v.376h-1.15l-.005.11v.134l.005.095h.996v.374h-.954c.104.508.4.762.888.762.233 0 .472-.051.716-.152v.496a1.756 1.756 0 01-.745.149c-.392 0-.711-.108-.957-.322-.244-.215-.404-.526-.479-.933h-.371v-.374h.332l-.004-.09v-.09l.004-.159h-.332v-.376h.367c.061-.408.217-.729.466-.962.249-.233.57-.349.964-.349.326 0 .617.072.874.215l-.205.456c-.25-.123-.473-.185-.669-.185zM176.927 288.462a.794.794 0 00-.564.205c-.145.137-.241.343-.29.62h1.113v.376h-1.15l-.005.11v.134l.005.095h.996v.374h-.954c.104.508.4.762.888.762.233 0 .472-.051.716-.152v.496a1.756 1.756 0 01-.745.149c-.392 0-.711-.108-.957-.322-.244-.215-.404-.526-.479-.933h-.371v-.374h.332l-.004-.09v-.09l.004-.159h-.332v-.376h.367c.061-.408.217-.729.466-.962.249-.233.57-.349.964-.349.326 0 .617.072.874.215l-.205.456c-.25-.123-.473-.185-.669-.185z"/><path fill="#CCD2DD" d="M184 230h-73v79h73z"/><path fill="#fff" d="M177.791 242.469h-2.964v4.298h2.964zM174.035 242.469h-2.964v4.298h2.964zM170.277 242.469h-2.964v4.298h2.964zM166.518 242.469h-2.964v4.298h2.964zM162.758 242.469h-2.964v4.298h2.964zM159 242.469h-2.964v4.298H159zM155.244 242.469h-2.964v4.298h2.964zM151.488 242.469h-2.964v4.298h2.964zM147.73 242.469h-2.964v4.298h2.964zM177.791 247.469h-2.964v4.298h2.964zM174.035 247.469h-2.964v4.298h2.964zM170.277 247.469h-2.964v4.298h2.964zM166.518 247.469h-2.964v4.298h2.964zM162.758 247.469h-2.964v4.298h2.964zM159 247.469h-2.964v4.298H159zM155.244 247.469h-2.964v4.298h2.964zM151.488 247.469h-2.964v4.298h2.964zM147.73 247.469h-2.964v4.298h2.964z"/><path stroke="#fff" d="M177.322 260.582h-33.945M177.322 263.582h-33.945"/><path fill="#fff" d="M132 260h-10v4h10zM132 274h-10v4h10zM132 288h-10v4h10z"/><path stroke="#fff" d="M177.322 274.582h-33.945M177.322 277.582h-40.045M177.322 288.582h-33.945M177.322 291.582H135"/><path fill="#000" d="M118.073 260.462c.229 0 .417.068.564.205.145.137.241.343.29.62h-1.113v.376h1.15l.005.11v.134l-.005.095h-.996v.374h.954c-.104.508-.4.762-.888.762-.233 0-.472-.051-.716-.152v.496c.214.099.462.149.745.149.392 0 .711-.108.957-.322.244-.215.404-.526.479-.933h.371v-.374h-.332l.004-.09v-.09l-.004-.159h.332v-.376h-.367c-.061-.408-.217-.729-.466-.962-.249-.233-.57-.349-.964-.349-.326 0-.617.072-.874.215l.205.456c.25-.123.473-.185.669-.185zM118.073 274.462c.229 0 .417.068.564.205.145.137.241.343.29.62h-1.113v.376h1.15l.005.11v.134l-.005.095h-.996v.374h.954c-.104.508-.4.762-.888.762-.233 0-.472-.051-.716-.152v.496c.214.099.462.149.745.149.392 0 .711-.108.957-.322.244-.215.404-.526.479-.933h.371v-.374h-.332l.004-.09v-.09l-.004-.159h.332v-.376h-.367c-.061-.408-.217-.729-.466-.962-.249-.233-.57-.349-.964-.349-.326 0-.617.072-.874.215l.205.456c.25-.123.473-.185.669-.185zM118.073 288.462c.229 0 .417.068.564.205.145.137.241.343.29.62h-1.113v.376h1.15l.005.11v.134l-.005.095h-.996v.374h.954c-.104.508-.4.762-.888.762-.233 0-.472-.051-.716-.152v.496c.214.099.462.149.745.149.392 0 .711-.108.957-.322.244-.215.404-.526.479-.933h.371v-.374h-.332l.004-.09v-.09l-.004-.159h.332v-.376h-.367c-.061-.408-.217-.729-.466-.962-.249-.233-.57-.349-.964-.349-.326 0-.617.072-.874.215l.205.456c.25-.123.473-.185.669-.185z"/><path fill="#152D5D" d="M219.048 294.389a4.001 4.001 0 014.653-3.074l89.688 17.01a4 4 0 013.159 4.8l-13.86 62.164a4 4 0 01-4.76 3.036l-88.906-19.477a4 4 0 01-3.052-4.763l13.078-59.696z"/><path fill="#CCD2DD" d="M220.575 296.759a4.002 4.002 0 014.639-3.077l85.479 15.887a4 4 0 013.178 4.783l-12.337 56.757a4 4 0 01-4.765 3.057l-84.978-18.616a4.002 4.002 0 01-3.052-4.764l11.836-54.027z"/><path fill="#fff" d="M184.521 363.207l-.428 1.954 4.336-1.098-3.908-.856z"/><path fill="#152D5D" d="M187.328 360.436l17.802-5.497a2.003 2.003 0 011.056-.035l91.015 21.779c1.922.46 2.083 3.133.23 3.82l-15.989 5.932a2 2 0 01-1.161.07l-92.828-22.213c-1.979-.473-2.069-3.255-.125-3.856z"/><path fill="#fff" d="M230.04 366.308l-7.476 3.37 22.383 5.293 6.989-3.485-21.896-5.178zM225.034 363.583l3.406.806-1.203.743-3.893-.921 1.69-.628zM220.169 362.435l3.406.806-1.204.743-3.892-.921 1.69-.628zM215.302 361.283l3.406.805-1.204.743-3.892-.92 1.69-.628zM249.85 369.453l3.893.92-1.204.743-3.892-.92 1.203-.743zM254.715 370.605l3.893.921-1.203.743-3.893-.921 1.203-.743zM259.581 371.754l3.892.92-1.203.743-3.893-.92 1.204-.743zM264.448 372.906l3.892.92-1.203.743-3.893-.92 1.204-.743zM269.313 374.054l3.893.921-1.204.743-3.892-.921 1.203-.743zM274.178 375.207l3.893.92-1.203.743-3.893-.92 1.203-.743zM229.387 362.56l3.407.806-1.204.743-3.892-.921 1.689-.628zM234.253 363.708l3.406.806-1.204.743-3.892-.921 1.69-.628zM239.118 364.861l3.406.805-1.203.743-3.893-.92 1.69-.628zM243.985 366.009l3.406.806-1.203.743-3.893-.921 1.69-.628zM248.85 367.162l3.406.805-1.203.743-3.893-.92 1.69-.628zM224.52 361.408l3.406.805-1.203.743-3.893-.92 1.69-.628zM219.655 360.259l3.406.806-1.203.743-3.893-.921 1.69-.628zM253.229 368.199l3.893.92-1.204.743-3.892-.92 1.203-.743zM258.094 369.347l3.893.921-1.203.743-3.893-.921 1.203-.743zM262.961 370.5l3.893.92-1.203.743-3.893-.92 1.203-.743zM267.827 371.648l3.892.921-1.203.743-3.893-.921 1.204-.743zM272.692 372.8l3.893.921-1.204.743-3.892-.921 1.203-.743zM277.559 373.949l3.893.92-1.204.743-3.892-.92 1.203-.743zM247.535 369.931l-14.458-3.419 1.342-.71 14.458 3.419-1.342.71zM229.899 364.736l3.406.805-1.203.743-3.893-.92 1.69-.628z"/><path stroke="#fff" d="M298.721 319.149l-10.003 45.197-72.272-15.475"/><path fill="#fff" d="M287.213 333.954l-6.45 28.853-6.189-1.419 6.452-28.942 6.187 1.508z"/><path fill="#FF8139" d="M273.625 344.359l-3.374 15.983-6.189-1.419 3.376-16.073 6.187 1.509z"/><path fill="#fff" d="M264.469 333.084l-5.221 24.775-6.189-1.418 5.223-24.866 6.187 1.509z"/><path fill="#FF8139" d="M253.739 326.646l-6.451 28.852-6.189-1.419 6.453-28.942 6.187 1.509zM239.235 333.759l-4.127 19.189-6.189-1.419 4.129-19.278 6.187 1.508z"/><path fill="#E2BBA6" d="M151.176 394.745s-10.864-1.462-19.56-12.276c0 0 2.169 9.092-9.429 19.505-8.033 7.189-1.767 45.488 1.617 52.246 0 0-32.052 31.58-84.226 6.288 0 0 13.104-47.69 14.058-74.654 1.175-30.619 4.72-50.304 15.443-79.211 10.724-28.906 13.265-44.856 11.809-60.076-1.456-15.219-.723-39.049 26.107-44.806 26.83-5.758 30.003 25.792 30.003 25.792s2.37 40.341-8.184 49.583c-9.247 8.15-25.103-2.193-25.103-2.193s-3.675 18.714.583 25.322c0 0 5.874 6.719 20.383 12.496 15.153 6.008 17.583 50.064 25.616 58.134"/><path fill="#CEA999" d="M120.229 202.23c1.074 6.559 2.791 17.092 4.377 27.475-1.004-9.782-2.861-20.616-4.147-27.394l-.23-.081z"/><path fill="#E2BBA6" d="M136.977 227.59l-12.371 2.113.623 9.411c.12 5.167-.291 9.312-1.567 11.275-5.341 8.24-7.47-11.014-11.888-10.594-4.418.421-6.477 5.447-3.304 14.018 3.173 8.571-8.234 10.954-9.218 15.76-.984 4.806-8.645 31.87 0 41.132l13.245-4.005a40.002 40.002 0 01-8.194-6.398c-4.257-6.608-.582-25.322-.582-25.322s15.845 10.343 25.103 2.193a12.057 12.057 0 002.008-2.323c5.272-7.38 6.025-26.113 6.175-30.128.151-4.016-.03-17.132-.03-17.132z"/><path fill="#F3D6C6" d="M131 254.5v-28l6.5 10.5c0 5.167-.5 18.1-2.5 28.5-2 10.4-9 14-12 14.5 7-5.5 8-18 8-25.5z"/><path fill="#2F2417" d="M114.925 240.516c2.8 2.4 5.167 12.333 6 17-1-11.5 6.898-15.699 15.5-20 6-3 12.188-10 10-17-2.5-8-5.5-5-13-14.5s-17.79-8.526-23-6.5c-9 3.5-9.5 4.5-15 7.5-4.907 2.677-5.566 1.484-14 5.5-10.5 5-12 19.5-8.5 28s6 8 3.5 15 0 10 3.5 13.5c2.8 2.8 3.834 7.166 4 9 1.5-3 7.5-6.5 13.5-5.5s5.5-6 9.5-8.5 5.5-5 3-12 1.5-14.5 5-11.5z"/><path fill="#4F3C27" d="M145.924 228.015c1-2 2.2-7.1-1-11.5-4-5.5-5.5-2-10.5-9s-10.5-11-21.5-9-13.329 6-23.829 9c-10.23 2.923-16.825 8.218-18.082 22.36a8.152 8.152 0 00-.089 1.14c.026-.386.055-.766.089-1.14.436-3.05 2.597-8.352 8.911-11.86 9-5 14.5-5 25-10.5s18-8 24.5 0 12.5 7.5 14.5 11.5 2 5 2 9z"/><path fill="#292289" d="M70.706 302.164s-4.8 4.005-9.128 16.02c-4.327 12.016 6.929-6.918 6.929-6.918l1.325-6.699.874-2.403z"/><path fill="#F4EFEF" d="M122.498 450.633s15.245 54.657 14.382 89.06H20s1-27.194 5.5-45.194c4.5-18 15.975-41.213 15.975-41.213s44.533 22.819 81.023-2.653z"/><path fill="#152D5D" d="M224.001 361.5c-15.142 4.13-42.997 17.732-61.001.5-13.877-13.277-13-36-31.384-49.5-9.429-6.5-23.786-11.557-28.616-15-23 2-24.77-.074-29.5-5-4 3.5-16.5 5-23.439 29.5-3.94 13.911-7.49 44.391-8.595 75-1.004 26.964 0 56.287 0 56.287 7.34 33.453 82.338.931 82.338.931C126 443 129.5 414 129.5 414l2.116-31.532c8.696 10.833 22.251 17.021 22.251 17.021 20.555 11.785 60.247-14.365 70.134-20.587V361.5z"/><path fill="#00181B" d="M224.001 380.999v-5.5s-32.262 25.049-52.5 23.989c-7.536-.395-16.328-7.209-25.677-9.983-9.348-2.773-18.506-20.485-18.506-20.485-.803 18.373-12.883 21.266-20.233 36.245-5.452 11.115-1.526 40.472.864 54.89 9.348-3.124 15.855-5.938 15.855-5.938-2.952-7.85-9.62-45.057-1.617-52.246 11.598-10.413 9.429-19.504 9.429-19.504 8.696 10.833 22.251 17.021 22.251 17.021 20.555 11.815 59.634-14.989 70.134-18.489z"/><path fill="#000" d="M73.678 464.07c.18 1.212.351 2.393.522 3.565-.17-1.172-.341-2.353-.522-3.565zM73.537 463.15c0-.321-.09-.641-.14-1.002.04.361.1.681.14 1.002z" opacity=".3"/><path fill="#E1E1E1" d="M74.136 521L70 540h10c-2-9-5.227-16.833-5.864-19z"/><path fill="#C4C4C4" d="M74 521l-4 19h-8l4-14.5-10.5-6c4.8.8 14.333 1.333 18.5 1.5z"/><path fill="#F4EFEF" d="M222.5 445.502c-11.2.4-54.667 6.166-75 9h47c16.8 5.6 22 27.833 22.5 36.499v50h48c-4.667-21.166-14.6-65.699-17-74.499-3-11-11.5-21.5-25.5-21z"/><path fill="#F4EFEF" d="M175 429.999l-29 5v19.5l58.5-7.5c-.4-17.6-19.833-18.667-29.5-17z"/><path fill="#fff" d="M111.116 355.449c-12.89-8.781-40.94-11.118-65.631-11.273C19.675 344.015 0 365.729 0 391.538v148.46l216.83 1c.128-4.311.308-20.599 0-47.261-.309-26.663-15.047-37.308-22.378-39.298h-48.227c.617-60.886-9.494-81.539-35.109-98.99z"/><path fill="#2F2417" d="M126.173 263.359c-3.229-2.332-3.737-11.734-3.588-16.144l-2.242 4.485c1.076 14.171-8.372 11.435-13.23 8.296l-6.951 12.333c3.812 4.933 20.853 15.472 29.374 8.072 8.521-7.4 9.194-20.629 6.503-20.405-2.691.224-5.83 6.279-9.866 3.363z"/><path fill="#E2BBA6" d="M247.032 378.223c-1.163.146-7.391-6.604-10.36-9.996 2.605 0 9.088 1.017 14.177 5.089 5.089 4.071 5.513 6.906 5.089 7.815-2.181.873-4.302-.363-5.089-1.09-3.09.363-2.363-2-3.817-1.818z"/><path fill="#F3D6C6" d="M233.362 357.428c-1.673.478-6.971 3.087-9.411 4.332v18.97c3.734-2.689 8.066 0 15.385 0 7.32 0 8.963-5.079 10.158-5.079 1.195 0 5.975 2.689 7.468 5.079 1.494 2.39 6.124 4.481 4.481 0-1.643-4.481-8.066-9.859-9.41-11.352-1.344-1.494-1.792-2.838-3.734-3.884-1.942-1.046-.747-2.39-3.585-4.481-2.838-2.091-9.261-4.182-11.352-3.585z"/></svg>