<svg xmlns="http://www.w3.org/2000/svg" fill="none" viewBox="0 0 471 540"><path fill="#F5F5F5" d="M370.836 110c0-60.751-49.249-110-110-110h-260v539.5h102l-.5.5h268.5V110z"/><path fill="#E1E1E1" d="M262.836 0h-261v539h261z"/><path fill="#fff" d="M317 370H91c-49.706 0-90 40.294-90 90v80h316V370z"/><circle r="5.341" fill="#fff" transform="matrix(-1 0 0 1 259.391 165.806)"/><circle r="5.341" fill="#fff" transform="matrix(-1 0 0 1 213.61 165.806)"/><circle r="5.341" fill="#fff" transform="matrix(-1 0 0 1 167.829 165.806)"/><circle r="5.341" fill="#fff" transform="matrix(-1 0 0 1 122.048 165.806)"/><path fill="#fff" d="M285.457 198.613H76.076v4.578h209.381z"/><path fill="#fff" d="M124 168h-4v203h4zm46.117.094h-4.578v256.373h4.578z"/><circle r="5.341" fill="#fff" transform="matrix(-1 0 0 1 77.155 165.806)"/><path fill="#fff" d="M79.443 168.094h-4.578v256.373h4.578zm136.455 0h-4.578v256.373h4.578zm45.907 0h-4.578v212.118h4.578z"/><path fill="#E2BBA6" d="M86.028 423.183s8.68-1.168 15.628-9.808c0 0 5.544 9.808 7.534 15.584 6.418 5.744 1.412 36.344-1.292 41.744 0 0 25.609 25.232 67.295 5.024 0 0-10.469-38.104-11.232-59.648-.938-24.464-3.77-40.192-12.339-63.288-8.568-23.096-10.598-35.84-9.435-48 1.164-12.16.578-31.2-20.859-35.8-21.437-4.6-23.972 20.608-23.972 20.608s-1.893 32.232 6.539 39.616c7.389 6.512 20.057-1.752 20.057-1.752s2.936 14.952-.466 20.232c0 0-4.693 5.368-16.286 9.984-12.106 4.8-14.048 40-20.466 46.448"/><path fill="#CEA999" d="M110.754 269.367a2116.09 2116.09 0 00-3.498 21.952c.802-7.816 2.286-16.472 3.313-21.888l.185-.064zm-13.383 20.266l9.885 1.688-.498 7.52c-.096 4.128.233 7.44 1.252 9.008 4.268 6.584 5.969-8.8 9.499-8.464 3.53.336 5.175 4.352 2.639 11.2-2.535 6.848 6.579 8.752 7.365 12.592.786 3.84 6.908 25.464 0 32.864l-10.582-3.2a31.982 31.982 0 006.547-5.112c3.401-5.28.465-20.232.465-20.232s-12.66 8.264-20.057 1.752a9.666 9.666 0 01-1.605-1.856c-4.212-5.896-4.813-20.864-4.934-24.072-.12-3.208.025-13.688.025-13.688z"/><path fill="#594423" d="M96.008 272.993s-6.218 6.4-1.821 13.448 13.206 3.728 14.305 10.968c1.099 7.24 9.017 1.976 9.017 1.976s3.306-6.144 6.419-1.312c3.112 4.832-3.739 12.504-3.739 12.504a7.987 7.987 0 000 9.208c3.329 4.936 7.485-.216 11.232 4.8 3.746 5.016 9.892-.384 12.836 4.632 0 0-2.086-8.36 2.311-11 4.396-2.64 9.764-7.072 7.702-15.024-1.717-6.616-2.287-11.504-1.404-15.896.882-4.392-5.616-7.688-8.28-8.8-2.663-1.112-1.757-13.6-14.08-14.48-12.323-.88-13.639 4.408-19.142 4.392-5.504-.016-12.243 1.104-15.356 4.584z"/><path fill="#3E2F1C" d="M123.599 289.711c-3.113-8.84 4.725-9.808 3.594-15.592-.69-3.56 1.356-7.528 3.033-10.072h.264c12.307.896 11.441 13.4 14.081 14.496 2.639 1.096 9.154 4.4 8.279 8.8-.802 3.824-.433 8 .802 13.424-2.519 3.872-3.586 7.312-2.342 13.848a22.854 22.854 0 01-4.75 3.648c-2.11 1.264-2.72 3.84-2.792 6.184-4.557-2.4-1.091-8-1.412-12.216-.321-4.216-5.479-2.728-7.22-10.288-1.741-7.56-8.424-3.392-11.537-12.232z"/><path fill="#292289" d="M150.322 349.219s3.835 3.2 7.293 12.8c3.458 9.6-5.536-5.528-5.536-5.528l-1.059-5.352-.698-1.92z"/><path fill="#00B67A" d="M101.596 467s-34.594 39.035-16.545 73h105.785l-17.205-69.997s-42.802 17.632-72.035-3.003z"/><path fill="#04A670" d="M172.836 486l8.5 14.5c-4.5-3-6-4-13 6s-19 11-29.5 8.5c-8.4-2-11.167 8.5-11.5 14-2-12.5 2-30.5 15-32.5 10.4-1.6 24.667-7.667 30.5-10.5z"/><path fill="#152D5D" d="M36.495 422.16c10.96-1.984 28.136-6.44 42.521-20.208 11.088-10.608 16.046-39.408 28.184-44.24A56.516 56.516 0 00119.676 351c19.014 6.264 27.574 4.056 31.353.12.201.552 5.945 6.928 9.29 15.656 8.826 23 6.764 27.222 15.017 55.384 6.518 22.242 11.5 38.338 11.5 38.338-39.5 44.5-86 7.5-86 7.5 0-7.706 0-13.5.821-33.5v-21.122c-6.948 8.656-17.779 13.6-17.779 13.6-16.423 9.416-38.373 9.856-47.383 9.088V422.16z"/><path fill="#0C2048" d="M183.836 451.5l-3-10-26 10-29.5-10-23.5-23.5v3.5l20 23c0 2.333.9 7.8 4.5 11 4.5 4 27.5 13 29.5 12.5 1.6-.4 19.333-11.167 28-16.5z"/><path fill="#E2BBA6" d="M58.982 405.761l-13.75-3.128s-11.032.936-12.26 1.128c-1.227.192-4.268 5.096-4.725 6.04-.457.944 1.853 1.32 3.434 0 1.58-1.32 1.404-2.456 2.864-2.736 1.46-.28 20.338 2.952 24.437-1.304z"/><path fill="#CEA999" d="M37.16 406.441s-4.308 2.144-5.616 3.856c-1.307 1.712-2.174 3.128-2.182 3.888-.008.76 1.196 1.808 2.688.472 0 0 .289 2.192 2.47 1.048 0 0 .891 1.952 3.82.328.393-.208.642-.44.61-.76-.097-1.16 6.097.584 10.806 1.168 5.536.696 8.023-.248 9.194-1.312 1.172-1.064-12.507-8.192-12.507-8.192l-9.283-.496z"/><path fill="#0C2048" d="M74.356 405.953h-12.99l-2.278 9.36s9.194-3.872 15.268-9.36z"/><path fill="#E2BBA6" d="M61.365 405.952s-8.977-.736-10.028-.736c-1.051 0-4.99-2.648-6.603-3.128a66.163 66.163 0 00-7.22-1.128c-1.373-.16-1.453.984.4 2.496 1.854 1.512 4.91.48 6.034 2 1.123 1.52 1.364 4.496 4.508 6.816 3.145 2.32 10.639 3.04 10.639 3.04l2.27-9.36z"/><path fill="#0C2048" d="M101.881 417.663s-4.613 1.544-6.378 1.832c0 0 4.918-4.344 6.121-6.12a13.263 13.263 0 00.257 4.288z"/><path fill="#E2BBA6" d="M36.496 422.163c-2.054.486-4.14.83-6.242 1.032-1.7 0-8.985-6.176-10.076-7.264-1.091-1.088-8.825-4.376-12.38-4.368-3.554.008-1.211 1.944 0 2.4 1.212.456 5.825 2.168 7.646 3.384 1.821 1.216 4.71 3.16 3.546 2.512a28.957 28.957 0 00-6.988-2.496c-1.42-.304-8.087-1.496-10.148-.936-2.062.56-1.493 1.944.184 2.544 0 0-1.861 1.488 1.492 2.744 0 0 2.142.504 3.258.8a1.418 1.418 0 00.093 1.926c.169.166.377.288.605.354 1.82.8 5.8 1.76 8.175 2.944 2.375 1.184 5.07 4.608 6.795 5.352 1.725.744 5.656 1.864 8.207.8l5.833.6v-12.328z"/><path fill="#000" d="M147.949 478.578c-.144.968-.281 1.912-.417 2.848.136-.936.273-1.88.417-2.848zm.113-.739c0-.256.072-.512.112-.8-.032.288-.08.544-.112.8z" opacity=".3"/><path fill="#CEA999" d="M6.41 423.535c.802 1.288 10.269 2.984 13.446 4.96a22.877 22.877 0 0010.357 3.072 51.387 51.387 0 006.242-.8v3.736l-5.832-.6c-2.552 1.08-6.491 0-8.208-.8-1.717-.8-4.428-4.168-6.795-5.352-2.367-1.184-6.354-2.112-8.175-2.944-.755-.392-.987-.848-1.035-1.272zm-3.394-4.72l-.98.208c-.858-.312-1.427-.8-1.5-1.328a7.172 7.172 0 002.48 1.12zm3.771 3.715c-1.115-.28-3.257-.8-3.257-.8-1.324-.496-1.83-1.024-1.966-1.488.642.8 5.897 1.904 5.897 1.904l-.674.384z"/><path fill="#594423" d="M138.836 260.999c-12 4-9.667 16.667-7 22.5 4.5 7 16.5 9 16.5 15s3.5 9 13.5 9.5 3 8.5 11.5 20.5 20.5 5 23-2.5.5-19-10-23.5-10.5-14.5-14.5-26-18-20.5-33-15.5z"/><path fill="#FF8139" stroke="#FF8139" d="M203.622 357.241c-.4-2.8-2.167-3.167-3-3l-83 21c-2.5 3.5 4.5 65.5 8 68.5s26 12 30 10.5 63.5-33.5 66-37.5-17.5-56-18-59.5z"/><path fill="#D3662F" d="M150.338 421l64-33-65.5 35.5c-8-8-9.5-19-9.5-25.5s-2.5-11-9.5-12c-5.6-.8-9.667-7-11-10 6.833 2.167 20.8 7.2 22 10 1.2 2.8 6.833 24.5 9.5 35z"/><path fill="#FF8139" d="M140.337 385.5c2-.8 37.784-21.259 58.784-30.259 8.5-3.643-12.5-9.5-18-8s-66 25.5-63.5 28 20.216 11.259 22.716 10.259z"/><path fill="#FF8139" d="M148.838 345.5l20 6-8 3.5-10-4.5-2-5zm-32 6c1.2 0 17.167 7.667 25 11.5h1l-13.5 5.5c-6.5-3.667-19.9-11-21.5-11-1.6 0-4.333 2.667-5.5 4 .333-1 1.2-3.2 2-4 1-1 11-6 12.5-6zm6 79l-20.5-17c-1.6 0-1.667 2.667-1.5 4l23.5 24-1.5-11z"/><path fill="#FFD300" d="M209.338 396l-3.5-10-3.5 2 3.5 10 3.5-2zm-35.5 15l-3.5-10-3.5 2 3.5 10 3.5-2z"/><path fill="#E5B9B7" d="M226.803 357.756a10.438 10.438 0 00-3.443-2.278 96.342 96.342 0 00-10.968-1.197c-1.956 0-9.716 3.384-10.289 3.761-.574.377-.913 2.277 2.073 2.186 2.987-.091 22.627-2.472 22.627-2.472z"/><path fill="#152D5D" d="M219.008 489.856c.401-23.993 9.184-79.977 13.526-104.969h94.676c6.512 14.995 8.015 33.49 8.015 49.985 0 13.196-1.056 81.809-3.227 104.469h-49.592l-9.291-70.479c-2.004 7.598-4.848 56.816-6.017 70.479h-48.09c-.167.167-.4-25.492 0-49.485z"/><path fill="#00181B" d="M232.336 386h95.5l4 12h-101.5l2-12z"/><path fill="#0C2048" d="M267.539 460.999c-4 30.8-7 65.167-8 78.5h8c2.4-32.4 4.667-58.5 5.5-67.5-1.6-14.4-4.333-13.333-5.5-11z"/><path fill="#fff" d="M200.336 316c12.8-27.2 30.667-57.333 38-69v67c-4.333 8-13.7 18.1-16.5 22.5-2.8 4.4-12.167 24.5-16.5 34l-19.5-14c-.5-2.167 1.7-13.3 14.5-40.5z"/><path fill="#F4F1F1" d="M229.836 287v39.5c-12 14-18 29.833-19.5 36l-4-6.5c5.167-4.167 15.2-14.4 14-22-1.2-7.6-7.167-11.167-10-12 3 .882 8.5 4.5 13.5 0 4-3.6 5.667-24.833 6-35z"/><path fill="#E5B9B7" d="M206.836 354c0-1.2-.333-5.167-.5-7l-5 9.5c-.167 2.667-.4 8.3 0 9.5.5 1.5 2.5 1.5 3-.5s2.5-10 2.5-11.5z"/><path fill="#F4C7C3" d="M206.336 345.499c-1.5-2.25-2.167-3-3.5-4-2.5-1-3.5-1-5.5-2.5s-3.5 1-5.5-.5-3 0-4.5 0-2.5-1-4-.5-5 9-6 11-3.5 7.5-3 9.5c.4 1.6 1.166 2.334 1.5 2.5-.334.834-1.1 2.8-1.5 4-.5 1.5 0 4 2 4 1.6 0 2.666-1.333 3-2 0 1.5 1.5 2 3 1.5s2-3.5 2.5-4.5 4.5-9 6-10.5 6.5-3 6.5-2-2 5.5-3.5 7-6 5-6.5 6.5 0 2.5 2 2.5 11-8 12.5-10.5 5.5-10 4.5-11.5z"/><path fill="#F4C7C3" d="M241.336 253.498c-10.198 10.71 2.472 30.546-4.206 33.5l-5.281 5.328s1.644 24.159-.013 63.172c-1.511-.589-3.178-.972-5.034-.605-1.643.326-3.026.638-3.978.833-.952.195 1.252.104-4.864.273-6.117.169-6.599-1.744-8.725-.768-2.126.976-6.664 4.399-9.285 5.544-2.622 1.145-8.36 6.702-9.351 8.016-.991 1.314.535 3.826 2.087 3.045a85.7 85.7 0 007.72-5.739c.483-.65 9.025-2.954 9.025-2.954s-5.882 3.28-7.369 4.23c-1.486.95-8.529 4.984-9.311 5.621a2.78 2.78 0 00-.091 3.781c.307.348.697.614 1.134.774 0 0-1.513 4.19 2.165 4.437l4.512-1.158s0 2.095 2.609 1.861c3.429-.312 2.986-.573 5.712-.898 2.425-.299 3.73-.833 12.689-3.175 7.147-1.9 12.793-4.438 15.649-5.387l8.921-2.603 7.511-5.01s73.749-10.437 81.456-15.616c7.708-5.179 21.075-58.156 6.586-93.851-7.629-18.817-21.79-19.662-27.268-19.584-4.303.078-9.482-1.913-9.978-2.967-2.217-5.062-5.203-16.943 6.717-33.691v-3.909s10.857-3.183 9.761-12.5c0 0-.514-5.862-8-7.5 0 0 6.5-20.5 4.5-22-5.412-9.578-57.044-11.125-63.5 6 0 0 1 50 13.5 63.5 3.991 1.08 1.671.924 6 0-.618 5.695.549 6.246-1.568 11.57l-.835 1.497s.144 3.279-9.794.468c-8.62-2.446-14.684 7.965-19.803 16.465z"/><path fill="#000" d="M273.513 224.153c-6.746-3.378-8.408-18.553-11.06-23.34-2.651-4.787 4.34-12.143-.123-25.1-3.331-9.672-.602-22.04.998-27.713-5.359 2.535-9.042 6.247-9.266 11.346 0 0-1.029 59.382 19.451 64.807z" opacity=".1"/><path fill="#000" d="M275.928 238.165c1.891-1.744 4.982-20.821 4.982-20.821l-4.982 1.301a63.315 63.315 0 01-4.121 16.605l-.834 1.496s-3.274 2.187-9.86 1.198l1.461.494c4.486.976 11.463 1.471 13.354-.273z" opacity=".1"/><path fill="#fff" d="M334.336 374.5c0-2.8-1.5-17.333-1.5-24.5l-77.5 12-9.5 8.5-15.5 4.5c.8 3.6.833 9.5 2.5 11h95c2-2.5 6.5-5.5 6.5-11.5z"/><path fill="#F4F1F1" d="M332.836 352c-19.2 11.6-55 15.833-70.5 16.5v3.5l7.5 2c10.5 2.5 38-8.5 50-10 9.6-1.2 13 .5 13.5 1.5l-.5-13.5z"/><path fill="#fff" d="M261.837 236.5c-12-2.5-15.381 1.954-23.5 10.5-10 10.527-6.487 24.5-6.487 76.5v32l7.64-1.943c.819.862 6.95 7.646 6.548 17.071l7.408-1.705.104-3.305s74.283-9.734 81.456-15.616c12.311-10.098 30.755-56.267 14.831-95.502-7.629-18.817-26.692-20.801-32-19.5-9.455 2.368-13.491-1.387-14-2.441 0 0-8.985 6.936-17.292 8.562l-6.521 6.962-1.904-6.975c-2.582-.82-5.79-6.61-5.556-8.25-1.043.585-2.159 6.114-10.727 3.642z"/><path fill="#F4F1F1" d="M316.838 299.5l-1.644 4.565c-1.33 1.835-3.613 3.603-7.356 4.435-9 2-12.5 6-15.5 11-2.4 4-16.667 15-23.5 20 7.167-3.667 22.5-11.4 26.5-13 4-1.6 10-2 12.5-2l7.356-20.435c1.229-1.694 1.644-3.445 1.644-4.565z"/><path stroke="#FFD300" stroke-width="3" d="M275.836 399v-14h-18v14h18z"/><path fill="#C09550" d="M259.678 213.015a33.762 33.762 0 01-.076-8.732s1.51 3.701 4.65 1.317c4.641-3.518 12.027-6.558 22.947-1.816 10.92 4.743 18.279-10.762 17.853-17.342-.426-6.579-.292-22.429-5.523-24.725-5.231-2.296-13.236 6.71-25.348 6.937-12.112.227-19.845-6.848-19.468-2.107.224 2.576.31 5.163.257 7.75 0 0-8.321-14.552-6.572-22.095 1.749-7.544 9.569-9.399 16.981-9.414 7.412-.014 14.125-3.792 17.59-5.062a21.322 21.322 0 019.73-.699 21.27 21.27 0 019.014 3.709c7.316 5.218 12.38 2.018 15.328 8.241 2.948 6.223-1.601 21.89-3.135 25.016-1.041 2.087-2.413 11.114-3.152 20.311.73 1.007 1.891 1.371 3.844.143a59.742 59.742 0 01-2.047 13.889c-1.62 5.584-9.242 15.863-23.735 21.342a23.661 23.661 0 01-10.977 1.807c-12.227-1.186-17.558-12.468-18.161-18.47z"/><path fill="#A07E49" d="M300.77 213.181c5.349-3.139 9.321-7.575 8.104-16.956-1.216-9.381 3.709-32.129 3.766-40.84.056-8.711-8.747-5.331-11.431-10.681-1.681-3.334-6.042-6.101-9.093-7.755a21.298 21.298 0 019.622 3.818c7.317 5.218 12.38 2.018 15.328 8.241 2.948 6.224-1.601 21.89-3.135 25.017-1.041 2.086-2.413 11.113-3.152 20.31.73 1.007 1.892 1.371 3.844.143a59.759 59.759 0 01-2.047 13.89c-1.62 5.583-9.242 15.862-23.734 21.341a25.95 25.95 0 01-6.324 1.695c10.131-2.259 12.914-15.088 18.252-18.223z"/><path fill="#DDAB5B" d="M287.597 136.751s-3.828 6.948-14.444 9.855c-3.752 1.057-16.413-1.578-19.608 2.629-3.194 4.206-3.619 9.449 1.158 17.289.224 2.576.31 5.164.258 7.75 0 0-8.313-14.527-6.564-22.071 1.749-7.543 9.569-9.399 16.981-9.413 7.412-.015 14.125-3.792 17.59-5.063a17.978 17.978 0 014.629-.976z"/><path fill="#DDAA5B" d="M259.676 213.017a33.806 33.806 0 01-.076-8.732s1.51 3.701 4.65 1.317a19.993 19.993 0 0114.909-4.08c-.411.054-14.284 1.73-15.661 8.735-1.376 7.005 2.3 15.29 8.985 19.922-8.43-3.368-12.306-12.121-12.807-17.162z"/><path fill="#F4F1F1" d="M236.337 351c8.8 8.8 9.667 20 9 24.5l17-2.5c1.2-14.8-6.5-24.5-10.5-27.5l-15.5 5.5z"/><rect width="212.841" height="77.884" fill="#CCD2DD" rx="8" transform="matrix(-1 0 0 1 236.422 42.445)"/><path fill="#FAFAFC" d="M51.553 98.02V65.98h22.095v5.444H58.393v7.56h14.31v5.49h-14.31v8.1h15.255v5.445H51.553zm45.968.404c-3.24 0-6.075-.675-8.505-2.025-2.4-1.38-4.245-3.3-5.535-5.76-1.29-2.49-1.935-5.385-1.935-8.685 0-3.27.645-6.135 1.935-8.595 1.29-2.49 3.135-4.41 5.535-5.76 2.43-1.35 5.265-2.025 8.505-2.025 2.13 0 4.155.33 6.075.99 1.95.63 3.54 1.53 4.77 2.7l-2.205 5.04c-1.44-1.08-2.85-1.86-4.23-2.34a11.994 11.994 0 00-4.275-.765c-2.88 0-5.085.915-6.615 2.745-1.53 1.83-2.295 4.5-2.295 8.01 0 3.54.765 6.24 2.295 8.1 1.53 1.83 3.735 2.745 6.615 2.745 1.5 0 2.925-.24 4.275-.72 1.38-.51 2.79-1.305 4.23-2.385l2.205 5.04c-1.23 1.17-2.82 2.085-4.77 2.745-1.92.63-3.945.945-6.075.945zm33.832 0c-3.18 0-5.955-.66-8.325-1.98-2.34-1.35-4.155-3.27-5.445-5.76-1.26-2.49-1.89-5.4-1.89-8.73s.63-6.225 1.89-8.685c1.29-2.46 3.105-4.35 5.445-5.67 2.37-1.35 5.145-2.025 8.325-2.025 3.18 0 5.94.675 8.28 2.025 2.34 1.32 4.14 3.21 5.4 5.67 1.26 2.46 1.89 5.355 1.89 8.685s-.63 6.24-1.89 8.73c-1.26 2.49-3.06 4.41-5.4 5.76-2.34 1.32-5.1 1.98-8.28 1.98zm0-5.49c2.7 0 4.8-.945 6.3-2.835 1.53-1.89 2.295-4.605 2.295-8.145 0-3.54-.765-6.24-2.295-8.1-1.5-1.86-3.6-2.79-6.3-2.79-2.7 0-4.815.93-6.345 2.79-1.5 1.86-2.25 4.56-2.25 8.1 0 3.57.75 6.3 2.25 8.19 1.53 1.86 3.645 2.79 6.345 2.79zm25.056 5.086V65.98h7.02v26.324h14.31v5.715h-21.33zm29.62 0V65.98h22.095v5.444h-15.255v7.56h14.31v5.49h-14.31v8.1h15.255v5.445h-22.095zM66.813 49.113l-6.598 8.883 3.881 2.667 6.524-9.012-3.807-2.538z"/></svg>