<svg width="470" height="542" viewBox="0 0 470 542" fill="none" xmlns="http://www.w3.org/2000/svg">
<path d="M80 100C80 44.7715 124.772 0 180 0H360C420.751 0 470 49.2487 470 110V541H80V100Z" fill="#E1E1E1"/>
<path d="M385.983 524.429C416.257 494.248 455.476 430.062 469.594 402.911L126.198 372.938L61.6888 451.13C192.443 499.93 346.696 563.593 385.983 524.429Z" fill="#D2D2D2"/>
<rect width="142.56" height="7" transform="matrix(-1 0 0 1 269 144)" fill="white"/>
<path opacity="0.4" d="M268.999 168.5L126.439 151H268.999V168.5Z" fill="#666A6A"/>
<path d="M248 78V142C248 143.105 247.105 144 246 144H234C232.895 144 232 143.105 232 142V78C232 76.8954 232.895 76 234 76H246C247.105 76 248 76.8954 248 78Z" fill="#C4C4C4"/>
<circle r="3.5" transform="matrix(-1 0 0 1 240.5 136.5)" fill="white"/>
<path d="M232 78V142C232 143.105 231.105 144 230 144H218C216.895 144 216 143.105 216 142V78C216 76.8954 216.895 76 218 76H230C231.105 76 232 76.8954 232 78Z" fill="#FF8139"/>
<circle r="3.5" transform="matrix(-1 0 0 1 224.5 136.5)" fill="white"/>
<path d="M182 78V142C182 143.105 181.105 144 180 144H168C166.895 144 166 143.105 166 142V78C166 76.8954 166.895 76 168 76H180C181.105 76 182 76.8954 182 78Z" fill="#FF8139"/>
<circle r="3.5" transform="matrix(-1 0 0 1 174.5 136.5)" fill="white"/>
<path d="M166 78V142C166 143.105 165.105 144 164 144H152C150.895 144 150 143.105 150 142V78C150 76.8954 150.895 76 152 76H164C165.105 76 166 76.8954 166 78Z" fill="#C4C4C4"/>
<circle r="3.5" transform="matrix(-1 0 0 1 158.5 136.5)" fill="white"/>
<rect x="193.186" y="88.0938" width="7" height="56" transform="rotate(11.901 193.186 88.0938)" fill="#666A6A"/>
<rect x="200.404" y="88" width="7" height="56" transform="rotate(8.2814 200.404 88)" fill="#C4C4C4"/>
<rect x="208.031" y="88" width="7" height="56" transform="rotate(5.52849 208.031 88)" fill="#666A6A"/>
<path d="M131.953 402.999L128.687 327.395L470 402.999L414.359 442.268C389.985 459.471 359.203 464.893 330.418 457.053L131.953 402.999Z" fill="white"/>
<path d="M392.964 405.645L369.038 392.473L362.586 400.269L331.939 408.065L353.446 423.926L385.706 413.173L392.964 405.645Z" fill="#152D5D"/>
<path d="M360.105 413.133L366.464 411.125L370.787 413.849L364.253 416.158L360.105 413.133Z" fill="#E1E1E1"/>
<path d="M339.758 408.183L346.728 406.383L350.673 409.064L343.971 410.978L339.758 408.183Z" fill="#E1E1E1"/>
<path d="M345.498 412.062L352.468 410.262L356.413 412.942L349.711 414.857L345.498 412.062Z" fill="#E1E1E1"/>
<path d="M351.314 416.253L358.285 414.453L362.229 417.134L355.527 419.049L351.314 416.253Z" fill="#E1E1E1"/>
<path d="M394.033 407.533L392.856 405.723L385.77 413.109L353.305 423.824L331.945 408.076V410.882L353.305 426.72L386.521 415.769L394.033 407.533Z" fill="#00181B"/>
<path d="M369.579 394.742L364.922 400.66L384.228 411.72L389.564 405.705L369.579 394.742Z" fill="#E1E1E1"/>
<path d="M362.786 402.406L356.771 403.958L361.04 406.384L366.988 404.743L362.786 402.406Z" fill="#E1E1E1"/>
<path d="M355.083 404.387L348.959 405.95L352.986 408.386L359.285 406.723L355.083 404.387Z" fill="#E1E1E1"/>
<path d="M368.466 405.723L362.451 407.275L366.72 409.7L372.668 408.059L368.466 405.723Z" fill="#E1E1E1"/>
<path d="M360.764 407.703L354.611 409.3L358.503 412.041L364.966 410.039L360.764 407.703Z" fill="#E1E1E1"/>
<path d="M374.407 409.055L368.393 410.607L372.648 413.196L378.78 411.515L374.407 409.055Z" fill="#E1E1E1"/>
<ellipse rx="13.5" ry="7" transform="matrix(-1 0 0 1 336.119 388.598)" fill="#152D5D"/>
<ellipse rx="13.5" ry="6" transform="matrix(-1 0 0 1 336.119 365.598)" fill="#152D5D"/>
<path d="M349.619 388.598V365.598H322.619V388.598H349.619Z" fill="#152D5D"/>
<ellipse rx="11.5" ry="5" transform="matrix(-1 0 0 1 336.119 365.598)" fill="black"/>
<path d="M349.619 347.598L345.119 368.598C344.319 369.398 343.119 369.598 342.619 369.598L347.619 347.098L349.619 347.598Z" fill="#FF8139"/>
<path d="M327.619 349.098L335.119 370.598C333.519 370.598 332.119 370.264 331.619 370.098L324.619 350.098L327.619 349.098Z" fill="#FFD300"/>
<path d="M262.5 388C268.1 383.2 264.833 380.333 262.5 379.5C254.833 381.333 239.3 385 238.5 385C237.7 385 188.567 399.9 165.567 405.733L161.945 411.179L194 419.908V414.062C201.5 412.062 234.5 395 241 395C247.5 395 255.5 394 262.5 388Z" fill="#E1E1E1"/>
<path d="M135.824 290.375H154.109V332.702L135.824 327.702V290.375Z" fill="#152D5D"/>
<rect x="80" y="227" width="133" height="84" rx="3" fill="#152D5D"/>
<rect x="80" y="230" width="131" height="79" rx="2" fill="#CCD2DD"/>
<rect x="111" y="230" width="73" height="79" fill="#CCD2DD"/>
<rect x="141.209" y="242.469" width="2.96407" height="4.29809" fill="white"/>
<rect x="144.965" y="242.469" width="2.96407" height="4.29809" fill="white"/>
<rect x="148.723" y="242.469" width="2.96407" height="4.29809" fill="white"/>
<rect x="152.482" y="242.469" width="2.96407" height="4.29809" fill="white"/>
<rect x="156.242" y="242.469" width="2.96407" height="4.29809" fill="white"/>
<rect x="160" y="242.469" width="2.96407" height="4.29809" fill="white"/>
<rect x="163.756" y="242.469" width="2.96407" height="4.29809" fill="white"/>
<rect x="167.512" y="242.469" width="2.96407" height="4.29809" fill="white"/>
<rect x="171.27" y="242.469" width="2.96407" height="4.29809" fill="white"/>
<rect x="141.209" y="247.469" width="2.96407" height="4.29809" fill="white"/>
<rect x="144.965" y="247.469" width="2.96407" height="4.29809" fill="white"/>
<rect x="148.723" y="247.469" width="2.96407" height="4.29809" fill="white"/>
<rect x="152.482" y="247.469" width="2.96407" height="4.29809" fill="white"/>
<rect x="156.242" y="247.469" width="2.96407" height="4.29809" fill="white"/>
<rect x="160" y="247.469" width="2.96407" height="4.29809" fill="white"/>
<rect x="163.756" y="247.469" width="2.96407" height="4.29809" fill="white"/>
<rect x="167.512" y="247.469" width="2.96407" height="4.29809" fill="white"/>
<rect x="171.27" y="247.469" width="2.96407" height="4.29809" fill="white"/>
<path d="M115.678 260.582H149.623" stroke="white"/>
<path d="M120.678 263.582H154.623" stroke="white"/>
<rect x="163" y="260" width="10" height="4" fill="white"/>
<rect x="163" y="274" width="10" height="4" fill="white"/>
<rect x="163" y="288" width="10" height="4" fill="white"/>
<path d="M117.678 274.582H151.623" stroke="white"/>
<path d="M117.678 277.582H157.723" stroke="white"/>
<path d="M117.678 288.582H151.623" stroke="white"/>
<path d="M117.678 291.582H160" stroke="white"/>
<path d="M176.927 260.462C176.698 260.462 176.51 260.53 176.363 260.667C176.218 260.804 176.122 261.01 176.073 261.287H177.186V261.663H176.036L176.031 261.773V261.907L176.036 262.002H177.032V262.376H176.078C176.182 262.884 176.478 263.138 176.966 263.138C177.199 263.138 177.438 263.087 177.682 262.986V263.482C177.468 263.581 177.22 263.631 176.937 263.631C176.545 263.631 176.226 263.523 175.98 263.309C175.736 263.094 175.576 262.783 175.501 262.376H175.13V262.002H175.462L175.458 261.912V261.822L175.462 261.663H175.13V261.287H175.497C175.558 260.879 175.714 260.558 175.963 260.325C176.212 260.092 176.533 259.976 176.927 259.976C177.253 259.976 177.544 260.048 177.801 260.191L177.596 260.647C177.346 260.524 177.123 260.462 176.927 260.462Z" fill="black"/>
<path d="M176.927 274.462C176.698 274.462 176.51 274.53 176.363 274.667C176.218 274.804 176.122 275.01 176.073 275.287H177.186V275.663H176.036L176.031 275.773V275.907L176.036 276.002H177.032V276.376H176.078C176.182 276.884 176.478 277.138 176.966 277.138C177.199 277.138 177.438 277.087 177.682 276.986V277.482C177.468 277.581 177.22 277.631 176.937 277.631C176.545 277.631 176.226 277.523 175.98 277.309C175.736 277.094 175.576 276.783 175.501 276.376H175.13V276.002H175.462L175.458 275.912V275.822L175.462 275.663H175.13V275.287H175.497C175.558 274.879 175.714 274.558 175.963 274.325C176.212 274.092 176.533 273.976 176.927 273.976C177.253 273.976 177.544 274.048 177.801 274.191L177.596 274.647C177.346 274.524 177.123 274.462 176.927 274.462Z" fill="black"/>
<path d="M176.927 288.462C176.698 288.462 176.51 288.53 176.363 288.667C176.218 288.804 176.122 289.01 176.073 289.287H177.186V289.663H176.036L176.031 289.773V289.907L176.036 290.002H177.032V290.376H176.078C176.182 290.884 176.478 291.138 176.966 291.138C177.199 291.138 177.438 291.087 177.682 290.986V291.482C177.468 291.581 177.22 291.631 176.937 291.631C176.545 291.631 176.226 291.523 175.98 291.309C175.736 291.094 175.576 290.783 175.501 290.376H175.13V290.002H175.462L175.458 289.912V289.822L175.462 289.663H175.13V289.287H175.497C175.558 288.879 175.714 288.558 175.963 288.325C176.212 288.092 176.533 287.976 176.927 287.976C177.253 287.976 177.544 288.048 177.801 288.191L177.596 288.647C177.346 288.524 177.123 288.462 176.927 288.462Z" fill="black"/>
<rect width="73" height="79" transform="matrix(-1 0 0 1 184 230)" fill="#CCD2DD"/>
<rect width="2.96407" height="4.29809" transform="matrix(-1 0 0 1 177.791 242.469)" fill="white"/>
<rect width="2.96407" height="4.29809" transform="matrix(-1 0 0 1 174.035 242.469)" fill="white"/>
<rect width="2.96407" height="4.29809" transform="matrix(-1 0 0 1 170.277 242.469)" fill="white"/>
<rect width="2.96407" height="4.29809" transform="matrix(-1 0 0 1 166.518 242.469)" fill="white"/>
<rect width="2.96407" height="4.29809" transform="matrix(-1 0 0 1 162.758 242.469)" fill="white"/>
<rect width="2.96407" height="4.29809" transform="matrix(-1 0 0 1 159 242.469)" fill="white"/>
<rect width="2.96407" height="4.29809" transform="matrix(-1 0 0 1 155.244 242.469)" fill="white"/>
<rect width="2.96407" height="4.29809" transform="matrix(-1 0 0 1 151.488 242.469)" fill="white"/>
<rect width="2.96407" height="4.29809" transform="matrix(-1 0 0 1 147.73 242.469)" fill="white"/>
<rect width="2.96407" height="4.29809" transform="matrix(-1 0 0 1 177.791 247.469)" fill="white"/>
<rect width="2.96407" height="4.29809" transform="matrix(-1 0 0 1 174.035 247.469)" fill="white"/>
<rect width="2.96407" height="4.29809" transform="matrix(-1 0 0 1 170.277 247.469)" fill="white"/>
<rect width="2.96407" height="4.29809" transform="matrix(-1 0 0 1 166.518 247.469)" fill="white"/>
<rect width="2.96407" height="4.29809" transform="matrix(-1 0 0 1 162.758 247.469)" fill="white"/>
<rect width="2.96407" height="4.29809" transform="matrix(-1 0 0 1 159 247.469)" fill="white"/>
<rect width="2.96407" height="4.29809" transform="matrix(-1 0 0 1 155.244 247.469)" fill="white"/>
<rect width="2.96407" height="4.29809" transform="matrix(-1 0 0 1 151.488 247.469)" fill="white"/>
<rect width="2.96407" height="4.29809" transform="matrix(-1 0 0 1 147.73 247.469)" fill="white"/>
<path d="M177.322 260.582H143.377" stroke="white"/>
<path d="M177.322 263.582H143.377" stroke="white"/>
<rect width="10" height="4" transform="matrix(-1 0 0 1 132 260)" fill="white"/>
<rect width="10" height="4" transform="matrix(-1 0 0 1 132 274)" fill="white"/>
<rect width="10" height="4" transform="matrix(-1 0 0 1 132 288)" fill="white"/>
<path d="M177.322 274.582H143.377" stroke="white"/>
<path d="M177.322 277.582H137.277" stroke="white"/>
<path d="M177.322 288.582H143.377" stroke="white"/>
<path d="M177.322 291.582H135" stroke="white"/>
<path d="M118.073 260.462C118.302 260.462 118.49 260.53 118.637 260.667C118.782 260.804 118.878 261.01 118.927 261.287H117.814V261.663H118.964L118.969 261.773V261.907L118.964 262.002H117.968V262.376H118.922C118.818 262.884 118.522 263.138 118.034 263.138C117.801 263.138 117.562 263.087 117.318 262.986V263.482C117.532 263.581 117.78 263.631 118.063 263.631C118.455 263.631 118.774 263.523 119.02 263.309C119.264 263.094 119.424 262.783 119.499 262.376H119.87V262.002H119.538L119.542 261.912V261.822L119.538 261.663H119.87V261.287H119.503C119.442 260.879 119.286 260.558 119.037 260.325C118.788 260.092 118.467 259.976 118.073 259.976C117.747 259.976 117.456 260.048 117.199 260.191L117.404 260.647C117.654 260.524 117.877 260.462 118.073 260.462Z" fill="black"/>
<path d="M118.073 274.462C118.302 274.462 118.49 274.53 118.637 274.667C118.782 274.804 118.878 275.01 118.927 275.287H117.814V275.663H118.964L118.969 275.773V275.907L118.964 276.002H117.968V276.376H118.922C118.818 276.884 118.522 277.138 118.034 277.138C117.801 277.138 117.562 277.087 117.318 276.986V277.482C117.532 277.581 117.78 277.631 118.063 277.631C118.455 277.631 118.774 277.523 119.02 277.309C119.264 277.094 119.424 276.783 119.499 276.376H119.87V276.002H119.538L119.542 275.912V275.822L119.538 275.663H119.87V275.287H119.503C119.442 274.879 119.286 274.558 119.037 274.325C118.788 274.092 118.467 273.976 118.073 273.976C117.747 273.976 117.456 274.048 117.199 274.191L117.404 274.647C117.654 274.524 117.877 274.462 118.073 274.462Z" fill="black"/>
<path d="M118.073 288.462C118.302 288.462 118.49 288.53 118.637 288.667C118.782 288.804 118.878 289.01 118.927 289.287H117.814V289.663H118.964L118.969 289.773V289.907L118.964 290.002H117.968V290.376H118.922C118.818 290.884 118.522 291.138 118.034 291.138C117.801 291.138 117.562 291.087 117.318 290.986V291.482C117.532 291.581 117.78 291.631 118.063 291.631C118.455 291.631 118.774 291.523 119.02 291.309C119.264 291.094 119.424 290.783 119.499 290.376H119.87V290.002H119.538L119.542 289.912V289.822L119.538 289.663H119.87V289.287H119.503C119.442 288.879 119.286 288.558 119.037 288.325C118.788 288.092 118.467 287.976 118.073 287.976C117.747 287.976 117.456 288.048 117.199 288.191L117.404 288.647C117.654 288.524 117.877 288.462 118.073 288.462Z" fill="black"/>
<path d="M219.048 294.389C219.512 292.274 221.574 290.912 223.701 291.315L313.389 308.325C315.609 308.746 317.04 310.92 316.548 313.125L302.688 375.289C302.209 377.439 300.08 378.797 297.928 378.325L209.022 358.848C206.864 358.376 205.498 356.243 205.97 354.085L219.048 294.389Z" fill="#152D5D"/>
<path d="M220.575 296.759C221.038 294.649 223.091 293.288 225.214 293.682L310.693 309.569C312.912 309.982 314.351 312.146 313.871 314.352L301.534 371.109C301.064 373.27 298.929 374.64 296.769 374.166L211.791 355.55C209.633 355.077 208.267 352.944 208.739 350.786L220.575 296.759Z" fill="#CCD2DD"/>
<path d="M184.521 363.207L184.093 365.161L188.429 364.063L184.521 363.207Z" fill="white"/>
<path d="M187.328 360.436L205.13 354.939C205.473 354.833 205.837 354.821 206.186 354.904L297.201 376.683C299.123 377.143 299.284 379.816 297.431 380.503L281.442 386.435C281.071 386.573 280.666 386.597 280.281 386.505L187.453 364.292C185.474 363.819 185.384 361.037 187.328 360.436Z" fill="#152D5D"/>
<path d="M230.04 366.308L222.564 369.678L244.947 374.971L251.936 371.486L230.04 366.308Z" fill="white"/>
<path d="M225.034 363.583L228.44 364.389L227.237 365.132L223.344 364.211L225.034 363.583Z" fill="white"/>
<path d="M220.169 362.435L223.575 363.241L222.371 363.984L218.479 363.063L220.169 362.435Z" fill="white"/>
<path d="M215.302 361.283L218.708 362.088L217.504 362.831L213.612 361.911L215.302 361.283Z" fill="white"/>
<path d="M249.85 369.453L253.743 370.373L252.539 371.116L248.647 370.196L249.85 369.453Z" fill="white"/>
<path d="M254.715 370.605L258.608 371.526L257.405 372.269L253.512 371.348L254.715 370.605Z" fill="white"/>
<path d="M259.581 371.754L263.473 372.674L262.27 373.417L258.377 372.497L259.581 371.754Z" fill="white"/>
<path d="M264.448 372.906L268.34 373.826L267.137 374.569L263.244 373.649L264.448 372.906Z" fill="white"/>
<path d="M269.313 374.054L273.206 374.975L272.002 375.718L268.11 374.797L269.313 374.054Z" fill="white"/>
<path d="M274.178 375.207L278.071 376.127L276.868 376.87L272.975 375.95L274.178 375.207Z" fill="white"/>
<path d="M229.387 362.56L232.794 363.366L231.59 364.109L227.698 363.188L229.387 362.56Z" fill="white"/>
<path d="M234.253 363.708L237.659 364.514L236.455 365.257L232.563 364.336L234.253 363.708Z" fill="white"/>
<path d="M239.118 364.861L242.524 365.666L241.321 366.409L237.428 365.489L239.118 364.861Z" fill="white"/>
<path d="M243.985 366.009L247.391 366.815L246.188 367.558L242.295 366.637L243.985 366.009Z" fill="white"/>
<path d="M248.85 367.162L252.256 367.967L251.053 368.71L247.16 367.79L248.85 367.162Z" fill="white"/>
<path d="M224.52 361.408L227.926 362.213L226.723 362.956L222.83 362.036L224.52 361.408Z" fill="white"/>
<path d="M219.655 360.259L223.061 361.065L221.858 361.808L217.965 360.887L219.655 360.259Z" fill="white"/>
<path d="M253.229 368.199L257.122 369.119L255.918 369.862L252.026 368.942L253.229 368.199Z" fill="white"/>
<path d="M258.094 369.347L261.987 370.268L260.784 371.011L256.891 370.09L258.094 369.347Z" fill="white"/>
<path d="M262.961 370.5L266.854 371.42L265.651 372.163L261.758 371.243L262.961 370.5Z" fill="white"/>
<path d="M267.827 371.648L271.719 372.569L270.516 373.312L266.623 372.391L267.827 371.648Z" fill="white"/>
<path d="M272.692 372.8L276.585 373.721L275.381 374.464L271.489 373.543L272.692 372.8Z" fill="white"/>
<path d="M277.559 373.949L281.452 374.869L280.248 375.612L276.356 374.692L277.559 373.949Z" fill="white"/>
<path d="M247.535 369.931L233.077 366.512L234.419 365.802L248.877 369.221L247.535 369.931Z" fill="white"/>
<path d="M229.899 364.736L233.305 365.541L232.102 366.284L228.209 365.364L229.899 364.736Z" fill="white"/>
<path d="M298.721 319.149L288.718 364.346L216.446 348.871" stroke="white"/>
<path d="M287.213 333.954L280.763 362.807L274.574 361.388L281.026 332.446L287.213 333.954Z" fill="white"/>
<path d="M273.625 344.359L270.251 360.342L264.062 358.923L267.438 342.85L273.625 344.359Z" fill="#FF8139"/>
<path d="M264.469 333.084L259.248 357.859L253.059 356.441L258.282 331.575L264.469 333.084Z" fill="white"/>
<path d="M253.739 326.646L247.288 355.498L241.099 354.079L247.552 325.137L253.739 326.646Z" fill="#FF8139"/>
<path d="M239.235 333.759L235.108 352.948L228.919 351.529L233.048 332.251L239.235 333.759Z" fill="#FF8139"/>
<path d="M151.176 394.745C151.176 394.745 140.312 393.283 131.616 382.469C131.616 382.469 133.785 391.561 122.187 401.974C114.154 409.163 120.42 447.462 123.804 454.22C123.804 454.22 91.7523 485.8 39.5781 460.508C39.5781 460.508 52.6819 412.818 53.6358 385.854C54.8107 355.235 58.3552 335.55 69.0792 306.643C79.8033 277.737 82.3437 261.787 80.8877 246.567C79.4317 231.348 80.1647 207.518 106.995 201.761C133.825 196.003 136.998 227.553 136.998 227.553C136.998 227.553 139.368 267.894 128.814 277.136C119.567 285.286 103.711 274.943 103.711 274.943C103.711 274.943 100.036 293.657 104.294 300.265C104.294 300.265 110.168 306.984 124.677 312.761C139.83 318.769 142.26 362.825 150.293 370.895" fill="#E2BBA6"/>
<path d="M120.229 202.23C121.303 208.789 123.02 219.322 124.606 229.705C123.602 219.923 121.745 209.089 120.459 202.311L120.229 202.23Z" fill="#CEA999"/>
<path d="M136.977 227.59L124.606 229.703L125.229 239.114C125.349 244.281 124.938 248.426 123.662 250.389C118.321 258.629 116.192 239.375 111.774 239.795C107.356 240.216 105.297 245.242 108.47 253.813C111.643 262.384 100.236 264.767 99.2523 269.573C98.2682 274.379 90.6068 301.443 99.2523 310.705L112.497 306.7C109.498 304.932 106.743 302.781 104.303 300.302C100.046 293.694 103.721 274.98 103.721 274.98C103.721 274.98 119.566 285.323 128.824 277.173C129.59 276.487 130.265 275.706 130.832 274.85C136.104 267.47 136.857 248.737 137.007 244.722C137.158 240.706 136.977 227.59 136.977 227.59Z" fill="#E2BBA6"/>
<path d="M131 254.5V226.5L137.5 237C137.5 242.167 137 255.1 135 265.5C133 275.9 126 279.5 123 280C130 274.5 131 262 131 254.5Z" fill="#F3D6C6"/>
<path d="M114.925 240.516C117.725 242.916 120.092 252.849 120.925 257.516C119.925 246.016 127.823 241.817 136.425 237.516C142.425 234.516 148.613 227.516 146.425 220.516C143.925 212.516 140.925 215.516 133.425 206.016C125.925 196.516 115.635 197.49 110.425 199.516C101.425 203.016 100.925 204.016 95.4252 207.016C90.5176 209.693 89.8586 208.5 81.4251 212.516C70.9251 217.516 69.4251 232.016 72.9251 240.516C76.4251 249.016 78.9252 248.516 76.4252 255.516C73.9252 262.516 76.4252 265.516 79.9252 269.016C82.7252 271.816 83.7585 276.182 83.9252 278.016C85.4252 275.016 91.4252 271.516 97.4252 272.516C103.425 273.516 102.925 266.516 106.925 264.016C110.925 261.516 112.425 259.016 109.925 252.016C107.425 245.016 111.425 237.516 114.925 240.516Z" fill="#2F2417"/>
<path d="M145.924 228.015C146.924 226.015 148.124 220.915 144.924 216.515C140.924 211.015 139.424 214.515 134.424 207.515C129.424 200.515 123.924 196.515 112.924 198.515C101.924 200.515 99.5955 204.515 89.0955 207.515C78.8659 210.438 72.2703 215.733 71.0126 229.875C70.9514 230.303 70.9241 230.687 70.9241 231.015C70.9499 230.629 70.9794 230.249 71.0126 229.875C71.449 226.825 73.6103 221.523 79.9241 218.015C88.9241 213.015 94.4241 213.015 104.924 207.515C115.424 202.015 122.924 199.515 129.424 207.515C135.924 215.515 141.924 215.015 143.924 219.015C145.924 223.015 145.924 224.015 145.924 228.015Z" fill="#4F3C27"/>
<path d="M70.7058 302.164C70.7058 302.164 65.9061 306.169 61.5784 318.184C57.2506 330.2 68.5068 311.266 68.5068 311.266L69.8323 304.567L70.7058 302.164Z" fill="#292289"/>
<path d="M122.498 450.633C122.498 450.633 137.743 505.29 136.88 539.693H34.9458H20C20 539.693 21 512.499 25.5 494.499C30 476.499 41.4753 453.286 41.4753 453.286C41.4753 453.286 86.0081 476.105 122.498 450.633Z" fill="#F4EFEF"/>
<path d="M224.001 361.5C208.859 365.63 181.004 379.232 163 362C149.123 348.723 150 326 131.616 312.5C122.187 306 107.83 300.943 103 297.5C80.0005 299.5 78.2299 297.426 73.5005 292.5C69.5005 296 57.0005 297.5 50.0611 322C46.121 335.911 42.5703 366.391 41.4658 397C40.4617 423.964 41.4658 453.287 41.4658 453.287C48.8059 486.74 123.804 454.218 123.804 454.218C126 443 129.5 414 129.5 414L131.616 382.468C140.312 393.301 153.867 399.489 153.867 399.489C174.422 411.274 214.114 385.124 224.001 378.902V361.5Z" fill="#152D5D"/>
<path d="M224.001 380.999V375.499C224.001 375.499 191.739 400.548 171.501 399.488C163.965 399.093 155.173 392.279 145.824 389.505C136.476 386.732 127.318 369.02 127.318 369.02C126.515 387.393 114.435 390.286 107.085 405.265C101.633 416.38 105.559 445.737 107.949 460.155C117.297 457.031 123.804 454.217 123.804 454.217C120.852 446.367 114.184 409.16 122.187 401.971C133.785 391.558 131.616 382.467 131.616 382.467C140.312 393.3 153.867 399.488 153.867 399.488C174.422 411.303 213.501 384.499 224.001 380.999Z" fill="#00181B"/>
<g style="mix-blend-mode:multiply" opacity="0.3">
<path d="M73.6777 464.07C73.8585 465.282 74.0292 466.463 74.1999 467.635C74.0292 466.463 73.8585 465.282 73.6777 464.07Z" fill="black"/>
</g>
<g style="mix-blend-mode:multiply" opacity="0.3">
<path d="M73.5365 463.15C73.5365 462.829 73.4465 462.509 73.3965 462.148C73.4365 462.509 73.4965 462.829 73.5365 463.15Z" fill="black"/>
</g>
<path d="M74.1364 521L70 540H80C78 531 74.7727 523.167 74.1364 521Z" fill="#E1E1E1"/>
<path d="M74 521L70 540H62L66 525.5L55.5 519.5C60.3 520.3 69.8333 520.833 74 521Z" fill="#C4C4C4"/>
<path d="M222.5 445.502C211.3 445.902 167.833 451.668 147.5 454.502H194.5C211.3 460.102 216.5 482.335 217 491.001V541.001H265C260.333 519.835 250.4 475.302 248 466.502C245 455.502 236.5 445.002 222.5 445.502Z" fill="#F4EFEF"/>
<path d="M175 429.999L146 434.999V454.499L204.5 446.999C204.1 429.399 184.667 428.332 175 429.999Z" fill="#F4EFEF"/>
<path d="M111.116 355.449C98.2265 346.668 70.1759 344.331 45.4847 344.176C19.6756 344.015 0 365.729 0 391.538V539.998L216.83 540.998C216.958 536.687 217.138 520.399 216.83 493.737C216.521 467.074 201.783 456.429 194.452 454.439H146.225C146.842 393.553 136.731 372.9 111.116 355.449Z" fill="white"/>
<path d="M126.173 263.359C122.944 261.027 122.436 251.625 122.585 247.215L120.343 251.7C121.419 265.871 111.971 263.135 107.113 259.996L100.162 272.329C103.974 277.262 121.015 287.801 129.536 280.401C138.057 273.001 138.73 259.772 136.039 259.996C133.348 260.22 130.209 266.275 126.173 263.359Z" fill="#2F2417"/>
<path d="M247.032 378.223C245.869 378.369 239.641 371.619 236.672 368.227C239.277 368.227 245.76 369.244 250.849 373.316C255.938 377.387 256.362 380.222 255.938 381.131C253.757 382.004 251.636 380.768 250.849 380.041C247.759 380.404 248.486 378.041 247.032 378.223Z" fill="#E2BBA6"/>
<path d="M233.362 357.428C231.689 357.906 226.391 360.515 223.951 361.76V380.73C227.685 378.041 232.017 380.73 239.336 380.73C246.656 380.73 248.299 375.651 249.494 375.651C250.689 375.651 255.469 378.34 256.962 380.73C258.456 383.12 263.086 385.211 261.443 380.73C259.8 376.249 253.377 370.871 252.033 369.378C250.689 367.884 250.241 366.54 248.299 365.494C246.357 364.448 247.552 363.104 244.714 361.013C241.876 358.922 235.453 356.831 233.362 357.428Z" fill="#F3D6C6"/>
</svg>
