<svg width="478" height="541" viewBox="0 0 478 541" fill="none" xmlns="http://www.w3.org/2000/svg">
<path d="M8 481C8 425.772 52.7715 381 108 381H378C433.228 381 478 425.772 478 481V540H8V481Z" fill="#E1E1E1"/>
<path d="M318.725 488.485C310.009 492.19 300.463 521.015 296.78 534.964L291.936 535.585C297.234 521.429 307.99 491.802 308.629 486.545C309.428 479.973 293.265 469.106 285.362 445.858C279.04 427.26 290.435 412.863 298.435 406.986C306.99 413.977 322.98 437.158 326.529 434.115C330.078 431.073 313.987 413.08 304.282 401.385C317.024 388.108 339.382 380.716 347.455 379.682C351.908 388.814 361.7 406.32 365.249 403.277C368.799 400.235 361.324 385.452 357.143 378.44C378.777 373.081 402.757 371.517 412.043 371.406L406.857 420.589C401.809 419.618 389.693 417.288 381.617 415.735C371.521 413.794 367.288 419.188 370.722 420.366C373.468 421.307 393.542 427.684 403.236 430.755C401.155 445.254 392.169 459.667 387.937 465.061C377.569 460.999 355.783 452.362 351.582 450.312C346.33 447.751 338.664 451.968 343.916 454.529C348.117 456.578 368.158 468.674 377.654 474.466C349.013 494.308 329.62 483.855 318.725 488.485Z" fill="#00B67A"/>
<path d="M316.398 524.916C311.568 523.361 297.573 531.71 291.18 536.08L289 534.632C296.12 530.745 310.887 522.494 312.993 520.585C315.626 518.198 312.902 508.115 317.873 495.907C321.85 486.139 331.523 484.294 336.827 484.716C337.833 490.556 336.159 505.576 338.665 505.586C341.171 505.597 340.981 492.647 341.162 484.495C350.986 483.577 362.635 488.422 366.267 490.836C364.859 496.105 362.671 506.646 365.177 506.657C367.683 506.668 369.853 498.044 370.625 493.732C381.266 499.148 391.523 506.928 395.321 510.142L375.936 528.284C374.234 526.119 370.149 520.921 367.425 517.457C364.02 513.126 360.411 513.83 361.387 515.513C362.168 516.859 368.053 526.492 370.898 531.14C364.96 536.294 356.257 538.991 352.648 539.695C349.879 534.408 344.095 523.258 343.114 520.952C341.889 518.069 337.303 517.09 338.529 519.973C339.51 522.279 343.372 534.221 345.18 539.904C326.612 537.907 322.436 526.859 316.398 524.916Z" fill="#00B67A"/>
<path d="M265.5 81.2608C208.3 77.2608 168 120.261 155 142.261H460C449.333 125.761 418.5 96.4607 380.5 111.261C333 129.761 337 86.2608 265.5 81.2608Z" fill="#E1E1E1"/>
<path d="M131.715 181.166C168.098 178.62 193.731 205.994 202 220H7.99998C14.7847 209.496 34.3967 190.843 58.5672 200.265C88.7803 212.042 86.2361 184.349 131.715 181.166Z" fill="#E1E1E1"/>
<rect width="6" height="172.153" transform="matrix(-0.988309 -0.152465 -0.152465 0.988309 179.574 121.914)" fill="#C4C4C4"/>
<path d="M244.133 175.887C277.832 158.204 319.73 177.885 329.509 189C336.73 117.067 300.173 70.3614 277.606 56H91.8103H81.6555C23.3593 61.6197 2.67346 112.197 4.55399 144.791C41.2618 118.416 67.2382 140.795 75.6378 155.282C112.045 120.514 149.731 147.164 161.014 161.651C202.837 140.071 234.981 159.403 244.133 175.887Z" fill="#081B42"/>
<path d="M191.938 20.8121C246.938 27.4787 285.938 59.1827 291.438 68.8125L16.4375 100.312C44.4375 43.3139 108.938 10.7515 191.938 20.8121Z" fill="#081B42"/>
<path d="M295.349 336.131C287.498 325.608 267.267 326.279 254.292 318.86C249.464 316.1 245.839 301.47 245.913 291.851C256.599 285.574 266.033 260.144 266.144 237.916C266.281 210.485 252.782 188.456 232.311 188.353C211.84 188.251 198.133 210.372 197.995 237.804C197.886 259.624 202.62 281.773 215.089 289.717C215.041 299.297 212.823 309.81 207.905 312.559C194.856 319.848 176.555 317.041 169.22 327.896C149.197 357.582 148.085 415.895 148.085 415.895L303.169 445.074C303.169 445.074 321.311 375.441 295.349 336.131Z" fill="#E2BBA6"/>
<path d="M229.634 220.35C205.8 217.001 197.888 244.8 198.688 255C190.151 222.758 214.918 212.296 228.368 211.096L266.114 219.251L265.073 252.917L261.502 227.202C243.92 228.851 237.8 220.35 229.634 220.35Z" fill="#CBA895"/>
<path d="M169.604 321.671C182.925 316.284 193.111 316.149 207.376 312.49C208.199 315.782 212.797 325.5 229.797 327C233.297 327 246.545 327.729 254.495 318.891C276.483 321.878 288.02 325.208 295.871 335.731C321.568 370.174 304.064 445.198 304.064 445.198L101.208 407.698C101.208 407.698 134.838 335.73 169.604 321.671Z" fill="#142B5A"/>
<path d="M279.797 540L286.154 439.452L153.48 404.273L141.298 540L279.797 540Z" fill="#142B5A"/>
<path d="M310.519 444.494C311.505 426.076 310.748 380.775 308.798 372.501L253.049 387.972C258.049 399.166 266.662 428.158 263.631 430.505C256.705 435.87 227.187 457.005 205.672 469.459L214.516 494.781C284.366 474.457 302.541 454.493 310.519 444.494Z" fill="#142B5A"/>
<path d="M284.297 466C274.63 469.667 254.897 477 253.297 477C251.697 477 248.964 473.333 247.797 471.5L243.297 473.5L244.797 479C246.13 480.833 249.397 484.5 251.797 484.5C254.197 484.5 274.13 478.833 283.797 476L284.297 466Z" fill="#00181B"/>
<path opacity="0.1" d="M225.359 294.766C228.917 295.568 232.607 295.586 236.173 294.82C236.173 294.82 230.962 300.049 225.359 294.766Z" fill="black"/>
<path d="M229.817 214.913C206.798 210.503 197.712 230.424 198.754 254.507C193.997 241.89 177.798 209.503 193.798 201.503C199.182 198.811 205.094 199.798 213.516 195.203C220.298 191.503 224.406 184.021 236.798 184.003C249.795 183.983 261.502 200.337 266.298 203.503C284.382 210.894 269.883 243.845 264.659 253.725L264.031 245.713L261.028 223.296C249.744 225.078 236.99 216.287 229.817 214.913Z" fill="#C09550"/>
<path d="M195.298 210.003C189.298 214.003 190.131 228.669 191.298 235.502C178.298 198.502 195.298 201.502 207.298 198.002C219.298 194.502 215.298 191.502 228.298 185.502C238.698 180.703 249.298 187.502 253.298 191.502C248.465 188.502 236.198 185.202 225.798 196.002C212.798 209.502 202.798 205.003 195.298 210.003Z" fill="#A77F40"/>
<path d="M146.297 294L147.797 300.5L118.297 300.5L118.297 299L146.297 294Z" fill="#142B5A"/>
<path d="M114.297 292.5C110.697 291.3 108.13 288.333 107.297 287L116.797 286L119.797 299L115.297 300L114.297 292.5Z" fill="#E2BBA6"/>
<path d="M149.821 252.729C151.936 253.598 160.419 261.836 164.396 265.847L162.646 289.488C158.809 291.596 150.629 295.484 148.6 294.175C146.063 292.539 140.012 291.36 140.212 287.402C140.412 283.444 137.661 282.908 136.761 278.735C135.861 274.563 137.725 273.784 138.154 271.584C138.583 269.383 136.704 267.304 139.547 264.432C142.391 261.56 142.162 259.802 142.484 258.152C142.805 256.501 147.177 251.643 149.821 252.729Z" fill="#CBA895"/>
<path d="M278.297 421.5C276.697 423.5 267.63 430 263.297 433C268.297 423 272.797 415.5 274.297 410.5C275.497 406.5 273.797 394.5 272.797 389C275.297 399 279.897 419.5 278.297 421.5Z" fill="#00181B"/>
<path d="M171.821 289.621C171.741 290.964 173.533 298.52 174.439 302.131L155.708 305.498L153.851 289.665C153.172 288.501 151.882 285.055 152.15 280.579C152.486 274.984 159.804 265.317 156.548 263.437C153.292 261.557 141.767 266.48 141.443 262.53C141.118 258.58 144.475 258.782 146.187 258.323C147.899 257.865 162.815 252.584 164.952 254.396C167.089 256.209 173.299 265.004 173.097 268.361C172.896 271.718 170.781 278.89 172.291 281.788C173.802 284.686 171.922 287.942 171.821 289.621Z" fill="#E2BBA6"/>
<path d="M37.7969 255L53.2969 222.5L106.297 249L112.297 336.5L41.7969 338L37.7969 255Z" fill="black"/>
<path d="M19.1197 351.382C25.662 340.906 49.6714 338.859 61.2583 330.895C65.5696 327.933 68.7967 305.497 64.2968 305.497C49.6861 300.775 40.6965 277.868 38.8646 257.039C36.6038 231.334 47.5466 209.634 66.7293 207.947C85.912 206.26 100.482 225.932 102.742 251.637C104.541 272.085 98.7968 293.997 87.7968 300.997C88.5864 309.975 88.6151 321.581 93.4399 323.776C106.239 329.595 129 324.253 136.721 333.858C157.799 360.131 160.586 423.072 160.586 423.072L21.6168 453.817C21.6168 453.817 5.07525 373.835 19.1197 351.382Z" fill="#F4C7C3"/>
<path d="M49.2968 261.5C48.0968 272.7 48.7968 286.5 49.2968 292C46.0968 287.599 43.2969 280.5 42.2969 277.5L42.2969 261.5C46.2969 237.1 55.2969 229.333 59.2969 228.5C71.2969 243.3 90.2969 251.667 98.2969 254L99.2969 284.5C98.8969 286.1 96.7969 290.166 95.7969 292L93.2969 258.5C78.4969 253.7 65.4635 242.167 60.7969 237C57.4635 240.5 50.4968 250.299 49.2968 261.5Z" fill="#DCB3AF"/>
<path d="M13.1536 467.9C11.5119 460.479 9.79689 439.998 9.79688 428.498L35.5413 420.955L39.1056 437.065C35.2591 437.916 89.7338 444.47 121.909 447.935L122.704 467.731C120.263 468.271 15.2057 477.175 13.1536 467.9Z" fill="#FF8139"/>
<path d="M50.7728 471.997C48.5263 461.842 52.8811 451.624 50.7728 444.409L131.813 426.479L160.53 396.569L166.665 447.445C158.295 447.419 139.462 460.787 148.297 478.497C157.131 496.206 166.665 518.997 166.665 539.996L41.2967 539.997C41.2967 528.997 43.7716 515.589 47.7967 501.997C50.9059 491.497 53.5809 484.689 50.7728 471.997Z" fill="#FF8139"/>
<path d="M97.7969 468.996C86.9969 469.796 61.9635 471.329 50.7969 471.996C51.5969 476.395 51.7969 480.496 51.7969 481.997L95.7969 476.997L97.7969 468.996Z" fill="#D3662F"/>
<path fill-rule="evenodd" clip-rule="evenodd" d="M55.7997 333.999C58.133 338.832 66.4997 350.199 81.2997 356.999C85.7317 354.373 95.6927 344.504 100.578 325.863C104.412 326.456 108.266 326.336 112.23 326.212C119.016 326 126.126 325.777 134.013 329.107C163.078 350.949 182.3 422.499 182.3 422.499L11.7996 458.499C11.7996 458.499 0.29968 365.499 17.7997 348.499C21.5071 342.563 31.2412 340.261 41.0938 337.932C46.2557 336.711 51.4501 335.483 55.8275 333.721L55.7997 333.999Z" fill="#FF8139"/>
<path d="M94.7969 323.996L94.7969 340.496C98.7969 335.696 100.13 328.83 100.297 325.997C97.0969 325.197 95.2969 324.33 94.7969 323.996Z" fill="#DCB3AF"/>
<path d="M94.7969 340.996C99.1969 332.596 100.297 327.496 100.297 325.996L101.797 373.497C99.7969 378.297 97.2969 380.83 96.2969 381.497L94.7969 340.996Z" fill="#D3662F"/>
<path d="M42.582 392.07C42.582 392.07 38.6138 407.76 40.705 416.324L42.7963 424.887L44.0068 424.005C44.0068 424.005 41.902 416.629 41.4612 413.934C41.0203 411.238 41.1502 399.692 42.582 392.07Z" fill="#D3662F"/>
<path d="M128.604 382.033C128.604 382.033 138.347 401.949 137.698 407.665L137 413.374L136.184 413.097C136.561 410.398 136.591 407.662 136.272 404.955C135.741 401.65 128.604 382.033 128.604 382.033Z" fill="#D3662F"/>
<path opacity="0.1" d="M77.7984 304.994C74.4983 305.932 64.6875 305.528 61.2983 304.994C61.2983 304.994 67.7983 309.994 77.7984 304.994Z" fill="black"/>
<path d="M59.2969 228.497C46.0969 234.097 44.1302 257.497 42.7969 261.497L42.7969 337.497L35.2969 339.497L35.2969 254.497C35.2969 228.497 46.2969 213.497 53.7969 207.997C59.7969 203.597 64.9635 204.831 66.7969 205.997C91.7969 198.997 108.797 212.997 113.797 228.497C117.797 240.897 130.63 302.497 136.797 331.497C130.397 326.697 122.63 326.164 119.297 326.497C118.097 357.297 107.13 373.497 101.797 377.997L98.2969 254.497C77.4969 247.697 63.6302 234.331 59.2969 228.497Z" fill="#2F2417"/>
<path d="M96.2969 431C95.4969 431.8 93.2969 434.667 92.2969 436L100.797 433L103.797 427.5C101.63 428.333 97.0969 430.2 96.2969 431Z" fill="#DCB3AF"/>
<path d="M202.6 389.321C199.559 390.255 191.464 391.481 188.297 392C189.209 394.491 192.297 397 193.297 397C195.297 397 199.686 397.496 201.46 397.886L201.84 399.054C202.6 401.389 207.161 411.122 207.161 413.068C207.161 415.015 206.781 420.854 207.161 423.579C207.541 426.304 209.062 427.083 209.822 427.083C210.582 427.083 210.962 420.854 211.342 418.908C211.723 416.961 212.483 412.679 212.103 409.175C211.799 406.372 212.99 405.153 213.623 404.893C214.51 408.137 216.436 414.937 217.044 416.183C217.804 417.74 217.044 424.358 217.044 425.915C217.044 427.472 217.804 430.587 220.085 430.976C221.909 431.287 222.365 428.51 222.365 427.083C224.646 429.808 226.926 428.64 226.926 427.083L226.926 420.854C226.926 418.363 225.913 412.809 225.406 410.343C226.546 411.511 227.687 416.961 229.207 418.908C230.727 420.854 232.628 420.076 232.248 418.908C231.868 417.74 228.067 406.84 226.926 404.893C225.786 402.947 220.085 396.718 218.944 396.718C217.804 396.718 215.143 393.603 214.383 392.046C213.623 390.489 210.582 392.046 209.062 391.268C207.541 390.489 206.401 388.153 202.6 389.321Z" fill="#F4C7C3"/>
<path d="M229.298 411.496C221.312 403.358 205.128 401.779 193.095 396.911C188.619 395.101 183.789 382.935 182.728 374.65C191.19 367.999 196.335 345.014 193.833 325.874C190.745 302.253 176.425 296.191 158.798 298.496C141.171 300.801 132.09 310.122 135.178 333.743C137.634 352.532 144.297 371.038 155.955 376.416C157.034 384.666 156.354 393.971 152.443 396.911C142.066 404.709 128.54 405.996 120.947 414.631C104.798 432.996 109.298 490.496 109.298 490.496L236.798 490.496C236.798 490.496 256.233 442.287 229.298 411.496Z" fill="#F4C7C3"/>
<path d="M160.363 315.027C137.784 322.668 135.903 339.776 137.784 348.46C126.669 321.713 146.758 309.816 158.192 307.211L191.625 309.816L194.665 338.908L188.799 320.497C173.862 323.971 163.547 317.921 160.363 315.027Z" fill="#DCB3AF"/>
<path d="M120.553 409.232C131.386 403.04 140.135 401.732 151.982 396.917C153.076 399.653 163.924 406.463 174.792 411.811C176.901 410.403 187.469 405.452 193.276 396.917C212.547 396.917 226.812 403.674 234.799 411.811C256.799 434.229 265.299 491.999 265.299 491.999L83.2985 491.999C83.2985 491.999 92.2803 425.394 120.553 409.232Z" fill="white"/>
<path d="M265.176 441.117C266.989 444.561 264.54 449.044 263.089 450.855C263.892 451.239 265.827 452.46 267.14 454.269C268.78 456.531 269.028 457.857 268.375 460.9C267.723 463.942 271.513 468.574 267.304 470.855C263.095 473.135 253.097 476.381 250.557 475.836C241.854 473.971 235.221 471.335 229.704 467.863C226.509 465.853 226.564 464.243 227.038 462.86L221.58 461.053C220.476 458.27 221.815 456.648 222.623 456.184C222.376 454.858 222.637 453.641 223.406 452.533C224.175 451.424 240.161 450.855 242.583 450.855C246.877 450.855 253.127 446.491 253.01 444.556C252.723 439.79 243.197 441.117 240.632 441.585C239.61 441.771 228.906 446.71 227.381 446.383C225.857 446.056 225.61 444.73 226.51 443.013C227.409 441.296 244.882 431.674 248.946 432.545C253.011 433.417 262.911 436.812 265.176 441.117Z" fill="#E2BBA6"/>
<path d="M94.3008 540L100.301 492L115.801 492L113.301 540L94.3008 540Z" fill="#F4C7C3"/>
<path d="M115.801 492L100.301 492C111.901 492 113.801 519.666 113.301 533.5L115.801 492Z" fill="#DCB3AF"/>
<path d="M234.611 540.498L229.299 482.195L116.334 482.195L113.035 540.498L234.611 540.498Z" fill="white"/>
<path d="M229.801 492L245.801 492L252.301 540L234.301 540L229.801 492Z" fill="#F4C7C3"/>
<path d="M229.801 492L245.301 492C234.101 492 232.967 519 233.801 532.5L229.801 492Z" fill="#DCB3AF"/>
<path opacity="0.1" d="M165.387 379.559C168.542 379.833 171.719 379.418 174.698 378.341C174.698 378.341 170.826 383.45 165.387 379.559Z" fill="black"/>
<path d="M159.889 310.325C142.073 318.566 134.075 327.425 137.787 348.027C132.219 337.726 128.266 322.233 126.301 307.498C125.301 299.998 140.588 295.931 143.558 295.27C157.81 280.374 200.517 298.272 209.301 302.498C212.864 314.225 197.747 330.538 194.406 339.65L192.93 332.83L189.801 316.998C180.299 319.85 165.209 312.702 159.889 310.325Z" fill="#2F2417"/>
<path d="M87.8785 439.695C86.401 442.502 88.3974 446.157 89.5802 447.633C88.9254 447.946 87.3482 448.942 86.2781 450.417C84.9404 452.26 84.739 453.341 85.2708 455.822C85.8025 458.302 82.7131 462.078 86.1441 463.938C89.5751 465.797 97.726 468.442 99.7969 467.999C106.892 466.478 112.299 464.329 116.797 461.499C119.401 459.86 119.356 458.548 118.97 457.42L123.42 455.947C124.32 453.678 123.227 452.356 122.569 451.978C122.77 450.897 122.558 449.904 121.931 449.001C121.304 448.097 108.272 447.633 106.297 447.633C102.797 447.633 97.7018 444.076 97.7969 442.499C98.0312 438.613 105.797 439.695 107.888 440.076C108.721 440.228 117.447 444.254 118.69 443.987C119.932 443.721 120.134 442.64 119.401 441.24C118.667 439.841 104.423 431.997 101.11 432.707C97.7962 433.417 89.7254 436.185 87.8785 439.695Z" fill="#F4C7C3"/>
</svg>
