<svg xmlns="http://www.w3.org/2000/svg" fill="none" viewBox="0 0 470 541"><path fill="#E1E1E1" d="M116 100C116 44.772 160.772 0 216 0h144c60.751 0 110 49.249 110 110v430H116V100z"/><path fill="#FF8139" d="M459 324v37a2 2 0 002 2h7a2 2 0 002-2v-37a2 2 0 00-2-2h-7a2 2 0 00-2 2z"/><path fill="#fff" d="M405 349h52v13h-52z"/><path fill="#C4C4C4" d="M404 361h55v2h-55zm0-13h55v2h-55z"/><path fill="#C4C4C4" d="M404 349v13.5h3c-.5-.833-1.5-3.3-1.5-6.5s1-6 1.5-7h-3z"/><path fill="#fff" d="M458.381 347.383h-32.145v-8.036h32.145z"/><path fill="#FF8139" d="M459 339.965h-34v-1.236h34zm0 8.035h-34v-1.236h34z"/><path fill="#FF8139" d="M459 347.383v-8.346h-1.855c.31.516.928 2.04.928 4.019 0 1.978-.618 3.709-.928 4.327H459z"/><path fill="#C5C5DD" d="M348 415.5V448h30.5v-32.5c0-6-2-16-15.5-16s-15 10.5-15 16z"/><path fill="#fff" d="M372 411.5c-.4-4.4-2.833-6.167-4-6.5l4.5-1c2 1.2 3.167 4.167 3.5 5.5l-4 2z"/><path fill="#C5C5DD" d="M383 395.5V448h30.5v-52.5c0-6-2-16-15.5-16s-15 10.5-15 16z"/><path fill="#fff" d="M407 391.5c-.4-4.4-2.833-6.167-4-6.5l4.5-1c2 1.2 3.167 4.167 3.5 5.5l-4 2z"/><path fill="#FF8139" d="M236 382v64a2 2 0 002 2h11.5a2 2 0 002-2v-64a2 2 0 00-2-2H238a2 2 0 00-2 2zm49 0v64a2 2 0 002 2h12a2 2 0 002-2v-64a2 2 0 00-2-2h-12a2 2 0 00-2 2z"/><path fill="#152D5D" d="M301 402v44a2 2 0 002 2h7a2 2 0 002-2v-44a2 2 0 00-2-2h-7a2 2 0 00-2 2z"/><path fill="#666A6A" d="M263.549 392.094l6.85 1.444-11.549 54.796-6.85-1.444z"/><path fill="#C4C4C4" d="M270.77 392l6.927 1.008-8.066 55.416-6.927-1.008z"/><path fill="#666A6A" d="M278.395 392l6.967.674-5.395 55.74-6.967-.674z"/><path fill="#E1E1E1" d="M236 460h234v73H236z"/><path fill="#C4C4C4" d="M224 280h246v11H224zm0 83h246v11H224zm0 84h246v11H224z"/><path fill="#E2BBA6" d="M181.176 394.745s-10.864-1.462-19.56-12.276c0 0 2.169 9.092-9.429 19.505-8.033 7.189-1.767 45.488 1.617 52.246 0 0-32.052 31.58-84.226 6.288 0 0 13.104-47.69 14.058-74.654 1.175-30.619 4.72-50.304 15.443-79.211 10.724-28.906 13.265-44.856 11.809-60.076-1.456-15.219-.723-39.049 26.107-44.806 26.83-5.758 30.003 25.792 30.003 25.792s2.37 40.341-8.184 49.583c-9.247 8.15-25.103-2.193-25.103-2.193s-3.675 18.714.583 25.322c0 0 5.874 6.719 20.383 12.496 15.153 6.008 17.583 50.064 25.616 58.134"/><path fill="#CEA999" d="M150.229 202.23c1.074 6.559 2.791 17.092 4.377 27.475-1.004-9.782-2.861-20.616-4.147-27.394l-.23-.081zm16.748 25.364l-12.371 2.112.623 9.412c.12 5.167-.291 9.312-1.567 11.275-5.341 8.24-7.47-11.014-11.888-10.594-4.418.421-6.477 5.447-3.304 14.018 3.173 8.571-8.234 10.954-9.218 15.76-.984 4.806-8.645 31.87 0 41.132l13.245-4.005a40.002 40.002 0 01-8.194-6.398c-4.257-6.609-.582-25.322-.582-25.322s15.845 10.343 25.103 2.193a12.057 12.057 0 002.008-2.323c5.272-7.38 6.025-26.113 6.175-30.129.151-4.015-.03-17.131-.03-17.131z"/><path fill="#292289" d="M100.706 302.168s-4.8 4.005-9.128 16.02c-4.327 12.016 6.929-6.918 6.929-6.918l1.325-6.699.874-2.403z"/><path fill="#F4EFEF" d="M152.498 450.633s15.245 54.657 14.382 89.06H50s1-27.194 5.5-45.194c4.5-18 15.975-41.213 15.975-41.213s44.533 22.819 81.023-2.653z"/><path fill="#152D5D" d="M259 373.5c-15 2.5-51.045 11.901-69.049-5.331-13.877-13.277-20.082-49.322-35.275-55.37a70.694 70.694 0 01-15.614-8.401c-23.797 7.84-34.511 5.077-39.24.151-.252.691-7.635 6.527-11.822 17.451-5 31-6.835 44.727-7.94 75.336-1.004 26.964-8.595 55.951-8.595 55.951 7.34 33.452 82.338.931 82.338.931-2.952-7.85-9.62-45.057-1.617-52.246 11.598-10.413 9.429-19.505 9.429-19.505 8.696 10.834 22.251 17.022 22.251 17.022C204.421 411.274 248 394.5 259 390.902V373.5z"/><path fill="#00181B" d="M259.001 390.999v-5.5s-35 16.472-57.5 13.989c-7.5-.828-16.328-7.209-25.677-9.983-9.348-2.773-18.506-20.485-18.506-20.485-.803 18.373-12.883 21.266-20.233 36.245-5.452 11.115-1.526 40.472.864 54.89 9.348-3.124 15.855-5.938 15.855-5.938-2.952-7.85-9.62-45.057-1.617-52.246 11.598-10.413 9.429-19.504 9.429-19.504 8.696 10.833 22.251 17.021 22.251 17.021 20.555 11.815 64.634-4.989 75.134-8.489z"/><path fill="#000" d="M103.678 464.07c.18 1.212.351 2.393.522 3.565-.171-1.172-.342-2.353-.522-3.565zm-.142-.92c0-.321-.09-.641-.14-1.002.04.361.1.681.14 1.002z" opacity=".3"/><path fill="#E1E1E1" d="M104.136 521L100 540h10c-2-9-5.227-16.833-5.864-19z"/><path fill="#C4C4C4" d="M104 521l-4 19h-8l4-14.5-10.5-6c4.8.8 14.333 1.333 18.5 1.5z"/><path fill="#2F2417" d="M162 240.002c7.2-6 9.333-16.167 9.5-20.5.988-5.6-2.588-9.334-4.5-10.5-16-13.5-36-12-47.5-6s-17.5 14.5-20 21.5-3.5 11.5-3.5 19v.001c0 7.5 0 17.499-6 26.499-9.83 14.743-4.5 21.5-2.5 29.5s-5 13.5-5 20.5c0 8.746 4.5 11 10 11s11.5-1 13.5 5.5 6.5 9.5 10.5 9.5 12.5-4.5 13-13 6-15.5 12.5-20.5c5.2-4 14.166.666 18 3.5 3.5-5 .5-8-4-13s-6.5-3.5-6.5-13c0-6.5-5.5-4.5-3.5-15.5 1.145-6.3-4-13-8-23-3.2-8 5.333-8.167 8-5.5 2.5 1 7 1.5 16-6z"/><path fill="#4F3C27" d="M163.5 214.501c4.8 2.8 5.5 11.333 5.5 15.5 2-4 3-10.5 3-13s0-5-8-11-25-10-37.5-6-22.5 12-27 24.5-3.5 17.5-3.5 25.5-3 13.5-5 18-5 7.5-6.5 14.5.5 9 2.5 16.5-1.5 11.5-2.5 13.5-4 6.5-1 13.5 10.5 4.5 15 5 6 2.5 8 7c1.6 3.6 4 5.833 5 6.5.667-2.834 1.6-9.5 0-13.5-2-5-6.5-13-1.5-22s1.5-15-2-27.5 5.5-12 2-30.5 5.5-33 19.5-39 28-1 34 2.5z"/><path fill="#fff" d="M144.887 354.501c-14.754-9.111-45.924-10.543-75.493-9.403C29.897 346.622 1 380.702 1 420.228v119.773h280.779c.167-4.333.4-19.7 0-46.5-.399-26.8-19.484-37.5-28.977-39.5h-62.451c.8-61.2-13.077-79.5-45.464-99.5z"/><path fill="#F4EFEF" d="M251.424 441.818c-8.76 1.448-46.74 8.702-61.073 12.172l48.398.929c20.591 0 20.688 19.385 20.688 32.243v52.89h35.606c-3.695-22.39-12.457-69.899-14.358-79.208-2.375-11.635-15.016-21.379-29.261-19.026z"/><path fill="#F4EFEF" d="M221.325 432.407l-31.235 3.097.263 18.485 51.204-10.399c-.274-11.507-13.612-12.273-20.232-11.183z"/><path fill="#FF8139" d="M264 247l-9.5 33h-19l-8.5-33h37z"/><path fill="#D3662F" d="M264 247h-37l35 7.5 2-7.5z"/><rect width="41" height="8" fill="#FF8139" rx="2" transform="matrix(-1 0 0 1 266 239)"/><path fill="#00B67A" d="M265 225.941c-2.8.8-6.833 9.334-8.5 13.5H255c2.167-4.166 6.6-12.9 7-14.5.5-2-4-6-5.5-13.5-1.2-6 2.833-10 5.5-11.5 2.333 2.5 6.3 10.3 7.5 9.5 1.2-.8-3-7-5.5-11 4.4-3.6 11.5-4.999 14-4.999 1 3 3.3 8.799 4.5 7.999 1.2-.8-.5-5.666-1.5-7.999 6.8-.8 14.167-.334 17 0l-3.5 15-7.5-2.501c-3-1-4.5.5-3.5 1 .8.4 6.667 3.167 9.5 4.5-1.2 4.4-4.5 8.5-6 10-3-1.666-9.3-5.2-10.5-6-1.5-1-4 0-2.5 1 1.2.8 6.833 5.334 9.5 7.5-9.5 5-15 1-18.5 2zm-34.186-5.836c3.972 1.12 9.694 13.063 12.058 18.895H245c-3.074-5.832-9.363-18.055-9.93-20.294-.71-2.8 5.674-8.398 7.802-18.895 1.702-8.398-4.019-13.996-7.802-16.096-3.31 3.499-8.937 14.416-10.64 13.297-1.702-1.12 4.256-9.798 7.803-15.396-6.242-5.039-16.314-6.998-19.861-6.998-1.419 4.199-4.681 12.316-6.384 11.197-1.702-1.12.71-7.931 2.128-11.197-9.646-1.119-20.097-.466-24.116 0l4.965 20.994 10.64-3.499c4.255-1.4 6.383.699 4.965 1.399-1.135.56-9.458 4.432-13.477 6.299 1.702 6.158 6.384 11.896 8.512 13.996 4.255-2.333 13.193-7.278 14.895-8.398 2.128-1.399 5.674 0 3.547 1.4-1.703 1.12-9.694 7.464-13.477 10.497 13.477 6.998 21.279 1.4 26.244 2.799z"/><path fill="#999696" d="M260.876 316.27l28.531 3.17-7.608 57.061-28.531-3.17 7.608-57.061z"/><path fill="#C4C4C4" d="M259.608 315l28.531 3.17-7.608 57.062-28.531-3.17L259.608 315z"/><path fill="#fff" d="M261.509 316.902l24.093 2.536-6.974 50.088-24.093-2.536 6.974-50.088z"/><path fill="#CEA999" stroke="#CEA999" d="M266 368c-.919 2.144-4.5 5-7 6v17c8-1.5 8.5-1.5 11.5-1.5 8 0 10.5-1 16-3.5 3.053-1.388 7-4.5 7-6.5s-1.5-5-.5-7.5.5-5-1-7-3.5-4-3.5-7.5c0-2.8-1.5-5.5-3-7l-1 10.5c0 3.6-3 7.5-9.5 5.5-3.5-1.077-4.5-3.5-4.5-5.5 0-2.5 3-8.5 1.5-8.5s-3.5 2-4.5 6.5 0 5.5-1.5 9z"/><path fill="#fff" d="M309 115h161v132H309z"/><path fill="#E1E1E1" d="M315 122h155v117H315z"/><path fill="#D8D8D8" d="M326 238.5l60-116h44.5l-60.5 116h-44zm114.5-116L380 239h11l61-116.5h-11.5z"/><path fill="#fff" d="M443 246h10v26h-10z"/><path fill="#fff" d="M448.5 270.999c-23.6-.4-42.167 5.833-48.5 9h69.5v-7.5c-1.333-.5-7.4-1.5-21-1.5z"/><path fill="#FF8139" d="M91 99l17.5-61h14l7.5 42.5L91 99z"/><path fill="#FFD300" d="M115.5 91.5c-3.6 2.4-10.167 2.333-13 2l19-9c-.5 1.333-2.4 4.6-6 7z"/><path stroke="#fff" d="M116 0v51.055M150 0v138"/><path fill="#FFD300" d="M150 160c-3.6 2.4-10.167 2.333-13 2l19-9c-.5 1.333-2.4 4.6-6 7z"/><path fill="#FF8139" d="M127 167l17.5-61h14l7.5 42.5-39 18.5z"/><path fill="#fff" d="M198 41h66v92h-66z"/><path fill="#E1E1E1" d="M206 52h50v70h-50z"/><path fill="#272E80" d="M233 81.5c-1.2-10-18.5-23.833-27-29.5v51c9.5-3 28.2-11.5 27-21.5z"/><path fill="#FF8139" d="M240.5 85c-4.8-10 8.333-16.5 15.5-18.5V122h-28.5c20.5-9 19-24.5 13-37z"/><path stroke="#000" d="M234.5 122.001c-5.333-7-16.5-24.4-18.5-38-2-13.6 25.5 1.667 39.5 11"/><path fill="#FFD300" d="M274.054 329.898c-1.036-.158-1.931.021-2.686.537-.748.518-1.328 1.384-1.738 2.599l5.024.766-.259 1.697-5.189-.792-.098.493-.093.606-.043.433 4.495.685-.257 1.686-4.308-.657c.121 2.363 1.283 3.713 3.486 4.049 1.05.16 2.161.097 3.332-.191l-.341 2.237c-1.03.301-2.185.354-3.463.159-1.77-.27-3.135-.974-4.097-2.113-.953-1.137-1.459-2.65-1.517-4.538l-1.675-.255.257-1.686 1.499.229.04-.411.062-.408.131-.713-1.498-.228.259-1.697 1.652.252c.561-1.801 1.483-3.141 2.767-4.02 1.284-.879 2.815-1.182 4.592-.911 1.469.224 2.735.747 3.797 1.571l-1.24 1.919c-1.046-.731-2.01-1.163-2.891-1.298z"/></svg>