<svg xmlns="http://www.w3.org/2000/svg" fill="none" viewBox="0 0 470 541"><path fill="#fff" d="M298.822 253v286.5h106.98V191l-106.98 62z"/><path fill="#E1E1E1" d="M315.818 264h14.997v23h-14.997zm29.994 0h14.997v23h-14.997zm29.995 0h14.997v23h-14.997zm-59.989 40h14.997v23h-14.997zm29.994 0h14.997v23h-14.997zm29.995 0h14.997v23h-14.997zm-59.989 40h14.997v23h-14.997zm29.994 0h14.997v23h-14.997zm29.995 0h14.997v23h-14.997zm-59.989 40h14.997v23h-14.997zm29.994 0h14.997v23h-14.997zm29.995 0h14.997v23h-14.997z"/><path fill="#fff" d="M241.355 326.289l86.303 44.58v161.104h-86.303V326.289z"/><path fill="#FF8139" d="M315.527 400.624V396h-63.695v4.624h63.695z"/><path fill="#D3662F" fill-rule="evenodd" d="M267.883 400.089h47.443v-3.925l-47.443 3.925z" clip-rule="evenodd"/><path fill="#FF8139" d="M315.326 384.675v-4.624h-63.695v4.624h63.695z"/><path fill="#D3662F" fill-rule="evenodd" d="M255.684 384.624h59.841v-4.604l-59.841 4.604z" clip-rule="evenodd"/><path fill="#FF8139" d="M315.326 461.745v-4.624h-63.695v4.624h63.695z"/><path fill="#D3662F" fill-rule="evenodd" d="M253.749 461.624h61.776V457h-1.252l-60.524 4.624z" clip-rule="evenodd"/><path fill="#FF8139" d="M315.326 446.331v-4.624h-63.695v4.624h63.695z"/><path fill="#D3662F" fill-rule="evenodd" d="M262.567 446.624h52.958V442h-1.745l-51.213 4.624z" clip-rule="evenodd"/><path fill="#FF8139" d="M315.326 430.917v-4.624h-63.695v4.624h63.695z"/><path fill="#D3662F" fill-rule="evenodd" d="M259.293 430.624h56.232v-4.296l-56.232 4.296z" clip-rule="evenodd"/><path fill="#FF8139" d="M315.326 415.503v-4.624h-63.695v4.624h63.695z"/><path fill="#D3662F" fill-rule="evenodd" d="M265.263 415.625h50.262v-4.34l-50.262 4.34z" clip-rule="evenodd"/><rect width="120.563" height="8.41" fill="#152D5D" rx="4.205" transform="rotate(30.005 -468.814 593.654) skewX(.01)"/><rect width="142.863" height="8.41" fill="#152D5D" rx="4.205" transform="matrix(-.86598 .50007 .49993 .86607 410.227 180)"/><path fill="#24AD79" d="M241.947 463.867s19.77 0 19.77-18.484c0-18.485-12.463-23.643-9.884-37.184 2.578-13.541-7.737-26.867-21.923-18.7-14.187 8.167-3.193 36.181-8.166 44.708-4.973 8.526-6.444 30.951 20.203 29.66z"/><path fill="#179364" fill-rule="evenodd" d="M235.846 387.341c4.117 3.07 8.597 8.645 6.046 15.659-3.999 11-4.499 22 0 31 4.129 8.26 6.995 23.257-1.834 29.92.784.005 1.596-.012 2.436-.053 0 0 19.77 0 19.77-18.484 0-9.25-3.12-15.163-5.916-20.459-2.79-5.287-5.257-9.96-3.968-16.725 2.238-11.755-5.241-23.349-16.534-20.858z" clip-rule="evenodd"/><path fill="#fff" d="M238.564 450.074h2.817v31.927h-2.817z"/><path fill="#24AD79" d="M405.257 502.017s-24.438 0-24.438-22.849 15.406-29.225 12.218-45.963c-3.187-16.738 9.564-33.211 27.1-23.116 17.536 10.096 3.947 44.724 10.094 55.264 6.147 10.54 7.965 38.26-24.974 36.664z"/><path fill="#179364" fill-rule="evenodd" d="M409.356 407.003c4.438 3.815 7.876 10.557 5.39 21.497-4.999 22-1.5 31 2.999 39 4.473 7.953-2.417 36.657-33.928 23.735 6.561 10.782 21.374 10.782 21.374 10.782 32.939 1.596 31.12-26.124 24.973-36.664-2.338-4.01-1.82-11.506-1.246-19.812.934-13.525 2.017-29.197-8.847-35.452-3.84-2.211-7.451-3.147-10.715-3.086z" clip-rule="evenodd"/><path fill="#fff" d="M409.438 484.965h-3.481v39.465h3.481z"/><path fill="#152D5D" d="M279.183 479H90.873v61.032H469.8c-.172-11.113-9.23-20.032-20.344-20.032h-28.417c-18.481 0-52.805-2.191-69.43-18.5-24.974-24.5-50.948-22.5-72.426-22.5z"/><path fill="#0C2048" d="M258.342 499c-3.599-13.2-14.831-18.5-19.996-19.5h8.498c7.999 2.8 14.664 13.167 16.997 18 25.495-5 33.493 15 34.993 24 1.2 7.2 8.832 14.667 12.498 17.5h-39.493c-2.999-5.5-15.997-6.5-21.496-19-4.399-10 3.5-18.167 7.999-21zm-100.981 40c-8.399-28.8-32.494-51.667-43.492-59.5h94.482c21.996 16 41.159 46.333 42.992 59.5h-93.982zm182.379 1.012c-8.158-29.2-30.709-53.345-40.906-61.012 31.172.996 43.487 12.052 56.959 24.664 9.105 8.524 28.466 12.795 34.05 13.766l32.816 3.07c8.255.5 23 1.871 28.65 3.5 12.139 3.5 18.953 11.881 18.468 15.881l-130.037.131z"/><path fill="#F4C7C3" d="M14.846 336.131c7.851-10.523 28.082-9.852 41.058-17.271 4.827-2.76 8.452-17.39 8.379-27.009-10.687-6.277-20.12-31.707-20.232-53.935-.137-27.431 13.362-49.46 33.833-49.563 20.471-.102 34.179 22.019 34.316 49.451.109 21.82-4.624 43.969-17.094 51.913.048 9.58 2.266 20.093 7.185 22.842 13.049 7.289 31.349 4.482 38.685 15.337 20.023 29.686 21.134 87.999 21.134 87.999L7.026 445.074s-18.142-69.633 7.82-108.943z"/><path fill="#000" d="M62.3 306c-1.6 7.6-4.5 12.5-9.5 13.5L67.3 330l26 1 15.501-16.5c-8-1.2-11.334-7.5-12-10.5-11.6 7.6-28 4.5-34.5 2z"/><path fill="#DCB3AF" d="M80.561 220.35c23.834-3.349 31.747 24.45 30.946 34.65 8.538-32.242-16.23-42.704-29.68-43.904l-37.746 8.155 1.041 33.666 3.572-25.715c17.581 1.649 23.701-6.852 31.867-6.852z"/><path fill="#000" d="M140.59 321.671c-13.321-5.387-23.508-5.522-37.772-9.181-.824 3.292-5.422 13.01-22.422 14.51-3.5 0-16.748.729-24.697-8.109-21.99 2.987-33.526 6.317-41.377 16.84-25.696 34.443-8.193 109.467-8.193 109.467l202.856-37.5s-33.63-71.968-68.395-86.027z"/><path fill="#000" d="M30.396 540l-6.357-100.548 132.674-35.179L168.896 540h-138.5z"/><path fill="#E1E1E1" d="M122.264 469.244l-10.463 21.122c13.021 9.857 23.251 6.454 26.739 4.107 1.744-3.52 5.813-11.148 6.975-14.081 1.163-2.934-1.55-3.818-2.325-4.209-4.069-2.347-13.021-7.291-16.276-8.699-3.255-1.408-4.069.587-4.65 1.76z"/><path fill="#4284B5" d="M126.853 469.273c-2.342-.944-3.708.786-4.098 1.769l-9.954 20.048c11.242 7.547 20.298 6.29 23.42 4.717 1.757-3.341 5.621-10.731 7.027-13.562 1.405-2.83-.196-4.324-1.171-4.717-4.099-2.359-12.882-7.312-15.224-8.255z"/><path fill="#000" d="M-.325 444.494c-.986-18.418-.23-63.719 1.72-71.993l55.75 15.471c-5 11.194-13.613 40.186-10.583 42.533 6.927 5.365 36.445 26.5 57.96 38.954l-8.844 25.322c-69.85-20.324-88.026-40.288-96.003-50.287z"/><path fill="#00181B" d="M86.3 498c-17.6-8.4-47.666-24.5-60.5-31.5l.5 7.5 62.5 32v-12l-2.5 4z"/><path fill="#E2BBA6" d="M115.801 482c-2.901 0-9.279-1.191-13.308-3-8.703 3.859-12.088 13.266-12.692 17.487.604.603 2.296 2.533 4.23 5.428 2.418 3.618 9.604 13.319 14.27 14.585 6.648 1.804 17.762 3.505 22.597 1.696 3.868-1.447 3.626-3.819 3.022-4.824 2.901-2.412 2.417-5.427 1.813-6.633 2.901-2.895 2.418-5.628 1.813-6.633 1.934-2.895 1.209-5.227.605-6.031-7.253 4.824-20.739-2.829-25.372-6.045l3.022-6.03z"/><path fill="#000" d="M84.834 294.766c-3.558.802-7.248.82-10.814.054 0 0 5.211 5.229 10.814-.054z" opacity=".1"/><path fill="#2F2417" d="M80.376 214.909c23.02-4.41 32.106 15.511 31.064 39.594 4.756-12.617 20.956-45.004 4.956-53.004-5.385-2.692-11.297-1.705-19.719-6.3-6.781-3.7-10.89-11.182-23.281-11.2-12.998-.02-24.705 16.334-29.5 19.5-18.085 7.391-3.585 40.342 1.639 50.222l.627-8.012 3.003-22.417c11.285 1.782 24.039-7.009 31.211-8.383z"/><path fill="#6B4F2D" d="M114.895 210.003c6 4 5.167 18.666 4 25.499 13-37-4-34-16-37.5s-8-6.5-21-12.5c-10.4-4.799-21 2-25 6 4.834-3 17.1-6.3 27.5 4.5 13 13.5 23 9.001 30.5 14.001z"/><path fill="#142B5A" d="M203.896 294l-1.5 6.5h29.5V299l-28-5z"/><path fill="#C4C4C4" d="M257.895 138.914l-5.93-.915-26.247 170.14 5.93.915z"/><path fill="#E2BBA6" d="M235.896 292.5c3.6-1.2 6.167-4.167 7-5.5l-9.5-1-3 13 4.5 1 1-7.5z"/><path fill="#CBA895" d="M238.374 247.729c-2.114.869-10.597 9.107-14.575 13.118l1.75 23.641c3.837 2.108 12.018 5.996 14.047 4.687 2.536-1.636 8.588-2.815 8.388-6.773-.2-3.958 2.55-4.494 3.45-8.667.901-4.172-.964-4.951-1.393-7.151-.428-2.201 1.451-4.28-1.393-7.152-2.843-2.872-2.615-4.63-2.936-6.28-.322-1.651-4.694-6.509-7.338-5.423z"/><path fill="#E2BBA6" d="M215.374 284.621c.081 1.343-1.712 8.899-2.618 12.51l18.731 3.367 1.857-15.833c.679-1.164 1.97-4.61 1.701-9.086-.336-5.595-7.654-15.262-4.398-17.142 3.256-1.88 14.781 3.043 15.106-.907.324-3.95-3.033-3.748-4.745-4.207-1.712-.458-16.627-5.739-18.764-3.927-2.138 1.813-8.347 10.608-8.146 13.965.202 3.357 2.317 10.529.806 13.427-1.51 2.898.369 6.154.47 7.833z"/><path fill="#000" d="M157.801 415.5l47-123.5 33.5 5.5c-6.5 43.667-24.4 132.4-44 138-19.6 5.6-32.5-11-36.5-20z"/><path fill="#081B42" d="M339.025 174.507c37.006-19.545 83.017 2.208 93.756 14.493 7.93-79.504-32.216-131.127-56.997-147H160.599c-64.02 6.211-86.735 62.113-84.67 98.138 40.311-29.152 68.837-4.417 78.061 11.594 39.981-38.427 81.366-8.971 93.756 7.04 45.929-23.851 81.228-2.485 91.279 15.735z"/><path fill="#081B42" d="M148.302 22.998c-62.5 34.46-73.5 93.5-71.5 117l83.5-61 227.5-27.5c-35.5-38.5-147.001-79.5-239.5-28.5z"/></svg>