<svg xmlns="http://www.w3.org/2000/svg" fill="none" viewBox="0 0 470 542"><path fill="#E1E1E1" d="M469.802 100c0-55.228-44.772-100-100-100h-82.213c-60.752 0-110 49.249-110 110v431h292.213V100z"/><path fill="#D2D2D2" d="M360.201 515.882c30.275-30.18 69.493-94.367 83.611-121.517l-280.04-31.416-127.864 79.635c130.754 48.8 285.007 112.463 324.293 73.298z"/><path fill="#fff" d="M407.806 150.117l-66-10v92l66 10v-92z"/><path fill="#E1E1E1" d="M399.806 161.117l-50-9v70l50 9v-70z"/><path fill="#272E80" d="M372.806 190.617c1.2-10 18.5-23.833 27-29.5v51c-9.5-3-28.2-11.5-27-21.5z"/><path fill="#FF8139" d="M365.306 194.117c4.8-10-8.334-16.5-15.5-18.5v46.5l28.5 5c-20.5-9-19-20.5-13-33z"/><path stroke="#000" d="M371.344 225.454c5.333-7 16.5-24.4 18.5-38 2-13.6-25.5 1.667-39.5 11"/><path fill="#fff" d="M133.644 393.721l-3.266-75.604 312.202 75.604a234.148 234.148 0 01-204.197 32.393l-104.739-32.393z"/><ellipse fill="#152D5D" rx="13.5" ry="7" transform="matrix(-1 0 0 1 360.562 404.918)"/><ellipse fill="#152D5D" rx="13.5" ry="6" transform="matrix(-1 0 0 1 360.562 381.918)"/><path fill="#152D5D" d="M374.062 404.918v-23h-27v23h27z"/><ellipse fill="#000" rx="11.5" ry="5" transform="matrix(-1 0 0 1 360.562 381.918)"/><path fill="#FF8139" d="M374.062 363.918l-4.5 21c-.8.8-2 1-2.5 1l5-22.5 2 .5z"/><path fill="#FFD300" d="M352.062 365.418l7.5 21.5c-1.6 0-3-.333-3.5-.5l-7-20 3-1z"/><path fill="#152D5D" d="M227.874 293.164a4 4 0 014.642-2.991l89.192 17.103a4 4 0 013.139 4.849l-14.001 59.191a3.999 3.999 0 01-4.813 2.972l-88.539-20.943a4 4 0 01-2.968-4.83l13.348-55.351z"/><path fill="#F5F5F5" d="M229.213 295.813a3.999 3.999 0 014.623-3l85.106 15.885a4 4 0 013.159 4.853l-13.306 56.252a4 4 0 01-4.813 2.972l-84.316-19.944a3.999 3.999 0 01-2.969-4.825l12.516-52.193z"/><path fill="#152D5D" d="M192.448 359.24l23.685-6.729 92.449 21.868-21.252 7.304-94.882-22.443z"/><path fill="#fff" d="M192.908 357.293l-.46 1.946 4.353-1.025-3.893-.921z"/><path fill="#152D5D" d="M192.908 357.291l23.685-6.729 92.449 21.868-21.252 7.304-94.882-22.443z"/><path fill="#fff" d="M242.203 361.758l-7.476 3.369 22.382 5.295 6.99-3.485-21.896-5.179zM237.196 359.033l3.406.805-1.203.743-3.893-.92 1.69-.628zM232.331 357.884l3.406.806-1.204.743-3.892-.921 1.69-.628zM227.465 356.732l3.406.806-1.204.743-3.892-.921 1.69-.628zM262.011 364.902l3.893.921-1.204.743-3.892-.921 1.203-.743zM266.877 366.054l3.893.921-1.203.743-3.893-.921 1.203-.743zM271.743 367.207l3.892.92-1.203.743-3.893-.92 1.204-.743zM276.609 368.355l3.892.921-1.203.743-3.892-.921 1.203-.743zM281.474 369.508l3.893.92-1.204.743-3.892-.921 1.203-.742zM286.34 370.66l3.893.921-1.203.743-3.893-.921 1.203-.743zM241.55 358.009l3.406.806-1.204.743-3.892-.921 1.69-.628zM246.415 359.158l3.406.805-1.204.743-3.892-.92 1.69-.628zM251.281 360.31l3.406.806-1.203.743-3.893-.921 1.69-.628zM256.146 361.462l3.406.806-1.203.743-3.893-.921 1.69-.628zM261.012 362.611l3.406.806-1.203.743-3.892-.921 1.689-.628zM236.683 356.857l3.406.806-1.203.743-3.893-.921 1.69-.628zM231.818 355.705l3.406.805-1.203.743-3.893-.92 1.69-.628zM265.391 363.648l3.893.921-1.204.743-3.892-.921 1.203-.743zM270.257 364.8l3.893.921-1.203.743-3.893-.921 1.203-.743zM275.123 365.949l3.892.921-1.203.743-3.893-.921 1.204-.743zM279.989 367.101l3.892.921-1.203.743-3.893-.921 1.204-.743zM284.854 368.25l3.893.92-1.204.743-3.892-.92 1.203-.743zM289.72 369.402l3.893.921-1.204.743-3.892-.921 1.203-.743zM259.696 365.385l-14.458-3.42 1.342-.71 14.458 3.42-1.342.71zM242.062 360.185l3.406.806-1.203.743-3.893-.921 1.69-.628z"/><path fill="#E2BBA6" d="M210.977 394.741s-10.865-1.462-19.56-12.276c0 0 2.169 9.092-9.429 19.505-8.033 7.189-1.767 45.488 1.617 52.246 0 0-32.052 31.58-84.226 6.288 0 0 13.104-47.69 14.058-74.654 1.174-30.619 4.719-50.304 15.443-79.211 10.724-28.906 13.264-44.856 11.808-60.076-1.455-15.219-.722-39.049 26.108-44.806 26.83-5.758 30.003 25.792 30.003 25.792s2.37 40.341-8.184 49.583c-9.248 8.15-25.103-2.193-25.103-2.193s-3.675 18.714.583 25.322c0 0 5.874 6.719 20.383 12.496 15.152 6.008 17.582 50.064 25.615 58.134"/><path fill="#CEA999" d="M180.03 202.23c1.075 6.559 2.792 17.092 4.378 27.475-1.004-9.782-2.862-20.616-4.147-27.394l-.231-.081z"/><path fill="#CEA999" d="M196.779 227.59l-12.371 2.113.623 9.411c.12 5.167-.292 9.312-1.567 11.275-5.342 8.24-7.47-11.014-11.889-10.594-4.418.421-6.476 5.447-3.303 14.018 3.173 8.571-8.234 10.954-9.218 15.76-.984 4.806-8.645 31.87 0 41.132l13.244-4.005a40.023 40.023 0 01-8.193-6.398c-4.258-6.608-.583-25.322-.583-25.322s15.845 10.343 25.103 2.193a12.062 12.062 0 002.009-2.323c5.271-7.38 6.024-26.113 6.175-30.128.151-4.016-.03-17.132-.03-17.132z"/><path fill="#292289" d="M130.507 302.164s-4.8 4.005-9.128 16.02c-4.328 12.016 6.929-6.918 6.929-6.918l1.325-6.699.874-2.403z"/><path fill="#F4EFEF" d="M182.3 450.633s15.365 54.962 14.502 89.366h-117s1-27.5 5.5-45.5 15.975-41.213 15.975-41.213 44.533 22.819 81.023-2.653z"/><path fill="#F4EFEF" d="M254.064 490.805c-10.704-4.789-50.469-20.305-69.013-27.465l3.169 78.169h82.042c-.939-14.906-5.493-45.916-16.198-50.704z"/><path fill="#F4C7C3" d="M314.219 360.799c-16.465 3.992-39.533 12.921-69.968 7.433-30.435-5.488-39.423-42.778-59.773-55.433a70.694 70.694 0 01-15.614-8.401c-23.798 7.84-34.512 5.077-39.241.151-.251.691-7.634 6.527-11.822 17.451-5 31-6.835 44.727-7.939 75.336-1.004 26.964-8.595 55.951-8.595 55.951 7.34 33.452 82.338.931 82.338.931-2.953-7.85-9.62-45.057-1.617-52.246 11.598-10.413 9.429-19.505 9.429-19.505 18.718 19.505 42.613 19.505 42.613 19.505 22.809 0 74.241-19.505 86.216-26.25l-6.027-14.923z"/><path fill="#D3A8A4" d="M320.372 376.176l-1.81-4.57s-58.928 27.953-85.948 26.769c-9.341-.41-17.641-6.096-26.989-8.87-9.348-2.773-18.506-20.485-18.506-20.485-.803 18.373-12.883 21.266-20.233 36.245-5.452 11.115-1.526 40.472.864 54.89 9.348-3.124 15.855-5.938 15.855-5.938-2.952-7.85-9.62-45.057-1.617-52.246 11.598-10.413 9.429-19.504 9.429-19.504 8.695 10.833 22.251 17.021 22.251 17.021 23.542 12.817 95.007-17.69 106.704-23.312z"/><path fill="#000" d="M133.479 464.07c.181 1.212.352 2.393.523 3.565-.171-1.172-.342-2.353-.523-3.565zM133.338 463.15c0-.321-.09-.641-.14-1.002.04.361.1.681.14 1.002z" opacity=".3"/><path fill="#00181B" d="M184.802 240l14.5-5.001c1-1.5-1.429-18.5-7.5-27-5-7-12.5-11.5-17.5-9.5-15-2-41-10.499-52.5 24.001-3.772 11.314-11.5 46.499-11.5 90.499 0 34.064 7 44.5 23 44.5 24.5 0 41.5-35.166 43.5-48 2 1.6 6.166 3 8 3.5-3.6-7.2-3.167-61.666-2.5-88 1 7.001 2.5 13.834 2.5 15.001z"/><path fill="#E1E1E1" d="M133.938 521l-4.136 19h10c-2-9-5.228-16.833-5.864-19z"/><path fill="#C4C4C4" d="M133.802 521l-4 19h-8l4-14.5-10.5-6c4.8.8 14.333 1.333 18.5 1.5z"/><path fill="#FAFAFC" d="M116.222 391.305c-9.706-5.994-28.216-7.87-47.652-7.86-39.527.021-68.462 34.639-68.462 74.166v83.388h226.583c.134-3.497.322-15.897 0-37.524-.323-21.627-15.724-30.262-23.384-31.876H152.91c.646-49.387-10.553-64.155-36.688-80.294z"/><path fill="#00181B" d="M363.5 328.221a.5.5 0 11.491.871l-.491-.871zm-5.073 2.86l5.073-2.86.491.871-5.073 2.86-.491-.871zM360.316 326.467a.5.5 0 11.491.871l-.491-.871zm-5.073 2.86l5.073-2.86.491.871-5.073 2.86-.491-.871z"/><path fill="#1C3B78" d="M361.182 333.421l-3.564 2.039-5.977-6.513 4.1-1.963 3.142 1.609 2.299 4.828z"/><path fill="#152D5D" d="M355.734 330.284l3.121-1.739-3.121-1.561-3.031 1.338 1.516.624c.713.321 1.307 1.026 1.515 1.338z"/><path fill="#152D5D" d="M354.703 329.182a4.075 4.075 0 011.075 1.374l-20.366 27.217c-2.101-4.578-6.509-14.298-7.337-16.556-.828-2.258.658-3.575 1.505-3.951 5.806-2.694 17.7-8.233 18.822-8.83 1.123-.597 2.001-.727 2.3-.717 1.095.299 3.428 1.01 4.001 1.463z"/><path stroke="#00181B" d="M330.709 344.57c-2.277.441-7.579 3.481-10.575 12.118l-.837 3.782"/><rect width="26.844" height="25.879" fill="#1C3B78" rx="2" transform="scale(-1 1) rotate(25.461 -904.021 -620.91)"/><path fill="#E2BBA6" d="M323.125 358.445c-1.421 1.066-6.71 3.405-9.177 4.441l5.421 13.521c6.907-2.819 21.223-8.035 24.387-8.881 3.164-.845 12.674-7.753 15.744-10.008 2.457-1.805 1.287-3.102.395-3.524l1.2-1.692c1.276-2.03-.268-3.045-1.2-3.299.395-.339 1.186-2.843-.395-3.331-1.226-.379-2.871.745-3.604 1.407.4-.381.523-.767.534-.919.296-2.221-2.368-2.221-4.441-1.036-2.072 1.184-11.397 4.44-12.729 4.736-1.333.296-4.589 2.221-5.625 1.629-1.036-.593 3.552-3.109 4.144-3.849.592-.74 4.589-2.368 8.438-2.516 3.848-.148 5.18-1.629 4.588-2.665-.592-1.036-7.401-.296-10.213 0-2.812.296-7.253 2.665-11.842 5.921-4.588 3.257-3.848 8.733-5.625 10.065z"/><path fill="#fff" d="M402.601 345.992v-26.84l-25.307-4.601v26.073l25.307 5.368z"/><ellipse fill="#E1E1E1" rx="6.131" ry="7.449" transform="scale(-1 1) rotate(20.05 -1128.768 -935.782)"/><ellipse fill="#00181B" rx=".791" ry="1.208" transform="matrix(-1 0 0 1 391.446 330.665)"/><ellipse fill="#00181B" rx=".791" ry="1.208" transform="matrix(-1 0 0 1 386.657 329.458)"/><path stroke="#fff" d="M247.039 0v138"/><path fill="#F5F5F5" d="M147.966 74.142C148.044 33.258 114.922 0 74.037 0 33.207 0 .108 33.17.108 74s33.1 74 73.929 74c40.774 0 73.85-33.083 73.929-73.858z"/><path fill="#fff" d="M4.746 70.707C6.29 33.671 36.764 4.441 73.832 4.441c36.692 0 66.995 28.66 69.038 65.296l.238 4.264-.237 4.265c-2.044 36.636-32.347 65.295-69.04 65.295-37.067 0-67.541-29.23-69.085-66.265L4.608 74l.138-3.294z"/><path fill="#E5E5E5" d="M5.108 74h138v6h-138z"/><path fill="#E5E5E5" d="M77.108 4v140h-6V4z"/><rect width="14.012" height="4.145" fill="#FAFAFC" rx="2" transform="matrix(-1 0 0 1 254.045 134.648)"/><rect width="14.012" height="4.145" fill="#FAFAFC" rx="2" transform="matrix(-1 0 0 1 254.045 138.102)"/><rect width="14.012" height="4.145" fill="#FAFAFC" rx="2" transform="matrix(-1 0 0 1 254.045 141.488)"/><rect width="14.012" height="4.145" fill="#FAFAFC" rx="2" transform="matrix(-1 0 0 1 254.045 144.727)"/><ellipse fill="#FF8139" rx="14.347" ry="13.607" transform="matrix(-1 0 0 1 247.038 169.181)"/><path fill="#FF8139" d="M241.19 148.777h11.226c.09 5.403 3.464 9.763 5.177 11.305l-21.165.034c3.901-4.173 4.8-9.298 4.762-11.339z"/><path stroke="#FAFAFC" d="M249.122 148.777c-.469 4.521-.598 14.162 2.643 16.557 4.051 2.995-1.54-6.165-4.711 0-3.17 6.165 3.533 4.604-1.665-1.31-3.787-4.31-5.593 4.235-3.288 1.092 2.432-3.316 2.706-4.273 2.706-16.339"/></svg>