<svg xmlns="http://www.w3.org/2000/svg" fill="none" viewBox="0 0 471 540"><path fill="#E1E1E1" d="M354.172 392.041l15.896-329.147C371.721 28.661 344.411 0 310.138 0H93C59.863 0 33 26.863 33 60v389.146h261.242c32.012 0 58.386-25.131 59.93-57.105z"/><path fill="#E1E1E1" d="M359 361c0-55.228-44.772-100-100-100H143c-60.751 0-110 49.249-110 110v168h326V361z"/><rect width="401.325" height="286.051" x="53.606" y="46.931" fill="#F5F5F5" rx="50"/><path stroke="#E1E1E1" stroke-dasharray="10 10" d="M89.94 157.005h302.794"/><path stroke="#24AD79" stroke-width="2" d="M372.241 129.714l-11.367 20.987-6.82-13.921-33.343 54.412-32.619-61.478-9.094 20.987-24.972-53.564-28.831 53.564-13.64-20.987-7.578 14.769-25.765-38.866-28.004 38.866-16.671-24.804-20.799 24.804-20.914-31.093"/><path stroke="#FB5756" stroke-width="2" d="M93.76 175.802l32.176 61.765 36.146-66.307 15.183 34.392 21.509-46.721 18.979 55.157 11.387-29.201 15.815 40.233 20.244-30.499 13.285 19.467 39.222-55.157L352.5 225.12l40.234-53.86"/><path fill="#FB5756" d="M317.706 158.931L352.5 225.12l40.234-53.86V272.5H93.76v-96.698l32.176 61.765 36.146-66.307 15.183 34.392 21.509-46.721 18.979 55.157 11.387-29.201 15.815 40.233 20.244-30.499 13.285 19.467 39.222-55.157z" opacity=".2"/><path stroke="#E1E1E1" stroke-width="4" d="M91.941 273h300.773"/><path fill="#E5B9B7" d="M150.998 424.609a11.883 11.883 0 013.926-2.596c4.139-.695 8.315-1.15 12.506-1.366 2.231 0 11.079 3.858 11.733 4.289.654.43 1.041 2.597-2.364 2.493-3.406-.104-25.801-2.82-25.801-2.82z"/><path fill="#FF8139" fill-rule="evenodd" d="M199.91 410.222a8.815 8.815 0 00.967-4.025c0-4.973-4.117-9.004-9.195-9.004-4.553 0-8.333 3.24-9.067 7.493l-13.584-4.347-14.691 45.902 44.84 14.351 4.441-13.877c-3.267-1.381-5.553-4.564-5.553-8.27 0-4.973 4.117-9.005 9.195-9.005.627 0 1.239.062 1.83.179l4.778-14.929-13.961-4.468z" clip-rule="evenodd"/><path fill="#E5B9B7" d="M218.534 315.427s1.278-.727 2.974-1.617a32.274 32.274 0 017.717-3.057c3.584-.564 12.358 1.707 15.243 2.3 2.885.594 8.149 1.9 8.149 1.9-.312 1.929 2.037 2.047 2.037 2.047-.193 1.38-2.052 1.365-3.569 1.484a15.848 15.848 0 01-3.613-.386c.025.794.325 1.554.847 2.152a2.985 2.985 0 01-1.606.386 23.092 23.092 0 00-10.409 2.463c-4.313 2.537-8.58 6.573-14.633 12.123a30.387 30.387 0 01-7.227 4.882h-.119l-.892.415a29.676 29.676 0 01-3.822 1.484c-.372.119-.743.208-1.1.297l10.023-26.873z"/><path fill="#F4EFEF" d="M160.205 526.19c-.457-27.359-10.793-42.148-15.743-70.646H36.505c-7.426 17.099-9.14 38.188-9.14 56.997 0 15.047 1.455.64 3.93 26.478h63.708c6.52-20.279 7.646-15.579 8.979 0h56.221c.023-4.095.047-6.994.071-8.973.163-13.55.313 16.059 0 0-.021-1.072-.044-2.349-.069-3.856z"/><path fill="#CFCDCD" d="M153.578 509.266l-2.28-13.683v-1.711h-20.525l-1.711-17.104H92.574v18.815l-65.566 1.14v12.543c31.015-8.21 60.054-8.362 70.697-7.412l-1.14-17.104c1.368.912 3.991 1.52 5.131 1.71h15.964c5.017 0 7.791-1.9 8.552-2.85l1.14 17.674c9.578 1.824 21.475 6.081 26.226 7.982z"/><g clip-path="url(#clip0)"><path fill="#CFCDCD" d="M31.04 539c-2.14-28.05 3.748-29.563 6.96-33l-10.707.825c-1.285 11.88 1.963 22.275 3.748 32.175z"/></g><path fill="#F4C7C3" d="M232.423 309.816c5.948-.104-.774-4.081-4.328-4.838-3.554-.756-11.48-1.869-13.978 1.484-2.498 3.354-21.369 30.093-24.313 31.324-2.945 1.232-18.539 18.683-18.539 18.683-33.25 3.799-10.388-4.613-18.002-7.982-7.613-3.368-9.106-27.213-20.735-39.425-11.629-12.212-10.855-24.899-20.685-22.109-11.331 3.205-11.168-.534-11.168-.534l-.951-1.707a72.382 72.382 0 01-4.7-18.934c4.938 1.054 4.551 1.395 9.101.164 26.768-7.316 1.978-78.912 1.978-78.912-7.36-19.527-56.419-3.947-62.59 6.975-5.948 10.505 2.677 26.516 2.677 26.516-6.127-.223-6.826 4.719-6.826 4.719-1.25 10.624 14.053 17.509 14.053 17.509l1.487 1.87c13.592 19.097 10.186 32.644 7.658 38.417-.565 1.201-5.353 4.006-10.26 3.917-6.246-.089-23.511.341-32.21 21.798-16.522 40.702-1.28 101.109 7.51 107.015 8.788 5.906 92.881 17.806 92.881 17.806l8.566 5.713 10.171 2.968c3.257 1.083 9.696 3.976 17.845 6.143 10.216 2.671 11.703 3.279 14.469 3.62 3.108.371 2.602.668 6.513 1.024 2.974.267 2.974-2.122 2.974-2.122l5.146 1.321c4.193-.282 2.468-5.06 2.468-5.06a3.18 3.18 0 002.008-2.274 3.162 3.162 0 00-.818-2.919c-.892-.727-8.923-5.327-10.618-6.411-1.695-1.083-8.402-4.822-8.402-4.822s9.741 2.626 10.291 3.368a97.705 97.705 0 008.803 6.544c1.77.89 3.51-1.974 2.379-3.472-1.13-1.499-7.673-7.835-10.662-9.141-2.989-1.306-8.164-5.208-10.588-6.321-2.424-1.113-2.974 1.068-9.948.875-6.974-.192-4.461-.089-5.547-.311-1.085-.223-2.662-.579-4.535-.95-2.117-.419-3.616-.271-5.339.401l-17.071-3.947h22.097c-1.888-44.486-5.442-67.797-5.442-67.797s-7.183 37.719 18.291 34.128c25.473-3.591 30.939-33.568 33.036-34.859.937-.578 3.45-2.062 6.349-4.229 13.8-1.825 9.86-13.933 18.336-13.933 9.8 0 11.748-.564 11.748-2.374 0-1.811-9.785-2.745-16.165-2.968 1.056-4.57 1.205-8.903 2.826-12.924 1.873-4.704 8.342-2.953 12.759-3.027z"/><path fill="#000" d="M108.022 264.221c6.111-6.055 2.528-23.089 3.702-29.217 1.175-6.129-9.011-11.619-8.773-27.244.178-11.663-7.168-24.098-10.915-29.677 6.706.846 12.015 3.561 14.067 9.007 0 0 22.187 63.984 1.919 77.131zM94.98 288.243c-2.156-1.988-5.68-23.742-5.68-23.742l5.68 1.484a72.256 72.256 0 004.699 18.934l.952 1.707s3.732 2.493 11.242 1.365l-1.666.564c-5.115 1.113-13.07 1.676-15.227-.312z" opacity=".1"/><path fill="#fff" d="M188.94 335.945l-10.263 6.841c-20.525 11.403-15.703 9.531-23.703 7.216-12.432-3.665-7.649-37.378-19.278-49.62-11.629-12.242-14.023-16.174-23.793-13.355-9.77 2.82-11.897-4.169-13.086-4.837.267 1.87-3.39 8.473-6.335 9.408l-2.171 7.953-7.436-7.939c-9.472-1.854-19.718-9.763-19.718-9.763-.58 1.202 1.487 7.82-9.294 5.119-6.053-1.484-25.057.326-33.756 21.783-18.157 44.738-6.529 95.5 7.51 107.015 8.178 6.707 92.881 17.806 92.881 17.806l.119 3.769 8.446 1.944c-.49-11.515 7.57-19.572 7.57-19.572l-8.045-1.914h22.097c-1.888-44.486-5.442-67.797-5.442-67.797s-7.183 37.719 18.29 34.128c17.325-2.448 23.126-15.117 31.678-26.52-7.316-6.811-6.271-21.665-6.271-21.665z"/><path fill="#000" d="M120.662 413.125l-4.774-31.963-4.461-29.795-1.68-11.263a67.24 67.24 0 00.595-18.77c-.908-9.052-.506-20.433-5.086-30.924 0 0 2.007 9.259 1.338 15.892-.416 4.17-3.524 16.723-1.487 26.413 2.037 9.689 5.428 12.108 4.774 25.418-.655 13.31-1.309 35.063 10.781 54.992z" opacity=".1"/><path fill="#F4EBEA" d="M125.864 438.445l-34.272-7.98 1.143 35.338h36.557l-3.428-27.358z"/><path fill="#DCD4D3" d="M125.553 438.569l3.988 27.937h-6.267c-2.279-3.421-2.848-10.833-2.279-15.394.57-4.561 1.709-9.692-8.545-10.832-8.204-.913-17.092-2.281-20.51-2.851l-1.71-6.842 1.71.571 33.613 7.411z"/><path fill="#000" d="M128.149 478.343l-.931-12.539H92.735l.49 12.539h34.924z"/><path stroke="#FFD300" stroke-width="3" d="M119.582 478.342v-12.539h-15.423v12.539h15.423z"/><path fill="#00181B" d="M8.197 308.578c5.71-16.708 23.08-22.51 31.437-23.267l23.568-3.492s8.922 35.345 26.187 58.879l2.647 57.796 37.801 19.29-.238.237a20.743 20.743 0 00-5.473 16.249l.119 3.769-3.524-.772s-51.58-5.716-78.064-11.711c-2.2-.504-9.122-2.381-9.122-2.381L8.197 412.226s-16.194-56.254 0-103.648z"/><path fill="#00181B" d="M185.519 335.374l-1.785 1.739c-7.337 5.673-17.726 13.631-25.339 10.262-7.614-3.368-9.197-26.709-15.175-42.497-4-10.55-8.223-21.457-24.313-23.059l-20.15.341a18.337 18.337 0 001.978 4.452l.298.178a20.28 20.28 0 003.494 1.127s8.551 26.502 5.235 52.202l11.063 74.059 9.012 3.606h20.819c-1.889-44.515-2.528-40.183-2.528-40.183s-15.207 20.658 10.267 17.067c14.499-2.047 25.339-13.683 34.083-33.368-2.29-3.754-8.357-17.171-6.959-25.926zM129.292 495.442l-3.999-56.997c1.714.38 5.941 1.368 9.14 2.28 3.998 1.14 7.996 2.28 10.852 3.42 2.285.911 7.045 2.659 9.14 3.419l5.712 47.878h-30.845zM93.877 497.152l-2.284-66.116-69.116-17.099 2.285 25.078-7.997 58.137h77.112z"/><path fill="#000" d="M86.355 349.334l-1.16-7.672-4.297 6.514a83.945 83.945 0 01-13.577-18.948 74.373 74.373 0 0013.517 20.773l4.238-6.439 1.28 5.772zM111.442 347.034l1.993-7.42 4.609 4.452s3.376-13.191 2.692-23.831a67.485 67.485 0 01-2.424 26.116l-4.461-4.57-2.409 5.253z"/><path fill="#594423" d="M119.562 241.147a38.504 38.504 0 00-3.346-9.378s-.163 4.555-4.461 3.234c-6.35-1.943-15.45-2.3-25.28 7.064-9.83 9.363-23.793-4.348-25.92-11.56-2.126-7.211-8.49-24.127-3.792-28.638 4.7-4.511 16.804 1.988 29.86-2.522 13.057-4.511 18.559-15.121 20.016-9.898a82.565 82.565 0 002.766 8.399s3.198-18.845-1.635-26.235c-4.833-7.389-13.934-6.306-21.875-3.413-7.94 2.894-16.61 1.484-20.819 1.484a24.31 24.31 0 00-10.691 3.071 24.254 24.254 0 00-8.195 7.509c-5.784 8.458-12.461 7.019-13.175 14.839-.714 7.82 10.305 22.806 13.175 25.552 1.934 1.825 6.945 10.95 11.347 20.506-.387 1.366-1.487 2.211-4.06 1.662a68.122 68.122 0 007.644 14.067c3.925 5.342 16.12 13.355 33.785 13.533 4.285.21 8.557-.604 12.462-2.374 12.625-6.069 13.904-20.24 12.194-26.902z"/><path fill="#3E2F1C" d="M75.633 257.454c-6.959-1.261-12.952-4.451-15.331-14.972-2.38-10.52-16.58-32.941-20.06-42.245-3.48-9.304 7.271-9.141 8.044-15.922.491-4.229 4.075-8.903 6.692-11.871a24.28 24.28 0 00-8.803 7.865c-5.785 8.458-12.462 7.018-13.175 14.838-.714 7.82 10.305 22.807 13.175 25.552 1.933 1.825 6.944 10.951 11.346 20.507-.386 1.365-1.487 2.211-4.06 1.662a68.148 68.148 0 007.644 14.067c3.926 5.342 16.12 13.354 33.786 13.532a29.576 29.576 0 007.435-.667c-11.733 1.558-19.748-11.085-26.692-12.346z"/><path fill="#674F2D" d="M59.737 170.456s6.825 5.935 19.332 4.882c4.431-.341 16.952-8.132 22.023-4.882 5.071 3.25 7.584 8.695 5.547 18.964a82.381 82.381 0 002.766 8.398s3.197-18.815-1.636-26.205c-4.833-7.389-13.934-6.306-21.875-3.413-7.94 2.894-16.61 1.484-20.819 1.484-1.806.021-3.6.28-5.338.772zM119.561 241.146a38.497 38.497 0 00-3.346-9.377s-.163 4.555-4.461 3.234a22.823 22.823 0 00-17.562 1.484c.46-.104 15.971-3.754 20.194 3.205 4.223 6.96 3.539 17.272-1.799 24.855 7.703-6.915 8.417-17.806 6.974-23.401z"/><path fill="#F4C7C3" d="M220.481 324.864c2.996.194 5.976.575 8.923 1.143 1.948.638 2.751 1.32 2.647 2.359-.104 1.039-2.186 1.84-4.833 1.781l-5.413-.119-1.324-5.164z"/><path fill="#E2BBA6" d="M231.051 375.149s12.329-1.659 22.197-13.93c0 0-2.461 10.317 10.699 22.133 9.116 8.158 2.006 51.618-1.834 59.288 0 0 36.371 35.836 95.577 7.135 0 0-14.87-54.118-15.952-84.716-1.334-34.745-5.356-57.083-17.525-89.885-12.169-32.803-15.052-50.903-13.4-68.173 1.652-17.271.82-44.312-29.626-50.846-30.446-6.533-34.047 29.269-34.047 29.269s-2.689 45.778 9.287 56.265c10.494 9.249 28.486-2.488 28.486-2.488s4.171 21.236-.661 28.735c0 0-6.665 7.624-23.13 14.18-17.195 6.817-19.952 56.81-29.068 65.968"/><path fill="#CEA999" d="M266.169 156.69c-1.219 7.442-3.167 19.395-4.968 31.178 1.14-11.101 3.248-23.395 4.706-31.087l.262-.091z"/><path fill="#CEA999" d="M247.163 185.47l14.038 2.397-.706 10.681c-.137 5.862 3.261 6.152 4.708 8.379 6.062 9.351 5.767-8.857 10.781-8.379 5.013.477 7.129 6.953 3.528 16.679-3.6 9.726 9.344 12.43 10.461 17.884 1.116 5.454 9.81 36.166 0 46.676l-15.03-4.545a45.397 45.397 0 009.298-7.261c4.831-7.499 1.432-18.816 1.432-18.816s-17.981 11.737-28.487 2.489a13.68 13.68 0 01-2.279-2.636c-5.982-8.374-7.607-39.551-7.778-44.108-.171-4.556.034-19.44.034-19.44z"/><path fill="#00181B" d="M274.371 199.55c-3.177 2.723-5.862 13.996-6.808 19.291 1.135-13.05-7.827-17.814-17.589-22.695-6.809-3.405-13.83-11.348-11.348-19.291 2.837-9.079 6.241-5.674 14.752-16.455 8.511-10.78 20.188-9.675 26.1-7.376 10.213 3.972 10.78 5.107 17.022 8.511 5.569 3.038 6.316 1.684 15.886 6.242 11.916 5.673 13.618 22.127 9.646 31.773-3.972 9.646-6.809 9.078-3.972 17.022 2.837 7.943 0 11.347-3.971 15.319-3.178 3.177-4.35 8.133-4.54 10.213-1.702-3.404-8.51-7.376-15.319-6.241-6.809 1.135-6.241-6.809-10.78-9.646-4.539-2.837-6.242-5.674-3.405-13.617 2.837-7.943-1.702-16.454-5.674-13.05z"/><path fill="#2B2B2B" d="M239.194 185.366c-1.135-2.27-2.496-8.057 1.135-13.05 4.539-6.241 6.241-2.27 11.915-10.213 5.674-7.944 11.915-12.483 24.397-10.213 12.483 2.269 15.32 9.078 27.235 12.482 11.607 3.317 18.907 7.172 20.325 23.104.07.486.101.922.101 1.294a54.54 54.54 0 00-.101-1.294c-.495-3.461-2.947-9.478-10.112-13.458-10.213-5.674-16.454-5.674-28.369-11.915-11.915-6.241-20.426-9.078-27.802 0-7.376 9.078-14.185 8.511-16.454 13.05-2.27 4.539-2.27 5.674-2.27 10.213z"/><path fill="#F4EFEF" d="M263.594 438.572S246.281 500.96 247.261 540h132.68s-1.17-31.224-6.276-51.65c-5.107-20.426-18.129-46.767-18.129-46.767s-50.534 25.894-91.942-3.011z"/><path fill="#CCD2DD" d="M219.903 335.723c-20.43 19.555-53.334 29.504-70.356 26.667v24.756c12.482 4.083 52.2 8.72 78.451-6.611 0 0 11.196-4.527 20.274-14.173v38.339s-1.259 61.916-1.259 76.864c0 0 79.689 39.572 124.512-5.819 0 0-2.305-31.424-5.431-81.752-2.858-46.021.195-92.314-28.742-115.009-10.446-8.193-17.138-17.359-17.138-17.359-2.944-1.401-14.645-2.046-37.899 6.578-5.58 7.837-15.886 8.511-25.532 15.32-23.83 16.821-21.133 37.133-36.88 52.199z"/><path fill="#000" d="M318.995 453.82c-.205 1.375-.399 2.715-.593 4.045.194-1.33.388-2.67.593-4.045zM319.154 452.775c0-.364.102-.727.159-1.136-.045.409-.113.772-.159 1.136z" opacity=".3"/><path fill="#E1E1E1" d="M318.474 518.421l4.693 21.561H311.82c2.269-10.213 5.932-19.102 6.654-21.561z"/><path fill="#C4C4C4" d="M318.628 518.421l4.539 21.561h9.079l-4.54-16.455 11.916-6.808c-5.447.908-16.265 1.513-20.994 1.702z"/><path fill="#B8BFCD" fill-rule="evenodd" d="M261.982 486.624c-8.949-13.095-6.668-55.012.473-74.788 5.765-15.965-.785-40.886-4.853-56.359-1.057-4.025-1.947-7.41-2.409-9.833-1.188-6.239-6.958-.244-15.377 8.503-7.417 7.705-16.889 17.546-27.095 23.042-15.505 8.349-45.415 7.299-62.852 5.262v3.738c12.482 4.083 52.199 8.72 78.45-6.611 0 0 11.197-4.527 20.275-14.173v38.339s-1.259 61.917-1.259 76.864c0 0 5.592 2.777 14.647 6.016z" clip-rule="evenodd"/><path fill="#FAFAFC" d="M149.111 387.602v-24.334a2 2 0 011.902-1.998l15.85-.782a2 2 0 012.099 1.997v28.163a2 2 0 01-2.378 1.964l-15.85-3.046a2 2 0 01-1.623-1.964z"/><ellipse cx="158.59" cy="366.807" fill="#FFD300" rx="2.333" ry="2.225"/><path fill="#CEA999" d="M126.968 349.38l-3.448 13.792-14.367-7.327-6.465-15.516 9.051-1.58 15.229 10.631z"/><path fill="#E2BBA6" d="M138.421 363.164c3.495 1.019 8.657 3.473 10.66 3.351v17.499c-13.796-5.707-32.969-14.009-42.345-25.709-7.5-9.359-10.08-20.902-8.45-26.826 8.238 10.37 23.673 27.064 23.673 25.753 0-1.638-.183-8.737-1.275-11.65-1.092-2.913-6.204-7.724-4.02-10.09 2.184-2.366 8.117 6.69 13.941 14.153 5.825 7.463 3.447 12.245 7.816 13.519z"/><path fill="#fff" d="M115.276 349.783l-41.267-25.588 60.688.001 37.563 19.084-56.984 6.503z"/><path stroke="#00181B" stroke-width=".3" d="M140.478 342.068c-.571.059-1.508-.074-.689-1.083 1.024-1.261 2.107-1.95 2.225-.808.095.914-.223 1.563-.394 1.773.473-1.011 1.442-2.805 1.536-1.891l.178 1.713c.472-1.011 1.441-2.804 1.536-1.891.118 1.142.689 1.083 1.831.965.914-.095 1.825-.959 2.167-1.379.4.151 1.544.417 2.914.275M98.376 335.692l23.777-.822m-15.537 4.939l21.958-1.573m-14.575 6.047l22.209-2.18"/><path fill="#FF8139" d="M138.756 332.503l-10.853.483 6.421 3.366 10.247-.735-5.815-3.114z"/><path stroke="#fff" stroke-width=".3" d="M132.65 333.529l-1.464.105 1.213.501c.488-.034 1.707-.004 2.677.397 1.213.502.962 1.108-.501 1.213M138.554 335.335c-.018.025-.062.055-.165.061a1.177 1.177 0 01-.403-.066c-.329-.102-.742-.317-1.154-.624-.413-.308-.737-.642-.929-.928a1.195 1.195 0 01-.178-.368c-.024-.099-.008-.15.011-.175.019-.025.063-.055.165-.061.101-.006.238.015.403.066.33.102.742.317 1.155.625.412.307.736.641.928.927.097.144.155.269.179.368.023.099.007.15-.012.175zM140.94 335.115c-.018.025-.063.055-.165.06a1.193 1.193 0 01-.403-.065c-.33-.103-.742-.318-1.154-.625-.413-.308-.737-.641-.929-.928a1.203 1.203 0 01-.178-.367c-.024-.1-.008-.151.011-.176.018-.025.062-.055.165-.061.101-.005.237.015.403.066.329.102.742.318 1.154.625.413.307.737.641.929.928.096.144.155.269.178.367.024.1.008.151-.011.176z"/><ellipse cx="98.053" cy="330.329" fill="#CCD2DD" rx="6.438" ry="1.714" transform="rotate(-3.772 98.053 330.329)"/><path fill="#E2BBA6" d="M120.934 346.937c.804 1.15.909 3.161.861 4.023l7.902-2.299c-5.746-6.321-13.217-9.625-13.792-8.045-.575 1.58 4.023 4.885 5.029 6.321z"/><defs><clipPath id="clip0"><path fill="#fff" d="M27 506h11v33H27z"/></clipPath></defs></svg>