<svg xmlns="http://www.w3.org/2000/svg" fill="none" viewBox="0 0 470 542"><path fill="#E1E1E1" d="M115.801 100c0-55.228 44.771-100 100-100h144c60.751 0 110 49.249 110 110v431h-354V100z"/><path fill="#D2D2D2" d="M385.783 524.429c30.275-30.181 69.493-94.367 83.612-121.518l-343.396-29.973-64.51 78.192c130.755 48.8 285.008 112.463 324.294 73.299z"/><path fill="#fff" d="M319.801 154h-204v7h204z"/><path fill="#C4C4C4" d="M238.801 88v64a2 2 0 01-2 2h-12a2 2 0 01-2-2V88a2 2 0 012-2h12a2 2 0 012 2z"/><circle r="3.5" fill="#fff" transform="matrix(-1 0 0 1 231.301 146.5)"/><path fill="#FF8139" d="M222.801 88v64a2 2 0 01-2 2h-12a2 2 0 01-2-2V88a2 2 0 012-2h12a2 2 0 012 2z"/><circle r="3.5" fill="#fff" transform="matrix(-1 0 0 1 215.301 146.5)"/><path fill="#FF8139" d="M172.801 88v64a2 2 0 01-2 2h-12a2 2 0 01-2-2V88a2 2 0 012-2h12a2 2 0 012 2z"/><circle r="3.5" fill="#fff" transform="matrix(-1 0 0 1 165.301 146.5)"/><path fill="#C4C4C4" d="M156.801 88v64a2 2 0 01-2 2h-12a2 2 0 01-2-2V88a2 2 0 012-2h12a2 2 0 012 2z"/><circle r="3.5" fill="#fff" transform="matrix(-1 0 0 1 149.301 146.5)"/><path fill="#666A6A" d="M183.986 98.094l6.85 1.444-11.549 54.796-6.85-1.444z"/><path fill="#C4C4C4" d="M191.207 98l6.927 1.008-8.066 55.416-6.927-1.008z"/><path fill="#666A6A" d="M198.834 98l6.967.674-5.395 55.74-6.967-.674z"/><path fill="#fff" d="M131.754 402.999l-3.266-75.604 341.313 75.604-55.641 39.269a99.998 99.998 0 01-83.941 14.785l-198.465-54.054z"/><path fill="#E1E1E1" d="M262.301 388c5.6-4.8 2.333-7.667 0-8.5-7.667 1.833-23.2 5.5-24 5.5-.8 0-49.933 14.9-72.933 20.733l-3.622 5.446 32.055 8.729v-5.846c7.5-2 40.5-19.062 47-19.062s14.5-1 21.5-7z"/><rect width="99" height="69" fill="#152D5D" rx="4" transform="matrix(-1 0 0 1 238.801 280)"/><rect width="95" height="66" fill="#152D5D" rx="4" transform="matrix(-1 0 0 1 236.801 282)"/><path fill="#152D5D" d="M257.801 360.5l-21.5-12h-95l19 12h97.5z"/><path fill="#fff" d="M257.801 358.5v2l-4-2h4z"/><path fill="#152D5D" d="M257.801 358.5l-21.5-12h-95l19 12h97.5z"/><path fill="#fff" d="M208.801 351.5l6.5 5h-23l-6-5h22.5zM214.301 350h-3.5l1 1h4l-1.5-1zM219.301 350h-3.5l1 1h4l-1.5-1zM224.301 350h-3.5l1 1h4l-1.5-1zM188.801 350h-4l1 1h4l-1-1zM183.801 350h-4l1 1h4l-1-1zM178.801 350h-4l1 1h4l-1-1zM173.801 350h-4l1 1h4l-1-1zM168.801 350h-4l1 1h4l-1-1zM163.801 350h-4l1 1h4l-1-1zM210.301 348h-3.5l1 1h4l-1.5-1zM205.301 348h-3.5l1 1h4l-1.5-1zM200.301 348h-3.5l1 1h4l-1.5-1zM195.301 348h-3.5l1 1h4l-1.5-1zM190.301 348h-3.5l1 1h4l-1.5-1zM215.301 348h-3.5l1 1h4l-1.5-1zM220.301 348h-3.5l1 1h4l-1.5-1zM185.801 348h-4l1 1h4l-1-1zM180.801 348h-4l1 1h4l-1-1zM175.801 348h-4l1 1h4l-1-1zM170.801 348h-4l1 1h4l-1-1zM165.801 348h-4l1 1h4l-1-1zM160.801 348h-4l1 1h4l-1-1zM190.944 351h14.857l-1.143-1h-14.857l1.143 1zM209.301 350h-3.5l1 1h4l-1.5-1z"/><path fill="#999696" d="M215.661 303.347a2.001 2.001 0 012.228-1.73l41.085 5.037a2 2 0 011.74 2.24l-8.438 65.591a2 2 0 01-2.227 1.73l-41.085-5.037a2 2 0 01-1.74-2.24l8.437-65.591z"/><path fill="#C4C4C4" d="M214.717 302.765a3 3 0 013.307-2.587l39.026 4.366a3 3 0 012.64 3.376l-8.548 64.357a3 3 0 01-3.308 2.586l-39.025-4.366a3 3 0 01-2.64-3.376l8.548-64.356z"/><path fill="#fff" d="M217.264 302.285l40.172 4.885-8.376 63.223-40.287-5.781 8.491-62.327z"/><path fill="#FFD300" d="M231.787 329.152c1.039.132 1.851.55 2.436 1.253.577.702.897 1.694.959 2.975l-5.041-.639-.216 1.702 5.207.661-.041.5-.077.608-.077.429-4.511-.572-.214 1.691 4.323.549c-.764 2.239-2.251 3.219-4.462 2.939-1.054-.134-2.105-.5-3.153-1.097l-.285 2.245c.909.572 2.004.939 3.287 1.102 1.776.225 3.283-.078 4.519-.91 1.229-.833 2.13-2.149 2.703-3.948l1.681.213.214-1.692-1.504-.191.074-.406.052-.409.069-.721 1.504.19.216-1.702-1.658-.211c-.046-1.885-.566-3.427-1.56-4.624-.994-1.197-2.383-1.909-4.166-2.135-1.474-.187-2.835-.03-4.082.471l.667 2.185c1.206-.416 2.251-.568 3.136-.456z"/><path fill="#E2BBA6" d="M235.801 368c-.919 2.144-4.5 5-7 6v17c8-1.5 8.5-1.5 11.5-1.5 8 0 10.5-1 16-3.5 3.053-1.388 7-4.5 7-6.5s-1.5-5-.5-7.5.5-5-1-7-3.5-4-3.5-7.5c0-2.8-1.5-5.5-3-7l-1.5 10.5c0 3.6-2.5 7.5-9 5.5-3.5-1.077-4-3.5-4-5.5 0-2.5 2.5-8.5 1-8.5s-3.5 2-4.5 6.5 0 5.5-1.5 9zM150.977 394.745s-10.865-1.462-19.56-12.276c0 0 2.169 9.092-9.429 19.505-8.033 7.189-1.767 45.488 1.617 52.246 0 0-32.052 31.58-84.226 6.288 0 0 13.104-47.69 14.058-74.654 1.174-30.619 4.719-50.304 15.443-79.211 10.724-28.906 13.264-44.856 11.809-60.076-1.456-15.219-.723-39.049 26.107-44.806 26.83-5.758 30.003 25.792 30.003 25.792s2.37 40.341-8.184 49.583c-9.248 8.15-25.103-2.193-25.103-2.193s-3.675 18.714.583 25.322c0 0 5.874 6.719 20.383 12.496 15.152 6.008 17.582 50.064 25.615 58.134"/><path fill="#CEA999" d="M120.029 202.23c1.075 6.559 2.792 17.092 4.378 27.475-1.004-9.782-2.861-20.616-4.147-27.394l-.231-.081z"/><path fill="#E2BBA6" d="M136.778 227.59l-12.371 2.113.623 9.411c.12 5.167-.292 9.312-1.567 11.275-5.342 8.24-7.47-11.014-11.889-10.594-4.418.421-6.476 5.447-3.303 14.018 3.173 8.571-8.234 10.954-9.218 15.76-.984 4.806-8.645 31.87 0 41.132l13.244-4.005a40.023 40.023 0 01-8.193-6.398c-4.258-6.608-.583-25.322-.583-25.322s15.845 10.343 25.103 2.193a12.028 12.028 0 002.009-2.323c5.271-7.38 6.024-26.113 6.175-30.128.151-4.016-.03-17.132-.03-17.132z"/><path fill="#F3D6C6" d="M130.801 254.5v-28l6.5 10.5c0 5.167-.5 18.1-2.5 28.5-2 10.4-9 14-12 14.5 7-5.5 8-18 8-25.5z"/><path fill="#2F2417" d="M114.726 240.516c2.8 2.4 5.167 12.333 6 17-1-11.5 6.898-15.699 15.5-20 6-3 12.188-10 10-17-2.5-8-5.5-5-13-14.5s-17.79-8.526-23-6.5c-9 3.5-9.5 4.5-15 7.5-4.908 2.677-5.567 1.484-14 5.5-10.5 5-12 19.5-8.5 28s6 8 3.5 15 0 10 3.5 13.5c2.8 2.8 3.833 7.166 4 9 1.5-3 7.5-6.5 13.5-5.5s5.5-6 9.5-8.5 5.5-5 3-12 1.5-14.5 5-11.5z"/><path fill="#4F3C27" d="M145.725 228.015c1-2 2.2-7.1-1-11.5-4-5.5-5.5-2-10.5-9s-10.5-11-21.5-9-13.329 6-23.829 9c-10.23 2.923-16.825 8.218-18.083 22.36a8.152 8.152 0 00-.088 1.14c.026-.386.055-.766.088-1.14.437-3.05 2.598-8.352 8.912-11.86 9-5 14.5-5 25-10.5s18-8 24.5 0 12.5 7.5 14.5 11.5 2 5 2 9z"/><path fill="#292289" d="M70.507 302.164s-4.8 4.005-9.128 16.02c-4.328 12.016 6.929-6.918 6.929-6.918l1.325-6.699.874-2.403z"/><path fill="#F4EFEF" d="M122.299 450.633s15.245 54.657 14.381 89.06H19.801s1-27.194 5.5-45.194c4.5-18 15.975-41.213 15.975-41.213s44.533 22.819 81.023-2.653z"/><path fill="#FF8139" d="M228.801 373.5c-15 2.5-47.996 5.732-66-11.5-13.877-13.277-13-36-31.384-49.5-9.429-6.5-23.786-11.557-28.616-15-23 2-24.77-.074-29.5-5-4 3.5-16.5 5-23.44 29.5-3.94 13.911-7.49 44.391-8.594 75-1.005 26.964 0 56.287 0 56.287 7.34 33.453 82.338.931 82.338.931C125.801 443 129.301 414 129.301 414l2.116-31.532c8.695 10.833 22.251 17.021 22.251 17.021 20.554 11.785 64.133-4.989 75.133-8.587V373.5z"/><path fill="#D3662F" d="M228.801 390.999v-5.5s-35 16.472-57.5 13.989c-7.5-.828-16.328-7.209-25.676-9.983-9.348-2.773-18.506-20.485-18.506-20.485-.803 18.373-12.883 21.266-20.233 36.245-5.452 11.115-1.526 40.472.864 54.89 9.348-3.124 15.855-5.938 15.855-5.938-2.952-7.85-9.62-45.057-1.617-52.246 11.598-10.413 9.429-19.504 9.429-19.504 8.695 10.833 22.251 17.021 22.251 17.021 20.555 11.815 64.633-4.989 75.133-8.489z"/><path fill="#000" d="M73.478 464.07c.181 1.212.352 2.393.523 3.565-.171-1.172-.342-2.353-.523-3.565zM73.337 463.15c0-.321-.09-.641-.14-1.002.04.361.1.681.14 1.002z" opacity=".3"/><path fill="#E1E1E1" d="M73.937 521l-4.136 19h10c-2-9-5.228-16.833-5.864-19z"/><path fill="#C4C4C4" d="M73.8 521l-4 19h-8l4-14.5-10.5-6c4.8.8 14.334 1.333 18.5 1.5z"/><path fill="#F4EFEF" d="M222.301 445.502c-11.2.4-54.667 6.166-75 9h47c16.8 5.6 22 27.833 22.5 36.499v50h48c-4.667-21.166-14.6-65.699-17-74.499-3-11-11.5-21.5-25.5-21z"/><path fill="#F4EFEF" d="M174.801 429.999l-29 5v19.5l58.5-7.5c-.4-17.6-19.834-18.667-29.5-17z"/><path fill="#152D5D" d="M110.916 355.449c-12.889-8.781-40.94-11.118-65.63-11.273C19.476 344.015-.2 365.729-.2 391.538v148.46l216.829 1c.129-4.311.309-20.599 0-47.261-.308-26.663-15.047-37.308-22.377-39.298h-48.227c.617-60.886-9.494-81.539-35.11-98.99z"/><ellipse fill="#152D5D" rx="24.5" ry="9" transform="matrix(-1 0 0 1 375.301 406)"/><ellipse fill="#152D5D" rx="24.5" ry="9" transform="matrix(-1 0 0 1 375.301 391)"/><path fill="#152D5D" d="M399.801 406v-15h-49v15h49z"/><ellipse fill="#152D5D" rx="4.5" ry="13" transform="scale(-1 1) rotate(-15.345 920.386 1435.344)"/><path stroke="#fff" stroke-width="5" d="M375.301 388.5v-63c-.167-6.833-5.7-22.3-26.5-29.5"/><path fill="#152D5D" d="M340.801 278l9.5 4-7 25-12-4c0-13 5-22 9.5-25z"/><path fill="#fff" d="M304.198 248.992l35.882 28.847c-7.848 8.375-9.08 20.238-8.714 25.123l-36.314-3.313c-7.317-28.143 3.048-45.497 9.146-50.657z"/><ellipse fill="#152D5D" rx="13.5" ry="7" transform="matrix(-1 0 0 1 314.301 371)"/><ellipse fill="#152D5D" rx="13.5" ry="6" transform="matrix(-1 0 0 1 314.301 348)"/><path fill="#152D5D" d="M327.801 371v-23h-27v23h27z"/><ellipse fill="#000" rx="11.5" ry="5" transform="matrix(-1 0 0 1 314.301 348)"/><path fill="#FF8139" d="M327.801 330l-4.5 21c-.8.8-2 1-2.5 1l5-22.5 2 .5z"/><path fill="#FFD300" d="M305.801 331.5l7.5 21.5c-1.6 0-3-.333-3.5-.5l-7-20 3-1z"/><ellipse fill="#FAFAFC" rx="1.486" ry="1.417" transform="matrix(-1 0 0 1 226.667 369.687)"/></svg>