<svg xmlns="http://www.w3.org/2000/svg" fill="none" viewBox="0 0 70 70"><path stroke="#00181B" stroke-linecap="round" stroke-linejoin="round" stroke-width="2.5" d="M28.172 34.443V14.301M54.89 34.443H3.829M59.344 52.48h4.453c2.375 0 4.453-2.103 4.453-4.508 0-7.516-5.938-13.529-13.36-13.529 0 0-6.53-20.443-24.64-20.443-13.063.3-27.61 8.117-28.5 33.971 0 1.203.297 2.406 1.188 3.307.89.902 2.078 1.504 3.265 1.504h3.79M50.437 52.48H19.266"/><path stroke="#FF8139" stroke-linecap="round" stroke-linejoin="round" stroke-width="2.5" d="M54.89 56.99c2.376 0 4.454-2.104 4.454-4.509 0-2.405-2.078-4.51-4.453-4.51-2.375 0-4.453 2.105-4.453 4.51s2.078 4.51 4.453 4.51zM14.813 56.99c2.374 0 4.453-2.104 4.453-4.509 0-2.405-2.078-4.51-4.453-4.51-2.376 0-4.454 2.105-4.454 4.51s2.079 4.51 4.454 4.51z"/></svg>