<svg width="23" height="23" viewBox="0 0 23 23" fill="none" xmlns="http://www.w3.org/2000/svg">
<path d="M7.63281 12.3014L9.14305 14.4447V14.4447C9.34172 14.7415 9.74335 14.821 10.0401 14.6223C10.0996 14.5825 10.152 14.5331 10.1953 14.4762L15.0299 8.35938" stroke="#65ED49" stroke-linecap="round" stroke-linejoin="round"/>
<mask id="path-3-inside-1" fill="white">
<path d="M19.2352 3.94058C23.531 8.23635 23.531 15.2012 19.2352 19.4969C14.9394 23.7927 7.97463 23.7927 3.67886 19.4969C-0.616911 15.2012 -0.616911 8.23635 3.67886 3.94058C7.97463 -0.355192 14.9394 -0.355192 19.2352 3.94058Z"/>
</mask>
<path d="M17.821 5.35479C21.3357 8.86951 21.3357 14.568 17.821 18.0827L20.6494 20.9111C25.7262 15.8343 25.7262 7.60318 20.6494 2.52636L17.821 5.35479ZM17.821 18.0827C14.3063 21.5974 8.60779 21.5974 5.09307 18.0827L2.26464 20.9111C7.34146 25.988 15.5726 25.988 20.6494 20.9111L17.821 18.0827ZM5.09307 18.0827C1.57835 14.568 1.57835 8.86951 5.09307 5.35479L2.26464 2.52636C-2.81217 7.60318 -2.81217 15.8343 2.26464 20.9111L5.09307 18.0827ZM5.09307 5.35479C8.60779 1.84007 14.3063 1.84007 17.821 5.35479L20.6494 2.52636C15.5726 -2.55045 7.34146 -2.55045 2.26464 2.52636L5.09307 5.35479Z" fill="#65ED49" mask="url(#path-3-inside-1)"/>
</svg>
