<svg width="23" height="23" viewBox="0 0 23 23" fill="none" xmlns="http://www.w3.org/2000/svg">
<path d="M14.3867 9.06641L9.08342 14.3697" stroke="#00181B" stroke-linecap="round" stroke-linejoin="round"/>
<path d="M9.08203 9.06641L14.3853 14.3697" stroke="#00181B" stroke-linecap="round" stroke-linejoin="round"/>
<mask id="path-4-inside-1" fill="white">
<path d="M19.5125 3.94058C23.8083 8.23635 23.8083 15.2012 19.5125 19.4969C15.2168 23.7927 8.25197 23.7927 3.9562 19.4969C-0.339567 15.2012 -0.339567 8.23635 3.9562 3.94058C8.25197 -0.355192 15.2168 -0.355192 19.5125 3.94058Z"/>
</mask>
<path d="M18.0983 5.35479C21.6131 8.86951 21.6131 14.568 18.0983 18.0827L20.9268 20.9111C26.0036 15.8343 26.0036 7.60318 20.9268 2.52636L18.0983 5.35479ZM18.0983 18.0827C14.5836 21.5974 8.88514 21.5974 5.37042 18.0827L2.54199 20.9111C7.61881 25.988 15.8499 25.988 20.9268 20.9111L18.0983 18.0827ZM5.37042 18.0827C1.85569 14.568 1.85569 8.86951 5.37042 5.35479L2.54199 2.52636C-2.53483 7.60318 -2.53483 15.8343 2.54199 20.9111L5.37042 18.0827ZM5.37042 5.35479C8.88514 1.84007 14.5836 1.84007 18.0983 5.35479L20.9268 2.52636C15.8499 -2.55045 7.61881 -2.55045 2.54199 2.52636L5.37042 5.35479Z" fill="#00181B" mask="url(#path-4-inside-1)"/>
</svg>
