<svg xmlns="http://www.w3.org/2000/svg" fill="none" viewBox="0 0 23 23"><path id="content" stroke-linecap="round" stroke-linejoin="round" stroke-width="2" d="M1.948 7.916l1.16 1.215a3.12 3.12 0 004.55 0l1.706-1.784a1.737 1.737 0 000-2.379l-3.317-3.47a1.56 1.56 0 00-2.275-.01 1.662 1.662 0 00-.152.181C.144 6.603 2.25 11.8 6.522 16.267c4.271 4.467 9.244 6.667 13.966 3.033.708-.561.847-1.616.31-2.356a1.68 1.68 0 00-.152-.181l-3.318-3.47a1.56 1.56 0 00-2.275 0l-1.707 1.784c-1.257 1.314-1.257 3.444 0 4.758l1.18 1.227"/></svg>