<svg xmlns="http://www.w3.org/2000/svg" fill="none" viewBox="0 0 190 26"><path fill="#65ED49" d="M10.823 24.015c.706 1.07 1.822 1.662 3.142 1.662 2.686 0 4.007-3.09 5.539-6.67l.039-.092.013-.032c1.432-3.364 3.203-7.525 5.337-7.093.318.045.637.113.751.933.296 2.481-2.095 6.92-3.802 7.717a1.887 1.887 0 00-.91 2.505 1.887 1.887 0 002.504.91c3.323-1.548 6.42-7.626 5.919-11.588-.296-2.253-1.662-3.779-3.78-4.166-5.076-.956-7.626 5.009-9.47 9.38-.592 1.411-1.548 3.665-2.186 4.371-.227-.592-.386-2.686 1.503-6.966 1.002-2.322 2.14-4.258 3.05-5.828.843-1.457 1.503-2.619 1.867-3.643.774-2.322-.318-3.529-1.047-4.03-.569-.41-1.525-.82-2.868-.523-3.643.774-7.467 6.397-9.425 9.653-.865 1.434-1.526 2.822-2.05 3.938a32.224 32.224 0 01-.887 1.776c0-1.161.523-3.665 2.504-7.536 1.73-3.346 3.192-4.602 3.285-4.7.462-.487 1.252-1.707.341-2.617-.91-.911-2.049-.612-2.556-.264-.28.192-2.254 1.685-4.394 5.874C.032 13.246.078 16.502.67 18.14c.364 1.025 1.07 1.776 2.026 2.186.66.296 2.39.728 3.893-1.093.637-.797 1.115-1.844 1.753-3.165.523-1.092 1.093-2.322 1.867-3.597 2.96-4.94 5.168-6.943 6.306-7.626a53.64 53.64 0 01-1.298 2.322c-.956 1.64-2.163 3.688-3.255 6.192-1.48 3.37-2.892 7.968-1.139 10.655z"/><path fill="#00181B" d="M59.78 10.985v9.27h-3.708v-8.41c0-.825-.197-1.47-.591-1.935-.394-.484-.932-.726-1.612-.726-.681 0-1.236.242-1.666.726-.412.466-.618 1.12-.618 1.961v8.384h-3.709V11.71c0-.788-.197-1.406-.59-1.854-.377-.448-.905-.672-1.586-.672-.68 0-1.236.242-1.666.726-.412.466-.618 1.11-.618 1.934v8.41h-3.708V6.203h3.628V7.84c.286-.556.743-1.021 1.37-1.397.645-.395 1.406-.592 2.284-.592 1.773 0 3.054.699 3.842 2.096.896-1.397 2.284-2.096 4.165-2.096 1.559 0 2.74.466 3.547 1.398.824.931 1.236 2.176 1.236 3.735zm4.127 7.55c-1.415-1.38-2.123-3.135-2.123-5.266 0-2.132.717-3.897 2.15-5.294 1.45-1.415 3.251-2.123 5.4-2.123 2.15 0 3.95.708 5.401 2.123 1.451 1.415 2.177 3.18 2.177 5.294 0 2.131-.717 3.887-2.15 5.266-1.415 1.38-3.224 2.07-5.427 2.07-2.186 0-3.995-.69-5.428-2.07zm1.585-5.266c0 1.182.358 2.158 1.075 2.928.735.753 1.657 1.129 2.768 1.129 1.128 0 2.05-.376 2.767-1.129.735-.77 1.102-1.746 1.102-2.928 0-1.2-.367-2.186-1.102-2.956-.734-.788-1.657-1.182-2.767-1.182-1.111 0-2.033.394-2.768 1.182-.716.77-1.075 1.755-1.075 2.956zm20.94-7.417c3.242 0 4.863 2.096 4.863 6.288v8.115h-3.708V11.71c0-.752-.233-1.361-.699-1.827a2.187 2.187 0 00-1.639-.699c-.752 0-1.361.251-1.827.753-.448.483-.672 1.11-.672 1.88v8.438h-3.708V6.202h3.628V7.84c.34-.538.842-1.003 1.504-1.397.663-.395 1.416-.592 2.258-.592zm6.894 7.417c0-2.132.645-3.897 1.934-5.294 1.308-1.415 2.956-2.123 4.944-2.123 2.15 0 3.825.672 5.025 2.016 1.2 1.325 1.8 3.152 1.8 5.481 0 .358-.008.627-.026.806h-9.889c.036.95.394 1.729 1.075 2.338.68.591 1.54.887 2.58.887 1.487 0 2.624-.573 3.412-1.72l2.445 1.854c-.394.717-1.092 1.415-2.095 2.096-1.004.663-2.275.994-3.816.994-2.221 0-4.013-.68-5.374-2.042-1.343-1.38-2.015-3.144-2.015-5.293zm3.896-1.532h6.046c-.036-.86-.332-1.55-.887-2.069-.555-.52-1.263-.78-2.123-.78-.86 0-1.558.27-2.096.807-.537.537-.85 1.218-.94 2.042zm17.238 13.998h-3.547l2.286-5.83-5.401-13.703h3.977l3.143 9.162 3.171-9.162h3.869l-7.498 19.533zm7.446-7.737l2.493-1.928c.717 1.014 1.71 1.521 2.978 1.521.586 0 1.054-.122 1.404-.367.358-.254.538-.595.538-1.023 0-.245-.105-.464-.315-.656a2.834 2.834 0 00-.814-.525 24.6 24.6 0 00-1.102-.46 12.427 12.427 0 01-1.207-.55 7.107 7.107 0 01-1.102-.735 3.186 3.186 0 01-.813-1.076 3.5 3.5 0 01-.315-1.509c0-.98.271-1.841.813-2.584a4.985 4.985 0 012.139-1.693c.883-.376 1.858-.564 2.926-.564.629 0 1.202.079 1.718.236.525.149.958.354 1.299.617a4.6 4.6 0 01.84.787c.219.271.394.56.525.866l-2.742 1.823c-.586-.892-1.356-1.338-2.31-1.338-.481 0-.879.118-1.193.355-.315.236-.473.537-.473.905 0 .254.105.48.315.682.21.201.481.372.814.512.341.14.712.28 1.115.42.411.14.818.31 1.22.511.411.201.783.438 1.115.709.341.262.617.612.827 1.05.21.428.315.922.315 1.482 0 1.015-.289 1.92-.866 2.716a5.365 5.365 0 01-2.257 1.81c-.936.412-1.964.617-3.083.617-1.269 0-2.309-.258-3.123-.774-.805-.516-1.364-1.128-1.679-1.837zm13.036-3.438c0-1.635.372-3.122 1.115-4.46.744-1.338 1.745-2.38 3.005-3.123a7.914 7.914 0 014.133-1.128c.56 0 1.076.07 1.548.21.481.14.875.319 1.181.538.306.218.547.415.721.59.184.175.324.341.42.499l.236-1.483h3.49l-3.363 19.532h-3.713l1.251-6.936c-.192.21-.459.437-.8.682-.333.245-.844.494-1.535.748a6.057 6.057 0 01-2.126.38c-1.723 0-3.083-.555-4.08-1.666-.989-1.111-1.483-2.572-1.483-4.382zm3.792-.59c0 1.006.271 1.82.813 2.44.543.613 1.273.919 2.192.919 1.215 0 2.243-.446 3.083-1.338.848-.901 1.272-2.069 1.272-3.503 0-.971-.262-1.771-.787-2.401-.525-.639-1.255-.958-2.191-.958-1.233 0-2.274.45-3.122 1.351-.84.901-1.26 2.064-1.26 3.49zm13.317 2.139c.017-.56.083-1.16.197-1.798l1.377-8.108h3.674l-1.417 8.541a3.15 3.15 0 00-.052.565c0 .507.14.931.419 1.272.377.464.888.695 1.535.695.761 0 1.413-.249 1.955-.747.543-.499.875-1.129.998-1.89l1.43-8.436h3.673l-2.335 14.052h-3.621l.262-1.64c-.42.542-.997 1.01-1.732 1.404a4.948 4.948 0 01-2.374.59c-.77 0-1.431-.122-1.982-.367-.542-.254-.953-.582-1.233-.984-.28-.403-.481-.888-.603-1.457a6.633 6.633 0 01-.171-1.482v-.21zm14.248 4.146l2.362-14.052h3.7l-2.362 14.052h-3.7zm2.546-17.148c0-.665.253-1.234.761-1.706a2.58 2.58 0 011.797-.708c.543 0 .984.175 1.325.524.35.342.525.775.525 1.3 0 .664-.258 1.237-.774 1.718a2.595 2.595 0 01-1.81.709c-.534 0-.971-.175-1.313-.525-.341-.35-.511-.787-.511-1.312zm4.356 11.375c0-1.6.345-3.061 1.036-4.382.691-1.321 1.649-2.357 2.874-3.11 1.233-.76 2.606-1.141 4.119-1.141.56 0 1.08.07 1.562.21.489.14.887.319 1.194.538.306.21.546.406.721.59.184.184.315.35.394.499l1.186-6.993H190l-3.312 19.562h-3.49l.236-1.456a4.872 4.872 0 01-.577.485 9.766 9.766 0 01-.918.577 5.508 5.508 0 01-1.352.538c-.516.14-1.054.21-1.613.21-1.759 0-3.162-.564-4.212-1.692-1.041-1.129-1.561-2.607-1.561-4.435zm3.791-.46c0 1.024.267 1.833.801 2.428.533.586 1.259.879 2.178.879 1.268 0 2.313-.477 3.135-1.43.831-.954 1.247-2.1 1.247-3.438 0-1.04-.276-1.854-.827-2.44-.542-.595-1.268-.892-2.178-.892-1.224 0-2.256.468-3.096 1.404-.84.936-1.26 2.099-1.26 3.49z"/></svg>