<svg xmlns="http://www.w3.org/2000/svg" fill="none" viewBox="0 0 472 542"><path fill="#fff" d="M300.02 254v286.5h106.979V192L300.02 254z"/><path fill="#E1E1E1" d="M317.016 265h14.997v23h-14.997zM347.012 265h14.997v23h-14.997zM377.004 265h14.997v23h-14.997zM317.016 305h14.997v23h-14.997zM347.012 305h14.997v23h-14.997zM377.004 305h14.997v23h-14.997zM317.016 345h14.997v23h-14.997zM347.012 345h14.997v23h-14.997zM377.004 345h14.997v23h-14.997zM317.016 385h14.997v23h-14.997zM347.012 385h14.997v23h-14.997zM377.004 385h14.997v23h-14.997z"/><path fill="#fff" d="M242.555 327.289l86.303 44.58v161.103h-86.303V327.289z"/><path fill="#FF8139" d="M316.727 401.624V397h-63.696v4.624h63.696z"/><path fill="#D3662F" fill-rule="evenodd" d="M269.085 401.089h47.442v-3.924l-47.442 3.924z" clip-rule="evenodd"/><path fill="#FF8139" d="M316.527 385.675v-4.624h-63.695v4.624h63.695z"/><path fill="#D3662F" fill-rule="evenodd" d="M256.885 385.624h59.842v-4.604l-59.842 4.604z" clip-rule="evenodd"/><path fill="#FF8139" d="M316.527 462.746v-4.624h-63.695v4.624h63.695z"/><path fill="#D3662F" fill-rule="evenodd" d="M254.95 462.624h61.777V458h-1.253l-60.524 4.624z" clip-rule="evenodd"/><path fill="#FF8139" d="M316.527 447.331v-4.623h-63.695v4.623h63.695z"/><path fill="#D3662F" fill-rule="evenodd" d="M263.768 447.624h52.959V443h-1.746l-51.213 4.624z" clip-rule="evenodd"/><path fill="#FF8139" d="M316.527 431.918v-4.625h-63.695v4.625h63.695z"/><path fill="#D3662F" fill-rule="evenodd" d="M260.494 431.624h56.233v-4.296l-56.233 4.296z" clip-rule="evenodd"/><path fill="#FF8139" d="M316.527 416.503v-4.624h-63.695v4.624h63.695z"/><path fill="#D3662F" fill-rule="evenodd" d="M266.464 416.624h50.263v-4.34l-50.263 4.34z" clip-rule="evenodd"/><rect width="120.563" height="8.41" fill="#152D5D" rx="4.205" transform="rotate(30.005 -470.082 596.387) skewX(.01)"/><rect width="142.863" height="8.41" fill="#152D5D" rx="4.205" transform="matrix(-.86598 .50007 .49993 .86607 411.426 181)"/><path fill="#24AD79" d="M243.144 464.867s19.771 0 19.771-18.484c0-18.485-12.464-23.643-9.885-37.184 2.579-13.541-7.737-26.867-21.923-18.7-14.186 8.167-3.193 36.181-8.166 44.708-4.973 8.526-6.443 30.951 20.203 29.66z"/><path fill="#179364" fill-rule="evenodd" d="M237.043 388.341c4.117 3.07 8.597 8.645 6.047 15.659-4 11-4.5 22 0 31 4.129 8.26 6.994 23.257-1.835 29.92.785.005 1.596-.012 2.436-.053 0 0 19.771 0 19.771-18.484 0-9.25-3.121-15.163-5.916-20.459-2.791-5.287-5.257-9.96-3.969-16.725 2.239-11.755-5.241-23.349-16.534-20.858z" clip-rule="evenodd"/><path fill="#fff" d="M239.762 451.073h2.817V483h-2.817z"/><path fill="#24AD79" d="M406.457 503.017s-24.439 0-24.439-22.849 15.406-29.225 12.219-45.963c-3.188-16.738 9.563-33.211 27.099-23.116 17.536 10.096 3.947 44.724 10.094 55.264 6.147 10.54 7.965 38.26-24.973 36.664z"/><path fill="#179364" fill-rule="evenodd" d="M410.555 408.003c4.438 3.815 7.876 10.557 5.39 21.497-4.999 22-1.5 31 2.999 39 4.473 7.953-2.417 36.657-33.927 23.735 6.561 10.782 21.373 10.782 21.373 10.782 32.939 1.596 31.121-26.124 24.974-36.664-2.339-4.01-1.821-11.506-1.247-19.812.935-13.525 2.017-29.197-8.847-35.452-3.84-2.211-7.451-3.147-10.715-3.086z" clip-rule="evenodd"/><path fill="#fff" d="M410.637 485.966h-3.481v39.465h3.481z"/><path fill="#152D5D" d="M280.384 480H92.074v61.032h378.927c-.172-11.113-9.23-20.032-20.344-20.032H422.24c-18.481 0-52.805-2.192-69.429-18.5-24.975-24.5-50.949-22.5-72.427-22.5z"/><path fill="#0C2048" d="M259.543 500c-3.599-13.2-14.83-18.5-19.996-19.5h8.498c7.999 2.8 14.664 13.167 16.997 18 25.495-5 33.494 15 34.993 24 1.2 7.2 8.832 14.667 12.498 17.5H273.04c-2.999-5.5-15.996-6.5-21.495-19-4.4-10 3.499-18.167 7.998-21zM158.562 540c-8.398-28.8-32.494-51.667-43.492-59.5h94.482c21.996 16 41.159 46.333 42.992 59.5h-93.982zM340.941 541.012c-8.158-29.2-30.708-53.345-40.906-61.012 31.172.996 43.487 12.052 56.959 24.664 9.105 8.524 28.467 12.795 34.05 13.766l32.816 3.07c8.255.5 23 1.871 28.65 3.5 12.14 3.5 18.953 11.881 18.468 15.881l-130.037.131z"/><path fill="#F4C7C3" d="M16.045 337.131c7.851-10.524 28.083-9.852 41.058-17.271 4.828-2.76 8.452-17.39 8.379-27.009-10.687-6.278-20.12-31.708-20.232-53.935-.137-27.432 13.362-49.46 33.833-49.563 20.471-.102 34.179 22.019 34.316 49.451.11 21.82-4.624 43.969-17.094 51.912.048 9.581 2.266 20.094 7.185 22.843 13.049 7.289 31.349 4.482 38.685 15.337 20.023 29.685 21.134 87.999 21.134 87.999L8.226 446.073s-18.143-69.632 7.82-108.942z"/><path fill="#000" d="M63.5 307c-1.6 7.6-4.5 12.5-9.5 13.5L68.5 331l26 1 15.5-16.5c-8-1.2-11.333-7.5-12-10.5-11.6 7.6-28 4.5-34.5 2z"/><path fill="#DCB3AF" d="M81.76 221.35c23.835-3.35 31.747 24.449 30.946 34.65 8.538-32.243-16.229-42.704-29.68-43.905l-37.745 8.155 1.04 33.666 3.572-25.714c17.582 1.648 23.701-6.852 31.867-6.852z"/><path fill="#000" d="M141.787 322.671c-13.321-5.386-23.508-5.522-37.772-9.181-.824 3.292-5.421 13.01-22.421 14.51-3.5 0-16.749.729-24.698-8.109-21.989 2.987-33.526 6.317-41.377 16.841-25.696 34.442-8.192 109.467-8.192 109.467l202.855-37.501s-33.63-71.967-68.395-86.027z"/><path fill="#000" d="M31.597 541L25.24 440.452l132.674-35.179L170.097 541h-138.5z"/><path fill="#E1E1E1" d="M123.463 470.244L113 491.366c13.021 9.857 23.251 6.454 26.739 4.107 1.744-3.52 5.813-11.148 6.975-14.081 1.163-2.934-1.55-3.818-2.325-4.209-4.069-2.347-13.02-7.291-16.276-8.699-3.255-1.408-4.069.587-4.65 1.76z"/><path fill="#4284B5" d="M128.052 470.273c-2.342-.944-3.708.786-4.098 1.769L114 492.09c11.242 7.547 20.298 6.29 23.421 4.717 1.756-3.341 5.621-10.731 7.026-13.562 1.405-2.83-.195-4.324-1.171-4.717-4.099-2.359-12.882-7.312-15.224-8.255z"/><path fill="#000" d="M.876 445.493c-.986-18.418-.23-63.719 1.72-71.993l55.75 15.471c-5 11.194-13.613 40.186-10.583 42.533 6.927 5.365 36.445 26.5 57.96 38.954l-8.844 25.322C27.029 475.456 8.854 455.492.876 445.493z"/><path fill="#00181B" d="M87.5 499c-17.6-8.4-47.667-24.5-60.5-31.5l.5 7.5L90 507v-12l-2.5 4z"/><path fill="#E2BBA6" d="M117 483c-2.901 0-9.279-1.191-13.308-3-8.703 3.859-12.088 13.266-12.692 17.487.604.603 2.297 2.533 4.23 5.428 2.418 3.618 9.604 13.319 14.27 14.585 6.648 1.804 17.762 3.505 22.597 1.696 3.868-1.447 3.627-3.819 3.022-4.824 2.901-2.412 2.418-5.427 1.813-6.633 2.901-2.895 2.418-5.628 1.813-6.633 1.934-2.895 1.209-5.227.605-6.031-7.253 4.824-20.738-2.829-25.372-6.045L117 483z"/><path fill="#000" d="M86.031 295.764c-3.558.802-7.248.82-10.814.054 0 0 5.211 5.229 10.814-.054z" opacity=".1"/><path fill="#2F2417" d="M81.578 215.91c23.019-4.41 32.105 15.511 31.063 39.594 4.756-12.617 20.956-45.004 4.956-53.004-5.384-2.692-11.296-1.705-19.718-6.3-6.782-3.7-10.89-11.181-23.282-11.2-12.998-.02-24.704 16.335-29.5 19.5-18.085 7.392-3.585 40.342 1.639 50.222l.627-8.011 3.004-22.418c11.284 1.783 24.038-7.009 31.21-8.383z"/><path fill="#6B4F2D" d="M116.096 211.001c6 4 5.167 18.666 4 25.499 13-37-4-34-16-37.5s-8-6.5-21-12.499c-10.4-4.8-21 1.999-25 5.999 4.834-3 17.1-6.3 27.5 4.5 13 13.5 23 9.001 30.5 14.001z"/><path fill="#142B5A" d="M205.094 295l-1.5 6.5h29.5V300l-28-5z"/><path fill="#C4C4C4" d="M259.094 139.913l-5.93-.915-26.247 170.14 5.93.915z"/><path fill="#E2BBA6" d="M237.094 293.5c3.6-1.2 6.166-4.166 7-5.5l-9.5-1-3 13 4.5 1 1-7.5z"/><path fill="#CBA895" d="M239.574 248.729c-2.115.869-10.598 9.107-14.575 13.117l1.75 23.642c3.836 2.107 12.017 5.995 14.046 4.687 2.536-1.637 8.588-2.815 8.388-6.773-.2-3.959 2.55-4.494 3.451-8.667.9-4.172-.965-4.951-1.393-7.152-.429-2.2 1.45-4.279-1.394-7.151-2.843-2.872-2.614-4.63-2.936-6.281-.321-1.65-4.694-6.508-7.337-5.422z"/><path fill="#E2BBA6" d="M216.573 285.621c.081 1.343-1.711 8.9-2.618 12.51l18.732 3.367 1.857-15.833c.678-1.163 1.969-4.61 1.7-9.085-.336-5.595-7.654-15.263-4.398-17.142 3.256-1.88 14.782 3.043 15.106-.907.324-3.95-3.033-3.749-4.745-4.207-1.712-.459-16.627-5.74-18.764-3.927-2.137 1.813-8.347 10.608-8.146 13.964.202 3.357 2.317 10.53.806 13.428-1.51 2.898.37 6.154.47 7.832z"/><path fill="#000" d="M159 416.5L206 293l33.5 5.5c-6.5 43.667-24.4 132.4-44 138-19.6 5.6-32.5-11-36.5-20z"/><path fill="#081B42" d="M340.224 175.507c37.007-19.545 83.017 2.208 93.756 14.493 7.93-79.504-32.216-131.127-56.997-147H161.798c-64.019 6.211-86.735 62.113-84.67 98.138 40.311-29.152 68.837-4.417 78.061 11.594 39.981-38.427 81.366-8.971 93.757 7.04 45.928-23.851 81.228-2.485 91.278 15.735z"/><path fill="#081B42" d="M149.501 24c-62.5 34.46-73.5 93.5-71.5 117l83.5-61 227.5-27.5c-35.5-38.5-147-79.5-239.5-28.5z"/></svg>