<svg width="115" height="100" viewBox="0 0 115 100" fill="none" xmlns="http://www.w3.org/2000/svg">
<path d="M41.3501 92.5973C44.1385 96.8581 48.5458 99.2151 53.7628 99.2151C64.3762 99.2151 69.595 86.9147 75.6453 72.6547L75.7998 72.2907L75.8534 72.1637C81.5107 58.7689 88.5089 42.1989 96.9373 43.9159C98.1965 44.0972 99.4558 44.3692 99.9055 47.6327C101.075 57.5141 91.6304 75.1917 84.8844 78.3646C81.1066 80.1777 79.5775 84.6197 81.2865 88.3365C83.0854 92.144 87.4928 93.6852 91.1807 91.9627C104.313 85.7982 116.546 61.5935 114.567 45.8196C113.398 36.8449 108.001 30.771 99.6357 29.2299C79.5775 25.4224 69.5035 49.1738 62.2178 66.5795C59.8792 72.2001 56.1014 81.1749 53.5829 83.9851C52.6834 81.6281 52.0538 73.2879 59.5194 56.2449C63.477 46.9981 67.9744 39.2925 71.5723 33.0374C74.9003 27.2355 77.5087 22.6121 78.9479 18.5327C82.0061 9.28592 77.6886 4.48123 74.8103 2.48683C72.5617 0.855055 68.7839 -0.776724 63.477 0.401783C49.0855 3.48403 33.9745 25.8757 26.239 38.8393C22.821 44.5505 20.2126 50.0804 18.1438 54.5225C17.0644 56.8795 15.7152 59.5991 14.6359 61.5935C14.6359 56.9701 16.7047 46.9981 24.53 31.5869C31.366 18.2607 37.1422 13.2624 37.5079 12.873C39.3323 10.9301 42.4549 6.07388 38.8571 2.44768C35.2592 -1.17852 30.7618 0.0122921 28.7575 1.39898C27.6527 2.16337 19.8528 8.10741 11.3978 24.7878C-1.28472 49.7178 -1.10483 62.6814 1.23379 69.2085C2.67294 73.2879 5.4613 76.2795 9.23906 77.9113C11.8475 79.0898 18.6835 80.8122 24.62 73.5599C27.1385 70.387 29.0274 66.2169 31.5459 60.9589C33.6147 56.6075 35.8633 51.7122 38.9215 46.6355C50.6146 26.9635 59.3395 18.9859 63.8368 16.2663C62.4876 18.8953 60.5088 22.4308 58.7098 25.5131C54.9321 32.0402 50.1649 40.1991 45.8474 50.1711C40.0009 63.5879 34.4242 81.9001 41.3501 92.5973Z" fill="#65ED49"/>
<path d="M58.7098 25.5131C54.9321 32.0402 50.1649 40.1991 45.8474 50.1711C45.8474 50.1711 44.4171 57.1077 49.4933 59.6458C54.5696 62.1839 59.5194 56.2449 59.5194 56.2449C63.477 46.9981 67.9744 39.2925 71.5723 33.0374C74.9003 27.2355 77.5087 22.6121 78.9479 18.5327C82.0061 9.28592 77.6886 4.48123 74.8103 2.48683C72.5617 0.855055 68.7839 -0.776724 63.477 0.401783C49.0855 3.48403 33.9745 25.8757 26.239 38.8393C22.821 44.5505 20.2126 50.0804 18.1438 54.5225C17.0644 56.8795 15.7152 59.5991 14.6359 61.5935C14.6359 56.9701 16.7047 46.9981 24.53 31.5869C31.366 18.2607 37.1422 13.2624 37.5079 12.873C39.3323 10.9301 42.4549 6.07388 38.8571 2.44768C35.2592 -1.17852 30.7618 0.0122921 28.7575 1.39898C27.6527 2.16337 19.8528 8.10741 11.3978 24.7878C-1.28472 49.7178 -1.10483 62.6814 1.23379 69.2085C2.67294 73.2879 5.4613 76.2795 9.23906 77.9113C11.8475 79.0898 18.6835 80.8122 24.62 73.5599C27.1385 70.387 29.0274 66.2169 31.5459 60.9589C33.6147 56.6075 35.8633 51.7122 38.9215 46.6355C50.6146 26.9635 59.3395 18.9859 63.8368 16.2663C62.4876 18.8953 60.5088 22.4308 58.7098 25.5131Z" fill="#65ED49"/>
</svg>
