<svg width="40" height="40" viewBox="0 0 40 40" fill="none" xmlns="http://www.w3.org/2000/svg">
<path d="M24.3126 16.0013C12.1568 17.3346 1.35156 13.5013 1.35156 8.66797C1.35156 4.5013 9.45546 1.16797 19.5853 1.16797C29.7152 1.16797 37.8191 4.5013 37.8191 8.66797C37.8191 10.668 35.962 12.5013 32.923 13.8346" stroke="#00181B" stroke-width="1.5" stroke-linecap="round" stroke-linejoin="round"/>
<path d="M37.8203 17.5013V8.66797" stroke="#00181B" stroke-width="1.5" stroke-linecap="round" stroke-linejoin="round"/>
<path d="M1.35156 8.66797V18.668C1.35156 22.668 8.78013 25.8346 18.2347 26.168" stroke="#00181B" stroke-width="1.5" stroke-linecap="round" stroke-linejoin="round"/>
<path d="M1.35156 18.668V28.668C1.35156 32.668 8.78013 35.8346 18.2347 36.168" stroke="#00181B" stroke-width="1.5" stroke-linecap="round" stroke-linejoin="round"/>
<path d="M23.1328 28.668C23.1328 27.3346 24.3146 26.168 25.6653 26.168H35.1198C36.4705 26.168 37.6523 27.3346 37.6523 28.668V36.168C37.6523 37.5013 36.4705 38.668 35.1198 38.668H25.6653C24.3146 38.668 23.1328 37.5013 23.1328 36.168V28.668V28.668Z" stroke="#FF8139" stroke-width="1.5" stroke-linecap="round" stroke-linejoin="round"/>
<path d="M30.3922 18.668C27.6909 18.668 25.4961 20.8346 25.4961 23.668V26.168H35.2883V23.668C35.2883 21.0013 33.0935 18.668 30.3922 18.668Z" stroke="#FF8139" stroke-width="1.5" stroke-linecap="round" stroke-linejoin="round"/>
<path d="M30.3902 32C30.0525 32 29.7148 32.3333 29.7148 32.6667C29.7148 33 30.0525 33.3333 30.3902 33.3333C30.7278 33.3333 31.0655 33 31.0655 32.6667C31.0655 32.3333 30.7278 32 30.3902 32Z" fill="#FF8139" stroke="#FF8139" stroke-width="1.5" stroke-linecap="round" stroke-linejoin="round"/>
</svg>
