<svg xmlns="http://www.w3.org/2000/svg" fill="none" viewBox="0 0 40 40"><path stroke="#00181B" stroke-linecap="round" stroke-linejoin="round" stroke-width="1.5" d="M19.977 25.047v7.141"/><path stroke="#FF8139" stroke-linecap="round" stroke-linejoin="round" stroke-width="1.5" d="M33.7 6.719h2.482c.926 0 1.737.884 1.737 1.894v4.672c0 6.819-6.004 8.276-9.126 8.276M6.296 6.719H3.814c-.926 0-1.737.884-1.737 1.894v4.672c0 6.819 6.004 8.276 9.126 8.276"/><path stroke="#00181B" stroke-linecap="round" stroke-linejoin="round" stroke-width="1.5" d="M27.447 39.041c-1.167-3.63-4.084-6.049-7.468-6.049-3.383 0-6.3 2.42-7.467 6.049h14.935zM7.387 39.25h25.18M13.854 2.64l8.71.075 8.711.074c1.089 0 2.042 1.039 2.042 2.226v5.49c0 8.014-5.989 14.544-13.338 14.544-7.35 0-13.338-6.53-13.338-14.543v-5.64c0-1.187.952-2.225 2.041-2.225h5.172z"/></svg>