<svg xmlns="http://www.w3.org/2000/svg" fill="none" viewBox="0 0 40 40"><path stroke="#FF8139" stroke-linecap="round" stroke-linejoin="round" stroke-width="1.5" d="M35.557 17.777H22.738M32.436 22.715h-9.698M38.609 32.597c-6.815 0-12.34-5.525-12.34-12.34 0-6.815 5.525-12.339 12.34-12.339"/><path stroke="#00181B" stroke-width="1.5" d="M17.329 20.52c0 3.417-.896 6.476-2.306 8.658-1.414 2.19-3.279 3.412-5.226 3.412s-3.811-1.223-5.226-3.412c-1.41-2.182-2.305-5.24-2.305-8.658 0-3.418.896-6.477 2.305-8.659 1.415-2.19 3.28-3.412 5.226-3.412 1.947 0 3.812 1.223 5.226 3.412 1.41 2.182 2.306 5.241 2.306 8.659z"/></svg>