<svg xmlns="http://www.w3.org/2000/svg" fill="none" viewBox="0 0 40 40"><path stroke="#00181B" stroke-linecap="round" stroke-linejoin="round" stroke-width="1.5" d="M13 5.5c2.667 2.833 6.5 4.5 10.333 4.5 2 0 4-.333 5.667-1.167"/><path stroke="#00181B" stroke-linecap="round" stroke-linejoin="round" stroke-width="1.5" d="M20.497 18.665c4.834 0 8.667-4 8.667-8.666 0-4.667-4-8.667-8.667-8.667-4.833 0-8.833 3.833-8.833 8.667 0 4.833 4 8.666 8.833 8.666zm-16.165 20c0-9 7.333-16.333 16.333-16.333 9 0 16.334 7.333 16.334 16.333"/><path fill="#FF8139" d="M23.907 36.544l-2.057-9.802a1.11 1.11 0 001.025-.916l.298-1.758c.154-.911-.56-1.736-1.494-1.736h-3.357c-.935 0-1.648.826-1.494 1.736l.297 1.76a1.11 1.11 0 001.026.914l-2.058 9.802a.546.546 0 00.183.566l3.365 2.76a.565.565 0 00.719 0l3.365-2.76a.546.546 0 00.182-.566zm-5.585-13.108h3.357c.243 0 .427.215.387.45l-.298 1.759h-3.536l-.298-1.759a.388.388 0 01.387-.45zM20 38.728l-2.73-2.24 2.04-9.74h1.381l2.04 9.74-2.73 2.24z"/></svg>