<svg xmlns="http://www.w3.org/2000/svg" fill="none" viewBox="0 0 40 40"><path stroke="#00181B" stroke-linecap="round" stroke-linejoin="round" stroke-width="1.5" d="M24.313 16.001c-12.156 1.334-22.961-2.5-22.961-7.333 0-4.167 8.103-7.5 18.233-7.5s18.234 3.333 18.234 7.5c0 2-1.857 3.833-4.896 5.167M37.82 17.501V8.668"/><path stroke="#00181B" stroke-linecap="round" stroke-linejoin="round" stroke-width="1.5" d="M1.352 8.668v10c0 4 7.428 7.167 16.883 7.5"/><path stroke="#00181B" stroke-linecap="round" stroke-linejoin="round" stroke-width="1.5" d="M1.352 18.668v10c0 4 7.428 7.167 16.883 7.5"/><path stroke="#FF8139" stroke-linecap="round" stroke-linejoin="round" stroke-width="1.5" d="M23.133 28.668c0-1.333 1.182-2.5 2.532-2.5h9.455c1.35 0 2.532 1.167 2.532 2.5v7.5c0 1.333-1.181 2.5-2.532 2.5h-9.455c-1.35 0-2.532-1.167-2.532-2.5v-7.5 0zM30.392 18.668c-2.701 0-4.896 2.167-4.896 5v2.5h9.792v-2.5c0-2.667-2.194-5-4.896-5z"/><path fill="#FF8139" stroke="#FF8139" stroke-linecap="round" stroke-linejoin="round" stroke-width="1.5" d="M30.39 32c-.338 0-.675.333-.675.667 0 .333.337.666.675.666s.675-.333.675-.666c0-.334-.337-.667-.675-.667z"/></svg>