<svg xmlns="http://www.w3.org/2000/svg" width="151" height="151" fill="none" viewBox="0 0 151 151"><g fill-rule="evenodd" clip-path="url(#clip0)" clip-rule="evenodd"><path fill="#76777A" d="M41.338 85.848l.68-4.752h1.172l-.68 4.752h-1.172zm3.518 0l.68-4.752h1.172l-.556 3.888h1.914l-.123.864h-3.087zm5.062 0l.678-4.752h3.025l-.125.802h-1.85l-.186 1.11h1.79l-.123.803h-1.79l-.124 1.235h1.851l-.06.802h-3.086zm7.714-2.469l-.185 1.112h-2.161l.124-1.112h2.222zm1.543 2.47l.678-4.753h1.975c1.42 0 2.284.988 2.099 2.407-.185 1.357-1.297 2.345-2.654 2.345h-2.098zm1.296-.865h.679c.864 0 1.481-.617 1.666-1.543.123-.926-.37-1.543-1.234-1.543h-.679l-.432 3.086zm5.06.864l.679-4.752h3.024l-.123.802H67.26l-.123 1.11h1.79l-.124.803h-1.79l-.185 1.235h1.914l-.124.802h-3.086zm9.381 0l.68-4.752h2.961l-.122.802h-1.728l-.186 1.11h1.666l-.123.803h-1.666l-.31 2.037h-1.172zm4.691 0l.679-4.752h2.037c.865 0 1.358.493 1.233 1.296-.061.555-.37.926-.864 1.112.124.061.186.124.309.247.186.245.247.493.555 1.296l.308.802h-1.173l-.245-.494c-.372-1.049-.495-1.296-.62-1.42-.121-.06-.245-.123-.43-.123h-.372l-.307 2.037h-1.11zm1.542-2.716h.433c.431 0 .74-.245.803-.678.061-.432-.124-.68-.619-.68h-.431l-.186 1.358zm3.766 2.716l2.407-4.752h1.048l1.174 4.752h-1.112l-.246-1.111h-1.606l-.493 1.111h-1.172zm1.974-1.852h1.173l-.371-1.728-.802 1.728zm4.135 1.852l.679-4.752h.987l1.79 2.962c.062.124.062.124.062.31l.493-3.272h1.112l-.679 4.752h-.987l-1.79-2.961c-.062-.124-.062-.124-.062-.248l-.493 3.21H91.02zm10.492-.31c-.74.31-1.05.372-1.666.372-1.42 0-2.345-.987-2.16-2.406.246-1.42 1.481-2.47 2.901-2.47.617 0 .864.062 1.48.37l-.122.926c-.495-.307-.742-.37-1.235-.37-.926 0-1.666.618-1.79 1.544-.184.864.433 1.48 1.359 1.48.431 0 .74-.061 1.357-.371l-.124.926zm1.976.31l.74-4.752h3.024l-.124.802h-1.852l-.184 1.11h1.789l-.122.803h-1.791l-.185 1.235h1.914l-.124.802h-3.085zm9.133 0l.68-4.752h1.912c.988 0 1.543.493 1.419 1.42-.123.802-.864 1.418-1.789 1.418h-.74l-.309 1.914h-1.173zm1.544-2.654h.493c.431 0 .802-.307.864-.679.062-.431-.186-.678-.617-.678h-.495l-.245 1.357zm8.949 2.654l.74-4.752h2.036c.864 0 1.357.493 1.233 1.296-.06.555-.431.926-.924 1.112.185.061.245.124.307.247.186.245.309.493.617 1.296l.247.802h-1.171l-.186-.494c-.371-1.049-.493-1.296-.679-1.42-.061-.06-.185-.123-.371-.123h-.37l-.309 2.037h-1.17zm1.543-2.716h.492c.432 0 .741-.245.803-.678.062-.432-.124-.68-.617-.68h-.433l-.245 1.358zm4.195 2.716l.68-4.752h1.171l-.678 4.752h-1.173zm3.333-.31l.124-.925c.493.371.74.494 1.05.494.431 0 .74-.247.803-.617 0-.247-.124-.433-.433-.618l-.493-.308c-.433-.309-.679-.74-.555-1.234.062-.74.803-1.296 1.729-1.296.431 0 .679.061 1.11.37l-.124 1.05c-.37-.432-.617-.617-.986-.617-.309 0-.68.247-.68.554-.062.247.061.495.433.679l.431.309c.556.309.74.678.678 1.173-.122.8-.924 1.357-1.85 1.357-.435.001-.681-.06-1.237-.37zm-58.94-2.159l-.184 1.112H70.9l.124-1.112h2.22zm43.634 2.47l2.469-4.753h1.05l1.172 4.752h-1.172l-.186-1.111h-1.604l-.555 1.111h-1.174zm2.038-1.853h1.171l-.369-1.728-.802 1.728zm-72.195-7.61h-1.79l1.017-7.521h1.768l-.995 7.521zm8.372-5.539c-.729-.418-1.223-.641-1.742-.641-.448 0-.785.267-.785.629 0 .32.23.627.934 1.149 1.088.805 1.422 1.48 1.422 2.269 0 .67-.234 1.292-.695 1.723-.468.438-.902.684-1.75.684-1.134 0-2.054-.373-2.636-.76l.367-1.564c.281.177.424.29.777.47.49.25.78.368 1.215.368.653 0 .907-.393.907-.729 0-.37-.309-.77-1.103-1.386-.54-.418-1.242-1.025-1.242-2.172 0-1.052.953-2.171 2.496-2.171.825 0 1.703.399 2.059.603l-.224 1.528zm-21.39-.32a4.515 4.515 0 00-1.312-.158c-1.903 0-3.161 1.069-3.161 2.682 0 1.152.622 1.943 1.866 1.943 1.024 0 1.892-.523 2.402-.85l-.287 1.98a4.923 4.923 0 01-2.242.543c-2.356 0-3.591-1.465-3.591-3.53 0-2.685 1.853-4.485 4.95-4.485.658 0 .95.043 1.65.218l-.274 1.656zm8.478 5.874h-1.82l-.228-1.353h-2.13l-.598 1.353h-1.833l3.417-7.538h1.808l1.384 7.538zm-2.192-2.72c-.221-.724-.354-2.772-.354-2.772s-.764 2.151-1.11 2.771h1.464zm22.728-2.835c-.729-.419-1.223-.642-1.742-.642-.447 0-.784.267-.784.629 0 .32.23.627.934 1.15 1.088.804 1.423 1.48 1.423 2.267 0 .672-.234 1.292-.696 1.724-.468.44-.902.683-1.75.683-1.134 0-2.054-.371-2.636-.759l.366-1.563c.281.176.424.288.778.469.488.249.78.37 1.215.37.653 0 .906-.393.906-.731 0-.37-.309-.77-1.103-1.386-.54-.418-1.242-1.024-1.242-2.172 0-1.052.953-2.171 2.495-2.171.825 0 1.704.399 2.06.603l-.224 1.529zm8.328-.427H68.07l-.18 1.31h2.732l-.217 1.592h-2.73l-.202 1.508h3.62l-.225 1.57h-5.414l1.024-7.544h4.772l-.204 1.564zm24.568 0H92.64l-.182 1.31h2.732l-.217 1.593h-2.73l-.201 1.507h3.618l-.224 1.57h-5.414l1.024-7.543h4.771l-.203 1.564zm54.586 0h-2.974l-.182 1.309h2.733l-.217 1.593h-2.732l-.202 1.506h3.62l-.223 1.573h-5.415l1.024-7.545h4.772l-.204 1.564zm-38.138 5.98h-1.82l-.228-1.353h-2.133l-.596 1.354h-1.834l3.418-7.54h1.808l1.385 7.54zm-2.191-2.722c-.222-.723-.354-2.77-.354-2.77s-.764 2.15-1.112 2.77h1.466zM80.33 68.863c1.544 0 1.881.121 2.481.428 1.147.585 1.796 1.727 1.796 3.223 0 1.231-.304 2.035-.923 2.742-.628.718-1.795 1.12-2.49 1.132l-1.205.008-2.45-.012 1.016-7.521h1.775zm-.806 5.972h.816c.52 0 1.37-.112 1.83-.634.393-.446.586-.9.586-1.682 0-.717-.265-1.212-.52-1.445-.382-.35-.752-.558-1.59-.558h-.507l-.615 4.32zm7.605-5.984l-.939 1.993h1.086l2.014-1.993h-2.16zm14.167.005h.769c1.308 0 2.455.846 2.455 2.22 0 .871-.498 2.5-2.514 2.499h-1.127l-.385 2.813h-1.812l1.031-7.532h1.583zm-.233 3.368h.245c.396 0 .593-.037.801-.14.232-.114.552-.383.555-.841.001-.268-.067-.459-.248-.623-.225-.204-.422-.274-.902-.274h-.19l-.261 1.878zm16.443-3.365h.681c1.728 0 2.328 1.294 2.328 2.214 0 .708-.333 1.33-.745 1.614a2.74 2.74 0 01-.673.359l-.048.015c.435.24.753.776 1.044 1.398l.952 1.934h-1.996l-.743-1.573c-.477-1.01-.63-1.273-.998-1.435a.754.754 0 00-.339-.077h-.115l-.407 3.085h-1.762l1.011-7.534h1.81zm-.478 3.167h.371c.445 0 .713-.053.865-.143.296-.175.453-.481.453-.737a.818.818 0 00-.248-.572c-.175-.17-.51-.275-.994-.275h-.214l-.233 1.727zm13.619-1.464c-.751-.143-1.013-.207-1.694-.207-2.909 0-3.665 1.645-3.665 2.612 0 1.328 1.033 2.047 2.419 2.047.377 0 .51-.035.635-.07l.17-1.201h-1.468l.2-1.418h3.192l-.557 4.026a11.11 11.11 0 01-2.172.222c-1.546 0-2.505-.379-3.296-1.126-.675-.64-.956-1.386-.956-2.425 0-2.525 2.026-4.316 5.28-4.316.871 0 1.682.083 2.145.26l-.233 1.596zm5.45 2.257l-.444 3.565h-1.73l.999-7.52h1.702l1.857 3.353.757 1.58.134-1.47.453-3.463h1.732l-1.012 7.52h-1.691l-1.759-3.309-.85-1.77-.148 1.514z"/><path fill="#CC2131" d="M23 86V63H0v23h23z"/><path fill="#fff" d="M12.84 78.153h5.38l-.684 1.094h-5.38l.683-1.094zm-3.893 4.665h9.57l-.685 1.096H8.263l.684-1.096zM15.53 72.79l.715-.446 1.683 2.698-2.284 1.427-.444-.712 1.572-.985-1.242-1.982zM1.673 74.707h7.343l-.684 1.095H.988l.685-1.095z"/><path fill="#fff" d="M14.83 74.667a.69.69 0 100-1.38.69.69 0 000 1.38zm-11.942-1.91h7.342l-.683 1.096H2.203l.685-1.096zm1.217-1.968h7.343l-.684 1.096H3.42l.685-1.096z"/><path fill="#fff" d="M19.573 63.633c-6.41 3.18-15.721 6.864-15.721 14.376 0 2.799 1.608 4.844 3.225 5.615l8.276-13.242-.643-1.024-7.921 12.677c-.819-.603-1.862-2.172-1.862-4.268 0-5.79 7.325-9.611 13.647-12.527l1-1.607z"/><path fill="#CC2131" d="M27.727 78.152H150.03l-.663 1.055H27.063l.664-1.055z"/></g><defs><clipPath id="clip0"><path fill="#fff" d="M0 0h150.625v150.625H0V0z"/></clipPath></defs></svg>