<svg xmlns="http://www.w3.org/2000/svg" width="151" height="151" fill="none" viewBox="0 0 151 151"><path fill="#272E80" d="M32.492 38h92.923v74.503H32.492V38z"/><path fill="#272E80" d="M25 38h100.417v74.503H25V38z"/><path stroke="#272E80" stroke-width=".374" d="M60.702 46.512c-11.445 3.532-19.518 15.463-19.518 26.351 0 17.49 14.522 26.178 31.427 26.178 14.813 0 25.037-7.935 30.556-15.811"/><path stroke="#272E80" stroke-width=".374" d="M103.167 83.23c-5.461 7.876-15.743 15.81-30.556 15.81-16.963 0-31.427-8.746-31.427-26.178 0-10.888 8.074-22.819 19.518-26.351"/><path stroke="#272E80" stroke-width=".374" d="M103.167 83.23c-5.461 7.876-15.743 15.81-30.556 15.81-16.963 0-31.427-8.746-31.427-26.178 0-10.888 8.074-22.819 19.518-26.351"/><path stroke="#272E7F" stroke-width=".374" d="M103.168 83.23c-5.461 7.876-15.743 15.753-30.499 15.753-16.962 0-31.427-8.745-31.427-26.178 0-10.83 8.075-22.818 19.46-26.293"/><path stroke="#272E7F" stroke-width=".374" d="M103.168 83.23c-5.461 7.876-15.802 15.753-30.499 15.753-16.904 0-31.427-8.745-31.427-26.178 0-10.83 8.075-22.76 19.46-26.293"/><path stroke="#272E7F" stroke-width=".374" d="M103.168 83.23c-5.461 7.876-15.802 15.753-30.499 15.753-16.904 0-31.427-8.745-31.427-26.178 0-10.83 8.017-22.76 19.46-26.293"/><path stroke="#272E7F" stroke-width=".374" d="M103.168 83.23c-5.461 7.876-15.802 15.753-30.499 15.753-16.904 0-31.427-8.745-31.427-26.178 0-10.83 8.017-22.76 19.403-26.293"/><path stroke="#272D7F" stroke-width=".374" d="M103.168 83.23c-5.461 7.877-15.802 15.754-30.499 15.754-16.904 0-31.427-8.745-31.427-26.178 0-10.83 8.017-22.76 19.403-26.236"/><path stroke="#272D7F" stroke-width=".374" d="M103.168 83.23c-5.461 7.876-15.802 15.695-30.499 15.695-16.904 0-31.427-8.803-31.427-26.177 0-10.831 8.017-22.704 19.403-26.236"/><path stroke="#262D7E" stroke-width=".374" d="M103.168 83.23c-5.46 7.876-15.801 15.695-30.44 15.695-16.963 0-31.427-8.745-31.427-26.177 0-10.831 8.016-22.704 19.402-26.236"/><path stroke="#262D7E" stroke-width=".374" d="M103.168 83.23c-5.52 7.877-15.801 15.696-30.44 15.696-16.963 0-31.427-8.803-31.427-26.177 0-10.831 8.016-22.704 19.345-26.179"/><path stroke="#262D7E" stroke-width=".374" d="M103.168 83.23c-5.52 7.877-15.801 15.696-30.44 15.696-16.904 0-31.427-8.803-31.427-26.177 0-10.831 8.016-22.704 19.345-26.179"/><path stroke="#262D7E" stroke-width=".374" d="M103.168 83.23c-5.52 7.877-15.801 15.696-30.44 15.696-16.904 0-31.427-8.803-31.427-26.177 0-10.831 8.016-22.645 19.345-26.179"/><path stroke="#262D7E" stroke-width=".374" d="M103.168 83.23c-5.519 7.82-15.8 15.639-30.44 15.639-16.904.057-31.369-8.804-31.369-26.12 0-10.831 8.017-22.645 19.287-26.179"/><path stroke="#262D7D" stroke-width=".374" d="M103.168 83.231c-5.519 7.819-15.8 15.638-30.44 15.638-16.904 0-31.369-8.804-31.369-26.12 0-10.772 8.017-22.645 19.287-26.12"/><path stroke="#262D7D" stroke-width=".374" d="M103.168 83.23c-5.519 7.82-15.8 15.639-30.381 15.639-16.905 0-31.428-8.804-31.428-26.179 0-10.772 7.959-22.645 19.287-26.12"/><path stroke="#262D7D" stroke-width=".374" d="M103.168 83.23c-5.519 7.82-15.8 15.639-30.381 15.639-16.905 0-31.428-8.862-31.428-26.179 0-10.772 7.959-22.586 19.228-26.12"/><path stroke="#262D7D" stroke-width=".374" d="M103.168 83.227c-5.519 7.82-15.8 15.638-30.381 15.638-16.905 0-31.369-8.861-31.369-26.12 0-10.772 7.958-22.587 19.228-26.12"/><path stroke="#262D7D" stroke-width=".374" d="M103.168 83.227c-5.519 7.82-15.8 15.58-30.381 15.58-16.905 0-31.369-8.862-31.369-26.12 0-10.773 7.958-22.587 19.228-26.062"/><path stroke="#262C7D" stroke-width=".374" d="M103.168 83.227c-5.519 7.82-15.8 15.58-30.381 15.58-16.905 0-31.369-8.862-31.369-26.12 0-10.773 7.958-22.587 19.17-26.062"/><path stroke="#262C7C" stroke-width=".374" d="M103.168 83.227c-5.519 7.82-15.8 15.58-30.381 15.58-16.905 0-31.369-8.862-31.369-26.12 0-10.773 7.958-22.53 19.17-26.062"/><path stroke="#262C7C" stroke-width=".374" d="M103.165 83.231c-5.519 7.819-15.859 15.58-30.324 15.58-16.904 0-31.368-8.862-31.368-26.12 0-10.773 7.958-22.53 19.17-26.062"/><path stroke="#262C7C" stroke-width=".374" d="M103.165 83.228c-5.519 7.819-15.859 15.58-30.324 15.58-16.904 0-31.368-8.862-31.368-26.12 0-10.773 7.958-22.53 19.17-26.004"/><path stroke="#262C7C" stroke-width=".374" d="M103.165 83.228C97.646 91.047 87.306 98.75 72.841 98.75c-16.904 0-31.368-8.862-31.368-26.12 0-10.715 7.958-22.472 19.111-26.005"/><path stroke="#262C7C" stroke-width=".374" d="M103.165 83.228C97.646 91.047 87.306 98.75 72.841 98.75c-16.904 0-31.368-8.862-31.368-26.12 0-10.715 7.958-22.472 19.111-26.005"/><path stroke="#252C7C" stroke-width=".374" d="M103.165 83.228C97.646 91.047 87.306 98.75 72.841 98.75c-16.904 0-31.368-8.92-31.368-26.12.058-10.715 7.958-22.472 19.111-26.005"/><path stroke="#252C7B" stroke-width=".374" d="M103.165 83.228C97.646 90.989 87.306 98.75 72.841 98.75c-16.904 0-31.368-8.92-31.368-26.12.058-10.715 7.958-22.472 19.111-26.005"/><path stroke="#252C7B" stroke-width=".374" d="M103.166 83.228C97.646 90.99 87.306 98.75 72.9 98.75c-16.904 0-31.369-8.919-31.369-26.12 0-10.772 7.9-22.471 19.053-25.946"/><path stroke="#252C7B" stroke-width=".374" d="M103.166 83.228c-5.52 7.761-15.86 15.464-30.266 15.464-16.904 0-31.369-8.92-31.369-26.12 0-10.715 7.9-22.413 19.053-25.888"/><path stroke="#252C7B" stroke-width=".374" d="M103.166 83.228c-5.52 7.761-15.86 15.464-30.266 15.464-16.904 0-31.369-8.92-31.369-26.12 0-10.715 7.958-22.413 19.053-25.888"/><path stroke="#252C7B" stroke-width=".374" d="M103.166 83.228c-5.52 7.761-15.86 15.464-30.266 15.464-16.904 0-31.369-8.92-31.369-26.12.059-10.715 7.958-22.413 19.053-25.888"/><path stroke="#252C7A" stroke-width=".374" d="M103.166 83.228c-5.52 7.761-15.86 15.464-30.266 15.464-16.904 0-31.369-8.92-31.369-26.12.059-10.715 7.958-22.413 19.053-25.888"/><path stroke="#252B7A" stroke-width=".374" d="M103.166 83.228c-5.519 7.761-15.86 15.464-30.207 15.464-16.905 0-31.37-8.92-31.37-26.12 0-10.715 7.9-22.413 18.996-25.888"/><path stroke="#252B7A" stroke-width=".374" d="M103.166 83.231c-5.519 7.761-15.86 15.406-30.207 15.406-16.905 0-31.37-8.977-31.37-26.12 0-10.714 7.9-22.355 18.938-25.888"/><path stroke="#252B7A" stroke-width=".374" d="M103.166 83.231c-5.519 7.762-15.86 15.406-30.207 15.406-16.905 0-31.37-8.977-31.37-26.12 0-10.714 7.9-22.355 18.938-25.83"/><path stroke="#252B7A" stroke-width=".374" d="M103.166 83.231c-5.519 7.762-15.86 15.406-30.207 15.406-16.905 0-31.37-8.977-31.37-26.12 0-10.656 7.9-22.355 18.938-25.83"/><path stroke="#252B7A" stroke-width=".374" d="M103.167 83.231c-5.52 7.762-15.86 15.406-30.207 15.406-16.905 0-31.312-8.977-31.312-26.12 0-10.656 7.843-22.297 18.88-25.83"/><path stroke="#252B79" stroke-width=".374" d="M103.167 83.228c-5.52 7.762-15.86 15.406-30.207 15.406-16.905 0-31.312-8.977-31.312-26.062 0-10.657 7.843-22.297 18.88-25.83"/><path stroke="#252B79" stroke-width=".374" d="M103.167 83.228c-5.519 7.762-15.86 15.348-30.15 15.348-16.904 0-31.31-8.977-31.31-26.062 0-10.656 7.842-22.297 18.88-25.772"/><path stroke="#252B79" stroke-width=".374" d="M103.225 83.228c-5.518 7.703-15.916 15.348-30.149 15.348-16.904 0-31.31-8.977-31.31-26.062 0-10.656 7.841-22.297 18.82-25.772"/><path stroke="#252B79" stroke-width=".374" d="M103.225 83.228c-5.518 7.703-15.916 15.348-30.149 15.348-16.904 0-31.31-8.977-31.31-26.062 0-10.656 7.841-22.24 18.82-25.772"/><path stroke="#242B79" stroke-width=".374" d="M103.225 83.228c-5.518 7.703-15.916 15.348-30.149 15.348-16.904 0-31.31-9.034-31.31-26.062 0-10.656 7.841-22.24 18.82-25.772"/><path stroke="#242B78" stroke-width=".374" d="M103.225 83.23c-5.518 7.702-15.916 15.347-30.149 15.347-16.904 0-31.31-9.034-31.31-26.062 0-10.656 7.841-22.24 18.763-25.714"/><path stroke="#242B78" stroke-width=".374" d="M103.225 83.228a36.975 36.975 0 01-30.149 15.29c-16.904 0-31.31-9.035-31.31-26.061 0-10.657 7.841-22.24 18.763-25.715"/><path stroke="#242A78" stroke-width=".374" d="M103.226 83.228c-5.518 7.703-15.916 15.29-30.09 15.29-16.847 0-31.312-9.035-31.312-26.061 0-10.657 7.842-22.183 18.764-25.715"/><path stroke="#242A78" stroke-width=".374" d="M103.226 83.228c-5.518 7.703-15.916 15.29-30.09 15.29-16.847 0-31.312-9.035-31.312-26.061 0-10.6 7.842-22.183 18.706-25.715"/><path stroke="#242A78" stroke-width=".374" d="M103.226 83.23c-5.518 7.702-15.916 15.29-30.09 15.29-16.847 0-31.312-9.036-31.312-26.062 0-10.6 7.784-22.183 18.706-25.657"/><path stroke="#242A78" stroke-width=".374" d="M103.226 83.23c-5.518 7.702-15.916 15.29-30.09 15.29-16.847 0-31.312-9.036-31.312-26.062 0-10.6 7.784-22.183 18.706-25.657"/><path stroke="#242A77" stroke-width=".374" d="M103.226 83.228c-5.518 7.703-15.916 15.233-30.09 15.233-16.847 0-31.312-9.035-31.312-26.063 0-10.598 7.784-22.124 18.706-25.656"/><path stroke="#242A77" stroke-width=".374" d="M103.226 83.228c-5.518 7.703-15.916 15.233-30.09 15.233-16.847 0-31.312-9.035-31.312-26.063 0-10.598 7.784-22.124 18.647-25.656"/><path stroke="#242A77" stroke-width=".374" d="M103.226 83.23a36.876 36.876 0 01-30.033 15.232c-16.846 0-31.31-9.094-31.31-26.063 0-10.599 7.784-22.124 18.647-25.598"/><path stroke="#242A77" stroke-width=".374" d="M103.226 83.23a36.876 36.876 0 01-30.033 15.232c-16.846 0-31.31-9.094-31.31-26.063 0-10.599 7.784-22.124 18.589-25.598"/><path stroke="#242A77" stroke-width=".374" d="M103.226 83.23c-5.518 7.644-15.916 15.232-30.033 15.232-16.846 0-31.31-9.094-31.31-26.063 0-10.599 7.784-22.066 18.589-25.598"/><path stroke="#242A76" stroke-width=".374" d="M103.226 83.228a36.996 36.996 0 01-30.033 15.174c-16.846 0-31.31-9.092-31.31-26.061 0-10.6 7.784-22.066 18.589-25.599"/><path stroke="#242A76" stroke-width=".374" d="M103.226 83.23a36.996 36.996 0 01-30.033 15.173c-16.846 0-31.31-9.092-31.31-26.061 0-10.6 7.784-22.066 18.589-25.541"/><path stroke="#242A76" stroke-width=".374" d="M103.223 83.23A36.998 36.998 0 0173.19 98.402c-16.846 0-31.252-9.092-31.252-26.061 0-10.6 7.783-22.066 18.53-25.541"/><path stroke="#242A76" stroke-width=".374" d="M103.224 83.23c-5.519 7.645-15.917 15.174-29.975 15.174-16.846 0-31.253-9.092-31.253-26.004 0-10.54 7.784-22.066 18.531-25.54"/><path stroke="#232976" stroke-width=".374" d="M103.224 83.23c-5.519 7.645-15.975 15.174-29.975 15.174-16.846 0-31.253-9.092-31.253-26.004 0-10.54 7.726-22.007 18.531-25.54"/><path stroke="#232976" stroke-width=".374" d="M103.224 83.23c-5.519 7.645-15.975 15.117-29.975 15.117-16.846 0-31.253-9.151-31.253-26.005 0-10.54 7.726-22.008 18.473-25.483"/><path stroke="#232975" stroke-width=".374" d="M103.224 83.23c-5.519 7.645-15.975 15.117-29.975 15.117-16.846 0-31.253-9.151-31.253-26.005 0-10.54 7.726-22.008 18.473-25.483"/><path stroke="#232975" stroke-width=".374" d="M103.224 83.23c-5.519 7.645-15.975 15.117-29.975 15.117-16.846 0-31.253-9.151-31.253-26.005 0-10.54 7.726-22.008 18.473-25.483"/><path stroke="#232975" stroke-width=".374" d="M103.224 83.23c-5.519 7.645-15.975 15.117-29.975 15.117-16.846 0-31.253-9.151-31.253-26.005 0-10.54 7.726-21.95 18.473-25.483"/><path stroke="#232975" stroke-width=".374" d="M103.224 83.23c-5.518 7.645-15.974 15.117-29.916 15.117-16.847 0-31.253-9.151-31.253-26.005-.058-10.598 7.668-22.008 18.414-25.483"/><path stroke="#232975" stroke-width=".374" d="M103.224 83.23c-5.518 7.645-15.975 15.06-29.916 15.06-16.847 0-31.253-9.151-31.253-26.005 0-10.54 7.668-21.949 18.414-25.425"/><path stroke="#232975" stroke-width=".374" d="M103.224 83.23c-5.518 7.645-15.975 15.06-29.916 15.06-16.847 0-31.253-9.151-31.253-26.005 0-10.54 7.725-21.949 18.414-25.425"/><path stroke="#232974" stroke-width=".374" d="M103.224 83.23c-5.518 7.587-15.975 15.06-29.916 15.06-16.847 0-31.253-9.151-31.253-26.005 0-10.54 7.725-21.891 18.356-25.425"/><path stroke="#232974" stroke-width=".374" d="M103.224 83.23c-5.518 7.587-15.975 15.06-29.916 15.06-16.847 0-31.253-9.152-31.253-26.006 0-10.482 7.725-21.891 18.356-25.366"/><path stroke="#232974" stroke-width=".374" d="M103.224 83.23c-5.518 7.587-15.975 15.06-29.916 15.06-16.847 0-31.253-9.21-31.253-26.006 0-10.482 7.668-21.891 18.356-25.366"/><path stroke="#232974" stroke-width=".374" d="M103.224 83.23c-5.518 7.587-15.974 15-29.859 15-16.845 0-31.252-9.208-31.252-26.003 0-10.483 7.668-21.893 18.299-25.368"/><path stroke="#232874" stroke-width=".374" d="M103.224 83.23c-5.518 7.587-15.974 15-29.859 15-16.845 0-31.252-9.208-31.252-26.003 0-10.482 7.668-21.834 18.299-25.309"/><path stroke="#232873" stroke-width=".374" d="M103.224 83.23c-5.518 7.587-15.974 15-29.859 15-16.845 0-31.252-9.208-31.252-26.003 0-10.482 7.668-21.834 18.299-25.309"/><path stroke="#232873" stroke-width=".374" d="M103.224 83.23c-5.518 7.587-15.974 15-29.859 15-16.845 0-31.252-9.208-31.252-26.003 0-10.482 7.668-21.834 18.24-25.309"/><path stroke="#232873" stroke-width=".374" d="M103.224 83.23c-5.518 7.587-15.974 15-29.859 15-16.845 0-31.252-9.208-31.252-26.003 0-10.482 7.668-21.834 18.24-25.309"/><path stroke="#222873" stroke-width=".374" d="M103.224 83.23c-5.518 7.587-15.974 14.943-29.859 14.943-16.845 0-31.252-9.208-31.252-26.005 0-10.482 7.668-21.775 18.24-25.25"/><path stroke="#222873" stroke-width=".374" d="M103.225 83.23c-5.518 7.587-15.974 14.943-29.8 14.943-16.846 0-31.194-9.208-31.194-26.005 0-10.482 7.667-21.775 18.24-25.25"/><path stroke="#222873" stroke-width=".374" d="M103.225 83.23c-5.518 7.587-16.032 14.943-29.8 14.943-16.846 0-31.194-9.267-31.194-26.005 0-10.482 7.667-21.775 18.182-25.25"/><path stroke="#222872" stroke-width=".374" d="M103.225 83.231c-5.518 7.588-16.032 14.943-29.8 14.943-16.846 0-31.194-9.267-31.194-25.946 0-10.482 7.667-21.776 18.182-25.251"/><path stroke="#222872" stroke-width=".374" d="M103.225 83.228c-5.518 7.587-16.032 14.943-29.8 14.943-16.846 0-31.194-9.267-31.194-25.947 0-10.424 7.61-21.718 18.182-25.193"/><path stroke="#222872" stroke-width=".374" d="M103.225 83.231c-5.518 7.53-16.032 14.885-29.8 14.885-16.846 0-31.194-9.266-31.194-25.947 0-10.423 7.61-21.717 18.124-25.192"/><path stroke="#222872" stroke-width=".374" d="M103.225 83.231c-5.518 7.53-16.032 14.885-29.8 14.885-16.846 0-31.194-9.266-31.194-25.947 0-10.423 7.61-21.717 18.124-25.192"/><path stroke="#222872" stroke-width=".374" d="M103.226 83.231c-5.519 7.53-16.033 14.885-29.743 14.885-16.846 0-31.194-9.266-31.194-25.947 0-10.423 7.61-21.717 18.124-25.192"/><path stroke="#222871" stroke-width=".374" d="M103.226 83.228c-5.519 7.53-16.033 14.884-29.743 14.884-16.846 0-31.194-9.266-31.194-25.946 0-10.424 7.61-21.66 18.066-25.135"/><path stroke="#222771" stroke-width=".374" d="M103.226 83.228c-5.519 7.53-16.033 14.884-29.743 14.884-16.846 0-31.194-9.266-31.194-25.946 0-10.424 7.61-21.66 18.066-25.135"/><path stroke="#222771" stroke-width=".374" d="M103.226 83.23c-5.519 7.53-16.033 14.828-29.743 14.828-16.846 0-31.194-9.324-31.194-25.946 0-10.425 7.61-21.66 18.066-25.135"/><path stroke="#222771" stroke-width=".374" d="M103.226 83.23c-5.519 7.53-16.033 14.828-29.743 14.828-16.788 0-31.194-9.324-31.194-25.946 0-10.425 7.61-21.66 18.008-25.135"/><path stroke="#222771" stroke-width=".374" d="M103.226 83.231c-5.519 7.53-16.033 14.828-29.743 14.828-16.788 0-31.194-9.325-31.194-25.947 0-10.424 7.61-21.602 18.008-25.077"/><path stroke="#222771" stroke-width=".374" d="M103.223 83.231C97.704 90.761 87.19 98.06 73.538 98.06c-16.787 0-31.194-9.325-31.194-25.947 0-10.424 7.61-21.602 18.008-25.077"/><path stroke="#222770" stroke-width=".374" d="M103.223 83.231C97.704 90.761 87.19 98.06 73.538 98.06c-16.787 0-31.194-9.325-31.194-25.947 0-10.367 7.61-21.602 18.008-25.077"/><path stroke="#222770" stroke-width=".374" d="M103.223 83.231c-5.519 7.53-16.033 14.77-29.685 14.77-16.787 0-31.194-9.325-31.194-25.947 0-10.367 7.552-21.602 17.95-25.077"/><path stroke="#212770" stroke-width=".374" d="M103.223 83.228c-5.519 7.53-16.033 14.77-29.685 14.77-16.787 0-31.194-9.325-31.194-25.947 0-10.367 7.552-21.545 17.95-25.02"/><path stroke="#212770" stroke-width=".374" d="M103.223 83.228c-5.519 7.53-16.033 14.77-29.685 14.77-16.787 0-31.194-9.325-31.194-25.947 0-10.367 7.552-21.545 17.95-25.02"/><path stroke="#212770" stroke-width=".374" d="M103.223 83.174c-5.519 7.47-16.033 14.768-29.685 14.768-16.787 0-31.194-9.324-31.194-25.946 0-10.366 7.552-21.544 17.892-25.02"/><path stroke="#21276F" stroke-width=".374" d="M103.224 83.17c-5.518 7.472-16.09 14.77-29.626 14.77-16.788 0-31.137-9.325-31.137-25.889 0-10.367 7.552-21.545 17.892-25.02"/><path stroke="#21276F" stroke-width=".374" d="M103.224 83.17c-5.518 7.471-16.09 14.711-29.626 14.711-16.788.058-31.137-9.325-31.137-25.888 0-10.367 7.552-21.487 17.892-24.962"/><path stroke="#21266F" stroke-width=".374" d="M103.224 83.17c-5.518 7.471-16.09 14.711-29.626 14.711-16.788.058-31.137-9.325-31.137-25.888 0-10.367 7.552-21.487 17.834-24.962"/><path stroke="#21266F" stroke-width=".374" d="M103.224 83.17c-5.518 7.471-16.09 14.711-29.626 14.711-16.788.058-31.137-9.325-31.137-25.888 0-10.367 7.552-21.487 17.834-24.962"/><path stroke="#21266F" stroke-width=".374" d="M103.282 83.17c-5.518 7.471-16.09 14.711-29.626 14.711-16.788 0-31.195-9.382-31.195-25.888 0-10.367 7.552-21.487 17.834-24.962"/><path stroke="#21266F" stroke-width=".374" d="M103.283 83.171c-5.519 7.471-16.092 14.71-29.627 14.71-16.788 0-31.137-9.381-31.137-25.887 0-10.367 7.553-21.43 17.834-24.904"/><path stroke="#21266E" stroke-width=".374" d="M103.283 83.17c-5.519 7.471-16.091 14.653-29.568 14.653-16.788 0-31.137-9.382-31.137-25.888 0-10.309 7.494-21.43 17.776-24.904"/><path stroke="#21266E" stroke-width=".374" d="M103.283 83.17c-5.519 7.471-16.091 14.653-29.568 14.653-16.788 0-31.137-9.382-31.137-25.888 0-10.309 7.494-21.43 17.776-24.904"/><path stroke="#21266E" stroke-width=".374" d="M103.283 83.17c-5.519 7.471-16.091 14.653-29.568 14.653-16.788 0-31.137-9.44-31.137-25.888 0-10.309 7.494-21.43 17.776-24.904"/><path stroke="#21266E" stroke-width=".374" d="M103.283 83.171c-5.519 7.471-16.091 14.653-29.568 14.653-16.788 0-31.137-9.44-31.137-25.888 0-10.31 7.494-21.371 17.717-24.846"/><path stroke="#21266E" stroke-width=".374" d="M103.283 83.171c-5.519 7.471-16.091 14.653-29.568 14.653-16.788 0-31.137-9.44-31.137-25.888 0-10.31 7.494-21.371 17.717-24.846"/><path stroke="#21266E" stroke-width=".374" d="M103.283 83.17c-5.519 7.471-16.091 14.595-29.568 14.595-16.788 0-31.137-9.44-31.137-25.888 0-10.31 7.494-21.371 17.717-24.846"/><path stroke="#21266D" stroke-width=".374" d="M103.284 83.17c-5.519 7.414-16.091 14.595-29.51 14.595-16.789 0-31.137-9.44-31.137-25.888 0-10.31 7.493-21.371 17.66-24.846"/><path stroke="#20266D" stroke-width=".374" d="M103.284 83.171c-5.519 7.413-16.091 14.595-29.51 14.595-16.789 0-31.137-9.44-31.137-25.888 0-10.31 7.493-21.313 17.66-24.788"/><path stroke="#20266D" stroke-width=".374" d="M103.284 83.171c-5.519 7.413-16.091 14.595-29.51 14.595-16.789 0-31.137-9.44-31.137-25.888 0-10.31 7.493-21.313 17.66-24.788"/><path stroke="#20256D" stroke-width=".374" d="M103.284 83.171c-5.519 7.413-16.091 14.595-29.51 14.595-16.789 0-31.137-9.44-31.137-25.888 0-10.31 7.493-21.313 17.602-24.788"/><path stroke="#20256D" stroke-width=".374" d="M103.284 83.17c-5.519 7.414-16.091 14.537-29.51 14.537-16.789 0-31.137-9.44-31.137-25.888 0-10.251 7.436-21.313 17.602-24.788"/><path stroke="#20256C" stroke-width=".374" d="M103.284 83.171c-5.519 7.413-16.091 14.537-29.51 14.537-16.789 0-31.137-9.498-31.137-25.888 0-10.251 7.436-21.256 17.602-24.73"/><path stroke="#20256C" stroke-width=".374" d="M103.284 83.171c-5.518 7.413-16.149 14.537-29.452 14.537-16.788 0-31.137-9.498-31.137-25.888 0-10.251 7.436-21.256 17.602-24.73"/><path stroke="#20256C" stroke-width=".374" d="M103.284 83.171c-5.577 7.413-16.149 14.537-29.452 14.537-16.788 0-31.137-9.498-31.137-25.888 0-10.251 7.436-21.256 17.544-24.73"/><path stroke="#20256C" stroke-width=".374" d="M103.284 83.171c-5.576 7.413-16.149 14.537-29.452 14.537-16.788 0-31.078-9.498-31.078-25.888 0-10.251 7.435-21.256 17.544-24.73"/><path stroke="#20256C" stroke-width=".374" d="M103.284 83.171c-5.576 7.413-16.149 14.48-29.452 14.48-16.788 0-31.078-9.5-31.078-25.89 0-10.25 7.435-21.197 17.544-24.671"/><path stroke="#20256C" stroke-width=".374" d="M103.284 83.171c-5.576 7.413-16.149 14.48-29.452 14.48-16.788 0-31.078-9.5-31.078-25.89 0-10.25 7.435-21.197 17.485-24.671"/><path stroke="#20256B" stroke-width=".374" d="M103.284 83.172c-5.576 7.413-16.149 14.48-29.452 14.48-16.788 0-31.078-9.5-31.078-25.832 0-10.25 7.435-21.196 17.485-24.672"/><path stroke="#20256B" stroke-width=".374" d="M103.281 83.172c-5.576 7.413-16.149 14.48-29.394 14.48-16.788 0-31.078-9.5-31.078-25.832 0-10.25 7.436-21.196 17.485-24.672"/><path stroke="#20256B" stroke-width=".374" d="M103.281 83.172c-5.576 7.355-16.149 14.48-29.394 14.48-16.788 0-31.078-9.557-31.078-25.831 0-10.251 7.436-21.14 17.427-24.614"/><path stroke="#20256B" stroke-width=".374" d="M103.281 83.172c-5.576 7.355-16.149 14.421-29.394 14.421-16.788 0-31.078-9.556-31.078-25.83 0-10.193 7.436-21.14 17.427-24.615"/><path stroke="#20256B" stroke-width=".374" d="M103.281 83.172c-5.576 7.355-16.149 14.421-29.394 14.421-16.788 0-31.078-9.556-31.078-25.83 0-10.193 7.377-21.14 17.427-24.615"/><path stroke="#20246A" stroke-width=".374" d="M103.281 83.172c-5.576 7.355-16.149 14.421-29.394 14.421-16.788 0-31.078-9.556-31.078-25.83 0-10.193 7.377-21.14 17.368-24.615"/><path stroke="#1F246A" stroke-width=".374" d="M103.282 83.172c-5.577 7.355-16.15 14.422-29.336 14.422-16.788 0-31.079-9.556-31.079-25.83 0-10.194 7.378-21.082 17.369-24.557"/><path stroke="#1F246A" stroke-width=".374" d="M103.282 83.172c-5.577 7.355-16.15 14.422-29.336 14.422-16.788 0-31.079-9.556-31.079-25.83 0-10.194 7.378-21.082 17.369-24.557"/><path stroke="#1F246A" stroke-width=".374" d="M103.282 83.172c-5.577 7.355-16.15 14.363-29.336 14.363-16.788 0-31.079-9.556-31.079-25.83 0-10.193 7.378-21.08 17.369-24.557"/><path stroke="#1F246A" stroke-width=".374" d="M103.282 83.172c-5.577 7.355-16.15 14.363-29.336 14.363-16.73 0-31.079-9.556-31.079-25.83 0-10.193 7.378-21.08 17.31-24.557"/><path stroke="#1F246A" stroke-width=".374" d="M103.282 83.172c-5.577 7.355-16.15 14.363-29.336 14.363-16.73 0-31.079-9.614-31.079-25.83 0-10.193 7.378-21.023 17.31-24.498"/><path stroke="#1F2469" stroke-width=".374" d="M103.282 83.172c-5.577 7.355-16.15 14.363-29.336 14.363-16.73 0-31.079-9.614-31.079-25.83 0-10.193 7.378-21.023 17.31-24.498"/><path stroke="#1F2469" stroke-width=".374" d="M103.282 83.172c-5.577 7.355-16.149 14.363-29.278 14.363-16.73 0-31.078-9.614-31.078-25.83 0-10.193 7.377-21.023 17.252-24.498"/><path stroke="#1F2469" stroke-width=".374" d="M103.282 83.172c-5.577 7.355-16.207 14.305-29.278 14.305-16.73 0-31.078-9.614-31.078-25.83 0-10.193 7.377-21.024 17.252-24.499"/><path stroke="#1F2469" stroke-width=".374" d="M103.282 83.172c-5.577 7.355-16.207 14.306-29.278 14.306-16.73 0-31.078-9.614-31.078-25.83 0-10.136 7.32-20.966 17.252-24.441"/><path stroke="#1F2469" stroke-width=".374" d="M103.282 83.172c-5.577 7.298-16.207 14.306-29.278 14.306-16.73 0-31.078-9.614-31.078-25.83 0-10.136 7.32-20.966 17.194-24.441"/><path stroke="#1F2468" stroke-width=".374" d="M103.283 83.172c-5.577 7.298-16.207 14.306-29.278 14.306-16.73 0-31.02-9.614-31.02-25.83 0-10.136 7.319-20.966 17.195-24.441"/><path stroke="#1F2368" stroke-width=".374" d="M103.283 83.173c-5.577 7.298-16.207 14.305-29.278 14.305-16.73 0-31.02-9.614-31.02-25.83 0-10.135 7.319-20.907 17.195-24.382"/><path stroke="#1F2368" stroke-width=".374" d="M103.284 83.173c-5.577 7.298-16.208 14.248-29.22 14.248-16.73 0-31.02-9.614-31.02-25.83-.059-10.078 7.26-20.85 17.136-24.325"/><path stroke="#1F2368" stroke-width=".374" d="M103.283 83.173c-5.576 7.298-16.207 14.248-29.22 14.248-16.73 0-31.02-9.614-31.02-25.773 0-10.135 7.32-20.907 17.137-24.382"/><path stroke="#1F2368" stroke-width=".374" d="M103.283 83.173c-5.576 7.298-16.207 14.248-29.22 14.248-16.73 0-31.02-9.614-31.02-25.773 0-10.135 7.32-20.907 17.137-24.382"/><path stroke="#1F2368" stroke-width=".374" d="M103.283 83.173c-5.576 7.298-16.207 14.248-29.22 14.248-16.73 0-31.02-9.673-31.02-25.773 0-10.135 7.32-20.907 17.137-24.382"/><path stroke="#1E2367" stroke-width=".374" d="M103.283 83.173c-5.576 7.298-16.207 14.248-29.22 14.248-16.73 0-31.02-9.673-31.02-25.83 0-10.136 7.32-20.85 17.079-24.325"/><path stroke="#1E2367" stroke-width=".374" d="M103.283 83.173c-5.576 7.298-16.207 14.19-29.22 14.19-16.73 0-31.02-9.672-31.02-25.773 0-10.135 7.32-20.85 17.079-24.324"/><path stroke="#1E2367" stroke-width=".374" d="M103.284 83.173c-5.577 7.298-16.208 14.19-29.162 14.19-16.73 0-31.02-9.672-31.02-25.773 0-10.077 7.319-20.85 17.078-24.324"/><path stroke="#1E2367" stroke-width=".374" d="M103.284 83.174c-5.577 7.297-16.208 14.189-29.162 14.189-16.73 0-31.02-9.672-31.02-25.772 0-10.078 7.26-20.85 17.02-24.267"/><path stroke="#1E2367" stroke-width=".374" d="M103.284 83.174c-5.577 7.297-16.208 14.189-29.162 14.189-16.73 0-31.02-9.672-31.02-25.772 0-10.078 7.26-20.792 17.02-24.267"/><path stroke="#1E2367" stroke-width=".374" d="M103.284 83.174c-5.577 7.297-16.208 14.189-29.162 14.189-16.73 0-31.02-9.73-31.02-25.772 0-10.078 7.26-20.792 17.02-24.267"/><path stroke="#1E2366" stroke-width=".374" d="M103.284 83.173c-5.577 7.24-16.208 14.132-29.162 14.132-16.73 0-31.02-9.73-31.02-25.773 0-10.077 7.26-20.791 16.962-24.266"/><path stroke="#1E2366" stroke-width=".374" d="M103.284 83.174c-5.577 7.24-16.208 14.131-29.162 14.131-16.73 0-31.02-9.73-31.02-25.773 0-10.077 7.26-20.791 16.962-24.208"/><path stroke="#1E2266" stroke-width=".374" d="M103.284 83.174c-5.576 7.24-16.207 14.131-29.103 14.131-16.73 0-31.02-9.73-31.02-25.773 0-10.077 7.26-20.733 16.962-24.208"/><path stroke="#1E2266" stroke-width=".374" d="M103.284 83.174c-5.576 7.24-16.265 14.131-29.103 14.131-16.73 0-31.02-9.73-31.02-25.773 0-10.077 7.26-20.733 16.904-24.208"/><path stroke="#1E2266" stroke-width=".374" d="M103.284 83.174c-5.576 7.24-16.265 14.131-29.103 14.131-16.73 0-31.02-9.73-31.02-25.773 0-10.077 7.26-20.733 16.904-24.208"/><path stroke="#1E2265" stroke-width=".374" d="M103.284 83.174c-5.576 7.24-16.265 14.073-29.103 14.073-16.73 0-31.02-9.73-31.02-25.772 0-10.077 7.26-20.734 16.904-24.15"/><path stroke="#1E2265" stroke-width=".374" d="M103.284 83.174c-5.576 7.24-16.265 14.073-29.103 14.073-16.73 0-31.02-9.73-31.02-25.772 0-10.077 7.26-20.676 16.904-24.15"/><path stroke="#1E2265" stroke-width=".374" d="M103.285 83.174c-5.577 7.24-16.266 14.073-29.104 14.073-16.73 0-30.962-9.73-30.962-25.772 0-10.02 7.203-20.676 16.846-24.15"/><path stroke="#1E2265" stroke-width=".374" d="M103.285 83.174c-5.577 7.24-16.266 14.073-29.046 14.073-16.73 0-30.962-9.788-30.962-25.772 0-10.02 7.203-20.676 16.846-24.15"/><path stroke="#1E2265" stroke-width=".374" d="M103.285 83.171c-5.577 7.24-16.266 14.073-29.046 14.073-16.73 0-30.962-9.787-30.962-25.772 0-10.02 7.203-20.676 16.846-24.093"/><path stroke="#1D2265" stroke-width=".374" d="M103.34 83.171c-5.576 7.24-16.265 14.073-29.045 14.073-16.73 0-30.963-9.787-30.963-25.772 0-10.02 7.204-20.617 16.788-24.093"/><path stroke="#1D2264" stroke-width=".374" d="M103.34 83.171c-5.576 7.24-16.265 14.016-29.045 14.016-16.73 0-30.963-9.788-30.963-25.715 0-10.02 7.204-20.617 16.788-24.093"/><path stroke="#1D2264" stroke-width=".374" d="M103.34 83.171c-5.576 7.24-16.265 14.016-29.045 14.016-16.73 0-30.963-9.788-30.963-25.715 0-10.02 7.204-20.617 16.788-24.093"/><path stroke="#1D2264" stroke-width=".374" d="M103.34 83.172c-5.576 7.181-16.265 14.015-29.045 14.015-16.73 0-30.963-9.788-30.963-25.714 0-10.02 7.204-20.618 16.73-24.035"/><path stroke="#1D2164" stroke-width=".374" d="M103.341 83.172c-5.577 7.181-16.266 14.015-28.988 14.015-16.73 0-30.962-9.788-30.962-25.714 0-10.02 7.203-20.618 16.73-24.035"/><path stroke="#1D2164" stroke-width=".374" d="M103.341 83.172c-5.577 7.181-16.266 14.015-28.988 14.015-16.73 0-30.962-9.788-30.962-25.714 0-10.02 7.203-20.56 16.73-24.035"/><path stroke="#1D2163" stroke-width=".374" d="M103.341 83.17c-5.577 7.183-16.266 13.96-28.988 13.96-16.73 0-30.962-9.847-30.962-25.715 0-10.02 7.203-20.56 16.672-24.035"/><path stroke="#1D2163" stroke-width=".374" d="M103.341 83.17c-5.577 7.183-16.266 13.96-28.988 13.96-16.73 0-30.962-9.846-30.962-25.715 0-9.962 7.145-20.56 16.672-23.977"/><path stroke="#1D2163" stroke-width=".374" d="M103.341 83.17c-5.577 7.183-16.266 13.96-28.988 13.96-16.73 0-30.962-9.846-30.962-25.715 0-9.962 7.145-20.56 16.672-23.977"/><path stroke="#1D2163" stroke-width=".374" d="M103.341 83.17c-5.577 7.183-16.266 13.96-28.988 13.96-16.73 0-30.962-9.846-30.962-25.715 0-9.962 7.145-20.502 16.672-23.977"/><path stroke="#1D2163" stroke-width=".374" d="M103.341 83.17c-5.577 7.182-16.266 13.959-28.93 13.959-16.73 0-30.962-9.846-30.962-25.715 0-9.962 7.145-20.502 16.614-23.977"/><path stroke="#1D2163" stroke-width=".374" d="M103.341 83.17c-5.577 7.182-16.324 13.9-28.93 13.9-16.672 0-30.962-9.845-30.962-25.714 0-9.961 7.145-20.502 16.614-23.918"/><path stroke="#1D2162" stroke-width=".374" d="M103.341 83.17c-5.577 7.182-16.324 13.9-28.93 13.9-16.672 0-30.962-9.845-30.962-25.714 0-9.961 7.145-20.502 16.614-23.918"/><path stroke="#1D2162" stroke-width=".374" d="M103.341 83.17c-5.577 7.182-16.324 13.9-28.93 13.9-16.672 0-30.962-9.845-30.962-25.714 0-9.961 7.145-20.444 16.556-23.918"/><path stroke="#1D2162" stroke-width=".374" d="M103.341 83.17c-5.577 7.182-16.324 13.9-28.93 13.9-16.672 0-30.962-9.903-30.962-25.714 0-9.961 7.145-20.444 16.556-23.918"/><path stroke="#1D2162" stroke-width=".374" d="M103.341 83.172c-5.577 7.181-16.324 13.9-28.93 13.9-16.672 0-30.962-9.904-30.962-25.715 0-9.961 7.145-20.444 16.556-23.86"/><path stroke="#1C2162" stroke-width=".374" d="M103.342 83.172c-5.576 7.181-16.324 13.841-28.871 13.841-16.672 0-30.905-9.903-30.905-25.714 0-9.961 7.146-20.444 16.498-23.862"/><path stroke="#1C2061" stroke-width=".374" d="M103.342 83.172c-5.576 7.123-16.324 13.841-28.871 13.841-16.672 0-30.905-9.903-30.905-25.714 0-9.961 7.146-20.386 16.498-23.862"/><path stroke="#1C2061" stroke-width=".374" d="M103.342 83.172c-5.576 7.123-16.324 13.841-28.871 13.841-16.672 0-30.905-9.903-30.905-25.714 0-9.904 7.088-20.386 16.498-23.862"/><path stroke="#1C2061" stroke-width=".374" d="M103.342 83.172c-5.576 7.124-16.324 13.842-28.871 13.842-16.672 0-30.905-9.904-30.905-25.715 0-9.903 7.088-20.386 16.44-23.803"/><path stroke="#1C2061" stroke-width=".374" d="M103.342 83.173c-5.576 7.124-16.324 13.842-28.871 13.842-16.672 0-30.905-9.904-30.905-25.657 0-9.904 7.088-20.386 16.44-23.803"/><path stroke="#1C2061" stroke-width=".374" d="M103.342 83.172c-5.576 7.124-16.324 13.784-28.871 13.784-16.672 0-30.905-9.904-30.905-25.657 0-9.903 7.088-20.328 16.44-23.803"/><path stroke="#1C2061" stroke-width=".374" d="M103.342 83.172c-5.576 7.124-16.323 13.784-28.813 13.784-16.672 0-30.904-9.904-30.904-25.657 0-9.903 7.087-20.328 16.44-23.803"/><path stroke="#1C2060" stroke-width=".374" d="M103.342 83.172c-5.576 7.124-16.323 13.784-28.813 13.784-16.672 0-30.904-9.962-30.904-25.715 0-9.903 7.087-20.328 16.382-23.745"/><path stroke="#1C2060" stroke-width=".374" d="M103.342 83.172c-5.576 7.124-16.323 13.784-28.813 13.784-16.672 0-30.904-9.962-30.904-25.715 0-9.903 7.087-20.328 16.382-23.745"/><path stroke="#1C2060" stroke-width=".374" d="M103.342 83.172c-5.576 7.124-16.323 13.784-28.813 13.784-16.672-.058-30.904-10.02-30.904-25.715 0-9.903 7.087-20.27 16.382-23.745"/><path stroke="#1C2060" stroke-width=".374" d="M103.342 83.172c-5.576 7.124-16.323 13.726-28.813 13.726-16.672 0-30.904-9.962-30.904-25.657 0-9.903 7.087-20.27 16.323-23.745"/><path stroke="#1C2060" stroke-width=".374" d="M103.342 83.173c-5.576 7.124-16.323 13.726-28.813 13.726-16.672 0-30.904-9.962-30.904-25.657 0-9.903 7.087-20.27 16.323-23.687"/><path stroke="#1C2060" stroke-width=".374" d="M103.343 83.173c-5.576 7.124-16.381 13.726-28.755 13.726-16.672 0-30.904-9.962-30.904-25.657 0-9.845 7.029-20.27 16.324-23.687"/><path stroke="#1C1F5F" stroke-width=".374" d="M103.343 83.173c-5.576 7.124-16.381 13.726-28.755 13.726-16.672 0-30.904-9.962-30.904-25.657 0-9.845 7.029-20.213 16.265-23.687"/><path stroke="#1C1F5F" stroke-width=".374" d="M103.343 83.173c-5.576 7.065-16.381 13.726-28.755 13.726-16.672 0-30.904-9.962-30.904-25.657 0-9.845 7.029-20.213 16.265-23.687"/><path stroke="#1C1F5F" stroke-width=".374" d="M103.343 83.173C97.767 90.238 86.962 96.84 74.588 96.84c-16.672 0-30.904-10.02-30.904-25.657 0-9.845 7.029-20.213 16.265-23.63"/><path stroke="#1B1F5F" stroke-width=".374" d="M103.343 83.173C97.767 90.238 86.962 96.84 74.588 96.84c-16.672 0-30.904-10.02-30.904-25.657 0-9.845 7.029-20.213 16.208-23.63"/><path stroke="#1B1F5F" stroke-width=".374" d="M103.343 83.173C97.767 90.238 86.962 96.84 74.588 96.84c-16.672 0-30.904-10.02-30.904-25.657 0-9.845 7.029-20.154 16.208-23.63"/><path stroke="#1B1F5E" stroke-width=".374" d="M103.344 83.173C97.767 90.238 86.962 96.84 74.647 96.84c-16.672 0-30.905-10.02-30.905-25.657 0-9.845 7.03-20.154 16.207-23.63"/><path stroke="#1B1F5E" stroke-width=".374" d="M103.344 83.173c-5.577 7.066-16.381 13.668-28.697 13.668-16.672 0-30.846-10.02-30.846-25.656 0-9.846 7.029-20.155 16.207-23.572"/><path stroke="#1B1F5E" stroke-width=".374" d="M103.344 83.173c-5.577 7.065-16.381 13.61-28.697 13.61-16.672 0-30.846-10.02-30.846-25.656 0-9.846 7.029-20.155 16.149-23.572"/><path stroke="#1B1F5E" stroke-width=".374" d="M103.344 83.173c-5.577 7.065-16.381 13.61-28.697 13.61-16.672 0-30.846-10.02-30.846-25.656 0-9.846 7.029-20.097 16.149-23.572"/><path stroke="#1B1F5E" stroke-width=".374" d="M103.344 83.173c-5.577 7.066-16.381 13.61-28.697 13.61-16.672 0-30.846-10.019-30.846-25.656 0-9.846 6.97-20.097 16.149-23.514"/><path stroke="#1B1F5E" stroke-width=".374" d="M103.344 83.17c-5.577 7.066-16.381 13.61-28.697 13.61-16.672 0-30.846-10.019-30.846-25.598 0-9.788 6.97-20.097 16.091-23.514"/><path stroke="#1B1F5D" stroke-width=".374" d="M103.341 83.17c-5.577 7.066-16.381 13.61-28.639 13.61-16.672 0-30.846-10.077-30.846-25.598 0-9.788 6.97-20.097 16.09-23.514"/><path stroke="#1B1F5D" stroke-width=".374" d="M103.341 83.173C97.764 90.24 86.96 96.725 74.702 96.725c-16.672 0-30.846-10.077-30.846-25.598 0-9.788 6.97-20.04 16.09-23.514"/><path stroke="#1B1E5D" stroke-width=".374" d="M103.341 83.17c-5.577 7.066-16.381 13.552-28.639 13.552-16.672 0-30.846-10.077-30.846-25.598 0-9.788 6.97-20.04 16.033-23.456"/><path stroke="#1B1E5D" stroke-width=".374" d="M103.341 83.17c-5.577 7.008-16.381 13.552-28.639 13.552-16.672 0-30.846-10.077-30.846-25.598 0-9.788 6.97-20.04 16.033-23.456"/><path stroke="#1B1E5D" stroke-width=".374" d="M103.341 83.17c-5.577 7.008-16.381 13.552-28.639 13.552-16.672 0-30.846-10.077-30.846-25.598 0-9.788 6.97-20.04 16.033-23.456"/><path stroke="#1B1E5C" stroke-width=".374" d="M103.341 83.17c-5.577 7.008-16.381 13.552-28.639 13.552-16.672 0-30.846-10.077-30.846-25.598 0-9.788 6.97-19.981 16.033-23.456"/><path stroke="#1B1E5C" stroke-width=".374" d="M103.341 83.17c-5.576 7.008-16.44 13.495-28.58 13.495-16.673 0-30.847-10.078-30.847-25.6 0-9.787 6.97-19.98 15.975-23.397"/><path stroke="#1B1E5C" stroke-width=".374" d="M103.341 83.17c-5.576 7.008-16.44 13.495-28.58 13.495-16.673 0-30.847-10.078-30.847-25.6 0-9.787 6.97-19.98 15.975-23.397"/><path stroke="#1A1E5C" stroke-width=".374" d="M103.342 83.173c-5.577 7.008-16.44 13.495-28.582 13.495-16.613 0-30.787-10.136-30.787-25.657 0-9.788 6.97-19.981 15.974-23.398"/><path stroke="#1A1E5C" stroke-width=".374" d="M103.342 83.173c-5.577 7.008-16.44 13.495-28.582 13.495-16.613-.059-30.787-10.136-30.787-25.657 0-9.73 6.912-19.923 15.917-23.398"/><path stroke="#1A1E5C" stroke-width=".374" d="M103.342 83.17c-5.577 7.008-16.44 13.495-28.582 13.495-16.613-.059-30.787-10.193-30.787-25.657 0-9.73 6.912-19.923 15.917-23.34"/><path stroke="#1A1E5B" stroke-width=".374" d="M103.342 83.17c-5.577 7.008-16.44 13.436-28.523 13.436-16.672 0-30.846-10.134-30.846-25.598 0-9.73 6.912-19.923 15.917-23.34"/><path stroke="#1A1E5B" stroke-width=".374" d="M103.342 83.17c-5.577 7.008-16.44 13.436-28.523 13.436-16.614 0-30.846-10.134-30.846-25.598 0-9.73 6.912-19.923 15.858-23.34"/><path stroke="#1A1E5B" stroke-width=".374" d="M103.343 83.17c-5.577 7.008-16.44 13.436-28.523 13.436-16.614 0-30.789-10.134-30.789-25.598 0-9.73 6.913-19.865 15.86-23.34"/><path stroke="#1A1D5B" stroke-width=".374" d="M103.343 83.171c-5.577 7.008-16.44 13.436-28.523 13.436-16.614 0-30.789-10.135-30.789-25.598 0-9.73 6.913-19.865 15.86-23.282"/><path stroke="#1A1D5B" stroke-width=".374" d="M103.343 83.171c-5.577 7.008-16.44 13.436-28.523 13.436-16.614 0-30.789-10.135-30.789-25.598 0-9.73 6.913-19.865 15.801-23.282"/><path stroke="#1A1D5A" stroke-width=".374" d="M103.4 83.17c-5.576 6.95-16.439 13.378-28.522 13.378-16.614 0-30.788-10.135-30.788-25.598 0-9.73 6.912-19.865 15.8-23.282"/><path stroke="#1A1D5A" stroke-width=".374" d="M103.401 83.17c-5.577 6.95-16.44 13.378-28.465 13.378-16.613 0-30.788-10.192-30.788-25.598 0-9.73 6.913-19.807 15.801-23.282"/><path stroke="#1A1D5A" stroke-width=".374" d="M103.401 83.171c-5.577 6.95-16.44 13.378-28.465 13.378-16.613 0-30.788-10.193-30.788-25.598 0-9.73 6.913-19.807 15.801-23.224"/><path stroke="#1A1D5A" stroke-width=".374" d="M103.401 83.171c-5.635 6.95-16.44 13.378-28.465 13.378-16.613 0-30.788-10.192-30.788-25.54 0-9.73 6.855-19.807 15.743-23.224"/><path stroke="#1A1D5A" stroke-width=".374" d="M103.401 83.113c-5.635 6.95-16.44 13.379-28.465 13.379-16.613 0-30.788-10.194-30.788-25.541 0-9.672 6.855-19.807 15.743-23.224"/><path stroke="#1A1D5A" stroke-width=".374" d="M103.401 83.112c-5.635 6.95-16.44 13.32-28.465 13.32-16.613 0-30.788-10.192-30.788-25.54 0-9.672 6.855-19.749 15.743-23.224"/><path stroke="#1A1D59" stroke-width=".374" d="M103.401 83.113c-5.635 6.95-16.44 13.32-28.465 13.32-16.613 0-30.788-10.192-30.788-25.54 0-9.672 6.855-19.749 15.685-23.166"/><path stroke="#1A1D59" stroke-width=".374" d="M103.402 83.113c-5.635 6.95-16.44 13.32-28.407 13.32-16.614 0-30.788-10.192-30.788-25.54 0-9.672 6.855-19.749 15.684-23.166"/><path stroke="#191D59" stroke-width=".374" d="M103.402 83.113c-5.635 6.95-16.498 13.32-28.407 13.32-16.614 0-30.788-10.192-30.788-25.54 0-9.672 6.855-19.749 15.684-23.166"/><path stroke="#191D59" stroke-width=".374" d="M103.402 83.113c-5.635 6.95-16.498 13.32-28.407 13.32-16.614 0-30.788-10.25-30.788-25.54 0-9.672 6.855-19.691 15.626-23.166"/><path stroke="#191D59" stroke-width=".374" d="M103.402 83.113c-5.635 6.95-16.498 13.263-28.407 13.263-16.614 0-30.788-10.251-30.788-25.54 0-9.673 6.855-19.692 15.626-23.11"/><path stroke="#191C58" stroke-width=".374" d="M103.402 83.113c-5.635 6.95-16.498 13.263-28.407 13.263-16.614 0-30.788-10.251-30.788-25.54 0-9.673 6.855-19.692 15.626-23.11"/><path stroke="#191C58" stroke-width=".374" d="M103.402 83.113c-5.635 6.95-16.498 13.263-28.407 13.263-16.614 0-30.788-10.251-30.788-25.54 0-9.673 6.855-19.692 15.569-23.11"/><path stroke="#191C58" stroke-width=".374" d="M103.398 83.113c-5.634 6.892-16.497 13.263-28.348 13.263-16.614 0-30.788-10.251-30.788-25.54 0-9.673 6.854-19.634 15.568-23.11"/><path stroke="#191C58" stroke-width=".374" d="M103.398 83.114c-5.634 6.891-16.497 13.262-28.348 13.262-16.614 0-30.788-10.251-30.788-25.54 0-9.614 6.796-19.634 15.568-23.05"/><path stroke="#191C58" stroke-width=".374" d="M103.398 83.113c-5.634 6.892-16.497 13.205-28.348 13.205-16.614 0-30.788-10.251-30.788-25.541 0-9.614 6.796-19.633 15.568-23.05"/><path stroke="#191C58" stroke-width=".374" d="M103.398 83.113c-5.634 6.892-16.497 13.205-28.348 13.205-16.614 0-30.73-10.251-30.73-25.541 0-9.614 6.796-19.633 15.51-23.05"/><path stroke="#191C57" stroke-width=".374" d="M103.398 83.113c-5.634 6.892-16.497 13.205-28.348 13.205-16.614 0-30.73-10.31-30.73-25.541 0-9.614 6.796-19.575 15.51-23.05"/><path stroke="#191C57" stroke-width=".374" d="M103.398 83.114c-5.634 6.891-16.497 13.204-28.348 13.204-16.614 0-30.73-10.31-30.73-25.54 0-9.615 6.796-19.576 15.51-22.993"/><path stroke="#191C57" stroke-width=".374" d="M103.399 83.114c-5.634 6.891-16.497 13.204-28.29 13.204-16.613 0-30.73-10.31-30.73-25.54 0-9.615 6.797-19.576 15.452-22.993"/><path stroke="#191C57" stroke-width=".374" d="M103.399 83.113c-5.634 6.892-16.497 13.147-28.29 13.147-16.613 0-30.73-10.31-30.73-25.541 0-9.614 6.797-19.576 15.452-22.992"/><path stroke="#191C57" stroke-width=".374" d="M103.399 83.113c-5.634 6.892-16.497 13.147-28.29 13.147-16.613 0-30.73-10.31-30.73-25.541 0-9.614 6.797-19.518 15.452-22.992"/><path stroke="#191C57" stroke-width=".374" d="M103.399 83.114c-5.634 6.892-16.497 13.147-28.29 13.147-16.613 0-30.73-10.31-30.73-25.483 0-9.615 6.797-19.518 15.394-22.934"/><path stroke="#191B56" stroke-width=".374" d="M103.399 83.114c-5.634 6.892-16.497 13.147-28.29 13.147-16.613 0-30.73-10.31-30.73-25.483 0-9.615 6.797-19.518 15.394-22.934"/><path stroke="#181B56" stroke-width=".374" d="M103.399 83.114c-5.634 6.892-16.497 13.147-28.29 13.147-16.613 0-30.73-10.31-30.73-25.483 0-9.615 6.797-19.518 15.394-22.934"/><path stroke="#181B56" stroke-width=".374" d="M103.399 83.115c-5.634 6.891-16.497 13.088-28.232 13.088-16.614 0-30.73-10.309-30.73-25.482-.057-9.556 6.74-19.46 15.337-22.877"/><path stroke="#181B56" stroke-width=".374" d="M103.399 83.115c-5.634 6.833-16.556 13.088-28.232 13.088-16.614 0-30.73-10.367-30.73-25.482 0-9.556 6.739-19.46 15.336-22.877"/><path stroke="#181B56" stroke-width=".374" d="M103.399 83.115c-5.634 6.833-16.556 13.088-28.232 13.088-16.614 0-30.73-10.367-30.73-25.482 0-9.556 6.739-19.46 15.336-22.877"/><path stroke="#181B55" stroke-width=".374" d="M103.399 83.115c-5.634 6.833-16.556 13.088-28.232 13.088-16.614 0-30.73-10.367-30.73-25.482 0-9.556 6.739-19.46 15.336-22.877"/><path stroke="#181B55" stroke-width=".374" d="M103.399 83.115c-5.634 6.833-16.556 13.088-28.232 13.088-16.614 0-30.73-10.367-30.73-25.482 0-9.556 6.739-19.46 15.336-22.877"/><path stroke="#181B55" stroke-width=".374" d="M103.399 83.115c-5.634 6.833-16.556 13.03-28.232 13.03-16.614 0-30.73-10.366-30.73-25.483.059-9.497 6.797-19.4 15.336-22.818"/><path stroke="#181B55" stroke-width=".374" d="M103.4 83.115c-5.635 6.833-16.556 13.03-28.174 13.03-16.614 0-30.73-10.366-30.73-25.483 0-9.497 6.738-19.4 15.278-22.818"/><path stroke="#181B55" stroke-width=".374" d="M103.4 83.115c-5.635 6.833-16.556 13.03-28.174 13.03-16.614 0-30.73-10.366-30.73-25.483 0-9.497 6.738-19.343 15.22-22.818"/><path stroke="#181B55" stroke-width=".374" d="M103.4 83.115c-5.635 6.833-16.556 13.03-28.174 13.03-16.614 0-30.73-10.366-30.73-25.483 0-9.556 6.738-19.343 15.22-22.818"/><path stroke="#181B54" stroke-width=".374" d="M103.4 83.116c-5.635 6.833-16.556 13.03-28.174 13.03-16.614 0-30.73-10.425-30.73-25.483 0-9.555 6.68-19.343 15.22-22.76"/><path stroke="#181B54" stroke-width=".374" d="M103.401 83.115c-5.635 6.833-16.556 12.972-28.174 12.972-16.556 0-30.672-10.424-30.672-25.482 0-9.499 6.68-19.344 15.162-22.761"/><path stroke="#181A54" stroke-width=".374" d="M103.401 83.115c-5.635 6.833-16.556 12.972-28.174 12.972-16.556 0-30.672-10.424-30.672-25.482 0-9.499 6.68-19.344 15.162-22.761"/><path stroke="#181A54" stroke-width=".374" d="M103.401 83.115c-5.634 6.833-16.556 12.972-28.116 12.972-16.556 0-30.672-10.424-30.672-25.482 0-9.499 6.68-19.287 15.162-22.761"/><path stroke="#181A54" stroke-width=".374" d="M103.401 83.116c-5.634 6.833-16.556 12.972-28.116 12.972-16.556 0-30.672-10.424-30.672-25.482 0-9.498 6.68-19.287 15.104-22.704"/><path stroke="#181A53" stroke-width=".374" d="M103.401 83.116c-5.634 6.776-16.556 12.972-28.116 12.972-16.556 0-30.672-10.424-30.672-25.482 0-9.498 6.68-19.287 15.104-22.704"/><path stroke="#171A53" stroke-width=".374" d="M103.401 83.115C97.767 89.89 86.845 96.03 75.285 96.03c-16.556 0-30.672-10.425-30.672-25.483 0-9.498 6.68-19.286 15.104-22.703"/><path stroke="#171A53" stroke-width=".374" d="M103.401 83.115C97.767 89.89 86.845 96.03 75.285 96.03c-16.556 0-30.672-10.425-30.672-25.483 0-9.498 6.68-19.228 15.104-22.703"/><path stroke="#171A53" stroke-width=".374" d="M103.401 83.116C97.767 89.892 86.845 96.03 75.285 96.03c-16.556 0-30.672-10.425-30.672-25.425 0-9.498 6.68-19.228 15.046-22.645"/><path stroke="#171A53" stroke-width=".374" d="M103.397 83.116C97.763 89.892 86.842 96.03 75.34 96.03c-16.556 0-30.672-10.483-30.672-25.425 0-9.498 6.68-19.228 15.046-22.645"/><path stroke="#171A53" stroke-width=".374" d="M103.397 83.116C97.763 89.892 86.784 96.03 75.34 96.03c-16.556 0-30.672-10.483-30.672-25.425 0-9.498 6.68-19.228 15.046-22.645"/><path stroke="#171A52" stroke-width=".374" d="M103.397 83.116c-5.634 6.776-16.613 12.857-28.057 12.857-16.556 0-30.672-10.483-30.672-25.425 0-9.44 6.622-19.17 14.987-22.587"/><path stroke="#171A52" stroke-width=".374" d="M103.397 83.116c-5.634 6.776-16.613 12.857-28.057 12.857-16.556 0-30.672-10.483-30.672-25.425 0-9.44 6.622-19.17 14.987-22.587"/><path stroke="#171A52" stroke-width=".374" d="M103.397 83.116c-5.634 6.776-16.613 12.857-28.057 12.857-16.556 0-30.672-10.483-30.672-25.425 0-9.44 6.622-19.17 14.987-22.587"/><path stroke="#171952" stroke-width=".374" d="M103.397 83.116c-5.634 6.776-16.613 12.857-28.057 12.857-16.556 0-30.672-10.483-30.672-25.425 0-9.44 6.622-19.17 14.929-22.587"/><path stroke="#171952" stroke-width=".374" d="M103.398 83.113c-5.634 6.776-16.613 12.857-28 12.857-16.555 0-30.671-10.483-30.671-25.425 0-9.44 6.622-19.17 14.93-22.53"/><path stroke="#171951" stroke-width=".374" d="M103.398 83.116c-5.634 6.776-16.613 12.799-28 12.799-16.555 0-30.671-10.482-30.671-25.425 0-9.44 6.622-19.112 14.93-22.53"/><path stroke="#171951" stroke-width=".374" d="M103.399 83.116c-5.635 6.776-16.614 12.799-28 12.799-16.556 0-30.614-10.482-30.614-25.425 0-9.44 6.623-19.112 14.872-22.53"/><path stroke="#171951" stroke-width=".374" d="M103.399 83.116c-5.635 6.776-16.614 12.799-27.942 12.799-16.613 0-30.672-10.54-30.672-25.425 0-9.44 6.623-19.112 14.872-22.53"/><path stroke="#171951" stroke-width=".374" d="M103.399 83.113c-5.635 6.718-16.614 12.799-27.942 12.799-16.556 0-30.672-10.54-30.672-25.425 0-9.44 6.623-19.112 14.872-22.471"/><path stroke="#171951" stroke-width=".374" d="M103.399 83.113c-5.635 6.718-16.614 12.799-27.942 12.799-16.556 0-30.672-10.54-30.672-25.425 0-9.44 6.623-19.054 14.872-22.471"/><path stroke="#171951" stroke-width=".374" d="M103.399 83.116c-5.634 6.718-16.614 12.741-27.942 12.741-16.556 0-30.613-10.54-30.613-25.425 0-9.44 6.564-19.054 14.813-22.471"/><path stroke="#161950" stroke-width=".374" d="M103.399 83.116c-5.634 6.718-16.614 12.741-27.942 12.741-16.556 0-30.613-10.54-30.613-25.425 0-9.382 6.564-19.054 14.813-22.471"/><path stroke="#161950" stroke-width=".374" d="M103.458 83.113c-5.635 6.718-16.614 12.741-27.942 12.741-16.555 0-30.614-10.54-30.614-25.425 0-9.382 6.565-19.054 14.814-22.413"/><path stroke="#161950" stroke-width=".374" d="M103.458 83.113c-5.635 6.718-16.614 12.741-27.942 12.741-16.555 0-30.614-10.54-30.614-25.425 0-9.382 6.565-18.996 14.756-22.413"/><path stroke="#161950" stroke-width=".374" d="M103.458 83.113c-5.635 6.718-16.614 12.741-27.942 12.741-16.555 0-30.614-10.599-30.614-25.425 0-9.382 6.565-18.996 14.756-22.413"/><path stroke="#161950" stroke-width=".374" d="M103.458 83.116c-5.635 6.718-16.614 12.683-27.942 12.683-16.555 0-30.614-10.598-30.614-25.425 0-9.382 6.565-18.996 14.756-22.413"/><path stroke="#161850" stroke-width=".374" d="M103.459 83.113c-5.636 6.718-16.672 12.684-27.884 12.684-16.556 0-30.614-10.6-30.614-25.367 0-9.383 6.564-18.997 14.697-22.356"/><path stroke="#16184F" stroke-width=".374" d="M103.459 83.113c-5.636 6.718-16.672 12.684-27.884 12.684-16.556 0-30.614-10.6-30.614-25.367 0-9.383 6.564-18.939 14.697-22.356"/><path stroke="#16184F" stroke-width=".374" d="M103.459 83.113c-5.636 6.718-16.672 12.684-27.884 12.684-16.556 0-30.614-10.6-30.614-25.367 0-9.383 6.564-18.939 14.697-22.356"/><path stroke="#16184F" stroke-width=".374" d="M103.459 83.113c-5.636 6.718-16.672 12.684-27.884 12.684-16.556 0-30.614-10.6-30.614-25.367 0-9.383 6.564-18.939 14.639-22.356"/><path stroke="#16184F" stroke-width=".374" d="M103.459 83.113c-5.636 6.66-16.672 12.625-27.884 12.625-16.556 0-30.614-10.598-30.614-25.367 0-9.382 6.506-18.938 14.639-22.297"/><path stroke="#16184F" stroke-width=".374" d="M103.459 83.113c-5.636 6.66-16.672 12.625-27.884 12.625-16.556 0-30.614-10.598-30.614-25.367 0-9.324 6.506-18.88 14.639-22.297"/><path stroke="#16184E" stroke-width=".374" d="M103.459 83.113c-5.635 6.66-16.672 12.625-27.825 12.625-16.557 0-30.614-10.598-30.614-25.367 0-9.324 6.505-18.88 14.638-22.297"/><path stroke="#16184E" stroke-width=".374" d="M103.459 83.113c-5.635 6.66-16.672 12.625-27.825 12.625-16.557 0-30.614-10.656-30.614-25.367 0-9.324 6.505-18.88 14.58-22.297"/><path stroke="#16184E" stroke-width=".374" d="M103.459 83.114c-5.635 6.66-16.672 12.625-27.825 12.625-16.557 0-30.614-10.656-30.614-25.367 0-9.324 6.505-18.88 14.58-22.24"/><path stroke="#16184E" stroke-width=".374" d="M103.459 83.113c-5.635 6.66-16.672 12.568-27.825 12.568-16.557 0-30.614-10.657-30.614-25.367 0-9.325 6.505-18.823 14.58-22.24"/><path stroke="#16184E" stroke-width=".374" d="M103.459 83.113c-5.635 6.66-16.672 12.568-27.825 12.568-16.557 0-30.614-10.657-30.614-25.367 0-9.325 6.505-18.823 14.522-22.24"/><path stroke="#15184E" stroke-width=".374" d="M103.459 83.113c-5.635 6.66-16.672 12.568-27.825 12.568-16.557 0-30.614-10.657-30.614-25.367 0-9.325 6.505-18.823 14.522-22.24"/><path stroke="#15174D" stroke-width=".374" d="M103.456 83.114c-5.635 6.66-16.672 12.568-27.767 12.568-16.556 0-30.556-10.657-30.556-25.368 0-9.324 6.506-18.822 14.523-22.181"/><path stroke="#15174D" stroke-width=".374" d="M103.456 83.114c-5.635 6.66-16.672 12.568-27.767 12.568-16.556 0-30.556-10.657-30.556-25.368 0-9.324 6.506-18.764 14.464-22.181"/><path stroke="#15174D" stroke-width=".374" d="M103.456 83.114c-5.635 6.66-16.672 12.51-27.767 12.51-16.498 0-30.556-10.657-30.556-25.367 0-9.325 6.506-18.765 14.464-22.183"/><path stroke="#15174D" stroke-width=".374" d="M103.456 83.114c-5.635 6.66-16.672 12.51-27.767 12.51-16.498 0-30.556-10.716-30.556-25.367 0-9.325 6.448-18.765 14.464-22.183"/><path stroke="#15174D" stroke-width=".374" d="M103.456 83.114c-5.635 6.66-16.672 12.51-27.767 12.51-16.498 0-30.556-10.715-30.556-25.367 0-9.267 6.448-18.765 14.464-22.124"/><path stroke="#15174C" stroke-width=".374" d="M103.456 83.114c-5.635 6.602-16.671 12.51-27.709 12.51-16.498 0-30.556-10.715-30.556-25.367 0-9.267 6.448-18.707 14.407-22.124"/><path stroke="#15174C" stroke-width=".374" d="M103.456 83.114c-5.635 6.602-16.73 12.51-27.709 12.51-16.498 0-30.556-10.715-30.556-25.367 0-9.267 6.448-18.707 14.407-22.124"/><path stroke="#15174C" stroke-width=".374" d="M103.456 83.114c-5.635 6.601-16.73 12.451-27.709 12.451-16.498 0-30.556-10.714-30.556-25.367 0-9.266 6.448-18.706 14.407-22.124"/><path stroke="#15174C" stroke-width=".374" d="M103.456 83.114c-5.635 6.602-16.73 12.452-27.709 12.452-16.498 0-30.556-10.714-30.556-25.309 0-9.267 6.448-18.707 14.349-22.066"/><path stroke="#15174C" stroke-width=".374" d="M103.456 83.114c-5.635 6.602-16.73 12.452-27.709 12.452-16.498 0-30.556-10.714-30.556-25.309 0-9.267 6.448-18.649 14.349-22.066"/><path stroke="#15174C" stroke-width=".374" d="M103.456 83.114c-5.635 6.602-16.73 12.452-27.709 12.452-16.498 0-30.556-10.714-30.556-25.309 0-9.267 6.448-18.649 14.349-22.066"/><path stroke="#15174B" stroke-width=".374" d="M103.457 83.114c-5.635 6.602-16.73 12.452-27.651 12.452-16.498 0-30.556-10.714-30.556-25.309 0-9.267 6.448-18.649 14.29-22.066"/><path stroke="#15174B" stroke-width=".374" d="M103.457 83.114c-5.635 6.602-16.73 12.394-27.651 12.394-16.498 0-30.556-10.772-30.556-25.31 0-9.265 6.448-18.648 14.29-22.007"/><path stroke="#15164B" stroke-width=".374" d="M103.457 83.114c-5.635 6.602-16.73 12.394-27.651 12.394-16.498 0-30.556-10.772-30.556-25.31 0-9.265 6.39-18.59 14.29-22.007"/><path stroke="#15164B" stroke-width=".374" d="M103.457 83.114c-5.635 6.602-16.73 12.394-27.651 12.394-16.498 0-30.556-10.772-30.556-25.31 0-9.208 6.39-18.59 14.233-22.007"/><path stroke="#14164B" stroke-width=".374" d="M103.457 83.114c-5.635 6.602-16.73 12.394-27.651 12.394-16.498 0-30.556-10.772-30.556-25.31 0-9.208 6.39-18.59 14.233-22.007"/><path stroke="#14164A" stroke-width=".374" d="M103.457 83.115c-5.635 6.602-16.73 12.394-27.651 12.394-16.498 0-30.556-10.772-30.556-25.31 0-9.208 6.39-18.59 14.233-21.949"/><path stroke="#14164A" stroke-width=".374" d="M103.458 83.115c-5.635 6.602-16.73 12.336-27.594 12.336-16.497 0-30.555-10.773-30.555-25.31 0-9.208 6.39-18.532 14.232-21.95"/><path stroke="#14164A" stroke-width=".374" d="M103.458 83.115c-5.635 6.544-16.73 12.336-27.594 12.336-16.497 0-30.555-10.773-30.555-25.31 0-9.208 6.39-18.532 14.174-21.95"/><path stroke="#14164A" stroke-width=".374" d="M103.458 83.115c-5.635 6.544-16.73 12.336-27.593 12.336-16.498 0-30.498-10.83-30.498-25.31 0-9.208 6.39-18.532 14.175-21.95"/><path stroke="#14164A" stroke-width=".374" d="M103.458 83.115c-5.635 6.544-16.73 12.336-27.593 12.336-16.498 0-30.498-10.83-30.498-25.309 0-9.208 6.39-18.533 14.175-21.892"/><path stroke="#14164A" stroke-width=".374" d="M103.458 83.115c-5.635 6.544-16.73 12.336-27.593 12.336-16.498-.058-30.498-10.83-30.498-25.309 0-9.208 6.39-18.475 14.116-21.892"/><path stroke="#141649" stroke-width=".374" d="M103.458 83.115c-5.635 6.544-16.73 12.278-27.593 12.278-16.44 0-30.498-10.83-30.498-25.31 0-9.208 6.39-18.474 14.116-21.892"/><path stroke="#141649" stroke-width=".374" d="M103.457 83.115c-5.635 6.544-16.73 12.278-27.534 12.278-16.498 0-30.556-10.83-30.556-25.31 0-9.15 6.39-18.474 14.116-21.833"/><path stroke="#141649" stroke-width=".374" d="M103.458 83.115C97.823 89.66 86.67 95.393 75.924 95.393c-16.498 0-30.498-10.83-30.498-25.31 0-9.208 6.332-18.474 14.058-21.833"/><path stroke="#141649" stroke-width=".374" d="M103.458 83.115C97.823 89.66 86.67 95.393 75.924 95.393c-16.498 0-30.498-10.83-30.498-25.31 0-9.15 6.332-18.416 14.058-21.833"/><path stroke="#141549" stroke-width=".374" d="M103.458 83.115c-5.635 6.544-16.73 12.22-27.534 12.22-16.498 0-30.498-10.83-30.498-25.31 0-9.15 6.332-18.416 14.058-21.834"/><path stroke="#141549" stroke-width=".374" d="M103.458 83.115c-5.635 6.487-16.73 12.22-27.534 12.22-16.498 0-30.498-10.83-30.498-25.251 0-9.15 6.332-18.417 14-21.834"/><path stroke="#141548" stroke-width=".374" d="M103.455 83.112c-5.635 6.487-16.73 12.22-27.477 12.22-16.497 0-30.497-10.888-30.497-25.251 0-9.15 6.331-18.417 14-21.776"/><path stroke="#141548" stroke-width=".374" d="M103.455 83.112c-5.635 6.487-16.788 12.22-27.477 12.22-16.497 0-30.497-10.888-30.497-25.251 0-9.15 6.331-18.359 14-21.776"/><path stroke="#141548" stroke-width=".374" d="M103.455 83.112c-5.635 6.544-16.788 12.22-27.477 12.22-16.497 0-30.497-10.888-30.497-25.251 0-9.15 6.331-18.359 14-21.776"/><path stroke="#131548" stroke-width=".374" d="M103.455 83.112c-5.635 6.487-16.788 12.22-27.477 12.22-16.497 0-30.497-10.888-30.497-25.251 0-9.15 6.331-18.359 13.941-21.776"/><path stroke="#131548" stroke-width=".374" d="M103.455 83.112C97.763 89.6 86.667 95.274 75.978 95.274c-16.497 0-30.497-10.888-30.497-25.25 0-9.152 6.331-18.36 13.941-21.72"/><path stroke="#131547" stroke-width=".374" d="M103.455 83.112C97.763 89.6 86.667 95.274 75.978 95.274c-16.497 0-30.497-10.888-30.497-25.25 0-9.152 6.331-18.303 13.941-21.72"/><path stroke="#131547" stroke-width=".374" d="M103.455 83.112C97.763 89.6 86.667 95.274 75.978 95.274c-16.497 0-30.497-10.888-30.497-25.25 0-9.152 6.273-18.303 13.883-21.72"/><path stroke="#131547" stroke-width=".374" d="M103.456 83.113c-5.693 6.486-16.789 12.162-27.42 12.162-16.497 0-30.497-10.889-30.497-25.252 0-9.092 6.274-18.301 13.883-21.66"/><path stroke="#131547" stroke-width=".374" d="M103.456 83.113c-5.693 6.486-16.789 12.162-27.42 12.162-16.497 0-30.497-10.889-30.497-25.252 0-9.092 6.274-18.301 13.883-21.66"/><path stroke="#131547" stroke-width=".374" d="M103.456 83.112c-5.693 6.487-16.789 12.105-27.42 12.105-16.497 0-30.497-10.946-30.497-25.251 0-9.094 6.274-18.244 13.825-21.661"/><path stroke="#131447" stroke-width=".374" d="M103.456 83.112C97.764 89.6 86.668 95.217 76.037 95.217c-16.497 0-30.44-10.946-30.44-25.251 0-9.094 6.274-18.244 13.826-21.661"/><path stroke="#131446" stroke-width=".374" d="M103.456 83.113c-5.692 6.486-16.788 12.104-27.419 12.104-16.497 0-30.44-10.946-30.44-25.251 0-9.093 6.274-18.244 13.826-21.603"/><path stroke="#131446" stroke-width=".374" d="M103.456 83.113c-5.692 6.486-16.788 12.104-27.419 12.104-16.497 0-30.44-10.946-30.44-25.251 0-9.093 6.274-18.244 13.769-21.603"/><path stroke="#131446" stroke-width=".374" d="M103.515 83.113c-5.693 6.486-16.788 12.104-27.36 12.104-16.498 0-30.44-10.946-30.44-25.251 0-9.093 6.274-18.185 13.767-21.603"/><path stroke="#131446" stroke-width=".374" d="M103.515 83.112C97.822 89.6 86.669 95.16 76.155 95.16c-16.44 0-30.44-10.947-30.44-25.252 0-9.092 6.274-18.185 13.767-21.602"/><path stroke="#131446" stroke-width=".374" d="M103.515 83.113c-5.693 6.486-16.846 12.046-27.36 12.046-16.44 0-30.44-10.946-30.44-25.252 0-9.092 6.274-18.185 13.767-21.544"/><path stroke="#131445" stroke-width=".374" d="M103.515 83.113c-5.693 6.428-16.846 12.046-27.36 12.046-16.44 0-30.44-10.946-30.44-25.252 0-9.092 6.215-18.185 13.709-21.544"/><path stroke="#131445" stroke-width=".374" d="M103.515 83.113c-5.693 6.428-16.846 12.046-27.36 12.046-16.44 0-30.44-11.004-30.44-25.252 0-9.092 6.215-18.126 13.709-21.544"/><path stroke="#131445" stroke-width=".374" d="M103.515 83.113c-5.693 6.428-16.846 12.046-27.36 12.046-16.44 0-30.44-11.004-30.44-25.252 0-9.034 6.215-18.126 13.709-21.544"/><path stroke="#121445" stroke-width=".374" d="M103.516 83.114c-5.693 6.428-16.846 11.988-27.303 11.988-16.44 0-30.44-11.004-30.44-25.194 0-9.035 6.217-18.126 13.652-21.486"/><path stroke="#121445" stroke-width=".374" d="M103.516 83.114c-5.693 6.428-16.846 11.988-27.303 11.988-16.44 0-30.44-11.004-30.44-25.194 0-9.035 6.217-18.126 13.652-21.486"/><path stroke="#121445" stroke-width=".374" d="M103.516 83.114c-5.693 6.428-16.846 11.988-27.303 11.988-16.44 0-30.44-11.004-30.44-25.194 0-9.035 6.217-18.07 13.652-21.486"/><path stroke="#121444" stroke-width=".374" d="M103.516 83.114c-5.693 6.428-16.846 11.988-27.303 11.988-16.44 0-30.44-11.004-30.44-25.194 0-9.035 6.217-18.07 13.594-21.486"/><path stroke="#121344" stroke-width=".374" d="M103.516 83.115c-5.693 6.428-16.846 11.988-27.303 11.988-16.44 0-30.44-11.004-30.44-25.194 0-9.035 6.217-18.07 13.594-21.429"/><path stroke="#121344" stroke-width=".374" d="M103.516 83.114c-5.693 6.428-16.846 11.93-27.303 11.93-16.44 0-30.44-11.004-30.44-25.193 0-9.035 6.217-18.07 13.594-21.43"/><path stroke="#121344" stroke-width=".374" d="M103.516 83.054c-5.693 6.429-16.846 11.931-27.244 11.931-16.44 0-30.44-11.004-30.44-25.193 0-9.035 6.215-18.012 13.535-21.429"/><path stroke="#121344" stroke-width=".374" d="M103.516 83.054c-5.693 6.429-16.846 11.931-27.244 11.931-16.44 0-30.44-11.062-30.44-25.193 0-9.035 6.215-18.012 13.535-21.429"/><path stroke="#121343" stroke-width=".374" d="M103.516 83.055c-5.693 6.429-16.846 11.931-27.244 11.931-16.44 0-30.44-11.062-30.44-25.194 0-9.034 6.158-18.011 13.535-21.37"/><path stroke="#121343" stroke-width=".374" d="M103.516 83.055c-5.693 6.429-16.846 11.931-27.244 11.931-16.44 0-30.44-11.062-30.44-25.194 0-8.976 6.158-18.011 13.535-21.37"/><path stroke="#121343" stroke-width=".374" d="M103.516 83.054c-5.693 6.371-16.846 11.873-27.244 11.873-16.44 0-30.381-11.062-30.381-25.193 0-8.977 6.157-17.954 13.477-21.37"/><path stroke="#121343" stroke-width=".374" d="M103.516 83.054c-5.693 6.371-16.846 11.873-27.244 11.873-16.44 0-30.381-11.062-30.381-25.193 0-8.977 6.157-17.954 13.477-21.37"/><path stroke="#121343" stroke-width=".374" d="M103.513 83.055c-5.692 6.371-16.846 11.873-27.186 11.873-16.44 0-30.382-11.062-30.382-25.193 0-8.977 6.158-17.954 13.477-21.313"/><path stroke="#121343" stroke-width=".374" d="M103.513 83.055c-5.692 6.371-16.904 11.873-27.186 11.873-16.44 0-30.382-11.062-30.382-25.193 0-8.977 6.158-17.954 13.42-21.313"/><path stroke="#121342" stroke-width=".374" d="M103.513 83.055c-5.692 6.371-16.904 11.873-27.186 11.873-16.44 0-30.382-11.062-30.382-25.193 0-8.977 6.1-17.896 13.42-21.313"/><path stroke="#121342" stroke-width=".374" d="M103.513 83.055C97.821 89.426 86.609 94.87 76.327 94.87c-16.44.058-30.382-11.062-30.382-25.135 0-8.977 6.158-17.896 13.42-21.313"/><path stroke="#111242" stroke-width=".374" d="M103.513 83.056c-5.692 6.371-16.904 11.815-27.186 11.815-16.44.058-30.382-11.062-30.382-25.135 0-8.977 6.158-17.896 13.362-21.256"/><path stroke="#111242" stroke-width=".374" d="M103.513 83.056c-5.692 6.371-16.904 11.815-27.186 11.815-16.44 0-30.382-11.062-30.382-25.135 0-8.977 6.158-17.896 13.362-21.256"/><path stroke="#111242" stroke-width=".374" d="M103.514 83.055C97.821 89.426 86.61 94.87 76.385 94.87c-16.44 0-30.381-11.12-30.381-25.193 0-8.977 6.1-17.838 13.361-21.255"/><path stroke="#111242" stroke-width=".374" d="M103.514 83.056c-5.693 6.371-16.904 11.815-27.129 11.815-16.44 0-30.381-11.12-30.381-25.135 0-8.92 6.1-17.838 13.303-21.256"/><path stroke="#111241" stroke-width=".374" d="M103.514 83.056c-5.693 6.371-16.904 11.757-27.129 11.757-16.44 0-30.381-11.12-30.381-25.135 0-8.919 6.1-17.838 13.303-21.197"/><path stroke="#111241" stroke-width=".374" d="M103.514 83.056c-5.693 6.371-16.904 11.757-27.129 11.757-16.44 0-30.381-11.12-30.381-25.135 0-8.919 6.1-17.838 13.303-21.197"/><path stroke="#111241" stroke-width=".374" d="M103.514 83.056c-5.693 6.371-16.904 11.757-27.129 11.757-16.44 0-30.381-11.12-30.381-25.135 0-8.919 6.158-17.78 13.303-21.197"/><path stroke="#111241" stroke-width=".374" d="M103.514 83.056C97.821 89.37 86.61 94.813 76.385 94.813c-16.44 0-30.381-11.178-30.381-25.135.058-8.919 6.158-17.78 13.303-21.197"/><path stroke="#111241" stroke-width=".374" d="M103.514 83.056c-5.693 6.313-16.904 11.757-27.07 11.757-16.44 0-30.382-11.178-30.382-25.135 0-8.919 6.1-17.78 13.245-21.197"/><path stroke="#111240" stroke-width=".374" d="M103.514 83.056c-5.693 6.313-16.904 11.7-27.07 11.7-16.44 0-30.382-11.178-30.382-25.136 0-8.86 6.1-17.722 13.245-21.14"/><path stroke="#111240" stroke-width=".374" d="M103.514 83.056c-5.693 6.313-16.904 11.7-27.07 11.7-16.44 0-30.382-11.178-30.382-25.136 0-8.86 6.1-17.722 13.245-21.08"/><path stroke="#111240" stroke-width=".374" d="M103.514 83.056c-5.693 6.313-16.904 11.7-27.07 11.7-16.44 0-30.382-11.178-30.382-25.136.059-8.86 6.1-17.722 13.245-21.08"/><path stroke="#111240" stroke-width=".374" d="M103.514 83.056c-5.693 6.313-16.904 11.7-27.07 11.7-16.44 0-30.382-11.178-30.382-25.136.059-8.919 6.1-17.722 13.245-21.08"/><path stroke="#111140" stroke-width=".374" d="M103.515 83.056c-5.692 6.313-16.903 11.7-27.012 11.7-16.439 0-30.323-11.178-30.323-25.136-.058-8.919 6.041-17.722 13.129-21.08"/><path stroke="#111140" stroke-width=".374" d="M103.515 83.056c-5.693 6.313-16.904 11.7-27.012 11.7-16.44 0-30.323-11.178-30.323-25.136 0-8.86 6.04-17.722 13.128-21.08"/><path stroke="#11113F" stroke-width=".374" d="M103.515 83.056c-5.693 6.313-16.904 11.7-27.012 11.7-16.44 0-30.323-11.178-30.323-25.136 0-8.86 6.04-17.664 13.128-21.08"/><path stroke="#10113F" stroke-width=".374" d="M103.515 83.056c-5.693 6.313-16.962 11.642-27.012 11.642-16.44 0-30.323-11.236-30.323-25.136 0-8.86 6.04-17.664 13.07-21.023"/><path stroke="#10113F" stroke-width=".374" d="M103.515 83.056c-5.693 6.313-16.962 11.642-27.012 11.642-16.44 0-30.323-11.236-30.323-25.136 0-8.86 6.04-17.664 13.07-21.023"/><path stroke="#10113F" stroke-width=".374" d="M103.515 83.056c-5.693 6.313-16.962 11.642-27.012 11.642-16.44 0-30.323-11.236-30.323-25.136 0-8.86 6.04-17.664 13.07-21.023"/><path stroke="#10113F" stroke-width=".374" d="M103.515 83.055C97.822 89.368 86.553 94.64 76.503 94.64c-16.382 0-30.323-11.236-30.323-25.136 0-8.86 6.04-17.606 13.07-21.023"/><path stroke="#10113E" stroke-width=".374" d="M103.515 83.056C97.823 89.311 86.553 94.64 76.561 94.64c-16.381 0-30.323-11.236-30.323-25.136 0-8.86 6.041-17.606 13.012-20.965"/><path stroke="#10113E" stroke-width=".374" d="M103.515 83.056C97.823 89.311 86.553 94.64 76.561 94.64c-16.381 0-30.323-11.236-30.323-25.136 0-8.86 6.041-17.606 13.012-20.965"/><path stroke="#10113E" stroke-width=".374" d="M103.515 83.056C97.823 89.311 86.553 94.64 76.561 94.64c-16.381 0-30.323-11.236-30.323-25.136 0-8.86 6.041-17.606 13.012-20.965"/><path stroke="#10113E" stroke-width=".374" d="M103.515 83.057C97.823 89.312 86.553 94.64 76.561 94.64c-16.381 0-30.323-11.235-30.323-25.078 0-8.86 5.983-17.548 12.955-20.964"/><path stroke="#10113E" stroke-width=".374" d="M103.515 83.057c-5.692 6.255-16.962 11.526-26.954 11.526-16.381 0-30.323-11.294-30.323-25.078 0-8.803 5.983-17.548 12.955-20.907"/><path stroke="#10103E" stroke-width=".374" d="M103.516 83.057c-5.692 6.255-16.962 11.526-26.895 11.526-16.382 0-30.324-11.294-30.324-25.078 0-8.803 5.983-17.548 12.954-20.907"/><path stroke="#10103D" stroke-width=".374" d="M103.516 83.057c-5.692 6.255-16.962 11.526-26.895 11.526-16.382 0-30.324-11.294-30.324-25.078 0-8.803 5.983-17.548 12.897-20.907"/><path stroke="#10103D" stroke-width=".374" d="M103.516 83.057c-5.692 6.255-16.962 11.526-26.895 11.526-16.382 0-30.324-11.294-30.324-25.078 0-8.803 5.983-17.49 12.897-20.907"/><path stroke="#10103D" stroke-width=".374" d="M103.516 83.058c-5.692 6.255-16.962 11.525-26.895 11.525-16.382 0-30.324-11.293-30.324-25.078 0-8.803 5.983-17.49 12.897-20.849"/><path stroke="#10103D" stroke-width=".374" d="M103.516 83.057c-5.692 6.255-16.962 11.467-26.895 11.467-16.382 0-30.324-11.293-30.324-25.077 0-8.803 5.983-17.49 12.838-20.85"/><path stroke="#10103D" stroke-width=".374" d="M103.516 83.057c-5.692 6.255-16.962 11.467-26.895 11.467-16.382 0-30.324-11.293-30.324-25.077 0-8.803 5.983-17.49 12.838-20.85"/><path stroke="#10103C" stroke-width=".374" d="M103.517 83.058c-5.693 6.255-16.962 11.467-26.838 11.467-16.382 0-30.324-11.294-30.324-25.077 0-8.803 5.984-17.433 12.839-20.792"/><path stroke="#0F103C" stroke-width=".374" d="M103.517 83.058c-5.693 6.255-17.02 11.467-26.838 11.467-16.382 0-30.265-11.294-30.265-25.077 0-8.803 5.983-17.433 12.838-20.792"/><path stroke="#0F103C" stroke-width=".374" d="M103.517 83.058c-5.693 6.197-17.02 11.467-26.838 11.467-16.382 0-30.265-11.351-30.265-25.077 0-8.803 5.925-17.433 12.78-20.792"/><path stroke="#0F103C" stroke-width=".374" d="M103.572 83.057c-5.693 6.198-17.02 11.41-26.838 11.41-16.381 0-30.265-11.351-30.265-25.077 0-8.804 5.925-17.433 12.78-20.792"/><path stroke="#0F103C" stroke-width=".374" d="M103.572 83.058c-5.693 6.197-17.02 11.409-26.838 11.409-16.381 0-30.265-11.351-30.265-25.077 0-8.746 5.925-17.375 12.78-20.734"/><path stroke="#0F103C" stroke-width=".374" d="M103.572 83.058c-5.693 6.197-17.02 11.409-26.838 11.409-16.381 0-30.265-11.351-30.265-25.077 0-8.746 5.925-17.375 12.722-20.734"/><path stroke="#0F103B" stroke-width=".374" d="M103.572 83.058c-5.692 6.197-17.02 11.409-26.78 11.409-16.38 0-30.265-11.351-30.265-25.077 0-8.746 5.926-17.375 12.722-20.734"/><path stroke="#0F0F3B" stroke-width=".374" d="M103.572 83.058c-5.692 6.197-17.02 11.409-26.78 11.409-16.38 0-30.265-11.351-30.265-25.077 0-8.746 5.926-17.375 12.722-20.734"/><path stroke="#0F0F3B" stroke-width=".374" d="M103.572 83.058c-5.692 6.197-17.02 11.351-26.78 11.351-16.38 0-30.265-11.351-30.265-25.077 0-8.746 5.926-17.317 12.664-20.676"/><path stroke="#0F0F3B" stroke-width=".374" d="M103.572 83.055c-5.692 6.197-17.02 11.351-26.78 11.351-16.38 0-30.265-11.351-30.265-25.02 0-8.744 5.926-17.316 12.664-20.675"/><path stroke="#0F0F3B" stroke-width=".374" d="M103.572 83.055c-5.692 6.197-17.02 11.351-26.78 11.351-16.38 0-30.265-11.351-30.265-25.02 0-8.744 5.926-17.316 12.664-20.675"/><path stroke="#0F0F3B" stroke-width=".374" d="M103.572 83.058c-5.692 6.197-17.02 11.351-26.78 11.351-16.38 0-30.265-11.409-30.265-25.077 0-8.746 5.926-17.317 12.664-20.676"/><path stroke="#0F0F3A" stroke-width=".374" d="M103.572 83.055c-5.692 6.197-17.02 11.351-26.721 11.351-16.44 0-30.324-11.409-30.324-25.077 0-8.746 5.867-17.259 12.606-20.618"/><path stroke="#0F0F3A" stroke-width=".374" d="M103.573 83.055c-5.693 6.197-17.02 11.294-26.722 11.294-16.382 0-30.265-11.41-30.265-25.02 0-8.746 5.867-17.259 12.606-20.618"/><path stroke="#0F0F3A" stroke-width=".374" d="M103.573 83.055c-5.693 6.197-17.02 11.294-26.722 11.294-16.382 0-30.265-11.41-30.265-25.02 0-8.688 5.867-17.259 12.606-20.618"/><path stroke="#0F0F3A" stroke-width=".374" d="M103.573 83.055c-5.693 6.139-17.02 11.294-26.722 11.294-16.382 0-30.265-11.41-30.265-25.02 0-8.688 5.867-17.259 12.547-20.618"/><path stroke="#0F0F3A" stroke-width=".374" d="M103.573 83.056C97.88 89.195 86.553 94.35 76.851 94.35c-16.382 0-30.265-11.41-30.265-25.02 0-8.688 5.867-17.2 12.547-20.56"/><path stroke="#0E0F39" stroke-width=".374" d="M103.574 83.055c-5.693 6.139-17.02 11.294-26.722 11.294-16.382 0-30.208-11.467-30.208-25.079 0-8.687 5.868-17.2 12.549-20.56"/><path stroke="#0E0F39" stroke-width=".374" d="M103.574 83.055C97.881 89.194 86.554 94.29 76.91 94.29c-16.381 0-30.265-11.467-30.265-25.02 0-8.687 5.867-17.2 12.49-20.56"/><path stroke="#0E0E39" stroke-width=".374" d="M103.574 83.055C97.881 89.194 86.495 94.29 76.91 94.29c-16.381 0-30.265-11.467-30.265-25.02 0-8.687 5.867-17.2 12.49-20.56"/><path stroke="#0E0E39" stroke-width=".374" d="M103.574 83.056C97.881 89.195 86.495 94.29 76.91 94.29c-16.381 0-30.207-11.467-30.207-25.02 0-8.687 5.867-17.142 12.49-20.502"/><path stroke="#0E0E39" stroke-width=".374" d="M103.574 83.056C97.881 89.195 86.495 94.29 76.91 94.29c-16.381 0-30.207-11.467-30.207-25.02 0-8.687 5.867-17.142 12.432-20.502"/><path stroke="#0E0E39" stroke-width=".374" d="M103.574 83.056C97.881 89.195 86.495 94.29 76.91 94.29c-16.381 0-30.207-11.467-30.207-25.02 0-8.687 5.867-17.142 12.432-20.502"/><path stroke="#0E0E38" stroke-width=".374" d="M103.574 83.058c-5.693 6.139-17.079 11.179-26.664 11.179-16.381 0-30.207-11.467-30.207-25.02 0-8.687 5.81-17.142 12.432-20.502"/><path stroke="#0E0E38" stroke-width=".374" d="M103.574 83.055c-5.692 6.139-17.078 11.179-26.605 11.179-16.381 0-30.207-11.467-30.207-25.02 0-8.687 5.808-17.085 12.431-20.444"/><path stroke="#0E0E38" stroke-width=".374" d="M103.574 83.055c-5.692 6.139-17.078 11.179-26.605 11.179-16.381 0-30.207-11.467-30.207-25.02 0-8.63 5.808-17.085 12.373-20.444"/><path fill="#272E80" d="M96.837 46.105c7.841 4.69 12.953 12.275 12.953 20.902 0 14.243-13.998 25.823-31.249 25.823-17.25 0-31.248-11.58-31.248-25.823 0-8.627 5.111-16.212 12.952-20.902h36.592z"/><path fill="#FFD300" d="M97.28 74.153h10.045v-1.289H96.586V58.695h-4.272v11.359c0 3.22 1.617 4.099 4.965 4.099zm-30.14 0h-8.776c-3.291 0-4.966-.879-4.966-4.1V58.696h4.273v14.111h8.199c.288.41.923 1.112 1.27 1.347zm12.99-15.75c-8.198 0-12.932 3.395-12.932 8.372 0 4.742 4.907 7.729 12.067 7.729 2.425 0 4.965-.351 6.64-.937v-1.639c-1.386.76-3.522 1.288-5.543 1.288-5.543 0-8.66-3.396-8.66-6.734 0-3.981 3.406-6.792 8.66-6.792 1.79 0 3.926.469 5.427 1.23v-1.756c-1.847-.528-4.215-.762-5.658-.762z"/><path fill="url(#paint0_linear)" d="M78.25 93.19c-17.263 0-31.26-11.557-31.26-25.788 0-6.215 2.682-11.907 7.115-16.379-5.132 4.53-8.457 10.862-8.457 17.6 0 14.985 13.823 25.846 31.144 25.846 10.79 0 20.762-4.762 26.419-11.616-5.715 6.272-14.755 10.338-24.962 10.338h.001z"/><path fill="#272E80" d="M101.953 80.828h9.786v2.635h-9.786v-2.635z"/><path fill="#272E80" d="M101.203 83.522l.748.82.634-.468.403-.41v-.761l-1.151-.351-.634 1.17z"/><path fill="#fff" d="M67.004 79.518c.462.065.693.328.693.722 0 .394-.231.59-.635.655-.116 0-.289.066-.462.066h-1.213v-2.623h1.04c.346 0 .634.065.75.13.173.132.289.263.289.525 0 .132-.058.263-.173.394 0 .065-.116.131-.29.131zm-.635-.13c.404 0 .635-.132.635-.46 0-.197-.058-.263-.23-.328-.06 0-.232-.066-.406-.066h-.52v.853h.52zm-.463.327v.918h.635c.405 0 .636-.132.636-.46 0-.327-.23-.458-.693-.458h-.578zm4.043.393h-1.386l-.347.787h-.461l1.212-2.623h.578l1.27 2.623h-.519l-.347-.787zm-.172-.262l-.52-1.18-.52 1.18h1.04zm3.291.46s.059.065.059.13v.065-2.163h.462v2.623h-.578l-1.444-2.033s-.058-.066-.058-.131v2.23h-.404v-2.624h.578l1.385 1.902zm3.177.327l.809-.066v.328h-1.675c-.372 0-.735-.115-1.04-.328-.289-.262-.404-.59-.404-.984 0-.393.115-.786.404-.983.231-.197.578-.328 1.04-.328.372 0 .734.115 1.04.328.288.262.404.59.404.983 0 .263-.058.46-.116.657-.173.13-.289.328-.462.393zm-1.79-1.05c0 .722.289 1.05.866 1.05.289 0 .52-.066.693-.262.174-.197.231-.46.231-.788 0-.72-.289-1.05-.866-1.05-.635 0-.924.33-.924 1.05zm4.1 1.378c-.404 0-.75-.066-.923-.263-.174-.197-.29-.458-.29-.852V78.27h.463v1.51c0 .327.058.524.115.655.116.131.289.197.578.197s.52-.066.577-.197c.116-.13.116-.328.116-.656v-1.508h.462v1.574c0 .394-.115.721-.347.852-.058.197-.346.263-.75.263zm3.582-.328v.328H80.23v-2.623h1.848v.327h-1.387v.722h1.271v.263h-1.27v.917h1.444v.066zm3.408 0v.328h-1.906v-2.623h1.848v.327H84.1v.722h1.27v.263H84.1v.917h1.444v.066zm2.483-2.033h-.924v2.36h-.462V78.6h-.924v-.328h2.31v.328zm3.35 1.508h-1.386l-.347.787h-.462l1.213-2.623h.578l1.27 2.623h-.52l-.346-.787zm-.173-.262l-.52-1.18-.52 1.18h1.04zm2.31-1.64c.174 0 .404 0 .693.066.059 0 .173 0 .231.066v.327c-.346-.13-.635-.197-.866-.197-.405 0-.635.132-.635.329 0 .13.058.196.23.328.059 0 .232.13.578.262.289.131.462.196.578.328.173.13.23.328.23.525 0 .393-.23.655-.692.72h-.405c-.23 0-.52 0-.866-.065-.116 0-.173-.065-.231-.065v-.395c.347.132.75.263 1.097.263.29 0 .462-.066.578-.197.058-.065.058-.131.058-.197a.33.33 0 00-.231-.327c-.116-.067-.29-.132-.578-.263s-.462-.197-.578-.328c-.173-.131-.288-.327-.288-.524 0-.263.115-.46.404-.525.22-.086.456-.13.693-.13zm2.484 0c.173 0 .404 0 .693.066.058 0 .173 0 .23.066v.327c-.346-.13-.634-.197-.865-.197-.405 0-.635.132-.635.329 0 .13.057.196.23.328.058 0 .23.13.578.262.288.131.462.196.577.328.173.13.231.328.231.525 0 .393-.23.655-.693.72h-.404c-.231 0-.52 0-.867-.065-.115 0-.173-.065-.23-.065v-.395c.346.132.75.263 1.097.263.288 0 .462-.066.578-.197.058-.065.058-.131.058-.197a.33.33 0 00-.231-.327c-.117-.067-.29-.132-.578-.263-.29-.131-.462-.197-.578-.328-.173-.131-.289-.327-.289-.524 0-.263.116-.46.405-.525.22-.086.456-.13.693-.13zm2.657 2.755c-.405 0-.752-.066-.925-.263-.173-.197-.288-.458-.288-.852V78.27h.462v1.51c0 .327.058.524.115.655.115.131.29.197.578.197.289 0 .52-.066.577-.197.116-.13.116-.328.116-.656v-1.508h.462v1.574c0 .394-.116.721-.346.852-.116.197-.405.263-.752.263zm3.292-1.311c.173 0 .288.064.347.13.058.066.115.197.173.328l.231.722h-.52l-.173-.59c-.059-.197-.116-.329-.232-.46-.115-.065-.23-.13-.404-.13h-.519v1.18h-.463v-2.624h1.156c.346 0 .577.066.751.132.173.13.288.262.288.524a.636.636 0 01-.173.459c-.174.262-.289.329-.462.329zm-.52-.198c.404 0 .635-.131.635-.459a.369.369 0 00-.173-.328c-.116-.065-.231-.065-.462-.065h-.635v.853h.635zm3.465.656h-1.386l-.346.787h-.462l1.213-2.623h.577l1.271 2.623h-.52l-.347-.787zm-.115-.262l-.52-1.18-.52 1.18h1.04zm3.292.46s.059.065.059.13v.065-2.163h.461v2.623h-.577l-1.445-2.033s-.057-.066-.057-.131v2.23h-.404v-2.624h.577l1.386 1.902zm3.235-1.64c-.174-.132-.404-.198-.752-.198-.347 0-.634.132-.808.329a1.16 1.16 0 00-.288.786c0 .328.115.59.288.788.174.197.463.262.751.262.231 0 .462-.066.635-.132.059 0 .116-.064.174-.064v.327c-.289.131-.578.131-.924.131-.462 0-.809-.131-1.098-.328-.289-.262-.404-.59-.404-.984 0-.327.115-.59.289-.852.173-.197.404-.393.635-.459.173-.065.405-.131.635-.131.289 0 .578.066.809.131v.393h.058zm2.31 1.967v.328h-1.906v-2.623h1.849v.327h-1.387v.722h1.271v.263h-1.271v.917h1.444v.066z"/><path fill="#FEFEFE" fill-rule="evenodd" d="M40.113 111.17v-4.971h-1.127l-1.57 3.793-1.59-3.793h-1.107v4.971h.809v-3.646l1.515 3.646h.719l1.528-3.66v3.66h.823zm.809-.926c0 .54.435 1.031 1.14 1.031.547 0 .88-.281 1.038-.54 0 .274.028.414.035.434h.746a3.145 3.145 0 01-.041-.546v-1.697c0-.68-.394-1.276-1.431-1.276-.83 0-1.356.526-1.418 1.114l.733.169c.034-.343.27-.617.691-.617.443 0 .637.231.637.519 0 .119-.056.217-.25.246l-.864.132c-.574.085-1.017.422-1.017 1.031zm1.293.393c-.318 0-.491-.21-.491-.441 0-.281.2-.422.45-.464l.878-.132v.154c0 .666-.387.883-.837.883zm7.212-2.882h-.843l-.871 2.441-.892-2.441h-.885l1.368 3.414h.803l1.32-3.414zm.519 3.414h.795v-3.414h-.794l-.001 3.414zm-.125-4.612a.522.522 0 101.006-.203.531.531 0 00-.487-.331.528.528 0 00-.518.534zm2.45 2.53a.813.813 0 01.822-.757c.553 0 .816.358.83.757H52.27zm1.742.891c-.111.337-.36.596-.844.596a.909.909 0 01-.92-.891h2.462c.006-.013.02-.126.02-.259 0-1.08-.608-1.774-1.645-1.774-.85 0-1.64.715-1.64 1.795 0 1.157.81 1.83 1.723 1.83.809 0 1.34-.483 1.521-1.079l-.677-.218zm1.272.666a.563.563 0 101.127 0 .574.574 0 00-.567-.575c-.31 0-.56.259-.56.575zm9.142.526v-4.971h-1.128l-1.569 3.793-1.59-3.793h-1.108v4.971h.81v-3.646l1.514 3.646h.72l1.528-3.66v3.66h.823zm.81-.926c0 .54.435 1.031 1.14 1.031.546 0 .878-.281 1.037-.54 0 .274.028.414.035.434h.747a3.126 3.126 0 01-.042-.546v-1.697c0-.68-.394-1.276-1.431-1.276-.83 0-1.356.526-1.418 1.114l.733.169c.035-.343.27-.617.692-.617.442 0 .636.231.636.519 0 .119-.055.217-.249.246l-.865.132c-.573.085-1.016.422-1.016 1.031zm1.292.393c-.318 0-.49-.21-.49-.441 0-.281.2-.422.449-.464l.878-.132v.154c0 .666-.388.883-.837.883zm7.213-2.882h-.844l-.871 2.441-.893-2.441h-.885l1.37 3.414h.802l1.321-3.414zm.518 3.414h.796v-3.414h-.796v3.414zm-.124-4.612a.523.523 0 101.005-.203.53.53 0 00-.486-.331.528.528 0 00-.52.534zm1.888 4.612h.802v-5.076h-.802v5.076zm1.77 0h.802v-5.076h-.802v5.076zm2.33-2.082a.813.813 0 01.823-.757c.554 0 .817.358.83.757h-1.652zm1.743.891c-.11.337-.36.596-.844.596a.909.909 0 01-.92-.891h2.462c.007-.013.021-.126.021-.259 0-1.08-.609-1.774-1.645-1.774-.851 0-1.64.715-1.64 1.795 0 1.157.81 1.83 1.722 1.83.81 0 1.342-.483 1.522-1.079l-.678-.218zm1.273.666c0 .315.248.568.56.568a.568.568 0 00.401-.972.574.574 0 00-.402-.171.567.567 0 00-.56.575zm9.14.526v-4.971h-1.126l-1.57 3.793-1.59-3.793h-1.106v4.971h.809v-3.646l1.514 3.646h.72l1.528-3.66v3.66h.822zm.81-.926c0 .54.436 1.031 1.141 1.031.547 0 .879-.281 1.038-.54 0 .274.028.414.035.434h.746a3.145 3.145 0 01-.041-.546v-1.697c0-.68-.394-1.276-1.432-1.276-.83 0-1.355.526-1.417 1.114l.733.169c.034-.343.27-.617.69-.617.443 0 .637.231.637.519 0 .119-.055.217-.249.246l-.864.132c-.574.085-1.017.422-1.017 1.031zm1.294.393c-.318 0-.491-.21-.491-.441 0-.281.2-.422.45-.464l.877-.132v.154c0 .666-.387.883-.836.883zm4.951.533v-.456c.194.33.56.54 1.037.54.982 0 1.584-.779 1.584-1.809 0-1.002-.546-1.781-1.556-1.781-.519 0-.906.246-1.058.512v-2.083h-.788v5.077h.781zm1.812-1.718c0 .674-.381 1.08-.906 1.08-.512 0-.906-.407-.906-1.08 0-.68.394-1.066.906-1.066.532 0 .906.386.906 1.066zm1.306.792c0 .54.436 1.031 1.142 1.031.546 0 .878-.281 1.037-.54 0 .274.027.414.034.434h.747a3.215 3.215 0 01-.041-.546v-1.697c0-.68-.394-1.276-1.432-1.276-.829 0-1.355.526-1.417 1.114l.733.169c.034-.343.27-.617.691-.617.443 0 .636.231.636.519 0 .119-.055.217-.248.246l-.865.132c-.574.085-1.017.422-1.017 1.031zm1.294.393c-.318 0-.491-.21-.491-.441 0-.281.201-.422.45-.464l.877-.132v.154c0 .666-.387.883-.836.883zm3.326-1.438c0-.448.242-.806.699-.806.505 0 .691.337.691.758v2.019h.802v-2.16c0-.75-.394-1.353-1.217-1.353-.373 0-.774.162-.996.554v-.456h-.781v3.414h.802v-1.97zm6.231 3.303v-4.747h-.768v.456c-.117-.245-.443-.539-1.03-.539-.982 0-1.598.798-1.598 1.78 0 1.017.658 1.802 1.618 1.802.471 0 .823-.19.99-.491v1.739h.788zm-2.587-3.05c0-.652.367-1.059.9-1.059.525 0 .905.407.905 1.059 0 .652-.38 1.087-.905 1.087-.526 0-.9-.435-.9-1.087zm5.699 1.34c0 .14.013.301.028.378h.767a5.647 5.647 0 01-.035-.624v-2.791h-.802v2.019c0 .449-.242.765-.706.765-.483 0-.677-.358-.677-.778v-2.006h-.802v2.153c0 .757.47 1.36 1.273 1.36.393 0 .788-.168.954-.476zm2.268-1.704a.814.814 0 01.823-.758c.553 0 .816.358.83.758h-1.653zm1.743.89c-.11.337-.36.596-.844.596a.91.91 0 01-.92-.891h2.462c.007-.013.021-.126.021-.259 0-1.08-.609-1.774-1.646-1.774-.85 0-1.639.715-1.639 1.795 0 1.157.809 1.83 1.722 1.83.809 0 1.341-.483 1.521-1.079l-.677-.218zm1.272.666c0 .315.249.568.56.568a.568.568 0 00.567-.568.576.576 0 00-.567-.575.568.568 0 00-.56.575z" clip-rule="evenodd"/><defs><linearGradient id="paint0_linear" x1="57.211" x2="69.146" y1="63.478" y2="84.344" gradientUnits="userSpaceOnUse"><stop stop-color="#fff"/><stop offset="1" stop-color="#7A7980"/></linearGradient></defs></svg>