<svg xmlns="http://www.w3.org/2000/svg" width="151" height="151" fill="none" viewBox="0 0 151 151"><g clip-path="url(#clip0)"><path fill="#010000" d="M146.322 80.02c-2.749 0-4.606 1.276-4.606 3.188 0 1.916 1.937 2.69 3.637 3.378 1.314.533 2.693 1.097 2.693 2.008 0 .279-.085.49-.236.661-.312.374-.964.546-1.984.496-1.002-.048-2.135-.382-3.401-.968l-.52-.236v2.362l.331.094.212.047c.633.153 1.843.425 3.071.425 3.193 0 5.102-1.262 5.102-3.377 0-1.962-1.97-2.755-3.708-3.449-1.276-.509-2.599-1.031-2.599-1.866 0-.244-.014-.968 1.63-.968 1.228 0 2.443.487 3.094.756l.615.26v-2.386l-.615-.118c-.614-.12-1.648-.308-2.716-.308zm-107.85.377v.119c.086 1.147.143 4.023.143 5.078 0 .962-.015 4.175-.166 5.574v.118h5.055c2.475 0 5.102-.77 5.102-2.976 0-1.383-.988-2.412-2.858-2.976 1.37-.365 2.315-1.311 2.315-2.41 0-1.794-2.079-2.486-4.016-2.527h-5.574zm12.26 0v.119c.085 1.147.141 3.995.141 5.054 0 .96-.014 4.201-.165 5.598v.118h2.528v-.094c-.142-2.668-.142-5.346-.142-7.936.085.303.225.6.614 1.18.038.068 4.403 6.426 4.63 6.803v.047h2.054l-.023-.118c-.142-1.4-.142-4.638-.142-5.598 0-1.059.066-3.912.142-5.054v-.119h-2.551l.118 2.74c.047 1.369.07 2.76.165 4.11-.17-.413-.302-.641-1.04-1.724-.018-.039-2.56-3.988-3.448-5.102l-.023-.024h-2.858zm12.495 0l.023.095c.085 1.15.142 4.02.142 5.078 0 .961-.014 4.2-.165 5.599l-.024.117h3.047l-.024-.118c-.104-.996-.132-2.895-.141-4.37.123.007.543.024.543.024l.425.024c3.997 0 5.929-1.073 5.929-3.283 0-2.52-2.707-3.114-4.984-3.165h-4.771zm15.542 0v.095c.085 1.15.165 4.02.165 5.078 0 .961-.038 4.2-.19 5.599v.117h3.024v-.118c-.104-.996-.146-2.895-.165-4.37.132.007.567.024.567.024l.425.024c3.997 0 5.929-1.073 5.929-3.283 0-2.52-2.73-3.114-5.008-3.165H78.77zm13.77 0l-.024.071c-.557 1.548-4.18 9.463-4.747 10.677l-.071.141h2.598l.024-.047c.227-.742.5-1.59.85-2.504l2.15-.047 1.77.024s.303.023.379.023c.472 1.175.817 2.066.968 2.504l.024.047h3l-4.842-10.889h-2.079zm8.125 0v.119c.085 1.147.142 3.995.142 5.054 0 .96-.005 4.201-.165 5.598v.118h3.023v-.118c-.151-1.402-.165-4.639-.165-5.598 0-.76.038-2.452.094-3.803a8.5 8.5 0 01.804-.047c1.417-.026 2.423.263 2.905.85.217.268.33.606.33.993 0 1.256-1.195 1.878-2.291 1.936-.359.02-.637-.023-.637-.023l-.213-.047.142.212c1.058 1.571 2.673 4.295 3.354 5.598l.023.047h3.236l-.094-.165c-.114-.174-2.244-3.297-3.142-4.63 0 0-.028-.033-.047-.07 1.644-.5 2.457-1.43 2.457-2.859 0-2.518-2.731-3.116-5.008-3.165h-4.748zm11.999 0v.095c.085 1.15.142 4.024.142 5.078 0 .96-.014 4.198-.165 5.599v.117h3.023l-.023-.118c-.152-1.4-.142-4.639-.142-5.598 0-1.055.066-3.93.142-5.078v-.095h-2.977zm5.717 0v.119c.085 1.145.141 4.023.141 5.078 0 .962.01 4.175-.141 5.574l-.024.118h5.078c2.466 0 5.102-.77 5.102-2.976 0-1.383-1.001-2.412-2.881-2.976 1.379-.365 2.314-1.311 2.314-2.41 0-1.794-2.078-2.486-4.015-2.527h-5.574zm15.565 0l-.024.048c-.595 1.646-4.426 10.012-4.747 10.7l-.071.141h2.598l.024-.07c.227-.741.501-1.587.85-2.504.085-.002 2.149-.024 2.149-.024l1.772.023h.378c.472 1.172.817 2.061.968 2.504l.024.071h3l-4.842-10.889h-2.079zm-92.118 1.229c.175-.013.383-.002.567 0 2.107.007 2.881.429 2.881 1.582 0 .31-.08.576-.26.803-.406.483-1.228.735-2.22.685h-.047l-.59 1.536h.59c1.162-.034 2.173.334 2.693.968.245.294.354.632.354.992 0 1.211-1.063 1.819-3.141 1.819-.35 0-.917-.002-1.276-.024-.075-1.593-.07-3.751-.07-4.393 0-.76.023-2.45.07-3.897.118-.02.274-.059.449-.071zm79.93 0c.174-.013.359-.002.544 0 2.116.007 2.905.429 2.905 1.582 0 .31-.095.576-.284.803-.406.483-1.218.735-2.22.685h-.047l-.591 1.536h.614c1.163-.034 2.15.334 2.669.968.246.294.378.632.378.992 0 1.211-1.063 1.819-3.141 1.819-.359 0-.916-.002-1.276-.024a114.75 114.75 0 01-.094-4.393c0-.762.038-2.456.094-3.897.114-.02.276-.059.449-.071zm-54.798.094c1.417-.025 2.4.261 2.881.85.218.272.33.605.33.993 0 1.576-1.752 1.913-3.235 1.913l-.614-.024s-.142-.035-.236-.047c-.01-.363 0-.829 0-1.37 0-.694-.005-1.484.023-2.244.18-.035.52-.063.85-.07zm15.518 0c1.417-.025 2.423.261 2.905.85.218.272.33.605.33.993 0 1.576-1.752 1.913-3.235 1.913l-.614-.024s-.151-.035-.236-.047c-.01-.363-.024-.828-.024-1.37 0-.694.019-1.484.047-2.244a5.86 5.86 0 01.827-.07zm10.842 1.89c.245.512.873 1.968 1.582 3.685-.104.003-.236 0-.236 0l-1.346.023s-1.366-.017-1.583-.023c.567-1.384 1.1-2.628 1.583-3.685zm41.405 0c.246.514.874 1.969 1.583 3.685h-.236l-1.347.023s-1.365-.022-1.582-.023a111.685 111.685 0 011.582-3.685z"/><path fill="#00925C" d="M-.004 91.582h32.208V59.375H-.004v32.207z"/><path fill="#fff" d="M18.28 62.941c.88.365 4.422 2.302 4.866 2.906-1.88.249-5.46 1.312-7.275 2.267 2.079-.455 4.975-.698 6.968-.803-.775 1.145-1.2 1.73-2.456 3.094 2.154-1.293 2.754-1.383 4.747-2.55.747 1.11.94 3.68.969 5.715.651-1.293 1.44-6.155 1.11-7.038 1.2-.786 1.2-1.098 1.512-1.63-1.21.108-1.89.127-2.551.33-1.663-1.022-5.093-2.073-7.89-2.29zm-4.723 6.165c-.539.08-2.06.762-3.071 1.56 0 0-.67-.083-1.795-.048-1.124.05-2.598.333-3.165.567 1.096.05 2.589.325 3.165.897 0 0-1.673 1.507-3.307 4.795 0 0 3.004-2.798 4.299-3.495 0 0 .661 2.275 1.133 3.4 0 0 .42-2.623 1.11-4.133 0 0 .194-.12 1.158-.212.954-.085 2.3-.147 4.89.307 0 0-2.377-1.51-5.315-1.913.113-.403.53-1.267.898-1.725zM5.1 78.034c-.19 1.617-.25 2.795-.024 4.087-.737.2-1.261.368-1.866.637.85.523 1.55.934 2.504 1.37.5 1.089 1.015 1.811 1.866 2.646-.199-.712-.241-1.282-.166-2.032 1.068.311 1.956.481 3.165.52-1.152-.425-1.974-.924-2.881-1.771.274-.743.586-1.337 1.086-2.08-.926.133-1.606.246-2.409.402-.652-1.143-.945-2.252-1.275-3.779zm14.124 5.032c-.812.571-1.52 1.017-2.456 1.464a17.678 17.678 0 01-.095-1.3c-.529.704-.973 1.243-1.559 1.89a9.844 9.844 0 01-2.74.378c.586.306 1.181.49 1.796.614-.614.563-1.153.965-1.748 1.347 1.01-.24 2.324-.675 3.306-1.252.51.017 1.02-.006 1.37-.071-.085-.304-.15-.532-.236-.921.936-.72 1.597-1.368 2.362-2.15z"/></g><defs><clipPath id="clip0"><path fill="#fff" d="M0 0h150.625v150.625H0V0z"/></clipPath></defs></svg>