<svg xmlns="http://www.w3.org/2000/svg" width="151" height="151" fill="none" viewBox="0 0 151 151"><path fill="#597E7A" fill-rule="evenodd" d="M16.758 82.64l.348-.036.364-.055.86-.11.95-.2.968-.22.95-.274.988-.293.987-.347.749-.238.31-.145.292-.184.257-.237.237-.255.182-.311 4.734-9.942 7.584 18.896.09.219.129.202.165.182.183.147.218.127.22.073.237.055h.238l6.45.019-11.804-25.31h-6.98L16.757 82.64z" clip-rule="evenodd"/><path fill="#B44533" fill-rule="evenodd" d="M49.833 65.92v-4.568L38.3 67.638l-.11.055-.237.091-.255.073h-.239l-.2-.036-.22-.073-.182-.073-.073-.037.09.292.184.585.237.603.31.603.366.548.384.457.365.33.33.182.31.073h.31l.293-.037.22-.073.182-.073.073-.055 9.394-5.153z" clip-rule="evenodd"/><path fill="#000" fill-rule="evenodd" d="M72.95 81.601h-.128l-.11.017-.109.02-.073.036-.091.054-.074.055-.073.074-.054.09-.878 1.481h3.965v2.613l-.31.091-.274.073-.257.056-.272.054-.257.055-.347.037-.274.037-.237.017h-.787l-.274-.035-.384-.038-.236-.036-.239-.055-.237-.055-.238-.073-.219-.092-.274-.145-.22-.129-.182-.146-.182-.146-.183-.164-.165-.165-.164-.183-.128-.2-.165-.275-.11-.219-.091-.238-.073-.237-.055-.237-.054-.256-.037-.238-.019-.255v-.732l.037-.237.055-.22.073-.238.073-.218.091-.22.11-.219.092-.128.145-.2.165-.184.164-.183.183-.164.183-.146.255-.165.22-.128.238-.128.256-.091.237-.091.347-.091.275-.055.274-.037.255-.037.275-.017.274-.02.274-.018h.256l.273.019.274.019.275.035.274.037.274.037.275.055.274.036.274.054.274.074.273.055.275.073.257.073.272.074.129.037v-1.902l-.31-.091-.256-.09-.275-.074-.273-.055-.257-.056-.274-.054-.274-.055-.494-.072-.273-.037-.275-.037-.273-.018-.274-.019-.256-.018h-1.39l-.273.018-.275.019-.274.037-.256.035-.256.037-.274.073-.256.074-.347.091-.255.073-.239.091-.255.11-.219.11-.237.11-.22.145-.22.128-.255.183-.2.164-.202.165-.183.183-.182.2-.183.183-.146.202-.147.218-.146.22-.128.22-.164.31-.092.22-.091.256-.092.237-.054.256-.073.256-.037.256-.037.255-.018.33v.51l.037.256.036.275.037.255.073.256.055.256.091.238.09.237.129.275.11.237.128.219.128.22.146.219.165.2.146.202.182.183.22.201.22.164.219.146.237.146.238.129.237.128.238.127.255.092.238.11.256.091.293.09.273.056.274.055.275.037.274.036.274.036.292.018.256.037.292.018h.275l.475.019.274-.019h.255l.275-.018.291-.019.275-.018.275-.036.273-.037.274-.036.293-.018.255-.055.275-.036.274-.056.274-.054.273-.037.275-.073.275-.073.273-.055.275-.073.238-.073V81.6H72.95zm10.892-17.398l.201.02.236.054.184.055.146.054.164.092.128.091.128.11.128.128.129.164.073.164.073.147.035.164.037.183v.256l-.017.164-.036.146-.056.165-.091.145-.11.147-.11.146-.183.165-.164.11-.182.091-.183.055-.184.073-.181.036-.202.019h-1.808l-.092.018-.11.037-.073.018-.092.054-.073.074-.055.073-.036.036-.822 1.499 2.595-.019 2.632 3.93h3.106l-3.015-4.588.255-.072.22-.092.219-.11.292-.146.2-.127.184-.128.183-.147.164-.164.147-.183.182-.237.129-.183.108-.201.073-.202.073-.182.055-.201.019-.238.018-.22v-.163l-.018-.22-.037-.219-.055-.22-.073-.218-.072-.22-.11-.22-.127-.2-.147-.201-.147-.183-.163-.164-.165-.165-.183-.146-.202-.146-.2-.11-.22-.11-.22-.091-.217-.073-.22-.073-.238-.055-.237-.018-.238-.019-.238-.018-.201.018h-7.71v10.654h2.776v-8.863l3.856-.018.165.018zm13.194-2.449L98.553 60h-2.596l-.86 1.754h1.94zm28.507 11.349h2.797v-8.771h3.124l.092-.02.11-.017.072-.018.073-.037.055-.037.037-.054.055-.055.018-.056.036-.072.019-.037.018-.018.512-1.444H122.51l-.091.037-.074.019-.072.054-.074.055-.055.055-.055.072-.037.074-.016.036-.713 1.463h4.22v8.771zM88.977 83.227l.218-.073.22-.073.202-.11.273-.146.184-.11.164-.146.163-.146.147-.164.128-.184.128-.183.11-.2.073-.22.072-.22.056-.218.036-.237.018-.238v-.201l-.018-.238-.036-.22-.037-.218-.074-.22-.071-.2-.11-.22-.092-.146-.128-.201-.146-.182-.165-.165-.163-.165-.276-.2-.22-.129-.217-.11-.239-.109-.382-.128-.257-.073-.275-.055-.255-.055-.256-.037-.273-.036-.275-.018-.275-.018h-6.816v10.672h2.797v-8.735h3.728l.128.017.182.019.183.037.165.054.22.11.145.073.11.093.11.09.11.164.072.146.074.165.053.164.038.147.017.146v.091l-.017.147-.02.164-.053.128-.073.164-.091.165-.11.128-.184.201-.163.092-.165.109-.165.073-.201.073-.182.037-.183.037h-1.792l-.073.017-.072.037-.092.037-.072.036-.074.055-.073.055-.055.055-.055.055-.037.073-.73 1.37h2.43l2.796 3.91h3.033l-3.05-4.586.255-.073zm-32.565-6.03l-5.428 10.69h2.998l1.114-2.412h3.253l.128-.037.128-.036.11-.055.11-.073.09-.092.092-.09.073-.11.018-.037.84-1.389h-3.965l2.23-4.679 4.02 8.974h2.888l-4.935-10.655h-3.764zM120.08 62.43h-2.722v10.672h2.722V62.431zm-54.402 9.118l.201.183.201.165.201.164.22.146.218.147.22.146.238.128.237.11.183.073.255.073.257.09.255.073.275.074.255.055.274.036.256.056.329.036.274.019.275.018h.274l.273.018h.275l.274-.018.402-.018.274-.02.274-.017.256-.037.274-.037.256-.054.256-.055.275-.055.254-.054.275-.092.255-.055.257-.092.256-.091.2-.055V70.6l-.109.055-.256.091-.256.11-.256.073-.256.092-.256.073-.274.055-.384.073-.237.036-.274.037-.256.036-.255.019-.275.018h-.547l-.257.018-.237-.018-.256-.018-.238-.037-.256-.055-.237-.072-.275-.074-.218-.073-.22-.092-.2-.11-.202-.127-.183-.128-.182-.146-.238-.22-.146-.182-.146-.183-.146-.2-.11-.202-.092-.22-.091-.218-.091-.348-.055-.237-.036-.257v-.73l.036-.238.055-.347.054-.22.073-.237.074-.219.11-.201.11-.201.181-.256.165-.183.164-.165.201-.164.183-.146.201-.146.329-.183.22-.11.255-.09.238-.074.256-.073.347-.073.256-.018.275-.037h.803l.384.018.274.019.274.036.274.037.238.036.273.055.258.055.272.073.257.055.255.091.256.074.129.054.309.092.019-1.993-.164-.036-.256-.073-.256-.09-.274-.074-.256-.055-.275-.073-.255-.055-.274-.055-.31-.054-.275-.037-.256-.037-.273-.037-.275-.018-.274-.018h-1.06l-.256.018-.274.018-.274.037-.256.037-.256.054-.255.055-.256.074-.256.072-.292.092-.239.091-.236.092-.257.109-.218.128-.238.128-.22.128-.22.147-.2.164-.2.165-.184.164-.183.182-.182.183-.164.201-.165.201-.146.22-.147.2-.109.238-.128.22-.146.346-.092.238-.072.238-.074.255-.054.256-.055.257-.019.365-.018.256v.511l.037.256.036.256.036.255.074.238.073.256.128.365.11.239.11.218.127.238.128.22.146.2.146.201.165.22.219.2zM93.8 87.887h2.815V77.233h-2.797L93.8 87.887zm33.608-10.654h-2.613v10.654h8.315l.803-1.9h-6.505v-8.754zm-25.419-5.994h-8.535V64.24h8.132l-.676-1.828H90.75v10.654h10.325l.914-1.827zm39.106 14.71h-3.453v-6.888h8.131l-.64-1.865h-10.288v10.672h10.509l.84-1.918h-5.099z" clip-rule="evenodd"/><path fill="#000" fill-rule="evenodd" d="M139.617 81.509l-.074.018h-.091l-.11.019-.09.036-.074.055-.091.054-.074.074-.018.036-1.058 1.571h4.659l.073-.018.091-.018.091-.037.091-.036.074-.055.073-.073.036-.055 1.133-1.571h-4.641zm-15.844.694l-.018-.256-.036-.201-.037-.256-.055-.238-.073-.255-.074-.238-.108-.238-.092-.238-.128-.219-.128-.219-.165-.22-.163-.2-.165-.202-.183-.2-.183-.182-.2-.183-.202-.165-.238-.164-.218-.147-.238-.146-.239-.129-.254-.109-.239-.128-.238-.091-.255-.092-.256-.09-.255-.074-.256-.073-.275-.055-.255-.055-.275-.055-.273-.017-.257-.018-.256-.018h-.237l-.091-.018h-.128l-.22.018h-.22l-.254.018-.257.018-.273.017-.256.037-.276.055-.254.054-.257.055-.256.074-.255.073-.238.09-.237.11-.256.111-.22.11-.256.164-.2.128-.22.165-.2.164-.201.165-.183.183-.183.2-.163.182-.183.239-.147.2-.147.22-.128.219-.109.237-.091.238-.11.238-.074.256-.091.347-.037.255-.037.276-.036.255v.73l.036.275.018.255.055.256.055.256.054.238.092.274.091.256.11.238.109.219.128.237.147.22.22.329.163.2.183.184.183.2.183.182.2.165.238.183.22.146.218.129.238.146.238.11.255.128.238.09.257.11.346.092.256.074.274.054.275.054.254.037.275.037.257.018.273.036h.275l.239.018h.291l.275-.018.275-.018.274-.017.256-.037.438-.074.257-.054.255-.054.256-.074.256-.073.255-.11.238-.091.237-.11.348-.182.238-.129.218-.128.202-.146.201-.165.2-.165.183-.182.183-.182.238-.293.146-.218.147-.22.128-.238.11-.218.11-.238.09-.256.091-.238.055-.255.074-.256.036-.255.037-.257.037-.274.018-.255v-.147l-.018-.256-.02-.275zm-2.997.456v.22l-.018.255-.037.256-.035.202-.055.255-.055.256-.091.238-.091.238-.092.237-.128.238-.128.201-.163.182-.165.165-.165.165-.183.164-.218.127-.202.129-.219.091-.218.074-.22.073-.219.054-.347.055-.256.018h-.475l-.256-.037-.237-.037-.238-.054-.239-.073-.237-.074-.238-.091-.275-.146-.2-.128-.183-.147-.183-.164-.165-.165-.254-.31-.129-.183-.11-.201-.11-.219-.091-.219-.092-.238-.072-.238-.054-.237-.055-.347-.037-.256v-.494l.037-.31.037-.275.036-.255.055-.238.074-.255.089-.22.092-.238.128-.2.11-.22.165-.182.145-.183.165-.164.183-.147.274-.2.201-.111.22-.11.219-.09.218-.074.22-.055.365-.054.348-.037h.238l.11-.018.365.036.439.074.219.054.238.074.218.09.202.092.22.128.183.128.181.146.183.165.165.165.163.182.128.201.128.202.092.219.091.218.091.22.055.219.035.182.037.255.037.257.036.237v.257zM95.558 66.78h-.092l-.11.019-.128.018-.09.055-.11.036-.073.074-.092.091-1.132 1.535h4.513l.11-.019.11-.018.091-.037.109-.054.091-.073.074-.055.072-.091.056-.056.987-1.425h-4.386zM111 72.884l.365-.092.256-.092.237-.091.238-.092.239-.128.365-.2.219-.129.2-.127.22-.147.183-.164.183-.183.163-.164.219-.257.147-.2.129-.202.126-.219.128-.237.092-.238.11-.274.055-.274.073-.256.055-.256.036-.256.018-.255.018-.275.018-.237.018-.238v-.2l-.018-.238-.036-.257-.037-.255-.055-.238-.073-.255-.074-.238-.091-.237-.11-.238-.11-.22-.127-.219-.147-.22-.183-.255-.165-.2-.181-.184-.183-.183-.201-.164-.202-.128-.2-.146-.202-.128-.219-.128-.2-.11-.22-.11-.22-.091-.236-.092-.22-.073-.238-.074-.218-.073-.239-.055-.238-.054-.237-.037-.219-.037-.239-.018-.218-.018-.238-.018h-.073l-.147.018h-5.648v10.654h6.251l.256-.018.257-.037.254-.035.275-.055.259-.053zm-.658-1.81l-.22.073-.219.055-.22.037-.218.036h-3.272v-7.072h2.688l.255.018h.11l.128.018.219.054.237.055.22.073.219.091.218.11.202.11.202.128.2.146.165.164.146.128.165.182.129.183.126.201.092.2.11.22.073.201.055.238.037.146.054.237.037.238v.676l-.037.238-.036.237-.074.238-.055.2-.073.238-.091.238-.111.22-.126.218-.128.22-.147.2-.147.183-.147.164-.181.129-.183.128-.202.11-.2.093zm-1.097 14.51l-.202.073-.273.073-.256.073-.273.073-.275.055-.257.055-.273.055-.274.017-.237.037-.275.037-.256.018-.255.019h-.275l-.257-.019-.272-.018-.348-.019-.237-.037-.256-.035-.221-.055-.235-.092-.221-.073-.256-.127-.218-.11-.183-.129-.202-.127-.183-.146-.218-.238-.146-.183-.147-.182-.128-.201-.111-.201-.09-.22-.109-.365-.055-.256-.018-.255-.019-.238v-.256l.019-.256.018-.237.036-.238.037-.238.073-.22.074-.218.09-.202.146-.255.128-.2.147-.203.165-.164.163-.165.183-.164.202-.146.218-.127.22-.11.238-.11.238-.092.237-.073.274-.054.255-.037.256-.037.275-.018.255-.018.348.018.255.018.293.037.274.019.255.055.275.035.274.055.256.074.274.073.255.073.275.072.255.092.256.092h.019l.293.109V77.78l-.091-.036-.202-.073-.056-.018-.254-.092-.275-.09-.256-.074-.328-.073-.256-.055-.275-.055-.274-.036-.274-.037-.53-.056-.274-.017-.274-.018-.275-.019-.328-.018h-.531l-.273.018-.274.02-.421.054-.274.036-.255.055-.256.054-.257.074-.236.091-.33.127-.237.093-.238.128-.22.127-.236.128-.201.147-.257.2-.201.165-.182.164-.202.182-.164.202-.163.2-.239.293-.147.238-.128.22-.128.238-.09.236-.091.183-.092.256-.073.238-.055.256-.055.255-.055.42-.018.256v.513l.018.328.037.256.055.256.054.255.056.257.128.329.091.237.109.237.128.22.128.237.183.292.165.202.163.2.165.201.202.183.256.22.2.164.22.165.219.127.255.165.238.11.255.11.256.091.239.092.254.072.514.11.273.036.275.036.272.038.275.018.422.018.273.018h.548l.274-.018h.275l.292-.036.256-.018.237-.02.274-.036.274-.036.275-.055.256-.055.273-.072.275-.074.256-.073.255-.073.11-.037.018-.018.293-.091.019-1.993-.275.11-.055.018z" clip-rule="evenodd"/><path fill="#4284B5" fill-rule="evenodd" d="M49.835 73.56v-5.41l-3.801 2.156-3.674 2.065-3.435 1.9-3.125 1.7-2.814 1.5-2.522 1.296-2.302 1.115-2.066.932-1.937.823-1.845.675-1.828.603-1.772.512-1.773.42-1.718.366-1.626.274-1.536.219-1.37.146-1.224.074-1.024.055-.895-.037-1.352-.146-.932-.22-.676-.273-.549-.366-.438-.42-.347-.494-.202-.548-.073-.64.073-.767.275-.877.438-.951.584-.969.732-.968.822-.933.84-.858.86-.748.931-.732 1.042-.786 1.079-.713 1.04-.64 1.079-.602 1.115-.567 1.114-.493 1.134-.458 1.078-.364 1.005-.31.895-.202.822-.128.823-.036.859.072.456.055-.236-.84-.42-1.425-.33-1.006-.255-.602-.202-.33-.2-.201-.22-.146-.347-.128-.549-.055-.785.037-.987.128-1.115.237-1.151.33-1.206.438-1.17.494-1.115.511-1.078.566-1.06.603-1.078.676-1.115.75-1.096.786-.969.786-.859.713-.767.73-.75.768-.694.84-.64.877-.566.896-.457.969-.366.968-.2.987-.092.95.073 1.024.183 1.077.293 1.079.383 1.023.439.933.511.822.604.804.694.73.749.64.804.549.896.438 1.06.384 1.26.347 1.353.238 1.389.146 1.37.036 1.316-.073 1.188-.091 1.133-.165 1.133-.201 1.133-.219 1.06-.255 1.041-.257 1.098-.328 1.132-.33 1.133-.365 1.152-.401 1.15-.44 1.152-.457 1.151-.493 1.17-.548 1.242-.603.714-.384.931-.493 1.28-.695 1.863-1.004 2.577-1.427 3.417-1.882 4.094-2.285 4.514-2.484z" clip-rule="evenodd"/></svg>