<svg xmlns="http://www.w3.org/2000/svg" width="151" height="151" fill="none" viewBox="0 0 151 151"><path fill="#33348E" fill-rule="evenodd" d="M2.215 61h29.454v21.998h6.045v6.147h-35.5V61z" clip-rule="evenodd"/><path fill="#70A18C" fill-rule="evenodd" d="M67.168 89.145H37.713v-22h-6.045V61h35.5v28.145z" clip-rule="evenodd"/><path fill="#CC2229" fill-rule="evenodd" d="M31.668 83.131h6.045V67.144h-6.045v15.987z" clip-rule="evenodd"/><path fill="#fff" fill-rule="evenodd" d="M23.442 82.865l-1.916.47-1.04.235-1.68.202h-1.68l-1.107-.135-1.21-.302-1.107-.402-.975-.639-.84-.706-.772-.772-.704-.907-.505-.974-.403-1.041-.336-1.678-.1-1.143.1-1.109.202-1.107.336-1.042.503-1.074.639-.975.739-.906 1.074-.873.706-.438 1.444-.604 1.545-.436.772-.067.84-.067h1.612l1.612.2 1.545.438 1.444.536-.672 2.486-.705-.738-.773-.572-.704-.403-1.042-.335-.974-.202-.907.067-.57.068-1.041.335-.908.538-.773.773-.637.906-.504 1.04-.335 1.143-.27 1.176-.1 1.175v.638l.168 1.21.202 1.107.402 1.108.571.907.638.84.84.637.974.439.907.268.906.134.504.068.907-.135.974-.202.907-.437.973-.538 1.042-.772-.738 2.587zm36.371 0l-1.982.47-1.04.235-1.612.202h-1.68l-1.175-.135-1.108-.302-1.142-.402-.974-.639-.907-.706-.773-.772-.637-.907-.47-.974-.437-1.041-.336-1.678-.068-1.143.068-1.109.134-1.107.336-1.042.504-1.074.638-.975.84-.906 1.04-.873.706-.438 1.377-.604 1.545-.436.84-.067.772-.067h1.612l1.68.2 1.544.438.772.201.706.335-.706 2.486-.705-.738-.772-.572-.772-.403-.975-.335-1.04-.202-.84.067-.571.068-1.041.335-.907.538-.772.773-.639.906-.47 1.04-.436 1.143-.202 1.176-.067 1.175v.638l.067 1.21.269 1.107.436 1.108.47.907.706.84.84.637.907.439.973.268.907.134.504.068.906-.135 1.411-.436.974-.47.974-.64.504-.403-.706 2.587z" clip-rule="evenodd"/><path fill="#70A18C" fill-rule="evenodd" d="M66.797 89.146h81.611v-.638H66.797v.638z" clip-rule="evenodd"/><path fill="#33348E" fill-rule="evenodd" d="M131.281 67.85l-1.678 12.192h3.693l1.68-12.191h-3.695zm4.199-3.66c0 2.352-3.494 2.352-3.494 0 0-2.317 3.494-2.317 3.494 0zm-13.938 8.363l-1.042 7.354h-3.56l1.68-12.19h3.56l-.268 1.915.637-.572.673-.605.301-.201.336-.2.37-.203.335-.135.437-.168h.604l.369.067.337.236.2.135.168.133.136.135.2.201.136.27.133.2-1.612 3.292-.202-.403-.2-.302-.269-.202-.235-.2-.269-.136-.202-.1h-.301l-.269.1-.202.067-.301.135-.269.134-.269.202-.303.201-.268.303-.571.537zm-14.275 3.93l.841-6.08-1.513.068-1.074.336-.068.067v-3.157l.37-.1 1.444-.134h1.613l2.317.234.906.135-1.678 12.19h-3.628l.134-1.175-1.343.772-.135.034v-2.451l.371-.101 1.242-.504.201-.134zm-1.813-5.61l-.906.504-.772.706-.471.705-.369.705-.135.839.067 1.243.135.84.302.637.403.269.571.067h.638l.537-.168v2.451l-1.108.37-.906.235h-.84l-.637-.168-.638-.336-.538-.504-.638-.738-.57-1.142-.338-1.04-.202-.906v-.638l.068-.84.336-1.41.57-1.31.538-1.042.706-.772.772-.638 1.041-.47 1.343-.403 1.041-.202v3.156zm-15.952 2.05l1.478-.27 1.41-.504.974-.57.84-.706.402-.672.372-.839.268-1.175v-2.25l-.268-1.176-.437-.974-.707-.839-.67-.571-1.075-.538-1.041-.302-.907-.135H88.63v2.922l.269.1.403.068.336.134.37.134.269.202.201.235.233.202.202.27.134.268.067.37.067.336.068.436v.404l-.068.368-.134.337-.134.268-.135.27-.201.268-.303.302-.269.202-.37.134-.47.202-.201.067h-.303l-.033.034v2.989h.874v-.002zm-.873-11.52h-5.474l-2.89 18.504h4.2l.906-6.985h3.258v-2.989l-.235.034h-2.386l.772-5.71h1.68l.169.067v-2.922zm59.647 7.254l-1.243-.47-1.345-.336-.973-.135h-.504l-.973.068-.839.27-.404.133-.705.47-.907.975-.437.906-.135.571v.537l.202.773.437.638.773.84 2.585 2.183.135.269.067.134-.135.369-.268.202-.571.201-.336.067-.839-.067-1.075-.269-1.311-.503-.503 2.72 1.882.772 1.141.302 1.041.067 1.041-.067.907-.235.839-.403.841-.57.571-.706.503-.772.067-.47.067-.437v-.47l-.067-.504-.301-.705-.54-.672-2.45-2.049-.437-.638-.202-.47-.067-.202.067-.168.068-.134.134-.134.503-.067 1.176.134 1.076.201 1.175.504.269-2.653z" clip-rule="evenodd"/></svg>