<svg xmlns="http://www.w3.org/2000/svg" fill="none" viewBox="0 0 426 57"><path fill="#65ED49" d="M24.297 52.287c1.583 2.399 4.084 3.726 7.044 3.726 6.023 0 8.984-6.926 12.417-14.954l.088-.205.03-.072c3.21-7.541 7.181-16.87 11.964-15.903.715.101 1.43.255 1.684 2.092.664 5.563-4.695 15.516-8.523 17.303a4.23 4.23 0 00-2.042 5.614 4.23 4.23 0 005.614 2.041c7.452-3.47 14.394-17.098 13.27-25.979-.663-5.053-3.725-8.472-8.472-9.34C45.99 14.466 40.273 27.839 36.14 37.638c-1.327 3.165-3.471 8.218-4.9 9.8-.51-1.327-.868-6.023 3.369-15.618 2.245-5.206 4.797-9.545 6.839-13.066 1.888-3.267 3.368-5.87 4.185-8.167 1.736-5.206-.714-7.91-2.348-9.034-1.276-.918-3.42-1.837-6.43-1.174-8.167 1.736-16.742 14.342-21.131 21.641-1.94 3.216-3.42 6.33-4.594 8.83a72.313 72.313 0 01-1.99 3.981c0-2.603 1.174-8.217 5.614-16.894 3.88-7.503 7.157-10.317 7.364-10.536 1.035-1.094 2.807-3.828.766-5.87C20.84-.51 18.289.161 17.152.941c-.627.43-5.053 3.777-9.85 13.168C.104 28.145.206 35.444 1.533 39.12c.816 2.296 2.399 3.98 4.542 4.9 1.48.663 5.36 1.633 8.728-2.45 1.43-1.787 2.501-4.135 3.93-7.095 1.174-2.45 2.45-5.206 4.185-8.064C29.555 15.334 34.505 10.842 37.057 9.31c-.765 1.48-1.888 3.471-2.909 5.206-2.144 3.675-4.849 8.269-7.299 13.883-3.317 7.554-6.482 17.864-2.552 23.887z"/><path fill="#00181B" d="M134.056 23.074v20.783h-8.314V25.002c0-1.848-.442-3.293-1.325-4.338-.884-1.084-2.088-1.626-3.615-1.626-1.526 0-2.771.542-3.734 1.626-.924 1.044-1.386 2.51-1.386 4.398v18.795h-8.313V24.701c0-1.768-.442-3.153-1.326-4.157-.843-1.004-2.028-1.506-3.554-1.506-1.526 0-2.77.542-3.735 1.626-.924 1.044-1.385 2.49-1.385 4.338v18.855h-8.314V12.351h8.133v3.675c.642-1.245 1.667-2.29 3.072-3.133 1.446-.883 3.153-1.325 5.121-1.325 3.976 0 6.847 1.566 8.614 4.699 2.008-3.133 5.121-4.7 9.338-4.7 3.494 0 6.144 1.045 7.951 3.133 1.848 2.089 2.772 4.88 2.772 8.374zM143.308 40.002c-3.173-3.093-4.759-7.028-4.759-11.808 0-4.779 1.606-8.735 4.819-11.867 3.253-3.173 7.289-4.76 12.108-4.76 4.82 0 8.856 1.587 12.109 4.76s4.879 7.128 4.879 11.867c0 4.78-1.606 8.715-4.819 11.808-3.173 3.092-7.229 4.638-12.169 4.638-4.899 0-8.955-1.546-12.168-4.638zm3.554-11.808c0 2.651.803 4.84 2.41 6.567 1.646 1.686 3.714 2.53 6.204 2.53 2.531 0 4.599-.843 6.205-2.53 1.647-1.727 2.47-3.916 2.47-6.567 0-2.69-.823-4.9-2.47-6.626-1.646-1.767-3.715-2.65-6.205-2.65s-4.558.883-6.204 2.65c-1.607 1.727-2.41 3.936-2.41 6.627zM193.807 11.568c7.269 0 10.903 4.699 10.903 14.096v18.193h-8.313V24.701c0-1.687-.522-3.053-1.566-4.097-1.004-1.044-2.229-1.566-3.675-1.566-1.687 0-3.052.562-4.096 1.687-1.004 1.084-1.506 2.49-1.506 4.216v18.916h-8.314V12.351h8.133v3.675c.763-1.205 1.888-2.25 3.373-3.133 1.486-.883 3.173-1.325 5.061-1.325zM209.263 28.195c0-4.78 1.446-8.736 4.337-11.868 2.932-3.173 6.627-4.76 11.085-4.76 4.819 0 8.574 1.507 11.265 4.519 2.69 2.972 4.036 7.068 4.036 12.29 0 .802-.02 1.405-.06 1.806h-22.169c.08 2.129.883 3.876 2.409 5.241 1.527 1.326 3.454 1.988 5.784 1.988 3.333 0 5.883-1.285 7.65-3.855l5.482 4.157c-.883 1.606-2.45 3.172-4.699 4.698-2.249 1.486-5.1 2.23-8.554 2.23-4.98 0-8.996-1.527-12.048-4.579-3.012-3.092-4.518-7.048-4.518-11.867zm8.735-3.434h13.554c-.08-1.928-.743-3.474-1.988-4.639s-2.831-1.747-4.759-1.747c-1.928 0-3.494.603-4.699 1.807-1.205 1.205-1.907 2.731-2.108 4.579zM256.645 56.144h-7.952l5.124-13.07-12.109-30.723h8.916l7.048 20.542 7.109-20.542h8.674l-16.81 43.793zM273.337 38.798l5.589-4.324c1.608 2.275 3.834 3.412 6.677 3.412 1.314 0 2.363-.275 3.147-.824.804-.568 1.206-1.333 1.206-2.294 0-.549-.235-1.04-.706-1.47-.47-.452-1.078-.844-1.823-1.177a56.383 56.383 0 00-2.471-1.03 27.54 27.54 0 01-2.706-1.235 15.92 15.92 0 01-2.471-1.647c-.745-.628-1.353-1.432-1.824-2.412-.47-1-.706-2.128-.706-3.383 0-2.196.608-4.128 1.824-5.795 1.216-1.686 2.814-2.951 4.795-3.794 1.98-.843 4.167-1.265 6.559-1.265 1.412 0 2.696.176 3.853.53 1.177.333 2.148.794 2.912 1.382.765.569 1.393 1.157 1.883 1.765.49.608.882 1.255 1.177 1.941l-6.148 4.089c-1.314-2-3.04-3-5.177-3-1.079 0-1.971.264-2.677.794s-1.059 1.206-1.059 2.03c0 .568.236 1.078.706 1.529.471.45 1.079.833 1.824 1.147a49.22 49.22 0 002.5.941 21.86 21.86 0 012.736 1.147c.921.451 1.755.98 2.5 1.589.765.588 1.382 1.373 1.853 2.353.471.96.706 2.069.706 3.324 0 2.275-.647 4.304-1.941 6.089-1.275 1.784-2.961 3.137-5.06 4.059-2.098.922-4.402 1.382-6.912 1.382-2.843 0-5.177-.578-7.001-1.735-1.804-1.157-3.059-2.53-3.765-4.118zM302.564 31.091c0-3.667.834-7 2.5-10 1.667-3.001 3.913-5.335 6.736-7.001 2.824-1.687 5.913-2.53 9.266-2.53 1.255 0 2.412.157 3.471.47 1.078.314 1.961.716 2.647 1.207.687.49 1.226.931 1.618 1.323.412.392.726.765.941 1.118l.53-3.324h7.824l-7.541 43.79h-8.325l2.806-15.552c-.432.47-1.03.98-1.794 1.53-.746.549-1.893 1.108-3.442 1.676a13.564 13.564 0 01-4.765.853c-3.863 0-6.912-1.245-9.148-3.735-2.216-2.49-3.324-5.765-3.324-9.825zm8.501-1.323c0 2.255.608 4.078 1.824 5.47 1.215 1.373 2.853 2.06 4.912 2.06 2.726 0 5.03-1 6.912-3 1.902-2.02 2.854-4.638 2.854-7.854 0-2.177-.589-3.971-1.765-5.383-1.177-1.432-2.814-2.147-4.913-2.147-2.765 0-5.098 1.01-7 3.03-1.883 2.02-2.824 4.627-2.824 7.824zM340.921 34.562c.039-1.255.186-2.598.441-4.03l3.089-18.178h8.236l-3.177 19.15a7.013 7.013 0 00-.118 1.264c0 1.137.314 2.088.941 2.853.844 1.04 1.991 1.56 3.442 1.56 1.706 0 3.167-.56 4.383-1.678 1.216-1.117 1.961-2.53 2.235-4.235l3.206-18.914h8.237L366.6 43.857h-8.119l.589-3.677c-.942 1.216-2.236 2.265-3.883 3.148a11.101 11.101 0 01-5.324 1.323c-1.726 0-3.206-.274-4.442-.823-1.216-.569-2.137-1.304-2.765-2.206-.627-.902-1.078-1.99-1.353-3.265a14.906 14.906 0 01-.382-3.324v-.47zM372.865 43.857l5.295-31.503h8.295l-5.295 31.503h-8.295zm5.706-38.445c0-1.49.569-2.765 1.707-3.824C381.435.53 382.778 0 384.307 0c1.216 0 2.206.392 2.971 1.177.785.764 1.177 1.735 1.177 2.912 0 1.49-.579 2.774-1.736 3.853-1.157 1.059-2.51 1.588-4.059 1.588-1.196 0-2.177-.392-2.941-1.176-.765-.785-1.148-1.765-1.148-2.942zM388.337 30.915c0-3.589.775-6.864 2.324-9.825 1.549-2.96 3.696-5.284 6.442-6.971 2.765-1.706 5.843-2.56 9.236-2.56 1.255 0 2.422.158 3.5.472 1.098.313 1.991.715 2.677 1.206.686.47 1.226.911 1.618 1.323.412.412.706.785.882 1.118L417.676 0H426l-7.425 43.857h-7.824l.53-3.265c-.353.353-.785.716-1.295 1.089-.51.372-1.196.803-2.059 1.294-.843.49-1.853.892-3.029 1.206-1.157.314-2.363.47-3.618.47-3.942 0-7.089-1.264-9.443-3.794-2.333-2.53-3.5-5.844-3.5-9.942zm8.501-1.03c0 2.295.598 4.108 1.794 5.442 1.196 1.314 2.824 1.97 4.883 1.97 2.844 0 5.187-1.068 7.03-3.205 1.863-2.138 2.795-4.707 2.795-7.707 0-2.334-.618-4.157-1.854-5.471-1.215-1.334-2.843-2-4.882-2-2.746 0-5.06 1.049-6.942 3.147-1.883 2.098-2.824 4.706-2.824 7.824z"/></svg>