<svg fill="none" xmlns="http://www.w3.org/2000/svg" viewBox="0 0 80 59"><path d="M79 29c0-6.63-2.653-12.99-7.376-17.678A25.28 25.28 0 0053.815 4h-28.63a25.28 25.28 0 00-17.809 7.322A24.908 24.908 0 000 29c0 6.63 2.653 12.99 7.376 17.678A25.28 25.28 0 0025.185 54h28.63a25.28 25.28 0 0017.809-7.322A24.908 24.908 0 0079 29z" fill="#E1E1E1"/><path d="M45.186 0L21.805 23.971 12 33.71l21.118 20.225L67.06 17.978 45.186 0z" fill="#8E5841"/><path d="M68.317 21.563l-2.348-2.347L33 53.5l2.52 2.174 32.797-34.111z" fill="#8E5841"/><path d="M66.36 21.563l-1.173-1.565-31.643 33.22L35 54.5l31.36-32.937z" fill="#fff"/><circle cx="38.968" cy="25.282" r="6.18" fill="#FFD300"/><path d="M47.395 7.866l10.675 8.989M46.272 12.36l6.741 5.618M22.113 37.643l7.304 6.742" stroke="#FFD300"/></svg>