<svg xmlns="http://www.w3.org/2000/svg" fill="none" viewBox="0 0 80 61"><path fill="#E1E1E1" d="M79 29c0-6.63-2.653-12.99-7.376-17.678A25.28 25.28 0 0053.815 4h-28.63a25.28 25.28 0 00-17.809 7.322A24.908 24.908 0 000 29c0 6.63 2.653 12.99 7.376 17.678A25.28 25.28 0 0025.185 54h28.63a25.28 25.28 0 0017.809-7.322A24.908 24.908 0 0079 29z"/><path stroke="#0C2048" stroke-linecap="round" stroke-miterlimit="10" stroke-width="3" d="M29.156 53.787a5.16 5.16 0 001.498 3.637 5.1 5.1 0 003.618 1.507 5.1 5.1 0 003.617-1.507 5.159 5.159 0 001.498-3.637v-4.568"/><path fill="#FF8139" d="M40.173 19.828h-1.536v28.94h1.536v-28.94z"/><path fill="#292289" d="M16.426 20.48c4.158 0 7.524 2.157 7.524 6.34 0-4.183 3.371-6.34 7.523-6.34 4.152 0 7.53 2.157 7.53 6.34 0-4.183 3.366-6.34 7.524-6.34 4.158 0 7.523 2.157 7.523 6.34 0-4.183 3.366-6.34 7.524-6.34 1.794 0 3.53.646 4.891 1.822A7.57 7.57 0 0169 26.887C67.817 11.846 54.843 0 39.003 0S10.183 11.846 9 26.887a7.57 7.57 0 012.535-4.585 7.492 7.492 0 014.891-1.823z"/><path fill="#152D5D" d="M16.426 20.48c4.158 0 7.524 2.157 7.524 6.34 0-4.183 3.371-6.34 7.523-6.34 4.152 0 7.53 2.157 7.53 6.34 0-4.183 3.366-6.34 7.524-6.34 4.158 0 7.523 2.157 7.523 6.34 0-4.183 3.366-6.34 7.524-6.34 1.794 0 3.53.646 4.891 1.822A7.57 7.57 0 0169 26.887C67.817 11.846 54.843 0 39.003 0S10.183 11.846 9 26.887a7.57 7.57 0 012.535-4.585 7.492 7.492 0 014.891-1.823z"/><path fill="#C5C5DD" d="M23.936 24.06a34.75 34.75 0 011.22-7.29 30.278 30.278 0 012.817-6.843 23.073 23.073 0 012.073-3.065c.769-.971 1.626-1.868 2.56-2.68a19.587 19.587 0 016.36-3.71h.073a17.821 17.821 0 016.785 3.287 19.757 19.757 0 014.97 5.684 24.12 24.12 0 011.621 3.434c.434 1.2.782 2.429 1.043 3.679.5 2.468.726 4.985.67 7.505a34.055 34.055 0 00-.816-7.505 25.853 25.853 0 00-1.067-3.618 24.316 24.316 0 00-1.622-3.39 19.492 19.492 0 00-4.95-5.58A17.711 17.711 0 0038.964.76h.08a19.578 19.578 0 00-8.835 6.242 23.296 23.296 0 00-2.079 3.029 30.478 30.478 0 00-2.847 6.775 34.822 34.822 0 00-1.348 7.254z"/><path fill="#C5C5DD" d="M39.005 1.7c.055 1.704.091 3.402.116 5.107l.036 5.107-.036 5.108c-.025 1.704-.063 3.409-.116 5.114a238.37 238.37 0 01-.122-5.114V6.807c.024-1.705.06-3.403.122-5.108z"/></svg>