<svg fill="none" xmlns="http://www.w3.org/2000/svg" viewBox="0 0 80 59"><path d="M80 35.892c0-6.129-2.653-12.007-7.376-16.34-4.724-4.334-11.13-6.769-17.809-6.769h-28.63c-6.68 0-13.085 2.435-17.809 6.769C3.653 23.885 1 29.763 1 35.892c0 6.128 2.653 12.006 7.376 16.34C13.1 56.566 19.506 59 26.185 59h28.63c6.68 0 13.085-2.434 17.809-6.768C77.347 47.898 80 42.02 80 35.892z" fill="#E1E1E1"/><path fill="#24AD79" d="M19 .759h43v44.7H19z"/><path d="M28.161 13.079l-.31-1.003h-1.562l-.31 1.003H25l1.512-4.23h1.11l1.518 4.23h-.979zm-.527-1.752c-.287-.908-.45-1.422-.486-1.54a4.732 4.732 0 01-.077-.283c-.064.246-.249.854-.553 1.823h1.116zM31.896 12.123c0 .33-.117.581-.351.754-.233.173-.581.26-1.046.26-.238 0-.441-.017-.61-.05a2.269 2.269 0 01-.471-.138v-.726c.166.077.352.141.56.193.208.052.392.078.55.078.325 0 .487-.092.487-.276a.224.224 0 00-.065-.168.878.878 0 00-.223-.146 5.233 5.233 0 00-.421-.194 2.713 2.713 0 01-.557-.288.837.837 0 01-.258-.302 1.015 1.015 0 01-.079-.423c0-.287.112-.507.337-.663.227-.158.547-.236.961-.236.395 0 .778.084 1.151.253l-.27.634a5.005 5.005 0 00-.46-.17 1.465 1.465 0 00-.436-.066c-.263 0-.395.07-.395.21 0 .079.042.147.126.205.086.057.272.143.56.256.255.102.443.197.562.285.119.088.207.19.264.306a.925.925 0 01.084.412zM34.879 12.123c0 .33-.117.581-.352.754-.232.173-.58.26-1.046.26-.238 0-.441-.017-.609-.05a2.268 2.268 0 01-.472-.138v-.726c.166.077.353.141.56.193.209.052.392.078.55.078.325 0 .487-.092.487-.276a.224.224 0 00-.064-.168.879.879 0 00-.223-.146 5.238 5.238 0 00-.422-.194 2.713 2.713 0 01-.557-.288.838.838 0 01-.257-.302 1.015 1.015 0 01-.08-.423c0-.287.113-.507.337-.663.227-.158.547-.236.961-.236.395 0 .779.084 1.152.253l-.27.634a5.003 5.003 0 00-.46-.17 1.466 1.466 0 00-.436-.066c-.264 0-.396.07-.396.21 0 .079.042.147.126.205.086.057.273.143.56.256.256.102.443.197.562.285.12.088.207.19.264.306a.925.925 0 01.085.412zM37.897 13.079l-.12-.412h-.047a.948.948 0 01-.408.349c-.175.08-.376.12-.6.12-.385 0-.675-.1-.87-.302-.196-.204-.293-.495-.293-.876v-2.1h.893v1.881c0 .233.042.407.126.525.084.115.218.173.401.173.25 0 .431-.082.543-.245.11-.165.166-.438.166-.819V9.858h.894v3.221h-.685zM41.348 9.798c.12 0 .221.008.301.026l-.067.824a1.04 1.04 0 00-.264-.03c-.285 0-.508.073-.668.217-.158.144-.237.345-.237.605v1.639h-.893v-3.22h.676l.132.54h.044a1.21 1.21 0 01.41-.434c.174-.112.363-.167.566-.167zM44.324 13.079l-.173-.438h-.023c-.15.186-.306.316-.466.389-.158.071-.365.107-.621.107-.314 0-.563-.089-.744-.266-.18-.176-.27-.428-.27-.754 0-.342.121-.594.364-.755.244-.163.611-.254 1.101-.27l.569-.018v-.141c0-.327-.17-.49-.51-.49-.262 0-.57.078-.923.233l-.296-.593a2.7 2.7 0 011.254-.291c.44 0 .776.094 1.01.282.235.188.352.475.352.859v2.146h-.624zm-.264-1.492l-.345.011c-.26.008-.453.054-.58.138-.127.085-.19.214-.19.386 0 .248.144.372.433.372.207 0 .372-.058.495-.176a.61.61 0 00.188-.466v-.265zM48.895 13.079H48v-1.881c0-.233-.042-.406-.126-.522-.084-.117-.218-.175-.401-.175-.25 0-.431.082-.542.247-.112.164-.167.435-.167.816v1.515h-.894v-3.22h.683l.12.411h.05a.933.933 0 01.41-.351c.176-.081.375-.121.597-.121.381 0 .67.101.868.305.197.202.296.494.296.876v2.1zM51.145 13.137c-1.02 0-1.53-.55-1.53-1.651 0-.548.139-.965.416-1.253.278-.29.675-.435 1.193-.435.379 0 .718.073 1.02.219l-.264.68c-.141-.056-.272-.101-.393-.136a1.253 1.253 0 00-.363-.055c-.465 0-.698.325-.698.974 0 .63.233.945.698.945.172 0 .33-.022.477-.066.147-.046.293-.117.44-.213v.752c-.145.09-.291.152-.44.187a2.482 2.482 0 01-.556.052zM54.259 10.423c-.19 0-.338.06-.446.178-.107.118-.169.285-.184.502h1.254c-.004-.217-.062-.384-.173-.502a.588.588 0 00-.451-.178zm.126 2.714c-.528 0-.94-.144-1.237-.43-.296-.286-.445-.691-.445-1.215 0-.54.137-.957.41-1.25.276-.296.656-.444 1.14-.444.463 0 .823.13 1.081.389s.387.617.387 1.074v.427h-2.113c.01.25.085.444.226.584.14.14.338.21.592.21a2.493 2.493 0 001.11-.253v.68a2.078 2.078 0 01-.5.17 3.135 3.135 0 01-.651.058zM27.668 24.47h-.691l-.665-1.061-.664 1.062H25l.947-1.448-.886-1.36h.668l.615 1.01.603-1.01h.653l-.897 1.392.965 1.416zM30.336 24.47h-.691l-.665-1.061-.664 1.062h-.648l.947-1.448-.886-1.36h.668l.615 1.01.603-1.01h.653l-.897 1.392.965 1.416z" fill="#fff"/><path d="M33.004 24.47h-.691l-.665-1.061-.664 1.062h-.648l.947-1.448-.887-1.36h.668l.616 1.01.603-1.01h.652l-.896 1.392.965 1.416z" fill="#fff"/><path d="M35.672 24.47h-.691l-.665-1.061-.664 1.062h-.648l.947-1.448-.886-1.36h.667l.616 1.01.603-1.01h.652l-.896 1.392.965 1.416zM47.096 24.47h-.692l-.664-1.061-.664 1.062h-.648l.947-1.448-.887-1.36h.668l.616 1.01.603-1.01h.652l-.896 1.392.965 1.416zM49.764 24.47h-.692l-.664-1.061-.664 1.062h-.648l.947-1.448-.887-1.36h.668l.616 1.01.603-1.01h.652l-.896 1.392.965 1.416z" fill="#fff"/><path d="M52.432 24.47h-.692l-.664-1.061-.664 1.062h-.648l.947-1.448-.887-1.36h.668l.615 1.01.604-1.01h.652l-.896 1.392.965 1.416z" fill="#fff"/><path d="M55.1 24.47h-.692l-.664-1.061-.664 1.062h-.648l.947-1.448-.887-1.36h.668l.615 1.01.604-1.01h.652l-.896 1.392.965 1.416zM30.002 36.552h-1.037l-.996-1.593-.996 1.593H26l1.42-2.172-1.33-2.04h1.003l.923 1.515.905-1.515h.978l-1.344 2.088 1.447 2.124z" fill="#fff"/><path d="M34.004 36.552h-1.037l-.996-1.593-.996 1.593h-.973l1.42-2.172-1.33-2.04h1.003l.923 1.515.905-1.515h.978l-1.344 2.088 1.447 2.124z" fill="#fff"/><path d="M38.006 36.552h-1.037l-.996-1.593-.996 1.593h-.973l1.42-2.172-1.33-2.04h1.003l.922 1.515.906-1.515h.978l-1.344 2.088 1.447 2.124z" fill="#fff"/><path d="M42.008 36.552H40.97l-.996-1.593-.997 1.593h-.972l1.42-2.172-1.33-2.04H39.1l.923 1.515.905-1.515h.978l-1.345 2.088 1.448 2.124z" fill="#fff"/><path d="M46.01 36.552h-1.037l-.996-1.593-.996 1.593h-.973l1.42-2.172-1.33-2.04h1.003l.922 1.515.906-1.515h.978l-1.344 2.088 1.447 2.124zM50.012 36.552h-1.037l-.997-1.593-.996 1.593h-.972l1.42-2.172-1.33-2.04h1.002l.923 1.515.906-1.515h.978l-1.344 2.088 1.447 2.124z" fill="#fff"/><path d="M54.014 36.552h-1.037l-.996-1.593-.997 1.593h-.972l1.42-2.172-1.33-2.04h1.003l.922 1.515.906-1.515h.978l-1.345 2.088 1.448 2.124z" fill="#fff"/></svg>