<svg fill="none" xmlns="http://www.w3.org/2000/svg" viewBox="0 0 80 60"><path d="M79 29c0-6.63-2.653-12.99-7.376-17.678A25.28 25.28 0 0053.815 4h-28.63a25.28 25.28 0 00-17.809 7.322A24.908 24.908 0 000 29c0 6.63 2.653 12.99 7.376 17.678A25.28 25.28 0 0025.185 54h28.63a25.28 25.28 0 0017.809-7.322A24.908 24.908 0 0079 29z" fill="#E1E1E1"/><path d="M69 7.5L55.5 31v15l20-35.5V3L69 7.5z" fill="#FF8139"/><path d="M70.5 9c-.4-1.2-1.167-1.5-1.5-1.5L75.5 3v7.5c-1.5-.5-1.5 0-3 .5s-1.5-.5-2-2z" fill="#E1E1E1"/><path d="M75.5 6.5c-1.6-.8-2-1.667-2-2l2-1.5v3.5z" fill="#000"/><path d="M58.617 0H20.383c-3.664 0-4.672 2.122-4.672 4.74v50.52c0 2.618 1.008 4.74 4.672 4.74h38.234c3.665 0 4.673-2.122 4.673-4.74V4.74c0-2.618-1.008-4.74-4.672-4.74z" fill="#152D5D"/><path d="M39.048 58c.927 0 1.678-.779 1.678-1.74s-.751-1.74-1.678-1.74c-.927 0-1.679.779-1.679 1.74S38.121 58 39.048 58zM60.279 3H18.816v50.3H60.28V3z" fill="#fff"/><path d="M41.701 21.07c-1.352.011-2.457.423-3.314 1.236-.847.813-1.408 2.037-1.682 3.67l6.562-.055.019 2.216-6.778.057-.023.648.006.791.034.561 5.871-.05.018 2.203-5.626.047c.639 2.988 2.397 4.47 5.275 4.446 1.372-.012 2.775-.321 4.21-.928l.024 2.921c-1.252.596-2.713.9-4.382.915-2.312.02-4.198-.598-5.657-1.852-1.45-1.255-2.405-3.08-2.866-5.474l-2.188.018-.018-2.201 1.957-.017-.033-.532-.005-.532.021-.936-1.957.016-.018-2.216 2.158-.018c.345-2.41 1.245-4.308 2.701-5.693 1.457-1.384 3.346-2.085 5.667-2.105 1.919-.016 3.64.392 5.163 1.223l-1.187 2.701c-1.483-.716-2.8-1.07-3.952-1.06z" fill="#FFD300"/></svg>