<svg fill="none" xmlns="http://www.w3.org/2000/svg" viewBox="0 0 80 60"><path d="M79 29c0-6.63-2.653-12.99-7.376-17.678A25.28 25.28 0 0053.815 4h-28.63a25.28 25.28 0 00-17.809 7.322A24.908 24.908 0 000 29c0 6.63 2.653 12.99 7.376 17.678A25.28 25.28 0 0025.185 54h28.63a25.28 25.28 0 0017.809-7.322A24.908 24.908 0 0079 29z" fill="#E1E1E1"/><path d="M51.217 0H27.573C25.047 0 23 2.122 23 4.74v50.52c0 2.618 2.047 4.74 4.573 4.74h23.644c2.526 0 4.573-2.122 4.573-4.74V4.74c0-2.618-2.047-4.74-4.573-4.74z" fill="#081B42"/><path d="M39.48 58.16c.926 0 1.678-.78 1.678-1.74 0-.961-.752-1.74-1.679-1.74s-1.678.779-1.678 1.74c0 .96.751 1.74 1.678 1.74zM55.182 4.844h-31.58V53.3h31.58V4.844z" fill="#fff"/><path d="M26.177 40.151L31.208 23.3l3.27 10.564 2.515-5.408 3.018 12.954 5.534-22.511 2.138 9.557 3.395-7.545" stroke="#24AD79"/><path d="M26.07 8.42v41.187h26.74" stroke="#00181B"/></svg>