<svg fill="none" xmlns="http://www.w3.org/2000/svg" viewBox="0 0 80 59"><path d="M79 29c0-6.63-2.653-12.99-7.376-17.678A25.28 25.28 0 0053.815 4h-28.63a25.28 25.28 0 00-17.809 7.322A24.908 24.908 0 000 29c0 6.63 2.653 12.99 7.376 17.678A25.28 25.28 0 0025.185 54h28.63a25.28 25.28 0 0017.809-7.322A24.908 24.908 0 0079 29z" fill="#E1E1E1"/><path fill-rule="evenodd" clip-rule="evenodd" d="M25.291 12.125a8.202 8.202 0 01-.9-3.746C24.39 3.752 28.222 0 32.949 0c4.236 0 7.754 3.015 8.437 6.974l12.642-4.046 13.671 42.717L25.971 59l-4.134-12.914c3.04-1.285 5.169-4.248 5.169-7.697 0-4.627-3.832-8.379-8.558-8.379-.583 0-1.152.057-1.703.166L12.3 16.283l12.992-4.158z" fill="#FF8139"/></svg>