<svg fill="none" xmlns="http://www.w3.org/2000/svg" viewBox="0 0 80 60"><path d="M79 29c0-6.63-2.653-12.99-7.376-17.678A25.28 25.28 0 0053.815 4h-28.63a25.28 25.28 0 00-17.809 7.322A24.908 24.908 0 000 29c0 6.63 2.653 12.99 7.376 17.678A25.28 25.28 0 0025.185 54h28.63a25.28 25.28 0 0017.809-7.322A24.908 24.908 0 0079 29z" fill="#E1E1E1"/><path d="M51.217 0H27.573C25.047 0 23 2.122 23 4.74v50.52c0 2.618 2.047 4.74 4.573 4.74h23.644c2.526 0 4.573-2.122 4.573-4.74V4.74c0-2.618-2.047-4.74-4.573-4.74z" fill="#152D5D"/><path d="M39.48 58.16c.926 0 1.678-.78 1.678-1.74 0-.961-.752-1.74-1.679-1.74s-1.678.779-1.678 1.74c0 .96.751 1.74 1.678 1.74zM55.182 4.844h-31.58V53.3h31.58V4.844z" fill="#fff"/><path d="M41.697 20.98c-1.352.012-2.457.424-3.314 1.237-.847.813-1.408 2.037-1.682 3.67l6.562-.055.019 2.216-6.778.057-.023.648.006.791.034.561 5.871-.05.018 2.203-5.626.047c.639 2.988 2.398 4.47 5.276 4.446 1.371-.012 2.774-.321 4.208-.928l.025 2.921c-1.252.596-2.713.901-4.382.915-2.312.02-4.197-.598-5.657-1.852-1.45-1.255-2.405-3.08-2.866-5.474l-2.188.019-.018-2.202 1.957-.017-.033-.532-.005-.532.021-.936-1.957.017-.018-2.217 2.158-.018c.345-2.41 1.245-4.308 2.701-5.692 1.457-1.385 3.346-2.086 5.667-2.106 1.919-.016 3.64.392 5.163 1.223l-1.187 2.701c-1.483-.716-2.8-1.07-3.952-1.06z" fill="#FFD300"/></svg>