<svg fill="none" xmlns="http://www.w3.org/2000/svg" viewBox="0 0 80 59"><path d="M80 29.5c0-6.52-2.653-12.772-7.376-17.382-4.724-4.61-11.13-7.2-17.809-7.2h-28.63c-6.68 0-13.085 2.59-17.809 7.2C3.653 16.728 1 22.98 1 29.5s2.653 12.773 7.376 17.383c4.724 4.61 11.13 7.2 17.809 7.2h28.63c6.68 0 13.085-2.59 17.809-7.2C77.347 42.274 80 36.02 80 29.5z" fill="#E1E1E1"/><mask id="a" maskUnits="userSpaceOnUse" x="1" y="4" width="79" height="51"><path d="M80 29.5c0-6.52-2.653-12.772-7.376-17.382-4.724-4.61-11.13-7.2-17.809-7.2h-28.63c-6.68 0-13.085 2.59-17.809 7.2C3.653 16.728 1 22.98 1 29.5s2.653 12.773 7.376 17.383c4.724 4.61 11.13 7.2 17.809 7.2h28.63c6.68 0 13.085-2.59 17.809-7.2C77.347 42.274 80 36.02 80 29.5z" fill="#E1E1E1"/></mask><g mask="url(#a)"><path d="M19.61 28.637c3.57-1.463 9.073.683 12.345 1.902l2.38 1.17-1.785.731c-2.231-.634-7.259-2.048-9.52-2.633-2.826-.731-4.76 2.048-5.503 1.902-.744-.146-1.173-1.738 2.082-3.072z" fill="#D3662F"/><path d="M65.275 26.15c4.879 2.224 9.52 2.048 14.726 2.048v26.036c-8.727-.05-45.814-.293-45.814-.293s2.975-3.51 2.975-9.068c0-3.51-.892-5.851-4.314-8.63-3.01-2.445-11.304-4.827-10.412-6.436.318-.573 4.333.993 7.289 1.609 3.005.626 4.623.224 3.123-.293-3.29-1.132-4.76-.292-10.412-4.973-5.652-4.68-3.353-12.188-2.975-13.602.744-2.78 11.007 2.779 13.387 0 2.38-2.78 6.396-4.242 13.09-3.51C57.986 10.353 59.176 23.37 65.275 26.15z" fill="#fff"/><path d="M20.502 14.157c-.476.468-1.389 1.852-1.785 2.486.05-.682.208-2.282.446-3.218.297-1.17.446-1.755 1.934-1.755 1.487 0 1.734.74 1.636 1.317-.149.877-.446 1.608-1.785 2.632-.262.201-1.041.585-1.19.585-.149 0-.297-.146.297-.585.596-.438 1.042-2.047.447-1.462z" fill="#00181B" stroke="#000"/><path d="M43.557 41.801c-1.547.82-5.008 1.414-6.545 1.609l-.297 4.827c18.206-3.16 28.708-15.553 31.534-21.209l-3.867-1.609c-5.236 7.723-12.892 12.19-16.065 13.457l.892.877h-2.082c.149 1.17 2.082 2.048 1.19 2.048-.714 0-1.983-.488-2.529-.731-.595 1.053-2.43 2.486-3.272 3.071.595-.936.942-1.95 1.041-2.34zM39.243 24.36c1.071-1.115 1.736-3.756 1.934-4.938-.446 1.61-2.082 5.207-5.057 6.728l-1.19.44c.495.145 1.844.38 3.272.145-.545 1.046-1.696 3.359-1.934 4.242-.297 1.105-.148 3.364 2.232 4.68-.15-.145-.447-.584-.447-1.17 1.934 1.324 6.813 2.974 10.859-1.013-1.636 1.393-4.016 2.152-6.843 1.52-2.26-.507-3.42-2.153-3.718-2.912-.357.607-.149 1.181 0 1.392-.893-.633-1.041-2.025-.595-3.291.357-1.013 1.537-3.63 2.082-4.81-.595.202-1.933.505-2.528.632.198-.084.862-.532 1.933-1.646z" fill="#E1E1E1"/><ellipse cx="36.565" cy="50.138" rx="1.339" ry="2.34" fill="#CDAE19"/><ellipse cx="35.971" cy="50.138" rx="1.339" ry="2.34" fill="#FFD300"/></g></svg>