<svg fill="none" xmlns="http://www.w3.org/2000/svg" viewBox="0 0 80 59"><path d="M79 29c0-6.63-2.653-12.99-7.376-17.678A25.28 25.28 0 0053.815 4h-28.63a25.28 25.28 0 00-17.809 7.322A24.908 24.908 0 000 29c0 6.63 2.653 12.99 7.376 17.678A25.28 25.28 0 0025.185 54h28.63a25.28 25.28 0 0017.809-7.322A24.908 24.908 0 0079 29z" fill="#E1E1E1"/><path d="M4.573 4h69.853v35.013H4.573V4z" fill="#F5F5F5"/><ellipse cx="15.064" cy="11.138" rx="6.375" ry="2.726" fill="#FF8139"/><path d="M9.108 20.491H41.74m-32.632 5H41.74m-32.632 5H41.74" stroke="#000" stroke-width=".3"/><path d="M9.929 20.242l2.24-2.419c-.27.806-.646 2.419 0 2.419.644 0 1.82-1.135 2.328-1.702 0 .567.233 1.702 1.164 1.702.932 0 2.12-1.135 2.598-1.702.956.298 4.909.86 13.078.716" stroke="#000" stroke-width=".5"/><path d="M50.549 23.751h3.28M60.507 23.751h1.192M54.759 23.952c-.214-.083-.513-.464 0-1.32.642-1.069 1.925-1.46.962.999l-.213.535c.558-.76 1.66-2.054 1.604-1.141-.057.913-.024 1.378 0 1.497.119-.297.642-.891 1.782-.891h.82M63.182 23.235a1.56 1.56 0 01-.27.6c-.116.146-.204.166-.242.157-.038-.01-.108-.066-.147-.249a1.56 1.56 0 01.026-.657c.06-.253.16-.464.27-.6.116-.147.204-.166.242-.157.038.009.108.065.147.248.037.17.033.404-.026.658zM63.504 23.353c.117-.027.434-.185.76-.598.407-.515-.054-.977-.136 1.358M66.327 23.235a1.56 1.56 0 01-.269.6c-.116.146-.204.166-.242.157-.039-.01-.109-.066-.148-.249a1.56 1.56 0 01.027-.657c.06-.253.16-.464.269-.6.116-.147.204-.166.242-.157.039.009.109.065.148.248.036.17.033.404-.027.658zM70.668 23.158a1.56 1.56 0 01-.269.6c-.117.147-.204.166-.243.157-.038-.009-.108-.066-.147-.248a1.56 1.56 0 01.026-.658c.06-.253.161-.464.27-.6.116-.146.204-.166.242-.157.038.009.108.066.148.249.036.17.033.404-.027.657zM66.648 23.353c.118-.027.435-.185.76-.598.408-.515-.054-.977-.135 1.358" stroke="#000" stroke-width=".3"/><path d="M69.377 22.894c-.22-.02-.563-.157-.173-.534.487-.472.77.267-.11 1.336-.881 1.07-.55-.283.283.095.666.302.927.43.975.456M65.275 22.068l-.551 2.133m3.66-2.026l-.552 2.133" stroke="#000" stroke-width=".3"/><path fill="#152D5D" d="M49.553 12.229h18.064v7.27H49.553z"/><path d="M53.98 14.365h-1.27l-.453.997c.474-.05 1.482-.024 1.723.484.303.635-.362 1.602-2.025 1.511M56.093 15.855c-.084.425-.24.787-.417 1.028-.185.252-.355.327-.47.304-.114-.023-.243-.158-.317-.461-.07-.29-.076-.684.01-1.11.084-.424.24-.785.417-1.026.185-.252.355-.328.47-.305.114.023.242.158.316.462.071.29.076.684-.008 1.108zM58.119 15.855c-.085.425-.24.787-.418 1.028-.185.252-.355.327-.47.304-.114-.023-.242-.158-.316-.461-.07-.29-.076-.684.009-1.11.084-.424.24-.785.417-1.026.185-.252.356-.328.47-.305.114.023.243.158.317.462.07.29.076.684-.01 1.108zM62.376 15.855c-.085.425-.241.787-.418 1.028-.185.252-.355.327-.47.304-.114-.023-.242-.158-.316-.461-.071-.29-.076-.684.009-1.11.084-.424.24-.785.417-1.026.185-.252.355-.328.47-.305.114.023.243.158.317.462.07.29.076.684-.01 1.108zM64.464 15.855c-.085.425-.241.787-.418 1.028-.185.252-.355.327-.47.304-.114-.023-.242-.158-.316-.461-.071-.29-.076-.684.008-1.11.085-.424.241-.785.418-1.026.185-.252.355-.328.47-.305.114.023.242.158.316.462.071.29.076.684-.008 1.108zM59.715 16.682c-.034.3-.237.993-.772 1.363M60.343 14.062c-.283-.069-1.043 0-1.286.72-.314.93.404 1.537 1.105 1.307m-1.46-1.307h1.46m-1.46.54h1.46" stroke="#fff" stroke-width=".3"/><path d="M53.61 29.197c.422-1.178.822-3.08-.95-1.266-2.215 2.268-4.905 8.123-.475 5.96 3.545-1.73 6.646-4.976 7.754-6.382-1.23 1.776-3.228 5.127-1.371 4.325 1.856-.802 3.13-2.092 3.534-2.637-.65 1.213-1.403 3.439.791 2.637s4.607-2.409 5.538-3.112" stroke="#000" stroke-width=".3"/></svg>