<svg xmlns="http://www.w3.org/2000/svg" fill="none" viewBox="0 0 80 59"><path fill="#E1E1E1" d="M80 31.778c0-6.602-2.687-12.934-7.47-17.603-4.783-4.668-11.27-7.291-18.033-7.291H25.503c-6.764 0-13.25 2.623-18.033 7.291C2.687 18.844 0 25.175 0 31.778c0 6.603 2.687 12.935 7.47 17.603 4.783 4.669 11.27 7.292 18.033 7.292h28.994c6.764 0 13.25-2.623 18.033-7.292 4.783-4.668 7.47-11 7.47-17.603z"/><path fill="#152D5D" d="M51.217 0H27.573C25.047 0 23 2.087 23 4.661v49.678C23 56.913 25.047 59 27.573 59h23.644c2.526 0 4.573-2.087 4.573-4.661V4.661C55.79 2.087 53.743 0 51.217 0z"/><path fill="#fff" d="M39.48 57.19c.926 0 1.678-.765 1.678-1.71s-.752-1.711-1.679-1.711-1.678.766-1.678 1.71c0 .946.751 1.712 1.678 1.712zM55.182 4.763h-31.58V52.41h31.58V4.763z"/><path fill="#FF8139" d="M45.36 11.7s-5.25-5.475-12.155-1.475c-7.611 4.396-2.53 12.449-4.793 17.7-3.444 7.983 3.236 11.263 7.178 9.198 4.416-2.313 3.82-7.906 8.473-10.702 4.654-2.797 5.713-10.461 1.297-14.721z"/><path fill="#00181B" d="M44.262 47.248s-4.666.49-7.172-5.358c-2.506-5.846-.718-9.746-3.351-15.34-2.634-5.593 5.261-11.334 10.28-6.218 5.018 5.115.075 5.239 5.498 13.405 5.424 8.165-.712 13.522-5.255 13.51z"/></svg>