<svg xmlns="http://www.w3.org/2000/svg" fill="none" viewBox="0 0 81 60"><path fill="#E1E1E1" d="M80.648 34.417c0-6.52-2.653-12.773-7.376-17.383-4.723-4.61-11.129-7.2-17.808-7.2h-28.63c-6.68 0-13.086 2.59-17.81 7.2-4.722 4.61-7.376 10.863-7.376 17.383S4.302 47.19 9.025 51.8c4.723 4.61 11.129 7.2 17.808 7.2h28.63c6.68 0 13.086-2.59 17.809-7.2 4.723-4.61 7.376-10.863 7.376-17.383z"/><path fill="#fff" d="M64.304 19.585L41.117 1.644 18.28 19.788v39.214h46.023V19.585z"/><path fill="#E1E1E1" d="M52.379 55.873H30.32v3.129h22.06v-3.129zM50.44 52.74H32.25v3.128h18.19v-3.129z"/><path fill="#0C2048" d="M41.23 34.628c-1.82 0-3.568.71-4.857 1.975a6.708 6.708 0 00-2.021 4.771v11.344H48.08V41.374a6.702 6.702 0 00-2.01-4.762 6.932 6.932 0 00-4.84-1.984z"/><path fill="#152D5D" d="M68.478 24.527l-26.235-20.4a1.528 1.528 0 00-1.883 0L14.108 24.514a1.537 1.537 0 01-2.131-.25 1.484 1.484 0 01-.303-1.105 1.475 1.475 0 01.582-.991L40.36.323a1.528 1.528 0 011.883 0L70.36 22.181a1.5 1.5 0 01.57 1 1.469 1.469 0 01-.32 1.102 1.543 1.543 0 01-2.131.245z"/><path fill="#FF8139" d="M45.404 15.968h-8.81V26.93h8.81V15.968z"/><path fill="#152D5D" d="M18.285 17.465V7.172h5.386v6.108l-5.386 4.185z"/></svg>