<svg fill="none" xmlns="http://www.w3.org/2000/svg" viewBox="0 0 80 70"><path d="M79 40c0-6.63-2.653-12.99-7.376-17.678A25.28 25.28 0 0053.815 15h-28.63a25.28 25.28 0 00-17.809 7.322A24.908 24.908 0 000 40c0 6.63 2.653 12.99 7.376 17.678A25.28 25.28 0 0025.185 65h28.63a25.28 25.28 0 0017.809-7.322A24.908 24.908 0 0079 40z" fill="#E1E1E1"/><path d="M44 22c-3.5 5.167-10.3 20.9-9.5 42.5" stroke="#24AD79" stroke-width="2"/><ellipse rx="8.492" ry="1.108" transform="scale(-1 1) rotate(13.624 -110.05 -203.87)" fill="#FF8139"/><ellipse rx="8.492" ry="1.108" transform="scale(-1 1) rotate(22.727 -70.334 -116.924)" fill="#FF8139"/><ellipse rx="8.492" ry="1.108" transform="scale(-1 1) rotate(35.229 -50.141 -70.003)" fill="#FF8139"/><ellipse rx="8.492" ry="1.108" transform="scale(-1 1) rotate(43.031 -42.327 -53.674)" fill="#FF8139"/><ellipse rx="9.586" ry="1.108" transform="scale(-1 1) rotate(53.099 -35.716 -41.512)" fill="#FF8139"/><ellipse rx="8.492" ry="1.108" transform="scale(-1 1) rotate(66.213 -31.822 -28.295)" fill="#FF8139"/><ellipse rx="8.492" ry="1.108" transform="scale(-1 1) rotate(75.216 -29.067 -21.866)" fill="#FF8139"/><ellipse rx="8.492" ry="1.108" transform="scale(-1 1) rotate(87.886 -26.43 -15.84)" fill="#FF8139"/><ellipse rx="8.737" ry="1.108" transform="scale(1 -1) rotate(-76.297 12.798 -30.326)" fill="#FF8139"/><ellipse rx="8.492" ry="1.108" transform="scale(1 -1) rotate(-76.297 .95 -44.024)" fill="#FF8139"/><ellipse rx="8.492" ry="1.108" transform="scale(-1 1) rotate(-61.376 4.269 54.45)" fill="#FF8139"/><ellipse rx="9.583" ry="1.108" transform="scale(-1 1) rotate(-52.273 8.506 65.03)" fill="#FF8139"/><ellipse rx="9.648" ry="1.108" transform="scale(-1 1) rotate(-39.771 16.872 84.266)" fill="#FF8139"/><ellipse rx="9.802" ry="1.108" transform="scale(-1 1) rotate(-31.969 23.72 103.921)" fill="#FF8139"/><ellipse rx="8.492" ry="1.108" transform="scale(-1 1) rotate(-21.901 41.55 146.224)" fill="#FF8139"/><ellipse rx="8.492" ry="1.108" transform="scale(-1 1) rotate(-8.787 130.534 348.033)" fill="#FF8139"/><ellipse rx="10.484" ry="1.108" transform="matrix(-1 .00378 .00378 1 53.492 21.895)" fill="#FF8139"/><ellipse rx="9.092" ry="1.108" transform="scale(-1 1) rotate(12.886 -115.347 -221.66)" fill="#FF8139"/><ellipse rx="8.492" ry="1.108" transform="scale(1 -1) rotate(13.624 117.043 120.202)" fill="#FF8139"/><ellipse rx="8.492" ry="1.108" transform="scale(1 -1) rotate(22.727 81.424 66.702)" fill="#FF8139"/><ellipse rx="8.492" ry="1.108" transform="scale(1 -1) rotate(35.229 61.103 38.09)" fill="#FF8139"/><ellipse rx="8.492" ry="1.108" transform="scale(1 -1) rotate(43.031 55.315 29.062)" fill="#FF8139"/><ellipse rx="8.807" ry="1.108" transform="scale(1 -1) rotate(53.099 49.662 19.863)" fill="#FF8139"/><ellipse rx="8.492" ry="1.108" transform="scale(1 -1) rotate(66.213 43.567 12.954)" fill="#FF8139"/><ellipse rx="9.817" ry="1.108" transform="scale(1 -1) rotate(75.216 41.761 8.782)" fill="#FF8139"/><ellipse rx="9.616" ry="1.108" transform="scale(1 -1) rotate(87.886 38.516 4.308)" fill="#FF8139"/><ellipse rx="8.492" ry="1.108" transform="scale(1 -1) rotate(-61.376 8.246 -37.435)" fill="#FF8139"/><ellipse rx="8.492" ry="1.108" transform="scale(1 -1) rotate(-52.273 4.105 -42.567)" fill="#FF8139"/><ellipse rx="8.757" ry="1.108" transform="scale(1 -1) rotate(-39.771 -3.55 -53.508)" fill="#FF8139"/><ellipse rx="8.492" ry="1.108" transform="scale(1 -1) rotate(-31.969 -13.027 -64.952)" fill="#FF8139"/><ellipse rx="8.98" ry="1.108" transform="scale(1 -1) rotate(-21.901 -31.516 -88.484)" fill="#FF8139"/><ellipse rx="8.429" ry="1.108" transform="scale(1 -1) rotate(-8.787 -116.907 -212.909)" fill="#FF8139"/><ellipse rx="9.259" ry="1.108" transform="scale(1 -1) rotate(.216 5963.96 8050.865)" fill="#FF8139"/><ellipse rx="8.492" ry="1.108" transform="scale(1 -1) rotate(12.886 122.197 125.107)" fill="#FF8139"/><ellipse rx="7.197" ry=".939" transform="scale(-1 1) rotate(20.088 -79.254 -138.167)" fill="#D3662F"/><ellipse rx="7.197" ry=".939" transform="scale(-1 1) rotate(29.191 -58.669 -90.662)" fill="#D3662F"/><ellipse rx="9.053" ry=".939" transform="scale(-1 1) rotate(41.693 -44.744 -61.088)" fill="#D3662F"/><ellipse rx="7.197" ry=".939" transform="scale(-1 1) rotate(49.495 -40.044 -46.138)" fill="#D3662F"/><ellipse rx="7.197" ry=".939" transform="scale(-1 1) rotate(59.563 -35.374 -35.37)" fill="#D3662F"/><ellipse rx="7.959" ry=".939" transform="scale(-1 1) rotate(72.677 -31.394 -25.606)" fill="#D3662F"/><ellipse rx="9.617" ry=".939" transform="scale(-1 1) rotate(81.681 -28.29 -20.84)" fill="#D3662F"/><ellipse rx="8.457" ry=".939" transform="scale(1 -1) rotate(-85.65 15.644 -28.664)" fill="#D3662F"/><ellipse rx="7.197" ry=".939" transform="scale(1 -1) rotate(-69.833 12.004 -35.76)" fill="#D3662F"/><ellipse rx="7.197" ry=".939" transform="scale(1 -1) rotate(-69.833 1.995 -48.73)" fill="#D3662F"/><ellipse rx="8.255" ry=".939" transform="scale(-1 1) rotate(-54.912 4.436 62.62)" fill="#D3662F"/><ellipse rx="6.16" ry=".939" transform="scale(-1 1) rotate(-45.809 7.916 72.411)" fill="#D3662F"/><ellipse rx="8.353" ry=".939" transform="scale(-1 1) rotate(-33.307 19.792 101.436)" fill="#D3662F"/><ellipse rx="7.197" ry=".939" transform="scale(-1 1) rotate(-25.505 29.427 128.145)" fill="#D3662F"/><ellipse rx="9.668" ry=".939" transform="scale(-1 1) rotate(-15.437 62.123 217.221)" fill="#D3662F"/><ellipse rx="7.197" ry=".939" transform="scale(-1 1) rotate(-2.323 515.977 1319.954)" fill="#D3662F"/><ellipse rx="8.393" ry=".939" transform="scale(-1 1) rotate(6.681 -199.042 -452.144)" fill="#D3662F"/><ellipse rx="7.197" ry=".939" transform="scale(-1 1) rotate(19.35 -81.636 -145.493)" fill="#D3662F"/><ellipse rx="7.197" ry=".939" transform="scale(1 -1) rotate(20.088 85.989 90.245)" fill="#D3662F"/><ellipse rx="7.197" ry=".939" transform="scale(1 -1) rotate(29.191 67.879 57.85)" fill="#D3662F"/><ellipse rx="7.197" ry=".939" transform="scale(1 -1) rotate(41.693 54.856 36.133)" fill="#D3662F"/><ellipse rx="7.197" ry=".939" transform="scale(1 -1) rotate(49.495 50.7 28.436)" fill="#D3662F"/><ellipse rx="9.369" ry=".939" transform="scale(1 -1) rotate(59.563 47.411 18.63)" fill="#D3662F"/><ellipse rx="7.197" ry=".939" transform="scale(1 -1) rotate(72.677 41.61 13.64)" fill="#D3662F"/><ellipse rx="8.992" ry=".939" transform="scale(1 -1) rotate(81.681 40.442 9.286)" fill="#D3662F"/><ellipse rx="7.915" ry=".939" transform="scale(-1 1) rotate(-85.65 -5.759 40.22)" fill="#D3662F"/><ellipse rx="7.197" ry=".939" transform="scale(1 -1) rotate(-54.912 6.915 -45)" fill="#D3662F"/><ellipse rx="7.197" ry=".939" transform="scale(1 -1) rotate(-45.809 1.965 -52.535)" fill="#D3662F"/><ellipse rx="8.196" ry=".939" transform="scale(1 -1) rotate(-33.307 -7.678 -68.2)" fill="#D3662F"/><ellipse rx="7.197" ry=".939" transform="scale(1 -1) rotate(-25.505 -21.014 -88.82)" fill="#D3662F"/><ellipse rx="8.992" ry=".939" transform="scale(1 -1) rotate(-15.437 -52.089 -133.22)" fill="#D3662F"/><ellipse rx="7.197" ry=".939" transform="scale(1 -1) rotate(-2.323 -496.745 -884.051)" fill="#D3662F"/><ellipse rx="7.197" ry=".939" transform="scale(1 -1) rotate(6.681 211.807 294.89)" fill="#D3662F"/><ellipse rx="7.197" ry=".939" transform="scale(1 -1) rotate(19.35 88.327 92.654)" fill="#D3662F"/><ellipse rx="6.115" ry=".798" transform="scale(-1 1) rotate(26.374 -64.702 -100.807)" fill="#FF8139"/><ellipse rx="6.115" ry=".798" transform="scale(-1 1) rotate(35.477 -51.77 -71.043)" fill="#FF8139"/><ellipse rx="6.115" ry=".798" transform="scale(-1 1) rotate(47.978 -42.447 -48.112)" fill="#FF8139"/><ellipse rx="6.115" ry=".798" transform="scale(-1 1) rotate(55.78 -38.108 -38.39)" fill="#FF8139"/><ellipse rx="6.115" ry=".798" transform="scale(-1 1) rotate(65.848 -34.303 -29.651)" fill="#FF8139"/><ellipse rx="8.763" ry=".798" transform="scale(-1 1) rotate(78.962 -29.9 -22.618)" fill="#FF8139"/><ellipse rx="6.115" ry=".798" transform="scale(-1 1) rotate(87.966 -29.263 -16.122)" fill="#FF8139"/><ellipse rx="6.115" ry=".798" transform="scale(1 -1) rotate(-79.365 13.47 -32.752)" fill="#FF8139"/><ellipse rx="6.115" ry=".798" transform="scale(1 -1) rotate(-63.548 9.858 -40.511)" fill="#FF8139"/><ellipse rx="6.115" ry=".798" transform="scale(1 -1) rotate(-63.548 1.284 -52.98)" fill="#FF8139"/><ellipse rx="6.115" ry=".798" transform="scale(-1 1) rotate(-48.626 5.686 68.55)" fill="#FF8139"/><ellipse rx="6.115" ry=".798" transform="scale(-1 1) rotate(-39.523 11.534 83.789)" fill="#FF8139"/><ellipse rx="8.653" ry=".798" transform="scale(-1 1) rotate(-27.022 27.801 125.222)" fill="#FF8139"/><ellipse rx="6.115" ry=".798" transform="scale(-1 1) rotate(-19.22 43.638 165.754)" fill="#FF8139"/><ellipse rx="6.115" ry=".798" transform="scale(-1 1) rotate(-9.152 112.953 340.675)" fill="#FF8139"/><ellipse rx="6.115" ry=".798" transform="scale(-1 1) rotate(3.962 -327.84 -748.288)" fill="#FF8139"/><ellipse rx="6.115" ry=".798" transform="scale(-1 1) rotate(12.966 -111.362 -219.35)" fill="#FF8139"/><ellipse rx="6.115" ry=".798" transform="scale(-1 1) rotate(25.635 -66.01 -105.112)" fill="#FF8139"/><ellipse rx="6.115" ry=".798" transform="scale(1 -1) rotate(26.374 70.78 69.962)" fill="#FF8139"/><ellipse rx="6.115" ry=".798" transform="scale(1 -1) rotate(35.477 59.5 48.37)" fill="#FF8139"/><ellipse rx="6.115" ry=".798" transform="scale(1 -1) rotate(47.978 50.186 31.763)" fill="#FF8139"/><ellipse rx="6.115" ry=".798" transform="scale(1 -1) rotate(55.78 46.939 25.393)" fill="#FF8139"/><ellipse rx="6.115" ry=".798" transform="scale(1 -1) rotate(65.848 43.426 18.609)" fill="#FF8139"/><ellipse rx="6.115" ry=".798" transform="scale(1 -1) rotate(78.962 39.498 12.386)" fill="#FF8139"/><ellipse rx="6.115" ry=".798" transform="scale(1 -1) rotate(87.966 37.69 9.28)" fill="#FF8139"/><ellipse rx="6.115" ry=".798" transform="scale(-1 1) rotate(-79.365 -5.954 42.668)" fill="#FF8139"/><ellipse rx="6.115" ry=".798" transform="scale(1 -1) rotate(-48.626 3.73 -52.216)" fill="#FF8139"/><ellipse rx="6.115" ry=".798" transform="scale(1 -1) rotate(-39.523 -2.508 -62.618)" fill="#FF8139"/><ellipse rx="6.115" ry=".798" transform="scale(1 -1) rotate(-27.022 -16.74 -88.467)" fill="#FF8139"/><ellipse rx="6.115" ry=".798" transform="scale(1 -1) rotate(-19.22 -36.622 -121.115)" fill="#FF8139"/><ellipse rx="6.115" ry=".798" transform="scale(1 -1) rotate(-9.152 -107.022 -242.558)" fill="#FF8139"/><ellipse rx="6.115" ry=".798" transform="scale(1 -1) rotate(3.962 330.183 530.9)" fill="#FF8139"/><ellipse rx="6.115" ry=".798" transform="scale(1 -1) rotate(12.966 120.226 155.281)" fill="#FF8139"/><ellipse rx="6.115" ry=".798" transform="scale(1 -1) rotate(25.635 72.173 71.385)" fill="#FF8139"/><ellipse rx="4.363" ry=".569" transform="scale(-1 1) rotate(31.633 -57.573 -79.274)" fill="#D3662F"/><ellipse rx="4.363" ry=".569" transform="scale(-1 1) rotate(40.736 -48.312 -58.012)" fill="#D3662F"/><ellipse rx="4.363" ry=".569" transform="scale(-1 1) rotate(53.238 -40.992 -40.275)" fill="#D3662F"/><ellipse rx="4.363" ry=".569" transform="scale(-1 1) rotate(61.04 -37.511 -32.407)" fill="#D3662F"/><ellipse rx="5.244" ry=".837" transform="scale(-1 1) rotate(71.108 -33.658 -25.507)" fill="#D3662F"/><ellipse rx="4.363" ry=".569" transform="scale(-1 1) rotate(84.222 -31.497 -17.583)" fill="#D3662F"/><ellipse rx="4.363" ry=".569" transform="scale(1 -1) rotate(-86.775 14.088 -31.488)" fill="#D3662F"/><ellipse rx="4.363" ry=".569" transform="scale(1 -1) rotate(-74.105 11.636 -36.85)" fill="#D3662F"/><ellipse rx="4.363" ry=".569" transform="scale(1 -1) rotate(-58.288 7.29 -46.344)" fill="#D3662F"/><ellipse rx="4.363" ry=".569" transform="scale(1 -1) rotate(-58.288 1.123 -56.256)" fill="#D3662F"/><ellipse rx="5.621" ry=".795" transform="scale(-1 1) rotate(-43.367 7.226 76.246)" fill="#D3662F"/><ellipse rx="4.363" ry=".569" transform="scale(-1 1) rotate(-34.264 14.354 93.374)" fill="#D3662F"/><ellipse rx="5.423" ry=".903" transform="scale(-1 1) rotate(-21.762 36.598 145.937)" fill="#D3662F"/><ellipse rx="4.363" ry=".569" transform="scale(-1 1) rotate(-13.96 64.938 219.01)" fill="#D3662F"/><ellipse rx="5.658" ry=".838" transform="scale(-1 1) rotate(-3.892 282.57 784.18)" fill="#D3662F"/><ellipse rx="4.363" ry=".569" transform="scale(-1 1) rotate(9.222 -150.517 -306.06)" fill="#D3662F"/><ellipse rx="4.363" ry=".569" transform="scale(-1 1) rotate(18.225 -84.987 -148.121)" fill="#D3662F"/><ellipse rx="5.733" ry=".763" transform="scale(-1 1) rotate(30.895 -58.03 -84.708)" fill="#D3662F"/><ellipse rx="4.363" ry=".569" transform="scale(1 -1) rotate(31.633 62.04 61.038)" fill="#D3662F"/><ellipse rx="4.363" ry=".569" transform="scale(1 -1) rotate(40.736 53.782 44.088)" fill="#D3662F"/><ellipse rx="4.363" ry=".569" transform="scale(1 -1) rotate(53.238 46.48 29.93)" fill="#D3662F"/><ellipse rx="4.363" ry=".569" transform="scale(1 -1) rotate(61.04 43.698 24.14)" fill="#D3662F"/><ellipse rx="4.363" ry=".569" transform="scale(1 -1) rotate(71.108 40.7 17.947)" fill="#D3662F"/><ellipse rx="4.363" ry=".569" transform="scale(1 -1) rotate(84.222 37.355 12.01)" fill="#D3662F"/><ellipse rx="4.363" ry=".569" transform="scale(-1 1) rotate(-86.775 -9.437 37.784)" fill="#D3662F"/><ellipse rx="4.363" ry=".569" transform="scale(-1 1) rotate(-74.105 -6.305 44.6)" fill="#D3662F"/><ellipse rx="5.778" ry=".839" transform="scale(1 -1) rotate(-43.367 .313 -59.343)" fill="#D3662F"/><ellipse rx="4.363" ry=".569" transform="scale(1 -1) rotate(-34.264 -7.837 -75.742)" fill="#D3662F"/><ellipse rx="4.363" ry=".569" transform="scale(1 -1) rotate(-21.762 -27.953 -115.212)" fill="#D3662F"/><ellipse rx="5.621" ry=".921" transform="scale(1 -1) rotate(-13.96 -58.19 -170.057)" fill="#D3662F"/><ellipse rx="4.363" ry=".569" transform="scale(1 -1) rotate(-3.892 -284.14 -600.287)" fill="#D3662F"/><ellipse rx="5.472" ry=".834" transform="scale(1 -1) rotate(9.222 156.777 232.705)" fill="#D3662F"/><ellipse rx="4.363" ry=".569" transform="scale(1 -1) rotate(18.225 91.126 115.75)" fill="#D3662F"/><ellipse rx="4.363" ry=".569" transform="scale(1 -1) rotate(30.895 63.025 62.257)" fill="#D3662F"/><ellipse rx="1.94" ry=".253" transform="scale(-1 1) rotate(31.633 -59.218 -74.64)" fill="#FF8139"/><ellipse rx="2.629" ry=".253" transform="scale(-1 1) rotate(40.736 -49.83 -55.383)" fill="#FF8139"/><ellipse rx="1.94" ry=".253" transform="scale(-1 1) rotate(53.238 -42.806 -37.612)" fill="#FF8139"/><ellipse rx="2.512" ry=".253" transform="scale(-1 1) rotate(61.04 -39.212 -30.764)" fill="#FF8139"/><ellipse rx="2.144" ry=".253" transform="scale(-1 1) rotate(71.108 -36.212 -23.327)" fill="#FF8139"/><ellipse rx="2.386" ry=".253" transform="scale(-1 1) rotate(84.222 -33.125 -16.365)" fill="#FF8139"/><ellipse rx="1.94" ry=".253" transform="scale(1 -1) rotate(-86.775 12.86 -33.461)" fill="#FF8139"/><ellipse rx="2.941" ry=".253" transform="scale(1 -1) rotate(-74.105 10.7 -38.603)" fill="#FF8139"/><ellipse rx="1.94" ry=".253" transform="scale(1 -1) rotate(-58.288 5.506 -49.5)" fill="#FF8139"/><ellipse rx="2.668" ry=".253" transform="scale(1 -1) rotate(-58.288 2.399 -54.561)" fill="#FF8139"/><ellipse rx="1.94" ry=".253" transform="scale(-1 1) rotate(-43.367 5.07 71.31)" fill="#FF8139"/><ellipse rx="3.428" ry=".253" transform="scale(-1 1) rotate(-34.264 13.438 91.446)" fill="#FF8139"/><ellipse rx="2.429" ry=".253" transform="scale(-1 1) rotate(-21.762 33.761 137.64)" fill="#FF8139"/><ellipse rx="1.94" ry=".253" transform="scale(-1 1) rotate(-13.96 64.235 208.054)" fill="#FF8139"/><ellipse rx="3.237" ry=".253" transform="scale(-1 1) rotate(-3.892 288.57 742.65)" fill="#FF8139"/><ellipse rx="1.94" ry=".253" transform="scale(-1 1) rotate(9.222 -152.91 -289.244)" fill="#FF8139"/><ellipse rx="2.646" ry=".253" transform="scale(-1 1) rotate(18.225 -87.045 -142.133)" fill="#FF8139"/><ellipse rx="1.94" ry=".253" transform="scale(-1 1) rotate(30.895 -60.13 -77.04)" fill="#FF8139"/><ellipse rx="1.94" ry=".253" transform="scale(1 -1) rotate(31.633 61.205 66.53)" fill="#FF8139"/><ellipse rx="2.876" ry=".253" transform="scale(1 -1) rotate(40.736 53.074 47.002)" fill="#FF8139"/><ellipse rx="1.94" ry=".253" transform="scale(1 -1) rotate(53.238 45.247 33.012)" fill="#FF8139"/><ellipse rx="1.94" ry=".253" transform="scale(1 -1) rotate(61.04 42.249 26.603)" fill="#FF8139"/><ellipse rx="2.941" ry=".253" transform="scale(1 -1) rotate(71.108 39.666 19.337)" fill="#FF8139"/><ellipse rx="1.94" ry=".253" transform="scale(1 -1) rotate(84.222 35.953 13.641)" fill="#FF8139"/><ellipse rx="2.757" ry=".253" transform="scale(-1 1) rotate(-86.775 -10.383 36.693)" fill="#FF8139"/><ellipse rx="2.405" ry=".253" transform="scale(-1 1) rotate(-74.105 -7.597 43.019)" fill="#FF8139"/><ellipse rx="1.94" ry=".253" transform="scale(1 -1) rotate(-43.367 -2.008 -65.384)" fill="#FF8139"/><ellipse rx="2.537" ry=".253" transform="scale(1 -1) rotate(-34.264 -9.465 -80.212)" fill="#FF8139"/><ellipse rx="1.94" ry=".253" transform="scale(1 -1) rotate(-21.762 -30.24 -123.845)" fill="#FF8139"/><ellipse rx="2.506" ry=".253" transform="scale(1 -1) rotate(-13.96 -61.782 -186.163)" fill="#FF8139"/><ellipse rx="2.178" ry=".253" transform="scale(1 -1) rotate(-3.892 -286.72 -646.8)" fill="#FF8139"/><ellipse rx="2.836" ry=".253" transform="scale(1 -1) rotate(9.222 155.028 254.069)" fill="#FF8139"/><ellipse rx="1.94" ry=".253" transform="scale(1 -1) rotate(18.225 90.063 125.546)" fill="#FF8139"/><ellipse rx="1.94" ry=".253" transform="scale(1 -1) rotate(30.895 62.161 68.21)" fill="#FF8139"/><ellipse rx=".749" ry=".098" transform="scale(-1 1) rotate(-8.918 111.217 315.1)" fill="#D3662F"/><ellipse rx="1.193" ry=".098" transform="matrix(-1 .00324 .00324 1 47.977 20.86)" fill="#D3662F"/><ellipse rx=".749" ry=".098" transform="scale(-1 1) rotate(12.687 -116.692 -203.36)" fill="#D3662F"/><ellipse rx="1.022" ry=".098" transform="scale(-1 1) rotate(20.489 -80.23 -121.767)" fill="#D3662F"/><ellipse rx="1.14" ry=".098" transform="scale(-1 1) rotate(30.557 -60.669 -77.32)" fill="#D3662F"/><ellipse rx=".749" ry=".098" transform="scale(-1 1) rotate(43.671 -48.825 -48.88)" fill="#D3662F"/><ellipse rx="1.031" ry=".098" transform="scale(-1 1) rotate(52.675 -43.697 -37.819)" fill="#D3662F"/><ellipse rx=".749" ry=".098" transform="scale(-1 1) rotate(65.344 -39.08 -26.658)" fill="#D3662F"/><ellipse rx="1.116" ry=".098" transform="scale(-1 1) rotate(81.161 -34.855 -17.615)" fill="#D3662F"/><ellipse rx=".749" ry=".098" transform="scale(-1 1) rotate(81.161 -35.959 -16.216)" fill="#D3662F"/><ellipse rx=".749" ry=".098" transform="scale(-1 1) rotate(-83.918 -11.181 36.857)" fill="#D3662F"/><ellipse rx=".749" ry=".098" transform="scale(-1 1) rotate(-74.815 -9.155 41.528)" fill="#D3662F"/><ellipse rx=".749" ry=".098" transform="scale(-1 1) rotate(-62.313 -5.527 49.759)" fill="#D3662F"/><ellipse rx=".749" ry=".098" transform="scale(-1 1) rotate(-54.511 -2.6 56.61)" fill="#D3662F"/><ellipse rx="1.099" ry=".098" transform="scale(-1 1) rotate(-44.443 2.87 69.135)" fill="#D3662F"/><ellipse rx=".749" ry=".098" transform="scale(-1 1) rotate(-31.329 14.415 95.229)" fill="#D3662F"/><ellipse rx="1.179" ry=".098" transform="scale(-1 1) rotate(-22.325 30.2 131.983)" fill="#D3662F"/><ellipse rx=".749" ry=".098" transform="scale(-1 1) rotate(-9.656 101 292.018)" fill="#D3662F"/><ellipse rx=".749" ry=".098" transform="scale(1 -1) rotate(-8.918 -109.934 -303.873)" fill="#D3662F"/><ellipse rx="1.244" ry=".098" transform="matrix(1 -.00324 -.00324 -1 45.25 20.903)" fill="#D3662F"/><ellipse rx=".749" ry=".098" transform="scale(1 -1) rotate(12.687 117.782 195.282)" fill="#D3662F"/><ellipse rx="1.121" ry=".098" transform="scale(1 -1) rotate(20.489 81.997 115.131)" fill="#D3662F"/><ellipse rx=".989" ry=".098" transform="scale(1 -1) rotate(30.557 62.337 72.808)" fill="#D3662F"/><ellipse rx=".875" ry=".098" transform="scale(1 -1) rotate(43.671 49.992 46.476)" fill="#D3662F"/><ellipse rx=".749" ry=".098" transform="scale(1 -1) rotate(52.675 44.982 35.795)" fill="#D3662F"/><ellipse rx="1.217" ry=".098" transform="scale(1 -1) rotate(65.344 40.354 24.82)" fill="#D3662F"/><ellipse rx=".749" ry=".098" transform="scale(1 -1) rotate(-83.918 12.232 -35.898)" fill="#D3662F"/><ellipse rx="1.027" ry=".098" transform="scale(1 -1) rotate(-74.815 10.318 -40.157)" fill="#D3662F"/><ellipse rx="1.28" ry=".098" transform="scale(1 -1) rotate(-62.313 6.837 -47.825)" fill="#D3662F"/><ellipse rx=".749" ry=".098" transform="scale(1 -1) rotate(-54.511 3.503 -54.805)" fill="#D3662F"/><ellipse rx="1.228" ry=".098" transform="scale(1 -1) rotate(-44.443 -1.54 -65.751)" fill="#D3662F"/><ellipse rx=".749" ry=".098" transform="scale(1 -1) rotate(-31.329 -13.413 -91.968)" fill="#D3662F"/><ellipse rx=".895" ry=".098" transform="scale(1 -1) rotate(-22.325 -29.127 -125.97)" fill="#D3662F"/><ellipse rx="1.091" ry=".098" transform="scale(1 -1) rotate(-9.656 -99.42 -279.012)" fill="#D3662F"/><ellipse rx=".348" ry=".045" transform="scale(-1 1) rotate(33.173 -58.142 -68.505)" fill="#FF8139"/><ellipse rx=".348" ry=".045" transform="scale(-1 1) rotate(42.276 -50.064 -50.38)" fill="#FF8139"/><ellipse rx=".348" ry=".045" transform="scale(-1 1) rotate(54.778 -43.217 -34.95)" fill="#FF8139"/><ellipse rx=".348" ry=".045" transform="scale(-1 1) rotate(62.58 -40.221 -28.235)" fill="#FF8139"/><ellipse rx=".348" ry=".045" transform="scale(-1 1) rotate(72.648 -37.236 -21.542)" fill="#FF8139"/><ellipse rx=".348" ry=".045" transform="scale(-1 1) rotate(85.762 -34.304 -14.882)" fill="#FF8139"/><ellipse rx=".348" ry=".045" transform="scale(1 -1) rotate(-85.234 12.154 -35.502)" fill="#FF8139"/><ellipse rx=".348" ry=".045" transform="scale(1 -1) rotate(-72.565 9.31 -41.859)" fill="#FF8139"/><ellipse rx=".348" ry=".045" transform="scale(1 -1) rotate(-56.748 4.253 -53.16)" fill="#FF8139"/><ellipse rx=".348" ry=".045" transform="scale(1 -1) rotate(-56.748 3.76 -53.976)" fill="#FF8139"/><ellipse rx=".348" ry=".045" transform="scale(-1 1) rotate(-41.827 4.264 71.969)" fill="#FF8139"/><ellipse rx=".348" ry=".045" transform="scale(-1 1) rotate(-32.724 12.483 90.546)" fill="#FF8139"/><ellipse rx=".348" ry=".045" transform="scale(-1 1) rotate(-20.222 35.478 142.327)" fill="#FF8139"/><ellipse rx=".348" ry=".045" transform="scale(-1 1) rotate(-12.42 72.734 226.578)" fill="#FF8139"/><ellipse rx=".348" ry=".045" transform="scale(-1 1) rotate(-2.352 484.787 1156.65)" fill="#FF8139"/><ellipse rx=".348" ry=".045" transform="scale(-1 1) rotate(10.762 -133.865 -239.259)" fill="#FF8139"/><ellipse rx=".348" ry=".045" transform="scale(-1 1) rotate(19.766 -82.93 -124.523)" fill="#FF8139"/><ellipse rx=".348" ry=".045" transform="scale(-1 1) rotate(32.435 -58.977 -70.448)" fill="#FF8139"/><ellipse rx=".348" ry=".045" transform="scale(1 -1) rotate(33.173 58.498 67.12)" fill="#FF8139"/><ellipse rx=".348" ry=".045" transform="scale(1 -1) rotate(42.276 50.497 49.314)" fill="#FF8139"/><ellipse rx=".348" ry=".045" transform="scale(1 -1) rotate(54.778 43.653 34.152)" fill="#FF8139"/><ellipse rx=".348" ry=".045" transform="scale(1 -1) rotate(62.58 40.71 27.596)" fill="#FF8139"/><ellipse rx=".348" ry=".045" transform="scale(1 -1) rotate(72.648 37.745 20.995)" fill="#FF8139"/><ellipse rx=".348" ry=".045" transform="scale(1 -1) rotate(85.762 34.768 14.45)" fill="#FF8139"/><ellipse rx=".348" ry=".045" transform="scale(-1 1) rotate(-85.234 -11.785 36.015)" fill="#FF8139"/><ellipse rx=".348" ry=".045" transform="scale(-1 1) rotate(-72.565 -8.885 42.493)" fill="#FF8139"/><ellipse rx=".348" ry=".045" transform="scale(1 -1) rotate(-41.827 -3.713 -70.863)" fill="#FF8139"/><ellipse rx=".348" ry=".045" transform="scale(1 -1) rotate(-32.724 -11.954 -89.068)" fill="#FF8139"/><ellipse rx=".348" ry=".045" transform="scale(1 -1) rotate(-20.222 -34.885 -139.907)" fill="#FF8139"/><ellipse rx=".348" ry=".045" transform="scale(1 -1) rotate(-12.42 -72.355 -222.63)" fill="#FF8139"/><ellipse rx=".348" ry=".045" transform="scale(1 -1) rotate(-2.352 -484.79 -1134.912)" fill="#FF8139"/><ellipse rx=".348" ry=".045" transform="scale(1 -1) rotate(10.762 134.192 234.712)" fill="#FF8139"/><ellipse rx=".348" ry=".045" transform="scale(1 -1) rotate(19.766 83.406 122.15)" fill="#FF8139"/><ellipse rx=".348" ry=".045" transform="scale(1 -1) rotate(32.435 59.347 68.943)" fill="#FF8139"/></svg>