<svg xmlns="http://www.w3.org/2000/svg" fill="none" viewBox="0 0 80 60"><path fill="#E1E1E1" d="M80 34.42c0-6.52-2.653-12.774-7.376-17.384-4.724-4.61-11.13-7.2-17.809-7.2h-28.63c-6.68 0-13.085 2.59-17.809 7.2C3.653 21.646 1 27.9 1 34.42s2.653 12.773 7.376 17.383c4.724 4.61 11.13 7.2 17.809 7.2h28.63c6.68 0 13.085-2.59 17.809-7.2C77.347 47.192 80 40.94 80 34.42z"/><path fill="#fff" d="M63.656 19.586L40.468 1.645 17.633 19.789v39.214h46.023V19.586z"/><path fill="#E1E1E1" d="M51.73 55.875H29.672v3.129H51.73v-3.129zM49.792 52.738h-18.19v3.129h18.19v-3.129z"/><path fill="#0C2048" d="M40.582 34.629c-1.821 0-3.568.71-4.858 1.975a6.708 6.708 0 00-2.02 4.772v11.343H47.43V41.376a6.702 6.702 0 00-2.009-4.763 6.932 6.932 0 00-4.84-1.984z"/><path fill="#152D5D" d="M67.83 24.527l-26.236-20.4a1.528 1.528 0 00-1.882 0L13.458 24.514a1.537 1.537 0 01-2.13-.25 1.484 1.484 0 01-.303-1.105 1.475 1.475 0 01.581-.991L39.712.323a1.528 1.528 0 011.882 0l28.118 21.858a1.5 1.5 0 01.569 1 1.468 1.468 0 01-.32 1.102 1.543 1.543 0 01-2.131.245z"/><path fill="#FF8139" d="M44.755 15.969h-8.81V26.93h8.81V15.97z"/><path fill="#152D5D" d="M17.637 17.465V7.172h5.385v6.108l-5.385 4.185z"/></svg>