<svg fill="none" xmlns="http://www.w3.org/2000/svg" viewBox="0 0 80 61"><path d="M80 32.975c0-6.129-2.653-12.006-7.376-16.34-4.724-4.334-11.13-6.768-17.809-6.768h-28.63c-6.68 0-13.085 2.434-17.809 6.768C3.653 20.969 1 26.846 1 32.975s2.653 12.006 7.376 16.34c4.724 4.334 11.13 6.768 17.809 6.768h28.63c6.68 0 13.085-2.434 17.809-6.768C77.347 44.981 80 39.104 80 32.975z" fill="#E1E1E1"/><mask id="a" maskUnits="userSpaceOnUse" x="1" y="-3" width="79" height="60"><path d="M80 26.583c0-7.824-2.653-15.327-7.376-20.86-4.724-5.532-11.13-8.64-17.809-8.64h-28.63c-6.68 0-13.085 3.108-17.809 8.64C3.653 11.257 1 18.76 1 26.584s2.653 15.328 7.376 20.86c4.724 5.532 11.13 8.64 17.809 8.64h28.63c6.68 0 13.085-3.108 17.809-8.64C77.347 41.91 80 34.407 80 26.583z" fill="#E1E1E1"/></mask><g mask="url(#a)"><path d="M58.996 4.853L19.624 25.77v61.356h39.372V4.853z" fill="#152D5D"/><path d="M52.96 29.652h-5.403v8.299h5.403v-8.3zM42.152 29.652h-5.404v8.299h5.404v-8.3zM31.345 29.652h-5.404v8.3h5.404v-8.3zM52.96 42.478h-5.403v8.3h5.403v-8.3zM42.152 42.478h-5.404v8.3h5.404v-8.3zM31.345 42.478h-5.404v8.3h5.404v-8.3zM52.96 55.304h-5.403v8.3h5.403v-8.3zM42.152 55.304h-5.404v8.3h5.404v-8.3zM31.345 55.305h-5.404v8.299h5.404v-8.3z" fill="#FF8139"/><rect width="54.771" height="3.789" rx="1.894" transform="matrix(-.86963 .49371 .50632 .86235 61.63 .033)" fill="#152D5D"/></g></svg>