<svg fill="none" xmlns="http://www.w3.org/2000/svg" viewBox="0 0 80 60"><path d="M79 30c0-6.63-2.653-12.99-7.376-17.678A25.28 25.28 0 0053.815 5h-28.63a25.28 25.28 0 00-17.809 7.322A24.908 24.908 0 000 30c0 6.63 2.653 12.99 7.376 17.678A25.28 25.28 0 0025.185 55h28.63a25.28 25.28 0 0017.809-7.322A24.908 24.908 0 0079 30z" fill="#E1E1E1"/><path fill="#CCD2DD" d="M19.676.631h40.648V60H19.676z"/><path d="M31.628 47.801c.396-1.253.633-3.977-1.583-4.847-2.77-1.088-6.232 13.157 0 9.496 4.986-2.928 6.364-5.506 6.43-6.43-.23 2.177-.178 5.758 1.88 2.671 2.572-3.858 2.176-3.363 2.176-1.681 0 1.681.198 2.572 1.484.791 1.286-1.78-.593.99 6.43-.791 3.878-.792 6.364-1.583 7.123-1.88" stroke="#FF8139"/><path d="M25.753 7.454h10.446M43.818 37.923h10.446M25.753 14.676h28.529M25.753 21.205h28.529M25.735 28.03h28.529" stroke="#000"/><path d="M52.633 31.595l12.101 20.827c1.117-.558 3.258-1.861 4.189-2.443L56.823 29.5l-5.353-4.422 1.163 6.516z" fill="#152D5D"/><path d="M56.838 29.492c-1.396 2.18-3.4 2.313-4.214 2.1L51.46 25.04l5.378 4.452z" fill="#fff"/><path d="M53.803 27.002c-.545 1.107-1.384 1.306-1.736 1.267l-.61-3.214 2.346 1.947z" fill="#FF8139"/></svg>