<svg fill="none" xmlns="http://www.w3.org/2000/svg" viewBox="0 0 80 59"><path d="M80 32.45c0-6.52-2.653-12.772-7.376-17.382-4.724-4.61-11.13-7.2-17.809-7.2h-28.63c-6.68 0-13.085 2.59-17.809 7.2C3.653 19.678 1 25.93 1 32.45s2.653 12.773 7.376 17.383c4.724 4.61 11.13 7.2 17.809 7.2h28.63c6.68 0 13.085-2.59 17.809-7.2C77.347 45.224 80 38.97 80 32.45z" fill="#E1E1E1"/><rect width="50.714" height="32.637" rx="6" transform="matrix(.81786 -.57541 .58835 .8086 11 30.165)" fill="#152D5D"/><rect width="7.348" height="8.53" rx="2" transform="matrix(.80804 -.58912 .60204 .79846 17 32.03)" fill="#FFD300"/><ellipse cx="56.5" cy="29.009" rx="3.5" ry="3.442" fill="#C4C4C4" fill-opacity=".7"/><ellipse cx="60.5" cy="26.058" rx="3.5" ry="3.442" fill="#C4C4C4" fill-opacity=".8"/></svg>