<svg fill="none" xmlns="http://www.w3.org/2000/svg" viewBox="0 0 80 60"><path d="M79 29c0-6.63-2.653-12.99-7.376-17.678A25.28 25.28 0 0053.815 4h-28.63a25.28 25.28 0 00-17.809 7.322A24.908 24.908 0 000 29c0 6.63 2.653 12.99 7.376 17.678A25.28 25.28 0 0025.185 54h28.63a25.28 25.28 0 0017.809-7.322A24.908 24.908 0 0079 29z" fill="#E1E1E1"/><path d="M39.643 44.998L39.499 59" stroke="#000" stroke-width="4"/><path fill-rule="evenodd" clip-rule="evenodd" d="M54.5 11.08H25.518v19.31h.01c-.018.286-.028.575-.028.866 0 7.59 6.492 13.742 14.5 13.742s14.5-6.152 14.5-13.742c0-.291-.01-.58-.029-.866h.029V11.08z" fill="#1C3B78"/><rect x="23.906" y="11.081" width="32.186" height="7.32" rx="2" fill="#1C3B78"/><path fill-rule="evenodd" clip-rule="evenodd" d="M34.853 1.656a1.251 1.251 0 000-.067v-.007A1.63 1.63 0 0033.216 0a1.63 1.63 0 00-1.636 1.582V11.08h3.272V1.656zM48.653 1.656a1.875 1.875 0 000-.067v-.007A1.63 1.63 0 0047.017 0a1.63 1.63 0 00-1.636 1.582V11.08h3.272V1.656z" fill="#00181B"/><path d="M54.485 18.364H25.56v13.822l28.926-13.822z" fill="#081B42"/></svg>