<svg xmlns="http://www.w3.org/2000/svg" fill="none" viewBox="0 0 80 65"><path fill="#E1E1E1" d="M80 33.554c0-6.986-2.687-13.685-7.47-18.625-4.783-4.94-11.27-7.714-18.033-7.714H25.503c-6.764 0-13.25 2.775-18.033 7.714C2.687 19.87 0 26.57 0 33.554 0 40.54 2.687 47.24 7.47 52.18c4.783 4.94 11.27 7.714 18.033 7.714h28.994c6.764 0 13.25-2.775 18.033-7.714C77.313 47.24 80 40.54 80 33.555z"/><path fill="#152D5D" d="M60.362 42.103c2.098 12.002-4.615 22.005-20.381 22.005-15.767 0-22.418-10.003-20.382-22.005C21.907 28.5 31.52 20.098 39.981 20.098c8.46 0 18.074 8.802 20.381 22.005z"/><path fill="#fff" fill-rule="evenodd" d="M33.103 22.498a1.198 1.198 0 01-1.197-1.2c0-.663.536-1.2 1.197-1.2h13.759c.66 0 1.196.537 1.196 1.2 0 .663-.536 1.2-1.197 1.2H33.103z" clip-rule="evenodd"/><path fill="#fff" fill-rule="evenodd" d="M33.103 20.1a1.199 1.199 0 01-1.197-1.2 1.198 1.198 0 011.207-1.2h13.748c.661 0 1.197.537 1.197 1.2 0 .662-.536 1.2-1.197 1.2H33.103zm0-2.403a1.198 1.198 0 01-1.197-1.2c0-.663.536-1.2 1.197-1.2H46.86c.661 0 1.197.537 1.197 1.2 0 .663-.536 1.2-1.197 1.2H33.103z" clip-rule="evenodd"/><path fill="#152D5D" fill-rule="evenodd" d="M33.758 15.565c-1.646-2.69-5.147-8.436-5.993-9.903-1.058-1.833-.353-4.4 2.115-4.034.832.124 1.544.414 2.216.689 1.323.54 2.494 1.017 4.13.045 1.702-1.013 3.003-1.37 3.63-1.45V.896c.036 0 .077.001.123.005.047-.004.088-.005.124-.005v.018c.627.079 1.927.436 3.63 1.449 1.636.972 2.807.494 4.13-.045.672-.275 1.384-.565 2.216-.689 2.467-.367 3.172 2.2 2.115 4.034-.846 1.467-4.348 7.213-5.993 9.902H33.758z" clip-rule="evenodd"/><path fill="#FF8139" fill-rule="evenodd" d="M42.992 43.078c1.662-.993 2.758-2.695 2.758-4.628 0-3.064-2.755-5.548-6.153-5.548-3.398 0-6.153 2.484-6.153 5.548 0 1.933 1.096 3.635 2.759 4.628-2.546.913-4.297 2.822-4.297 5.028 0 3.093 3.444 5.601 7.691 5.601 4.248 0 7.691-2.508 7.691-5.601 0-2.206-1.75-4.115-4.296-5.028z" clip-rule="evenodd"/><path fill="#FF8139" d="M33.444 38.102H45.75l1.538 9.602H31.906l1.538-9.602z"/><path fill="#fff" d="M40.328 47.14c.367 0 .734-.077 1.102-.229.367-.152.79-.408 1.266-.77l.745 1.597c-.388.36-.874.646-1.46.855a5.201 5.201 0 01-1.758.313c-1.022 0-1.876-.299-2.562-.898-.675-.598-1.127-1.448-1.355-2.55h-1.325v-1.311h1.161a4.884 4.884 0 01-.015-.456c0-.2.005-.347.015-.442H34.98v-1.31h1.326c.229-1.093.68-1.939 1.355-2.537.686-.599 1.54-.898 2.562-.898.586 0 1.172.104 1.758.313.586.21 1.072.494 1.46.855l-.745 1.596c-.477-.36-.899-.617-1.266-.77a2.864 2.864 0 00-1.102-.227c-.467 0-.844.138-1.132.413-.278.266-.482.684-.611 1.254h2.22v1.311h-2.369v.898h2.368v1.31h-2.219c.13.58.333 1.008.61 1.283.289.266.666.4 1.133.4z"/></svg>