<svg fill="none" xmlns="http://www.w3.org/2000/svg" viewBox="0 0 80 59"><path d="M79 29c0-6.63-2.653-12.99-7.376-17.678A25.28 25.28 0 0053.815 4h-28.63a25.28 25.28 0 00-17.809 7.322A24.908 24.908 0 000 29c0 6.63 2.653 12.99 7.376 17.678A25.28 25.28 0 0025.185 54h28.63a25.28 25.28 0 0017.809-7.322A24.908 24.908 0 0079 29z" fill="#E1E1E1"/><path d="M29.682 4.683c-3.973 9.291-4.118 19.593-3.147 27.363.718 5.743 5.915 9.47 11.702 9.47 5.91 0 11.38-3.616 12.177-9.472 1.56-11.481-.758-23.533-2.386-27.361-.95-.773-4.068-2.318-8.935-2.318-4.867 0-8.302 1.545-9.41 2.318z" fill="#fff" stroke="#fff"/><path d="M33.826 39.425a4.561 4.561 0 019.123 0v10.263h-9.123V39.425z" fill="#00181B"/><path d="M42.948 54.439a4.561 4.561 0 11-9.122 0V44.176h9.122V54.44z" fill="#00181B"/><path d="M25.56 37.715c1.444 1.824 6.112 7.982 8.266 10.832v-1.425L29.93 31.728l-3.706-10.833c-5.701 8.077-2.47 14.539-.665 16.82zM51.413 37.715c-1.445 1.824-6.114 7.982-8.268 10.832v-1.425l3.896-15.394 3.706-10.833c5.702 8.077 2.471 14.539.666 16.82z" fill="#fff"/><path d="M26.7 37.81c1.977 2.432 5.575 7.221 7.127 9.312v-5.606l-.95-.19a70.548 70.548 0 00-.38-2.661c-.286-1.806-1.806-4.656-2.946-5.987-.913-1.064-2.027-2.85-2.471-3.61-2.566 2.28-2.85 5.7-.38 8.742zM50.265 37.905c-1.976 2.432-5.765 7.411-7.317 9.502v-5.891l1.14-.285c.032-.286.152-1.027.38-2.471.286-1.806 1.901-4.751 2.851-5.987.855-1.11 2.027-2.85 2.47-3.61 2.567 2.28 2.947 5.7.476 8.742z" fill="#00181B"/><path d="M29.266 32.298l4.56 15.964v-3.61l-2.375-8.838c-.684-1.52-1.742-2.977-2.185-3.516zM47.7 32.298l-4.751 16.06v-3.611l2.566-8.933c.684-1.52 1.742-2.977 2.185-3.516z" fill="#C4C4C4"/><path d="M29.74 4.457c-1.013 1.04.57 6.937 2.756 9.597 4.181 5.09 8.267 5.227 12.448 0 1.615-2.47 3.8-8.908 2.946-9.692C43.329.181 33.629.466 29.74 4.457z" fill="#A2D8FF"/><path d="M41.143 1.51l-8.932 12.258.855.95L42.38 1.7c-.38-.076-.982-.158-1.236-.19zM30.311 9.967l5.987-8.457c1.14-.304 3.136-.19 3.991-.095l-8.457 11.593c-.608-.912-1.267-2.407-1.52-3.04z" fill="#81C0EE"/><path d="M27.725 14.298l3.805 2.196a6.17 6.17 0 013.056 5.935l-3.805-2.197a6.17 6.17 0 01-3.056-5.934zM49.22 14.298l-3.805 2.196a6.17 6.17 0 00-3.056 5.935l3.805-2.197a6.17 6.17 0 003.056-5.934z" fill="#FFD300"/><path d="M31.735 20.8l1.9-3.04.38.285-1.9 2.945-.38-.19z" fill="#E6C00B"/><path d="M29.455 19.47l1.996-3.041 1.805 1.045-1.995 3.041-1.806-1.045z" fill="#E7C10B"/><path d="M29.55 17.094l-1.995-1.235.19-1.52 2.09 1.14-.285 1.615zM47.415 17.094l1.995-1.235-.19-1.52-2.09 1.14.285 1.615z" fill="#FF8139"/><path d="M24 4.5L28.5 6 28 7.5 23.5 6l.5-1.5zM53.5 4L49 5.5l.5 1.5L54 5.5 53.5 4z" fill="#000"/></svg>