<svg fill="none" xmlns="http://www.w3.org/2000/svg" viewBox="0 0 80 60"><path d="M79 29c0-6.63-2.653-12.99-7.376-17.678A25.28 25.28 0 0053.815 4h-28.63a25.28 25.28 0 00-17.809 7.322A24.908 24.908 0 000 29c0 6.63 2.653 12.99 7.376 17.678A25.28 25.28 0 0025.185 54h28.63a25.28 25.28 0 0017.809-7.322A24.908 24.908 0 0079 29z" fill="#E1E1E1"/><path d="M51.217 0H27.573C25.047 0 23 2.122 23 4.74v50.52c0 2.618 2.047 4.74 4.573 4.74h23.644c2.526 0 4.573-2.122 4.573-4.74V4.74c0-2.618-2.047-4.74-4.573-4.74z" fill="#152D5D"/><path d="M39.48 58.16c.926 0 1.678-.78 1.678-1.74 0-.961-.752-1.74-1.679-1.74s-1.678.779-1.678 1.74c0 .96.751 1.74 1.678 1.74zM55.182 4.844h-31.58V53.3h31.58V4.844z" fill="#fff"/><path d="M49.832 23.455c-.475.004-.863.148-1.164.434-.298.285-.495.715-.59 1.289l2.304-.02.007.779-2.381.02-.008.227.002.278.012.197 2.062-.017.006.773-1.976.017c.225 1.05.842 1.57 1.853 1.562a3.861 3.861 0 001.478-.326l.009 1.026c-.44.209-.953.316-1.539.321-.812.007-1.474-.21-1.987-.65-.509-.441-.845-1.082-1.007-1.923l-.768.006-.006-.773.687-.006-.012-.187-.001-.187.007-.328-.687.006-.007-.779.758-.006c.121-.847.438-1.514.95-2 .51-.486 1.174-.732 1.99-.74.673-.005 1.278.138 1.813.43l-.417.95c-.521-.252-.984-.377-1.388-.373zM49.832 39.478c-.475.004-.863.148-1.164.434-.298.285-.495.715-.59 1.289l2.304-.02.007.779-2.381.02-.008.227.002.278.012.197 2.062-.017.006.773-1.976.017c.225 1.05.842 1.57 1.853 1.562a3.863 3.863 0 001.478-.326l.009 1.026c-.44.209-.953.316-1.539.32-.812.008-1.474-.21-1.987-.65-.509-.44-.845-1.081-1.007-1.922l-.768.006-.006-.773.687-.006-.012-.187-.001-.187.007-.328-.687.005-.007-.778.758-.006c.121-.847.438-1.514.95-2 .51-.486 1.174-.732 1.99-.74.673-.005 1.278.138 1.813.43l-.417.95c-.521-.253-.984-.377-1.388-.373z" fill="#00181B"/><path fill="#666A6A" d="M26.298 8.142h3.782v6.39h-3.782z"/><path fill="#00181B" d="M34.019 8.142h3.782v6.39h-3.782z"/><path fill="#CCD2DD" d="M35.61 23.11h7.69v6.39h-7.69zM35.655 39.067h7.69v6.39h-7.69z"/><path d="M41.301 9.451h9.48M41.364 13.032l6.362-.051M26.269 24.948h6.097M26.31 28.528l4.092-.05M26.269 40.948h6.097M26.31 44.528l4.092-.05" stroke="#000"/></svg>