<svg fill="none" xmlns="http://www.w3.org/2000/svg" viewBox="0 0 80 62"><path d="M79 32c0-6.63-2.653-12.99-7.376-17.678A25.28 25.28 0 0053.815 7h-28.63a25.28 25.28 0 00-17.809 7.322A24.908 24.908 0 000 32c0 6.63 2.653 12.99 7.376 17.678A25.28 25.28 0 0025.185 57h28.63a25.28 25.28 0 0017.809-7.322A24.908 24.908 0 0079 32z" fill="#E1E1E1"/><path d="M44 4.275c-4.4-.8-9.5.333-11.5 1H32l6.5 3c1.5-.333 5.1-.6 7.5 1 3 2 3.5 6 2.5 10-.8 3.2-6.333 10.667-9 14l-1 6c1.833-1.833 6.8-7.6 12-16 6.5-10.5-1-18-6.5-19z" fill="#D3662F"/><path d="M60 11c-4.4-.8-9.5.333-11.5 1H48l6.5 3c1.5-.333 5.1-.6 7.5 1 3 2 3.5 6 2.5 10-.8 3.2-6.333 10.667-9 14l-1 6c1.833-1.833 6.8-7.6 12-16 6.5-10.5-1-18-6.5-19z" fill="#FF8139"/><path d="M18.266 8.328c.182-1.27.984-1.437 1.362-1.361l37.665 9.53c1.135 1.587-2.042 29.723-3.63 31.084-1.589 1.362-11.8 5.446-13.614 4.765-1.815-.68-28.816-15.202-29.95-17.017-1.135-1.815 7.94-25.413 8.167-27.001z" fill="#FF8139" stroke="#FF8139"/><path d="M42.446 37.262L13.403 22.286l29.724 16.11c3.63-3.63 4.311-8.622 4.311-11.572 0-2.95 1.135-4.991 4.311-5.445 2.541-.363 4.387-3.177 4.992-4.538-3.101.983-9.439 3.267-9.984 4.538-.544 1.27-3.1 11.118-4.31 15.883z" fill="#D3662F"/><path d="M46.984 21.152c-.907-.363-17.146-9.648-26.675-13.732-3.858-1.653 5.672-4.31 8.168-3.63 2.496.68 29.95 11.572 28.816 12.706-1.134 1.135-9.174 5.11-10.309 4.656z" fill="#FF8139"/><path d="M15.672 25.917l1.589-4.538 1.588.907-1.588 4.538-1.589-.907zM31.782 32.724l1.588-4.538 1.589.907-1.589 4.538-1.588-.907z" fill="#FFD300"/><path d="M30 7l.5-5.5 12 5.5v6" stroke="#FF8139"/></svg>