<svg fill="none" xmlns="http://www.w3.org/2000/svg" viewBox="0 0 80 59"><path d="M79 33c0-6.63-2.653-12.99-7.376-17.678A25.28 25.28 0 0053.815 8h-28.63a25.28 25.28 0 00-17.809 7.322A24.908 24.908 0 000 33c0 6.63 2.653 12.99 7.376 17.678A25.28 25.28 0 0025.185 58h28.63a25.28 25.28 0 0017.809-7.322A24.908 24.908 0 0079 33z" fill="#E1E1E1"/><path d="M20.193 47.224c4.088 8.503 14.703 11.636 23.506 10.578 6.33-.76 15.739-6.347 15.739-17.137 0-9.814-6.44-15.76-10.38-21.928C43.7 10.347 43.837 3.679 43.7 0 32.907 10.793 30.794 24.371 30.113 30.776c-4.12-.331.597-7.88-4.708-13.602-1.704 4.02-9.3 21.547-5.212 30.05z" fill="#152D5D"/><path d="M30.817 48.5c.571 5.89 5.201 8.309 8.717 8.309 3.516 0 8.995-1.118 9.1-8.7.103-7.584-6.157-13.76-9.1-16.096-3.376 2.856-9.344 10.017-8.717 16.487z" fill="#FAFAFC"/></svg>