<svg fill="none" xmlns="http://www.w3.org/2000/svg" viewBox="0 0 80 59"><path d="M79 29c0-6.63-2.653-12.99-7.376-17.678A25.28 25.28 0 0053.815 4h-28.63a25.28 25.28 0 00-17.809 7.322A24.908 24.908 0 000 29c0 6.63 2.653 12.99 7.376 17.678A25.28 25.28 0 0025.185 54h28.63a25.28 25.28 0 0017.809-7.322A24.908 24.908 0 0079 29z" fill="#E1E1E1"/><path d="M26.09 43.066c-.676 1.02 5.64 14.82 5.64 14.82s1.232.812 7.94.812c6.813 0 8.07-.812 8.07-.812s5.78-14.013 5.113-14.82c-.667-.807-8.575-1.554-13.183-1.554-4.608 0-12.903.532-13.58 1.554z" fill="#FF8139"/><path d="M48.263 48.048c2.905-1.162 4.276-3.308 4.6-4.236-1.453 5.228-3.995 11.538-5.084 14.039-4.476 1.428-11.426.866-14.494.387 1.789.195 5.935-2.285 7.111-5.107 1.21-2.905 4.236-3.631 7.867-5.083z" fill="#E26630"/><path d="M52.18 43.449c0 .669-9.13 1.21-12.521 1.21s-12.168-.541-12.168-1.21c0-.67 8.775-1.21 12.168-1.21 3.393 0 12.522.54 12.522 1.21z" fill="#fff"/><path d="M38.339 43.69c.202-2.702.484-8.156 0-9.802-.484-1.646-5.93-5.93-11.619-10.167 4.962 2.663 8.4 5.882 9.077 6.173.848.363 2.542-7.14 2.542-9.44 0-1.725-1.63-3.654-2.599-4.554.969.86 2.599 2.133 2.599 1.407v-9.44c0-.968 3.066-5.648 4.599-7.867-1.009 1.735-3.123 5.47-3.51 6.535-.484 1.332-.605 1.09-.605 3.752v9.32c0 .605 0 1.815-.242 3.146 1.815-1.735 6.051-5.712 8.472-7.746-2.281 2.138-7.169 6.996-8.472 9.32-.404 1.048-1.235 3.46-1.331 4.72-.121 1.573 2.178 3.751 2.178 4.478V43.69h-1.09z" fill="#00181B"/><path d="M33.377 9.077c3.292.484 4.68 2.945 4.962 4.115l-2.905 1.452c-.58-2.227-3.146-3.106-4.357-3.268l2.3-2.299zM40.639 9.077c-.097 1.55-1.17 2.178-1.695 2.3l1.694 2.783c.525-.202 1.622-.992 1.816-2.542.194-1.549.888-2.34 1.21-2.541l-2.3-2.663c-.201.242-.629 1.114-.725 2.663zM43.18 2.663c-1.162 2.71-3.63 4.397-4.236 4.478l-2.3-2.179c1.84-.678 3.591-3.389 3.753-4.236l2.783 1.937z" fill="#24AD79"/><path d="M40.397 4.72c-.485.484-.969.787-1.332.484-.484-.403-.02-1.103.242-1.452.363-.484 1.09-.969 1.453-.605.293.293.242.968-.363 1.573zM40.518 11.255c.096-.871.685-1.492.968-1.694.605-.363.605.242.605.484s-.16.898-.484 1.331c-.363.485-1.21.969-1.09-.12zM35.08 12.15c-.784-.551-1.16-1.149-1.106-1.404.134-.638.95-.476 1.581-.096.394.276.702.597.893.89.504.772-.386 1.297-1.367.61z" fill="#237556"/><path d="M43.287 28.683c-3.19.44-5.031 2.476-5.553 3.439l2.136 2.613c1.48-2.2 4.034-2.934 5.126-3.026l-1.71-3.026zM44.75 4.367c-2.226-.388-4.397.726-5.204 1.33l.848 2.421c1.742-1.161 4.357-1.371 5.446-1.33l-1.09-2.421z" fill="#24AD79"/><path d="M42.814 5.214c-.484.097-.847.323-.968.484-.605.726.65.913 1.21.726.272-.09.797-.213.969-.726.12-.363-.4-.646-1.21-.484z" fill="#237556"/><path d="M34.708 17.912c2.518 1.84 3.228 4.8 3.268 6.051l2.905-2.178c-.484-3.099-2.139-5.003-2.905-5.567l-3.268 1.694zM30.956 28.683c1.743 1.646 4.196 1.654 5.205 1.453l.363-3.268c-3.002.29-4.72-1.09-5.204-1.816l-.364 3.631z" fill="#24AD79"/><path d="M33.619 29.046c-.803-.2-1.09-.806-1.09-1.089 0-.363.606-.847 1.574-.484.968.363.968.847.968 1.09 0 .241-.484.726-1.452.483z" fill="#237556"/><path d="M31.32 19.243c-2.13 1.646-2.502 4.398-2.421 5.567l3.389 1.816c-.581-2.711.968-4.68 1.694-5.446l-2.663-1.937z" fill="#24AD79"/><path d="M30.23 22.39c-.278.648-.242 1.21.121 1.452s.847 0 1.21-.847.121-1.331-.12-1.452c-.243-.121-.848 0-1.21.847z" fill="#237556"/><path d="M22 26.747c3.099.29 5.245-1.17 5.93-1.936l1.574 3.267c-2.614 2.13-5.446 2.42-6.535 2.3L22 26.747z" fill="#24AD79"/><path d="M24.427 28.09c.097-.581 1.01-.807 1.453-.847 1.452-.121 1.452.726.726 1.21s-2.3.363-2.179-.363z" fill="#237556"/><path d="M26.462 16.823c1.672 3.094 1.083 5.969.58 7.02l-3.25-.43c.835-2.293-.04-4.871-.581-5.874l3.25-.716z" fill="#24AD79"/><path d="M24.663 20.453c0-.363.12-1.331.605-1.452.847-.242.968 1.21.968 1.452s0 1.574-.726 1.574c-.856 0-.847-1.21-.847-1.574zM38.23 20.322c-.388-.968-.286-1.503 0-1.694.726-.484 1.346.724 1.452 1.573.121.968-.968 1.332-1.452.121zM40.88 30.74c.727-.483 1.453-.241 1.574.122s0 .726-.726 1.33c-.605.505-1.331.485-1.574.122-.3-.45 0-1.09.727-1.573z" fill="#237556"/><path d="M43.785 22.753c-1.162 1.936-3.55 2.017-4.599 1.815l.968 3.026c2.905.29 5.084-1.09 5.81-1.815l-2.179-3.026z" fill="#24AD79"/><path d="M41.97 25.052c-.678.29-.847.767-.847.969 0 .484.726.605 1.573.363s1.15-.847.968-1.21c-.181-.363-.847-.485-1.694-.122z" fill="#237556"/><path d="M50.2 19.727c-.678-2.13-4.035-2.34-5.326-2.178l-1.694 3.268c2.808-.872 4.881.847 5.567 1.815l1.453-2.905z" fill="#24AD79"/><path d="M47.174 18.88c-.648-.277-1.307-.12-1.452.242-.242.605.484 1.05.968 1.21.726.243 1.21 0 1.331-.242.121-.241 0-.847-.847-1.21z" fill="#237556"/><path d="M45.359 9.924c-1.259 2.614-.525 5.285 0 6.293l2.3-2.783c-.679-1.743.282-4.357.846-5.446L45.36 9.924z" fill="#24AD79"/><path d="M45.722 12.387c0-.871.242-1.495.484-1.616.484-.242.726.726.726 1.21 0 .485 0 1.453-.484 1.574-.263.066-.726-.078-.726-1.168z" fill="#237556"/></svg>