<svg fill="none" xmlns="http://www.w3.org/2000/svg" viewBox="0 0 80 60"><path d="M79 34.432c0-6.63-2.653-12.99-7.376-17.678a25.28 25.28 0 00-17.809-7.322h-28.63a25.28 25.28 0 00-17.809 7.322A24.908 24.908 0 000 34.432c0 6.63 2.653 12.99 7.376 17.678a25.28 25.28 0 0017.809 7.322h28.63a25.28 25.28 0 0017.809-7.322A24.908 24.908 0 0079 34.432z" fill="#E1E1E1"/><path d="M22.09 59.475l-6.462-38.339 5.544 4.58 5.612 33.76h-4.695z" fill="#FF8139"/><path d="M12.232 5.615l4.706 21.862c1.267-.366 3.467-.665 4.41-.768L16.605 4.39l-4.374 1.225z" fill="#FF8139"/><path d="M18.227 4.179c5.311-1.133 10.75-.731 12.726-.259l2.656 14.694c-10.603-.254-13.174 1.56-13.189 2.788l.089.398a.898.898 0 01-.089-.398L17.233 7.107c-2.478-.177-4.093-1.843.994-2.928z" fill="#D3662F"/><rect x="15.923" y="7.249" width="2.611" height="15.292" rx="1.305" transform="rotate(-11.73 15.923 7.249)" fill="#FF8139"/><rect x="28.95" y="4.085" width="2.611" height="15.292" rx="1.305" transform="rotate(-11.73 28.95 4.085)" fill="#FF8139"/><path d="M21.617 37l11.047-2.558 1.977 10-11.02 2.295c-4.403-2.853-3.769-7.507-2.004-9.736z" fill="#D3662F"/><ellipse cx="33.473" cy="39.443" rx="3.43" ry="5.117" transform="rotate(-8.502 33.473 39.443)" fill="#FF8139"/><path d="M12.256 5.62l.03.14c.284.702 2.525 1.88 3.758 2.36 0 .346.087.7.166 1.076.723 3.413 2.265 10.499 2.655 11.539.297.792.571 1.09.74 1.17.042.008.084.015.127.021-.03.01-.073.005-.126-.02-2.855-.482-3.995-1.376-4.208-1.767l-3.112-14.38a.372.372 0 01-.03-.138z" fill="#D3662F"/><path d="M16.839 3.707c-2.334.604-4.087 1.499-4.607 1.895l4.928-1.118c5.547-1.62 9.794-.285 12.002.493l1.888-1.064c-4.977-1.888-11.293-.961-14.211-.206zM44.042 59.413l-6.811-41.078 5.543 4.58 5.962 36.498h-4.694z" fill="#FF8139"/><path d="M33.834 2.814l4.707 21.862c1.267-.366 3.467-.665 4.409-.768L38.208 1.59l-4.373 1.225z" fill="#FF8139"/><path d="M39.83 1.378C45.14.245 50.58.647 52.556 1.119l2.656 14.694c-10.603-.254-13.175 1.56-13.19 2.789l.09.397a.897.897 0 01-.09-.397L38.837 4.306c-2.478-.177-4.093-1.843.994-2.928z" fill="#D3662F"/><rect x="37.525" y="4.448" width="2.611" height="15.292" rx="1.305" transform="rotate(-11.73 37.525 4.448)" fill="#FF8139"/><rect x="50.552" y="1.284" width="2.611" height="15.292" rx="1.305" transform="rotate(-11.73 50.552 1.284)" fill="#FF8139"/><path d="M42.994 32.234l11.047-2.558 1.977 10-11.02 2.294c-4.403-2.853-3.769-7.507-2.004-9.736z" fill="#D3662F"/><ellipse cx="54.851" cy="34.676" rx="3.43" ry="5.117" transform="rotate(-8.502 54.85 34.676)" fill="#FF8139"/><path d="M33.858 2.82l.03.138c.285.703 2.526 1.88 3.759 2.36 0 .347.087.701.166 1.077.722 3.413 2.264 10.498 2.654 11.539.297.792.572 1.09.741 1.17l.126.021c-.03.009-.073.005-.126-.02-2.854-.482-3.994-1.376-4.208-1.767l-3.112-14.38a.37.37 0 01-.03-.138z" fill="#D3662F"/><path d="M38.441.906c-2.334.604-4.087 1.499-4.607 1.895l4.929-1.118c5.547-1.62 9.794-.285 12.002.493l1.888-1.064C47.675-.776 41.359.15 38.44.906z" fill="#FF8139"/></svg>