<svg fill="none" xmlns="http://www.w3.org/2000/svg" viewBox="0 0 80 59"><path d="M79 29c0-6.63-2.653-12.99-7.376-17.678A25.28 25.28 0 0053.815 4h-28.63a25.28 25.28 0 00-17.809 7.322A24.908 24.908 0 000 29c0 6.63 2.653 12.99 7.376 17.678A25.28 25.28 0 0025.185 54h28.63a25.28 25.28 0 0017.809-7.322A24.908 24.908 0 0079 29z" fill="#E1E1E1"/><path fill="#CCD2DD" d="M20.949 9.45H58.24V59H20.949z"/><path d="M20.95 9.776l35.405-2.377v46.55L20.95 58.786V9.776z" fill="#FAFAFC"/><path d="M20.809 9.768L54.61 0v49.232L20.809 59V9.768z" fill="#FB5756"/><path d="M28.055 15.603l-.574-3.162.517-.094.493 2.719 1.339-.243.08.443-1.855.337zM30.455 15.167l-.574-3.162.517-.093.574 3.161-.517.094zM33.036 11.433l.536-.098-.533 3.363-.545.099-1.677-2.962.532-.096 1.017 1.846c.051.087.11.202.176.343.066.14.11.245.135.315a4.31 4.31 0 01.018-.396c.013-.151.025-.264.037-.338l.304-2.076zM34.774 12.636l.358-.065c.241-.044.408-.12.5-.229.091-.109.121-.251.09-.427-.033-.179-.115-.297-.246-.353-.13-.057-.313-.064-.548-.021l-.342.062.188 1.033zm.077.429l.23 1.262-.517.094-.574-3.161.893-.162c.408-.075.724-.053.948.064.223.117.363.33.42.639.07.393-.083.711-.462.953l1.147 1.237-.588.106-.986-1.125-.51.093zM39.185 13.582l-1.788.325-.574-3.162 1.788-.324.08.437-1.272.23.156.861 1.191-.216.079.432-1.191.217.18.992 1.271-.23.08.438zM40.962 13.26l-.516.093-.494-2.718-.93.169-.08-.443 2.376-.432.08.444-.929.168.493 2.719zM45.49 12.438l-.474-.821-1.21.22-.15.934-.544.098.606-3.389.563-.102 1.759 2.96-.55.1zm-.692-1.242l-.452-.807a5.939 5.939 0 01-.268-.514 4.929 4.929 0 01-.065.613l-.136.876.921-.168z" fill="#fff"/></svg>