<svg fill="none" xmlns="http://www.w3.org/2000/svg" viewBox="0 0 80 61"><path d="M80 32.975c0-6.129-2.653-12.006-7.376-16.34-4.724-4.334-11.13-6.768-17.809-6.768h-28.63c-6.68 0-13.085 2.434-17.809 6.768C3.653 20.969 1 26.846 1 32.975s2.653 12.006 7.376 16.34c4.724 4.334 11.13 6.768 17.809 6.768h28.63c6.68 0 13.085-2.434 17.809-6.768C77.347 44.981 80 39.104 80 32.975z" fill="#E1E1E1"/><path d="M30 55.934v-33.29c8.4-6.531 17.5-2.72 21 0v33.29H30z" fill="#FAFAFC"/><path d="M40.217 22.33v-8.478" stroke="#000"/><path d="M36.526 17.62c1.136 3.517 4.257 2.827 5.392 2.512 6.357-1.758 1.703-14.027-2.27-20.099.284.838.681 3.015 0 5.025-.851 2.513-4.54 8.165-3.122 12.562z" fill="#FF8139"/><path d="M38.513 14.48c-1.362 3.015.568 4.397 1.703 4.71 2.838 0 3.405-2.512 2.838-3.768-.454-1.005-1.703-4.606-2.27-6.28-.19.523-.908 2.323-2.27 5.338z" fill="#FFD300"/></svg>