<svg xmlns="http://www.w3.org/2000/svg" fill="none" viewBox="0 0 80 59"><path fill="#E1E1E1" d="M79 29.508c0-6.52-2.653-12.773-7.376-17.383-4.724-4.61-11.13-7.2-17.809-7.2h-28.63c-6.68 0-13.085 2.59-17.809 7.2C2.653 16.735 0 22.988 0 29.508s2.653 12.773 7.376 17.383c4.724 4.61 11.13 7.2 17.809 7.2h28.63c6.68 0 13.085-2.59 17.809-7.2C76.347 42.281 79 36.028 79 29.508z"/><path fill="#152D5D" d="M49.763 46.253c0-1.475.135-2.678-1.328-2.823 1.463-.145 1.328-1.348 1.328-2.823a2.83 2.83 0 00-.85-2.017 2.927 2.927 0 00-2.052-.836H31.34c-.77 0-1.508.3-2.052.836a2.83 2.83 0 00-.85 2.017c0 1.475-.135 2.678 1.328 2.823-1.463.145-1.328 1.348-1.328 2.823 0 1.475-.135 2.678 1.328 2.823-1.463.145-1.328 1.348-1.328 2.823 0 .757.306 1.483.85 2.018a2.927 2.927 0 002.052.836H46.86c.77 0 1.508-.3 2.052-.836a2.83 2.83 0 00.85-2.018c0-1.475.135-2.678-1.328-2.823 1.457-.145 1.328-1.348 1.328-2.823z"/><path fill="#152D5D" d="M32.906 54.752a6.361 6.361 0 002.402 3.097 6.532 6.532 0 003.789 1.135 6.975 6.975 0 003.869-1.148 6.802 6.802 0 002.549-3.084H32.906z"/><path fill="#fff" d="M57.201 17.806c0-3.001-.77-5.953-2.24-8.582a17.93 17.93 0 00-6.17-6.457 18.37 18.37 0 00-17.42-1.065 18.039 18.039 0 00-6.936 5.656 17.634 17.634 0 00-3.304 8.243c-.377 2.978.017 6 1.146 8.788a17.822 17.822 0 005.311 7.157l.13.097c.645.514 3.614 3.022 3.62 6.111h15.523a16.076 16.076 0 013.75-6.208 17.804 17.804 0 004.865-6.142 17.514 17.514 0 001.725-7.598z"/><path stroke="#FF8139" stroke-miterlimit="10" d="M44.36 37.753a42.938 42.938 0 01-1.518-10.543 37.2 37.2 0 01.48-5.658 4.163 4.163 0 00-.109-1.815 4.208 4.208 0 00-.873-1.603 4.297 4.297 0 00-1.477-1.095 4.364 4.364 0 00-1.808-.384v0a4.365 4.365 0 00-1.802.37 4.299 4.299 0 00-1.48 1.075c-.41.46-.712 1-.888 1.586a4.165 4.165 0 00-.133 1.806c.278 1.894.426 3.804.442 5.718a44.575 44.575 0 01-1.358 10.555"/></svg>
