<svg xmlns="http://www.w3.org/2000/svg" fill="none" viewBox="0 0 80 61"><path fill="#E1E1E1" d="M79 35.416c0-6.52-2.653-12.772-7.376-17.383-4.724-4.61-11.13-7.2-17.809-7.2h-28.63c-6.68 0-13.085 2.59-17.809 7.2C2.653 22.643 0 28.896 0 35.416S2.653 48.19 7.376 52.8C12.1 57.41 18.506 60 25.185 60h28.63c6.68 0 13.085-2.59 17.809-7.2C76.347 48.19 79 41.936 79 35.416z"/><path fill="#D3A8A4" d="M24.127 49.73h6.108v10.268h-6.108zM42.603 49.735h6.108v10.268h-6.108z"/><ellipse cx="39.621" cy="33.371" fill="#F4C7C3" rx="25.953" ry="21.498"/><path fill="#F4C7C3" d="M13.887 19.898h5.865l-4.16 7.445-1.705-7.445z"/><path fill="#F4C7C3" d="M8.452 30.292a3 3 0 013-3h4.837v14.31h-4.837a3 3 0 01-3-3v-8.31zM32.099 49.73h6.108v10.268h-6.108zM50.575 47.315h6.108v12.688h-6.108z"/><path stroke="#F4C7C3" stroke-linecap="round" stroke-width="2" d="M65.117 28.54c1.403-.799 3.702-3.05 1.666-5.669-2.546-3.272-1.513 4.613 3.066 4.883 4.58.27 2.605-4.954 1.903-5.812-.703-.859-1.562 2.715 2.555 4.069 3.294 1.083 3.76-1.641 3.582-3.139"/><path stroke="#D3A8A4" stroke-linecap="round" d="M11.252 32.804v4.883m3.228-4.883v4.883"/><path stroke="#000" stroke-linecap="round" stroke-width="2" d="M29.017 18.268c3.043-1.605 11.323-4.586 19.694-.733"/><ellipse cx="24.126" cy="26.102" fill="#00181B" rx="1.281" ry="1.189"/><ellipse cx="17.288" cy="26.102" fill="#00181B" rx="1.281" ry="1.189"/><ellipse cx="38.621" cy="8.308" fill="#FFD300" rx="7.523" ry="7.311"/></svg>