<svg width="199" height="403" viewBox="0 0 199 403" fill="none" xmlns="http://www.w3.org/2000/svg">
<path d="M90.7045 332.898C121.972 314.022 148.72 280.587 164.879 248.52C175.257 227.926 187.437 198.18 176.04 175.359C168.63 160.523 153.398 152.381 137.252 154.703C83.2001 162.475 57.9855 221.89 41.0788 266.702C31.6319 291.741 23.5634 317.297 13.386 342.061C8.29712 354.444 2.66942 367.167 -6.78246 376.906C-9.76595 379.981 -15.1395 385.89 -20.1409 385.008C-26.7338 383.845 -31.7365 374.35 -34.0172 368.956C-39.3085 356.442 -40.1211 342.52 -38.905 329.121C-34.942 285.459 -18.9514 242.174 -2.27307 202.04C9.77641 173.044 24.2395 145.141 36.4852 116.23C44.0531 98.3628 55.6492 76.1487 55.459 56.0591C55.3988 49.6919 52.0959 47.3095 46.0815 49.2848C19.5954 57.9834 -3.62998 79.4846 -21.8466 99.5894C-59.2276 140.845 -81.9898 193.755 -99.8616 245.872C-104.966 260.758 -109.217 276.866 -117.349 290.497C-119.796 294.599 -126.481 304.611 -132.238 304.873C-136.67 305.075 -141.458 293.697 -142.724 290.77C-149.77 274.491 -147.629 251.599 -145.417 234.591C-138.18 178.951 -115.404 128.68 -87.3359 80.8306C-79.4181 67.3328 -58.1898 43.6457 -67.8064 26.3547C-71.4649 19.7765 -78.1574 17.5471 -85.398 17.5252C-115.631 17.434 -144.69 42.5921 -165.055 62.2567C-199.721 95.7302 -217.42 145.069 -229.608 190.612" stroke="#65ED49" stroke-width="35" stroke-linecap="round" stroke-linejoin="round"/>
</svg>
